<?xml version="1.0" encoding="UTF-8" standalone="no"?>
<!DOCTYPE svg PUBLIC "-//W3C//DTD SVG 1.1//EN"
 "http://www.w3.org/Graphics/SVG/1.1/DTD/svg11.dtd">
<!-- Generated by graphviz version 2.40.1 (20161225.0304)
 -->
<!-- Title: IteratorSet::print Pages: 1 -->
<svg width="250pt" height="142pt"
 viewBox="0.00 0.00 250.00 142.00" xmlns="http://www.w3.org/2000/svg" xmlns:xlink="http://www.w3.org/1999/xlink">
<g id="graph0" class="graph" transform="scale(1 1) rotate(0) translate(4 138)">
<title>IteratorSet::print</title>
<!-- Node19 -->
<g id="node1" class="node">
<title>Node19</title>
<polygon fill="#bfbfbf" stroke="#000000" points="0,-57.5 0,-76.5 87,-76.5 87,-57.5 0,-57.5"/>
<text text-anchor="middle" x="43.5" y="-64.5" font-family="Helvetica,sans-Serif" font-size="10.00" fill="#000000">IteratorSet::print</text>
</g>
<!-- Node20 -->
<g id="node2" class="node">
<title>Node20</title>
<g id="a_node2"><a xlink:href="classIteratorSet.html#ab753919263cc447450def0c3104e4d7e" target="_top" xlink:title="IteratorSet::printHeader">
<polygon fill="none" stroke="#000000" points="123,-114.5 123,-133.5 242,-133.5 242,-114.5 123,-114.5"/>
<text text-anchor="middle" x="182.5" y="-121.5" font-family="Helvetica,sans-Serif" font-size="10.00" fill="#000000">IteratorSet::printHeader</text>
</a>
</g>
</g>
<!-- Node19&#45;&gt;Node20 -->
<g id="edge1" class="edge">
<title>Node19&#45;&gt;Node20</title>
<path fill="none" stroke="#191970" d="M61.8142,-76.637C77.726,-84.7949 101.5268,-96.4858 123,-105 128.489,-107.1764 134.335,-109.2866 140.1377,-111.2602"/>
<polygon fill="#191970" stroke="#191970" points="139.1987,-114.6359 149.7917,-114.4405 141.3889,-107.9873 139.1987,-114.6359"/>
</g>
<!-- Node21 -->
<g id="node3" class="node">
<title>Node21</title>
<g id="a_node3"><a xlink:href="classIteratorSet.html#abde91affbfbc28af32c9e443bf0c7ca1" target="_top" xlink:title="IteratorSet::begin">
<polygon fill="none" stroke="#000000" points="136.5,-76.5 136.5,-95.5 228.5,-95.5 228.5,-76.5 136.5,-76.5"/>
<text text-anchor="middle" x="182.5" y="-83.5" font-family="Helvetica,sans-Serif" font-size="10.00" fill="#000000">IteratorSet::begin</text>
</a>
</g>
</g>
<!-- Node19&#45;&gt;Node21 -->
<g id="edge2" class="edge">
<title>Node19&#45;&gt;Node21</title>
<path fill="none" stroke="#191970" d="M87.0991,-72.9596C99.4124,-74.6427 112.9915,-76.4988 125.9482,-78.2699"/>
<polygon fill="#191970" stroke="#191970" points="125.7878,-81.7804 136.1697,-79.6671 126.7359,-74.8449 125.7878,-81.7804"/>
</g>
<!-- Node22 -->
<g id="node4" class="node">
<title>Node22</title>
<g id="a_node4"><a xlink:href="classIteratorSet.html#a669f9e3945344ed40509790224e5d9ff" target="_top" xlink:title="IteratorSet::end">
<polygon fill="none" stroke="#000000" points="140.5,-38.5 140.5,-57.5 224.5,-57.5 224.5,-38.5 140.5,-38.5"/>
<text text-anchor="middle" x="182.5" y="-45.5" font-family="Helvetica,sans-Serif" font-size="10.00" fill="#000000">IteratorSet::end</text>
</a>
</g>
</g>
<!-- Node19&#45;&gt;Node22 -->
<g id="edge3" class="edge">
<title>Node19&#45;&gt;Node22</title>
<path fill="none" stroke="#191970" d="M87.0991,-61.0404C100.8095,-59.1663 116.0891,-57.0777 130.3315,-55.1309"/>
<polygon fill="#191970" stroke="#191970" points="131.0478,-58.5657 140.4816,-53.7435 130.0997,-51.6302 131.0478,-58.5657"/>
</g>
<!-- Node23 -->
<g id="node5" class="node">
<title>Node23</title>
<g id="a_node5"><a xlink:href="classIteratorSet.html#a027bf9a2ec77442dccad642bd77aeecc" target="_top" xlink:title="IteratorSet::printLine">
<polygon fill="none" stroke="#000000" points="130,-.5 130,-19.5 235,-19.5 235,-.5 130,-.5"/>
<text text-anchor="middle" x="182.5" y="-7.5" font-family="Helvetica,sans-Serif" font-size="10.00" fill="#000000">IteratorSet::printLine</text>
</a>
</g>
</g>
<!-- Node19&#45;&gt;Node23 -->
<g id="edge4" class="edge">
<title>Node19&#45;&gt;Node23</title>
<path fill="none" stroke="#191970" d="M61.8142,-57.363C77.726,-49.2051 101.5268,-37.5142 123,-29 128.489,-26.8236 134.335,-24.7134 140.1377,-22.7398"/>
<polygon fill="#191970" stroke="#191970" points="141.3889,-26.0127 149.7917,-19.5595 139.1987,-19.3641 141.3889,-26.0127"/>
</g>
</g>
</svg>
