<?xml version="1.0" encoding="UTF-8" standalone="no"?>
<!DOCTYPE svg PUBLIC "-//W3C//DTD SVG 1.1//EN"
 "http://www.w3.org/Graphics/SVG/1.1/DTD/svg11.dtd">
<!-- Generated by graphviz version 2.40.1 (20161225.0304)
 -->
<!-- Title: Species_Base::getU Pages: 1 -->
<svg width="733pt" height="154pt"
 viewBox="0.00 0.00 733.00 154.00" xmlns="http://www.w3.org/2000/svg" xmlns:xlink="http://www.w3.org/1999/xlink">
<g id="graph0" class="graph" transform="scale(1 1) rotate(0) translate(4 150)">
<title>Species_Base::getU</title>
<!-- Node48 -->
<g id="node1" class="node">
<title>Node48</title>
<polygon fill="#bfbfbf" stroke="#000000" points="0,-60.5 0,-79.5 107,-79.5 107,-60.5 0,-60.5"/>
<text text-anchor="middle" x="53.5" y="-67.5" font-family="Helvetica,sans-Serif" font-size="10.00" fill="#000000">Species_Base::getU</text>
</g>
<!-- Node49 -->
<g id="node2" class="node">
<title>Node49</title>
<g id="a_node2"><a xlink:href="classSolver.html#a23be16428b7ba399bfd2f06555547f6b" target="_top" xlink:title="Solver::calcRates_EBT">
<polygon fill="none" stroke="#000000" points="153.5,-126.5 153.5,-145.5 272.5,-145.5 272.5,-126.5 153.5,-126.5"/>
<text text-anchor="middle" x="213" y="-133.5" font-family="Helvetica,sans-Serif" font-size="10.00" fill="#000000">Solver::calcRates_EBT</text>
</a>
</g>
</g>
<!-- Node48&#45;&gt;Node49 -->
<g id="edge1" class="edge">
<title>Node48&#45;&gt;Node49</title>
<path fill="none" stroke="#191970" d="M78.1843,-84.8413C95.7824,-94.9496 120.2582,-108.0666 143,-117 152.1421,-120.5912 162.2116,-123.7578 171.7948,-126.4253"/>
<polygon fill="#191970" stroke="#191970" points="79.5709,-81.5981 69.1698,-79.5808 76.0427,-87.644 79.5709,-81.5981"/>
</g>
<!-- Node52 -->
<g id="node5" class="node">
<title>Node52</title>
<g id="a_node5"><a xlink:href="classSolver.html#a9172d0d2dc6399ada494ef23020943d5" target="_top" xlink:title="Computes the partial integral &#160;for the specified species. ">
<polygon fill="none" stroke="#000000" points="155,-77 155,-107 271,-107 271,-77 155,-77"/>
<text text-anchor="start" x="163" y="-95" font-family="Helvetica,sans-Serif" font-size="10.00" fill="#000000">Solver::integrate_wudx</text>
<text text-anchor="middle" x="213" y="-84" font-family="Helvetica,sans-Serif" font-size="10.00" fill="#000000">_above</text>
</a>
</g>
</g>
<!-- Node48&#45;&gt;Node52 -->
<g id="edge4" class="edge">
<title>Node48&#45;&gt;Node52</title>
<path fill="none" stroke="#191970" d="M117.3335,-78.8046C129.7535,-80.5177 142.7105,-82.3049 154.9321,-83.9906"/>
<polygon fill="#191970" stroke="#191970" points="117.4394,-75.2862 107.0549,-77.3869 116.4829,-82.2205 117.4394,-75.2862"/>
</g>
<!-- Node53 -->
<g id="node6" class="node">
<title>Node53</title>
<g id="a_node6"><a xlink:href="classSolver.html#a2a6ca7647a4cde1195789132f3873c0b" target="_top" xlink:title="Computes the integral &#160;for the specified species. For details, see integrate_wudx_above. ">
<polygon fill="none" stroke="#000000" points="164,-38.5 164,-57.5 262,-57.5 262,-38.5 164,-38.5"/>
<text text-anchor="middle" x="213" y="-45.5" font-family="Helvetica,sans-Serif" font-size="10.00" fill="#000000">Solver::integrate_x</text>
</a>
</g>
</g>
<!-- Node48&#45;&gt;Node53 -->
<g id="edge5" class="edge">
<title>Node48&#45;&gt;Node53</title>
<path fill="none" stroke="#191970" d="M117.1341,-61.2229C132.6994,-59.0759 149.1194,-56.8111 163.8866,-54.7743"/>
<polygon fill="#191970" stroke="#191970" points="116.4829,-57.7795 107.0549,-62.6131 117.4394,-64.7138 116.4829,-57.7795"/>
</g>
<!-- Node57 -->
<g id="node10" class="node">
<title>Node57</title>
<g id="a_node10"><a xlink:href="classSolver.html#ac108d0e9de32ef14e68a176ff9969c38" target="_top" xlink:title="Solver::copyCohortsToState">
<polygon fill="none" stroke="#000000" points="143,-.5 143,-19.5 283,-19.5 283,-.5 143,-.5"/>
<text text-anchor="middle" x="213" y="-7.5" font-family="Helvetica,sans-Serif" font-size="10.00" fill="#000000">Solver::copyCohortsToState</text>
</a>
</g>
</g>
<!-- Node48&#45;&gt;Node57 -->
<g id="edge9" class="edge">
<title>Node48&#45;&gt;Node57</title>
<path fill="none" stroke="#191970" d="M81.0365,-55.9561C98.4902,-47.4151 121.7116,-36.706 143,-29 152.7093,-25.4854 163.3806,-22.273 173.4014,-19.5297"/>
<polygon fill="#191970" stroke="#191970" points="79.3869,-52.8673 71.9823,-60.4452 82.4963,-59.1388 79.3869,-52.8673"/>
</g>
<!-- Node50 -->
<g id="node3" class="node">
<title>Node50</title>
<g id="a_node3"><a xlink:href="classSolver.html#af4c8f6565df94ed6a058a224196b9c2b" target="_top" xlink:title="Solver::step_to">
<polygon fill="none" stroke="#000000" points="349,-126.5 349,-145.5 432,-145.5 432,-126.5 349,-126.5"/>
<text text-anchor="middle" x="390.5" y="-133.5" font-family="Helvetica,sans-Serif" font-size="10.00" fill="#000000">Solver::step_to</text>
</a>
</g>
</g>
<!-- Node49&#45;&gt;Node50 -->
<g id="edge2" class="edge">
<title>Node49&#45;&gt;Node50</title>
<path fill="none" stroke="#191970" d="M282.7537,-136C305.1628,-136 329.2672,-136 348.9831,-136"/>
<polygon fill="#191970" stroke="#191970" points="282.5987,-132.5001 272.5987,-136 282.5987,-139.5001 282.5987,-132.5001"/>
</g>
<!-- Node51 -->
<g id="node4" class="node">
<title>Node51</title>
<g id="a_node4"><a xlink:href="classSolver.html#a06cf82d0a99490279ab20d2ad6b876db" target="_top" xlink:title="Solver::step_to">
<polygon fill="none" stroke="#000000" points="512,-126.5 512,-145.5 595,-145.5 595,-126.5 512,-126.5"/>
<text text-anchor="middle" x="553.5" y="-133.5" font-family="Helvetica,sans-Serif" font-size="10.00" fill="#000000">Solver::step_to</text>
</a>
</g>
</g>
<!-- Node50&#45;&gt;Node51 -->
<g id="edge3" class="edge">
<title>Node50&#45;&gt;Node51</title>
<path fill="none" stroke="#191970" d="M442.094,-136C464.5502,-136 490.5233,-136 511.7392,-136"/>
<polygon fill="#191970" stroke="#191970" points="442.0536,-132.5001 432.0535,-136 442.0535,-139.5001 442.0536,-132.5001"/>
</g>
<!-- Node54 -->
<g id="node7" class="node">
<title>Node54</title>
<g id="a_node7"><a xlink:href="classSolver.html#aa5f2d1d48f6b4db83dbb257325924d2c" target="_top" xlink:title="Solver::calcSpeciesBirthFlux">
<polygon fill="none" stroke="#000000" points="319,-38.5 319,-57.5 462,-57.5 462,-38.5 319,-38.5"/>
<text text-anchor="middle" x="390.5" y="-45.5" font-family="Helvetica,sans-Serif" font-size="10.00" fill="#000000">Solver::calcSpeciesBirthFlux</text>
</a>
</g>
</g>
<!-- Node53&#45;&gt;Node54 -->
<g id="edge6" class="edge">
<title>Node53&#45;&gt;Node54</title>
<path fill="none" stroke="#191970" d="M272.4967,-48C287.3355,-48 303.4028,-48 318.7637,-48"/>
<polygon fill="#191970" stroke="#191970" points="272.4437,-44.5001 262.4436,-48 272.4436,-51.5001 272.4437,-44.5001"/>
</g>
<!-- Node55 -->
<g id="node8" class="node">
<title>Node55</title>
<g id="a_node8"><a xlink:href="classSolver.html#ae9cbf50e5db34626f54298c75fc64188" target="_top" xlink:title="Solver::newborns_out">
<polygon fill="none" stroke="#000000" points="498,-38.5 498,-57.5 609,-57.5 609,-38.5 498,-38.5"/>
<text text-anchor="middle" x="553.5" y="-45.5" font-family="Helvetica,sans-Serif" font-size="10.00" fill="#000000">Solver::newborns_out</text>
</a>
</g>
</g>
<!-- Node54&#45;&gt;Node55 -->
<g id="edge7" class="edge">
<title>Node54&#45;&gt;Node55</title>
<path fill="none" stroke="#191970" d="M472.718,-48C481.1363,-48 489.5443,-48 497.5828,-48"/>
<polygon fill="#191970" stroke="#191970" points="472.4687,-44.5001 462.4686,-48 472.4686,-51.5001 472.4687,-44.5001"/>
</g>
<!-- Node56 -->
<g id="node9" class="node">
<title>Node56</title>
<g id="a_node9"><a xlink:href="classSolver.html#a40c9ebb8d585e07d8f65c4ac5ada6420" target="_top" xlink:title="Solver::u0_out">
<polygon fill="none" stroke="#000000" points="645,-38.5 645,-57.5 725,-57.5 725,-38.5 645,-38.5"/>
<text text-anchor="middle" x="685" y="-45.5" font-family="Helvetica,sans-Serif" font-size="10.00" fill="#000000">Solver::u0_out</text>
</a>
</g>
</g>
<!-- Node55&#45;&gt;Node56 -->
<g id="edge8" class="edge">
<title>Node55&#45;&gt;Node56</title>
<path fill="none" stroke="#191970" d="M619.3788,-48C628.0211,-48 636.6605,-48 644.6996,-48"/>
<polygon fill="#191970" stroke="#191970" points="619.2679,-44.5001 609.2678,-48 619.2678,-51.5001 619.2679,-44.5001"/>
</g>
</g>
</svg>
