<?xml version="1.0" encoding="UTF-8" standalone="no"?>
<!DOCTYPE svg PUBLIC "-//W3C//DTD SVG 1.1//EN"
 "http://www.w3.org/Graphics/SVG/1.1/DTD/svg11.dtd">
<!-- Generated by graphviz version 2.40.1 (20161225.0304)
 -->
<!-- Title: Solver::calcRates_CM Pages: 1 -->
<svg width="309pt" height="368pt"
 viewBox="0.00 0.00 309.00 367.50" xmlns="http://www.w3.org/2000/svg" xmlns:xlink="http://www.w3.org/1999/xlink">
<g id="graph0" class="graph" transform="scale(1 1) rotate(0) translate(4 363.5)">
<title>Solver::calcRates_CM</title>
<!-- Node20 -->
<g id="node1" class="node">
<title>Node20</title>
<polygon fill="#bfbfbf" stroke="#000000" points="0,-164.5 0,-183.5 116,-183.5 116,-164.5 0,-164.5"/>
<text text-anchor="middle" x="58" y="-171.5" font-family="Helvetica,sans-Serif" font-size="10.00" fill="#000000">Solver::calcRates_CM</text>
</g>
<!-- Node21 -->
<g id="node2" class="node">
<title>Node21</title>
<g id="a_node2"><a xlink:href="classSpecies__Base.html#aad4cefae53644171dfcd12639d2e0e63" target="_top" xlink:title="Species_Base::establishment\lProbability">
<polygon fill="none" stroke="#000000" points="153.5,-329 153.5,-359 299.5,-359 299.5,-329 153.5,-329"/>
<text text-anchor="start" x="161.5" y="-347" font-family="Helvetica,sans-Serif" font-size="10.00" fill="#000000">Species_Base::establishment</text>
<text text-anchor="middle" x="226.5" y="-336" font-family="Helvetica,sans-Serif" font-size="10.00" fill="#000000">Probability</text>
</a>
</g>
</g>
<!-- Node20&#45;&gt;Node21 -->
<g id="edge1" class="edge">
<title>Node20&#45;&gt;Node21</title>
<path fill="none" stroke="#191970" d="M61.6198,-183.72C71.7556,-209.6255 102.929,-280.9395 152,-319 154.3245,-320.8029 156.7859,-322.4795 159.3448,-324.0382"/>
<polygon fill="#191970" stroke="#191970" points="157.8988,-327.2348 168.3626,-328.896 161.2186,-321.0721 157.8988,-327.2348"/>
</g>
<!-- Node22 -->
<g id="node3" class="node">
<title>Node22</title>
<g id="a_node3"><a xlink:href="classSpecies__Base.html#abe98e190e76cfd39eee7ef3d30141d53" target="_top" xlink:title="Species_Base::growthRate">
<polygon fill="none" stroke="#000000" points="158.5,-290.5 158.5,-309.5 294.5,-309.5 294.5,-290.5 158.5,-290.5"/>
<text text-anchor="middle" x="226.5" y="-297.5" font-family="Helvetica,sans-Serif" font-size="10.00" fill="#000000">Species_Base::growthRate</text>
</a>
</g>
</g>
<!-- Node20&#45;&gt;Node22 -->
<g id="edge2" class="edge">
<title>Node20&#45;&gt;Node22</title>
<path fill="none" stroke="#191970" d="M63.6656,-183.7274C76.5169,-204.8935 110.0468,-255.287 152,-281 155.5849,-283.1972 159.4155,-285.1413 163.3772,-286.8614"/>
<polygon fill="#191970" stroke="#191970" points="162.2146,-290.1641 172.8047,-290.482 164.7243,-283.6294 162.2146,-290.1641"/>
</g>
<!-- Node23 -->
<g id="node4" class="node">
<title>Node23</title>
<g id="a_node4"><a xlink:href="classSpecies__Base.html#a6f5bcd038896a23f44cd453d004d34d0" target="_top" xlink:title="Species_Base::set_ub">
<polygon fill="none" stroke="#000000" points="169,-252.5 169,-271.5 284,-271.5 284,-252.5 169,-252.5"/>
<text text-anchor="middle" x="226.5" y="-259.5" font-family="Helvetica,sans-Serif" font-size="10.00" fill="#000000">Species_Base::set_ub</text>
</a>
</g>
</g>
<!-- Node20&#45;&gt;Node23 -->
<g id="edge3" class="edge">
<title>Node20&#45;&gt;Node23</title>
<path fill="none" stroke="#191970" d="M68.1322,-183.5272C84.4955,-198.4023 118.3219,-227.0849 152,-243 157.0536,-245.3882 162.4473,-247.5034 167.9346,-249.3711"/>
<polygon fill="#191970" stroke="#191970" points="167.2709,-252.8305 177.8596,-252.4712 169.3579,-246.1489 167.2709,-252.8305"/>
</g>
<!-- Node24 -->
<g id="node5" class="node">
<title>Node24</title>
<g id="a_node5"><a xlink:href="classSpecies__Base.html#a0954e7ce15766c2bae1731fe5d8decd2" target="_top" xlink:title="Species_Base::calc\l_boundary_u">
<polygon fill="none" stroke="#000000" points="174.5,-203 174.5,-233 278.5,-233 278.5,-203 174.5,-203"/>
<text text-anchor="start" x="182.5" y="-221" font-family="Helvetica,sans-Serif" font-size="10.00" fill="#000000">Species_Base::calc</text>
<text text-anchor="middle" x="226.5" y="-210" font-family="Helvetica,sans-Serif" font-size="10.00" fill="#000000">_boundary_u</text>
</a>
</g>
</g>
<!-- Node20&#45;&gt;Node24 -->
<g id="edge4" class="edge">
<title>Node20&#45;&gt;Node24</title>
<path fill="none" stroke="#191970" d="M94.562,-183.5473C114.9729,-188.8772 140.9517,-195.661 164.4497,-201.797"/>
<polygon fill="#191970" stroke="#191970" points="163.785,-205.2407 174.3449,-204.3809 165.5536,-198.4678 163.785,-205.2407"/>
</g>
<!-- Node25 -->
<g id="node6" class="node">
<title>Node25</title>
<g id="a_node6"><a xlink:href="classSpecies__Base.html#aa6880c6f5c8ff125cab4d1195dedfb13" target="_top" xlink:title="Species_Base::getX">
<polygon fill="none" stroke="#000000" points="173.5,-164.5 173.5,-183.5 279.5,-183.5 279.5,-164.5 173.5,-164.5"/>
<text text-anchor="middle" x="226.5" y="-171.5" font-family="Helvetica,sans-Serif" font-size="10.00" fill="#000000">Species_Base::getX</text>
</a>
</g>
</g>
<!-- Node20&#45;&gt;Node25 -->
<g id="edge5" class="edge">
<title>Node20&#45;&gt;Node25</title>
<path fill="none" stroke="#191970" d="M116.4602,-174C131.4429,-174 147.6298,-174 162.8594,-174"/>
<polygon fill="#191970" stroke="#191970" points="163.2235,-177.5001 173.2235,-174 163.2235,-170.5001 163.2235,-177.5001"/>
</g>
<!-- Node26 -->
<g id="node7" class="node">
<title>Node26</title>
<g id="a_node7"><a xlink:href="classSpecies__Base.html#ad68f257218879207e9f6ed4cf3bd7eef" target="_top" xlink:title="Species_Base::growthRate\lGradient">
<polygon fill="none" stroke="#000000" points="158.5,-115 158.5,-145 294.5,-145 294.5,-115 158.5,-115"/>
<text text-anchor="start" x="166.5" y="-133" font-family="Helvetica,sans-Serif" font-size="10.00" fill="#000000">Species_Base::growthRate</text>
<text text-anchor="middle" x="226.5" y="-122" font-family="Helvetica,sans-Serif" font-size="10.00" fill="#000000">Gradient</text>
</a>
</g>
</g>
<!-- Node20&#45;&gt;Node26 -->
<g id="edge6" class="edge">
<title>Node20&#45;&gt;Node26</title>
<path fill="none" stroke="#191970" d="M94.562,-164.4527C113.3637,-159.543 136.8901,-153.3996 158.8498,-147.6653"/>
<polygon fill="#191970" stroke="#191970" points="160.0153,-150.9784 168.8065,-145.0654 158.2466,-144.2055 160.0153,-150.9784"/>
</g>
<!-- Node27 -->
<g id="node8" class="node">
<title>Node27</title>
<g id="a_node8"><a xlink:href="classSpecies__Base.html#a59ab3c647c48a819f1911957e5724d5e" target="_top" xlink:title="Species_Base::mortalityRate">
<polygon fill="none" stroke="#000000" points="154.5,-76.5 154.5,-95.5 298.5,-95.5 298.5,-76.5 154.5,-76.5"/>
<text text-anchor="middle" x="226.5" y="-83.5" font-family="Helvetica,sans-Serif" font-size="10.00" fill="#000000">Species_Base::mortalityRate</text>
</a>
</g>
</g>
<!-- Node20&#45;&gt;Node27 -->
<g id="edge7" class="edge">
<title>Node20&#45;&gt;Node27</title>
<path fill="none" stroke="#191970" d="M68.4526,-164.43C84.985,-149.7831 118.7185,-121.8421 152,-106 157.7928,-103.2426 164.0265,-100.8168 170.3332,-98.6951"/>
<polygon fill="#191970" stroke="#191970" points="171.7434,-101.9218 180.2509,-95.6073 169.6624,-95.2383 171.7434,-101.9218"/>
</g>
<!-- Node28 -->
<g id="node9" class="node">
<title>Node28</title>
<g id="a_node9"><a xlink:href="classSpecies__Base.html#ad412522fc071525a19f95609880b20ff" target="_top" xlink:title="Species_Base::getU">
<polygon fill="none" stroke="#000000" points="173,-38.5 173,-57.5 280,-57.5 280,-38.5 173,-38.5"/>
<text text-anchor="middle" x="226.5" y="-45.5" font-family="Helvetica,sans-Serif" font-size="10.00" fill="#000000">Species_Base::getU</text>
</a>
</g>
</g>
<!-- Node20&#45;&gt;Node28 -->
<g id="edge8" class="edge">
<title>Node20&#45;&gt;Node28</title>
<path fill="none" stroke="#191970" d="M63.6656,-164.2726C76.5169,-143.1065 110.0468,-92.713 152,-67 155.5849,-64.8028 159.4155,-62.8587 163.3772,-61.1386"/>
<polygon fill="#191970" stroke="#191970" points="164.7243,-64.3706 172.8047,-57.518 162.2146,-57.8359 164.7243,-64.3706"/>
</g>
<!-- Node29 -->
<g id="node10" class="node">
<title>Node29</title>
<g id="a_node10"><a xlink:href="classSpecies__Base.html#a1c47d1905fa4da0a1f203f641f6ed2af" target="_top" xlink:title="Species_Base::getExtraRates">
<polygon fill="none" stroke="#000000" points="152,-.5 152,-19.5 301,-19.5 301,-.5 152,-.5"/>
<text text-anchor="middle" x="226.5" y="-7.5" font-family="Helvetica,sans-Serif" font-size="10.00" fill="#000000">Species_Base::getExtraRates</text>
</a>
</g>
</g>
<!-- Node20&#45;&gt;Node29 -->
<g id="edge9" class="edge">
<title>Node20&#45;&gt;Node29</title>
<path fill="none" stroke="#191970" d="M61.3286,-164.457C70.9366,-138.37 101.3101,-65.3929 152,-29 154.7107,-27.0538 157.6025,-25.3066 160.6141,-23.7379"/>
<polygon fill="#191970" stroke="#191970" points="162.2581,-26.8365 169.9472,-19.5476 159.3909,-20.4506 162.2581,-26.8365"/>
</g>
</g>
</svg>
