<?xml version="1.0" encoding="UTF-8" standalone="no"?>
<!DOCTYPE svg PUBLIC "-//W3C//DTD SVG 1.1//EN"
 "http://www.w3.org/Graphics/SVG/1.1/DTD/svg11.dtd">
<!-- Generated by graphviz version 2.40.1 (20161225.0304)
 -->
<!-- Title: Species_Base::getExtraRates Pages: 1 -->
<svg width="553pt" height="104pt"
 viewBox="0.00 0.00 553.00 104.00" xmlns="http://www.w3.org/2000/svg" xmlns:xlink="http://www.w3.org/1999/xlink">
<g id="graph0" class="graph" transform="scale(1 1) rotate(0) translate(4 100)">
<title>Species_Base::getExtraRates</title>
<!-- Node45 -->
<g id="node1" class="node">
<title>Node45</title>
<polygon fill="#bfbfbf" stroke="#000000" points="0,-38.5 0,-57.5 149,-57.5 149,-38.5 0,-38.5"/>
<text text-anchor="middle" x="74.5" y="-45.5" font-family="Helvetica,sans-Serif" font-size="10.00" fill="#000000">Species_Base::getExtraRates</text>
</g>
<!-- Node46 -->
<g id="node2" class="node">
<title>Node46</title>
<g id="a_node2"><a xlink:href="classSolver.html#ab712f582d6f785adb8620cb40bbb3de4" target="_top" xlink:title="Solver::calcRates_CM">
<polygon fill="none" stroke="#000000" points="188,-76.5 188,-95.5 304,-95.5 304,-76.5 188,-76.5"/>
<text text-anchor="middle" x="246" y="-83.5" font-family="Helvetica,sans-Serif" font-size="10.00" fill="#000000">Solver::calcRates_CM</text>
</a>
</g>
</g>
<!-- Node45&#45;&gt;Node46 -->
<g id="edge1" class="edge">
<title>Node45&#45;&gt;Node46</title>
<path fill="none" stroke="#191970" d="M127.5412,-59.7526C151.7913,-65.1258 180.1467,-71.4086 203.0345,-76.4799"/>
<polygon fill="#191970" stroke="#191970" points="128.2971,-56.3352 117.7767,-57.589 126.7827,-63.1695 128.2971,-56.3352"/>
</g>
<!-- Node49 -->
<g id="node5" class="node">
<title>Node49</title>
<g id="a_node5"><a xlink:href="classSolver.html#a23be16428b7ba399bfd2f06555547f6b" target="_top" xlink:title="Solver::calcRates_EBT">
<polygon fill="none" stroke="#000000" points="186.5,-38.5 186.5,-57.5 305.5,-57.5 305.5,-38.5 186.5,-38.5"/>
<text text-anchor="middle" x="246" y="-45.5" font-family="Helvetica,sans-Serif" font-size="10.00" fill="#000000">Solver::calcRates_EBT</text>
</a>
</g>
</g>
<!-- Node45&#45;&gt;Node49 -->
<g id="edge4" class="edge">
<title>Node45&#45;&gt;Node49</title>
<path fill="none" stroke="#191970" d="M159.4906,-48C168.6081,-48 177.7371,-48 186.4651,-48"/>
<polygon fill="#191970" stroke="#191970" points="159.2235,-44.5001 149.2235,-48 159.2235,-51.5001 159.2235,-44.5001"/>
</g>
<!-- Node50 -->
<g id="node6" class="node">
<title>Node50</title>
<g id="a_node6"><a xlink:href="classSolver.html#a2ea9fb6abc4ffd5ac28154332029da40" target="_top" xlink:title="Solver::calcRates_FMU">
<polygon fill="none" stroke="#000000" points="185,-.5 185,-19.5 307,-19.5 307,-.5 185,-.5"/>
<text text-anchor="middle" x="246" y="-7.5" font-family="Helvetica,sans-Serif" font-size="10.00" fill="#000000">Solver::calcRates_FMU</text>
</a>
</g>
</g>
<!-- Node45&#45;&gt;Node50 -->
<g id="edge6" class="edge">
<title>Node45&#45;&gt;Node50</title>
<path fill="none" stroke="#191970" d="M127.5412,-36.2474C151.7913,-30.8742 180.1467,-24.5914 203.0345,-19.5201"/>
<polygon fill="#191970" stroke="#191970" points="126.7827,-32.8305 117.7767,-38.411 128.2971,-39.6648 126.7827,-32.8305"/>
</g>
<!-- Node47 -->
<g id="node3" class="node">
<title>Node47</title>
<g id="a_node3"><a xlink:href="classSolver.html#af4c8f6565df94ed6a058a224196b9c2b" target="_top" xlink:title="Solver::step_to">
<polygon fill="none" stroke="#000000" points="343,-38.5 343,-57.5 426,-57.5 426,-38.5 343,-38.5"/>
<text text-anchor="middle" x="384.5" y="-45.5" font-family="Helvetica,sans-Serif" font-size="10.00" fill="#000000">Solver::step_to</text>
</a>
</g>
</g>
<!-- Node46&#45;&gt;Node47 -->
<g id="edge2" class="edge">
<title>Node46&#45;&gt;Node47</title>
<path fill="none" stroke="#191970" d="M290.6342,-73.7538C309.7247,-68.516 331.6845,-62.4909 349.5618,-57.5859"/>
<polygon fill="#191970" stroke="#191970" points="289.6669,-70.3898 280.9494,-76.411 291.5191,-77.1403 289.6669,-70.3898"/>
</g>
<!-- Node48 -->
<g id="node4" class="node">
<title>Node48</title>
<g id="a_node4"><a xlink:href="classSolver.html#a06cf82d0a99490279ab20d2ad6b876db" target="_top" xlink:title="Solver::step_to">
<polygon fill="none" stroke="#000000" points="462,-38.5 462,-57.5 545,-57.5 545,-38.5 462,-38.5"/>
<text text-anchor="middle" x="503.5" y="-45.5" font-family="Helvetica,sans-Serif" font-size="10.00" fill="#000000">Solver::step_to</text>
</a>
</g>
</g>
<!-- Node47&#45;&gt;Node48 -->
<g id="edge3" class="edge">
<title>Node47&#45;&gt;Node48</title>
<path fill="none" stroke="#191970" d="M436.3174,-48C444.8022,-48 453.499,-48 461.7019,-48"/>
<polygon fill="#191970" stroke="#191970" points="436.1205,-44.5001 426.1204,-48 436.1204,-51.5001 436.1205,-44.5001"/>
</g>
<!-- Node49&#45;&gt;Node47 -->
<g id="edge5" class="edge">
<title>Node49&#45;&gt;Node47</title>
<path fill="none" stroke="#191970" d="M315.6498,-48C324.9926,-48 334.3257,-48 342.9689,-48"/>
<polygon fill="#191970" stroke="#191970" points="315.5403,-44.5001 305.5402,-48 315.5402,-51.5001 315.5403,-44.5001"/>
</g>
<!-- Node50&#45;&gt;Node47 -->
<g id="edge7" class="edge">
<title>Node50&#45;&gt;Node47</title>
<path fill="none" stroke="#191970" d="M290.6342,-22.2462C309.7247,-27.484 331.6845,-33.5091 349.5618,-38.4141"/>
<polygon fill="#191970" stroke="#191970" points="291.5191,-18.8597 280.9494,-19.589 289.6669,-25.6102 291.5191,-18.8597"/>
</g>
</g>
</svg>
