<?xml version="1.0" encoding="UTF-8" standalone="no"?>
<!DOCTYPE svg PUBLIC "-//W3C//DTD SVG 1.1//EN"
 "http://www.w3.org/Graphics/SVG/1.1/DTD/svg11.dtd">
<!-- Generated by graphviz version 2.40.1 (20161225.0304)
 -->
<!-- Title: LSODA::solsy Pages: 1 -->
<svg width="980pt" height="28pt"
 viewBox="0.00 0.00 980.00 28.00" xmlns="http://www.w3.org/2000/svg" xmlns:xlink="http://www.w3.org/1999/xlink">
<g id="graph0" class="graph" transform="scale(1 1) rotate(0) translate(4 24)">
<title>LSODA::solsy</title>
<!-- Node210 -->
<g id="node1" class="node">
<title>Node210</title>
<polygon fill="#bfbfbf" stroke="#000000" points="0,-.5 0,-19.5 80,-19.5 80,-.5 0,-.5"/>
<text text-anchor="middle" x="40" y="-7.5" font-family="Helvetica,sans-Serif" font-size="10.00" fill="#000000">LSODA::solsy</text>
</g>
<!-- Node211 -->
<g id="node2" class="node">
<title>Node211</title>
<g id="a_node2"><a xlink:href="classLSODA.html#ae5ebdebff330f29ef0c15bece1bf8299" target="_top" xlink:title="LSODA::correction">
<polygon fill="none" stroke="#000000" points="116,-.5 116,-19.5 215,-19.5 215,-.5 116,-.5"/>
<text text-anchor="middle" x="165.5" y="-7.5" font-family="Helvetica,sans-Serif" font-size="10.00" fill="#000000">LSODA::correction</text>
</a>
</g>
</g>
<!-- Node210&#45;&gt;Node211 -->
<g id="edge1" class="edge">
<title>Node210&#45;&gt;Node211</title>
<path fill="none" stroke="#191970" d="M90.126,-10C98.5472,-10 107.2847,-10 115.6977,-10"/>
<polygon fill="#191970" stroke="#191970" points="90.0541,-6.5001 80.054,-10 90.054,-13.5001 90.0541,-6.5001"/>
</g>
<!-- Node212 -->
<g id="node3" class="node">
<title>Node212</title>
<g id="a_node3"><a xlink:href="classLSODA.html#a7c6d8d75b383474b5b05c710d2921618" target="_top" xlink:title="LSODA::stoda">
<polygon fill="none" stroke="#000000" points="251,-.5 251,-19.5 331,-19.5 331,-.5 251,-.5"/>
<text text-anchor="middle" x="291" y="-7.5" font-family="Helvetica,sans-Serif" font-size="10.00" fill="#000000">LSODA::stoda</text>
</a>
</g>
</g>
<!-- Node211&#45;&gt;Node212 -->
<g id="edge2" class="edge">
<title>Node211&#45;&gt;Node212</title>
<path fill="none" stroke="#191970" d="M225.1585,-10C233.7902,-10 242.5,-10 250.6326,-10"/>
<polygon fill="#191970" stroke="#191970" points="225.101,-6.5001 215.1009,-10 225.1009,-13.5001 225.101,-6.5001"/>
</g>
<!-- Node213 -->
<g id="node4" class="node">
<title>Node213</title>
<g id="a_node4"><a xlink:href="classLSODA.html#a705dcfe5b21827adb8871e48f2c72fb2" target="_top" xlink:title="LSODA::lsoda">
<polygon fill="none" stroke="#000000" points="367,-.5 367,-19.5 447,-19.5 447,-.5 367,-.5"/>
<text text-anchor="middle" x="407" y="-7.5" font-family="Helvetica,sans-Serif" font-size="10.00" fill="#000000">LSODA::lsoda</text>
</a>
</g>
</g>
<!-- Node212&#45;&gt;Node213 -->
<g id="edge3" class="edge">
<title>Node212&#45;&gt;Node213</title>
<path fill="none" stroke="#191970" d="M341.442,-10C349.9315,-10 358.6408,-10 366.8255,-10"/>
<polygon fill="#191970" stroke="#191970" points="341.2457,-6.5001 331.2456,-10 341.2456,-13.5001 341.2457,-6.5001"/>
</g>
<!-- Node214 -->
<g id="node5" class="node">
<title>Node214</title>
<g id="a_node5"><a xlink:href="classLSODA.html#a391e4d7bea026ad7c300cfb55cb290d1" target="_top" xlink:title="LSODA::lsoda_update">
<polygon fill="none" stroke="#000000" points="483,-.5 483,-19.5 597,-19.5 597,-.5 483,-.5"/>
<text text-anchor="middle" x="540" y="-7.5" font-family="Helvetica,sans-Serif" font-size="10.00" fill="#000000">LSODA::lsoda_update</text>
</a>
</g>
</g>
<!-- Node213&#45;&gt;Node214 -->
<g id="edge4" class="edge">
<title>Node213&#45;&gt;Node214</title>
<path fill="none" stroke="#191970" d="M457.4762,-10C465.7175,-10 474.3078,-10 482.6989,-10"/>
<polygon fill="#191970" stroke="#191970" points="457.2653,-6.5001 447.2653,-10 457.2653,-13.5001 457.2653,-6.5001"/>
</g>
<!-- Node215 -->
<g id="node6" class="node">
<title>Node215</title>
<g id="a_node6"><a xlink:href="classOdeSolver.html#a77d9f02ed28d5515366e6be08560f35a" target="_top" xlink:title="OdeSolver::step_to">
<polygon fill="none" stroke="#000000" points="633,-.5 633,-19.5 734,-19.5 734,-.5 633,-.5"/>
<text text-anchor="middle" x="683.5" y="-7.5" font-family="Helvetica,sans-Serif" font-size="10.00" fill="#000000">OdeSolver::step_to</text>
</a>
</g>
</g>
<!-- Node214&#45;&gt;Node215 -->
<g id="edge5" class="edge">
<title>Node214&#45;&gt;Node215</title>
<path fill="none" stroke="#191970" d="M607.3985,-10C615.8783,-10 624.4395,-10 632.6059,-10"/>
<polygon fill="#191970" stroke="#191970" points="607.1274,-6.5001 597.1273,-10 607.1273,-13.5001 607.1274,-6.5001"/>
</g>
<!-- Node216 -->
<g id="node7" class="node">
<title>Node216</title>
<g id="a_node7"><a xlink:href="classSolver.html#af4c8f6565df94ed6a058a224196b9c2b" target="_top" xlink:title="Solver::step_to">
<polygon fill="none" stroke="#000000" points="770,-.5 770,-19.5 853,-19.5 853,-.5 770,-.5"/>
<text text-anchor="middle" x="811.5" y="-7.5" font-family="Helvetica,sans-Serif" font-size="10.00" fill="#000000">Solver::step_to</text>
</a>
</g>
</g>
<!-- Node215&#45;&gt;Node216 -->
<g id="edge6" class="edge">
<title>Node215&#45;&gt;Node216</title>
<path fill="none" stroke="#191970" d="M744.2268,-10C752.9273,-10 761.7087,-10 769.9255,-10"/>
<polygon fill="#191970" stroke="#191970" points="744.089,-6.5001 734.089,-10 744.089,-13.5001 744.089,-6.5001"/>
</g>
<!-- Node217 -->
<g id="node8" class="node">
<title>Node217</title>
<g id="a_node8"><a xlink:href="classSolver.html#a06cf82d0a99490279ab20d2ad6b876db" target="_top" xlink:title="Solver::step_to">
<polygon fill="none" stroke="#000000" points="889,-.5 889,-19.5 972,-19.5 972,-.5 889,-.5"/>
<text text-anchor="middle" x="930.5" y="-7.5" font-family="Helvetica,sans-Serif" font-size="10.00" fill="#000000">Solver::step_to</text>
</a>
</g>
</g>
<!-- Node216&#45;&gt;Node217 -->
<g id="edge7" class="edge">
<title>Node216&#45;&gt;Node217</title>
<path fill="none" stroke="#191970" d="M863.3174,-10C871.8022,-10 880.499,-10 888.7019,-10"/>
<polygon fill="#191970" stroke="#191970" points="863.1205,-6.5001 853.1204,-10 863.1204,-13.5001 863.1205,-6.5001"/>
</g>
</g>
</svg>
