<?xml version="1.0" encoding="UTF-8" standalone="no"?>
<!DOCTYPE svg PUBLIC "-//W3C//DTD SVG 1.1//EN"
 "http://www.w3.org/Graphics/SVG/1.1/DTD/svg11.dtd">
<!-- Generated by graphviz version 2.40.1 (20161225.0304)
 -->
<!-- Title: IteratorSet::begin Pages: 1 -->
<svg width="252pt" height="66pt"
 viewBox="0.00 0.00 252.00 66.00" xmlns="http://www.w3.org/2000/svg" xmlns:xlink="http://www.w3.org/1999/xlink">
<g id="graph0" class="graph" transform="scale(1 1) rotate(0) translate(4 62)">
<title>IteratorSet::begin</title>
<!-- Node3 -->
<g id="node1" class="node">
<title>Node3</title>
<polygon fill="#bfbfbf" stroke="#000000" points="0,-19.5 0,-38.5 92,-38.5 92,-19.5 0,-19.5"/>
<text text-anchor="middle" x="46" y="-26.5" font-family="Helvetica,sans-Serif" font-size="10.00" fill="#000000">IteratorSet::begin</text>
</g>
<!-- Node4 -->
<g id="node2" class="node">
<title>Node4</title>
<g id="a_node2"><a xlink:href="classIteratorSet.html#aebc5a5af73338f2dca1692010db65977" target="_top" xlink:title="IteratorSet::push_back">
<polygon fill="none" stroke="#000000" points="128,-38.5 128,-57.5 244,-57.5 244,-38.5 128,-38.5"/>
<text text-anchor="middle" x="186" y="-45.5" font-family="Helvetica,sans-Serif" font-size="10.00" fill="#000000">IteratorSet::push_back</text>
</a>
</g>
</g>
<!-- Node3&#45;&gt;Node4 -->
<g id="edge1" class="edge">
<title>Node3&#45;&gt;Node4</title>
<path fill="none" stroke="#191970" d="M102.2388,-36.6324C110.5828,-37.7648 119.1984,-38.9341 127.5858,-40.0724"/>
<polygon fill="#191970" stroke="#191970" points="102.6091,-33.1507 92.2292,-35.274 101.6677,-40.0871 102.6091,-33.1507"/>
</g>
<!-- Node5 -->
<g id="node3" class="node">
<title>Node5</title>
<g id="a_node3"><a xlink:href="classIteratorSet.html#a4ebe5118da2ac2a5b256d955083d8c0a" target="_top" xlink:title="IteratorSet::print">
<polygon fill="none" stroke="#000000" points="142.5,-.5 142.5,-19.5 229.5,-19.5 229.5,-.5 142.5,-.5"/>
<text text-anchor="middle" x="186" y="-7.5" font-family="Helvetica,sans-Serif" font-size="10.00" fill="#000000">IteratorSet::print</text>
</a>
</g>
</g>
<!-- Node3&#45;&gt;Node5 -->
<g id="edge2" class="edge">
<title>Node3&#45;&gt;Node5</title>
<path fill="none" stroke="#191970" d="M102.2349,-21.3681C115.5393,-19.5625 129.5342,-17.6632 142.1936,-15.9451"/>
<polygon fill="#191970" stroke="#191970" points="101.6677,-17.9129 92.2292,-22.726 102.6091,-24.8493 101.6677,-17.9129"/>
</g>
</g>
</svg>
