<?xml version="1.0" encoding="UTF-8" standalone="no"?>
<!DOCTYPE svg PUBLIC "-//W3C//DTD SVG 1.1//EN"
 "http://www.w3.org/Graphics/SVG/1.1/DTD/svg11.dtd">
<!-- Generated by graphviz version 2.40.1 (20161225.0304)
 -->
<!-- Title: RKCK45::resize Pages: 1 -->
<svg width="720pt" height="28pt"
 viewBox="0.00 0.00 720.00 28.00" xmlns="http://www.w3.org/2000/svg" xmlns:xlink="http://www.w3.org/1999/xlink">
<g id="graph0" class="graph" transform="scale(1 1) rotate(0) translate(4 24)">
<title>RKCK45::resize</title>
<!-- Node17 -->
<g id="node1" class="node">
<title>Node17</title>
<polygon fill="#bfbfbf" stroke="#000000" points="0,-.5 0,-19.5 88,-19.5 88,-.5 0,-.5"/>
<text text-anchor="middle" x="44" y="-7.5" font-family="Helvetica,sans-Serif" font-size="10.00" fill="#000000">RKCK45::resize</text>
</g>
<!-- Node18 -->
<g id="node2" class="node">
<title>Node18</title>
<g id="a_node2"><a xlink:href="classRKCK45.html#a20415037da7046ff94afadbf927c42d3" target="_top" xlink:title="RKCK45::Step">
<polygon fill="none" stroke="#000000" points="124,-.5 124,-19.5 206,-19.5 206,-.5 124,-.5"/>
<text text-anchor="middle" x="165" y="-7.5" font-family="Helvetica,sans-Serif" font-size="10.00" fill="#000000">RKCK45::Step</text>
</a>
</g>
</g>
<!-- Node17&#45;&gt;Node18 -->
<g id="edge1" class="edge">
<title>Node17&#45;&gt;Node18</title>
<path fill="none" stroke="#191970" d="M98.279,-10C106.7897,-10 115.4664,-10 123.6258,-10"/>
<polygon fill="#191970" stroke="#191970" points="98.0261,-6.5001 88.0261,-10 98.026,-13.5001 98.0261,-6.5001"/>
</g>
<!-- Node19 -->
<g id="node3" class="node">
<title>Node19</title>
<g id="a_node3"><a xlink:href="classRKCK45.html#a91b5ae2e8a9dadc117e6412f054afa59" target="_top" xlink:title="RKCK45::Step_to">
<polygon fill="none" stroke="#000000" points="242,-.5 242,-19.5 337,-19.5 337,-.5 242,-.5"/>
<text text-anchor="middle" x="289.5" y="-7.5" font-family="Helvetica,sans-Serif" font-size="10.00" fill="#000000">RKCK45::Step_to</text>
</a>
</g>
</g>
<!-- Node18&#45;&gt;Node19 -->
<g id="edge2" class="edge">
<title>Node18&#45;&gt;Node19</title>
<path fill="none" stroke="#191970" d="M216.2895,-10C224.7847,-10 233.5611,-10 241.9587,-10"/>
<polygon fill="#191970" stroke="#191970" points="216.111,-6.5001 206.111,-10 216.111,-13.5001 216.111,-6.5001"/>
</g>
<!-- Node20 -->
<g id="node4" class="node">
<title>Node20</title>
<g id="a_node4"><a xlink:href="classOdeSolver.html#a77d9f02ed28d5515366e6be08560f35a" target="_top" xlink:title="OdeSolver::step_to">
<polygon fill="none" stroke="#000000" points="373,-.5 373,-19.5 474,-19.5 474,-.5 373,-.5"/>
<text text-anchor="middle" x="423.5" y="-7.5" font-family="Helvetica,sans-Serif" font-size="10.00" fill="#000000">OdeSolver::step_to</text>
</a>
</g>
</g>
<!-- Node19&#45;&gt;Node20 -->
<g id="edge3" class="edge">
<title>Node19&#45;&gt;Node20</title>
<path fill="none" stroke="#191970" d="M347.3412,-10C355.8324,-10 364.5235,-10 372.8553,-10"/>
<polygon fill="#191970" stroke="#191970" points="347.1207,-6.5001 337.1207,-10 347.1207,-13.5001 347.1207,-6.5001"/>
</g>
<!-- Node21 -->
<g id="node5" class="node">
<title>Node21</title>
<g id="a_node5"><a xlink:href="classSolver.html#af4c8f6565df94ed6a058a224196b9c2b" target="_top" xlink:title="Solver::step_to">
<polygon fill="none" stroke="#000000" points="510,-.5 510,-19.5 593,-19.5 593,-.5 510,-.5"/>
<text text-anchor="middle" x="551.5" y="-7.5" font-family="Helvetica,sans-Serif" font-size="10.00" fill="#000000">Solver::step_to</text>
</a>
</g>
</g>
<!-- Node20&#45;&gt;Node21 -->
<g id="edge4" class="edge">
<title>Node20&#45;&gt;Node21</title>
<path fill="none" stroke="#191970" d="M484.2268,-10C492.9273,-10 501.7087,-10 509.9255,-10"/>
<polygon fill="#191970" stroke="#191970" points="484.089,-6.5001 474.089,-10 484.089,-13.5001 484.089,-6.5001"/>
</g>
<!-- Node22 -->
<g id="node6" class="node">
<title>Node22</title>
<g id="a_node6"><a xlink:href="classSolver.html#a06cf82d0a99490279ab20d2ad6b876db" target="_top" xlink:title="Solver::step_to">
<polygon fill="none" stroke="#000000" points="629,-.5 629,-19.5 712,-19.5 712,-.5 629,-.5"/>
<text text-anchor="middle" x="670.5" y="-7.5" font-family="Helvetica,sans-Serif" font-size="10.00" fill="#000000">Solver::step_to</text>
</a>
</g>
</g>
<!-- Node21&#45;&gt;Node22 -->
<g id="edge5" class="edge">
<title>Node21&#45;&gt;Node22</title>
<path fill="none" stroke="#191970" d="M603.3174,-10C611.8022,-10 620.499,-10 628.7019,-10"/>
<polygon fill="#191970" stroke="#191970" points="603.1205,-6.5001 593.1204,-10 603.1204,-13.5001 603.1205,-6.5001"/>
</g>
</g>
</svg>
