<?xml version="1.0" encoding="UTF-8" standalone="no"?>
<!DOCTYPE svg PUBLIC "-//W3C//DTD SVG 1.1//EN"
 "http://www.w3.org/Graphics/SVG/1.1/DTD/svg11.dtd">
<!-- Generated by graphviz version 2.40.1 (20161225.0304)
 -->
<!-- Title: Cohort::growthRate Pages: 1 -->
<svg width="291pt" height="154pt"
 viewBox="0.00 0.00 291.00 153.50" xmlns="http://www.w3.org/2000/svg" xmlns:xlink="http://www.w3.org/1999/xlink">
<g id="graph0" class="graph" transform="scale(1 1) rotate(0) translate(4 149.5)">
<title>Cohort::growthRate</title>
<!-- Node8 -->
<g id="node1" class="node">
<title>Node8</title>
<polygon fill="#bfbfbf" stroke="#000000" points="0,-69 0,-88 102,-88 102,-69 0,-69"/>
<text text-anchor="middle" x="51" y="-76" font-family="Helvetica,sans-Serif" font-size="10.00" fill="#000000">Cohort::growthRate</text>
</g>
<!-- Node9 -->
<g id="node2" class="node">
<title>Node9</title>
<g id="a_node2"><a xlink:href="classSpecies.html#a9b67920d7ba7f74f6f94e321fdb6c0fd" target="_top" xlink:title="Species::growthRate">
<polygon fill="none" stroke="#000000" points="156.5,-126 156.5,-145 264.5,-145 264.5,-126 156.5,-126"/>
<text text-anchor="middle" x="210.5" y="-133" font-family="Helvetica,sans-Serif" font-size="10.00" fill="#000000">Species::growthRate</text>
</a>
</g>
</g>
<!-- Node8&#45;&gt;Node9 -->
<g id="edge1" class="edge">
<title>Node8&#45;&gt;Node9</title>
<path fill="none" stroke="#191970" d="M79.9211,-92.4831C96.6377,-100.2218 118.2151,-109.6334 138,-116.5 148.0799,-119.9984 159.1409,-123.205 169.5202,-125.9478"/>
<polygon fill="#191970" stroke="#191970" points="81.2303,-89.2313 70.6906,-88.1519 78.2568,-95.5683 81.2303,-89.2313"/>
</g>
<!-- Node10 -->
<g id="node3" class="node">
<title>Node10</title>
<g id="a_node3"><a xlink:href="classSpecies.html#a323b58d45526dcc09f9829efc2330656" target="_top" xlink:title="Species::growthRateOffset">
<polygon fill="none" stroke="#000000" points="143,-88 143,-107 278,-107 278,-88 143,-88"/>
<text text-anchor="middle" x="210.5" y="-95" font-family="Helvetica,sans-Serif" font-size="10.00" fill="#000000">Species::growthRateOffset</text>
</a>
</g>
</g>
<!-- Node8&#45;&gt;Node10 -->
<g id="edge2" class="edge">
<title>Node8&#45;&gt;Node10</title>
<path fill="none" stroke="#191970" d="M112.5472,-85.8316C122.5032,-87.0176 132.8589,-88.2512 142.948,-89.453"/>
<polygon fill="#191970" stroke="#191970" points="112.6886,-82.3238 102.3448,-84.6163 111.8605,-89.2747 112.6886,-82.3238"/>
</g>
<!-- Node11 -->
<g id="node4" class="node">
<title>Node11</title>
<g id="a_node4"><a xlink:href="classSpecies.html#a2c3eea1d652bc5aa42bb36caab683ad1" target="_top" xlink:title="Species::growthRateGradient">
<polygon fill="none" stroke="#000000" points="138,-50 138,-69 283,-69 283,-50 138,-50"/>
<text text-anchor="middle" x="210.5" y="-57" font-family="Helvetica,sans-Serif" font-size="10.00" fill="#000000">Species::growthRateGradient</text>
</a>
</g>
</g>
<!-- Node8&#45;&gt;Node11 -->
<g id="edge3" class="edge">
<title>Node8&#45;&gt;Node11</title>
<path fill="none" stroke="#191970" d="M112.3303,-71.1942C120.6533,-70.2027 129.2594,-69.1776 137.7585,-68.1651"/>
<polygon fill="#191970" stroke="#191970" points="111.8605,-67.7253 102.3448,-72.3837 112.6886,-74.6762 111.8605,-67.7253"/>
</g>
<!-- Node12 -->
<g id="node5" class="node">
<title>Node12</title>
<g id="a_node5"><a xlink:href="classSpecies.html#a426e06f2dfc4d2ae83cdabbd7fd2546b" target="_top" xlink:title="Species::growthRateGradient\lCentered">
<polygon fill="none" stroke="#000000" points="138,-.5 138,-30.5 283,-30.5 283,-.5 138,-.5"/>
<text text-anchor="start" x="146" y="-18.5" font-family="Helvetica,sans-Serif" font-size="10.00" fill="#000000">Species::growthRateGradient</text>
<text text-anchor="middle" x="210.5" y="-7.5" font-family="Helvetica,sans-Serif" font-size="10.00" fill="#000000">Centered</text>
</a>
</g>
</g>
<!-- Node8&#45;&gt;Node12 -->
<g id="edge4" class="edge">
<title>Node8&#45;&gt;Node12</title>
<path fill="none" stroke="#191970" d="M80.7948,-64.7842C97.4813,-57.2805 118.7461,-48.0107 138,-40.5 146.6826,-37.113 156.0377,-33.7091 165.0481,-30.5507"/>
<polygon fill="#191970" stroke="#191970" points="79.2143,-61.6577 71.5489,-68.9715 82.1022,-68.0342 79.2143,-61.6577"/>
</g>
</g>
</svg>
