<?xml version="1.0" encoding="UTF-8" standalone="no"?>
<!DOCTYPE svg PUBLIC "-//W3C//DTD SVG 1.1//EN"
 "http://www.w3.org/Graphics/SVG/1.1/DTD/svg11.dtd">
<!-- Generated by graphviz version 2.40.1 (20161225.0304)
 -->
<!-- Title: Solver Pages: 1 -->
<svg width="364pt" height="284pt"
 viewBox="0.00 0.00 364.00 284.00" xmlns="http://www.w3.org/2000/svg" xmlns:xlink="http://www.w3.org/1999/xlink">
<g id="graph0" class="graph" transform="scale(1 1) rotate(0) translate(4 280)">
<title>Solver</title>
<!-- Node1 -->
<g id="node1" class="node">
<title>Node1</title>
<polygon fill="#bfbfbf" stroke="#000000" points="166,-.5 166,-19.5 210,-19.5 210,-.5 166,-.5"/>
<text text-anchor="middle" x="188" y="-7.5" font-family="Helvetica,sans-Serif" font-size="10.00" fill="#000000">Solver</text>
</g>
<!-- Node2 -->
<g id="node2" class="node">
<title>Node2</title>
<g id="a_node2"><a xlink:href="classEnvironmentBase.html" target="_top" xlink:title="EnvironmentBase">
<polygon fill="none" stroke="#000000" points="0,-73 0,-92 94,-92 94,-73 0,-73"/>
<text text-anchor="middle" x="47" y="-80" font-family="Helvetica,sans-Serif" font-size="10.00" fill="#000000">EnvironmentBase</text>
</a>
</g>
</g>
<!-- Node2&#45;&gt;Node1 -->
<g id="edge1" class="edge">
<title>Node2&#45;&gt;Node1</title>
<path fill="none" stroke="#9a32cd" stroke-dasharray="5,2" d="M73.2992,-68.0322C89.5476,-59.1855 110.8778,-47.7363 130,-38 142.4552,-31.6583 156.5754,-24.8339 167.7651,-19.5102"/>
<polygon fill="#9a32cd" stroke="#9a32cd" points="71.4725,-65.0418 64.3747,-72.9077 74.8286,-71.1849 71.4725,-65.0418"/>
<text text-anchor="middle" x="139.5" y="-41" font-family="Helvetica,sans-Serif" font-size="10.00" fill="#000000"> env</text>
</g>
<!-- Node3 -->
<g id="node3" class="node">
<title>Node3</title>
<g id="a_node3"><a xlink:href="classOdeSolver.html" target="_top" xlink:title="OdeSolver">
<polygon fill="none" stroke="#000000" points="112,-73 112,-92 174,-92 174,-73 112,-73"/>
<text text-anchor="middle" x="143" y="-80" font-family="Helvetica,sans-Serif" font-size="10.00" fill="#000000">OdeSolver</text>
</a>
</g>
</g>
<!-- Node3&#45;&gt;Node1 -->
<g id="edge2" class="edge">
<title>Node3&#45;&gt;Node1</title>
<path fill="none" stroke="#9a32cd" stroke-dasharray="5,2" d="M147.3401,-62.9119C149.6979,-54.7906 153.1479,-45.5285 158,-38 162.477,-31.0534 169.0564,-24.6531 174.9137,-19.7304"/>
<polygon fill="#9a32cd" stroke="#9a32cd" points="143.9265,-62.1341 144.8437,-72.6892 150.7089,-63.8659 143.9265,-62.1341"/>
<text text-anchor="middle" x="184.5" y="-41" font-family="Helvetica,sans-Serif" font-size="10.00" fill="#000000"> odeStepper</text>
</g>
<!-- Node4 -->
<g id="node4" class="node">
<title>Node4</title>
<polygon fill="none" stroke="#bfbfbf" points="192.5,-67.5 192.5,-97.5 299.5,-97.5 299.5,-67.5 192.5,-67.5"/>
<text text-anchor="start" x="200.5" y="-85.5" font-family="Helvetica,sans-Serif" font-size="10.00" fill="#000000">std::vector&lt; Species</text>
<text text-anchor="middle" x="246" y="-74.5" font-family="Helvetica,sans-Serif" font-size="10.00" fill="#000000">_Base *&gt;</text>
</g>
<!-- Node4&#45;&gt;Node1 -->
<g id="edge3" class="edge">
<title>Node4&#45;&gt;Node1</title>
<path fill="none" stroke="#9a32cd" stroke-dasharray="5,2" d="M227.6728,-59.0066C222.3269,-52.206 216.4556,-44.787 211,-38 206.034,-31.822 200.3847,-24.9425 195.9277,-19.5487"/>
<polygon fill="#9a32cd" stroke="#9a32cd" points="225.1685,-61.4852 234.0924,-67.196 230.6776,-57.1666 225.1685,-61.4852"/>
<text text-anchor="middle" x="249" y="-41" font-family="Helvetica,sans-Serif" font-size="10.00" fill="#000000"> species_vec</text>
</g>
<!-- Node5 -->
<g id="node5" class="node">
<title>Node5</title>
<g id="a_node5"><a xlink:href="classSpecies__Base.html" target="_top" xlink:title="Species_Base">
<polygon fill="none" stroke="#000000" points="206,-156.5 206,-175.5 286,-175.5 286,-156.5 206,-156.5"/>
<text text-anchor="middle" x="246" y="-163.5" font-family="Helvetica,sans-Serif" font-size="10.00" fill="#000000">Species_Base</text>
</a>
</g>
</g>
<!-- Node5&#45;&gt;Node4 -->
<g id="edge4" class="edge">
<title>Node5&#45;&gt;Node4</title>
<path fill="none" stroke="#9a32cd" stroke-dasharray="5,2" d="M246,-146.2427C246,-131.345 246,-111.2186 246,-97.597"/>
<polygon fill="#9a32cd" stroke="#9a32cd" points="242.5001,-146.4215 246,-156.4215 249.5001,-146.4215 242.5001,-146.4215"/>
<text text-anchor="middle" x="267.5" y="-124.5" font-family="Helvetica,sans-Serif" font-size="10.00" fill="#000000"> elements</text>
</g>
<!-- Node6 -->
<g id="node6" class="node">
<title>Node6</title>
<polygon fill="none" stroke="#bfbfbf" points="105.5,-256.5 105.5,-275.5 200.5,-275.5 200.5,-256.5 105.5,-256.5"/>
<text text-anchor="middle" x="153" y="-263.5" font-family="Helvetica,sans-Serif" font-size="10.00" fill="#000000">std::list&lt; double &gt;</text>
</g>
<!-- Node6&#45;&gt;Node5 -->
<g id="edge5" class="edge">
<title>Node6&#45;&gt;Node5</title>
<path fill="none" stroke="#9a32cd" stroke-dasharray="5,2" d="M147.5443,-246.7414C144.315,-230.9843 142.7697,-208.9389 154,-194 160.521,-185.3256 184.1435,-178.2407 205.8171,-173.3678"/>
<polygon fill="#9a32cd" stroke="#9a32cd" points="144.1489,-247.5911 149.9128,-256.4808 150.9507,-245.937 144.1489,-247.5911"/>
<text text-anchor="middle" x="202.5" y="-213.5" font-family="Helvetica,sans-Serif" font-size="10.00" fill="#000000"> birth_flux_out_history</text>
</g>
<!-- Node7 -->
<g id="node7" class="node">
<title>Node7</title>
<polygon fill="none" stroke="#bfbfbf" points="246,-256.5 246,-275.5 356,-275.5 356,-256.5 246,-256.5"/>
<text text-anchor="middle" x="301" y="-263.5" font-family="Helvetica,sans-Serif" font-size="10.00" fill="#000000">std::vector&lt; double &gt;</text>
</g>
<!-- Node7&#45;&gt;Node1 -->
<g id="edge7" class="edge">
<title>Node7&#45;&gt;Node1</title>
<path fill="none" stroke="#9a32cd" stroke-dasharray="5,2" d="M311.1478,-246.9827C312.3248,-244.0458 313.3391,-240.9929 314,-238 322.23,-200.7303 322.8584,-103.2441 308,-67 292.3837,-28.9072 240.2033,-16.2238 210.0409,-12.0355"/>
<polygon fill="#9a32cd" stroke="#9a32cd" points="307.8724,-245.7242 306.7978,-256.2644 314.2108,-248.6948 307.8724,-245.7242"/>
<text text-anchor="middle" x="332.5" y="-130" font-family="Helvetica,sans-Serif" font-size="10.00" fill="#000000"> rates</text>
<text text-anchor="middle" x="332.5" y="-119" font-family="Helvetica,sans-Serif" font-size="10.00" fill="#000000">state</text>
</g>
<!-- Node7&#45;&gt;Node5 -->
<g id="edge6" class="edge">
<title>Node7&#45;&gt;Node5</title>
<path fill="none" stroke="#9a32cd" stroke-dasharray="5,2" d="M282.8986,-249.3466C279.6634,-245.8105 276.5244,-241.9466 274,-238 260.9917,-217.6629 252.4335,-190.3292 248.4986,-175.8921"/>
<polygon fill="#9a32cd" stroke="#9a32cd" points="280.4159,-251.8136 289.9331,-256.4691 285.3963,-246.8947 280.4159,-251.8136"/>
<text text-anchor="middle" x="294" y="-230" font-family="Helvetica,sans-Serif" font-size="10.00" fill="#000000"> x</text>
<text text-anchor="middle" x="294" y="-219" font-family="Helvetica,sans-Serif" font-size="10.00" fill="#000000">schedule</text>
<text text-anchor="middle" x="294" y="-208" font-family="Helvetica,sans-Serif" font-size="10.00" fill="#000000">h</text>
<text text-anchor="middle" x="294" y="-197" font-family="Helvetica,sans-Serif" font-size="10.00" fill="#000000">X</text>
</g>
</g>
</svg>
