<?xml version="1.0" encoding="UTF-8" standalone="no"?>
<!DOCTYPE svg PUBLIC "-//W3C//DTD SVG 1.1//EN"
 "http://www.w3.org/Graphics/SVG/1.1/DTD/svg11.dtd">
<!-- Generated by graphviz version 2.40.1 (20161225.0304)
 -->
<!-- Title: RKCK45::Step Pages: 1 -->
<svg width="348pt" height="85pt"
 viewBox="0.00 0.00 348.00 85.00" xmlns="http://www.w3.org/2000/svg" xmlns:xlink="http://www.w3.org/1999/xlink">
<g id="graph0" class="graph" transform="scale(1 1) rotate(0) translate(4 81)">
<title>RKCK45::Step</title>
<!-- Node44 -->
<g id="node1" class="node">
<title>Node44</title>
<polygon fill="#bfbfbf" stroke="#000000" points="0,-38.5 0,-57.5 82,-57.5 82,-38.5 0,-38.5"/>
<text text-anchor="middle" x="41" y="-45.5" font-family="Helvetica,sans-Serif" font-size="10.00" fill="#000000">RKCK45::Step</text>
</g>
<!-- Node45 -->
<g id="node2" class="node">
<title>Node45</title>
<g id="a_node2"><a xlink:href="classRKCK45.html#a219b69e8759b799b422d5c6b97509fd0" target="_top" xlink:title="RKCK45::resize">
<polygon fill="none" stroke="#000000" points="122,-57.5 122,-76.5 210,-76.5 210,-57.5 122,-57.5"/>
<text text-anchor="middle" x="166" y="-64.5" font-family="Helvetica,sans-Serif" font-size="10.00" fill="#000000">RKCK45::resize</text>
</a>
</g>
</g>
<!-- Node44&#45;&gt;Node45 -->
<g id="edge1" class="edge">
<title>Node44&#45;&gt;Node45</title>
<path fill="none" stroke="#191970" d="M82.2761,-54.274C91.6708,-55.702 101.7914,-57.2403 111.6379,-58.737"/>
<polygon fill="#191970" stroke="#191970" points="111.3455,-62.2326 121.7579,-60.2752 112.3974,-55.3121 111.3455,-62.2326"/>
</g>
<!-- Node46 -->
<g id="node3" class="node">
<title>Node46</title>
<g id="a_node3"><a xlink:href="classRKCK45.html#adfa11ff7b8da1b21aea9e457ac4e9d1c" target="_top" xlink:title="RKCK45::RKStep">
<polygon fill="none" stroke="#000000" points="118,-19.5 118,-38.5 214,-38.5 214,-19.5 118,-19.5"/>
<text text-anchor="middle" x="166" y="-26.5" font-family="Helvetica,sans-Serif" font-size="10.00" fill="#000000">RKCK45::RKStep</text>
</a>
</g>
</g>
<!-- Node44&#45;&gt;Node46 -->
<g id="edge2" class="edge">
<title>Node44&#45;&gt;Node46</title>
<path fill="none" stroke="#191970" d="M82.2761,-41.726C90.4541,-40.483 99.1822,-39.1563 107.8007,-37.8463"/>
<polygon fill="#191970" stroke="#191970" points="108.4677,-41.2852 117.8282,-36.3221 107.4158,-34.3647 108.4677,-41.2852"/>
</g>
<!-- Node47 -->
<g id="node4" class="node">
<title>Node47</title>
<g id="a_node4"><a xlink:href="classRKCK45.html#a25808387ad46ff36ec579617c5ba9eee" target="_top" xlink:title="RKCK45::h">
<polygon fill="none" stroke="#000000" points="261.5,-38.5 261.5,-57.5 328.5,-57.5 328.5,-38.5 261.5,-38.5"/>
<text text-anchor="middle" x="295" y="-45.5" font-family="Helvetica,sans-Serif" font-size="10.00" fill="#000000">RKCK45::h</text>
</a>
</g>
</g>
<!-- Node46&#45;&gt;Node47 -->
<g id="edge3" class="edge">
<title>Node46&#45;&gt;Node47</title>
<path fill="none" stroke="#191970" d="M214.0348,-36.0749C226.2238,-37.8702 239.2535,-39.7893 251.2188,-41.5516"/>
<polygon fill="#191970" stroke="#191970" points="251.0087,-45.0583 261.412,-43.0529 252.0288,-38.1331 251.0087,-45.0583"/>
</g>
<!-- Node48 -->
<g id="node5" class="node">
<title>Node48</title>
<g id="a_node5"><a xlink:href="classRKCK45.html#aa61f9dd524bbc30f9c5480a868378c1f" target="_top" xlink:title="RKCK45::RKTry">
<polygon fill="none" stroke="#000000" points="250,-.5 250,-19.5 340,-19.5 340,-.5 250,-.5"/>
<text text-anchor="middle" x="295" y="-7.5" font-family="Helvetica,sans-Serif" font-size="10.00" fill="#000000">RKCK45::RKTry</text>
</a>
</g>
</g>
<!-- Node46&#45;&gt;Node48 -->
<g id="edge4" class="edge">
<title>Node46&#45;&gt;Node48</title>
<path fill="none" stroke="#191970" d="M214.0348,-21.9251C222.4787,-20.6814 231.326,-19.3783 239.9434,-18.1091"/>
<polygon fill="#191970" stroke="#191970" points="240.5328,-21.5602 249.916,-16.6403 239.5127,-14.6349 240.5328,-21.5602"/>
</g>
</g>
</svg>
