<?xml version="1.0" encoding="UTF-8" standalone="no"?>
<!DOCTYPE svg PUBLIC "-//W3C//DTD SVG 1.1//EN"
 "http://www.w3.org/Graphics/SVG/1.1/DTD/svg11.dtd">
<!-- Generated by graphviz version 2.40.1 (20161225.0304)
 -->
<!-- Title: EnvironmentBase::computeEnv Pages: 1 -->
<svg width="501pt" height="104pt"
 viewBox="0.00 0.00 501.00 104.00" xmlns="http://www.w3.org/2000/svg" xmlns:xlink="http://www.w3.org/1999/xlink">
<g id="graph0" class="graph" transform="scale(1 1) rotate(0) translate(4 100)">
<title>EnvironmentBase::computeEnv</title>
<!-- Node4 -->
<g id="node1" class="node">
<title>Node4</title>
<polygon fill="#bfbfbf" stroke="#000000" points="0,-38.5 0,-57.5 155,-57.5 155,-38.5 0,-38.5"/>
<text text-anchor="middle" x="77.5" y="-45.5" font-family="Helvetica,sans-Serif" font-size="10.00" fill="#000000">EnvironmentBase::computeEnv</text>
</g>
<!-- Node5 -->
<g id="node2" class="node">
<title>Node5</title>
<g id="a_node2"><a xlink:href="classEnvironmentBase.html#ae8661cf24cd1402c62718d7584608df6" target="_top" xlink:title="EnvironmentBase::~EnvironmentBase">
<polygon fill="none" stroke="#000000" points="191,-76.5 191,-95.5 374,-95.5 374,-76.5 191,-76.5"/>
<text text-anchor="middle" x="282.5" y="-83.5" font-family="Helvetica,sans-Serif" font-size="10.00" fill="#000000">EnvironmentBase::~EnvironmentBase</text>
</a>
</g>
</g>
<!-- Node4&#45;&gt;Node5 -->
<g id="edge1" class="edge">
<title>Node4&#45;&gt;Node5</title>
<path fill="none" stroke="#191970" d="M139.0978,-59.4181C168.4296,-64.8552 203.107,-71.2832 231.0133,-76.4561"/>
<polygon fill="#191970" stroke="#191970" points="139.436,-55.9213 128.9655,-57.54 138.1601,-62.804 139.436,-55.9213"/>
</g>
<!-- Node6 -->
<g id="node3" class="node">
<title>Node6</title>
<g id="a_node3"><a xlink:href="classSolver.html#ae9cbf50e5db34626f54298c75fc64188" target="_top" xlink:title="Solver::newborns_out">
<polygon fill="none" stroke="#000000" points="227,-38.5 227,-57.5 338,-57.5 338,-38.5 227,-38.5"/>
<text text-anchor="middle" x="282.5" y="-45.5" font-family="Helvetica,sans-Serif" font-size="10.00" fill="#000000">Solver::newborns_out</text>
</a>
</g>
</g>
<!-- Node4&#45;&gt;Node6 -->
<g id="edge2" class="edge">
<title>Node4&#45;&gt;Node6</title>
<path fill="none" stroke="#191970" d="M165.1937,-48C186.1249,-48 207.8975,-48 226.9206,-48"/>
<polygon fill="#191970" stroke="#191970" points="165.0017,-44.5001 155.0017,-48 165.0017,-51.5001 165.0017,-44.5001"/>
</g>
<!-- Node8 -->
<g id="node5" class="node">
<title>Node8</title>
<g id="a_node5"><a xlink:href="classSolver.html#af4c8f6565df94ed6a058a224196b9c2b" target="_top" xlink:title="Solver::step_to">
<polygon fill="none" stroke="#000000" points="241,-.5 241,-19.5 324,-19.5 324,-.5 241,-.5"/>
<text text-anchor="middle" x="282.5" y="-7.5" font-family="Helvetica,sans-Serif" font-size="10.00" fill="#000000">Solver::step_to</text>
</a>
</g>
</g>
<!-- Node4&#45;&gt;Node8 -->
<g id="edge4" class="edge">
<title>Node4&#45;&gt;Node8</title>
<path fill="none" stroke="#191970" d="M138.9269,-36.6136C171.7833,-30.5231 211.3863,-23.182 240.669,-17.754"/>
<polygon fill="#191970" stroke="#191970" points="138.1601,-33.196 128.9655,-38.46 139.436,-40.0787 138.1601,-33.196"/>
</g>
<!-- Node7 -->
<g id="node4" class="node">
<title>Node7</title>
<g id="a_node4"><a xlink:href="classSolver.html#a40c9ebb8d585e07d8f65c4ac5ada6420" target="_top" xlink:title="Solver::u0_out">
<polygon fill="none" stroke="#000000" points="411.5,-38.5 411.5,-57.5 491.5,-57.5 491.5,-38.5 411.5,-38.5"/>
<text text-anchor="middle" x="451.5" y="-45.5" font-family="Helvetica,sans-Serif" font-size="10.00" fill="#000000">Solver::u0_out</text>
</a>
</g>
</g>
<!-- Node6&#45;&gt;Node7 -->
<g id="edge3" class="edge">
<title>Node6&#45;&gt;Node7</title>
<path fill="none" stroke="#191970" d="M348.5447,-48C369.7195,-48 392.5198,-48 411.2685,-48"/>
<polygon fill="#191970" stroke="#191970" points="348.3053,-44.5001 338.3053,-48 348.3053,-51.5001 348.3053,-44.5001"/>
</g>
<!-- Node9 -->
<g id="node6" class="node">
<title>Node9</title>
<g id="a_node6"><a xlink:href="classSolver.html#a06cf82d0a99490279ab20d2ad6b876db" target="_top" xlink:title="Solver::step_to">
<polygon fill="none" stroke="#000000" points="410,-.5 410,-19.5 493,-19.5 493,-.5 410,-.5"/>
<text text-anchor="middle" x="451.5" y="-7.5" font-family="Helvetica,sans-Serif" font-size="10.00" fill="#000000">Solver::step_to</text>
</a>
</g>
</g>
<!-- Node8&#45;&gt;Node9 -->
<g id="edge5" class="edge">
<title>Node8&#45;&gt;Node9</title>
<path fill="none" stroke="#191970" d="M334.3791,-10C358.6267,-10 387.108,-10 409.9127,-10"/>
<polygon fill="#191970" stroke="#191970" points="334.2753,-6.5001 324.2753,-10 334.2753,-13.5001 334.2753,-6.5001"/>
</g>
</g>
</svg>
