<?xml version="1.0" encoding="UTF-8" standalone="no"?>
<!DOCTYPE svg PUBLIC "-//W3C//DTD SVG 1.1//EN"
 "http://www.w3.org/Graphics/SVG/1.1/DTD/svg11.dtd">
<!-- Generated by graphviz version 2.40.1 (20161225.0304)
 -->
<!-- Title: Spline::extrapolate_right Pages: 1 -->
<svg width="404pt" height="39pt"
 viewBox="0.00 0.00 404.00 39.00" xmlns="http://www.w3.org/2000/svg" xmlns:xlink="http://www.w3.org/1999/xlink">
<g id="graph0" class="graph" transform="scale(1 1) rotate(0) translate(4 35)">
<title>Spline::extrapolate_right</title>
<!-- Node20 -->
<g id="node1" class="node">
<title>Node20</title>
<polygon fill="#bfbfbf" stroke="#000000" points="0,-.5 0,-30.5 98,-30.5 98,-.5 0,-.5"/>
<text text-anchor="start" x="8" y="-18.5" font-family="Helvetica,sans-Serif" font-size="10.00" fill="#000000">Spline::extrapolate</text>
<text text-anchor="middle" x="49" y="-7.5" font-family="Helvetica,sans-Serif" font-size="10.00" fill="#000000">_right</text>
</g>
<!-- Node21 -->
<g id="node2" class="node">
<title>Node21</title>
<g id="a_node2"><a xlink:href="classSpline.html#aac2008c210497336b1b4b9992ccde22f" target="_top" xlink:title="Spline::eval">
<polygon fill="none" stroke="#000000" points="134,-6 134,-25 202,-25 202,-6 134,-6"/>
<text text-anchor="middle" x="168" y="-13" font-family="Helvetica,sans-Serif" font-size="10.00" fill="#000000">Spline::eval</text>
</a>
</g>
</g>
<!-- Node20&#45;&gt;Node21 -->
<g id="edge1" class="edge">
<title>Node20&#45;&gt;Node21</title>
<path fill="none" stroke="#191970" d="M108.3381,-15.5C117.1097,-15.5 125.8859,-15.5 133.9044,-15.5"/>
<polygon fill="#191970" stroke="#191970" points="108.0889,-12.0001 98.0889,-15.5 108.0889,-19.0001 108.0889,-12.0001"/>
</g>
<!-- Node22 -->
<g id="node3" class="node">
<title>Node22</title>
<g id="a_node3"><a xlink:href="classSolver.html#aca318144131fe7ed314e6e62037dcde6" target="_top" xlink:title="Solver::getDensitySpecies_EBT">
<polygon fill="none" stroke="#000000" points="238,-6 238,-25 396,-25 396,-6 238,-6"/>
<text text-anchor="middle" x="317" y="-13" font-family="Helvetica,sans-Serif" font-size="10.00" fill="#000000">Solver::getDensitySpecies_EBT</text>
</a>
</g>
</g>
<!-- Node21&#45;&gt;Node22 -->
<g id="edge2" class="edge">
<title>Node21&#45;&gt;Node22</title>
<path fill="none" stroke="#191970" d="M212.4057,-15.5C220.4592,-15.5 229.0766,-15.5 237.7803,-15.5"/>
<polygon fill="#191970" stroke="#191970" points="212.1836,-12.0001 202.1836,-15.5 212.1836,-19.0001 212.1836,-12.0001"/>
</g>
</g>
</svg>
