<?xml version="1.0" encoding="UTF-8" standalone="no"?>
<!DOCTYPE svg PUBLIC "-//W3C//DTD SVG 1.1//EN"
 "http://www.w3.org/Graphics/SVG/1.1/DTD/svg11.dtd">
<!-- Generated by graphviz version 2.40.1 (20161225.0304)
 -->
<!-- Title: Species_Base::mortalityRate Pages: 1 -->
<svg width="545pt" height="28pt"
 viewBox="0.00 0.00 545.00 28.00" xmlns="http://www.w3.org/2000/svg" xmlns:xlink="http://www.w3.org/1999/xlink">
<g id="graph0" class="graph" transform="scale(1 1) rotate(0) translate(4 24)">
<title>Species_Base::mortalityRate</title>
<!-- Node92 -->
<g id="node1" class="node">
<title>Node92</title>
<polygon fill="#bfbfbf" stroke="#000000" points="0,-.5 0,-19.5 144,-19.5 144,-.5 0,-.5"/>
<text text-anchor="middle" x="72" y="-7.5" font-family="Helvetica,sans-Serif" font-size="10.00" fill="#000000">Species_Base::mortalityRate</text>
</g>
<!-- Node93 -->
<g id="node2" class="node">
<title>Node93</title>
<g id="a_node2"><a xlink:href="classSolver.html#a23be16428b7ba399bfd2f06555547f6b" target="_top" xlink:title="Solver::calcRates_EBT">
<polygon fill="none" stroke="#000000" points="180,-.5 180,-19.5 299,-19.5 299,-.5 180,-.5"/>
<text text-anchor="middle" x="239.5" y="-7.5" font-family="Helvetica,sans-Serif" font-size="10.00" fill="#000000">Solver::calcRates_EBT</text>
</a>
</g>
</g>
<!-- Node92&#45;&gt;Node93 -->
<g id="edge1" class="edge">
<title>Node92&#45;&gt;Node93</title>
<path fill="none" stroke="#191970" d="M154.1622,-10C162.8407,-10 171.5419,-10 179.893,-10"/>
<polygon fill="#191970" stroke="#191970" points="154.0072,-6.5001 144.0072,-10 154.0071,-13.5001 154.0072,-6.5001"/>
</g>
<!-- Node94 -->
<g id="node3" class="node">
<title>Node94</title>
<g id="a_node3"><a xlink:href="classSolver.html#af4c8f6565df94ed6a058a224196b9c2b" target="_top" xlink:title="Solver::step_to">
<polygon fill="none" stroke="#000000" points="335,-.5 335,-19.5 418,-19.5 418,-.5 335,-.5"/>
<text text-anchor="middle" x="376.5" y="-7.5" font-family="Helvetica,sans-Serif" font-size="10.00" fill="#000000">Solver::step_to</text>
</a>
</g>
</g>
<!-- Node93&#45;&gt;Node94 -->
<g id="edge2" class="edge">
<title>Node93&#45;&gt;Node94</title>
<path fill="none" stroke="#191970" d="M309.3444,-10C318.0102,-10 326.6473,-10 334.7006,-10"/>
<polygon fill="#191970" stroke="#191970" points="309.1917,-6.5001 299.1917,-10 309.1916,-13.5001 309.1917,-6.5001"/>
</g>
<!-- Node95 -->
<g id="node4" class="node">
<title>Node95</title>
<g id="a_node4"><a xlink:href="classSolver.html#a06cf82d0a99490279ab20d2ad6b876db" target="_top" xlink:title="Solver::step_to">
<polygon fill="none" stroke="#000000" points="454,-.5 454,-19.5 537,-19.5 537,-.5 454,-.5"/>
<text text-anchor="middle" x="495.5" y="-7.5" font-family="Helvetica,sans-Serif" font-size="10.00" fill="#000000">Solver::step_to</text>
</a>
</g>
</g>
<!-- Node94&#45;&gt;Node95 -->
<g id="edge3" class="edge">
<title>Node94&#45;&gt;Node95</title>
<path fill="none" stroke="#191970" d="M428.3174,-10C436.8022,-10 445.499,-10 453.7019,-10"/>
<polygon fill="#191970" stroke="#191970" points="428.1205,-6.5001 418.1204,-10 428.1204,-13.5001 428.1205,-6.5001"/>
</g>
</g>
</svg>
