<?xml version="1.0" encoding="UTF-8" standalone="no"?>
<!DOCTYPE svg PUBLIC "-//W3C//DTD SVG 1.1//EN"
 "http://www.w3.org/Graphics/SVG/1.1/DTD/svg11.dtd">
<!-- Generated by graphviz version 2.40.1 (20161225.0304)
 -->
<!-- Title: Solver::copyCohortsToState Pages: 1 -->
<svg width="325pt" height="116pt"
 viewBox="0.00 0.00 325.00 115.50" xmlns="http://www.w3.org/2000/svg" xmlns:xlink="http://www.w3.org/1999/xlink">
<g id="graph0" class="graph" transform="scale(1 1) rotate(0) translate(4 111.5)">
<title>Solver::copyCohortsToState</title>
<!-- Node55 -->
<g id="node1" class="node">
<title>Node55</title>
<polygon fill="#bfbfbf" stroke="#000000" points="0,-50 0,-69 140,-69 140,-50 0,-50"/>
<text text-anchor="middle" x="70" y="-57" font-family="Helvetica,sans-Serif" font-size="10.00" fill="#000000">Solver::copyCohortsToState</text>
</g>
<!-- Node56 -->
<g id="node2" class="node">
<title>Node56</title>
<g id="a_node2"><a xlink:href="classSpecies__Base.html#ad412522fc071525a19f95609880b20ff" target="_top" xlink:title="Species_Base::getU">
<polygon fill="none" stroke="#000000" points="193,-88 193,-107 300,-107 300,-88 193,-88"/>
<text text-anchor="middle" x="246.5" y="-95" font-family="Helvetica,sans-Serif" font-size="10.00" fill="#000000">Species_Base::getU</text>
</a>
</g>
</g>
<!-- Node55&#45;&gt;Node56 -->
<g id="edge1" class="edge">
<title>Node55&#45;&gt;Node56</title>
<path fill="none" stroke="#191970" d="M114.5384,-69.089C138.1442,-74.1713 167.3325,-80.4554 192.2511,-85.8203"/>
<polygon fill="#191970" stroke="#191970" points="191.7692,-89.2967 202.2819,-87.9799 193.2426,-82.4535 191.7692,-89.2967"/>
</g>
<!-- Node57 -->
<g id="node3" class="node">
<title>Node57</title>
<g id="a_node3"><a xlink:href="classSpecies__Base.html#aa6880c6f5c8ff125cab4d1195dedfb13" target="_top" xlink:title="Species_Base::getX">
<polygon fill="none" stroke="#000000" points="193.5,-50 193.5,-69 299.5,-69 299.5,-50 193.5,-50"/>
<text text-anchor="middle" x="246.5" y="-57" font-family="Helvetica,sans-Serif" font-size="10.00" fill="#000000">Species_Base::getX</text>
</a>
</g>
</g>
<!-- Node55&#45;&gt;Node57 -->
<g id="edge2" class="edge">
<title>Node55&#45;&gt;Node57</title>
<path fill="none" stroke="#191970" d="M140.011,-59.5C154.3388,-59.5 169.3373,-59.5 183.4052,-59.5"/>
<polygon fill="#191970" stroke="#191970" points="183.4615,-63.0001 193.4615,-59.5 183.4614,-56.0001 183.4615,-63.0001"/>
</g>
<!-- Node58 -->
<g id="node4" class="node">
<title>Node58</title>
<g id="a_node4"><a xlink:href="classSpecies__Base.html#a096db78d3a8d871b594f8a23e44f1873" target="_top" xlink:title="Species_Base::copyCohorts\lExtraToState">
<polygon fill="none" stroke="#000000" points="176,-.5 176,-30.5 317,-30.5 317,-.5 176,-.5"/>
<text text-anchor="start" x="184" y="-18.5" font-family="Helvetica,sans-Serif" font-size="10.00" fill="#000000">Species_Base::copyCohorts</text>
<text text-anchor="middle" x="246.5" y="-7.5" font-family="Helvetica,sans-Serif" font-size="10.00" fill="#000000">ExtraToState</text>
</a>
</g>
</g>
<!-- Node55&#45;&gt;Node58 -->
<g id="edge3" class="edge">
<title>Node55&#45;&gt;Node58</title>
<path fill="none" stroke="#191970" d="M108.2979,-49.9527C128.1697,-44.9988 153.08,-38.7888 176.2592,-33.0105"/>
<polygon fill="#191970" stroke="#191970" points="177.2109,-36.3804 186.0673,-30.5654 175.5177,-29.5883 177.2109,-36.3804"/>
</g>
</g>
</svg>
