<?xml version="1.0" encoding="UTF-8" standalone="no"?>
<!DOCTYPE svg PUBLIC "-//W3C//DTD SVG 1.1//EN"
 "http://www.w3.org/Graphics/SVG/1.1/DTD/svg11.dtd">
<!-- Generated by graphviz version 2.40.1 (20161225.0304)
 -->
<!-- Title: RKCK45::RKTry Pages: 1 -->
<svg width="889pt" height="66pt"
 viewBox="0.00 0.00 889.00 66.00" xmlns="http://www.w3.org/2000/svg" xmlns:xlink="http://www.w3.org/1999/xlink">
<g id="graph0" class="graph" transform="scale(1 1) rotate(0) translate(4 62)">
<title>RKCK45::RKTry</title>
<!-- Node34 -->
<g id="node1" class="node">
<title>Node34</title>
<polygon fill="#bfbfbf" stroke="#000000" points="0,-19.5 0,-38.5 90,-38.5 90,-19.5 0,-19.5"/>
<text text-anchor="middle" x="45" y="-26.5" font-family="Helvetica,sans-Serif" font-size="10.00" fill="#000000">RKCK45::RKTry</text>
</g>
<!-- Node35 -->
<g id="node2" class="node">
<title>Node35</title>
<g id="a_node2"><a xlink:href="classRKCK45.html#a118a0972fa102cd12f85f6f5cadbf416" target="_top" xlink:title="RKCK45::get_fn_evals">
<polygon fill="none" stroke="#000000" points="258,-38.5 258,-57.5 375,-57.5 375,-38.5 258,-38.5"/>
<text text-anchor="middle" x="316.5" y="-45.5" font-family="Helvetica,sans-Serif" font-size="10.00" fill="#000000">RKCK45::get_fn_evals</text>
</a>
</g>
</g>
<!-- Node34&#45;&gt;Node35 -->
<g id="edge1" class="edge">
<title>Node34&#45;&gt;Node35</title>
<path fill="none" stroke="#191970" d="M100.2009,-32.863C146.0804,-36.0738 211.1898,-40.6302 257.9691,-43.9039"/>
<polygon fill="#191970" stroke="#191970" points="100.3574,-29.3655 90.1375,-32.1588 99.8687,-36.3485 100.3574,-29.3655"/>
</g>
<!-- Node36 -->
<g id="node3" class="node">
<title>Node36</title>
<g id="a_node3"><a xlink:href="classRKCK45.html#adfa11ff7b8da1b21aea9e457ac4e9d1c" target="_top" xlink:title="RKCK45::RKStep">
<polygon fill="none" stroke="#000000" points="126,-.5 126,-19.5 222,-19.5 222,-.5 126,-.5"/>
<text text-anchor="middle" x="174" y="-7.5" font-family="Helvetica,sans-Serif" font-size="10.00" fill="#000000">RKCK45::RKStep</text>
</a>
</g>
</g>
<!-- Node34&#45;&gt;Node36 -->
<g id="edge2" class="edge">
<title>Node34&#45;&gt;Node36</title>
<path fill="none" stroke="#191970" d="M100.2594,-20.861C108.6938,-19.6187 117.3435,-18.3448 125.6154,-17.1264"/>
<polygon fill="#191970" stroke="#191970" points="99.5012,-17.4348 90.1179,-22.3547 100.5212,-24.3601 99.5012,-17.4348"/>
</g>
<!-- Node36&#45;&gt;Node35 -->
<g id="edge3" class="edge">
<title>Node36&#45;&gt;Node35</title>
<path fill="none" stroke="#191970" d="M219.6531,-22.1742C239.3577,-27.4287 262.0747,-33.4866 280.5527,-38.4141"/>
<polygon fill="#191970" stroke="#191970" points="220.523,-18.7839 209.9588,-19.589 218.7193,-25.5475 220.523,-18.7839"/>
</g>
<!-- Node37 -->
<g id="node4" class="node">
<title>Node37</title>
<g id="a_node4"><a xlink:href="classRKCK45.html#a20415037da7046ff94afadbf927c42d3" target="_top" xlink:title="RKCK45::Step">
<polygon fill="none" stroke="#000000" points="275.5,-.5 275.5,-19.5 357.5,-19.5 357.5,-.5 275.5,-.5"/>
<text text-anchor="middle" x="316.5" y="-7.5" font-family="Helvetica,sans-Serif" font-size="10.00" fill="#000000">RKCK45::Step</text>
</a>
</g>
</g>
<!-- Node36&#45;&gt;Node37 -->
<g id="edge4" class="edge">
<title>Node36&#45;&gt;Node37</title>
<path fill="none" stroke="#191970" d="M232.5647,-10C246.96,-10 262.0691,-10 275.4384,-10"/>
<polygon fill="#191970" stroke="#191970" points="232.244,-6.5001 222.244,-10 232.244,-13.5001 232.244,-6.5001"/>
</g>
<!-- Node38 -->
<g id="node5" class="node">
<title>Node38</title>
<g id="a_node5"><a xlink:href="classRKCK45.html#a91b5ae2e8a9dadc117e6412f054afa59" target="_top" xlink:title="RKCK45::Step_to">
<polygon fill="none" stroke="#000000" points="411,-.5 411,-19.5 506,-19.5 506,-.5 411,-.5"/>
<text text-anchor="middle" x="458.5" y="-7.5" font-family="Helvetica,sans-Serif" font-size="10.00" fill="#000000">RKCK45::Step_to</text>
</a>
</g>
</g>
<!-- Node37&#45;&gt;Node38 -->
<g id="edge5" class="edge">
<title>Node37&#45;&gt;Node38</title>
<path fill="none" stroke="#191970" d="M367.5866,-10C381.6638,-10 396.8774,-10 410.7577,-10"/>
<polygon fill="#191970" stroke="#191970" points="367.5723,-6.5001 357.5723,-10 367.5722,-13.5001 367.5723,-6.5001"/>
</g>
<!-- Node39 -->
<g id="node6" class="node">
<title>Node39</title>
<g id="a_node6"><a xlink:href="classOdeSolver.html#a77d9f02ed28d5515366e6be08560f35a" target="_top" xlink:title="OdeSolver::step_to">
<polygon fill="none" stroke="#000000" points="542,-.5 542,-19.5 643,-19.5 643,-.5 542,-.5"/>
<text text-anchor="middle" x="592.5" y="-7.5" font-family="Helvetica,sans-Serif" font-size="10.00" fill="#000000">OdeSolver::step_to</text>
</a>
</g>
</g>
<!-- Node38&#45;&gt;Node39 -->
<g id="edge6" class="edge">
<title>Node38&#45;&gt;Node39</title>
<path fill="none" stroke="#191970" d="M516.3412,-10C524.8324,-10 533.5235,-10 541.8553,-10"/>
<polygon fill="#191970" stroke="#191970" points="516.1207,-6.5001 506.1207,-10 516.1207,-13.5001 516.1207,-6.5001"/>
</g>
<!-- Node40 -->
<g id="node7" class="node">
<title>Node40</title>
<g id="a_node7"><a xlink:href="classSolver.html#af4c8f6565df94ed6a058a224196b9c2b" target="_top" xlink:title="Solver::step_to">
<polygon fill="none" stroke="#000000" points="679,-.5 679,-19.5 762,-19.5 762,-.5 679,-.5"/>
<text text-anchor="middle" x="720.5" y="-7.5" font-family="Helvetica,sans-Serif" font-size="10.00" fill="#000000">Solver::step_to</text>
</a>
</g>
</g>
<!-- Node39&#45;&gt;Node40 -->
<g id="edge7" class="edge">
<title>Node39&#45;&gt;Node40</title>
<path fill="none" stroke="#191970" d="M653.2268,-10C661.9273,-10 670.7087,-10 678.9255,-10"/>
<polygon fill="#191970" stroke="#191970" points="653.089,-6.5001 643.089,-10 653.089,-13.5001 653.089,-6.5001"/>
</g>
<!-- Node41 -->
<g id="node8" class="node">
<title>Node41</title>
<g id="a_node8"><a xlink:href="classSolver.html#a06cf82d0a99490279ab20d2ad6b876db" target="_top" xlink:title="Solver::step_to">
<polygon fill="none" stroke="#000000" points="798,-.5 798,-19.5 881,-19.5 881,-.5 798,-.5"/>
<text text-anchor="middle" x="839.5" y="-7.5" font-family="Helvetica,sans-Serif" font-size="10.00" fill="#000000">Solver::step_to</text>
</a>
</g>
</g>
<!-- Node40&#45;&gt;Node41 -->
<g id="edge8" class="edge">
<title>Node40&#45;&gt;Node41</title>
<path fill="none" stroke="#191970" d="M772.3174,-10C780.8022,-10 789.499,-10 797.7019,-10"/>
<polygon fill="#191970" stroke="#191970" points="772.1205,-6.5001 762.1204,-10 772.1204,-13.5001 772.1205,-6.5001"/>
</g>
</g>
</svg>
