<?xml version="1.0" encoding="UTF-8" standalone="no"?>
<!DOCTYPE svg PUBLIC "-//W3C//DTD SVG 1.1//EN"
 "http://www.w3.org/Graphics/SVG/1.1/DTD/svg11.dtd">
<!-- Generated by graphviz version 2.40.1 (20161225.0304)
 -->
<!-- Title: Solver::calcRates_EBT Pages: 1 -->
<svg width="312pt" height="366pt"
 viewBox="0.00 0.00 312.00 366.00" xmlns="http://www.w3.org/2000/svg" xmlns:xlink="http://www.w3.org/1999/xlink">
<g id="graph0" class="graph" transform="scale(1 1) rotate(0) translate(4 362)">
<title>Solver::calcRates_EBT</title>
<!-- Node24 -->
<g id="node1" class="node">
<title>Node24</title>
<polygon fill="#bfbfbf" stroke="#000000" points="0,-158.5 0,-177.5 119,-177.5 119,-158.5 0,-158.5"/>
<text text-anchor="middle" x="59.5" y="-165.5" font-family="Helvetica,sans-Serif" font-size="10.00" fill="#000000">Solver::calcRates_EBT</text>
</g>
<!-- Node25 -->
<g id="node2" class="node">
<title>Node25</title>
<g id="a_node2"><a xlink:href="classSpecies__Base.html#aa6880c6f5c8ff125cab4d1195dedfb13" target="_top" xlink:title="Species_Base::getX">
<polygon fill="none" stroke="#000000" points="176.5,-338.5 176.5,-357.5 282.5,-357.5 282.5,-338.5 176.5,-338.5"/>
<text text-anchor="middle" x="229.5" y="-345.5" font-family="Helvetica,sans-Serif" font-size="10.00" fill="#000000">Species_Base::getX</text>
</a>
</g>
</g>
<!-- Node24&#45;&gt;Node25 -->
<g id="edge1" class="edge">
<title>Node24&#45;&gt;Node25</title>
<path fill="none" stroke="#191970" d="M62.35,-177.7653C71.1019,-205.9636 100.3636,-288.1027 155,-329 158.6449,-331.7283 162.6411,-334.0669 166.8303,-336.0712"/>
<polygon fill="#191970" stroke="#191970" points="165.6683,-339.3778 176.2479,-339.9464 168.3321,-332.9044 165.6683,-339.3778"/>
</g>
<!-- Node26 -->
<g id="node3" class="node">
<title>Node26</title>
<g id="a_node3"><a xlink:href="classSpecies__Base.html#ad412522fc071525a19f95609880b20ff" target="_top" xlink:title="Species_Base::getU">
<polygon fill="none" stroke="#000000" points="176,-300.5 176,-319.5 283,-319.5 283,-300.5 176,-300.5"/>
<text text-anchor="middle" x="229.5" y="-307.5" font-family="Helvetica,sans-Serif" font-size="10.00" fill="#000000">Species_Base::getU</text>
</a>
</g>
</g>
<!-- Node24&#45;&gt;Node26 -->
<g id="edge2" class="edge">
<title>Node24&#45;&gt;Node26</title>
<path fill="none" stroke="#191970" d="M64.1828,-177.7648C75.9436,-201.2013 109.0987,-260.9168 155,-291 158.5795,-293.3459 162.4309,-295.4023 166.4301,-297.2048"/>
<polygon fill="#191970" stroke="#191970" points="165.3843,-300.5546 175.9711,-300.9667 167.952,-294.0425 165.3843,-300.5546"/>
</g>
<!-- Node27 -->
<g id="node4" class="node">
<title>Node27</title>
<g id="a_node4"><a xlink:href="classSpecies__Base.html#ad68f257218879207e9f6ed4cf3bd7eef" target="_top" xlink:title="Species_Base::growthRate\lGradient">
<polygon fill="none" stroke="#000000" points="161.5,-251 161.5,-281 297.5,-281 297.5,-251 161.5,-251"/>
<text text-anchor="start" x="169.5" y="-269" font-family="Helvetica,sans-Serif" font-size="10.00" fill="#000000">Species_Base::growthRate</text>
<text text-anchor="middle" x="229.5" y="-258" font-family="Helvetica,sans-Serif" font-size="10.00" fill="#000000">Gradient</text>
</a>
</g>
</g>
<!-- Node24&#45;&gt;Node27 -->
<g id="edge3" class="edge">
<title>Node24&#45;&gt;Node27</title>
<path fill="none" stroke="#191970" d="M69.5431,-177.7408C86.0897,-193.3119 120.6795,-223.8945 155,-242 158.4835,-243.8377 162.1333,-245.567 165.8669,-247.1887"/>
<polygon fill="#191970" stroke="#191970" points="164.6911,-250.4886 175.2737,-250.9992 167.3193,-244.0007 164.6911,-250.4886"/>
</g>
<!-- Node28 -->
<g id="node5" class="node">
<title>Node28</title>
<g id="a_node5"><a xlink:href="classSpecies__Base.html#a83ff45fc4f334241eeae08d523d343b5" target="_top" xlink:title="Species_Base::mortalityRate\lGradient">
<polygon fill="none" stroke="#000000" points="157.5,-202 157.5,-232 301.5,-232 301.5,-202 157.5,-202"/>
<text text-anchor="start" x="165.5" y="-220" font-family="Helvetica,sans-Serif" font-size="10.00" fill="#000000">Species_Base::mortalityRate</text>
<text text-anchor="middle" x="229.5" y="-209" font-family="Helvetica,sans-Serif" font-size="10.00" fill="#000000">Gradient</text>
</a>
</g>
</g>
<!-- Node24&#45;&gt;Node28 -->
<g id="edge4" class="edge">
<title>Node24&#45;&gt;Node28</title>
<path fill="none" stroke="#191970" d="M92.6813,-177.564C113.9219,-183.6863 142.1435,-191.8208 167.4365,-199.1111"/>
<polygon fill="#191970" stroke="#191970" points="166.7527,-202.5565 177.3309,-201.963 168.6915,-195.8303 166.7527,-202.5565"/>
</g>
<!-- Node29 -->
<g id="node6" class="node">
<title>Node29</title>
<g id="a_node6"><a xlink:href="classSpecies__Base.html#aad4cefae53644171dfcd12639d2e0e63" target="_top" xlink:title="Species_Base::establishment\lProbability">
<polygon fill="none" stroke="#000000" points="156.5,-153 156.5,-183 302.5,-183 302.5,-153 156.5,-153"/>
<text text-anchor="start" x="164.5" y="-171" font-family="Helvetica,sans-Serif" font-size="10.00" fill="#000000">Species_Base::establishment</text>
<text text-anchor="middle" x="229.5" y="-160" font-family="Helvetica,sans-Serif" font-size="10.00" fill="#000000">Probability</text>
</a>
</g>
</g>
<!-- Node24&#45;&gt;Node29 -->
<g id="edge5" class="edge">
<title>Node24&#45;&gt;Node29</title>
<path fill="none" stroke="#191970" d="M119.4356,-168C128.1175,-168 137.1825,-168 146.2215,-168"/>
<polygon fill="#191970" stroke="#191970" points="146.394,-171.5001 156.394,-168 146.394,-164.5001 146.394,-171.5001"/>
</g>
<!-- Node30 -->
<g id="node7" class="node">
<title>Node30</title>
<g id="a_node7"><a xlink:href="classSpecies__Base.html#a6759c877ef7531a835326dcc11adb2c2" target="_top" xlink:title="Species_Base::get_u0">
<polygon fill="none" stroke="#000000" points="172,-114.5 172,-133.5 287,-133.5 287,-114.5 172,-114.5"/>
<text text-anchor="middle" x="229.5" y="-121.5" font-family="Helvetica,sans-Serif" font-size="10.00" fill="#000000">Species_Base::get_u0</text>
</a>
</g>
</g>
<!-- Node24&#45;&gt;Node30 -->
<g id="edge6" class="edge">
<title>Node24&#45;&gt;Node30</title>
<path fill="none" stroke="#191970" d="M96.3875,-158.4527C121.7834,-151.8796 155.7231,-143.0952 182.9751,-136.0417"/>
<polygon fill="#191970" stroke="#191970" points="183.8805,-139.4228 192.6845,-133.5287 182.1265,-132.6461 183.8805,-139.4228"/>
</g>
<!-- Node31 -->
<g id="node8" class="node">
<title>Node31</title>
<g id="a_node8"><a xlink:href="classSpecies__Base.html#abe98e190e76cfd39eee7ef3d30141d53" target="_top" xlink:title="Species_Base::growthRate">
<polygon fill="none" stroke="#000000" points="161.5,-76.5 161.5,-95.5 297.5,-95.5 297.5,-76.5 161.5,-76.5"/>
<text text-anchor="middle" x="229.5" y="-83.5" font-family="Helvetica,sans-Serif" font-size="10.00" fill="#000000">Species_Base::growthRate</text>
</a>
</g>
</g>
<!-- Node24&#45;&gt;Node31 -->
<g id="edge7" class="edge">
<title>Node24&#45;&gt;Node31</title>
<path fill="none" stroke="#191970" d="M71.1078,-158.4631C88.3724,-144.733 122.3029,-119.4619 155,-105 160.4742,-102.5788 166.3166,-100.4228 172.2302,-98.5134"/>
<polygon fill="#191970" stroke="#191970" points="173.621,-101.7506 182.1971,-95.5296 171.6134,-95.0446 173.621,-101.7506"/>
</g>
<!-- Node32 -->
<g id="node9" class="node">
<title>Node32</title>
<g id="a_node9"><a xlink:href="classSpecies__Base.html#a59ab3c647c48a819f1911957e5724d5e" target="_top" xlink:title="Species_Base::mortalityRate">
<polygon fill="none" stroke="#000000" points="157.5,-38.5 157.5,-57.5 301.5,-57.5 301.5,-38.5 157.5,-38.5"/>
<text text-anchor="middle" x="229.5" y="-45.5" font-family="Helvetica,sans-Serif" font-size="10.00" fill="#000000">Species_Base::mortalityRate</text>
</a>
</g>
</g>
<!-- Node24&#45;&gt;Node32 -->
<g id="edge8" class="edge">
<title>Node24&#45;&gt;Node32</title>
<path fill="none" stroke="#191970" d="M65.8494,-158.2184C79.5574,-137.917 114.0191,-91.0965 155,-67 158.6892,-64.8308 162.6229,-62.9069 166.6821,-61.2008"/>
<polygon fill="#191970" stroke="#191970" points="168.1794,-64.3779 176.3249,-57.6027 165.7322,-57.8196 168.1794,-64.3779"/>
</g>
<!-- Node33 -->
<g id="node10" class="node">
<title>Node33</title>
<g id="a_node10"><a xlink:href="classSpecies__Base.html#a1c47d1905fa4da0a1f203f641f6ed2af" target="_top" xlink:title="Species_Base::getExtraRates">
<polygon fill="none" stroke="#000000" points="155,-.5 155,-19.5 304,-19.5 304,-.5 155,-.5"/>
<text text-anchor="middle" x="229.5" y="-7.5" font-family="Helvetica,sans-Serif" font-size="10.00" fill="#000000">Species_Base::getExtraRates</text>
</a>
</g>
</g>
<!-- Node24&#45;&gt;Node33 -->
<g id="edge9" class="edge">
<title>Node24&#45;&gt;Node33</title>
<path fill="none" stroke="#191970" d="M63.1942,-158.4841C73.5333,-133.1586 105.2981,-63.6831 155,-29 157.8785,-26.9913 160.9518,-25.1948 164.1494,-23.5881"/>
<polygon fill="#191970" stroke="#191970" points="165.6621,-26.7469 173.4318,-19.5439 162.8661,-20.3295 165.6621,-26.7469"/>
</g>
</g>
</svg>
