<?xml version="1.0" encoding="UTF-8" standalone="no"?>
<!DOCTYPE svg PUBLIC "-//W3C//DTD SVG 1.1//EN"
 "http://www.w3.org/Graphics/SVG/1.1/DTD/svg11.dtd">
<!-- Generated by graphviz version 2.40.1 (20161225.0304)
 -->
<!-- Title: RKCK45::RKStep Pages: 1 -->
<svg width="383pt" height="75pt"
 viewBox="0.00 0.00 383.00 75.00" xmlns="http://www.w3.org/2000/svg" xmlns:xlink="http://www.w3.org/1999/xlink">
<g id="graph0" class="graph" transform="scale(1 1) rotate(0) translate(4 71)">
<title>RKCK45::RKStep</title>
<!-- Node40 -->
<g id="node1" class="node">
<title>Node40</title>
<polygon fill="#bfbfbf" stroke="#000000" points="0,-28.5 0,-47.5 96,-47.5 96,-28.5 0,-28.5"/>
<text text-anchor="middle" x="48" y="-35.5" font-family="Helvetica,sans-Serif" font-size="10.00" fill="#000000">RKCK45::RKStep</text>
</g>
<!-- Node41 -->
<g id="node2" class="node">
<title>Node41</title>
<g id="a_node2"><a xlink:href="classRKCK45.html#a8779263975ee2b9cc3c37bd024e8b658" target="_top" xlink:title="RKCK45::size">
<polygon fill="none" stroke="#000000" points="276.5,-47.5 276.5,-66.5 356.5,-66.5 356.5,-47.5 276.5,-47.5"/>
<text text-anchor="middle" x="316.5" y="-54.5" font-family="Helvetica,sans-Serif" font-size="10.00" fill="#000000">RKCK45::size</text>
</a>
</g>
</g>
<!-- Node40&#45;&gt;Node41 -->
<g id="edge1" class="edge">
<title>Node40&#45;&gt;Node41</title>
<path fill="none" stroke="#191970" d="M91.9892,-49.884C104.7922,-52.815 118.868,-55.5334 132,-57 181.5008,-62.5285 238.9393,-61.3407 276.4084,-59.5561"/>
<polygon fill="#191970" stroke="#191970" points="92.5761,-46.4258 82.0366,-47.5077 90.9503,-53.2344 92.5761,-46.4258"/>
</g>
<!-- Node42 -->
<g id="node3" class="node">
<title>Node42</title>
<g id="a_node3"><a xlink:href="classRKCK45.html#a5c883118b935daa56c54f9a39f247b7e" target="_top" xlink:title="RKCK45::get_fn_evals">
<polygon fill="none" stroke="#000000" points="258,-.5 258,-19.5 375,-19.5 375,-.5 258,-.5"/>
<text text-anchor="middle" x="316.5" y="-7.5" font-family="Helvetica,sans-Serif" font-size="10.00" fill="#000000">RKCK45::get_fn_evals</text>
</a>
</g>
</g>
<!-- Node40&#45;&gt;Node42 -->
<g id="edge2" class="edge">
<title>Node40&#45;&gt;Node42</title>
<path fill="none" stroke="#191970" d="M93.7863,-26.1308C106.1152,-23.3505 119.5003,-20.7054 132,-19 173.7841,-13.2993 221.3235,-11.0805 257.6804,-10.2706"/>
<polygon fill="#191970" stroke="#191970" points="92.6636,-22.7987 83.721,-28.4803 94.2549,-29.6154 92.6636,-22.7987"/>
</g>
<!-- Node43 -->
<g id="node4" class="node">
<title>Node43</title>
<g id="a_node4"><a xlink:href="classRKCK45.html#ab304a56995de997c15d992f5665b94e5" target="_top" xlink:title="RKCK45::RKTry">
<polygon fill="none" stroke="#000000" points="132,-28.5 132,-47.5 222,-47.5 222,-28.5 132,-28.5"/>
<text text-anchor="middle" x="177" y="-35.5" font-family="Helvetica,sans-Serif" font-size="10.00" fill="#000000">RKCK45::RKTry</text>
</a>
</g>
</g>
<!-- Node40&#45;&gt;Node43 -->
<g id="edge3" class="edge">
<title>Node40&#45;&gt;Node43</title>
<path fill="none" stroke="#191970" d="M106.0946,-31.2797C114.7572,-31.1992 123.5754,-31.2825 131.916,-31.5295"/>
<polygon fill="#191970" stroke="#191970" points="105.9743,-27.7811 96.0348,-31.4494 106.0925,-34.7801 105.9743,-27.7811"/>
</g>
<!-- Node43&#45;&gt;Node40 -->
<g id="edge6" class="edge">
<title>Node43&#45;&gt;Node40</title>
<path fill="none" stroke="#191970" d="M121.6623,-44.6891C113.1337,-44.8032 104.3869,-44.757 96.0348,-44.5506"/>
<polygon fill="#191970" stroke="#191970" points="121.9929,-48.1829 131.916,-44.4705 121.8437,-41.1845 121.9929,-48.1829"/>
</g>
<!-- Node43&#45;&gt;Node41 -->
<g id="edge4" class="edge">
<title>Node43&#45;&gt;Node41</title>
<path fill="none" stroke="#191970" d="M232.2573,-45.5261C246.9066,-47.5213 262.4482,-49.6381 276.1406,-51.503"/>
<polygon fill="#191970" stroke="#191970" points="232.6725,-42.0504 222.2917,-44.1688 231.7278,-48.9864 232.6725,-42.0504"/>
</g>
<!-- Node43&#45;&gt;Node42 -->
<g id="edge5" class="edge">
<title>Node43&#45;&gt;Node42</title>
<path fill="none" stroke="#191970" d="M232.3193,-26.8965C244.4688,-24.4579 257.2293,-21.8966 269.0374,-19.5265"/>
<polygon fill="#191970" stroke="#191970" points="231.4073,-23.5096 222.2917,-28.9092 232.7849,-30.3728 231.4073,-23.5096"/>
</g>
</g>
</svg>
