<?xml version="1.0" encoding="UTF-8" standalone="no"?>
<!DOCTYPE svg PUBLIC "-//W3C//DTD SVG 1.1//EN"
 "http://www.w3.org/Graphics/SVG/1.1/DTD/svg11.dtd">
<!-- Generated by graphviz version 2.40.1 (20161225.0304)
 -->
<!-- Title: LSODA Pages: 1 -->
<svg width="430pt" height="452pt"
 viewBox="0.00 0.00 430.00 452.00" xmlns="http://www.w3.org/2000/svg" xmlns:xlink="http://www.w3.org/1999/xlink">
<g id="graph0" class="graph" transform="scale(1 1) rotate(0) translate(4 448)">
<title>LSODA</title>
<!-- Node1 -->
<g id="node1" class="node">
<title>Node1</title>
<polygon fill="#bfbfbf" stroke="#000000" points="372,-179.5 372,-198.5 422,-198.5 422,-179.5 372,-179.5"/>
<text text-anchor="middle" x="397" y="-186.5" font-family="Helvetica,sans-Serif" font-size="10.00" fill="#000000">LSODA</text>
</g>
<!-- Node2 -->
<g id="node2" class="node">
<title>Node2</title>
<polygon fill="none" stroke="#bfbfbf" points="190.5,-424.5 190.5,-443.5 306.5,-443.5 306.5,-424.5 190.5,-424.5"/>
<text text-anchor="middle" x="248.5" y="-431.5" font-family="Helvetica,sans-Serif" font-size="10.00" fill="#000000">std::array&lt; double, 6 &gt;</text>
</g>
<!-- Node2&#45;&gt;Node1 -->
<g id="edge1" class="edge">
<title>Node2&#45;&gt;Node1</title>
<path fill="none" stroke="#9a32cd" stroke-dasharray="5,2" d="M298.8958,-420.3428C302.0806,-418.7456 305.1481,-416.9708 308,-415 335.067,-396.2958 339.3776,-386.4729 354,-357 381.8318,-300.9023 392.8236,-225.0571 395.9671,-198.5874"/>
<polygon fill="#9a32cd" stroke="#9a32cd" points="297.4379,-417.1603 289.6916,-424.3884 300.2546,-423.5686 297.4379,-417.1603"/>
<text text-anchor="middle" x="340" y="-403" font-family="Helvetica,sans-Serif" font-size="10.00" fill="#000000"> cm2</text>
</g>
<!-- Node3 -->
<g id="node3" class="node">
<title>Node3</title>
<polygon fill="none" stroke="#bfbfbf" points="194.5,-375 194.5,-405 302.5,-405 302.5,-375 194.5,-375"/>
<text text-anchor="start" x="202.5" y="-393" font-family="Helvetica,sans-Serif" font-size="10.00" fill="#000000">std::array&lt; std::array</text>
<text text-anchor="middle" x="248.5" y="-382" font-family="Helvetica,sans-Serif" font-size="10.00" fill="#000000">&lt; double, 4 &gt;, 13 &gt;</text>
</g>
<!-- Node3&#45;&gt;Node1 -->
<g id="edge2" class="edge">
<title>Node3&#45;&gt;Node1</title>
<path fill="none" stroke="#9a32cd" stroke-dasharray="5,2" d="M293.1169,-370.1196C298.3405,-367.0437 303.4294,-363.6589 308,-360 363.1284,-315.8681 387.842,-228.3183 394.827,-198.9027"/>
<polygon fill="#9a32cd" stroke="#9a32cd" points="291.3343,-367.1056 284.2665,-374.9985 294.7137,-373.2359 291.3343,-367.1056"/>
<text text-anchor="middle" x="340" y="-345" font-family="Helvetica,sans-Serif" font-size="10.00" fill="#000000"> tesco</text>
</g>
<!-- Node4 -->
<g id="node4" class="node">
<title>Node4</title>
<polygon fill="none" stroke="#bfbfbf" points="189,-223 189,-253 308,-253 308,-223 189,-223"/>
<text text-anchor="start" x="197" y="-241" font-family="Helvetica,sans-Serif" font-size="10.00" fill="#000000">std::vector&lt; std::vector</text>
<text text-anchor="middle" x="248.5" y="-230" font-family="Helvetica,sans-Serif" font-size="10.00" fill="#000000">&lt; double &gt; &gt;</text>
</g>
<!-- Node4&#45;&gt;Node1 -->
<g id="edge3" class="edge">
<title>Node4&#45;&gt;Node1</title>
<path fill="none" stroke="#9a32cd" stroke-dasharray="5,2" d="M317.8017,-225.3975C330.059,-222.2797 342.5536,-218.5077 354,-214 364.1238,-210.0132 374.6986,-203.8947 382.8281,-198.7087"/>
<polygon fill="#9a32cd" stroke="#9a32cd" points="316.9426,-222.0043 308.0471,-227.7592 318.5899,-228.8077 316.9426,-222.0043"/>
<text text-anchor="middle" x="340" y="-236" font-family="Helvetica,sans-Serif" font-size="10.00" fill="#000000"> wm_</text>
<text text-anchor="middle" x="340" y="-225" font-family="Helvetica,sans-Serif" font-size="10.00" fill="#000000">yh_</text>
</g>
<!-- Node5 -->
<g id="node5" class="node">
<title>Node5</title>
<polygon fill="none" stroke="#bfbfbf" points="0,-260.5 0,-279.5 110,-279.5 110,-260.5 0,-260.5"/>
<text text-anchor="middle" x="55" y="-267.5" font-family="Helvetica,sans-Serif" font-size="10.00" fill="#000000">std::vector&lt; double &gt;</text>
</g>
<!-- Node5&#45;&gt;Node1 -->
<g id="edge10" class="edge">
<title>Node5&#45;&gt;Node1</title>
<path fill="none" stroke="#9a32cd" stroke-dasharray="5,2" d="M120.654,-273.9772C172.1004,-275.7067 245.2318,-275.0981 308,-263 329.1153,-258.9302 336.6002,-260.636 354,-248 372.0501,-234.8918 385.6055,-211.9206 392.315,-198.8438"/>
<polygon fill="#9a32cd" stroke="#9a32cd" points="120.4647,-270.4677 110.3402,-273.5895 120.2017,-277.4628 120.4647,-270.4677"/>
<text text-anchor="middle" x="248.5" y="-332" font-family="Helvetica,sans-Serif" font-size="10.00" fill="#000000"> savf</text>
<text text-anchor="middle" x="248.5" y="-321" font-family="Helvetica,sans-Serif" font-size="10.00" fill="#000000">acor</text>
<text text-anchor="middle" x="248.5" y="-310" font-family="Helvetica,sans-Serif" font-size="10.00" fill="#000000">yout</text>
<text text-anchor="middle" x="248.5" y="-299" font-family="Helvetica,sans-Serif" font-size="10.00" fill="#000000">atol_</text>
<text text-anchor="middle" x="248.5" y="-288" font-family="Helvetica,sans-Serif" font-size="10.00" fill="#000000">rtol_</text>
<text text-anchor="middle" x="248.5" y="-277" font-family="Helvetica,sans-Serif" font-size="10.00" fill="#000000">ewt</text>
</g>
<!-- Node5&#45;&gt;Node4 -->
<g id="edge4" class="edge">
<title>Node5&#45;&gt;Node4</title>
<path fill="none" stroke="#9a32cd" stroke-dasharray="5,2" d="M120.1963,-259.2182C142.3976,-255.5466 167.0882,-251.4634 188.8338,-247.8673"/>
<polygon fill="#9a32cd" stroke="#9a32cd" points="119.4853,-255.7881 110.1904,-260.8729 120.6275,-262.6943 119.4853,-255.7881"/>
<text text-anchor="middle" x="149.5" y="-260" font-family="Helvetica,sans-Serif" font-size="10.00" fill="#000000"> elements</text>
</g>
<!-- Node6 -->
<g id="node6" class="node">
<title>Node6</title>
<polygon fill="none" stroke="#bfbfbf" points="199.5,-174 199.5,-204 297.5,-204 297.5,-174 199.5,-174"/>
<text text-anchor="start" x="207.5" y="-192" font-family="Helvetica,sans-Serif" font-size="10.00" fill="#000000">std::array&lt; double,</text>
<text text-anchor="middle" x="248.5" y="-181" font-family="Helvetica,sans-Serif" font-size="10.00" fill="#000000"> 13 &gt;</text>
</g>
<!-- Node6&#45;&gt;Node1 -->
<g id="edge5" class="edge">
<title>Node6&#45;&gt;Node1</title>
<path fill="none" stroke="#9a32cd" stroke-dasharray="5,2" d="M307.6276,-189C329.9502,-189 354.177,-189 371.7683,-189"/>
<polygon fill="#9a32cd" stroke="#9a32cd" points="307.536,-185.5001 297.536,-189 307.536,-192.5001 307.536,-185.5001"/>
<text text-anchor="middle" x="340" y="-203" font-family="Helvetica,sans-Serif" font-size="10.00" fill="#000000"> sm1</text>
<text text-anchor="middle" x="340" y="-192" font-family="Helvetica,sans-Serif" font-size="10.00" fill="#000000">cm1</text>
</g>
<!-- Node7 -->
<g id="node7" class="node">
<title>Node7</title>
<polygon fill="none" stroke="#bfbfbf" points="202.5,-135.5 202.5,-154.5 294.5,-154.5 294.5,-135.5 202.5,-135.5"/>
<text text-anchor="middle" x="248.5" y="-142.5" font-family="Helvetica,sans-Serif" font-size="10.00" fill="#000000">std::vector&lt; int &gt;</text>
</g>
<!-- Node7&#45;&gt;Node1 -->
<g id="edge6" class="edge">
<title>Node7&#45;&gt;Node1</title>
<path fill="none" stroke="#9a32cd" stroke-dasharray="5,2" d="M295.6356,-157.2284C313.9386,-162.1668 335.0252,-168.0899 354,-174 359.7371,-175.7869 365.8575,-177.8349 371.6281,-179.8314"/>
<polygon fill="#9a32cd" stroke="#9a32cd" points="296.3496,-153.7964 285.7848,-154.5926 294.5402,-160.5586 296.3496,-153.7964"/>
<text text-anchor="middle" x="340" y="-177" font-family="Helvetica,sans-Serif" font-size="10.00" fill="#000000"> ipvt</text>
</g>
<!-- Node8 -->
<g id="node8" class="node">
<title>Node8</title>
<polygon fill="none" stroke="#bfbfbf" points="194.5,-39 194.5,-69 302.5,-69 302.5,-39 194.5,-39"/>
<text text-anchor="start" x="202.5" y="-57" font-family="Helvetica,sans-Serif" font-size="10.00" fill="#000000">std::array&lt; std::array</text>
<text text-anchor="middle" x="248.5" y="-46" font-family="Helvetica,sans-Serif" font-size="10.00" fill="#000000">&lt; double, 14 &gt;, 13 &gt;</text>
</g>
<!-- Node8&#45;&gt;Node1 -->
<g id="edge7" class="edge">
<title>Node8&#45;&gt;Node1</title>
<path fill="none" stroke="#9a32cd" stroke-dasharray="5,2" d="M312.5335,-60.3329C327.4872,-64.3739 342.4109,-70.8106 354,-81 384.1612,-107.5184 393.4145,-158.0694 396.0398,-179.2657"/>
<polygon fill="#9a32cd" stroke="#9a32cd" points="313.275,-56.9117 302.7371,-58.0078 311.6586,-63.7225 313.275,-56.9117"/>
<text text-anchor="middle" x="340" y="-84" font-family="Helvetica,sans-Serif" font-size="10.00" fill="#000000"> elco</text>
</g>
<!-- Node9 -->
<g id="node9" class="node">
<title>Node9</title>
<polygon fill="none" stroke="#bfbfbf" points="6,-78 6,-108 104,-108 104,-78 6,-78"/>
<text text-anchor="start" x="14" y="-96" font-family="Helvetica,sans-Serif" font-size="10.00" fill="#000000">std::array&lt; double,</text>
<text text-anchor="middle" x="55" y="-85" font-family="Helvetica,sans-Serif" font-size="10.00" fill="#000000"> 14 &gt;</text>
</g>
<!-- Node9&#45;&gt;Node1 -->
<g id="edge9" class="edge">
<title>Node9&#45;&gt;Node1</title>
<path fill="none" stroke="#9a32cd" stroke-dasharray="5,2" d="M114.5367,-94.0923C178.0895,-95.977 274.2029,-101.1002 308,-115 343.1244,-129.4457 374.8957,-162.8958 389.1201,-179.4154"/>
<polygon fill="#9a32cd" stroke="#9a32cd" points="114.3351,-90.5854 104.2418,-93.8066 114.1409,-97.5827 114.3351,-90.5854"/>
<text text-anchor="middle" x="248.5" y="-118" font-family="Helvetica,sans-Serif" font-size="10.00" fill="#000000"> el</text>
</g>
<!-- Node9&#45;&gt;Node8 -->
<g id="edge8" class="edge">
<title>Node9&#45;&gt;Node8</title>
<path fill="none" stroke="#9a32cd" stroke-dasharray="5,2" d="M114.0239,-81.1037C139.6044,-75.9479 169.357,-69.9513 194.3633,-64.9113"/>
<polygon fill="#9a32cd" stroke="#9a32cd" points="113.1897,-77.7014 104.0784,-83.1082 114.5728,-84.5634 113.1897,-77.7014"/>
<text text-anchor="middle" x="149.5" y="-81" font-family="Helvetica,sans-Serif" font-size="10.00" fill="#000000"> elements</text>
</g>
<!-- Node10 -->
<g id="node10" class="node">
<title>Node10</title>
<polygon fill="none" stroke="#bfbfbf" points="192,-.5 192,-19.5 305,-19.5 305,-.5 192,-.5"/>
<text text-anchor="middle" x="248.5" y="-7.5" font-family="Helvetica,sans-Serif" font-size="10.00" fill="#000000">std::array&lt; size_t, 3 &gt;</text>
</g>
<!-- Node10&#45;&gt;Node1 -->
<g id="edge11" class="edge">
<title>Node10&#45;&gt;Node1</title>
<path fill="none" stroke="#9a32cd" stroke-dasharray="5,2" d="M311.9511,-22.9004C327.5738,-28.8261 342.9669,-37.4527 354,-50 388.1948,-88.8877 395.1983,-154.6281 396.6316,-179.2782"/>
<polygon fill="#9a32cd" stroke="#9a32cd" points="312.8257,-19.4998 302.231,-19.5489 310.5439,-26.1175 312.8257,-19.4998"/>
<text text-anchor="middle" x="340" y="-53" font-family="Helvetica,sans-Serif" font-size="10.00" fill="#000000"> mord</text>
</g>
</g>
</svg>
