<?xml version="1.0" encoding="UTF-8" standalone="no"?>
<!DOCTYPE svg PUBLIC "-//W3C//DTD SVG 1.1//EN"
 "http://www.w3.org/Graphics/SVG/1.1/DTD/svg11.dtd">
<!-- Generated by graphviz version 2.40.1 (20161225.0304)
 -->
<!-- Title: LSODA::stoda Pages: 1 -->
<svg width="501pt" height="294pt"
 viewBox="0.00 0.00 501.00 294.00" xmlns="http://www.w3.org/2000/svg" xmlns:xlink="http://www.w3.org/1999/xlink">
<g id="graph0" class="graph" transform="scale(1 1) rotate(0) translate(4 290)">
<title>LSODA::stoda</title>
<!-- Node218 -->
<g id="node1" class="node">
<title>Node218</title>
<polygon fill="#bfbfbf" stroke="#000000" points="0,-133.5 0,-152.5 80,-152.5 80,-133.5 0,-133.5"/>
<text text-anchor="middle" x="40" y="-140.5" font-family="Helvetica,sans-Serif" font-size="10.00" fill="#000000">LSODA::stoda</text>
</g>
<!-- Node219 -->
<g id="node2" class="node">
<title>Node219</title>
<g id="a_node2"><a xlink:href="classLSODA.html#a0f3b8f1c3f9e12fb89ddebfc02930b56" target="_top" xlink:title="LSODA::cfode">
<polygon fill="none" stroke="#000000" points="134.5,-266.5 134.5,-285.5 214.5,-285.5 214.5,-266.5 134.5,-266.5"/>
<text text-anchor="middle" x="174.5" y="-273.5" font-family="Helvetica,sans-Serif" font-size="10.00" fill="#000000">LSODA::cfode</text>
</a>
</g>
</g>
<!-- Node218&#45;&gt;Node219 -->
<g id="edge1" class="edge">
<title>Node218&#45;&gt;Node219</title>
<path fill="none" stroke="#191970" d="M43.7398,-152.5266C52.774,-174.3154 77.8926,-228.1257 116,-257 118.8087,-259.1282 121.8654,-261.0234 125.0594,-262.7104"/>
<polygon fill="#191970" stroke="#191970" points="123.7814,-265.9742 134.3327,-266.9337 126.6827,-259.6037 123.7814,-265.9742"/>
</g>
<!-- Node220 -->
<g id="node3" class="node">
<title>Node220</title>
<g id="a_node3"><a xlink:href="classLSODA.html#a391bc37600b2df97c24cafc6352dc4ce" target="_top" xlink:title="LSODA::resetcoeff">
<polygon fill="none" stroke="#000000" points="124.5,-228.5 124.5,-247.5 224.5,-247.5 224.5,-228.5 124.5,-228.5"/>
<text text-anchor="middle" x="174.5" y="-235.5" font-family="Helvetica,sans-Serif" font-size="10.00" fill="#000000">LSODA::resetcoeff</text>
</a>
</g>
</g>
<!-- Node218&#45;&gt;Node220 -->
<g id="edge2" class="edge">
<title>Node218&#45;&gt;Node220</title>
<path fill="none" stroke="#191970" d="M47.1029,-152.6142C59.4089,-168.6204 86.2471,-200.7699 116,-219 119.386,-221.0747 123.0227,-222.9475 126.7659,-224.6334"/>
<polygon fill="#191970" stroke="#191970" points="125.6244,-227.947 136.2074,-228.4474 128.2463,-221.4566 125.6244,-227.947"/>
</g>
<!-- Node221 -->
<g id="node4" class="node">
<title>Node221</title>
<g id="a_node4"><a xlink:href="classLSODA.html#acd395b8e8db2b012842c1ffd57244fd3" target="_top" xlink:title="LSODA::scaleh">
<polygon fill="none" stroke="#000000" points="132,-190.5 132,-209.5 217,-209.5 217,-190.5 132,-190.5"/>
<text text-anchor="middle" x="174.5" y="-197.5" font-family="Helvetica,sans-Serif" font-size="10.00" fill="#000000">LSODA::scaleh</text>
</a>
</g>
</g>
<!-- Node218&#45;&gt;Node221 -->
<g id="edge3" class="edge">
<title>Node218&#45;&gt;Node221</title>
<path fill="none" stroke="#191970" d="M61.5709,-152.5051C76.7568,-159.1627 97.5797,-168.2233 116,-176 124.214,-179.4678 133.1043,-183.1509 141.415,-186.5636"/>
<polygon fill="#191970" stroke="#191970" points="140.2489,-189.8682 150.8296,-190.4166 142.9003,-183.3897 140.2489,-189.8682"/>
</g>
<!-- Node222 -->
<g id="node5" class="node">
<title>Node222</title>
<g id="a_node5"><a xlink:href="classLSODA.html#ac94b738016b2a7c57cedd5ea4f13311f" target="_top" xlink:title="LSODA::vmnorm">
<polygon fill="none" stroke="#000000" points="401,-114.5 401,-133.5 493,-133.5 493,-114.5 401,-114.5"/>
<text text-anchor="middle" x="447" y="-121.5" font-family="Helvetica,sans-Serif" font-size="10.00" fill="#000000">LSODA::vmnorm</text>
</a>
</g>
</g>
<!-- Node218&#45;&gt;Node222 -->
<g id="edge4" class="edge">
<title>Node218&#45;&gt;Node222</title>
<path fill="none" stroke="#191970" d="M80.1616,-144.6475C141.6769,-146.6604 262.8463,-148.6089 365,-138 373.363,-137.1315 382.1632,-135.9339 390.7691,-134.6019"/>
<polygon fill="#191970" stroke="#191970" points="391.432,-138.0403 400.7447,-132.9882 390.3141,-131.1301 391.432,-138.0403"/>
</g>
<!-- Node223 -->
<g id="node6" class="node">
<title>Node223</title>
<g id="a_node6"><a xlink:href="classLSODA.html#ae5ebdebff330f29ef0c15bece1bf8299" target="_top" xlink:title="LSODA::correction">
<polygon fill="none" stroke="#000000" points="125,-114.5 125,-133.5 224,-133.5 224,-114.5 125,-114.5"/>
<text text-anchor="middle" x="174.5" y="-121.5" font-family="Helvetica,sans-Serif" font-size="10.00" fill="#000000">LSODA::correction</text>
</a>
</g>
</g>
<!-- Node218&#45;&gt;Node223 -->
<g id="edge5" class="edge">
<title>Node218&#45;&gt;Node223</title>
<path fill="none" stroke="#191970" d="M80.3544,-137.2994C91.127,-135.7776 103.0019,-134.1001 114.5832,-132.4641"/>
<polygon fill="#191970" stroke="#191970" points="115.238,-135.9064 124.6501,-131.042 114.2588,-128.9752 115.238,-135.9064"/>
</g>
<!-- Node229 -->
<g id="node12" class="node">
<title>Node229</title>
<g id="a_node12"><a xlink:href="classLSODA.html#aa81043ac776e6d6b81ae2382b03dea2a" target="_top" xlink:title="LSODA::methodswitch">
<polygon fill="none" stroke="#000000" points="116,-76.5 116,-95.5 233,-95.5 233,-76.5 116,-76.5"/>
<text text-anchor="middle" x="174.5" y="-83.5" font-family="Helvetica,sans-Serif" font-size="10.00" fill="#000000">LSODA::methodswitch</text>
</a>
</g>
</g>
<!-- Node218&#45;&gt;Node229 -->
<g id="edge13" class="edge">
<title>Node218&#45;&gt;Node229</title>
<path fill="none" stroke="#191970" d="M57.1646,-133.4901C72.3486,-125.3035 95.2511,-113.5009 116,-105 121.3807,-102.7955 127.1192,-100.6692 132.8198,-98.6876"/>
<polygon fill="#191970" stroke="#191970" points="133.9426,-102.0027 142.3078,-95.5009 131.7138,-95.3669 133.9426,-102.0027"/>
</g>
<!-- Node230 -->
<g id="node13" class="node">
<title>Node230</title>
<g id="a_node13"><a xlink:href="classLSODA.html#a1d1e589364f1c4100eba1837021fc4d9" target="_top" xlink:title="LSODA::endstoda">
<polygon fill="none" stroke="#000000" points="126.5,-38.5 126.5,-57.5 222.5,-57.5 222.5,-38.5 126.5,-38.5"/>
<text text-anchor="middle" x="174.5" y="-45.5" font-family="Helvetica,sans-Serif" font-size="10.00" fill="#000000">LSODA::endstoda</text>
</a>
</g>
</g>
<!-- Node218&#45;&gt;Node230 -->
<g id="edge14" class="edge">
<title>Node218&#45;&gt;Node230</title>
<path fill="none" stroke="#191970" d="M47.1029,-133.3858C59.4089,-117.3796 86.2471,-85.2301 116,-67 119.386,-64.9253 123.0227,-63.0525 126.7659,-61.3666"/>
<polygon fill="#191970" stroke="#191970" points="128.2463,-64.5434 136.2074,-57.5526 125.6244,-58.053 128.2463,-64.5434"/>
</g>
<!-- Node231 -->
<g id="node14" class="node">
<title>Node231</title>
<g id="a_node14"><a xlink:href="classLSODA.html#a0fae42ed968227524b320ab5d3470665" target="_top" xlink:title="LSODA::orderswitch">
<polygon fill="none" stroke="#000000" points="121,-.5 121,-19.5 228,-19.5 228,-.5 121,-.5"/>
<text text-anchor="middle" x="174.5" y="-7.5" font-family="Helvetica,sans-Serif" font-size="10.00" fill="#000000">LSODA::orderswitch</text>
</a>
</g>
</g>
<!-- Node218&#45;&gt;Node231 -->
<g id="edge15" class="edge">
<title>Node218&#45;&gt;Node231</title>
<path fill="none" stroke="#191970" d="M43.7398,-133.4734C52.774,-111.6846 77.8926,-57.8743 116,-29 118.4736,-27.1258 121.1395,-25.4322 123.9221,-23.9024"/>
<polygon fill="#191970" stroke="#191970" points="125.5719,-26.9939 133.1146,-19.5536 122.5783,-20.6663 125.5719,-26.9939"/>
</g>
<!-- Node223&#45;&gt;Node222 -->
<g id="edge11" class="edge">
<title>Node223&#45;&gt;Node222</title>
<path fill="none" stroke="#191970" d="M224.1638,-124C271.1722,-124 341.6601,-124 390.727,-124"/>
<polygon fill="#191970" stroke="#191970" points="390.856,-127.5001 400.856,-124 390.856,-120.5001 390.856,-127.5001"/>
</g>
<!-- Node224 -->
<g id="node7" class="node">
<title>Node224</title>
<g id="a_node7"><a xlink:href="classLSODA.html#a87757b30f48356ff9c77bf587ebb16d8" target="_top" xlink:title="LSODA::prja">
<polygon fill="none" stroke="#000000" points="281,-76.5 281,-95.5 353,-95.5 353,-76.5 281,-76.5"/>
<text text-anchor="middle" x="317" y="-83.5" font-family="Helvetica,sans-Serif" font-size="10.00" fill="#000000">LSODA::prja</text>
</a>
</g>
</g>
<!-- Node223&#45;&gt;Node224 -->
<g id="edge6" class="edge">
<title>Node223&#45;&gt;Node224</title>
<path fill="none" stroke="#191970" d="M210.4588,-114.411C228.9385,-109.4831 251.6558,-103.4251 271.3591,-98.1709"/>
<polygon fill="#191970" stroke="#191970" points="272.2922,-101.5445 281.0527,-95.5859 270.4885,-94.7808 272.2922,-101.5445"/>
</g>
<!-- Node227 -->
<g id="node10" class="node">
<title>Node227</title>
<g id="a_node10"><a xlink:href="classLSODA.html#ac7effc5da52973a91cb3409012f172e7" target="_top" xlink:title="LSODA::corfailure">
<polygon fill="none" stroke="#000000" points="269,-38.5 269,-57.5 365,-57.5 365,-38.5 269,-38.5"/>
<text text-anchor="middle" x="317" y="-45.5" font-family="Helvetica,sans-Serif" font-size="10.00" fill="#000000">LSODA::corfailure</text>
</a>
</g>
</g>
<!-- Node223&#45;&gt;Node227 -->
<g id="edge10" class="edge">
<title>Node223&#45;&gt;Node227</title>
<path fill="none" stroke="#191970" d="M213.1843,-114.4694C220.0605,-111.9419 226.9505,-108.82 233,-105 252.6709,-92.5787 249.7292,-80.0335 269,-67 271.7468,-65.1422 274.7024,-63.4246 277.7489,-61.8453"/>
<polygon fill="#191970" stroke="#191970" points="279.4531,-64.9127 287.0436,-57.5212 276.5004,-58.566 279.4531,-64.9127"/>
</g>
<!-- Node228 -->
<g id="node11" class="node">
<title>Node228</title>
<g id="a_node11"><a xlink:href="classLSODA.html#a5476113f8738e733652f1f6b02eaba3b" target="_top" xlink:title="LSODA::solsy">
<polygon fill="none" stroke="#000000" points="277,-.5 277,-19.5 357,-19.5 357,-.5 277,-.5"/>
<text text-anchor="middle" x="317" y="-7.5" font-family="Helvetica,sans-Serif" font-size="10.00" fill="#000000">LSODA::solsy</text>
</a>
</g>
</g>
<!-- Node223&#45;&gt;Node228 -->
<g id="edge12" class="edge">
<title>Node223&#45;&gt;Node228</title>
<path fill="none" stroke="#191970" d="M217.9023,-114.4264C223.3736,-111.9668 228.5893,-108.8781 233,-105 261.0689,-80.3205 241.7207,-54.5495 269,-29 270.6476,-27.4569 272.4357,-26.0335 274.3206,-24.7211"/>
<polygon fill="#191970" stroke="#191970" points="276.1716,-27.6938 283.0698,-19.6523 272.6625,-21.6368 276.1716,-27.6938"/>
</g>
<!-- Node224&#45;&gt;Node222 -->
<g id="edge7" class="edge">
<title>Node224&#45;&gt;Node222</title>
<path fill="none" stroke="#191970" d="M349.8045,-95.589C366.2783,-100.4044 386.4434,-106.2988 404.1273,-111.468"/>
<polygon fill="#191970" stroke="#191970" points="403.6256,-114.9677 414.206,-114.4141 405.5897,-108.2489 403.6256,-114.9677"/>
</g>
<!-- Node225 -->
<g id="node8" class="node">
<title>Node225</title>
<g id="a_node8"><a xlink:href="classLSODA.html#ab6221280caead6f45c316c261e8de713" target="_top" xlink:title="LSODA::fnorm">
<polygon fill="none" stroke="#000000" points="406.5,-76.5 406.5,-95.5 487.5,-95.5 487.5,-76.5 406.5,-76.5"/>
<text text-anchor="middle" x="447" y="-83.5" font-family="Helvetica,sans-Serif" font-size="10.00" fill="#000000">LSODA::fnorm</text>
</a>
</g>
</g>
<!-- Node224&#45;&gt;Node225 -->
<g id="edge8" class="edge">
<title>Node224&#45;&gt;Node225</title>
<path fill="none" stroke="#191970" d="M353.2122,-86C366.5124,-86 381.8277,-86 396.1746,-86"/>
<polygon fill="#191970" stroke="#191970" points="396.4075,-89.5001 406.4075,-86 396.4075,-82.5001 396.4075,-89.5001"/>
</g>
<!-- Node226 -->
<g id="node9" class="node">
<title>Node226</title>
<g id="a_node9"><a xlink:href="classLSODA.html#a9aade25a1818e2af775a17a1ed2ba4f9" target="_top" xlink:title="LSODA::dgefa">
<polygon fill="none" stroke="#000000" points="407,-38.5 407,-57.5 487,-57.5 487,-38.5 407,-38.5"/>
<text text-anchor="middle" x="447" y="-45.5" font-family="Helvetica,sans-Serif" font-size="10.00" fill="#000000">LSODA::dgefa</text>
</a>
</g>
</g>
<!-- Node224&#45;&gt;Node226 -->
<g id="edge9" class="edge">
<title>Node224&#45;&gt;Node226</title>
<path fill="none" stroke="#191970" d="M349.8045,-76.411C366.2783,-71.5956 386.4434,-65.7012 404.1273,-60.532"/>
<polygon fill="#191970" stroke="#191970" points="405.5897,-63.7511 414.206,-57.5859 403.6256,-57.0323 405.5897,-63.7511"/>
</g>
</g>
</svg>
