<?xml version="1.0" encoding="UTF-8" standalone="no"?>
<!DOCTYPE svg PUBLIC "-//W3C//DTD SVG 1.1//EN"
 "http://www.w3.org/Graphics/SVG/1.1/DTD/svg11.dtd">
<!-- Generated by graphviz version 2.40.1 (20161225.0304)
 -->
<!-- Title: Solver::initialize Pages: 1 -->
<svg width="275pt" height="280pt"
 viewBox="0.00 0.00 275.00 279.50" xmlns="http://www.w3.org/2000/svg" xmlns:xlink="http://www.w3.org/1999/xlink">
<g id="graph0" class="graph" transform="scale(1 1) rotate(0) translate(4 275.5)">
<title>Solver::initialize</title>
<!-- Node94 -->
<g id="node1" class="node">
<title>Node94</title>
<polygon fill="#bfbfbf" stroke="#000000" points="0,-132 0,-151 86,-151 86,-132 0,-132"/>
<text text-anchor="middle" x="43" y="-139" font-family="Helvetica,sans-Serif" font-size="10.00" fill="#000000">Solver::initialize</text>
</g>
<!-- Node95 -->
<g id="node2" class="node">
<title>Node95</title>
<g id="a_node2"><a xlink:href="classSpecies__Base.html#a25a20f843be73c25744dd0e860c11c6f" target="_top" xlink:title="Species_Base::set_xb">
<polygon fill="none" stroke="#000000" points="137,-252 137,-271 252,-271 252,-252 137,-252"/>
<text text-anchor="middle" x="194.5" y="-259" font-family="Helvetica,sans-Serif" font-size="10.00" fill="#000000">Species_Base::set_xb</text>
</a>
</g>
</g>
<!-- Node94&#45;&gt;Node95 -->
<g id="edge1" class="edge">
<title>Node94&#45;&gt;Node95</title>
<path fill="none" stroke="#191970" d="M47.8153,-151.2819C58.3277,-171.5839 85.3567,-218.4054 122,-242.5 125.1189,-244.5508 128.4493,-246.3806 131.9045,-248.0132"/>
<polygon fill="#191970" stroke="#191970" points="130.7041,-251.3042 141.2827,-251.8902 133.3785,-244.8352 130.7041,-251.3042"/>
</g>
<!-- Node96 -->
<g id="node3" class="node">
<title>Node96</title>
<g id="a_node3"><a xlink:href="classSpecies__Base.html#a6f5bcd038896a23f44cd453d004d34d0" target="_top" xlink:title="Species_Base::set_ub">
<polygon fill="none" stroke="#000000" points="137,-214 137,-233 252,-233 252,-214 137,-214"/>
<text text-anchor="middle" x="194.5" y="-221" font-family="Helvetica,sans-Serif" font-size="10.00" fill="#000000">Species_Base::set_ub</text>
</a>
</g>
</g>
<!-- Node94&#45;&gt;Node96 -->
<g id="edge2" class="edge">
<title>Node94&#45;&gt;Node96</title>
<path fill="none" stroke="#191970" d="M52.2905,-151.1187C66.1837,-164.9507 93.7728,-190.3475 122,-204.5 126.6781,-206.8455 131.6758,-208.923 136.7771,-210.7588"/>
<polygon fill="#191970" stroke="#191970" points="136.0655,-214.2087 146.6583,-213.9981 138.2462,-207.5571 136.0655,-214.2087"/>
</g>
<!-- Node97 -->
<g id="node4" class="node">
<title>Node97</title>
<g id="a_node4"><a xlink:href="classSpecies__Base.html#ab2156ad0734e670ffecbefc0001e3f2d" target="_top" xlink:title="Species_Base::set_birthTime">
<polygon fill="none" stroke="#000000" points="122,-176 122,-195 267,-195 267,-176 122,-176"/>
<text text-anchor="middle" x="194.5" y="-183" font-family="Helvetica,sans-Serif" font-size="10.00" fill="#000000">Species_Base::set_birthTime</text>
</a>
</g>
</g>
<!-- Node94&#45;&gt;Node97 -->
<g id="edge3" class="edge">
<title>Node94&#45;&gt;Node97</title>
<path fill="none" stroke="#191970" d="M72.1571,-151.1115C87.0213,-155.9134 105.4162,-161.7062 122,-166.5 130.086,-168.8374 138.7147,-171.2067 147.0955,-173.4425"/>
<polygon fill="#191970" stroke="#191970" points="146.2106,-176.8287 156.7727,-175.9959 147.9966,-170.0604 146.2106,-176.8287"/>
</g>
<!-- Node98 -->
<g id="node5" class="node">
<title>Node98</title>
<g id="a_node5"><a xlink:href="classSpecies__Base.html#af3f776b8c56e133a0b260e2281a27178" target="_top" xlink:title="Species_Base::init\l_density">
<polygon fill="none" stroke="#000000" points="145.5,-126.5 145.5,-156.5 243.5,-156.5 243.5,-126.5 145.5,-126.5"/>
<text text-anchor="start" x="153.5" y="-144.5" font-family="Helvetica,sans-Serif" font-size="10.00" fill="#000000">Species_Base::init</text>
<text text-anchor="middle" x="194.5" y="-133.5" font-family="Helvetica,sans-Serif" font-size="10.00" fill="#000000">_density</text>
</a>
</g>
</g>
<!-- Node94&#45;&gt;Node98 -->
<g id="edge4" class="edge">
<title>Node94&#45;&gt;Node98</title>
<path fill="none" stroke="#191970" d="M86.0086,-141.5C101.2944,-141.5 118.7829,-141.5 135.1902,-141.5"/>
<polygon fill="#191970" stroke="#191970" points="135.2371,-145.0001 145.2371,-141.5 135.237,-138.0001 135.2371,-145.0001"/>
</g>
<!-- Node99 -->
<g id="node6" class="node">
<title>Node99</title>
<g id="a_node6"><a xlink:href="classSpecies__Base.html#a86a04ae53b3f25c4e90b01a8eaed3bfd" target="_top" xlink:title="Species_Base::setX">
<polygon fill="none" stroke="#000000" points="141.5,-88 141.5,-107 247.5,-107 247.5,-88 141.5,-88"/>
<text text-anchor="middle" x="194.5" y="-95" font-family="Helvetica,sans-Serif" font-size="10.00" fill="#000000">Species_Base::setX</text>
</a>
</g>
</g>
<!-- Node94&#45;&gt;Node99 -->
<g id="edge5" class="edge">
<title>Node94&#45;&gt;Node99</title>
<path fill="none" stroke="#191970" d="M73.7093,-131.9697C88.3116,-127.4895 106.0293,-122.1279 122,-117.5 130.8414,-114.938 140.3116,-112.2702 149.3936,-109.7494"/>
<polygon fill="#191970" stroke="#191970" points="150.3404,-113.119 159.0481,-107.0835 148.4772,-106.3715 150.3404,-113.119"/>
</g>
<!-- Node100 -->
<g id="node7" class="node">
<title>Node100</title>
<g id="a_node7"><a xlink:href="classSpecies__Base.html#ad9ddab41ba3c6e242f1b3a8a50ed7a36" target="_top" xlink:title="Species_Base::setU">
<polygon fill="none" stroke="#000000" points="141,-50 141,-69 248,-69 248,-50 141,-50"/>
<text text-anchor="middle" x="194.5" y="-57" font-family="Helvetica,sans-Serif" font-size="10.00" fill="#000000">Species_Base::setU</text>
</a>
</g>
</g>
<!-- Node94&#45;&gt;Node100 -->
<g id="edge6" class="edge">
<title>Node94&#45;&gt;Node100</title>
<path fill="none" stroke="#191970" d="M52.2905,-131.8813C66.1837,-118.0493 93.7728,-92.6525 122,-78.5 126.6781,-76.1545 131.6758,-74.077 136.7771,-72.2412"/>
<polygon fill="#191970" stroke="#191970" points="138.2462,-75.4429 146.6583,-69.0019 136.0655,-68.7913 138.2462,-75.4429"/>
</g>
<!-- Node101 -->
<g id="node8" class="node">
<title>Node101</title>
<g id="a_node8"><a xlink:href="classSpecies__Base.html#adf095940796f9d83366de5f1acb60047" target="_top" xlink:title="Species_Base::initAndCopy\lExtraState">
<polygon fill="none" stroke="#000000" points="125,-.5 125,-30.5 264,-30.5 264,-.5 125,-.5"/>
<text text-anchor="start" x="133" y="-18.5" font-family="Helvetica,sans-Serif" font-size="10.00" fill="#000000">Species_Base::initAndCopy</text>
<text text-anchor="middle" x="194.5" y="-7.5" font-family="Helvetica,sans-Serif" font-size="10.00" fill="#000000">ExtraState</text>
</a>
</g>
</g>
<!-- Node94&#45;&gt;Node101 -->
<g id="edge7" class="edge">
<title>Node94&#45;&gt;Node101</title>
<path fill="none" stroke="#191970" d="M47.9649,-131.9365C58.7603,-112.0478 86.2954,-65.9649 122,-40.5 124.7099,-38.5673 127.582,-36.7736 130.5586,-35.1103"/>
<polygon fill="#191970" stroke="#191970" points="132.3756,-38.1146 139.745,-30.5026 129.2371,-31.8575 132.3756,-38.1146"/>
</g>
</g>
</svg>
