<?xml version="1.0" encoding="UTF-8" standalone="no"?>
<!DOCTYPE svg PUBLIC "-//W3C//DTD SVG 1.1//EN"
 "http://www.w3.org/Graphics/SVG/1.1/DTD/svg11.dtd">
<!-- Generated by graphviz version 2.40.1 (20161225.0304)
 -->
<!-- Title: RKCK45::Step Pages: 1 -->
<svg width="506pt" height="85pt"
 viewBox="0.00 0.00 506.00 85.00" xmlns="http://www.w3.org/2000/svg" xmlns:xlink="http://www.w3.org/1999/xlink">
<g id="graph0" class="graph" transform="scale(1 1) rotate(0) translate(4 81)">
<title>RKCK45::Step</title>
<!-- Node80 -->
<g id="node1" class="node">
<title>Node80</title>
<polygon fill="#bfbfbf" stroke="#000000" points="0,-19.5 0,-38.5 82,-38.5 82,-19.5 0,-19.5"/>
<text text-anchor="middle" x="41" y="-26.5" font-family="Helvetica,sans-Serif" font-size="10.00" fill="#000000">RKCK45::Step</text>
</g>
<!-- Node81 -->
<g id="node2" class="node">
<title>Node81</title>
<g id="a_node2"><a xlink:href="classRKCK45.html#ab304a56995de997c15d992f5665b94e5" target="_top" xlink:title="RKCK45::RKTry">
<polygon fill="none" stroke="#000000" points="120.5,-38.5 120.5,-57.5 210.5,-57.5 210.5,-38.5 120.5,-38.5"/>
<text text-anchor="middle" x="165.5" y="-45.5" font-family="Helvetica,sans-Serif" font-size="10.00" fill="#000000">RKCK45::RKTry</text>
</a>
</g>
</g>
<!-- Node80&#45;&gt;Node81 -->
<g id="edge1" class="edge">
<title>Node80&#45;&gt;Node81</title>
<path fill="none" stroke="#191970" d="M92.0371,-36.7888C101.3479,-38.2097 111.0048,-39.6835 120.1371,-41.0772"/>
<polygon fill="#191970" stroke="#191970" points="92.5246,-33.3227 82.111,-35.274 91.4685,-40.2426 92.5246,-33.3227"/>
</g>
<!-- Node85 -->
<g id="node6" class="node">
<title>Node85</title>
<g id="a_node6"><a xlink:href="classRKCK45.html#a420aa8b927cb87637344f3b4044b05e5" target="_top" xlink:title="RKCK45::Step_to">
<polygon fill="none" stroke="#000000" points="118,-.5 118,-19.5 213,-19.5 213,-.5 118,-.5"/>
<text text-anchor="middle" x="165.5" y="-7.5" font-family="Helvetica,sans-Serif" font-size="10.00" fill="#000000">RKCK45::Step_to</text>
</a>
</g>
</g>
<!-- Node80&#45;&gt;Node85 -->
<g id="edge8" class="edge">
<title>Node80&#45;&gt;Node85</title>
<path fill="none" stroke="#191970" d="M92.0095,-21.2154C100.5917,-19.9057 109.4688,-18.5509 117.9587,-17.2553"/>
<polygon fill="#191970" stroke="#191970" points="91.4685,-17.7574 82.111,-22.726 92.5246,-24.6773 91.4685,-17.7574"/>
</g>
<!-- Node82 -->
<g id="node3" class="node">
<title>Node82</title>
<g id="a_node3"><a xlink:href="classRKCK45.html#a8779263975ee2b9cc3c37bd024e8b658" target="_top" xlink:title="RKCK45::size">
<polygon fill="none" stroke="#000000" points="399.5,-57.5 399.5,-76.5 479.5,-76.5 479.5,-57.5 399.5,-57.5"/>
<text text-anchor="middle" x="439.5" y="-64.5" font-family="Helvetica,sans-Serif" font-size="10.00" fill="#000000">RKCK45::size</text>
</a>
</g>
</g>
<!-- Node81&#45;&gt;Node82 -->
<g id="edge2" class="edge">
<title>Node81&#45;&gt;Node82</title>
<path fill="none" stroke="#191970" d="M209.2237,-59.8839C221.9504,-62.8149 235.9433,-65.5333 249,-67 300.5999,-72.7966 360.559,-71.4833 399.2168,-69.6007"/>
<polygon fill="#191970" stroke="#191970" points="209.8715,-56.44 199.3306,-57.5075 208.2365,-63.2464 209.8715,-56.44"/>
</g>
<!-- Node83 -->
<g id="node4" class="node">
<title>Node83</title>
<g id="a_node4"><a xlink:href="classRKCK45.html#a5c883118b935daa56c54f9a39f247b7e" target="_top" xlink:title="RKCK45::get_fn_evals">
<polygon fill="none" stroke="#000000" points="381,-10.5 381,-29.5 498,-29.5 498,-10.5 381,-10.5"/>
<text text-anchor="middle" x="439.5" y="-17.5" font-family="Helvetica,sans-Serif" font-size="10.00" fill="#000000">RKCK45::get_fn_evals</text>
</a>
</g>
</g>
<!-- Node81&#45;&gt;Node83 -->
<g id="edge3" class="edge">
<title>Node81&#45;&gt;Node83</title>
<path fill="none" stroke="#191970" d="M211.0086,-36.1157C223.2642,-33.3356 236.5708,-30.6942 249,-29 292.9606,-23.0079 343.0945,-20.8229 380.8943,-20.1012"/>
<polygon fill="#191970" stroke="#191970" points="209.9381,-32.7718 201.0035,-38.4659 211.5389,-39.5863 209.9381,-32.7718"/>
</g>
<!-- Node84 -->
<g id="node5" class="node">
<title>Node84</title>
<g id="a_node5"><a xlink:href="classRKCK45.html#a9ce8515e634e6937f8587d280d18d18a" target="_top" xlink:title="RKCK45::RKStep">
<polygon fill="none" stroke="#000000" points="249,-38.5 249,-57.5 345,-57.5 345,-38.5 249,-38.5"/>
<text text-anchor="middle" x="297" y="-45.5" font-family="Helvetica,sans-Serif" font-size="10.00" fill="#000000">RKCK45::RKStep</text>
</a>
</g>
</g>
<!-- Node81&#45;&gt;Node84 -->
<g id="edge4" class="edge">
<title>Node81&#45;&gt;Node84</title>
<path fill="none" stroke="#191970" d="M220.7714,-41.3268C230.1422,-41.1884 239.8044,-41.2371 248.9702,-41.4728"/>
<polygon fill="#191970" stroke="#191970" points="220.6742,-37.828 210.7548,-41.5503 220.8305,-44.8262 220.6742,-37.828"/>
</g>
<!-- Node84&#45;&gt;Node81 -->
<g id="edge7" class="edge">
<title>Node84&#45;&gt;Node81</title>
<path fill="none" stroke="#191970" d="M238.8668,-54.7096C229.445,-54.81 219.8117,-54.7233 210.7548,-54.4497"/>
<polygon fill="#191970" stroke="#191970" points="239.035,-58.2072 248.9702,-54.5272 238.9086,-51.2084 239.035,-58.2072"/>
</g>
<!-- Node84&#45;&gt;Node82 -->
<g id="edge5" class="edge">
<title>Node84&#45;&gt;Node82</title>
<path fill="none" stroke="#191970" d="M355.3336,-55.7778C370.1324,-57.751 385.7003,-59.8267 399.3672,-61.649"/>
<polygon fill="#191970" stroke="#191970" points="355.6189,-52.285 345.244,-54.4325 354.6937,-59.2236 355.6189,-52.285"/>
</g>
<!-- Node84&#45;&gt;Node83 -->
<g id="edge6" class="edge">
<title>Node84&#45;&gt;Node83</title>
<path fill="none" stroke="#191970" d="M355.0674,-36.5903C366.9396,-34.2575 379.3179,-31.8253 390.8208,-29.565"/>
<polygon fill="#191970" stroke="#191970" points="354.3815,-33.158 345.244,-38.5205 355.7312,-40.0267 354.3815,-33.158"/>
</g>
</g>
</svg>
