<?xml version="1.0" encoding="UTF-8" standalone="no"?>
<!DOCTYPE svg PUBLIC "-//W3C//DTD SVG 1.1//EN"
 "http://www.w3.org/Graphics/SVG/1.1/DTD/svg11.dtd">
<!-- Generated by graphviz version 2.40.1 (20161225.0304)
 -->
<!-- Title: Spline::eval Pages: 1 -->
<svg width="228pt" height="116pt"
 viewBox="0.00 0.00 228.00 116.00" xmlns="http://www.w3.org/2000/svg" xmlns:xlink="http://www.w3.org/1999/xlink">
<g id="graph0" class="graph" transform="scale(1 1) rotate(0) translate(4 112)">
<title>Spline::eval</title>
<!-- Node7 -->
<g id="node1" class="node">
<title>Node7</title>
<polygon fill="#bfbfbf" stroke="#000000" points="0,-44.5 0,-63.5 68,-63.5 68,-44.5 0,-44.5"/>
<text text-anchor="middle" x="34" y="-51.5" font-family="Helvetica,sans-Serif" font-size="10.00" fill="#000000">Spline::eval</text>
</g>
<!-- Node8 -->
<g id="node2" class="node">
<title>Node8</title>
<g id="a_node2"><a xlink:href="classSpline.html#afe3049e4171a08ee6b7070b633d27c7a" target="_top" xlink:title="Spline::extrapolate_left">
<polygon fill="none" stroke="#000000" points="104,-88.5 104,-107.5 220,-107.5 220,-88.5 104,-88.5"/>
<text text-anchor="middle" x="162" y="-95.5" font-family="Helvetica,sans-Serif" font-size="10.00" fill="#000000">Spline::extrapolate_left</text>
</a>
</g>
</g>
<!-- Node7&#45;&gt;Node8 -->
<g id="edge1" class="edge">
<title>Node7&#45;&gt;Node8</title>
<path fill="none" stroke="#191970" d="M60.2025,-63.5433C73.324,-68.2751 89.4711,-74.0268 104,-79 110.0526,-81.0718 116.4762,-83.2231 122.7593,-85.3013"/>
<polygon fill="#191970" stroke="#191970" points="121.8506,-88.6868 132.4435,-88.4848 124.0367,-82.0368 121.8506,-88.6868"/>
</g>
<!-- Node9 -->
<g id="node3" class="node">
<title>Node9</title>
<g id="a_node3"><a xlink:href="classSpline.html#adcca0503450f150a788112f7685b9654" target="_top" xlink:title="Spline::extrapolate\l_right">
<polygon fill="none" stroke="#000000" points="113,-39 113,-69 211,-69 211,-39 113,-39"/>
<text text-anchor="start" x="121" y="-57" font-family="Helvetica,sans-Serif" font-size="10.00" fill="#000000">Spline::extrapolate</text>
<text text-anchor="middle" x="162" y="-46" font-family="Helvetica,sans-Serif" font-size="10.00" fill="#000000">_right</text>
</a>
</g>
</g>
<!-- Node7&#45;&gt;Node9 -->
<g id="edge2" class="edge">
<title>Node7&#45;&gt;Node9</title>
<path fill="none" stroke="#191970" d="M68.3017,-54C78.8403,-54 90.7595,-54 102.4774,-54"/>
<polygon fill="#191970" stroke="#191970" points="102.6835,-57.5001 112.6835,-54 102.6835,-50.5001 102.6835,-57.5001"/>
</g>
<!-- Node10 -->
<g id="node4" class="node">
<title>Node10</title>
<g id="a_node4"><a xlink:href="cubic__spline_8h.html#a7e40d975b9c8e0ee31c4639fd4f0e2d1" target="_top" xlink:title="my_lower_bound">
<polygon fill="none" stroke="#000000" points="117,-.5 117,-19.5 207,-19.5 207,-.5 117,-.5"/>
<text text-anchor="middle" x="162" y="-7.5" font-family="Helvetica,sans-Serif" font-size="10.00" fill="#000000">my_lower_bound</text>
</a>
</g>
</g>
<!-- Node7&#45;&gt;Node10 -->
<g id="edge3" class="edge">
<title>Node7&#45;&gt;Node10</title>
<path fill="none" stroke="#191970" d="M61.7741,-44.4527C80.2248,-38.1102 104.6649,-29.7089 124.7915,-22.7904"/>
<polygon fill="#191970" stroke="#191970" points="125.961,-26.0895 134.2801,-19.5287 123.6854,-19.4697 125.961,-26.0895"/>
</g>
</g>
</svg>
