<?xml version="1.0" encoding="UTF-8" standalone="no"?>
<!DOCTYPE svg PUBLIC "-//W3C//DTD SVG 1.1//EN"
 "http://www.w3.org/Graphics/SVG/1.1/DTD/svg11.dtd">
<!-- Generated by graphviz version 2.40.1 (20161225.0304)
 -->
<!-- Title: Solver::updateEnv Pages: 1 -->
<svg width="371pt" height="66pt"
 viewBox="0.00 0.00 371.00 66.00" xmlns="http://www.w3.org/2000/svg" xmlns:xlink="http://www.w3.org/1999/xlink">
<g id="graph0" class="graph" transform="scale(1 1) rotate(0) translate(4 62)">
<title>Solver::updateEnv</title>
<!-- Node299 -->
<g id="node1" class="node">
<title>Node299</title>
<polygon fill="#bfbfbf" stroke="#000000" points="0,-19.5 0,-38.5 97,-38.5 97,-19.5 0,-19.5"/>
<text text-anchor="middle" x="48.5" y="-26.5" font-family="Helvetica,sans-Serif" font-size="10.00" fill="#000000">Solver::updateEnv</text>
</g>
<!-- Node300 -->
<g id="node2" class="node">
<title>Node300</title>
<g id="a_node2"><a xlink:href="classSolver.html#ae9cbf50e5db34626f54298c75fc64188" target="_top" xlink:title="Solver::newborns_out">
<polygon fill="none" stroke="#000000" points="133,-38.5 133,-57.5 244,-57.5 244,-38.5 133,-38.5"/>
<text text-anchor="middle" x="188.5" y="-45.5" font-family="Helvetica,sans-Serif" font-size="10.00" fill="#000000">Solver::newborns_out</text>
</a>
</g>
</g>
<!-- Node299&#45;&gt;Node300 -->
<g id="edge1" class="edge">
<title>Node299&#45;&gt;Node300</title>
<path fill="none" stroke="#191970" d="M107.252,-36.9735C115.7175,-38.1224 124.4083,-39.3018 132.8116,-40.4423"/>
<polygon fill="#191970" stroke="#191970" points="107.4522,-33.4686 97.0723,-35.592 106.5107,-40.4051 107.4522,-33.4686"/>
</g>
<!-- Node302 -->
<g id="node4" class="node">
<title>Node302</title>
<g id="a_node4"><a xlink:href="classSolver.html#af4c8f6565df94ed6a058a224196b9c2b" target="_top" xlink:title="Solver::step_to">
<polygon fill="none" stroke="#000000" points="147,-.5 147,-19.5 230,-19.5 230,-.5 147,-.5"/>
<text text-anchor="middle" x="188.5" y="-7.5" font-family="Helvetica,sans-Serif" font-size="10.00" fill="#000000">Solver::step_to</text>
</a>
</g>
</g>
<!-- Node299&#45;&gt;Node302 -->
<g id="edge3" class="edge">
<title>Node299&#45;&gt;Node302</title>
<path fill="none" stroke="#191970" d="M107.1641,-21.0384C120.5498,-19.2218 134.5037,-17.3281 146.9971,-15.6325"/>
<polygon fill="#191970" stroke="#191970" points="106.5107,-17.5949 97.0723,-22.408 107.4522,-24.5314 106.5107,-17.5949"/>
</g>
<!-- Node301 -->
<g id="node3" class="node">
<title>Node301</title>
<g id="a_node3"><a xlink:href="classSolver.html#a40c9ebb8d585e07d8f65c4ac5ada6420" target="_top" xlink:title="Solver::u0_out">
<polygon fill="none" stroke="#000000" points="281.5,-38.5 281.5,-57.5 361.5,-57.5 361.5,-38.5 281.5,-38.5"/>
<text text-anchor="middle" x="321.5" y="-45.5" font-family="Helvetica,sans-Serif" font-size="10.00" fill="#000000">Solver::u0_out</text>
</a>
</g>
</g>
<!-- Node300&#45;&gt;Node301 -->
<g id="edge2" class="edge">
<title>Node300&#45;&gt;Node301</title>
<path fill="none" stroke="#191970" d="M254.1941,-48C263.5052,-48 272.8374,-48 281.4604,-48"/>
<polygon fill="#191970" stroke="#191970" points="254.1334,-44.5001 244.1333,-48 254.1333,-51.5001 254.1334,-44.5001"/>
</g>
<!-- Node303 -->
<g id="node5" class="node">
<title>Node303</title>
<g id="a_node5"><a xlink:href="classSolver.html#a06cf82d0a99490279ab20d2ad6b876db" target="_top" xlink:title="Solver::step_to">
<polygon fill="none" stroke="#000000" points="280,-.5 280,-19.5 363,-19.5 363,-.5 280,-.5"/>
<text text-anchor="middle" x="321.5" y="-7.5" font-family="Helvetica,sans-Serif" font-size="10.00" fill="#000000">Solver::step_to</text>
</a>
</g>
</g>
<!-- Node302&#45;&gt;Node303 -->
<g id="edge4" class="edge">
<title>Node302&#45;&gt;Node303</title>
<path fill="none" stroke="#191970" d="M240.4956,-10C253.5737,-10 267.4385,-10 279.9309,-10"/>
<polygon fill="#191970" stroke="#191970" points="240.2172,-6.5001 230.2171,-10 240.2171,-13.5001 240.2172,-6.5001"/>
</g>
</g>
</svg>
