<?xml version="1.0" encoding="UTF-8" standalone="no"?>
<!DOCTYPE svg PUBLIC "-//W3C//DTD SVG 1.1//EN"
 "http://www.w3.org/Graphics/SVG/1.1/DTD/svg11.dtd">
<!-- Generated by graphviz version 2.40.1 (20161225.0304)
 -->
<!-- Title: Species_Base::getX Pages: 1 -->
<svg width="732pt" height="154pt"
 viewBox="0.00 0.00 732.00 154.00" xmlns="http://www.w3.org/2000/svg" xmlns:xlink="http://www.w3.org/1999/xlink">
<g id="graph0" class="graph" transform="scale(1 1) rotate(0) translate(4 150)">
<title>Species_Base::getX</title>
<!-- Node59 -->
<g id="node1" class="node">
<title>Node59</title>
<polygon fill="#bfbfbf" stroke="#000000" points="0,-60.5 0,-79.5 106,-79.5 106,-60.5 0,-60.5"/>
<text text-anchor="middle" x="53" y="-67.5" font-family="Helvetica,sans-Serif" font-size="10.00" fill="#000000">Species_Base::getX</text>
</g>
<!-- Node60 -->
<g id="node2" class="node">
<title>Node60</title>
<g id="a_node2"><a xlink:href="classSolver.html#a23be16428b7ba399bfd2f06555547f6b" target="_top" xlink:title="Solver::calcRates_EBT">
<polygon fill="none" stroke="#000000" points="152.5,-126.5 152.5,-145.5 271.5,-145.5 271.5,-126.5 152.5,-126.5"/>
<text text-anchor="middle" x="212" y="-133.5" font-family="Helvetica,sans-Serif" font-size="10.00" fill="#000000">Solver::calcRates_EBT</text>
</a>
</g>
</g>
<!-- Node59&#45;&gt;Node60 -->
<g id="edge1" class="edge">
<title>Node59&#45;&gt;Node60</title>
<path fill="none" stroke="#191970" d="M77.5356,-84.8494C95.0305,-94.9615 119.368,-108.0796 142,-117 151.1379,-120.6017 161.2059,-123.7725 170.7887,-126.4406"/>
<polygon fill="#191970" stroke="#191970" points="78.9699,-81.6328 68.5746,-79.5866 75.425,-87.6689 78.9699,-81.6328"/>
</g>
<!-- Node63 -->
<g id="node5" class="node">
<title>Node63</title>
<g id="a_node5"><a xlink:href="classSolver.html#a9172d0d2dc6399ada494ef23020943d5" target="_top" xlink:title="Solver::integrate_wudx\l_above">
<polygon fill="none" stroke="#000000" points="154,-77 154,-107 270,-107 270,-77 154,-77"/>
<text text-anchor="start" x="162" y="-95" font-family="Helvetica,sans-Serif" font-size="10.00" fill="#000000">Solver::integrate_wudx</text>
<text text-anchor="middle" x="212" y="-84" font-family="Helvetica,sans-Serif" font-size="10.00" fill="#000000">_above</text>
</a>
</g>
</g>
<!-- Node59&#45;&gt;Node63 -->
<g id="edge4" class="edge">
<title>Node59&#45;&gt;Node63</title>
<path fill="none" stroke="#191970" d="M116.5722,-78.7962C128.8788,-80.4989 141.7162,-82.2752 153.8388,-83.9525"/>
<polygon fill="#191970" stroke="#191970" points="116.7724,-75.2906 106.387,-77.3869 115.8129,-82.2245 116.7724,-75.2906"/>
</g>
<!-- Node64 -->
<g id="node6" class="node">
<title>Node64</title>
<g id="a_node6"><a xlink:href="classSolver.html#a2a6ca7647a4cde1195789132f3873c0b" target="_top" xlink:title="Solver::integrate_x">
<polygon fill="none" stroke="#000000" points="163,-38.5 163,-57.5 261,-57.5 261,-38.5 163,-38.5"/>
<text text-anchor="middle" x="212" y="-45.5" font-family="Helvetica,sans-Serif" font-size="10.00" fill="#000000">Solver::integrate_x</text>
</a>
</g>
</g>
<!-- Node59&#45;&gt;Node64 -->
<g id="edge5" class="edge">
<title>Node59&#45;&gt;Node64</title>
<path fill="none" stroke="#191970" d="M116.3844,-61.2298C131.8226,-59.0937 148.1072,-56.8405 162.7752,-54.811"/>
<polygon fill="#191970" stroke="#191970" points="115.8129,-57.7755 106.387,-62.6131 116.7724,-64.7094 115.8129,-57.7755"/>
</g>
<!-- Node68 -->
<g id="node10" class="node">
<title>Node68</title>
<g id="a_node10"><a xlink:href="classSolver.html#ac108d0e9de32ef14e68a176ff9969c38" target="_top" xlink:title="Solver::copyCohortsToState">
<polygon fill="none" stroke="#000000" points="142,-.5 142,-19.5 282,-19.5 282,-.5 142,-.5"/>
<text text-anchor="middle" x="212" y="-7.5" font-family="Helvetica,sans-Serif" font-size="10.00" fill="#000000">Solver::copyCohortsToState</text>
</a>
</g>
</g>
<!-- Node59&#45;&gt;Node68 -->
<g id="edge9" class="edge">
<title>Node59&#45;&gt;Node68</title>
<path fill="none" stroke="#191970" d="M80.3739,-55.947C97.7268,-47.4025 120.818,-36.6929 142,-29 151.7056,-25.4751 162.3755,-22.259 172.3963,-19.5154"/>
<polygon fill="#191970" stroke="#191970" points="78.7579,-52.8418 71.3724,-60.4382 81.8831,-59.1054 78.7579,-52.8418"/>
</g>
<!-- Node61 -->
<g id="node3" class="node">
<title>Node61</title>
<g id="a_node3"><a xlink:href="classSolver.html#af4c8f6565df94ed6a058a224196b9c2b" target="_top" xlink:title="Solver::step_to">
<polygon fill="none" stroke="#000000" points="348,-126.5 348,-145.5 431,-145.5 431,-126.5 348,-126.5"/>
<text text-anchor="middle" x="389.5" y="-133.5" font-family="Helvetica,sans-Serif" font-size="10.00" fill="#000000">Solver::step_to</text>
</a>
</g>
</g>
<!-- Node60&#45;&gt;Node61 -->
<g id="edge2" class="edge">
<title>Node60&#45;&gt;Node61</title>
<path fill="none" stroke="#191970" d="M281.7537,-136C304.1628,-136 328.2672,-136 347.9831,-136"/>
<polygon fill="#191970" stroke="#191970" points="281.5987,-132.5001 271.5987,-136 281.5987,-139.5001 281.5987,-132.5001"/>
</g>
<!-- Node62 -->
<g id="node4" class="node">
<title>Node62</title>
<g id="a_node4"><a xlink:href="classSolver.html#a06cf82d0a99490279ab20d2ad6b876db" target="_top" xlink:title="Solver::step_to">
<polygon fill="none" stroke="#000000" points="511,-126.5 511,-145.5 594,-145.5 594,-126.5 511,-126.5"/>
<text text-anchor="middle" x="552.5" y="-133.5" font-family="Helvetica,sans-Serif" font-size="10.00" fill="#000000">Solver::step_to</text>
</a>
</g>
</g>
<!-- Node61&#45;&gt;Node62 -->
<g id="edge3" class="edge">
<title>Node61&#45;&gt;Node62</title>
<path fill="none" stroke="#191970" d="M441.094,-136C463.5502,-136 489.5233,-136 510.7392,-136"/>
<polygon fill="#191970" stroke="#191970" points="441.0536,-132.5001 431.0535,-136 441.0535,-139.5001 441.0536,-132.5001"/>
</g>
<!-- Node65 -->
<g id="node7" class="node">
<title>Node65</title>
<g id="a_node7"><a xlink:href="classSolver.html#aa5f2d1d48f6b4db83dbb257325924d2c" target="_top" xlink:title="Solver::calcSpeciesBirthFlux">
<polygon fill="none" stroke="#000000" points="318,-38.5 318,-57.5 461,-57.5 461,-38.5 318,-38.5"/>
<text text-anchor="middle" x="389.5" y="-45.5" font-family="Helvetica,sans-Serif" font-size="10.00" fill="#000000">Solver::calcSpeciesBirthFlux</text>
</a>
</g>
</g>
<!-- Node64&#45;&gt;Node65 -->
<g id="edge6" class="edge">
<title>Node64&#45;&gt;Node65</title>
<path fill="none" stroke="#191970" d="M271.4967,-48C286.3355,-48 302.4028,-48 317.7637,-48"/>
<polygon fill="#191970" stroke="#191970" points="271.4437,-44.5001 261.4436,-48 271.4436,-51.5001 271.4437,-44.5001"/>
</g>
<!-- Node66 -->
<g id="node8" class="node">
<title>Node66</title>
<g id="a_node8"><a xlink:href="classSolver.html#ae9cbf50e5db34626f54298c75fc64188" target="_top" xlink:title="Solver::newborns_out">
<polygon fill="none" stroke="#000000" points="497,-38.5 497,-57.5 608,-57.5 608,-38.5 497,-38.5"/>
<text text-anchor="middle" x="552.5" y="-45.5" font-family="Helvetica,sans-Serif" font-size="10.00" fill="#000000">Solver::newborns_out</text>
</a>
</g>
</g>
<!-- Node65&#45;&gt;Node66 -->
<g id="edge7" class="edge">
<title>Node65&#45;&gt;Node66</title>
<path fill="none" stroke="#191970" d="M471.718,-48C480.1363,-48 488.5443,-48 496.5828,-48"/>
<polygon fill="#191970" stroke="#191970" points="471.4687,-44.5001 461.4686,-48 471.4686,-51.5001 471.4687,-44.5001"/>
</g>
<!-- Node67 -->
<g id="node9" class="node">
<title>Node67</title>
<g id="a_node9"><a xlink:href="classSolver.html#a40c9ebb8d585e07d8f65c4ac5ada6420" target="_top" xlink:title="Solver::u0_out">
<polygon fill="none" stroke="#000000" points="644,-38.5 644,-57.5 724,-57.5 724,-38.5 644,-38.5"/>
<text text-anchor="middle" x="684" y="-45.5" font-family="Helvetica,sans-Serif" font-size="10.00" fill="#000000">Solver::u0_out</text>
</a>
</g>
</g>
<!-- Node66&#45;&gt;Node67 -->
<g id="edge8" class="edge">
<title>Node66&#45;&gt;Node67</title>
<path fill="none" stroke="#191970" d="M618.3788,-48C627.0211,-48 635.6605,-48 643.6996,-48"/>
<polygon fill="#191970" stroke="#191970" points="618.2679,-44.5001 608.2678,-48 618.2678,-51.5001 618.2679,-44.5001"/>
</g>
</g>
</svg>
