<?xml version="1.0" encoding="UTF-8" standalone="no"?>
<!DOCTYPE svg PUBLIC "-//W3C//DTD SVG 1.1//EN"
 "http://www.w3.org/Graphics/SVG/1.1/DTD/svg11.dtd">
<!-- Generated by graphviz version 2.40.1 (20161225.0304)
 -->
<!-- Title: Spline::extrapolate_left Pages: 1 -->
<svg width="422pt" height="28pt"
 viewBox="0.00 0.00 422.00 28.00" xmlns="http://www.w3.org/2000/svg" xmlns:xlink="http://www.w3.org/1999/xlink">
<g id="graph0" class="graph" transform="scale(1 1) rotate(0) translate(4 24)">
<title>Spline::extrapolate_left</title>
<!-- Node16 -->
<g id="node1" class="node">
<title>Node16</title>
<polygon fill="#bfbfbf" stroke="#000000" points="0,-.5 0,-19.5 116,-19.5 116,-.5 0,-.5"/>
<text text-anchor="middle" x="58" y="-7.5" font-family="Helvetica,sans-Serif" font-size="10.00" fill="#000000">Spline::extrapolate_left</text>
</g>
<!-- Node17 -->
<g id="node2" class="node">
<title>Node17</title>
<g id="a_node2"><a xlink:href="classSpline.html#aac2008c210497336b1b4b9992ccde22f" target="_top" xlink:title="Spline::eval">
<polygon fill="none" stroke="#000000" points="152,-.5 152,-19.5 220,-19.5 220,-.5 152,-.5"/>
<text text-anchor="middle" x="186" y="-7.5" font-family="Helvetica,sans-Serif" font-size="10.00" fill="#000000">Spline::eval</text>
</a>
</g>
</g>
<!-- Node16&#45;&gt;Node17 -->
<g id="edge1" class="edge">
<title>Node16&#45;&gt;Node17</title>
<path fill="none" stroke="#191970" d="M126.1296,-10C135.0871,-10 143.9364,-10 151.9715,-10"/>
<polygon fill="#191970" stroke="#191970" points="126.0078,-6.5001 116.0078,-10 126.0078,-13.5001 126.0078,-6.5001"/>
</g>
<!-- Node18 -->
<g id="node3" class="node">
<title>Node18</title>
<g id="a_node3"><a xlink:href="classSolver.html#aca318144131fe7ed314e6e62037dcde6" target="_top" xlink:title="Solver::getDensitySpecies_EBT">
<polygon fill="none" stroke="#000000" points="256,-.5 256,-19.5 414,-19.5 414,-.5 256,-.5"/>
<text text-anchor="middle" x="335" y="-7.5" font-family="Helvetica,sans-Serif" font-size="10.00" fill="#000000">Solver::getDensitySpecies_EBT</text>
</a>
</g>
</g>
<!-- Node17&#45;&gt;Node18 -->
<g id="edge2" class="edge">
<title>Node17&#45;&gt;Node18</title>
<path fill="none" stroke="#191970" d="M230.4057,-10C238.4592,-10 247.0766,-10 255.7803,-10"/>
<polygon fill="#191970" stroke="#191970" points="230.1836,-6.5001 220.1836,-10 230.1836,-13.5001 230.1836,-6.5001"/>
</g>
</g>
</svg>
