<?xml version="1.0" encoding="UTF-8" standalone="no"?>
<!DOCTYPE svg PUBLIC "-//W3C//DTD SVG 1.1//EN"
 "http://www.w3.org/Graphics/SVG/1.1/DTD/svg11.dtd">
<!-- Generated by graphviz version 2.40.1 (20161225.0304)
 -->
<!-- Title: Species_Base::get_boundary_u Pages: 1 -->
<svg width="757pt" height="78pt"
 viewBox="0.00 0.00 757.00 77.50" xmlns="http://www.w3.org/2000/svg" xmlns:xlink="http://www.w3.org/1999/xlink">
<g id="graph0" class="graph" transform="scale(1 1) rotate(0) translate(4 73.5)">
<title>Species_Base::get_boundary_u</title>
<!-- Node28 -->
<g id="node1" class="node">
<title>Node28</title>
<polygon fill="#bfbfbf" stroke="#000000" points="0,-22.5 0,-41.5 155,-41.5 155,-22.5 0,-22.5"/>
<text text-anchor="middle" x="77.5" y="-29.5" font-family="Helvetica,sans-Serif" font-size="10.00" fill="#000000">Species_Base::get_boundary_u</text>
</g>
<!-- Node29 -->
<g id="node2" class="node">
<title>Node29</title>
<g id="a_node2"><a xlink:href="classSolver.html#a9172d0d2dc6399ada494ef23020943d5" target="_top" xlink:title="Computes the partial integral &#160;for the specified species. ">
<polygon fill="none" stroke="#000000" points="191,-39 191,-69 307,-69 307,-39 191,-39"/>
<text text-anchor="start" x="199" y="-57" font-family="Helvetica,sans-Serif" font-size="10.00" fill="#000000">Solver::integrate_wudx</text>
<text text-anchor="middle" x="249" y="-46" font-family="Helvetica,sans-Serif" font-size="10.00" fill="#000000">_above</text>
</a>
</g>
</g>
<!-- Node28&#45;&gt;Node29 -->
<g id="edge1" class="edge">
<title>Node28&#45;&gt;Node29</title>
<path fill="none" stroke="#191970" d="M161.929,-42.8305C171.7495,-44.0903 181.5931,-45.3531 190.9445,-46.5526"/>
<polygon fill="#191970" stroke="#191970" points="162.089,-39.3225 151.7249,-41.5216 161.1983,-46.2656 162.089,-39.3225"/>
</g>
<!-- Node30 -->
<g id="node3" class="node">
<title>Node30</title>
<g id="a_node3"><a xlink:href="classSolver.html#a2a6ca7647a4cde1195789132f3873c0b" target="_top" xlink:title="Solver::integrate_x">
<polygon fill="none" stroke="#000000" points="200,-.5 200,-19.5 298,-19.5 298,-.5 200,-.5"/>
<text text-anchor="middle" x="249" y="-7.5" font-family="Helvetica,sans-Serif" font-size="10.00" fill="#000000">Solver::integrate_x</text>
</a>
</g>
</g>
<!-- Node28&#45;&gt;Node30 -->
<g id="edge2" class="edge">
<title>Node28&#45;&gt;Node30</title>
<path fill="none" stroke="#191970" d="M161.7044,-21.1983C174.7932,-19.5192 187.93,-17.8341 199.8945,-16.2993"/>
<polygon fill="#191970" stroke="#191970" points="161.1983,-17.7344 151.7249,-22.4784 162.089,-24.6775 161.1983,-17.7344"/>
</g>
<!-- Node31 -->
<g id="node4" class="node">
<title>Node31</title>
<g id="a_node4"><a xlink:href="classSolver.html#aa5f2d1d48f6b4db83dbb257325924d2c" target="_top" xlink:title="Solver::calcSpeciesBirthFlux">
<polygon fill="none" stroke="#000000" points="343,-.5 343,-19.5 486,-19.5 486,-.5 343,-.5"/>
<text text-anchor="middle" x="414.5" y="-7.5" font-family="Helvetica,sans-Serif" font-size="10.00" fill="#000000">Solver::calcSpeciesBirthFlux</text>
</a>
</g>
</g>
<!-- Node30&#45;&gt;Node31 -->
<g id="edge3" class="edge">
<title>Node30&#45;&gt;Node31</title>
<path fill="none" stroke="#191970" d="M308.2838,-10C319.4757,-10 331.2919,-10 342.8164,-10"/>
<polygon fill="#191970" stroke="#191970" points="308.2074,-6.5001 298.2074,-10 308.2073,-13.5001 308.2074,-6.5001"/>
</g>
<!-- Node32 -->
<g id="node5" class="node">
<title>Node32</title>
<g id="a_node5"><a xlink:href="classSolver.html#ae9cbf50e5db34626f54298c75fc64188" target="_top" xlink:title="Solver::newborns_out">
<polygon fill="none" stroke="#000000" points="522,-.5 522,-19.5 633,-19.5 633,-.5 522,-.5"/>
<text text-anchor="middle" x="577.5" y="-7.5" font-family="Helvetica,sans-Serif" font-size="10.00" fill="#000000">Solver::newborns_out</text>
</a>
</g>
</g>
<!-- Node31&#45;&gt;Node32 -->
<g id="edge4" class="edge">
<title>Node31&#45;&gt;Node32</title>
<path fill="none" stroke="#191970" d="M496.718,-10C505.1363,-10 513.5443,-10 521.5828,-10"/>
<polygon fill="#191970" stroke="#191970" points="496.4687,-6.5001 486.4686,-10 496.4686,-13.5001 496.4687,-6.5001"/>
</g>
<!-- Node33 -->
<g id="node6" class="node">
<title>Node33</title>
<g id="a_node6"><a xlink:href="classSolver.html#a40c9ebb8d585e07d8f65c4ac5ada6420" target="_top" xlink:title="Solver::u0_out">
<polygon fill="none" stroke="#000000" points="669,-.5 669,-19.5 749,-19.5 749,-.5 669,-.5"/>
<text text-anchor="middle" x="709" y="-7.5" font-family="Helvetica,sans-Serif" font-size="10.00" fill="#000000">Solver::u0_out</text>
</a>
</g>
</g>
<!-- Node32&#45;&gt;Node33 -->
<g id="edge5" class="edge">
<title>Node32&#45;&gt;Node33</title>
<path fill="none" stroke="#191970" d="M643.3788,-10C652.0211,-10 660.6605,-10 668.6996,-10"/>
<polygon fill="#191970" stroke="#191970" points="643.2679,-6.5001 633.2678,-10 643.2678,-13.5001 643.2679,-6.5001"/>
</g>
</g>
</svg>
