<?xml version="1.0" encoding="UTF-8" standalone="no"?>
<!DOCTYPE svg PUBLIC "-//W3C//DTD SVG 1.1//EN"
 "http://www.w3.org/Graphics/SVG/1.1/DTD/svg11.dtd">
<!-- Generated by graphviz version 2.40.1 (20161225.0304)
 -->
<!-- Title: Solver::step_to Pages: 1 -->
<svg width="1285pt" height="682pt"
 viewBox="0.00 0.00 1285.00 682.00" xmlns="http://www.w3.org/2000/svg" xmlns:xlink="http://www.w3.org/1999/xlink">
<g id="graph0" class="graph" transform="scale(1 1) rotate(0) translate(4 678)">
<title>Solver::step_to</title>
<!-- Node185 -->
<g id="node1" class="node">
<title>Node185</title>
<polygon fill="#bfbfbf" stroke="#000000" points="0,-297.5 0,-316.5 83,-316.5 83,-297.5 0,-297.5"/>
<text text-anchor="middle" x="41.5" y="-304.5" font-family="Helvetica,sans-Serif" font-size="10.00" fill="#000000">Solver::step_to</text>
</g>
<!-- Node186 -->
<g id="node2" class="node">
<title>Node186</title>
<g id="a_node2"><a xlink:href="classSolver.html#af4c8f6565df94ed6a058a224196b9c2b" target="_top" xlink:title="Solver::step_to">
<polygon fill="none" stroke="#000000" points="119,-297.5 119,-316.5 202,-316.5 202,-297.5 119,-297.5"/>
<text text-anchor="middle" x="160.5" y="-304.5" font-family="Helvetica,sans-Serif" font-size="10.00" fill="#000000">Solver::step_to</text>
</a>
</g>
</g>
<!-- Node185&#45;&gt;Node186 -->
<g id="edge1" class="edge">
<title>Node185&#45;&gt;Node186</title>
<path fill="none" stroke="#191970" d="M83.1204,-307C91.3162,-307 100.0109,-307 108.4987,-307"/>
<polygon fill="#191970" stroke="#191970" points="108.702,-310.5001 118.7019,-307 108.7019,-303.5001 108.702,-310.5001"/>
</g>
<!-- Node187 -->
<g id="node3" class="node">
<title>Node187</title>
<g id="a_node3"><a xlink:href="classSolver.html#ad3f68f3021eed287c5b1c85bdc24afd8" target="_top" xlink:title="Solver::copyStateToCohorts">
<polygon fill="none" stroke="#000000" points="250.5,-594.5 250.5,-613.5 390.5,-613.5 390.5,-594.5 250.5,-594.5"/>
<text text-anchor="middle" x="320.5" y="-601.5" font-family="Helvetica,sans-Serif" font-size="10.00" fill="#000000">Solver::copyStateToCohorts</text>
</a>
</g>
</g>
<!-- Node186&#45;&gt;Node187 -->
<g id="edge2" class="edge">
<title>Node186&#45;&gt;Node187</title>
<path fill="none" stroke="#191970" d="M162.4738,-316.5108C169.2159,-347.5491 193.4201,-447.9687 238,-519 255.0642,-546.1892 281.9911,-571.8233 300.4091,-587.6902"/>
<polygon fill="#191970" stroke="#191970" points="298.3051,-590.4942 308.2067,-594.2636 302.8169,-585.1422 298.3051,-590.4942"/>
</g>
<!-- Node191 -->
<g id="node7" class="node">
<title>Node191</title>
<g id="a_node7"><a xlink:href="classEnvironmentBase.html#ae8ee835be256735745ed1c68161b0f17" target="_top" xlink:title="EnvironmentBase::computeEnv">
<polygon fill="none" stroke="#000000" points="243,-490.5 243,-509.5 398,-509.5 398,-490.5 243,-490.5"/>
<text text-anchor="middle" x="320.5" y="-497.5" font-family="Helvetica,sans-Serif" font-size="10.00" fill="#000000">EnvironmentBase::computeEnv</text>
</a>
</g>
</g>
<!-- Node186&#45;&gt;Node191 -->
<g id="edge6" class="edge">
<title>Node186&#45;&gt;Node191</title>
<path fill="none" stroke="#191970" d="M161.7858,-316.7031C166.2504,-346.3497 183.8886,-436.425 238,-481 240.0349,-482.6763 242.1897,-484.2109 244.4375,-485.6156"/>
<polygon fill="#191970" stroke="#191970" points="243.0362,-488.8337 253.5126,-490.4134 246.3079,-482.6453 243.0362,-488.8337"/>
</g>
<!-- Node192 -->
<g id="node8" class="node">
<title>Node192</title>
<g id="a_node8"><a xlink:href="classSolver.html#af574bcfab58cef5440c32fa87b027e7d" target="_top" xlink:title="Solver::preComputeSpecies">
<polygon fill="none" stroke="#000000" points="251,-452.5 251,-471.5 390,-471.5 390,-452.5 251,-452.5"/>
<text text-anchor="middle" x="320.5" y="-459.5" font-family="Helvetica,sans-Serif" font-size="10.00" fill="#000000">Solver::preComputeSpecies</text>
</a>
</g>
</g>
<!-- Node186&#45;&gt;Node192 -->
<g id="edge7" class="edge">
<title>Node186&#45;&gt;Node192</title>
<path fill="none" stroke="#191970" d="M163.0741,-316.7135C170.2716,-341.8846 193.0837,-409.5859 238,-443 240.5133,-444.8697 243.1799,-446.5598 245.9569,-448.0871"/>
<polygon fill="#191970" stroke="#191970" points="244.6122,-451.3228 255.1488,-452.4324 247.6039,-444.9943 244.6122,-451.3228"/>
</g>
<!-- Node193 -->
<g id="node9" class="node">
<title>Node193</title>
<g id="a_node9"><a xlink:href="classSolver.html#a2ea9fb6abc4ffd5ac28154332029da40" target="_top" xlink:title="Solver::calcRates_FMU">
<polygon fill="none" stroke="#000000" points="259.5,-414.5 259.5,-433.5 381.5,-433.5 381.5,-414.5 259.5,-414.5"/>
<text text-anchor="middle" x="320.5" y="-421.5" font-family="Helvetica,sans-Serif" font-size="10.00" fill="#000000">Solver::calcRates_FMU</text>
</a>
</g>
</g>
<!-- Node186&#45;&gt;Node193 -->
<g id="edge8" class="edge">
<title>Node186&#45;&gt;Node193</title>
<path fill="none" stroke="#191970" d="M165.1975,-316.5766C175.4603,-336.437 201.887,-382.1563 238,-405 241.6332,-407.2983 245.5133,-409.3194 249.5362,-411.0967"/>
<polygon fill="#191970" stroke="#191970" points="248.5447,-414.466 259.1337,-414.8169 251.0747,-407.9392 248.5447,-414.466"/>
</g>
<!-- Node195 -->
<g id="node11" class="node">
<title>Node195</title>
<g id="a_node11"><a xlink:href="classOdeSolver.html#a77d9f02ed28d5515366e6be08560f35a" target="_top" xlink:title="OdeSolver::step_to">
<polygon fill="none" stroke="#000000" points="270,-376.5 270,-395.5 371,-395.5 371,-376.5 270,-376.5"/>
<text text-anchor="middle" x="320.5" y="-383.5" font-family="Helvetica,sans-Serif" font-size="10.00" fill="#000000">OdeSolver::step_to</text>
</a>
</g>
</g>
<!-- Node186&#45;&gt;Node195 -->
<g id="edge10" class="edge">
<title>Node186&#45;&gt;Node195</title>
<path fill="none" stroke="#191970" d="M171.1957,-316.9284C185.4115,-329.6134 211.7984,-351.4279 238,-364 245.8653,-367.7739 254.4743,-370.9754 263.0695,-373.6681"/>
<polygon fill="#191970" stroke="#191970" points="262.1468,-377.0448 272.7274,-376.4955 264.1136,-370.3268 262.1468,-377.0448"/>
</g>
<!-- Node221 -->
<g id="node34" class="node">
<title>Node221</title>
<g id="a_node34"><a xlink:href="classSolver.html#a8f96f44ff535452912b2a3a2fc43e60e" target="_top" xlink:title="Solver::stepU_iFMU">
<polygon fill="none" stroke="#000000" points="267.5,-335.5 267.5,-354.5 373.5,-354.5 373.5,-335.5 267.5,-335.5"/>
<text text-anchor="middle" x="320.5" y="-342.5" font-family="Helvetica,sans-Serif" font-size="10.00" fill="#000000">Solver::stepU_iFMU</text>
</a>
</g>
</g>
<!-- Node186&#45;&gt;Node221 -->
<g id="edge36" class="edge">
<title>Node186&#45;&gt;Node221</title>
<path fill="none" stroke="#191970" d="M199.1063,-316.578C211.5167,-319.6266 225.3309,-322.9883 238,-326 247.8666,-328.3455 258.4078,-330.8069 268.5433,-333.1514"/>
<polygon fill="#191970" stroke="#191970" points="267.9727,-336.6116 278.5035,-335.4482 269.5457,-329.7906 267.9727,-336.6116"/>
</g>
<!-- Node222 -->
<g id="node35" class="node">
<title>Node222</title>
<g id="a_node35"><a xlink:href="classSolver.html#af20fce0c27f051dfb93383069a77fd72" target="_top" xlink:title="Solver::calcRates_iFMU">
<polygon fill="none" stroke="#000000" points="258.5,-297.5 258.5,-316.5 382.5,-316.5 382.5,-297.5 258.5,-297.5"/>
<text text-anchor="middle" x="320.5" y="-304.5" font-family="Helvetica,sans-Serif" font-size="10.00" fill="#000000">Solver::calcRates_iFMU</text>
</a>
</g>
</g>
<!-- Node186&#45;&gt;Node222 -->
<g id="edge37" class="edge">
<title>Node186&#45;&gt;Node222</title>
<path fill="none" stroke="#191970" d="M202.1204,-307C216.172,-307 232.2939,-307 248.0244,-307"/>
<polygon fill="#191970" stroke="#191970" points="248.2793,-310.5001 258.2793,-307 248.2792,-303.5001 248.2793,-310.5001"/>
</g>
<!-- Node223 -->
<g id="node36" class="node">
<title>Node223</title>
<g id="a_node36"><a xlink:href="classSolver.html#a23be16428b7ba399bfd2f06555547f6b" target="_top" xlink:title="Solver::calcRates_EBT">
<polygon fill="none" stroke="#000000" points="261,-259.5 261,-278.5 380,-278.5 380,-259.5 261,-259.5"/>
<text text-anchor="middle" x="320.5" y="-266.5" font-family="Helvetica,sans-Serif" font-size="10.00" fill="#000000">Solver::calcRates_EBT</text>
</a>
</g>
</g>
<!-- Node186&#45;&gt;Node223 -->
<g id="edge38" class="edge">
<title>Node186&#45;&gt;Node223</title>
<path fill="none" stroke="#191970" d="M199.1063,-297.422C211.5167,-294.3734 225.3309,-291.0117 238,-288 247.8666,-285.6545 258.4078,-283.1931 268.5433,-280.8486"/>
<polygon fill="#191970" stroke="#191970" points="269.5457,-284.2094 278.5035,-278.5518 267.9727,-277.3884 269.5457,-284.2094"/>
</g>
<!-- Node233 -->
<g id="node46" class="node">
<title>Node233</title>
<g id="a_node46"><a xlink:href="classSolver.html#a755d2db1e1e57bb998526cd604bd7565" target="_top" xlink:title="Solver::removeDeadCohorts_EBT">
<polygon fill="none" stroke="#000000" points="238,-221.5 238,-240.5 403,-240.5 403,-221.5 238,-221.5"/>
<text text-anchor="middle" x="320.5" y="-228.5" font-family="Helvetica,sans-Serif" font-size="10.00" fill="#000000">Solver::removeDeadCohorts_EBT</text>
</a>
</g>
</g>
<!-- Node186&#45;&gt;Node233 -->
<g id="edge48" class="edge">
<title>Node186&#45;&gt;Node233</title>
<path fill="none" stroke="#191970" d="M170.6477,-297.3719C184.6712,-284.6045 211.2834,-262.2609 238,-250 243.3913,-247.5258 249.1332,-245.3595 254.9812,-243.4655"/>
<polygon fill="#191970" stroke="#191970" points="256.2883,-246.7285 264.8798,-240.5288 254.2973,-240.0176 256.2883,-246.7285"/>
</g>
<!-- Node234 -->
<g id="node47" class="node">
<title>Node234</title>
<g id="a_node47"><a xlink:href="classSolver.html#a1b1f4ba3186796d37c909c6b26c7d6f2" target="_top" xlink:title="Solver::addCohort_EBT">
<polygon fill="none" stroke="#000000" points="260.5,-183.5 260.5,-202.5 380.5,-202.5 380.5,-183.5 260.5,-183.5"/>
<text text-anchor="middle" x="320.5" y="-190.5" font-family="Helvetica,sans-Serif" font-size="10.00" fill="#000000">Solver::addCohort_EBT</text>
</a>
</g>
</g>
<!-- Node186&#45;&gt;Node234 -->
<g id="edge49" class="edge">
<title>Node186&#45;&gt;Node234</title>
<path fill="none" stroke="#191970" d="M165.4381,-297.4218C175.9653,-278.0157 202.5747,-234.034 238,-212 242.0757,-209.465 246.4541,-207.2675 250.9915,-205.3628"/>
<polygon fill="#191970" stroke="#191970" points="252.3195,-208.6034 260.4828,-201.8497 249.8896,-202.0386 252.3195,-208.6034"/>
</g>
<!-- Node235 -->
<g id="node48" class="node">
<title>Node235</title>
<g id="a_node48"><a xlink:href="classSolver.html#ab712f582d6f785adb8620cb40bbb3de4" target="_top" xlink:title="Solver::calcRates_CM">
<polygon fill="none" stroke="#000000" points="262.5,-145.5 262.5,-164.5 378.5,-164.5 378.5,-145.5 262.5,-145.5"/>
<text text-anchor="middle" x="320.5" y="-152.5" font-family="Helvetica,sans-Serif" font-size="10.00" fill="#000000">Solver::calcRates_CM</text>
</a>
</g>
</g>
<!-- Node186&#45;&gt;Node235 -->
<g id="edge50" class="edge">
<title>Node186&#45;&gt;Node235</title>
<path fill="none" stroke="#191970" d="M163.1413,-297.4972C170.5012,-272.8727 193.6715,-206.6457 238,-174 242.512,-170.6771 247.5099,-167.9226 252.7488,-165.6408"/>
<polygon fill="#191970" stroke="#191970" points="254.254,-168.8143 262.3864,-162.0234 251.7942,-162.2607 254.254,-168.8143"/>
</g>
<!-- Node236 -->
<g id="node49" class="node">
<title>Node236</title>
<g id="a_node49"><a xlink:href="classSolver.html#af6469f699052d7c5fc9192c75b597f30" target="_top" xlink:title="Solver::addCohort_CM">
<polygon fill="none" stroke="#000000" points="262.5,-107.5 262.5,-126.5 378.5,-126.5 378.5,-107.5 262.5,-107.5"/>
<text text-anchor="middle" x="320.5" y="-114.5" font-family="Helvetica,sans-Serif" font-size="10.00" fill="#000000">Solver::addCohort_CM</text>
</a>
</g>
</g>
<!-- Node186&#45;&gt;Node236 -->
<g id="edge51" class="edge">
<title>Node186&#45;&gt;Node236</title>
<path fill="none" stroke="#191970" d="M161.842,-297.4602C166.4686,-268.3131 184.5235,-179.761 238,-136 242.4077,-132.3931 247.3713,-129.4428 252.6215,-127.0329"/>
<polygon fill="#191970" stroke="#191970" points="254.2755,-130.1449 262.3232,-123.2538 251.7348,-123.6222 254.2755,-130.1449"/>
</g>
<!-- Node237 -->
<g id="node50" class="node">
<title>Node237</title>
<g id="a_node50"><a xlink:href="classSolver.html#ad4c2e8d0c5a11726f47553adcf0f4c73" target="_top" xlink:title="Solver::removeCohort_CM">
<polygon fill="none" stroke="#000000" points="254,-69.5 254,-88.5 387,-88.5 387,-69.5 254,-69.5"/>
<text text-anchor="middle" x="320.5" y="-76.5" font-family="Helvetica,sans-Serif" font-size="10.00" fill="#000000">Solver::removeCohort_CM</text>
</a>
</g>
</g>
<!-- Node186&#45;&gt;Node237 -->
<g id="edge52" class="edge">
<title>Node186&#45;&gt;Node237</title>
<path fill="none" stroke="#191970" d="M160.9864,-297.3286C163.2058,-264.0346 175.2134,-153.1825 238,-98 240.0286,-96.2171 242.191,-94.5922 244.4576,-93.1119"/>
<polygon fill="#191970" stroke="#191970" points="246.5543,-95.9549 253.6536,-88.0904 243.1995,-89.8112 246.5543,-95.9549"/>
</g>
<!-- Node188 -->
<g id="node4" class="node">
<title>Node188</title>
<g id="a_node4"><a xlink:href="classSpecies__Base.html#ad9ddab41ba3c6e242f1b3a8a50ed7a36" target="_top" xlink:title="Species_Base::setU">
<polygon fill="none" stroke="#000000" points="462,-654.5 462,-673.5 569,-673.5 569,-654.5 462,-654.5"/>
<text text-anchor="middle" x="515.5" y="-661.5" font-family="Helvetica,sans-Serif" font-size="10.00" fill="#000000">Species_Base::setU</text>
</a>
</g>
</g>
<!-- Node187&#45;&gt;Node188 -->
<g id="edge3" class="edge">
<title>Node187&#45;&gt;Node188</title>
<path fill="none" stroke="#191970" d="M346.1745,-613.6303C370.0323,-622.4004 406.6496,-635.4071 439,-645 447.1098,-647.4048 455.7634,-649.756 464.2252,-651.9393"/>
<polygon fill="#191970" stroke="#191970" points="463.4736,-655.3594 474.0265,-654.4183 465.1901,-648.5731 463.4736,-655.3594"/>
</g>
<!-- Node189 -->
<g id="node5" class="node">
<title>Node189</title>
<g id="a_node5"><a xlink:href="classSpecies__Base.html#a86a04ae53b3f25c4e90b01a8eaed3bfd" target="_top" xlink:title="Species_Base::setX">
<polygon fill="none" stroke="#000000" points="462.5,-616.5 462.5,-635.5 568.5,-635.5 568.5,-616.5 462.5,-616.5"/>
<text text-anchor="middle" x="515.5" y="-623.5" font-family="Helvetica,sans-Serif" font-size="10.00" fill="#000000">Species_Base::setX</text>
</a>
</g>
</g>
<!-- Node187&#45;&gt;Node189 -->
<g id="edge4" class="edge">
<title>Node187&#45;&gt;Node189</title>
<path fill="none" stroke="#191970" d="M390.624,-611.9114C410.7079,-614.1773 432.4782,-616.6334 452.1312,-618.8507"/>
<polygon fill="#191970" stroke="#191970" points="451.8659,-622.3429 462.1953,-619.9861 452.6507,-615.387 451.8659,-622.3429"/>
</g>
<!-- Node190 -->
<g id="node6" class="node">
<title>Node190</title>
<g id="a_node6"><a xlink:href="classSpecies__Base.html#a2ca0ef18e0b775f6efc02b026bd2f5ac" target="_top" xlink:title="Species_Base::copyExtraState\lToCohorts">
<polygon fill="none" stroke="#000000" points="439,-567 439,-597 592,-597 592,-567 439,-567"/>
<text text-anchor="start" x="447" y="-585" font-family="Helvetica,sans-Serif" font-size="10.00" fill="#000000">Species_Base::copyExtraState</text>
<text text-anchor="middle" x="515.5" y="-574" font-family="Helvetica,sans-Serif" font-size="10.00" fill="#000000">ToCohorts</text>
</a>
</g>
</g>
<!-- Node187&#45;&gt;Node190 -->
<g id="edge5" class="edge">
<title>Node187&#45;&gt;Node190</title>
<path fill="none" stroke="#191970" d="M390.624,-596.0886C402.9444,-594.6986 415.8994,-593.237 428.611,-591.8029"/>
<polygon fill="#191970" stroke="#191970" points="429.1919,-595.2596 438.7364,-590.6605 428.4071,-588.3037 429.1919,-595.2596"/>
</g>
<!-- Node194 -->
<g id="node10" class="node">
<title>Node194</title>
<g id="a_node10"><a xlink:href="fmu_8cpp.html#af0b176a8634995ec9711c803bb30743a" target="_top" xlink:title="phi">
<polygon fill="none" stroke="#000000" points="501,-528.5 501,-547.5 530,-547.5 530,-528.5 501,-528.5"/>
<text text-anchor="middle" x="515.5" y="-535.5" font-family="Helvetica,sans-Serif" font-size="10.00" fill="#000000">phi</text>
</a>
</g>
</g>
<!-- Node193&#45;&gt;Node194 -->
<g id="edge9" class="edge">
<title>Node193&#45;&gt;Node194</title>
<path fill="none" stroke="#191970" d="M381.5627,-431.3756C389.3006,-434.1668 396.701,-437.9334 403,-443 432.1235,-466.4256 410.0776,-495.3265 439,-519 453.4549,-530.8316 474.2444,-535.4477 490.5036,-537.1792"/>
<polygon fill="#191970" stroke="#191970" points="490.666,-540.7016 500.9027,-537.9703 491.197,-533.7217 490.666,-540.7016"/>
</g>
<!-- Node196 -->
<g id="node12" class="node">
<title>Node196</title>
<g id="a_node12"><a xlink:href="classLSODA.html#a278bb538d9b0354084473a931567a023" target="_top" xlink:title="LSODA::set_istate">
<polygon fill="none" stroke="#000000" points="466,-490.5 466,-509.5 565,-509.5 565,-490.5 466,-490.5"/>
<text text-anchor="middle" x="515.5" y="-497.5" font-family="Helvetica,sans-Serif" font-size="10.00" fill="#000000">LSODA::set_istate</text>
</a>
</g>
</g>
<!-- Node195&#45;&gt;Node196 -->
<g id="edge11" class="edge">
<title>Node195&#45;&gt;Node196</title>
<path fill="none" stroke="#191970" d="M371.304,-390.2517C382.6323,-393.1272 393.9523,-397.7225 403,-405 432.1235,-428.4256 410.0776,-457.3265 439,-481 444.0731,-485.1524 449.9265,-488.4161 456.0904,-490.9782"/>
<polygon fill="#191970" stroke="#191970" points="455.3699,-494.4351 465.9648,-494.4539 457.6941,-487.8322 455.3699,-494.4351"/>
</g>
<!-- Node197 -->
<g id="node13" class="node">
<title>Node197</title>
<g id="a_node13"><a xlink:href="classLSODA.html#a391e4d7bea026ad7c300cfb55cb290d1" target="_top" xlink:title="LSODA::lsoda_update">
<polygon fill="none" stroke="#000000" points="458.5,-452.5 458.5,-471.5 572.5,-471.5 572.5,-452.5 458.5,-452.5"/>
<text text-anchor="middle" x="515.5" y="-459.5" font-family="Helvetica,sans-Serif" font-size="10.00" fill="#000000">LSODA::lsoda_update</text>
</a>
</g>
</g>
<!-- Node195&#45;&gt;Node197 -->
<g id="edge12" class="edge">
<title>Node195&#45;&gt;Node197</title>
<path fill="none" stroke="#191970" d="M371.1213,-392.7474C382.0921,-395.5286 393.3027,-399.4556 403,-405 423.1964,-416.5473 418.903,-431.2806 439,-443 442.7238,-445.1715 446.6895,-447.0963 450.7811,-448.8022"/>
<polygon fill="#191970" stroke="#191970" points="449.909,-452.2113 460.5022,-452.3984 452.3378,-445.6462 449.909,-452.2113"/>
</g>
<!-- Node219 -->
<g id="node32" class="node">
<title>Node219</title>
<g id="a_node32"><a xlink:href="classLSODA.html#a418110bad0f4978101950dfd04311a02" target="_top" xlink:title="LSODA::get_istate">
<polygon fill="none" stroke="#000000" points="466,-414.5 466,-433.5 565,-433.5 565,-414.5 466,-414.5"/>
<text text-anchor="middle" x="515.5" y="-421.5" font-family="Helvetica,sans-Serif" font-size="10.00" fill="#000000">LSODA::get_istate</text>
</a>
</g>
</g>
<!-- Node195&#45;&gt;Node219 -->
<g id="edge34" class="edge">
<title>Node195&#45;&gt;Node219</title>
<path fill="none" stroke="#191970" d="M369.455,-395.54C395.8809,-400.6896 428.6943,-407.084 456.52,-412.5065"/>
<polygon fill="#191970" stroke="#191970" points="456.04,-415.9787 466.5248,-414.4561 457.3789,-409.1079 456.04,-415.9787"/>
</g>
<!-- Node220 -->
<g id="node33" class="node">
<title>Node220</title>
<g id="a_node33"><a xlink:href="classLSODA.html#adb5f9410c901c193aeb836dd9cc4ab70" target="_top" xlink:title="LSODA::get_fncalls">
<polygon fill="none" stroke="#000000" points="463.5,-376.5 463.5,-395.5 567.5,-395.5 567.5,-376.5 463.5,-376.5"/>
<text text-anchor="middle" x="515.5" y="-383.5" font-family="Helvetica,sans-Serif" font-size="10.00" fill="#000000">LSODA::get_fncalls</text>
</a>
</g>
</g>
<!-- Node195&#45;&gt;Node220 -->
<g id="edge35" class="edge">
<title>Node195&#45;&gt;Node220</title>
<path fill="none" stroke="#191970" d="M371.2249,-386C396.2302,-386 426.6148,-386 453.039,-386"/>
<polygon fill="#191970" stroke="#191970" points="453.3307,-389.5001 463.3307,-386 453.3306,-382.5001 453.3307,-389.5001"/>
</g>
<!-- Node198 -->
<g id="node14" class="node">
<title>Node198</title>
<g id="a_node14"><a xlink:href="classLSODA.html#a705dcfe5b21827adb8871e48f2c72fb2" target="_top" xlink:title="LSODA::lsoda">
<polygon fill="none" stroke="#000000" points="628,-452.5 628,-471.5 708,-471.5 708,-452.5 628,-452.5"/>
<text text-anchor="middle" x="668" y="-459.5" font-family="Helvetica,sans-Serif" font-size="10.00" fill="#000000">LSODA::lsoda</text>
</a>
</g>
</g>
<!-- Node197&#45;&gt;Node198 -->
<g id="edge13" class="edge">
<title>Node197&#45;&gt;Node198</title>
<path fill="none" stroke="#191970" d="M572.7192,-462C587.4093,-462 603.1061,-462 617.4331,-462"/>
<polygon fill="#191970" stroke="#191970" points="617.5894,-465.5001 627.5894,-462 617.5894,-458.5001 617.5894,-465.5001"/>
</g>
<!-- Node199 -->
<g id="node15" class="node">
<title>Node199</title>
<g id="a_node15"><a xlink:href="classLSODA.html#addd83d35565b2c2db644f27dbd94446f" target="_top" xlink:title="LSODA::terminate">
<polygon fill="none" stroke="#000000" points="755.5,-585.5 755.5,-604.5 852.5,-604.5 852.5,-585.5 755.5,-585.5"/>
<text text-anchor="middle" x="804" y="-592.5" font-family="Helvetica,sans-Serif" font-size="10.00" fill="#000000">LSODA::terminate</text>
</a>
</g>
</g>
<!-- Node198&#45;&gt;Node199 -->
<g id="edge14" class="edge">
<title>Node198&#45;&gt;Node199</title>
<path fill="none" stroke="#191970" d="M671.7251,-471.5461C680.7284,-493.3758 705.7865,-547.2662 744,-576 746.4958,-577.8766 749.182,-579.571 751.9851,-581.1006"/>
<polygon fill="#191970" stroke="#191970" points="750.7057,-584.3663 761.2455,-585.4453 753.679,-578.0292 750.7057,-584.3663"/>
</g>
<!-- Node200 -->
<g id="node16" class="node">
<title>Node200</title>
<g id="a_node16"><a xlink:href="classLSODA.html#a6f118c16d754b66d7ee9220037260978" target="_top" xlink:title="LSODA::resize_system">
<polygon fill="none" stroke="#000000" points="744,-547.5 744,-566.5 864,-566.5 864,-547.5 744,-547.5"/>
<text text-anchor="middle" x="804" y="-554.5" font-family="Helvetica,sans-Serif" font-size="10.00" fill="#000000">LSODA::resize_system</text>
</a>
</g>
</g>
<!-- Node198&#45;&gt;Node200 -->
<g id="edge15" class="edge">
<title>Node198&#45;&gt;Node200</title>
<path fill="none" stroke="#191970" d="M675.0883,-471.6381C687.3728,-487.6795 714.1802,-519.8795 744,-538 747.4214,-540.0791 751.0925,-541.9522 754.8718,-543.6358"/>
<polygon fill="#191970" stroke="#191970" points="753.8231,-546.9856 764.4082,-547.4395 756.4165,-540.4837 753.8231,-546.9856"/>
</g>
<!-- Node201 -->
<g id="node17" class="node">
<title>Node201</title>
<g id="a_node17"><a xlink:href="classLSODA.html#a0a54717e6b42492345098b16bb248e77" target="_top" xlink:title="LSODA::ewset">
<polygon fill="none" stroke="#000000" points="762.5,-509.5 762.5,-528.5 845.5,-528.5 845.5,-509.5 762.5,-509.5"/>
<text text-anchor="middle" x="804" y="-516.5" font-family="Helvetica,sans-Serif" font-size="10.00" fill="#000000">LSODA::ewset</text>
</a>
</g>
</g>
<!-- Node198&#45;&gt;Node201 -->
<g id="edge16" class="edge">
<title>Node198&#45;&gt;Node201</title>
<path fill="none" stroke="#191970" d="M685.1492,-471.5478C700.3232,-479.7586 723.22,-491.5755 744,-500 749.449,-502.2091 755.2584,-504.329 761.0359,-506.2996"/>
<polygon fill="#191970" stroke="#191970" points="760.0666,-509.6652 770.6595,-509.4644 762.2534,-503.0155 760.0666,-509.6652"/>
</g>
<!-- Node202 -->
<g id="node18" class="node">
<title>Node202</title>
<g id="a_node18"><a xlink:href="classLSODA.html#afbcbaee47892060721287dc0ba9708f9" target="_top" xlink:title="LSODA::terminate2">
<polygon fill="none" stroke="#000000" points="753,-471.5 753,-490.5 855,-490.5 855,-471.5 753,-471.5"/>
<text text-anchor="middle" x="804" y="-478.5" font-family="Helvetica,sans-Serif" font-size="10.00" fill="#000000">LSODA::terminate2</text>
</a>
</g>
</g>
<!-- Node198&#45;&gt;Node202 -->
<g id="edge17" class="edge">
<title>Node198&#45;&gt;Node202</title>
<path fill="none" stroke="#191970" d="M708.0689,-467.5979C718.8559,-469.1049 730.7778,-470.7704 742.4445,-472.4003"/>
<polygon fill="#191970" stroke="#191970" points="742.2082,-475.9012 752.5963,-473.8186 743.1768,-468.9686 742.2082,-475.9012"/>
</g>
<!-- Node203 -->
<g id="node19" class="node">
<title>Node203</title>
<g id="a_node19"><a xlink:href="classLSODA.html#ac94b738016b2a7c57cedd5ea4f13311f" target="_top" xlink:title="LSODA::vmnorm">
<polygon fill="none" stroke="#000000" points="1185,-367.5 1185,-386.5 1277,-386.5 1277,-367.5 1185,-367.5"/>
<text text-anchor="middle" x="1231" y="-374.5" font-family="Helvetica,sans-Serif" font-size="10.00" fill="#000000">LSODA::vmnorm</text>
</a>
</g>
</g>
<!-- Node198&#45;&gt;Node203 -->
<g id="edge18" class="edge">
<title>Node198&#45;&gt;Node203</title>
<path fill="none" stroke="#191970" d="M708.1744,-460.1007C808.2097,-455.0739 1066.3294,-440.1973 1149,-417 1169.3333,-411.2945 1190.7291,-400.6822 1206.5653,-391.8217"/>
<polygon fill="#191970" stroke="#191970" points="1208.7292,-394.6144 1215.648,-386.5907 1205.2356,-388.5485 1208.7292,-394.6144"/>
</g>
<!-- Node204 -->
<g id="node20" class="node">
<title>Node204</title>
<g id="a_node20"><a xlink:href="classLSODA.html#a1ee114165850fa09fcbd0b206de560dc" target="_top" xlink:title="LSODA::intdy">
<polygon fill="none" stroke="#000000" points="765.5,-395.5 765.5,-414.5 842.5,-414.5 842.5,-395.5 765.5,-395.5"/>
<text text-anchor="middle" x="804" y="-402.5" font-family="Helvetica,sans-Serif" font-size="10.00" fill="#000000">LSODA::intdy</text>
</a>
</g>
</g>
<!-- Node198&#45;&gt;Node204 -->
<g id="edge19" class="edge">
<title>Node198&#45;&gt;Node204</title>
<path fill="none" stroke="#191970" d="M689.5495,-452.444C704.7256,-445.7631 725.5456,-436.6955 744,-429 752.5015,-425.4549 761.7212,-421.7151 770.3241,-418.2703"/>
<polygon fill="#191970" stroke="#191970" points="771.71,-421.4857 779.7038,-414.5323 769.1185,-414.9831 771.71,-421.4857"/>
</g>
<!-- Node205 -->
<g id="node21" class="node">
<title>Node205</title>
<g id="a_node21"><a xlink:href="classLSODA.html#abf4eccf92cba7f87f9d5051ee6b28a42" target="_top" xlink:title="LSODA::successreturn">
<polygon fill="none" stroke="#000000" points="745,-357.5 745,-376.5 863,-376.5 863,-357.5 745,-357.5"/>
<text text-anchor="middle" x="804" y="-364.5" font-family="Helvetica,sans-Serif" font-size="10.00" fill="#000000">LSODA::successreturn</text>
</a>
</g>
</g>
<!-- Node198&#45;&gt;Node205 -->
<g id="edge20" class="edge">
<title>Node198&#45;&gt;Node205</title>
<path fill="none" stroke="#191970" d="M675.0883,-452.3619C687.3728,-436.3205 714.1802,-404.1205 744,-386 747.4214,-383.9209 751.0925,-382.0478 754.8718,-380.3642"/>
<polygon fill="#191970" stroke="#191970" points="756.4165,-383.5163 764.4082,-376.5605 753.8231,-377.0144 756.4165,-383.5163"/>
</g>
<!-- Node206 -->
<g id="node22" class="node">
<title>Node206</title>
<g id="a_node22"><a xlink:href="classLSODA.html#a7c6d8d75b383474b5b05c710d2921618" target="_top" xlink:title="LSODA::stoda">
<polygon fill="none" stroke="#000000" points="764,-281.5 764,-300.5 844,-300.5 844,-281.5 764,-281.5"/>
<text text-anchor="middle" x="804" y="-288.5" font-family="Helvetica,sans-Serif" font-size="10.00" fill="#000000">LSODA::stoda</text>
</a>
</g>
</g>
<!-- Node198&#45;&gt;Node206 -->
<g id="edge21" class="edge">
<title>Node198&#45;&gt;Node206</title>
<path fill="none" stroke="#191970" d="M673.4421,-452.3388C685.0877,-432.0351 713.8295,-383.8548 744,-348 756.3266,-333.3511 772.0767,-318.509 784.3468,-307.6436"/>
<polygon fill="#191970" stroke="#191970" points="786.9553,-310.0133 792.2006,-300.808 782.3597,-304.7331 786.9553,-310.0133"/>
</g>
<!-- Node206&#45;&gt;Node203 -->
<g id="edge25" class="edge">
<title>Node206&#45;&gt;Node203</title>
<path fill="none" stroke="#191970" d="M814.3489,-300.5208C826.434,-311.7097 846.9437,-330.9201 864,-348 880.4391,-364.4618 878.6287,-376.8075 900,-386 996.2436,-427.3974 1123.2108,-405.2906 1188.3782,-389.1176"/>
<polygon fill="#191970" stroke="#191970" points="1189.4706,-392.451 1198.2923,-386.5835 1187.737,-385.669 1189.4706,-392.451"/>
</g>
<!-- Node207 -->
<g id="node23" class="node">
<title>Node207</title>
<g id="a_node23"><a xlink:href="classLSODA.html#a0f3b8f1c3f9e12fb89ddebfc02930b56" target="_top" xlink:title="LSODA::cfode">
<polygon fill="none" stroke="#000000" points="918.5,-357.5 918.5,-376.5 998.5,-376.5 998.5,-357.5 918.5,-357.5"/>
<text text-anchor="middle" x="958.5" y="-364.5" font-family="Helvetica,sans-Serif" font-size="10.00" fill="#000000">LSODA::cfode</text>
</a>
</g>
</g>
<!-- Node206&#45;&gt;Node207 -->
<g id="edge22" class="edge">
<title>Node206&#45;&gt;Node207</title>
<path fill="none" stroke="#191970" d="M817.781,-300.5185C835.9657,-312.7602 869.2727,-334.0961 900,-348 904.7428,-350.1461 909.8007,-352.1638 914.8817,-354.0243"/>
<polygon fill="#191970" stroke="#191970" points="914.0095,-357.4264 924.6043,-357.4005 916.3058,-350.8137 914.0095,-357.4264"/>
</g>
<!-- Node208 -->
<g id="node24" class="node">
<title>Node208</title>
<g id="a_node24"><a xlink:href="classLSODA.html#a391bc37600b2df97c24cafc6352dc4ce" target="_top" xlink:title="LSODA::resetcoeff">
<polygon fill="none" stroke="#000000" points="908.5,-319.5 908.5,-338.5 1008.5,-338.5 1008.5,-319.5 908.5,-319.5"/>
<text text-anchor="middle" x="958.5" y="-326.5" font-family="Helvetica,sans-Serif" font-size="10.00" fill="#000000">LSODA::resetcoeff</text>
</a>
</g>
</g>
<!-- Node206&#45;&gt;Node208 -->
<g id="edge23" class="edge">
<title>Node206&#45;&gt;Node208</title>
<path fill="none" stroke="#191970" d="M842.9869,-300.589C863.283,-305.5809 888.2935,-311.7324 909.8462,-317.0334"/>
<polygon fill="#191970" stroke="#191970" points="909.2469,-320.4902 919.7935,-319.4799 910.9188,-313.6928 909.2469,-320.4902"/>
</g>
<!-- Node209 -->
<g id="node25" class="node">
<title>Node209</title>
<g id="a_node25"><a xlink:href="classLSODA.html#acd395b8e8db2b012842c1ffd57244fd3" target="_top" xlink:title="LSODA::scaleh">
<polygon fill="none" stroke="#000000" points="916,-281.5 916,-300.5 1001,-300.5 1001,-281.5 916,-281.5"/>
<text text-anchor="middle" x="958.5" y="-288.5" font-family="Helvetica,sans-Serif" font-size="10.00" fill="#000000">LSODA::scaleh</text>
</a>
</g>
</g>
<!-- Node206&#45;&gt;Node209 -->
<g id="edge24" class="edge">
<title>Node206&#45;&gt;Node209</title>
<path fill="none" stroke="#191970" d="M844.1897,-291C862.9196,-291 885.4588,-291 905.5546,-291"/>
<polygon fill="#191970" stroke="#191970" points="905.8076,-294.5001 915.8076,-291 905.8076,-287.5001 905.8076,-294.5001"/>
</g>
<!-- Node210 -->
<g id="node26" class="node">
<title>Node210</title>
<g id="a_node26"><a xlink:href="classLSODA.html#ae5ebdebff330f29ef0c15bece1bf8299" target="_top" xlink:title="LSODA::correction">
<polygon fill="none" stroke="#ff0000" points="909,-243.5 909,-262.5 1008,-262.5 1008,-243.5 909,-243.5"/>
<text text-anchor="middle" x="958.5" y="-250.5" font-family="Helvetica,sans-Serif" font-size="10.00" fill="#000000">LSODA::correction</text>
</a>
</g>
</g>
<!-- Node206&#45;&gt;Node210 -->
<g id="edge26" class="edge">
<title>Node206&#45;&gt;Node210</title>
<path fill="none" stroke="#191970" d="M842.9869,-281.411C863.283,-276.4191 888.2935,-270.2676 909.8462,-264.9666"/>
<polygon fill="#191970" stroke="#191970" points="910.9188,-268.3072 919.7935,-262.5201 909.2469,-261.5098 910.9188,-268.3072"/>
</g>
<!-- Node216 -->
<g id="node29" class="node">
<title>Node216</title>
<g id="a_node29"><a xlink:href="classLSODA.html#aa81043ac776e6d6b81ae2382b03dea2a" target="_top" xlink:title="LSODA::methodswitch">
<polygon fill="none" stroke="#000000" points="900,-205.5 900,-224.5 1017,-224.5 1017,-205.5 900,-205.5"/>
<text text-anchor="middle" x="958.5" y="-212.5" font-family="Helvetica,sans-Serif" font-size="10.00" fill="#000000">LSODA::methodswitch</text>
</a>
</g>
</g>
<!-- Node206&#45;&gt;Node216 -->
<g id="edge31" class="edge">
<title>Node206&#45;&gt;Node216</title>
<path fill="none" stroke="#191970" d="M817.781,-281.4815C835.9657,-269.2398 869.2727,-247.9039 900,-234 904.7428,-231.8539 909.8007,-229.8362 914.8817,-227.9757"/>
<polygon fill="#191970" stroke="#191970" points="916.3058,-231.1863 924.6043,-224.5995 914.0095,-224.5736 916.3058,-231.1863"/>
</g>
<!-- Node217 -->
<g id="node30" class="node">
<title>Node217</title>
<g id="a_node30"><a xlink:href="classLSODA.html#a1d1e589364f1c4100eba1837021fc4d9" target="_top" xlink:title="LSODA::endstoda">
<polygon fill="none" stroke="#000000" points="910.5,-167.5 910.5,-186.5 1006.5,-186.5 1006.5,-167.5 910.5,-167.5"/>
<text text-anchor="middle" x="958.5" y="-174.5" font-family="Helvetica,sans-Serif" font-size="10.00" fill="#000000">LSODA::endstoda</text>
</a>
</g>
</g>
<!-- Node206&#45;&gt;Node217 -->
<g id="edge32" class="edge">
<title>Node206&#45;&gt;Node217</title>
<path fill="none" stroke="#191970" d="M811.103,-281.4403C825.6899,-262.4559 860.9507,-219.7858 900,-196 903.3914,-193.9342 907.032,-192.0676 910.7778,-190.386"/>
<polygon fill="#191970" stroke="#191970" points="912.2569,-193.5635 920.2234,-186.5788 909.64,-187.0711 912.2569,-193.5635"/>
</g>
<!-- Node218 -->
<g id="node31" class="node">
<title>Node218</title>
<g id="a_node31"><a xlink:href="classLSODA.html#a0fae42ed968227524b320ab5d3470665" target="_top" xlink:title="LSODA::orderswitch">
<polygon fill="none" stroke="#000000" points="905,-129.5 905,-148.5 1012,-148.5 1012,-129.5 905,-129.5"/>
<text text-anchor="middle" x="958.5" y="-136.5" font-family="Helvetica,sans-Serif" font-size="10.00" fill="#000000">LSODA::orderswitch</text>
</a>
</g>
</g>
<!-- Node206&#45;&gt;Node218 -->
<g id="edge33" class="edge">
<title>Node206&#45;&gt;Node218</title>
<path fill="none" stroke="#191970" d="M808.295,-281.3615C819.6427,-256.9863 852.8227,-192.3841 900,-158 902.6321,-156.0817 905.4673,-154.3508 908.42,-152.7898"/>
<polygon fill="#191970" stroke="#191970" points="909.9177,-155.9535 917.5446,-148.5995 906.9964,-149.5922 909.9177,-155.9535"/>
</g>
<!-- Node210&#45;&gt;Node203 -->
<g id="edge30" class="edge">
<title>Node210&#45;&gt;Node203</title>
<path fill="none" stroke="#191970" d="M999.0892,-262.5628C1005.4058,-265.0497 1011.6141,-268.1496 1017,-272 1038.6931,-287.5087 1031.2749,-304.5361 1053,-320 1089.1248,-345.7136 1137.4023,-360.217 1174.5649,-368.1514"/>
<polygon fill="#191970" stroke="#191970" points="1174.2357,-371.656 1184.7326,-370.219 1175.6306,-364.7964 1174.2357,-371.656"/>
</g>
<!-- Node211 -->
<g id="node27" class="node">
<title>Node211</title>
<g id="a_node27"><a xlink:href="classLSODA.html#a87757b30f48356ff9c77bf587ebb16d8" target="_top" xlink:title="LSODA::prja">
<polygon fill="none" stroke="#ff0000" points="1065,-291.5 1065,-310.5 1137,-310.5 1137,-291.5 1065,-291.5"/>
<text text-anchor="middle" x="1101" y="-298.5" font-family="Helvetica,sans-Serif" font-size="10.00" fill="#000000">LSODA::prja</text>
</a>
</g>
</g>
<!-- Node210&#45;&gt;Node211 -->
<g id="edge27" class="edge">
<title>Node210&#45;&gt;Node211</title>
<path fill="none" stroke="#191970" d="M988.2953,-262.5602C997.5093,-265.548 1007.6845,-268.8795 1017,-272 1032.4519,-277.1761 1049.4528,-283.0178 1064.0941,-288.0946"/>
<polygon fill="#191970" stroke="#191970" points="1063.2105,-291.4928 1073.8053,-291.4696 1065.5085,-284.8807 1063.2105,-291.4928"/>
</g>
<!-- Node214 -->
<g id="node28" class="node">
<title>Node214</title>
<g id="a_node28"><a xlink:href="classLSODA.html#ac7effc5da52973a91cb3409012f172e7" target="_top" xlink:title="LSODA::corfailure">
<polygon fill="none" stroke="#000000" points="1053,-243.5 1053,-262.5 1149,-262.5 1149,-243.5 1053,-243.5"/>
<text text-anchor="middle" x="1101" y="-250.5" font-family="Helvetica,sans-Serif" font-size="10.00" fill="#000000">LSODA::corfailure</text>
</a>
</g>
</g>
<!-- Node210&#45;&gt;Node214 -->
<g id="edge29" class="edge">
<title>Node210&#45;&gt;Node214</title>
<path fill="none" stroke="#191970" d="M1008.3396,-253C1019.4004,-253 1031.22,-253 1042.5887,-253"/>
<polygon fill="#191970" stroke="#191970" points="1042.8678,-256.5001 1052.8678,-253 1042.8677,-249.5001 1042.8678,-256.5001"/>
</g>
<!-- Node211&#45;&gt;Node203 -->
<g id="edge28" class="edge">
<title>Node211&#45;&gt;Node203</title>
<path fill="none" stroke="#191970" d="M1117.4646,-310.6255C1139.7356,-323.6454 1179.6683,-346.9907 1205.7465,-362.2364"/>
<polygon fill="#191970" stroke="#191970" points="1204.2697,-365.4272 1214.6691,-367.4527 1207.8026,-359.3841 1204.2697,-365.4272"/>
</g>
<!-- Node224 -->
<g id="node37" class="node">
<title>Node224</title>
<g id="a_node37"><a xlink:href="classSpecies__Base.html#aa6880c6f5c8ff125cab4d1195dedfb13" target="_top" xlink:title="Species_Base::getX">
<polygon fill="none" stroke="#000000" points="462.5,-338.5 462.5,-357.5 568.5,-357.5 568.5,-338.5 462.5,-338.5"/>
<text text-anchor="middle" x="515.5" y="-345.5" font-family="Helvetica,sans-Serif" font-size="10.00" fill="#000000">Species_Base::getX</text>
</a>
</g>
</g>
<!-- Node223&#45;&gt;Node224 -->
<g id="edge39" class="edge">
<title>Node223&#45;&gt;Node224</title>
<path fill="none" stroke="#191970" d="M380.3761,-278.0812C388.293,-280.615 396.0594,-283.8556 403,-288 423.8204,-300.4323 418.2866,-316.3903 439,-329 443.3451,-331.6451 448.0412,-333.9227 452.8949,-335.8837"/>
<polygon fill="#191970" stroke="#191970" points="451.7775,-339.2011 462.372,-339.2779 454.1378,-332.611 451.7775,-339.2011"/>
</g>
<!-- Node225 -->
<g id="node38" class="node">
<title>Node225</title>
<g id="a_node38"><a xlink:href="classSpecies__Base.html#ad412522fc071525a19f95609880b20ff" target="_top" xlink:title="Species_Base::getU">
<polygon fill="none" stroke="#000000" points="462,-300.5 462,-319.5 569,-319.5 569,-300.5 462,-300.5"/>
<text text-anchor="middle" x="515.5" y="-307.5" font-family="Helvetica,sans-Serif" font-size="10.00" fill="#000000">Species_Base::getU</text>
</a>
</g>
</g>
<!-- Node223&#45;&gt;Node225 -->
<g id="edge40" class="edge">
<title>Node223&#45;&gt;Node225</title>
<path fill="none" stroke="#191970" d="M365.7271,-278.5093C393.9292,-284.439 430.4156,-292.1105 460.3151,-298.397"/>
<polygon fill="#191970" stroke="#191970" points="459.6747,-301.8388 470.1809,-300.4714 461.115,-294.9886 459.6747,-301.8388"/>
</g>
<!-- Node226 -->
<g id="node39" class="node">
<title>Node226</title>
<g id="a_node39"><a xlink:href="classSpecies__Base.html#ad68f257218879207e9f6ed4cf3bd7eef" target="_top" xlink:title="Species_Base::growthRate\lGradient">
<polygon fill="none" stroke="#000000" points="447.5,-251 447.5,-281 583.5,-281 583.5,-251 447.5,-251"/>
<text text-anchor="start" x="455.5" y="-269" font-family="Helvetica,sans-Serif" font-size="10.00" fill="#000000">Species_Base::growthRate</text>
<text text-anchor="middle" x="515.5" y="-258" font-family="Helvetica,sans-Serif" font-size="10.00" fill="#000000">Gradient</text>
</a>
</g>
</g>
<!-- Node223&#45;&gt;Node226 -->
<g id="edge41" class="edge">
<title>Node223&#45;&gt;Node226</title>
<path fill="none" stroke="#191970" d="M380.066,-268.0836C398.1047,-267.8061 418.1959,-267.497 437.2633,-267.2036"/>
<polygon fill="#191970" stroke="#191970" points="437.4819,-270.7008 447.4268,-267.0473 437.3741,-263.7016 437.4819,-270.7008"/>
</g>
<!-- Node227 -->
<g id="node40" class="node">
<title>Node227</title>
<g id="a_node40"><a xlink:href="classSpecies__Base.html#a83ff45fc4f334241eeae08d523d343b5" target="_top" xlink:title="Species_Base::mortalityRate\lGradient">
<polygon fill="none" stroke="#000000" points="443.5,-202 443.5,-232 587.5,-232 587.5,-202 443.5,-202"/>
<text text-anchor="start" x="451.5" y="-220" font-family="Helvetica,sans-Serif" font-size="10.00" fill="#000000">Species_Base::mortalityRate</text>
<text text-anchor="middle" x="515.5" y="-209" font-family="Helvetica,sans-Serif" font-size="10.00" fill="#000000">Gradient</text>
</a>
</g>
</g>
<!-- Node223&#45;&gt;Node227 -->
<g id="edge42" class="edge">
<title>Node223&#45;&gt;Node227</title>
<path fill="none" stroke="#191970" d="M364.2897,-259.4207C376.828,-256.5411 390.4869,-253.2731 403,-250 420.531,-245.4143 439.4743,-240.0271 456.7276,-234.9505"/>
<polygon fill="#191970" stroke="#191970" points="458.0734,-238.2022 466.6673,-232.0057 456.085,-231.4905 458.0734,-238.2022"/>
</g>
<!-- Node228 -->
<g id="node41" class="node">
<title>Node228</title>
<g id="a_node41"><a xlink:href="classSpecies__Base.html#aad4cefae53644171dfcd12639d2e0e63" target="_top" xlink:title="Species_Base::establishment\lProbability">
<polygon fill="none" stroke="#000000" points="442.5,-153 442.5,-183 588.5,-183 588.5,-153 442.5,-153"/>
<text text-anchor="start" x="450.5" y="-171" font-family="Helvetica,sans-Serif" font-size="10.00" fill="#000000">Species_Base::establishment</text>
<text text-anchor="middle" x="515.5" y="-160" font-family="Helvetica,sans-Serif" font-size="10.00" fill="#000000">Probability</text>
</a>
</g>
</g>
<!-- Node223&#45;&gt;Node228 -->
<g id="edge43" class="edge">
<title>Node223&#45;&gt;Node228</title>
<path fill="none" stroke="#191970" d="M380.1637,-261.1925C388.2861,-258.4771 396.1665,-254.8467 403,-250 427.4397,-232.6657 415.3602,-211.4102 439,-193 441.3253,-191.1891 443.7869,-189.5068 446.3463,-187.9444"/>
<polygon fill="#191970" stroke="#191970" points="448.2281,-190.9062 455.3703,-183.0807 444.9069,-184.7442 448.2281,-190.9062"/>
</g>
<!-- Node229 -->
<g id="node42" class="node">
<title>Node229</title>
<g id="a_node42"><a xlink:href="classSpecies__Base.html#a6759c877ef7531a835326dcc11adb2c2" target="_top" xlink:title="Species_Base::get_u0">
<polygon fill="none" stroke="#000000" points="458,-114.5 458,-133.5 573,-133.5 573,-114.5 458,-114.5"/>
<text text-anchor="middle" x="515.5" y="-121.5" font-family="Helvetica,sans-Serif" font-size="10.00" fill="#000000">Species_Base::get_u0</text>
</a>
</g>
</g>
<!-- Node223&#45;&gt;Node229 -->
<g id="edge44" class="edge">
<title>Node223&#45;&gt;Node229</title>
<path fill="none" stroke="#191970" d="M380.0231,-263.04C388.4496,-260.0978 396.4573,-255.9129 403,-250 439.9132,-216.6402 402.5805,-177.898 439,-144 441.9675,-141.238 445.2683,-138.8471 448.7861,-136.7784"/>
<polygon fill="#191970" stroke="#191970" points="450.4945,-139.8383 457.9109,-132.2721 447.3949,-133.5619 450.4945,-139.8383"/>
</g>
<!-- Node230 -->
<g id="node43" class="node">
<title>Node230</title>
<g id="a_node43"><a xlink:href="classSpecies__Base.html#abe98e190e76cfd39eee7ef3d30141d53" target="_top" xlink:title="Species_Base::growthRate">
<polygon fill="none" stroke="#000000" points="447.5,-76.5 447.5,-95.5 583.5,-95.5 583.5,-76.5 447.5,-76.5"/>
<text text-anchor="middle" x="515.5" y="-83.5" font-family="Helvetica,sans-Serif" font-size="10.00" fill="#000000">Species_Base::growthRate</text>
</a>
</g>
</g>
<!-- Node223&#45;&gt;Node230 -->
<g id="edge45" class="edge">
<title>Node223&#45;&gt;Node230</title>
<path fill="none" stroke="#191970" d="M380.0512,-263.6632C388.5759,-260.6545 396.6066,-256.2856 403,-250 450.3499,-203.4482 392.0494,-151.9546 439,-105 440.2972,-103.7027 441.6684,-102.4891 443.1021,-101.3541"/>
<polygon fill="#191970" stroke="#191970" points="445.407,-104.0329 451.9199,-95.6763 441.6172,-98.1475 445.407,-104.0329"/>
</g>
<!-- Node231 -->
<g id="node44" class="node">
<title>Node231</title>
<g id="a_node44"><a xlink:href="classSpecies__Base.html#a59ab3c647c48a819f1911957e5724d5e" target="_top" xlink:title="Species_Base::mortalityRate">
<polygon fill="none" stroke="#000000" points="443.5,-38.5 443.5,-57.5 587.5,-57.5 587.5,-38.5 443.5,-38.5"/>
<text text-anchor="middle" x="515.5" y="-45.5" font-family="Helvetica,sans-Serif" font-size="10.00" fill="#000000">Species_Base::mortalityRate</text>
</a>
</g>
</g>
<!-- Node223&#45;&gt;Node231 -->
<g id="edge46" class="edge">
<title>Node223&#45;&gt;Node231</title>
<path fill="none" stroke="#191970" d="M380.3232,-263.9332C388.814,-260.8908 396.7629,-256.4407 403,-250 460.6649,-190.4528 381.8458,-127.0376 439,-67 440.2325,-65.7053 441.5385,-64.4932 442.9071,-63.3588"/>
<polygon fill="#191970" stroke="#191970" points="445.013,-66.1604 451.3566,-57.6746 441.1057,-60.3523 445.013,-66.1604"/>
</g>
<!-- Node232 -->
<g id="node45" class="node">
<title>Node232</title>
<g id="a_node45"><a xlink:href="classSpecies__Base.html#a1c47d1905fa4da0a1f203f641f6ed2af" target="_top" xlink:title="Species_Base::getExtraRates">
<polygon fill="none" stroke="#000000" points="441,-.5 441,-19.5 590,-19.5 590,-.5 441,-.5"/>
<text text-anchor="middle" x="515.5" y="-7.5" font-family="Helvetica,sans-Serif" font-size="10.00" fill="#000000">Species_Base::getExtraRates</text>
</a>
</g>
</g>
<!-- Node223&#45;&gt;Node232 -->
<g id="edge47" class="edge">
<title>Node223&#45;&gt;Node232</title>
<path fill="none" stroke="#191970" d="M380.0914,-264.2591C388.7167,-261.1922 396.7688,-256.6492 403,-250 471.0497,-177.3857 371.573,-102.193 439,-29 440.2112,-27.6853 441.4979,-26.4552 442.8493,-25.3047"/>
<polygon fill="#191970" stroke="#191970" points="444.9645,-28.0979 451.2213,-19.5479 440.9983,-22.33 444.9645,-28.0979"/>
</g>
</g>
</svg>
