<?xml version="1.0" encoding="UTF-8" standalone="no"?>
<!DOCTYPE svg PUBLIC "-//W3C//DTD SVG 1.1//EN"
 "http://www.w3.org/Graphics/SVG/1.1/DTD/svg11.dtd">
<!-- Generated by graphviz version 2.40.1 (20161225.0304)
 -->
<!-- Title: LSODA::prja Pages: 1 -->
<svg width="208pt" height="104pt"
 viewBox="0.00 0.00 208.00 104.00" xmlns="http://www.w3.org/2000/svg" xmlns:xlink="http://www.w3.org/1999/xlink">
<g id="graph0" class="graph" transform="scale(1 1) rotate(0) translate(4 100)">
<title>LSODA::prja</title>
<!-- Node169 -->
<g id="node1" class="node">
<title>Node169</title>
<polygon fill="#bfbfbf" stroke="#000000" points="0,-38.5 0,-57.5 72,-57.5 72,-38.5 0,-38.5"/>
<text text-anchor="middle" x="36" y="-45.5" font-family="Helvetica,sans-Serif" font-size="10.00" fill="#000000">LSODA::prja</text>
</g>
<!-- Node170 -->
<g id="node2" class="node">
<title>Node170</title>
<g id="a_node2"><a xlink:href="classLSODA.html#ac94b738016b2a7c57cedd5ea4f13311f" target="_top" xlink:title="LSODA::vmnorm">
<polygon fill="none" stroke="#000000" points="108,-76.5 108,-95.5 200,-95.5 200,-76.5 108,-76.5"/>
<text text-anchor="middle" x="154" y="-83.5" font-family="Helvetica,sans-Serif" font-size="10.00" fill="#000000">LSODA::vmnorm</text>
</a>
</g>
</g>
<!-- Node169&#45;&gt;Node170 -->
<g id="edge1" class="edge">
<title>Node169&#45;&gt;Node170</title>
<path fill="none" stroke="#191970" d="M65.7764,-57.589C80.5898,-62.3594 98.6914,-68.1888 114.6342,-73.3229"/>
<polygon fill="#191970" stroke="#191970" points="113.6416,-76.6802 124.2331,-76.4141 115.7874,-70.0172 113.6416,-76.6802"/>
</g>
<!-- Node171 -->
<g id="node3" class="node">
<title>Node171</title>
<g id="a_node3"><a xlink:href="classLSODA.html#ab6221280caead6f45c316c261e8de713" target="_top" xlink:title="LSODA::fnorm">
<polygon fill="none" stroke="#000000" points="113.5,-38.5 113.5,-57.5 194.5,-57.5 194.5,-38.5 113.5,-38.5"/>
<text text-anchor="middle" x="154" y="-45.5" font-family="Helvetica,sans-Serif" font-size="10.00" fill="#000000">LSODA::fnorm</text>
</a>
</g>
</g>
<!-- Node169&#45;&gt;Node171 -->
<g id="edge2" class="edge">
<title>Node169&#45;&gt;Node171</title>
<path fill="none" stroke="#191970" d="M72.0451,-48C81.8049,-48 92.5576,-48 102.9726,-48"/>
<polygon fill="#191970" stroke="#191970" points="103.2259,-51.5001 113.2259,-48 103.2258,-44.5001 103.2259,-51.5001"/>
</g>
<!-- Node172 -->
<g id="node4" class="node">
<title>Node172</title>
<g id="a_node4"><a xlink:href="classLSODA.html#a9aade25a1818e2af775a17a1ed2ba4f9" target="_top" xlink:title="LSODA::dgefa">
<polygon fill="none" stroke="#000000" points="114,-.5 114,-19.5 194,-19.5 194,-.5 114,-.5"/>
<text text-anchor="middle" x="154" y="-7.5" font-family="Helvetica,sans-Serif" font-size="10.00" fill="#000000">LSODA::dgefa</text>
</a>
</g>
</g>
<!-- Node169&#45;&gt;Node172 -->
<g id="edge3" class="edge">
<title>Node169&#45;&gt;Node172</title>
<path fill="none" stroke="#191970" d="M65.7764,-38.411C80.5898,-33.6406 98.6914,-27.8112 114.6342,-22.6771"/>
<polygon fill="#191970" stroke="#191970" points="115.7874,-25.9828 124.2331,-19.5859 113.6416,-19.3198 115.7874,-25.9828"/>
</g>
</g>
</svg>
