<?xml version="1.0" encoding="UTF-8" standalone="no"?>
<!DOCTYPE svg PUBLIC "-//W3C//DTD SVG 1.1//EN"
 "http://www.w3.org/Graphics/SVG/1.1/DTD/svg11.dtd">
<!-- Generated by graphviz version 2.40.1 (20161225.0304)
 -->
<!-- Title: RKCK45::RKStep Pages: 1 -->
<svg width="354pt" height="85pt"
 viewBox="0.00 0.00 354.00 85.00" xmlns="http://www.w3.org/2000/svg" xmlns:xlink="http://www.w3.org/1999/xlink">
<g id="graph0" class="graph" transform="scale(1 1) rotate(0) translate(4 81)">
<title>RKCK45::RKStep</title>
<!-- Node35 -->
<g id="node1" class="node">
<title>Node35</title>
<polygon fill="#bfbfbf" stroke="#000000" points="0,-19.5 0,-38.5 96,-38.5 96,-19.5 0,-19.5"/>
<text text-anchor="middle" x="48" y="-26.5" font-family="Helvetica,sans-Serif" font-size="10.00" fill="#000000">RKCK45::RKStep</text>
</g>
<!-- Node36 -->
<g id="node2" class="node">
<title>Node36</title>
<g id="a_node2"><a xlink:href="classRKCK45.html#ad30346cd92d32df6663deb6d0f4619a5" target="_top" xlink:title="RKCK45::h">
<polygon fill="none" stroke="#000000" points="143.5,-57.5 143.5,-76.5 210.5,-76.5 210.5,-57.5 143.5,-57.5"/>
<text text-anchor="middle" x="177" y="-64.5" font-family="Helvetica,sans-Serif" font-size="10.00" fill="#000000">RKCK45::h</text>
</a>
</g>
</g>
<!-- Node35&#45;&gt;Node36 -->
<g id="edge1" class="edge">
<title>Node35&#45;&gt;Node36</title>
<path fill="none" stroke="#191970" d="M80.5521,-38.589C96.8993,-43.4044 116.9092,-49.2988 134.4571,-54.468"/>
<polygon fill="#191970" stroke="#191970" points="133.8768,-57.9457 144.4583,-57.4141 135.8548,-51.2309 133.8768,-57.9457"/>
</g>
<!-- Node37 -->
<g id="node3" class="node">
<title>Node37</title>
<g id="a_node3"><a xlink:href="classRKCK45.html#ab304a56995de997c15d992f5665b94e5" target="_top" xlink:title="RKCK45::RKTry">
<polygon fill="none" stroke="#000000" points="132,-19.5 132,-38.5 222,-38.5 222,-19.5 132,-19.5"/>
<text text-anchor="middle" x="177" y="-26.5" font-family="Helvetica,sans-Serif" font-size="10.00" fill="#000000">RKCK45::RKTry</text>
</a>
</g>
</g>
<!-- Node35&#45;&gt;Node37 -->
<g id="edge2" class="edge">
<title>Node35&#45;&gt;Node37</title>
<path fill="none" stroke="#191970" d="M96.0348,-22.4494C104.3869,-22.243 113.1337,-22.1968 121.6623,-22.3109"/>
<polygon fill="#191970" stroke="#191970" points="121.8437,-25.8155 131.916,-22.5295 121.9929,-18.8171 121.8437,-25.8155"/>
</g>
<!-- Node37&#45;&gt;Node35 -->
<g id="edge5" class="edge">
<title>Node37&#45;&gt;Node35</title>
<path fill="none" stroke="#191970" d="M131.916,-35.4705C123.5754,-35.7175 114.7572,-35.8008 106.0946,-35.7203"/>
<polygon fill="#191970" stroke="#191970" points="106.0925,-32.2199 96.0348,-35.5506 105.9743,-39.2189 106.0925,-32.2199"/>
</g>
<!-- Node38 -->
<g id="node4" class="node">
<title>Node38</title>
<g id="a_node4"><a xlink:href="classRKCK45.html#ac38757c7ff000b18a23c5938d8346e17" target="_top" xlink:title="RKCK45::Step">
<polygon fill="none" stroke="#000000" points="261,-38.5 261,-57.5 343,-57.5 343,-38.5 261,-38.5"/>
<text text-anchor="middle" x="302" y="-45.5" font-family="Helvetica,sans-Serif" font-size="10.00" fill="#000000">RKCK45::Step</text>
</a>
</g>
</g>
<!-- Node37&#45;&gt;Node38 -->
<g id="edge3" class="edge">
<title>Node37&#45;&gt;Node38</title>
<path fill="none" stroke="#191970" d="M222.1279,-35.8594C231.3719,-37.2645 241.1667,-38.7533 250.6116,-40.189"/>
<polygon fill="#191970" stroke="#191970" points="250.2681,-43.6769 260.6805,-41.7194 251.3201,-36.7564 250.2681,-43.6769"/>
</g>
<!-- Node39 -->
<g id="node5" class="node">
<title>Node39</title>
<g id="a_node5"><a xlink:href="classRKCK45.html#af7ed85b9bd7f3aee9779517c9a885b39" target="_top" xlink:title="RKCK45::resize">
<polygon fill="none" stroke="#000000" points="258,-.5 258,-19.5 346,-19.5 346,-.5 258,-.5"/>
<text text-anchor="middle" x="302" y="-7.5" font-family="Helvetica,sans-Serif" font-size="10.00" fill="#000000">RKCK45::resize</text>
</a>
</g>
</g>
<!-- Node37&#45;&gt;Node39 -->
<g id="edge4" class="edge">
<title>Node37&#45;&gt;Node39</title>
<path fill="none" stroke="#191970" d="M222.1279,-22.1406C230.4715,-20.8723 239.2639,-19.5359 247.8427,-18.2319"/>
<polygon fill="#191970" stroke="#191970" points="248.4153,-21.6852 257.7758,-16.7221 247.3633,-14.7647 248.4153,-21.6852"/>
</g>
</g>
</svg>
