<?xml version="1.0" encoding="UTF-8" standalone="no"?>
<!DOCTYPE svg PUBLIC "-//W3C//DTD SVG 1.1//EN"
 "http://www.w3.org/Graphics/SVG/1.1/DTD/svg11.dtd">
<!-- Generated by graphviz version 2.40.1 (20161225.0304)
 -->
<!-- Title: Solver::step_to Pages: 1 -->
<svg width="1019pt" height="720pt"
 viewBox="0.00 0.00 1019.00 720.00" xmlns="http://www.w3.org/2000/svg" xmlns:xlink="http://www.w3.org/1999/xlink">
<g id="graph0" class="graph" transform="scale(1 1) rotate(0) translate(4 716)">
<title>Solver::step_to</title>
<!-- Node131 -->
<g id="node1" class="node">
<title>Node131</title>
<polygon fill="#bfbfbf" stroke="#000000" points="0,-306.5 0,-325.5 83,-325.5 83,-306.5 0,-306.5"/>
<text text-anchor="middle" x="41.5" y="-313.5" font-family="Helvetica,sans-Serif" font-size="10.00" fill="#000000">Solver::step_to</text>
</g>
<!-- Node132 -->
<g id="node2" class="node">
<title>Node132</title>
<g id="a_node2"><a xlink:href="classSolver.html#ad3f68f3021eed287c5b1c85bdc24afd8" target="_top" xlink:title="Solver::copyStateToCohorts">
<polygon fill="none" stroke="#000000" points="131.5,-632.5 131.5,-651.5 271.5,-651.5 271.5,-632.5 131.5,-632.5"/>
<text text-anchor="middle" x="201.5" y="-639.5" font-family="Helvetica,sans-Serif" font-size="10.00" fill="#000000">Solver::copyStateToCohorts</text>
</a>
</g>
</g>
<!-- Node131&#45;&gt;Node132 -->
<g id="edge1" class="edge">
<title>Node131&#45;&gt;Node132</title>
<path fill="none" stroke="#191970" d="M43.6715,-325.786C51.0192,-357.757 76.8683,-461.4703 119,-538 137.4783,-571.5648 166.7499,-605.3955 185.0032,-624.9912"/>
<polygon fill="#191970" stroke="#191970" points="182.6715,-627.6193 192.0878,-632.4755 187.7551,-622.8071 182.6715,-627.6193"/>
</g>
<!-- Node136 -->
<g id="node6" class="node">
<title>Node136</title>
<g id="a_node6"><a xlink:href="classEnvironmentBase.html#ae8ee835be256735745ed1c68161b0f17" target="_top" xlink:title="EnvironmentBase::computeEnv">
<polygon fill="none" stroke="#000000" points="124,-509.5 124,-528.5 279,-528.5 279,-509.5 124,-509.5"/>
<text text-anchor="middle" x="201.5" y="-516.5" font-family="Helvetica,sans-Serif" font-size="10.00" fill="#000000">EnvironmentBase::computeEnv</text>
</a>
</g>
</g>
<!-- Node131&#45;&gt;Node136 -->
<g id="edge5" class="edge">
<title>Node131&#45;&gt;Node136</title>
<path fill="none" stroke="#191970" d="M42.5425,-325.8077C46.3667,-356.6571 62.4956,-452.479 119,-500 120.9685,-501.6555 123.0534,-503.1735 125.2296,-504.565"/>
<polygon fill="#191970" stroke="#191970" points="123.5628,-507.6426 134.0227,-509.3285 126.8971,-501.4877 123.5628,-507.6426"/>
</g>
<!-- Node137 -->
<g id="node7" class="node">
<title>Node137</title>
<g id="a_node7"><a xlink:href="classSolver.html#af574bcfab58cef5440c32fa87b027e7d" target="_top" xlink:title="Solver::preComputeSpecies">
<polygon fill="none" stroke="#000000" points="132,-471.5 132,-490.5 271,-490.5 271,-471.5 132,-471.5"/>
<text text-anchor="middle" x="201.5" y="-478.5" font-family="Helvetica,sans-Serif" font-size="10.00" fill="#000000">Solver::preComputeSpecies</text>
</a>
</g>
</g>
<!-- Node131&#45;&gt;Node137 -->
<g id="edge6" class="edge">
<title>Node131&#45;&gt;Node137</title>
<path fill="none" stroke="#191970" d="M43.6579,-325.6409C50.0808,-351.9895 71.6478,-425.6596 119,-462 121.3502,-463.8037 123.8417,-465.4411 126.4378,-466.9273"/>
<polygon fill="#191970" stroke="#191970" points="125.0932,-470.1659 135.6136,-471.4193 128.1711,-463.8788 125.0932,-470.1659"/>
</g>
<!-- Node138 -->
<g id="node8" class="node">
<title>Node138</title>
<g id="a_node8"><a xlink:href="classSolver.html#a2ea9fb6abc4ffd5ac28154332029da40" target="_top" xlink:title="Solver::calcRates_FMU">
<polygon fill="none" stroke="#000000" points="140.5,-433.5 140.5,-452.5 262.5,-452.5 262.5,-433.5 140.5,-433.5"/>
<text text-anchor="middle" x="201.5" y="-440.5" font-family="Helvetica,sans-Serif" font-size="10.00" fill="#000000">Solver::calcRates_FMU</text>
</a>
</g>
</g>
<!-- Node131&#45;&gt;Node138 -->
<g id="edge7" class="edge">
<title>Node131&#45;&gt;Node138</title>
<path fill="none" stroke="#191970" d="M45.4876,-325.5711C54.8887,-346.8916 80.5793,-398.422 119,-424 122.7488,-426.4957 126.782,-428.6661 130.9779,-430.5535"/>
<polygon fill="#191970" stroke="#191970" points="129.789,-433.8468 140.3762,-434.2492 132.3508,-427.3324 129.789,-433.8468"/>
</g>
<!-- Node140 -->
<g id="node10" class="node">
<title>Node140</title>
<g id="a_node10"><a xlink:href="classOdeSolver.html#a77d9f02ed28d5515366e6be08560f35a" target="_top" xlink:title="OdeSolver::step_to">
<polygon fill="none" stroke="#000000" points="151,-395.5 151,-414.5 252,-414.5 252,-395.5 151,-395.5"/>
<text text-anchor="middle" x="201.5" y="-402.5" font-family="Helvetica,sans-Serif" font-size="10.00" fill="#000000">OdeSolver::step_to</text>
</a>
</g>
</g>
<!-- Node131&#45;&gt;Node140 -->
<g id="edge9" class="edge">
<title>Node131&#45;&gt;Node140</title>
<path fill="none" stroke="#191970" d="M52.6699,-325.7047C67.1833,-337.9523 93.6714,-359.0945 119,-373 132.3288,-380.3176 147.6832,-386.7602 161.5045,-391.9106"/>
<polygon fill="#191970" stroke="#191970" points="160.6524,-395.3239 171.2467,-395.4265 163.0287,-388.7396 160.6524,-395.3239"/>
</g>
<!-- Node172 -->
<g id="node34" class="node">
<title>Node172</title>
<g id="a_node34"><a xlink:href="classSolver.html#a8f96f44ff535452912b2a3a2fc43e60e" target="_top" xlink:title="Solver::stepU_iFMU">
<polygon fill="none" stroke="#000000" points="148.5,-344.5 148.5,-363.5 254.5,-363.5 254.5,-344.5 148.5,-344.5"/>
<text text-anchor="middle" x="201.5" y="-351.5" font-family="Helvetica,sans-Serif" font-size="10.00" fill="#000000">Solver::stepU_iFMU</text>
</a>
</g>
</g>
<!-- Node131&#45;&gt;Node172 -->
<g id="edge35" class="edge">
<title>Node131&#45;&gt;Node172</title>
<path fill="none" stroke="#191970" d="M80.1063,-325.578C92.5167,-328.6266 106.3309,-331.9883 119,-335 128.8666,-337.3455 139.4078,-339.8069 149.5433,-342.1514"/>
<polygon fill="#191970" stroke="#191970" points="148.9727,-345.6116 159.5035,-344.4482 150.5457,-338.7906 148.9727,-345.6116"/>
</g>
<!-- Node173 -->
<g id="node35" class="node">
<title>Node173</title>
<g id="a_node35"><a xlink:href="classSolver.html#af20fce0c27f051dfb93383069a77fd72" target="_top" xlink:title="Solver::calcRates_iFMU">
<polygon fill="none" stroke="#000000" points="139.5,-306.5 139.5,-325.5 263.5,-325.5 263.5,-306.5 139.5,-306.5"/>
<text text-anchor="middle" x="201.5" y="-313.5" font-family="Helvetica,sans-Serif" font-size="10.00" fill="#000000">Solver::calcRates_iFMU</text>
</a>
</g>
</g>
<!-- Node131&#45;&gt;Node173 -->
<g id="edge36" class="edge">
<title>Node131&#45;&gt;Node173</title>
<path fill="none" stroke="#191970" d="M83.1204,-316C97.172,-316 113.2939,-316 129.0244,-316"/>
<polygon fill="#191970" stroke="#191970" points="129.2793,-319.5001 139.2793,-316 129.2792,-312.5001 129.2793,-319.5001"/>
</g>
<!-- Node174 -->
<g id="node36" class="node">
<title>Node174</title>
<g id="a_node36"><a xlink:href="classSolver.html#a23be16428b7ba399bfd2f06555547f6b" target="_top" xlink:title="Solver::calcRates_EBT">
<polygon fill="none" stroke="#000000" points="142,-268.5 142,-287.5 261,-287.5 261,-268.5 142,-268.5"/>
<text text-anchor="middle" x="201.5" y="-275.5" font-family="Helvetica,sans-Serif" font-size="10.00" fill="#000000">Solver::calcRates_EBT</text>
</a>
</g>
</g>
<!-- Node131&#45;&gt;Node174 -->
<g id="edge37" class="edge">
<title>Node131&#45;&gt;Node174</title>
<path fill="none" stroke="#191970" d="M80.1063,-306.422C92.5167,-303.3734 106.3309,-300.0117 119,-297 128.8666,-294.6545 139.4078,-292.1931 149.5433,-289.8486"/>
<polygon fill="#191970" stroke="#191970" points="150.5457,-293.2094 159.5035,-287.5518 148.9727,-286.3884 150.5457,-293.2094"/>
</g>
<!-- Node184 -->
<g id="node46" class="node">
<title>Node184</title>
<g id="a_node46"><a xlink:href="classSolver.html#a755d2db1e1e57bb998526cd604bd7565" target="_top" xlink:title="Solver::removeDeadCohorts_EBT">
<polygon fill="none" stroke="#000000" points="119,-230.5 119,-249.5 284,-249.5 284,-230.5 119,-230.5"/>
<text text-anchor="middle" x="201.5" y="-237.5" font-family="Helvetica,sans-Serif" font-size="10.00" fill="#000000">Solver::removeDeadCohorts_EBT</text>
</a>
</g>
</g>
<!-- Node131&#45;&gt;Node184 -->
<g id="edge47" class="edge">
<title>Node131&#45;&gt;Node184</title>
<path fill="none" stroke="#191970" d="M51.6477,-306.3719C65.6712,-293.6045 92.2834,-271.2609 119,-259 124.3913,-256.5258 130.1332,-254.3595 135.9812,-252.4655"/>
<polygon fill="#191970" stroke="#191970" points="137.2883,-255.7285 145.8798,-249.5288 135.2973,-249.0176 137.2883,-255.7285"/>
</g>
<!-- Node185 -->
<g id="node47" class="node">
<title>Node185</title>
<g id="a_node47"><a xlink:href="classSolver.html#a1b1f4ba3186796d37c909c6b26c7d6f2" target="_top" xlink:title="Solver::addCohort_EBT">
<polygon fill="none" stroke="#000000" points="141.5,-192.5 141.5,-211.5 261.5,-211.5 261.5,-192.5 141.5,-192.5"/>
<text text-anchor="middle" x="201.5" y="-199.5" font-family="Helvetica,sans-Serif" font-size="10.00" fill="#000000">Solver::addCohort_EBT</text>
</a>
</g>
</g>
<!-- Node131&#45;&gt;Node185 -->
<g id="edge48" class="edge">
<title>Node131&#45;&gt;Node185</title>
<path fill="none" stroke="#191970" d="M46.4381,-306.4218C56.9653,-287.0157 83.5747,-243.034 119,-221 123.0757,-218.465 127.4541,-216.2675 131.9915,-214.3628"/>
<polygon fill="#191970" stroke="#191970" points="133.3195,-217.6034 141.4828,-210.8497 130.8896,-211.0386 133.3195,-217.6034"/>
</g>
<!-- Node186 -->
<g id="node48" class="node">
<title>Node186</title>
<g id="a_node48"><a xlink:href="classSolver.html#ab712f582d6f785adb8620cb40bbb3de4" target="_top" xlink:title="Solver::calcRates_CM">
<polygon fill="none" stroke="#000000" points="143.5,-154.5 143.5,-173.5 259.5,-173.5 259.5,-154.5 143.5,-154.5"/>
<text text-anchor="middle" x="201.5" y="-161.5" font-family="Helvetica,sans-Serif" font-size="10.00" fill="#000000">Solver::calcRates_CM</text>
</a>
</g>
</g>
<!-- Node131&#45;&gt;Node186 -->
<g id="edge49" class="edge">
<title>Node131&#45;&gt;Node186</title>
<path fill="none" stroke="#191970" d="M44.1413,-306.4972C51.5012,-281.8727 74.6715,-215.6457 119,-183 123.512,-179.6771 128.5099,-176.9226 133.7488,-174.6408"/>
<polygon fill="#191970" stroke="#191970" points="135.254,-177.8143 143.3864,-171.0234 132.7942,-171.2607 135.254,-177.8143"/>
</g>
<!-- Node187 -->
<g id="node49" class="node">
<title>Node187</title>
<g id="a_node49"><a xlink:href="classSolver.html#af6469f699052d7c5fc9192c75b597f30" target="_top" xlink:title="Solver::addCohort_CM">
<polygon fill="none" stroke="#000000" points="143.5,-116.5 143.5,-135.5 259.5,-135.5 259.5,-116.5 143.5,-116.5"/>
<text text-anchor="middle" x="201.5" y="-123.5" font-family="Helvetica,sans-Serif" font-size="10.00" fill="#000000">Solver::addCohort_CM</text>
</a>
</g>
</g>
<!-- Node131&#45;&gt;Node187 -->
<g id="edge50" class="edge">
<title>Node131&#45;&gt;Node187</title>
<path fill="none" stroke="#191970" d="M42.842,-306.4602C47.4686,-277.3131 65.5235,-188.761 119,-145 123.4077,-141.3931 128.3713,-138.4428 133.6215,-136.0329"/>
<polygon fill="#191970" stroke="#191970" points="135.2755,-139.1449 143.3232,-132.2538 132.7348,-132.6222 135.2755,-139.1449"/>
</g>
<!-- Node188 -->
<g id="node50" class="node">
<title>Node188</title>
<g id="a_node50"><a xlink:href="classSolver.html#ad4c2e8d0c5a11726f47553adcf0f4c73" target="_top" xlink:title="Solver::removeCohort_CM">
<polygon fill="none" stroke="#000000" points="135,-78.5 135,-97.5 268,-97.5 268,-78.5 135,-78.5"/>
<text text-anchor="middle" x="201.5" y="-85.5" font-family="Helvetica,sans-Serif" font-size="10.00" fill="#000000">Solver::removeCohort_CM</text>
</a>
</g>
</g>
<!-- Node131&#45;&gt;Node188 -->
<g id="edge51" class="edge">
<title>Node131&#45;&gt;Node188</title>
<path fill="none" stroke="#191970" d="M41.9864,-306.3286C44.2058,-273.0346 56.2134,-162.1825 119,-107 121.0286,-105.2171 123.191,-103.5922 125.4576,-102.1119"/>
<polygon fill="#191970" stroke="#191970" points="127.5543,-104.9549 134.6536,-97.0904 124.1995,-98.8112 127.5543,-104.9549"/>
</g>
<!-- Node133 -->
<g id="node3" class="node">
<title>Node133</title>
<g id="a_node3"><a xlink:href="classSpecies__Base.html#ad9ddab41ba3c6e242f1b3a8a50ed7a36" target="_top" xlink:title="Species_Base::setU">
<polygon fill="none" stroke="#000000" points="343,-692.5 343,-711.5 450,-711.5 450,-692.5 343,-692.5"/>
<text text-anchor="middle" x="396.5" y="-699.5" font-family="Helvetica,sans-Serif" font-size="10.00" fill="#000000">Species_Base::setU</text>
</a>
</g>
</g>
<!-- Node132&#45;&gt;Node133 -->
<g id="edge2" class="edge">
<title>Node132&#45;&gt;Node133</title>
<path fill="none" stroke="#191970" d="M227.1745,-651.6303C251.0323,-660.4004 287.6496,-673.4071 320,-683 328.1098,-685.4048 336.7634,-687.756 345.2252,-689.9393"/>
<polygon fill="#191970" stroke="#191970" points="344.4736,-693.3594 355.0265,-692.4183 346.1901,-686.5731 344.4736,-693.3594"/>
</g>
<!-- Node134 -->
<g id="node4" class="node">
<title>Node134</title>
<g id="a_node4"><a xlink:href="classSpecies__Base.html#a86a04ae53b3f25c4e90b01a8eaed3bfd" target="_top" xlink:title="Species_Base::setX">
<polygon fill="none" stroke="#000000" points="343.5,-654.5 343.5,-673.5 449.5,-673.5 449.5,-654.5 343.5,-654.5"/>
<text text-anchor="middle" x="396.5" y="-661.5" font-family="Helvetica,sans-Serif" font-size="10.00" fill="#000000">Species_Base::setX</text>
</a>
</g>
</g>
<!-- Node132&#45;&gt;Node134 -->
<g id="edge3" class="edge">
<title>Node132&#45;&gt;Node134</title>
<path fill="none" stroke="#191970" d="M271.624,-649.9114C291.7079,-652.1773 313.4782,-654.6334 333.1312,-656.8507"/>
<polygon fill="#191970" stroke="#191970" points="332.8659,-660.3429 343.1953,-657.9861 333.6507,-653.387 332.8659,-660.3429"/>
</g>
<!-- Node135 -->
<g id="node5" class="node">
<title>Node135</title>
<g id="a_node5"><a xlink:href="classSpecies__Base.html#a2ca0ef18e0b775f6efc02b026bd2f5ac" target="_top" xlink:title="Species_Base::copyExtraState\lToCohorts">
<polygon fill="none" stroke="#000000" points="320,-605 320,-635 473,-635 473,-605 320,-605"/>
<text text-anchor="start" x="328" y="-623" font-family="Helvetica,sans-Serif" font-size="10.00" fill="#000000">Species_Base::copyExtraState</text>
<text text-anchor="middle" x="396.5" y="-612" font-family="Helvetica,sans-Serif" font-size="10.00" fill="#000000">ToCohorts</text>
</a>
</g>
</g>
<!-- Node132&#45;&gt;Node135 -->
<g id="edge4" class="edge">
<title>Node132&#45;&gt;Node135</title>
<path fill="none" stroke="#191970" d="M271.624,-634.0886C283.9444,-632.6986 296.8994,-631.237 309.611,-629.8029"/>
<polygon fill="#191970" stroke="#191970" points="310.1919,-633.2596 319.7364,-628.6605 309.4071,-626.3037 310.1919,-633.2596"/>
</g>
<!-- Node139 -->
<g id="node9" class="node">
<title>Node139</title>
<g id="a_node9"><a xlink:href="fmu_8cpp.html#af0b176a8634995ec9711c803bb30743a" target="_top" xlink:title="phi">
<polygon fill="none" stroke="#000000" points="382,-566.5 382,-585.5 411,-585.5 411,-566.5 382,-566.5"/>
<text text-anchor="middle" x="396.5" y="-573.5" font-family="Helvetica,sans-Serif" font-size="10.00" fill="#000000">phi</text>
</a>
</g>
</g>
<!-- Node138&#45;&gt;Node139 -->
<g id="edge8" class="edge">
<title>Node138&#45;&gt;Node139</title>
<path fill="none" stroke="#191970" d="M262.5282,-449.7614C270.3621,-452.6353 277.7983,-456.5885 284,-462 318.0211,-491.6864 286.2338,-527.0241 320,-557 334.1876,-569.595 355.4434,-574.1207 371.9514,-575.623"/>
<polygon fill="#191970" stroke="#191970" points="371.7994,-579.1201 381.9919,-576.2282 372.2206,-572.1328 371.7994,-579.1201"/>
</g>
<!-- Node141 -->
<g id="node11" class="node">
<title>Node141</title>
<g id="a_node11"><a xlink:href="classRKCK45.html#a91b5ae2e8a9dadc117e6412f054afa59" target="_top" xlink:title="RKCK45::Step_to">
<polygon fill="none" stroke="#000000" points="349,-528.5 349,-547.5 444,-547.5 444,-528.5 349,-528.5"/>
<text text-anchor="middle" x="396.5" y="-535.5" font-family="Helvetica,sans-Serif" font-size="10.00" fill="#000000">RKCK45::Step_to</text>
</a>
</g>
</g>
<!-- Node140&#45;&gt;Node141 -->
<g id="edge10" class="edge">
<title>Node140&#45;&gt;Node141</title>
<path fill="none" stroke="#191970" d="M252.3029,-408.6313C263.7614,-411.5147 275.1404,-416.2692 284,-424 318.0211,-453.6864 286.2338,-489.0241 320,-519 325.5583,-523.9344 332.2015,-527.6302 339.219,-530.391"/>
<polygon fill="#191970" stroke="#191970" points="338.3605,-533.7933 348.9536,-533.6045 340.5549,-527.1461 338.3605,-533.7933"/>
</g>
<!-- Node147 -->
<g id="node17" class="node">
<title>Node147</title>
<g id="a_node17"><a xlink:href="classLSODA.html#a278bb538d9b0354084473a931567a023" target="_top" xlink:title="LSODA::set_istate">
<polygon fill="none" stroke="#000000" points="347,-490.5 347,-509.5 446,-509.5 446,-490.5 347,-490.5"/>
<text text-anchor="middle" x="396.5" y="-497.5" font-family="Helvetica,sans-Serif" font-size="10.00" fill="#000000">LSODA::set_istate</text>
</a>
</g>
</g>
<!-- Node140&#45;&gt;Node147 -->
<g id="edge16" class="edge">
<title>Node140&#45;&gt;Node147</title>
<path fill="none" stroke="#191970" d="M252.128,-410.1638C263.3374,-413.013 274.649,-417.3676 284,-424 308.4397,-441.3343 295.7092,-463.4576 320,-481 325.1692,-484.7331 330.9909,-487.7367 337.0563,-490.1527"/>
<polygon fill="#191970" stroke="#191970" points="336.135,-493.5371 346.7297,-493.486 338.4155,-486.919 336.135,-493.5371"/>
</g>
<!-- Node148 -->
<g id="node18" class="node">
<title>Node148</title>
<g id="a_node18"><a xlink:href="classLSODA.html#a391e4d7bea026ad7c300cfb55cb290d1" target="_top" xlink:title="LSODA::lsoda_update">
<polygon fill="none" stroke="#000000" points="339.5,-452.5 339.5,-471.5 453.5,-471.5 453.5,-452.5 339.5,-452.5"/>
<text text-anchor="middle" x="396.5" y="-459.5" font-family="Helvetica,sans-Serif" font-size="10.00" fill="#000000">LSODA::lsoda_update</text>
</a>
</g>
</g>
<!-- Node140&#45;&gt;Node148 -->
<g id="edge17" class="edge">
<title>Node140&#45;&gt;Node148</title>
<path fill="none" stroke="#191970" d="M252.2837,-414.5137C262.9136,-417.1089 273.9433,-420.2606 284,-424 300.9574,-430.3053 303.0971,-436.5501 320,-443 326.4427,-445.4584 333.3131,-447.6852 340.1932,-449.6763"/>
<polygon fill="#191970" stroke="#191970" points="339.6622,-453.1596 350.2315,-452.4243 341.5105,-446.408 339.6622,-453.1596"/>
</g>
<!-- Node170 -->
<g id="node32" class="node">
<title>Node170</title>
<g id="a_node32"><a xlink:href="classLSODA.html#a418110bad0f4978101950dfd04311a02" target="_top" xlink:title="LSODA::get_istate">
<polygon fill="none" stroke="#000000" points="347,-414.5 347,-433.5 446,-433.5 446,-414.5 347,-414.5"/>
<text text-anchor="middle" x="396.5" y="-421.5" font-family="Helvetica,sans-Serif" font-size="10.00" fill="#000000">LSODA::get_istate</text>
</a>
</g>
</g>
<!-- Node140&#45;&gt;Node170 -->
<g id="edge33" class="edge">
<title>Node140&#45;&gt;Node170</title>
<path fill="none" stroke="#191970" d="M252.2249,-409.9424C278.0413,-412.4579 309.5916,-415.532 336.5975,-418.1633"/>
<polygon fill="#191970" stroke="#191970" points="336.4115,-421.6617 346.7038,-419.1481 337.0904,-414.6947 336.4115,-421.6617"/>
</g>
<!-- Node171 -->
<g id="node33" class="node">
<title>Node171</title>
<g id="a_node33"><a xlink:href="classLSODA.html#adb5f9410c901c193aeb836dd9cc4ab70" target="_top" xlink:title="LSODA::get_fncalls">
<polygon fill="none" stroke="#000000" points="344.5,-376.5 344.5,-395.5 448.5,-395.5 448.5,-376.5 344.5,-376.5"/>
<text text-anchor="middle" x="396.5" y="-383.5" font-family="Helvetica,sans-Serif" font-size="10.00" fill="#000000">LSODA::get_fncalls</text>
</a>
</g>
</g>
<!-- Node140&#45;&gt;Node171 -->
<g id="edge34" class="edge">
<title>Node140&#45;&gt;Node171</title>
<path fill="none" stroke="#191970" d="M252.2249,-400.0576C277.2302,-397.6212 307.6148,-394.6606 334.039,-392.0859"/>
<polygon fill="#191970" stroke="#191970" points="334.7173,-395.5365 344.3307,-391.0832 334.0384,-388.5695 334.7173,-395.5365"/>
</g>
<!-- Node142 -->
<g id="node12" class="node">
<title>Node142</title>
<g id="a_node12"><a xlink:href="classRKCK45.html#a20415037da7046ff94afadbf927c42d3" target="_top" xlink:title="RKCK45::Step">
<polygon fill="none" stroke="#000000" points="509,-566.5 509,-585.5 591,-585.5 591,-566.5 509,-566.5"/>
<text text-anchor="middle" x="550" y="-573.5" font-family="Helvetica,sans-Serif" font-size="10.00" fill="#000000">RKCK45::Step</text>
</a>
</g>
</g>
<!-- Node141&#45;&gt;Node142 -->
<g id="edge11" class="edge">
<title>Node141&#45;&gt;Node142</title>
<path fill="none" stroke="#191970" d="M435.2345,-547.589C455.3993,-552.5809 480.2479,-558.7324 501.6611,-564.0334"/>
<polygon fill="#191970" stroke="#191970" points="500.9959,-567.4743 511.544,-566.4799 502.6781,-560.6794 500.9959,-567.4743"/>
</g>
<!-- Node143 -->
<g id="node13" class="node">
<title>Node143</title>
<g id="a_node13"><a xlink:href="classRKCK45.html#a219b69e8759b799b422d5c6b97509fd0" target="_top" xlink:title="RKCK45::resize">
<polygon fill="none" stroke="#000000" points="643,-604.5 643,-623.5 731,-623.5 731,-604.5 643,-604.5"/>
<text text-anchor="middle" x="687" y="-611.5" font-family="Helvetica,sans-Serif" font-size="10.00" fill="#000000">RKCK45::resize</text>
</a>
</g>
</g>
<!-- Node142&#45;&gt;Node143 -->
<g id="edge12" class="edge">
<title>Node142&#45;&gt;Node143</title>
<path fill="none" stroke="#191970" d="M584.5709,-585.589C602.1752,-590.4719 623.7793,-596.4643 642.601,-601.685"/>
<polygon fill="#191970" stroke="#191970" points="641.8685,-605.1138 652.4402,-604.4141 643.7395,-598.3685 641.8685,-605.1138"/>
</g>
<!-- Node144 -->
<g id="node14" class="node">
<title>Node144</title>
<g id="a_node14"><a xlink:href="classRKCK45.html#adfa11ff7b8da1b21aea9e457ac4e9d1c" target="_top" xlink:title="RKCK45::RKStep">
<polygon fill="none" stroke="#000000" points="639,-566.5 639,-585.5 735,-585.5 735,-566.5 639,-566.5"/>
<text text-anchor="middle" x="687" y="-573.5" font-family="Helvetica,sans-Serif" font-size="10.00" fill="#000000">RKCK45::RKStep</text>
</a>
</g>
</g>
<!-- Node142&#45;&gt;Node144 -->
<g id="edge13" class="edge">
<title>Node142&#45;&gt;Node144</title>
<path fill="none" stroke="#191970" d="M591.1045,-576C602.9209,-576 616.0394,-576 628.6844,-576"/>
<polygon fill="#191970" stroke="#191970" points="628.6899,-579.5001 638.6899,-576 628.6899,-572.5001 628.6899,-579.5001"/>
</g>
<!-- Node145 -->
<g id="node15" class="node">
<title>Node145</title>
<g id="a_node15"><a xlink:href="classRKCK45.html#a25808387ad46ff36ec579617c5ba9eee" target="_top" xlink:title="RKCK45::h">
<polygon fill="none" stroke="#000000" points="799.5,-585.5 799.5,-604.5 866.5,-604.5 866.5,-585.5 799.5,-585.5"/>
<text text-anchor="middle" x="833" y="-592.5" font-family="Helvetica,sans-Serif" font-size="10.00" fill="#000000">RKCK45::h</text>
</a>
</g>
</g>
<!-- Node144&#45;&gt;Node145 -->
<g id="edge14" class="edge">
<title>Node144&#45;&gt;Node145</title>
<path fill="none" stroke="#191970" d="M735.2105,-582.274C752.544,-584.5297 771.9934,-587.0608 788.9543,-589.268"/>
<polygon fill="#191970" stroke="#191970" points="788.784,-592.7753 799.1521,-590.5951 789.6874,-585.8338 788.784,-592.7753"/>
</g>
<!-- Node146 -->
<g id="node16" class="node">
<title>Node146</title>
<g id="a_node16"><a xlink:href="classRKCK45.html#aa61f9dd524bbc30f9c5480a868378c1f" target="_top" xlink:title="RKCK45::RKTry">
<polygon fill="none" stroke="#000000" points="788,-547.5 788,-566.5 878,-566.5 878,-547.5 788,-547.5"/>
<text text-anchor="middle" x="833" y="-554.5" font-family="Helvetica,sans-Serif" font-size="10.00" fill="#000000">RKCK45::RKTry</text>
</a>
</g>
</g>
<!-- Node144&#45;&gt;Node146 -->
<g id="edge15" class="edge">
<title>Node144&#45;&gt;Node146</title>
<path fill="none" stroke="#191970" d="M735.2105,-569.726C748.8453,-567.9516 763.7893,-566.0069 777.8014,-564.1834"/>
<polygon fill="#191970" stroke="#191970" points="778.343,-567.6425 787.8077,-562.8812 777.4396,-560.701 778.343,-567.6425"/>
</g>
<!-- Node149 -->
<g id="node19" class="node">
<title>Node149</title>
<g id="a_node19"><a xlink:href="classLSODA.html#a705dcfe5b21827adb8871e48f2c72fb2" target="_top" xlink:title="LSODA::lsoda">
<polygon fill="none" stroke="#000000" points="510,-414.5 510,-433.5 590,-433.5 590,-414.5 510,-414.5"/>
<text text-anchor="middle" x="550" y="-421.5" font-family="Helvetica,sans-Serif" font-size="10.00" fill="#000000">LSODA::lsoda</text>
</a>
</g>
</g>
<!-- Node148&#45;&gt;Node149 -->
<g id="edge18" class="edge">
<title>Node148&#45;&gt;Node149</title>
<path fill="none" stroke="#191970" d="M435.2345,-452.411C455.3993,-447.4191 480.2479,-441.2676 501.6611,-435.9666"/>
<polygon fill="#191970" stroke="#191970" points="502.6781,-439.3206 511.544,-433.5201 500.9959,-432.5257 502.6781,-439.3206"/>
</g>
<!-- Node150 -->
<g id="node20" class="node">
<title>Node150</title>
<g id="a_node20"><a xlink:href="classLSODA.html#addd83d35565b2c2db644f27dbd94446f" target="_top" xlink:title="LSODA::terminate">
<polygon fill="none" stroke="#000000" points="638.5,-528.5 638.5,-547.5 735.5,-547.5 735.5,-528.5 638.5,-528.5"/>
<text text-anchor="middle" x="687" y="-535.5" font-family="Helvetica,sans-Serif" font-size="10.00" fill="#000000">LSODA::terminate</text>
</a>
</g>
</g>
<!-- Node149&#45;&gt;Node150 -->
<g id="edge19" class="edge">
<title>Node149&#45;&gt;Node150</title>
<path fill="none" stroke="#191970" d="M555.205,-433.6402C566.0198,-452.7693 592.7892,-495.6868 627,-519 629.9331,-520.9988 633.0879,-522.7962 636.361,-524.4113"/>
<polygon fill="#191970" stroke="#191970" points="635.2442,-527.7415 645.8122,-528.4955 638.021,-521.3158 635.2442,-527.7415"/>
</g>
<!-- Node151 -->
<g id="node21" class="node">
<title>Node151</title>
<g id="a_node21"><a xlink:href="classLSODA.html#a6f118c16d754b66d7ee9220037260978" target="_top" xlink:title="LSODA::resize_system">
<polygon fill="none" stroke="#000000" points="627,-490.5 627,-509.5 747,-509.5 747,-490.5 627,-490.5"/>
<text text-anchor="middle" x="687" y="-497.5" font-family="Helvetica,sans-Serif" font-size="10.00" fill="#000000">LSODA::resize_system</text>
</a>
</g>
</g>
<!-- Node149&#45;&gt;Node151 -->
<g id="edge20" class="edge">
<title>Node149&#45;&gt;Node151</title>
<path fill="none" stroke="#191970" d="M560.7056,-433.7484C574.9149,-446.2387 601.2236,-467.8429 627,-481 631.276,-483.1826 635.8516,-485.1757 640.4981,-486.98"/>
<polygon fill="#191970" stroke="#191970" points="639.4673,-490.3287 650.0618,-490.4188 641.8359,-483.7416 639.4673,-490.3287"/>
</g>
<!-- Node152 -->
<g id="node22" class="node">
<title>Node152</title>
<g id="a_node22"><a xlink:href="classLSODA.html#a0a54717e6b42492345098b16bb248e77" target="_top" xlink:title="LSODA::ewset">
<polygon fill="none" stroke="#000000" points="645.5,-452.5 645.5,-471.5 728.5,-471.5 728.5,-452.5 645.5,-452.5"/>
<text text-anchor="middle" x="687" y="-459.5" font-family="Helvetica,sans-Serif" font-size="10.00" fill="#000000">LSODA::ewset</text>
</a>
</g>
</g>
<!-- Node149&#45;&gt;Node152 -->
<g id="edge21" class="edge">
<title>Node149&#45;&gt;Node152</title>
<path fill="none" stroke="#191970" d="M584.5709,-433.589C602.1752,-438.4719 623.7793,-444.4643 642.601,-449.685"/>
<polygon fill="#191970" stroke="#191970" points="641.8685,-453.1138 652.4402,-452.4141 643.7395,-446.3685 641.8685,-453.1138"/>
</g>
<!-- Node153 -->
<g id="node23" class="node">
<title>Node153</title>
<g id="a_node23"><a xlink:href="classLSODA.html#afbcbaee47892060721287dc0ba9708f9" target="_top" xlink:title="LSODA::terminate2">
<polygon fill="none" stroke="#000000" points="636,-414.5 636,-433.5 738,-433.5 738,-414.5 636,-414.5"/>
<text text-anchor="middle" x="687" y="-421.5" font-family="Helvetica,sans-Serif" font-size="10.00" fill="#000000">LSODA::terminate2</text>
</a>
</g>
</g>
<!-- Node149&#45;&gt;Node153 -->
<g id="edge22" class="edge">
<title>Node149&#45;&gt;Node153</title>
<path fill="none" stroke="#191970" d="M590.3635,-424C601.3519,-424 613.5095,-424 625.3879,-424"/>
<polygon fill="#191970" stroke="#191970" points="625.7184,-427.5001 635.7183,-424 625.7183,-420.5001 625.7184,-427.5001"/>
</g>
<!-- Node154 -->
<g id="node24" class="node">
<title>Node154</title>
<g id="a_node24"><a xlink:href="classLSODA.html#ac94b738016b2a7c57cedd5ea4f13311f" target="_top" xlink:title="LSODA::vmnorm">
<polygon fill="none" stroke="#000000" points="919,-338.5 919,-357.5 1011,-357.5 1011,-338.5 919,-338.5"/>
<text text-anchor="middle" x="965" y="-345.5" font-family="Helvetica,sans-Serif" font-size="10.00" fill="#000000">LSODA::vmnorm</text>
</a>
</g>
</g>
<!-- Node149&#45;&gt;Node154 -->
<g id="edge23" class="edge">
<title>Node149&#45;&gt;Node154</title>
<path fill="none" stroke="#191970" d="M586.2998,-414.4501C599.1132,-411.2368 613.6527,-407.7681 627,-405 725.6547,-384.5397 841.6575,-366.211 908.9101,-356.1436"/>
<polygon fill="#191970" stroke="#191970" points="909.4979,-359.5948 918.873,-354.6594 908.4664,-352.6712 909.4979,-359.5948"/>
</g>
<!-- Node155 -->
<g id="node25" class="node">
<title>Node155</title>
<g id="a_node25"><a xlink:href="classLSODA.html#a1ee114165850fa09fcbd0b206de560dc" target="_top" xlink:title="LSODA::intdy">
<polygon fill="none" stroke="#000000" points="648.5,-338.5 648.5,-357.5 725.5,-357.5 725.5,-338.5 648.5,-338.5"/>
<text text-anchor="middle" x="687" y="-345.5" font-family="Helvetica,sans-Serif" font-size="10.00" fill="#000000">LSODA::intdy</text>
</a>
</g>
</g>
<!-- Node149&#45;&gt;Node155 -->
<g id="edge24" class="edge">
<title>Node149&#45;&gt;Node155</title>
<path fill="none" stroke="#191970" d="M562.2883,-414.4872C577.0701,-403.337 602.9112,-384.7634 627,-372 634.3298,-368.1163 642.4306,-364.474 650.2456,-361.2576"/>
<polygon fill="#191970" stroke="#191970" points="651.5624,-364.5007 659.5655,-357.5579 648.9796,-357.9945 651.5624,-364.5007"/>
</g>
<!-- Node156 -->
<g id="node26" class="node">
<title>Node156</title>
<g id="a_node26"><a xlink:href="classLSODA.html#abf4eccf92cba7f87f9d5051ee6b28a42" target="_top" xlink:title="LSODA::successreturn">
<polygon fill="none" stroke="#000000" points="628,-300.5 628,-319.5 746,-319.5 746,-300.5 628,-300.5"/>
<text text-anchor="middle" x="687" y="-307.5" font-family="Helvetica,sans-Serif" font-size="10.00" fill="#000000">LSODA::successreturn</text>
</a>
</g>
</g>
<!-- Node149&#45;&gt;Node156 -->
<g id="edge25" class="edge">
<title>Node149&#45;&gt;Node156</title>
<path fill="none" stroke="#191970" d="M555.205,-414.3598C566.0198,-395.2307 592.7892,-352.3132 627,-329 629.9331,-327.0012 633.0879,-325.2038 636.361,-323.5887"/>
<polygon fill="#191970" stroke="#191970" points="638.021,-326.6842 645.8122,-319.5045 635.2442,-320.2585 638.021,-326.6842"/>
</g>
<!-- Node157 -->
<g id="node27" class="node">
<title>Node157</title>
<g id="a_node27"><a xlink:href="classLSODA.html#a7c6d8d75b383474b5b05c710d2921618" target="_top" xlink:title="LSODA::stoda">
<polygon fill="none" stroke="#ff0000" points="647,-262.5 647,-281.5 727,-281.5 727,-262.5 647,-262.5"/>
<text text-anchor="middle" x="687" y="-269.5" font-family="Helvetica,sans-Serif" font-size="10.00" fill="#000000">LSODA::stoda</text>
</a>
</g>
</g>
<!-- Node149&#45;&gt;Node157 -->
<g id="edge26" class="edge">
<title>Node149&#45;&gt;Node157</title>
<path fill="none" stroke="#191970" d="M552.8716,-414.3439C560.6282,-389.9274 584.3445,-325.2363 627,-291 630.1688,-288.4566 633.6831,-286.2512 637.3756,-284.3393"/>
<polygon fill="#191970" stroke="#191970" points="639.0923,-287.4074 646.8261,-280.1659 636.2645,-281.004 639.0923,-287.4074"/>
</g>
<!-- Node157&#45;&gt;Node154 -->
<g id="edge30" class="edge">
<title>Node157&#45;&gt;Node154</title>
<path fill="none" stroke="#191970" d="M726.9925,-281.5369C733.9399,-284.0551 740.8883,-287.1721 747,-291 766.7165,-303.3488 762.1355,-318.7089 783,-329 821.9346,-348.2038 871.1619,-352.3196 908.5995,-351.9833"/>
<polygon fill="#191970" stroke="#191970" points="908.8996,-355.4781 918.8278,-351.7792 908.7599,-348.4795 908.8996,-355.4781"/>
</g>
<!-- Node158 -->
<g id="node28" class="node">
<title>Node158</title>
<g id="a_node28"><a xlink:href="classLSODA.html#a0f3b8f1c3f9e12fb89ddebfc02930b56" target="_top" xlink:title="LSODA::cfode">
<polygon fill="none" stroke="#000000" points="793,-300.5 793,-319.5 873,-319.5 873,-300.5 793,-300.5"/>
<text text-anchor="middle" x="833" y="-307.5" font-family="Helvetica,sans-Serif" font-size="10.00" fill="#000000">LSODA::cfode</text>
</a>
</g>
</g>
<!-- Node157&#45;&gt;Node158 -->
<g id="edge27" class="edge">
<title>Node157&#45;&gt;Node158</title>
<path fill="none" stroke="#191970" d="M723.842,-281.589C742.8479,-286.5358 766.2286,-292.6211 786.4692,-297.8892"/>
<polygon fill="#191970" stroke="#191970" points="785.8638,-301.3482 796.423,-300.4799 787.627,-294.5739 785.8638,-301.3482"/>
</g>
<!-- Node159 -->
<g id="node29" class="node">
<title>Node159</title>
<g id="a_node29"><a xlink:href="classLSODA.html#a391bc37600b2df97c24cafc6352dc4ce" target="_top" xlink:title="LSODA::resetcoeff">
<polygon fill="none" stroke="#000000" points="783,-262.5 783,-281.5 883,-281.5 883,-262.5 783,-262.5"/>
<text text-anchor="middle" x="833" y="-269.5" font-family="Helvetica,sans-Serif" font-size="10.00" fill="#000000">LSODA::resetcoeff</text>
</a>
</g>
</g>
<!-- Node157&#45;&gt;Node159 -->
<g id="edge28" class="edge">
<title>Node157&#45;&gt;Node159</title>
<path fill="none" stroke="#191970" d="M727.2816,-272C741.2717,-272 757.2832,-272 772.5411,-272"/>
<polygon fill="#191970" stroke="#191970" points="772.9498,-275.5001 782.9498,-272 772.9497,-268.5001 772.9498,-275.5001"/>
</g>
<!-- Node160 -->
<g id="node30" class="node">
<title>Node160</title>
<g id="a_node30"><a xlink:href="classLSODA.html#acd395b8e8db2b012842c1ffd57244fd3" target="_top" xlink:title="LSODA::scaleh">
<polygon fill="none" stroke="#000000" points="790.5,-224.5 790.5,-243.5 875.5,-243.5 875.5,-224.5 790.5,-224.5"/>
<text text-anchor="middle" x="833" y="-231.5" font-family="Helvetica,sans-Serif" font-size="10.00" fill="#000000">LSODA::scaleh</text>
</a>
</g>
</g>
<!-- Node157&#45;&gt;Node160 -->
<g id="edge29" class="edge">
<title>Node157&#45;&gt;Node160</title>
<path fill="none" stroke="#191970" d="M723.842,-262.411C742.8479,-257.4642 766.2286,-251.3789 786.4692,-246.1108"/>
<polygon fill="#191970" stroke="#191970" points="787.627,-249.4261 796.423,-243.5201 785.8638,-242.6518 787.627,-249.4261"/>
</g>
<!-- Node161 -->
<g id="node31" class="node">
<title>Node161</title>
<g id="a_node31"><a xlink:href="classLSODA.html#ae5ebdebff330f29ef0c15bece1bf8299" target="_top" xlink:title="LSODA::correction">
<polygon fill="none" stroke="#ff0000" points="783.5,-186.5 783.5,-205.5 882.5,-205.5 882.5,-186.5 783.5,-186.5"/>
<text text-anchor="middle" x="833" y="-193.5" font-family="Helvetica,sans-Serif" font-size="10.00" fill="#000000">LSODA::correction</text>
</a>
</g>
</g>
<!-- Node157&#45;&gt;Node161 -->
<g id="edge31" class="edge">
<title>Node157&#45;&gt;Node161</title>
<path fill="none" stroke="#191970" d="M701.526,-262.2953C719.9585,-250.2369 752.9725,-229.4857 783,-215 787.11,-213.0173 791.4845,-211.0956 795.8705,-209.2847"/>
<polygon fill="#191970" stroke="#191970" points="797.382,-212.4507 805.3923,-205.5164 794.806,-205.9419 797.382,-212.4507"/>
</g>
<!-- Node161&#45;&gt;Node154 -->
<g id="edge32" class="edge">
<title>Node161&#45;&gt;Node154</title>
<path fill="none" stroke="#191970" d="M867.1972,-205.5254C872.8342,-208.0369 878.3475,-211.1545 883,-215 921.0068,-246.4147 946.3829,-300.2744 957.9027,-328.8649"/>
<polygon fill="#191970" stroke="#191970" points="954.7556,-330.4298 961.6368,-338.4858 961.2813,-327.8969 954.7556,-330.4298"/>
</g>
<!-- Node175 -->
<g id="node37" class="node">
<title>Node175</title>
<g id="a_node37"><a xlink:href="classSpecies__Base.html#aa6880c6f5c8ff125cab4d1195dedfb13" target="_top" xlink:title="Species_Base::getX">
<polygon fill="none" stroke="#000000" points="343.5,-338.5 343.5,-357.5 449.5,-357.5 449.5,-338.5 343.5,-338.5"/>
<text text-anchor="middle" x="396.5" y="-345.5" font-family="Helvetica,sans-Serif" font-size="10.00" fill="#000000">Species_Base::getX</text>
</a>
</g>
</g>
<!-- Node174&#45;&gt;Node175 -->
<g id="edge38" class="edge">
<title>Node174&#45;&gt;Node175</title>
<path fill="none" stroke="#191970" d="M260.0559,-287.6277C268.3361,-290.0839 276.5555,-293.1574 284,-297 303.0226,-306.8189 301.0619,-319.019 320,-329 324.5001,-331.3717 329.3063,-333.4553 334.2348,-335.2844"/>
<polygon fill="#191970" stroke="#191970" points="333.2211,-338.6359 343.815,-338.497 335.4467,-331.9991 333.2211,-338.6359"/>
</g>
<!-- Node176 -->
<g id="node38" class="node">
<title>Node176</title>
<g id="a_node38"><a xlink:href="classSpecies__Base.html#ad412522fc071525a19f95609880b20ff" target="_top" xlink:title="Species_Base::getU">
<polygon fill="none" stroke="#000000" points="343,-300.5 343,-319.5 450,-319.5 450,-300.5 343,-300.5"/>
<text text-anchor="middle" x="396.5" y="-307.5" font-family="Helvetica,sans-Serif" font-size="10.00" fill="#000000">Species_Base::getU</text>
</a>
</g>
</g>
<!-- Node174&#45;&gt;Node176 -->
<g id="edge39" class="edge">
<title>Node174&#45;&gt;Node176</title>
<path fill="none" stroke="#191970" d="M259.4785,-287.5144C282.5634,-291.3027 309.2064,-295.6749 332.8261,-299.551"/>
<polygon fill="#191970" stroke="#191970" points="332.3098,-303.013 342.7446,-301.1786 333.4434,-296.1054 332.3098,-303.013"/>
</g>
<!-- Node177 -->
<g id="node39" class="node">
<title>Node177</title>
<g id="a_node39"><a xlink:href="classSpecies__Base.html#ad68f257218879207e9f6ed4cf3bd7eef" target="_top" xlink:title="Species_Base::growthRate\lGradient">
<polygon fill="none" stroke="#000000" points="328.5,-251 328.5,-281 464.5,-281 464.5,-251 328.5,-251"/>
<text text-anchor="start" x="336.5" y="-269" font-family="Helvetica,sans-Serif" font-size="10.00" fill="#000000">Species_Base::growthRate</text>
<text text-anchor="middle" x="396.5" y="-258" font-family="Helvetica,sans-Serif" font-size="10.00" fill="#000000">Gradient</text>
</a>
</g>
</g>
<!-- Node174&#45;&gt;Node177 -->
<g id="edge40" class="edge">
<title>Node174&#45;&gt;Node177</title>
<path fill="none" stroke="#191970" d="M261.066,-274.3344C279.1047,-273.2243 299.1959,-271.9879 318.2633,-270.8146"/>
<polygon fill="#191970" stroke="#191970" points="318.6607,-274.2968 328.4268,-270.1891 318.2307,-267.31 318.6607,-274.2968"/>
</g>
<!-- Node178 -->
<g id="node40" class="node">
<title>Node178</title>
<g id="a_node40"><a xlink:href="classSpecies__Base.html#a83ff45fc4f334241eeae08d523d343b5" target="_top" xlink:title="Species_Base::mortalityRate\lGradient">
<polygon fill="none" stroke="#000000" points="324.5,-202 324.5,-232 468.5,-232 468.5,-202 324.5,-202"/>
<text text-anchor="start" x="332.5" y="-220" font-family="Helvetica,sans-Serif" font-size="10.00" fill="#000000">Species_Base::mortalityRate</text>
<text text-anchor="middle" x="396.5" y="-209" font-family="Helvetica,sans-Serif" font-size="10.00" fill="#000000">Gradient</text>
</a>
</g>
</g>
<!-- Node174&#45;&gt;Node178 -->
<g id="edge41" class="edge">
<title>Node174&#45;&gt;Node178</title>
<path fill="none" stroke="#191970" d="M250.8508,-268.457C261.8874,-265.8207 273.4461,-262.6595 284,-259 300.7178,-253.2033 303.5583,-248.5388 320,-242 325.7086,-239.7297 331.713,-237.5018 337.7431,-235.3687"/>
<polygon fill="#191970" stroke="#191970" points="338.8917,-238.6749 347.2014,-232.1022 336.6066,-232.0584 338.8917,-238.6749"/>
</g>
<!-- Node179 -->
<g id="node41" class="node">
<title>Node179</title>
<g id="a_node41"><a xlink:href="classSpecies__Base.html#aad4cefae53644171dfcd12639d2e0e63" target="_top" xlink:title="Species_Base::establishment\lProbability">
<polygon fill="none" stroke="#000000" points="323.5,-153 323.5,-183 469.5,-183 469.5,-153 323.5,-153"/>
<text text-anchor="start" x="331.5" y="-171" font-family="Helvetica,sans-Serif" font-size="10.00" fill="#000000">Species_Base::establishment</text>
<text text-anchor="middle" x="396.5" y="-160" font-family="Helvetica,sans-Serif" font-size="10.00" fill="#000000">Probability</text>
</a>
</g>
</g>
<!-- Node174&#45;&gt;Node179 -->
<g id="edge42" class="edge">
<title>Node174&#45;&gt;Node179</title>
<path fill="none" stroke="#191970" d="M261.0254,-270.7291C269.2587,-267.9442 277.2079,-264.1516 284,-259 310.6219,-238.808 294.308,-214.3628 320,-193 322.0211,-191.3194 324.1584,-189.7508 326.3837,-188.2869"/>
<polygon fill="#191970" stroke="#191970" points="328.4141,-191.157 335.3444,-183.1432 324.9292,-185.0861 328.4141,-191.157"/>
</g>
<!-- Node180 -->
<g id="node42" class="node">
<title>Node180</title>
<g id="a_node42"><a xlink:href="classSpecies__Base.html#a6759c877ef7531a835326dcc11adb2c2" target="_top" xlink:title="Species_Base::get_u0">
<polygon fill="none" stroke="#000000" points="339,-114.5 339,-133.5 454,-133.5 454,-114.5 339,-114.5"/>
<text text-anchor="middle" x="396.5" y="-121.5" font-family="Helvetica,sans-Serif" font-size="10.00" fill="#000000">Species_Base::get_u0</text>
</a>
</g>
</g>
<!-- Node174&#45;&gt;Node180 -->
<g id="edge43" class="edge">
<title>Node174&#45;&gt;Node180</title>
<path fill="none" stroke="#191970" d="M261.1488,-272.1774C269.5591,-269.2175 277.5288,-264.9911 284,-259 323.3005,-222.6157 281.2378,-180.9572 320,-144 322.9341,-141.2026 326.2092,-138.7844 329.7077,-136.6952"/>
<polygon fill="#191970" stroke="#191970" points="331.4176,-139.7534 338.7969,-132.151 328.2873,-133.4923 331.4176,-139.7534"/>
</g>
<!-- Node181 -->
<g id="node43" class="node">
<title>Node181</title>
<g id="a_node43"><a xlink:href="classSpecies__Base.html#abe98e190e76cfd39eee7ef3d30141d53" target="_top" xlink:title="Species_Base::growthRate">
<polygon fill="none" stroke="#000000" points="328.5,-76.5 328.5,-95.5 464.5,-95.5 464.5,-76.5 328.5,-76.5"/>
<text text-anchor="middle" x="396.5" y="-83.5" font-family="Helvetica,sans-Serif" font-size="10.00" fill="#000000">Species_Base::growthRate</text>
</a>
</g>
</g>
<!-- Node174&#45;&gt;Node181 -->
<g id="edge44" class="edge">
<title>Node174&#45;&gt;Node181</title>
<path fill="none" stroke="#191970" d="M261.1265,-272.7393C269.6418,-269.721 277.6499,-265.3293 284,-259 333.7839,-209.3794 270.6417,-155.044 320,-105 321.2883,-103.6938 322.6514,-102.4723 324.0781,-101.3303"/>
<polygon fill="#191970" stroke="#191970" points="326.3861,-104.0046 332.8639,-95.6207 322.5717,-98.1351 326.3861,-104.0046"/>
</g>
<!-- Node182 -->
<g id="node44" class="node">
<title>Node182</title>
<g id="a_node44"><a xlink:href="classSpecies__Base.html#a59ab3c647c48a819f1911957e5724d5e" target="_top" xlink:title="Species_Base::mortalityRate">
<polygon fill="none" stroke="#000000" points="324.5,-38.5 324.5,-57.5 468.5,-57.5 468.5,-38.5 324.5,-38.5"/>
<text text-anchor="middle" x="396.5" y="-45.5" font-family="Helvetica,sans-Serif" font-size="10.00" fill="#000000">Species_Base::mortalityRate</text>
</a>
</g>
</g>
<!-- Node174&#45;&gt;Node182 -->
<g id="edge45" class="edge">
<title>Node174&#45;&gt;Node182</title>
<path fill="none" stroke="#191970" d="M261.3732,-272.9813C269.8577,-269.9329 277.7916,-265.4683 284,-259 344.1197,-196.3629 260.4175,-130.1483 320,-67 321.2268,-65.6998 322.5275,-64.4829 323.8915,-63.344"/>
<polygon fill="#191970" stroke="#191970" points="325.9999,-66.1433 332.3201,-57.64 322.0766,-60.3461 325.9999,-66.1433"/>
</g>
<!-- Node183 -->
<g id="node45" class="node">
<title>Node183</title>
<g id="a_node45"><a xlink:href="classSpecies__Base.html#a1c47d1905fa4da0a1f203f641f6ed2af" target="_top" xlink:title="Species_Base::getExtraRates">
<polygon fill="none" stroke="#000000" points="322,-.5 322,-19.5 471,-19.5 471,-.5 322,-.5"/>
<text text-anchor="middle" x="396.5" y="-7.5" font-family="Helvetica,sans-Serif" font-size="10.00" fill="#000000">Species_Base::getExtraRates</text>
</a>
</g>
</g>
<!-- Node174&#45;&gt;Node183 -->
<g id="edge46" class="edge">
<title>Node174&#45;&gt;Node183</title>
<path fill="none" stroke="#191970" d="M261.1271,-273.2924C269.7481,-270.2215 277.7894,-265.6686 284,-259 354.5157,-183.284 250.1336,-105.3156 320,-29 321.2071,-27.6815 322.4901,-26.4481 323.8383,-25.2945"/>
<polygon fill="#191970" stroke="#191970" points="325.9551,-28.0862 332.1954,-19.5241 321.9778,-22.3259 325.9551,-28.0862"/>
</g>
</g>
</svg>
