<?xml version="1.0" encoding="UTF-8" standalone="no"?>
<!DOCTYPE svg PUBLIC "-//W3C//DTD SVG 1.1//EN"
 "http://www.w3.org/Graphics/SVG/1.1/DTD/svg11.dtd">
<!-- Generated by graphviz version 2.40.1 (20161225.0304)
 -->
<!-- Title: Species::growthRateOffset Pages: 1 -->
<svg width="281pt" height="66pt"
 viewBox="0.00 0.00 281.00 66.00" xmlns="http://www.w3.org/2000/svg" xmlns:xlink="http://www.w3.org/1999/xlink">
<g id="graph0" class="graph" transform="scale(1 1) rotate(0) translate(4 62)">
<title>Species::growthRateOffset</title>
<!-- Node42 -->
<g id="node1" class="node">
<title>Node42</title>
<polygon fill="#bfbfbf" stroke="#000000" points="0,-19.5 0,-38.5 135,-38.5 135,-19.5 0,-19.5"/>
<text text-anchor="middle" x="67.5" y="-26.5" font-family="Helvetica,sans-Serif" font-size="10.00" fill="#000000">Species::growthRateOffset</text>
</g>
<!-- Node43 -->
<g id="node2" class="node">
<title>Node43</title>
<g id="a_node2"><a xlink:href="classCohort.html#af684d203ee2a31b98f767fd6f1362ae0" target="_top" xlink:title="Cohort::set_size">
<polygon fill="none" stroke="#000000" points="177.5,-38.5 177.5,-57.5 266.5,-57.5 266.5,-38.5 177.5,-38.5"/>
<text text-anchor="middle" x="222" y="-45.5" font-family="Helvetica,sans-Serif" font-size="10.00" fill="#000000">Cohort::set_size</text>
</a>
</g>
</g>
<!-- Node42&#45;&gt;Node43 -->
<g id="edge1" class="edge">
<title>Node42&#45;&gt;Node43</title>
<path fill="none" stroke="#191970" d="M135.2659,-37.3337C145.9683,-38.6498 156.9173,-39.9963 167.2743,-41.27"/>
<polygon fill="#191970" stroke="#191970" points="167.0505,-44.7687 177.4029,-42.5156 167.9049,-37.8211 167.0505,-44.7687"/>
</g>
<!-- Node44 -->
<g id="node3" class="node">
<title>Node44</title>
<g id="a_node3"><a xlink:href="classCohort.html#a2bcde3a746dea351fd36ffd77f7c8665" target="_top" xlink:title="Cohort::growthRate">
<polygon fill="none" stroke="#000000" points="171,-.5 171,-19.5 273,-19.5 273,-.5 171,-.5"/>
<text text-anchor="middle" x="222" y="-7.5" font-family="Helvetica,sans-Serif" font-size="10.00" fill="#000000">Cohort::growthRate</text>
</a>
</g>
</g>
<!-- Node42&#45;&gt;Node44 -->
<g id="edge2" class="edge">
<title>Node42&#45;&gt;Node44</title>
<path fill="none" stroke="#191970" d="M135.2659,-20.6663C143.6817,-19.6314 152.2498,-18.5777 160.5627,-17.5554"/>
<polygon fill="#191970" stroke="#191970" points="161.0507,-21.0218 170.5487,-16.3273 160.1962,-14.0742 161.0507,-21.0218"/>
</g>
</g>
</svg>
