<?xml version="1.0" encoding="UTF-8" standalone="no"?>
<!DOCTYPE svg PUBLIC "-//W3C//DTD SVG 1.1//EN"
 "http://www.w3.org/Graphics/SVG/1.1/DTD/svg11.dtd">
<!-- Generated by graphviz version 2.40.1 (20161225.0304)
 -->
<!-- Title: Solver::addSpecies Pages: 1 -->
<svg width="190pt" height="66pt"
 viewBox="0.00 0.00 190.00 66.00" xmlns="http://www.w3.org/2000/svg" xmlns:xlink="http://www.w3.org/1999/xlink">
<g id="graph0" class="graph" transform="scale(1 1) rotate(0) translate(4 62)">
<title>Solver::addSpecies</title>
<!-- Node10 -->
<g id="node1" class="node">
<title>Node10</title>
<polygon fill="#bfbfbf" stroke="#000000" points="0,-19.5 0,-38.5 101,-38.5 101,-19.5 0,-19.5"/>
<text text-anchor="middle" x="50.5" y="-26.5" font-family="Helvetica,sans-Serif" font-size="10.00" fill="#000000">Solver::addSpecies</text>
</g>
<!-- Node11 -->
<g id="node2" class="node">
<title>Node11</title>
<g id="a_node2"><a xlink:href="solver_8cpp.html#a9f5f8aa1a8abff0ba622062e50446a70" target="_top" xlink:title="logseq">
<polygon fill="none" stroke="#000000" points="137,-38.5 137,-57.5 182,-57.5 182,-38.5 137,-38.5"/>
<text text-anchor="middle" x="159.5" y="-45.5" font-family="Helvetica,sans-Serif" font-size="10.00" fill="#000000">logseq</text>
</a>
</g>
</g>
<!-- Node10&#45;&gt;Node11 -->
<g id="edge1" class="edge">
<title>Node10&#45;&gt;Node11</title>
<path fill="none" stroke="#191970" d="M101.1708,-37.8325C109.907,-39.3554 118.7751,-40.9012 126.8712,-42.3124"/>
<polygon fill="#191970" stroke="#191970" points="126.5411,-45.8076 136.9936,-44.0769 127.7432,-38.9116 126.5411,-45.8076"/>
</g>
<!-- Node12 -->
<g id="node3" class="node">
<title>Node12</title>
<g id="a_node3"><a xlink:href="solver_8cpp.html#ab78827dfc43b77ccf295c0654a87ea5b" target="_top" xlink:title="seq">
<polygon fill="none" stroke="#000000" points="143.5,-.5 143.5,-19.5 175.5,-19.5 175.5,-.5 143.5,-.5"/>
<text text-anchor="middle" x="159.5" y="-7.5" font-family="Helvetica,sans-Serif" font-size="10.00" fill="#000000">seq</text>
</a>
</g>
</g>
<!-- Node10&#45;&gt;Node12 -->
<g id="edge2" class="edge">
<title>Node10&#45;&gt;Node12</title>
<path fill="none" stroke="#191970" d="M101.1708,-20.1675C112.1577,-18.2523 123.3533,-16.3008 132.9595,-14.6263"/>
<polygon fill="#191970" stroke="#191970" points="133.7836,-18.0355 143.034,-12.8702 132.5815,-11.1395 133.7836,-18.0355"/>
</g>
</g>
</svg>
