<?xml version="1.0" encoding="UTF-8" standalone="no"?>
<!DOCTYPE svg PUBLIC "-//W3C//DTD SVG 1.1//EN"
 "http://www.w3.org/Graphics/SVG/1.1/DTD/svg11.dtd">
<!-- Generated by graphviz version 2.40.1 (20161225.0304)
 -->
<!-- Title: Solver::copyStateToCohorts Pages: 1 -->
<svg width="337pt" height="116pt"
 viewBox="0.00 0.00 337.00 115.50" xmlns="http://www.w3.org/2000/svg" xmlns:xlink="http://www.w3.org/1999/xlink">
<g id="graph0" class="graph" transform="scale(1 1) rotate(0) translate(4 111.5)">
<title>Solver::copyStateToCohorts</title>
<!-- Node60 -->
<g id="node1" class="node">
<title>Node60</title>
<polygon fill="#bfbfbf" stroke="#000000" points="0,-50 0,-69 140,-69 140,-50 0,-50"/>
<text text-anchor="middle" x="70" y="-57" font-family="Helvetica,sans-Serif" font-size="10.00" fill="#000000">Solver::copyStateToCohorts</text>
</g>
<!-- Node61 -->
<g id="node2" class="node">
<title>Node61</title>
<g id="a_node2"><a xlink:href="classSpecies__Base.html#ad9ddab41ba3c6e242f1b3a8a50ed7a36" target="_top" xlink:title="Species_Base::setU">
<polygon fill="none" stroke="#000000" points="199,-88 199,-107 306,-107 306,-88 199,-88"/>
<text text-anchor="middle" x="252.5" y="-95" font-family="Helvetica,sans-Serif" font-size="10.00" fill="#000000">Species_Base::setU</text>
</a>
</g>
</g>
<!-- Node60&#45;&gt;Node61 -->
<g id="edge1" class="edge">
<title>Node60&#45;&gt;Node61</title>
<path fill="none" stroke="#191970" d="M116.0525,-69.089C140.5692,-74.1939 170.9096,-80.5113 196.7502,-85.8918"/>
<polygon fill="#191970" stroke="#191970" points="196.2752,-89.3679 206.7787,-87.9799 197.7022,-82.5149 196.2752,-89.3679"/>
</g>
<!-- Node62 -->
<g id="node3" class="node">
<title>Node62</title>
<g id="a_node3"><a xlink:href="classSpecies__Base.html#a86a04ae53b3f25c4e90b01a8eaed3bfd" target="_top" xlink:title="Species_Base::setX">
<polygon fill="none" stroke="#000000" points="199.5,-50 199.5,-69 305.5,-69 305.5,-50 199.5,-50"/>
<text text-anchor="middle" x="252.5" y="-57" font-family="Helvetica,sans-Serif" font-size="10.00" fill="#000000">Species_Base::setX</text>
</a>
</g>
</g>
<!-- Node60&#45;&gt;Node62 -->
<g id="edge2" class="edge">
<title>Node60&#45;&gt;Node62</title>
<path fill="none" stroke="#191970" d="M140.0373,-59.5C156.199,-59.5 173.3005,-59.5 189.1578,-59.5"/>
<polygon fill="#191970" stroke="#191970" points="189.3763,-63.0001 199.3763,-59.5 189.3762,-56.0001 189.3763,-63.0001"/>
</g>
<!-- Node63 -->
<g id="node4" class="node">
<title>Node63</title>
<g id="a_node4"><a xlink:href="classSpecies__Base.html#a2ca0ef18e0b775f6efc02b026bd2f5ac" target="_top" xlink:title="Species_Base::copyExtraState\lToCohorts">
<polygon fill="none" stroke="#000000" points="176,-.5 176,-30.5 329,-30.5 329,-.5 176,-.5"/>
<text text-anchor="start" x="184" y="-18.5" font-family="Helvetica,sans-Serif" font-size="10.00" fill="#000000">Species_Base::copyExtraState</text>
<text text-anchor="middle" x="252.5" y="-7.5" font-family="Helvetica,sans-Serif" font-size="10.00" fill="#000000">ToCohorts</text>
</a>
</g>
</g>
<!-- Node60&#45;&gt;Node63 -->
<g id="edge3" class="edge">
<title>Node60&#45;&gt;Node63</title>
<path fill="none" stroke="#191970" d="M109.5998,-49.9527C130.2389,-44.9767 156.1344,-38.7334 180.1923,-32.9331"/>
<polygon fill="#191970" stroke="#191970" points="181.1119,-36.3117 190.013,-30.5654 179.4712,-29.5067 181.1119,-36.3117"/>
</g>
</g>
</svg>
