<?xml version="1.0" encoding="UTF-8" standalone="no"?>
<!DOCTYPE svg PUBLIC "-//W3C//DTD SVG 1.1//EN"
 "http://www.w3.org/Graphics/SVG/1.1/DTD/svg11.dtd">
<!-- Generated by graphviz version 2.40.1 (20161225.0304)
 -->
<!-- Title: RKCK45::resize Pages: 1 -->
<svg width="507pt" height="75pt"
 viewBox="0.00 0.00 507.00 75.00" xmlns="http://www.w3.org/2000/svg" xmlns:xlink="http://www.w3.org/1999/xlink">
<g id="graph0" class="graph" transform="scale(1 1) rotate(0) translate(4 71)">
<title>RKCK45::resize</title>
<!-- Node28 -->
<g id="node1" class="node">
<title>Node28</title>
<polygon fill="#bfbfbf" stroke="#000000" points="0,-28.5 0,-47.5 88,-47.5 88,-28.5 0,-28.5"/>
<text text-anchor="middle" x="44" y="-35.5" font-family="Helvetica,sans-Serif" font-size="10.00" fill="#000000">RKCK45::resize</text>
</g>
<!-- Node29 -->
<g id="node2" class="node">
<title>Node29</title>
<g id="a_node2"><a xlink:href="classRKCK45.html#ab304a56995de997c15d992f5665b94e5" target="_top" xlink:title="RKCK45::RKTry">
<polygon fill="none" stroke="#000000" points="124,-28.5 124,-47.5 214,-47.5 214,-28.5 124,-28.5"/>
<text text-anchor="middle" x="169" y="-35.5" font-family="Helvetica,sans-Serif" font-size="10.00" fill="#000000">RKCK45::RKTry</text>
</a>
</g>
</g>
<!-- Node28&#45;&gt;Node29 -->
<g id="edge1" class="edge">
<title>Node28&#45;&gt;Node29</title>
<path fill="none" stroke="#191970" d="M98.2543,-38C106.722,-38 115.3951,-38 123.6374,-38"/>
<polygon fill="#191970" stroke="#191970" points="98.0704,-34.5001 88.0703,-38 98.0703,-41.5001 98.0704,-34.5001"/>
</g>
<!-- Node30 -->
<g id="node3" class="node">
<title>Node30</title>
<g id="a_node3"><a xlink:href="classRKCK45.html#a8779263975ee2b9cc3c37bd024e8b658" target="_top" xlink:title="RKCK45::size">
<polygon fill="none" stroke="#000000" points="400.5,-47.5 400.5,-66.5 480.5,-66.5 480.5,-47.5 400.5,-47.5"/>
<text text-anchor="middle" x="440.5" y="-54.5" font-family="Helvetica,sans-Serif" font-size="10.00" fill="#000000">RKCK45::size</text>
</a>
</g>
</g>
<!-- Node29&#45;&gt;Node30 -->
<g id="edge2" class="edge">
<title>Node29&#45;&gt;Node30</title>
<path fill="none" stroke="#191970" d="M211.7627,-49.9702C224.0098,-52.8679 237.4451,-55.5472 250,-57 301.5803,-62.9685 361.5438,-61.6163 400.208,-59.6778"/>
<polygon fill="#191970" stroke="#191970" points="212.3478,-46.5095 201.8,-47.5069 210.6676,-53.3049 212.3478,-46.5095"/>
</g>
<!-- Node31 -->
<g id="node4" class="node">
<title>Node31</title>
<g id="a_node4"><a xlink:href="classRKCK45.html#a5c883118b935daa56c54f9a39f247b7e" target="_top" xlink:title="RKCK45::get_fn_evals">
<polygon fill="none" stroke="#000000" points="382,-.5 382,-19.5 499,-19.5 499,-.5 382,-.5"/>
<text text-anchor="middle" x="440.5" y="-7.5" font-family="Helvetica,sans-Serif" font-size="10.00" fill="#000000">RKCK45::get_fn_evals</text>
</a>
</g>
</g>
<!-- Node29&#45;&gt;Node31 -->
<g id="edge3" class="edge">
<title>Node29&#45;&gt;Node31</title>
<path fill="none" stroke="#191970" d="M213.4854,-26.0216C225.2754,-23.2722 238.0506,-20.6694 250,-19 293.9404,-12.8613 344.0752,-10.6832 381.8805,-10.0013"/>
<polygon fill="#191970" stroke="#191970" points="212.3204,-22.7024 203.4238,-28.4557 213.9664,-29.5062 212.3204,-22.7024"/>
</g>
<!-- Node32 -->
<g id="node5" class="node">
<title>Node32</title>
<g id="a_node5"><a xlink:href="classRKCK45.html#a9ce8515e634e6937f8587d280d18d18a" target="_top" xlink:title="RKCK45::RKStep">
<polygon fill="none" stroke="#000000" points="250,-28.5 250,-47.5 346,-47.5 346,-28.5 250,-28.5"/>
<text text-anchor="middle" x="298" y="-35.5" font-family="Helvetica,sans-Serif" font-size="10.00" fill="#000000">RKCK45::RKStep</text>
</a>
</g>
</g>
<!-- Node29&#45;&gt;Node32 -->
<g id="edge4" class="edge">
<title>Node29&#45;&gt;Node32</title>
<path fill="none" stroke="#191970" d="M224.2594,-31.312C232.6938,-31.1982 241.3435,-31.2411 249.6154,-31.4409"/>
<polygon fill="#191970" stroke="#191970" points="224.0409,-27.8157 214.1179,-31.5285 224.1904,-34.8141 224.0409,-27.8157"/>
</g>
<!-- Node32&#45;&gt;Node29 -->
<g id="edge7" class="edge">
<title>Node32&#45;&gt;Node29</title>
<path fill="none" stroke="#191970" d="M239.378,-44.725C230.897,-44.7973 222.2793,-44.7128 214.1179,-44.4715"/>
<polygon fill="#191970" stroke="#191970" points="239.6734,-48.2208 249.6154,-44.5591 239.5599,-41.2217 239.6734,-48.2208"/>
</g>
<!-- Node32&#45;&gt;Node30 -->
<g id="edge5" class="edge">
<title>Node32&#45;&gt;Node30</title>
<path fill="none" stroke="#191970" d="M356.3336,-45.7778C371.1324,-47.751 386.7003,-49.8267 400.3672,-51.649"/>
<polygon fill="#191970" stroke="#191970" points="356.6189,-42.285 346.244,-44.4325 355.6937,-49.2236 356.6189,-42.285"/>
</g>
<!-- Node32&#45;&gt;Node31 -->
<g id="edge6" class="edge">
<title>Node32&#45;&gt;Node31</title>
<path fill="none" stroke="#191970" d="M356.0674,-26.5903C367.9396,-24.2575 380.3179,-21.8253 391.8208,-19.565"/>
<polygon fill="#191970" stroke="#191970" points="355.3815,-23.158 346.244,-28.5205 356.7312,-30.0267 355.3815,-23.158"/>
</g>
</g>
</svg>
