<?xml version="1.0" encoding="UTF-8" standalone="no"?>
<!DOCTYPE svg PUBLIC "-//W3C//DTD SVG 1.1//EN"
 "http://www.w3.org/Graphics/SVG/1.1/DTD/svg11.dtd">
<!-- Generated by graphviz version 2.40.1 (20161225.0304)
 -->
<!-- Title: Species::mortalityRateGradient Pages: 1 -->
<svg width="307pt" height="66pt"
 viewBox="0.00 0.00 307.00 66.00" xmlns="http://www.w3.org/2000/svg" xmlns:xlink="http://www.w3.org/1999/xlink">
<g id="graph0" class="graph" transform="scale(1 1) rotate(0) translate(4 62)">
<title>Species::mortalityRateGradient</title>
<!-- Node55 -->
<g id="node1" class="node">
<title>Node55</title>
<polygon fill="#bfbfbf" stroke="#000000" points="0,-19.5 0,-38.5 153,-38.5 153,-19.5 0,-19.5"/>
<text text-anchor="middle" x="76.5" y="-26.5" font-family="Helvetica,sans-Serif" font-size="10.00" fill="#000000">Species::mortalityRateGradient</text>
</g>
<!-- Node56 -->
<g id="node2" class="node">
<title>Node56</title>
<g id="a_node2"><a xlink:href="classCohort.html#af684d203ee2a31b98f767fd6f1362ae0" target="_top" xlink:title="Cohort::set_size">
<polygon fill="none" stroke="#000000" points="199.5,-38.5 199.5,-57.5 288.5,-57.5 288.5,-38.5 199.5,-38.5"/>
<text text-anchor="middle" x="244" y="-45.5" font-family="Helvetica,sans-Serif" font-size="10.00" fill="#000000">Cohort::set_size</text>
</a>
</g>
</g>
<!-- Node55&#45;&gt;Node56 -->
<g id="edge1" class="edge">
<title>Node55&#45;&gt;Node56</title>
<path fill="none" stroke="#191970" d="M153.3867,-37.7215C165.3706,-39.0808 177.5431,-40.4616 188.9139,-41.7514"/>
<polygon fill="#191970" stroke="#191970" points="188.772,-45.2577 199.1028,-42.9072 189.561,-38.3023 188.772,-45.2577"/>
</g>
<!-- Node57 -->
<g id="node3" class="node">
<title>Node57</title>
<g id="a_node3"><a xlink:href="classCohort.html#a30709315cd5e4db121e86deac183c4b8" target="_top" xlink:title="Cohort::mortalityRate">
<polygon fill="none" stroke="#000000" points="189,-.5 189,-19.5 299,-19.5 299,-.5 189,-.5"/>
<text text-anchor="middle" x="244" y="-7.5" font-family="Helvetica,sans-Serif" font-size="10.00" fill="#000000">Cohort::mortalityRate</text>
</a>
</g>
</g>
<!-- Node55&#45;&gt;Node57 -->
<g id="edge2" class="edge">
<title>Node55&#45;&gt;Node57</title>
<path fill="none" stroke="#191970" d="M153.3867,-20.2785C161.8243,-19.3214 170.3554,-18.3537 178.6344,-17.4146"/>
<polygon fill="#191970" stroke="#191970" points="179.043,-20.8908 188.5847,-16.2859 178.2539,-13.9354 179.043,-20.8908"/>
</g>
</g>
</svg>
