<?xml version="1.0" encoding="UTF-8" standalone="no"?>
<!DOCTYPE svg PUBLIC "-//W3C//DTD SVG 1.1//EN"
 "http://www.w3.org/Graphics/SVG/1.1/DTD/svg11.dtd">
<!-- Generated by graphviz version 2.40.1 (20161225.0304)
 -->
<!-- Title: LSODA::lsoda_update Pages: 1 -->
<svg width="807pt" height="484pt"
 viewBox="0.00 0.00 807.00 484.00" xmlns="http://www.w3.org/2000/svg" xmlns:xlink="http://www.w3.org/1999/xlink">
<g id="graph0" class="graph" transform="scale(1 1) rotate(0) translate(4 480)">
<title>LSODA::lsoda_update</title>
<!-- Node127 -->
<g id="node1" class="node">
<title>Node127</title>
<polygon fill="#bfbfbf" stroke="#000000" points="0,-323.5 0,-342.5 114,-342.5 114,-323.5 0,-323.5"/>
<text text-anchor="middle" x="57" y="-330.5" font-family="Helvetica,sans-Serif" font-size="10.00" fill="#000000">LSODA::lsoda_update</text>
</g>
<!-- Node128 -->
<g id="node2" class="node">
<title>Node128</title>
<g id="a_node2"><a xlink:href="classLSODA.html#a705dcfe5b21827adb8871e48f2c72fb2" target="_top" xlink:title="LSODA::lsoda">
<polygon fill="none" stroke="#000000" points="150,-323.5 150,-342.5 230,-342.5 230,-323.5 150,-323.5"/>
<text text-anchor="middle" x="190" y="-330.5" font-family="Helvetica,sans-Serif" font-size="10.00" fill="#000000">LSODA::lsoda</text>
</a>
</g>
</g>
<!-- Node127&#45;&gt;Node128 -->
<g id="edge1" class="edge">
<title>Node127&#45;&gt;Node128</title>
<path fill="none" stroke="#191970" d="M114.1758,-333C122.5915,-333 131.2104,-333 139.4789,-333"/>
<polygon fill="#191970" stroke="#191970" points="139.7234,-336.5001 149.7234,-333 139.7234,-329.5001 139.7234,-336.5001"/>
</g>
<!-- Node129 -->
<g id="node3" class="node">
<title>Node129</title>
<g id="a_node3"><a xlink:href="classLSODA.html#addd83d35565b2c2db644f27dbd94446f" target="_top" xlink:title="LSODA::terminate">
<polygon fill="none" stroke="#000000" points="277.5,-456.5 277.5,-475.5 374.5,-475.5 374.5,-456.5 277.5,-456.5"/>
<text text-anchor="middle" x="326" y="-463.5" font-family="Helvetica,sans-Serif" font-size="10.00" fill="#000000">LSODA::terminate</text>
</a>
</g>
</g>
<!-- Node128&#45;&gt;Node129 -->
<g id="edge2" class="edge">
<title>Node128&#45;&gt;Node129</title>
<path fill="none" stroke="#191970" d="M193.7251,-342.5461C202.7284,-364.3758 227.7865,-418.2662 266,-447 268.4958,-448.8766 271.182,-450.571 273.9851,-452.1006"/>
<polygon fill="#191970" stroke="#191970" points="272.7057,-455.3663 283.2455,-456.4453 275.679,-449.0292 272.7057,-455.3663"/>
</g>
<!-- Node130 -->
<g id="node4" class="node">
<title>Node130</title>
<g id="a_node4"><a xlink:href="classLSODA.html#a6f118c16d754b66d7ee9220037260978" target="_top" xlink:title="LSODA::resize_system">
<polygon fill="none" stroke="#000000" points="266,-418.5 266,-437.5 386,-437.5 386,-418.5 266,-418.5"/>
<text text-anchor="middle" x="326" y="-425.5" font-family="Helvetica,sans-Serif" font-size="10.00" fill="#000000">LSODA::resize_system</text>
</a>
</g>
</g>
<!-- Node128&#45;&gt;Node130 -->
<g id="edge3" class="edge">
<title>Node128&#45;&gt;Node130</title>
<path fill="none" stroke="#191970" d="M197.0883,-342.6381C209.3728,-358.6795 236.1802,-390.8795 266,-409 269.4214,-411.0791 273.0925,-412.9522 276.8718,-414.6358"/>
<polygon fill="#191970" stroke="#191970" points="275.8231,-417.9856 286.4082,-418.4395 278.4165,-411.4837 275.8231,-417.9856"/>
</g>
<!-- Node131 -->
<g id="node5" class="node">
<title>Node131</title>
<g id="a_node5"><a xlink:href="classLSODA.html#a0a54717e6b42492345098b16bb248e77" target="_top" xlink:title="LSODA::ewset">
<polygon fill="none" stroke="#000000" points="284.5,-380.5 284.5,-399.5 367.5,-399.5 367.5,-380.5 284.5,-380.5"/>
<text text-anchor="middle" x="326" y="-387.5" font-family="Helvetica,sans-Serif" font-size="10.00" fill="#000000">LSODA::ewset</text>
</a>
</g>
</g>
<!-- Node128&#45;&gt;Node131 -->
<g id="edge4" class="edge">
<title>Node128&#45;&gt;Node131</title>
<path fill="none" stroke="#191970" d="M207.1492,-342.5478C222.3232,-350.7586 245.22,-362.5755 266,-371 271.449,-373.2091 277.2584,-375.329 283.0359,-377.2996"/>
<polygon fill="#191970" stroke="#191970" points="282.0666,-380.6652 292.6595,-380.4644 284.2534,-374.0155 282.0666,-380.6652"/>
</g>
<!-- Node132 -->
<g id="node6" class="node">
<title>Node132</title>
<g id="a_node6"><a xlink:href="classLSODA.html#afbcbaee47892060721287dc0ba9708f9" target="_top" xlink:title="LSODA::terminate2">
<polygon fill="none" stroke="#000000" points="275,-342.5 275,-361.5 377,-361.5 377,-342.5 275,-342.5"/>
<text text-anchor="middle" x="326" y="-349.5" font-family="Helvetica,sans-Serif" font-size="10.00" fill="#000000">LSODA::terminate2</text>
</a>
</g>
</g>
<!-- Node128&#45;&gt;Node132 -->
<g id="edge5" class="edge">
<title>Node128&#45;&gt;Node132</title>
<path fill="none" stroke="#191970" d="M230.0689,-338.5979C240.8559,-340.1049 252.7778,-341.7704 264.4445,-343.4003"/>
<polygon fill="#191970" stroke="#191970" points="264.2082,-346.9012 274.5963,-344.8186 265.1768,-339.9686 264.2082,-346.9012"/>
</g>
<!-- Node133 -->
<g id="node7" class="node">
<title>Node133</title>
<g id="a_node7"><a xlink:href="classLSODA.html#ac94b738016b2a7c57cedd5ea4f13311f" target="_top" xlink:title="LSODA::vmnorm">
<polygon fill="none" stroke="#000000" points="707,-242.5 707,-261.5 799,-261.5 799,-242.5 707,-242.5"/>
<text text-anchor="middle" x="753" y="-249.5" font-family="Helvetica,sans-Serif" font-size="10.00" fill="#000000">LSODA::vmnorm</text>
</a>
</g>
</g>
<!-- Node128&#45;&gt;Node133 -->
<g id="edge6" class="edge">
<title>Node128&#45;&gt;Node133</title>
<path fill="none" stroke="#191970" d="M230.1453,-331.1885C330.1131,-326.3931 588.0881,-312.1946 671,-290 690.8317,-284.6913 711.8121,-274.8824 727.5863,-266.5603"/>
<polygon fill="#191970" stroke="#191970" points="729.5599,-269.4715 736.6784,-261.6243 726.2201,-263.3196 729.5599,-269.4715"/>
</g>
<!-- Node134 -->
<g id="node8" class="node">
<title>Node134</title>
<g id="a_node8"><a xlink:href="classLSODA.html#a1ee114165850fa09fcbd0b206de560dc" target="_top" xlink:title="LSODA::intdy">
<polygon fill="none" stroke="#000000" points="287.5,-266.5 287.5,-285.5 364.5,-285.5 364.5,-266.5 287.5,-266.5"/>
<text text-anchor="middle" x="326" y="-273.5" font-family="Helvetica,sans-Serif" font-size="10.00" fill="#000000">LSODA::intdy</text>
</a>
</g>
</g>
<!-- Node128&#45;&gt;Node134 -->
<g id="edge7" class="edge">
<title>Node128&#45;&gt;Node134</title>
<path fill="none" stroke="#191970" d="M211.5495,-323.444C226.7256,-316.7631 247.5456,-307.6955 266,-300 274.5015,-296.4549 283.7212,-292.7151 292.3241,-289.2703"/>
<polygon fill="#191970" stroke="#191970" points="293.71,-292.4857 301.7038,-285.5323 291.1185,-285.9831 293.71,-292.4857"/>
</g>
<!-- Node135 -->
<g id="node9" class="node">
<title>Node135</title>
<g id="a_node9"><a xlink:href="classLSODA.html#abf4eccf92cba7f87f9d5051ee6b28a42" target="_top" xlink:title="LSODA::successreturn">
<polygon fill="none" stroke="#000000" points="267,-228.5 267,-247.5 385,-247.5 385,-228.5 267,-228.5"/>
<text text-anchor="middle" x="326" y="-235.5" font-family="Helvetica,sans-Serif" font-size="10.00" fill="#000000">LSODA::successreturn</text>
</a>
</g>
</g>
<!-- Node128&#45;&gt;Node135 -->
<g id="edge8" class="edge">
<title>Node128&#45;&gt;Node135</title>
<path fill="none" stroke="#191970" d="M197.0883,-323.3619C209.3728,-307.3205 236.1802,-275.1205 266,-257 269.4214,-254.9209 273.0925,-253.0478 276.8718,-251.3642"/>
<polygon fill="#191970" stroke="#191970" points="278.4165,-254.5163 286.4082,-247.5605 275.8231,-248.0144 278.4165,-254.5163"/>
</g>
<!-- Node136 -->
<g id="node10" class="node">
<title>Node136</title>
<g id="a_node10"><a xlink:href="classLSODA.html#a7c6d8d75b383474b5b05c710d2921618" target="_top" xlink:title="LSODA::stoda">
<polygon fill="none" stroke="#000000" points="286,-152.5 286,-171.5 366,-171.5 366,-152.5 286,-152.5"/>
<text text-anchor="middle" x="326" y="-159.5" font-family="Helvetica,sans-Serif" font-size="10.00" fill="#000000">LSODA::stoda</text>
</a>
</g>
</g>
<!-- Node128&#45;&gt;Node136 -->
<g id="edge9" class="edge">
<title>Node128&#45;&gt;Node136</title>
<path fill="none" stroke="#191970" d="M195.4421,-323.3388C207.0877,-303.0351 235.8295,-254.8548 266,-219 278.3266,-204.3511 294.0767,-189.509 306.3468,-178.6436"/>
<polygon fill="#191970" stroke="#191970" points="308.9553,-181.0133 314.2006,-171.808 304.3597,-175.7331 308.9553,-181.0133"/>
</g>
<!-- Node136&#45;&gt;Node133 -->
<g id="edge13" class="edge">
<title>Node136&#45;&gt;Node133</title>
<path fill="none" stroke="#191970" d="M336.3489,-171.5208C348.434,-182.7097 368.9437,-201.9201 386,-219 402.4391,-235.4618 400.6287,-247.8075 422,-257 516.9662,-297.848 641.8952,-278.8242 707.7949,-263.8988"/>
<polygon fill="#191970" stroke="#191970" points="708.91,-267.2325 717.8509,-261.5483 707.3168,-260.4163 708.91,-267.2325"/>
</g>
<!-- Node137 -->
<g id="node11" class="node">
<title>Node137</title>
<g id="a_node11"><a xlink:href="classLSODA.html#a0f3b8f1c3f9e12fb89ddebfc02930b56" target="_top" xlink:title="LSODA::cfode">
<polygon fill="none" stroke="#000000" points="440.5,-228.5 440.5,-247.5 520.5,-247.5 520.5,-228.5 440.5,-228.5"/>
<text text-anchor="middle" x="480.5" y="-235.5" font-family="Helvetica,sans-Serif" font-size="10.00" fill="#000000">LSODA::cfode</text>
</a>
</g>
</g>
<!-- Node136&#45;&gt;Node137 -->
<g id="edge10" class="edge">
<title>Node136&#45;&gt;Node137</title>
<path fill="none" stroke="#191970" d="M339.781,-171.5185C357.9657,-183.7602 391.2727,-205.0961 422,-219 426.7428,-221.1461 431.8007,-223.1638 436.8817,-225.0243"/>
<polygon fill="#191970" stroke="#191970" points="436.0095,-228.4264 446.6043,-228.4005 438.3058,-221.8137 436.0095,-228.4264"/>
</g>
<!-- Node138 -->
<g id="node12" class="node">
<title>Node138</title>
<g id="a_node12"><a xlink:href="classLSODA.html#a391bc37600b2df97c24cafc6352dc4ce" target="_top" xlink:title="LSODA::resetcoeff">
<polygon fill="none" stroke="#000000" points="430.5,-190.5 430.5,-209.5 530.5,-209.5 530.5,-190.5 430.5,-190.5"/>
<text text-anchor="middle" x="480.5" y="-197.5" font-family="Helvetica,sans-Serif" font-size="10.00" fill="#000000">LSODA::resetcoeff</text>
</a>
</g>
</g>
<!-- Node136&#45;&gt;Node138 -->
<g id="edge11" class="edge">
<title>Node136&#45;&gt;Node138</title>
<path fill="none" stroke="#191970" d="M364.9869,-171.589C385.283,-176.5809 410.2935,-182.7324 431.8462,-188.0334"/>
<polygon fill="#191970" stroke="#191970" points="431.2469,-191.4902 441.7935,-190.4799 432.9188,-184.6928 431.2469,-191.4902"/>
</g>
<!-- Node139 -->
<g id="node13" class="node">
<title>Node139</title>
<g id="a_node13"><a xlink:href="classLSODA.html#acd395b8e8db2b012842c1ffd57244fd3" target="_top" xlink:title="LSODA::scaleh">
<polygon fill="none" stroke="#000000" points="438,-152.5 438,-171.5 523,-171.5 523,-152.5 438,-152.5"/>
<text text-anchor="middle" x="480.5" y="-159.5" font-family="Helvetica,sans-Serif" font-size="10.00" fill="#000000">LSODA::scaleh</text>
</a>
</g>
</g>
<!-- Node136&#45;&gt;Node139 -->
<g id="edge12" class="edge">
<title>Node136&#45;&gt;Node139</title>
<path fill="none" stroke="#191970" d="M366.1897,-162C384.9196,-162 407.4588,-162 427.5546,-162"/>
<polygon fill="#191970" stroke="#191970" points="427.8076,-165.5001 437.8076,-162 427.8076,-158.5001 427.8076,-165.5001"/>
</g>
<!-- Node140 -->
<g id="node14" class="node">
<title>Node140</title>
<g id="a_node14"><a xlink:href="classLSODA.html#ae5ebdebff330f29ef0c15bece1bf8299" target="_top" xlink:title="LSODA::correction">
<polygon fill="none" stroke="#000000" points="431,-114.5 431,-133.5 530,-133.5 530,-114.5 431,-114.5"/>
<text text-anchor="middle" x="480.5" y="-121.5" font-family="Helvetica,sans-Serif" font-size="10.00" fill="#000000">LSODA::correction</text>
</a>
</g>
</g>
<!-- Node136&#45;&gt;Node140 -->
<g id="edge14" class="edge">
<title>Node136&#45;&gt;Node140</title>
<path fill="none" stroke="#191970" d="M364.9869,-152.411C385.283,-147.4191 410.2935,-141.2676 431.8462,-135.9666"/>
<polygon fill="#191970" stroke="#191970" points="432.9188,-139.3072 441.7935,-133.5201 431.2469,-132.5098 432.9188,-139.3072"/>
</g>
<!-- Node146 -->
<g id="node20" class="node">
<title>Node146</title>
<g id="a_node20"><a xlink:href="classLSODA.html#aa81043ac776e6d6b81ae2382b03dea2a" target="_top" xlink:title="LSODA::methodswitch">
<polygon fill="none" stroke="#000000" points="422,-76.5 422,-95.5 539,-95.5 539,-76.5 422,-76.5"/>
<text text-anchor="middle" x="480.5" y="-83.5" font-family="Helvetica,sans-Serif" font-size="10.00" fill="#000000">LSODA::methodswitch</text>
</a>
</g>
</g>
<!-- Node136&#45;&gt;Node146 -->
<g id="edge22" class="edge">
<title>Node136&#45;&gt;Node146</title>
<path fill="none" stroke="#191970" d="M339.781,-152.4815C357.9657,-140.2398 391.2727,-118.9039 422,-105 426.7428,-102.8539 431.8007,-100.8362 436.8817,-98.9757"/>
<polygon fill="#191970" stroke="#191970" points="438.3058,-102.1863 446.6043,-95.5995 436.0095,-95.5736 438.3058,-102.1863"/>
</g>
<!-- Node147 -->
<g id="node21" class="node">
<title>Node147</title>
<g id="a_node21"><a xlink:href="classLSODA.html#a1d1e589364f1c4100eba1837021fc4d9" target="_top" xlink:title="LSODA::endstoda">
<polygon fill="none" stroke="#000000" points="432.5,-38.5 432.5,-57.5 528.5,-57.5 528.5,-38.5 432.5,-38.5"/>
<text text-anchor="middle" x="480.5" y="-45.5" font-family="Helvetica,sans-Serif" font-size="10.00" fill="#000000">LSODA::endstoda</text>
</a>
</g>
</g>
<!-- Node136&#45;&gt;Node147 -->
<g id="edge23" class="edge">
<title>Node136&#45;&gt;Node147</title>
<path fill="none" stroke="#191970" d="M333.103,-152.4403C347.6899,-133.4559 382.9507,-90.7858 422,-67 425.3914,-64.9342 429.032,-63.0676 432.7778,-61.386"/>
<polygon fill="#191970" stroke="#191970" points="434.2569,-64.5635 442.2234,-57.5788 431.64,-58.0711 434.2569,-64.5635"/>
</g>
<!-- Node148 -->
<g id="node22" class="node">
<title>Node148</title>
<g id="a_node22"><a xlink:href="classLSODA.html#a0fae42ed968227524b320ab5d3470665" target="_top" xlink:title="LSODA::orderswitch">
<polygon fill="none" stroke="#000000" points="427,-.5 427,-19.5 534,-19.5 534,-.5 427,-.5"/>
<text text-anchor="middle" x="480.5" y="-7.5" font-family="Helvetica,sans-Serif" font-size="10.00" fill="#000000">LSODA::orderswitch</text>
</a>
</g>
</g>
<!-- Node136&#45;&gt;Node148 -->
<g id="edge24" class="edge">
<title>Node136&#45;&gt;Node148</title>
<path fill="none" stroke="#191970" d="M330.295,-152.3615C341.6427,-127.9863 374.8227,-63.3841 422,-29 424.6321,-27.0817 427.4673,-25.3508 430.42,-23.7898"/>
<polygon fill="#191970" stroke="#191970" points="431.9177,-26.9535 439.5446,-19.5995 428.9964,-20.5922 431.9177,-26.9535"/>
</g>
<!-- Node140&#45;&gt;Node133 -->
<g id="edge20" class="edge">
<title>Node140&#45;&gt;Node133</title>
<path fill="none" stroke="#191970" d="M522.7051,-133.5324C528.5438,-136.0051 534.1817,-139.1085 539,-143 563.7888,-163.0205 549.6615,-185.6798 575,-205 609.9645,-231.6598 658.7515,-243.2392 696.409,-248.2474"/>
<polygon fill="#191970" stroke="#191970" points="696.3667,-251.7677 706.7144,-249.4927 697.2066,-244.8182 696.3667,-251.7677"/>
</g>
<!-- Node141 -->
<g id="node15" class="node">
<title>Node141</title>
<g id="a_node15"><a xlink:href="classLSODA.html#a87757b30f48356ff9c77bf587ebb16d8" target="_top" xlink:title="LSODA::prja">
<polygon fill="none" stroke="#000000" points="587,-176.5 587,-195.5 659,-195.5 659,-176.5 587,-176.5"/>
<text text-anchor="middle" x="623" y="-183.5" font-family="Helvetica,sans-Serif" font-size="10.00" fill="#000000">LSODA::prja</text>
</a>
</g>
</g>
<!-- Node140&#45;&gt;Node141 -->
<g id="edge15" class="edge">
<title>Node140&#45;&gt;Node141</title>
<path fill="none" stroke="#191970" d="M513.3542,-133.5766C521.8163,-136.3398 530.8359,-139.5499 539,-143 555.6647,-150.0424 558.9082,-153.7319 575,-162 581.236,-165.2041 587.9533,-168.5983 594.3301,-171.7939"/>
<polygon fill="#191970" stroke="#191970" points="592.8232,-174.9534 603.3336,-176.2885 595.9498,-168.6905 592.8232,-174.9534"/>
</g>
<!-- Node144 -->
<g id="node18" class="node">
<title>Node144</title>
<g id="a_node18"><a xlink:href="classLSODA.html#ac7effc5da52973a91cb3409012f172e7" target="_top" xlink:title="LSODA::corfailure">
<polygon fill="none" stroke="#000000" points="575,-133.5 575,-152.5 671,-152.5 671,-133.5 575,-133.5"/>
<text text-anchor="middle" x="623" y="-140.5" font-family="Helvetica,sans-Serif" font-size="10.00" fill="#000000">LSODA::corfailure</text>
</a>
</g>
</g>
<!-- Node140&#45;&gt;Node144 -->
<g id="edge19" class="edge">
<title>Node140&#45;&gt;Node144</title>
<path fill="none" stroke="#191970" d="M530.3396,-130.6453C541.5132,-132.1351 553.4613,-133.7282 564.9365,-135.2582"/>
<polygon fill="#191970" stroke="#191970" points="564.4929,-138.7299 574.8678,-136.5824 565.4181,-131.7913 564.4929,-138.7299"/>
</g>
<!-- Node145 -->
<g id="node19" class="node">
<title>Node145</title>
<g id="a_node19"><a xlink:href="classLSODA.html#a5476113f8738e733652f1f6b02eaba3b" target="_top" xlink:title="LSODA::solsy">
<polygon fill="none" stroke="#000000" points="583,-95.5 583,-114.5 663,-114.5 663,-95.5 583,-95.5"/>
<text text-anchor="middle" x="623" y="-102.5" font-family="Helvetica,sans-Serif" font-size="10.00" fill="#000000">LSODA::solsy</text>
</a>
</g>
</g>
<!-- Node140&#45;&gt;Node145 -->
<g id="edge21" class="edge">
<title>Node140&#45;&gt;Node145</title>
<path fill="none" stroke="#191970" d="M530.3396,-117.3547C544.0263,-115.5298 558.8751,-113.55 572.5935,-111.7209"/>
<polygon fill="#191970" stroke="#191970" points="573.376,-115.1476 582.8257,-110.3566 572.4508,-108.209 573.376,-115.1476"/>
</g>
<!-- Node141&#45;&gt;Node133 -->
<g id="edge16" class="edge">
<title>Node141&#45;&gt;Node133</title>
<path fill="none" stroke="#191970" d="M638.8037,-195.5851C655.4684,-205.515 682.6341,-221.2025 707,-233 710.8496,-234.8639 714.9303,-236.7173 719.0088,-238.4947"/>
<polygon fill="#191970" stroke="#191970" points="717.8382,-241.7998 728.4117,-242.473 720.5658,-235.353 717.8382,-241.7998"/>
</g>
<!-- Node142 -->
<g id="node16" class="node">
<title>Node142</title>
<g id="a_node16"><a xlink:href="classLSODA.html#ab6221280caead6f45c316c261e8de713" target="_top" xlink:title="LSODA::fnorm">
<polygon fill="none" stroke="#000000" points="712.5,-204.5 712.5,-223.5 793.5,-223.5 793.5,-204.5 712.5,-204.5"/>
<text text-anchor="middle" x="753" y="-211.5" font-family="Helvetica,sans-Serif" font-size="10.00" fill="#000000">LSODA::fnorm</text>
</a>
</g>
</g>
<!-- Node141&#45;&gt;Node142 -->
<g id="edge17" class="edge">
<title>Node141&#45;&gt;Node142</title>
<path fill="none" stroke="#191970" d="M659.2122,-193.7996C672.6415,-196.692 688.1253,-200.027 702.5922,-203.1429"/>
<polygon fill="#191970" stroke="#191970" points="701.8947,-206.5729 712.4075,-205.257 703.3686,-199.7298 701.8947,-206.5729"/>
</g>
<!-- Node143 -->
<g id="node17" class="node">
<title>Node143</title>
<g id="a_node17"><a xlink:href="classLSODA.html#a9aade25a1818e2af775a17a1ed2ba4f9" target="_top" xlink:title="LSODA::dgefa">
<polygon fill="none" stroke="#000000" points="713,-166.5 713,-185.5 793,-185.5 793,-166.5 713,-166.5"/>
<text text-anchor="middle" x="753" y="-173.5" font-family="Helvetica,sans-Serif" font-size="10.00" fill="#000000">LSODA::dgefa</text>
</a>
</g>
</g>
<!-- Node141&#45;&gt;Node143 -->
<g id="edge18" class="edge">
<title>Node141&#45;&gt;Node143</title>
<path fill="none" stroke="#191970" d="M659.2122,-183.2144C672.6333,-182.1821 688.1063,-180.9918 702.5656,-179.8796"/>
<polygon fill="#191970" stroke="#191970" points="703.1691,-183.3436 712.8712,-179.0868 702.6322,-176.3642 703.1691,-183.3436"/>
</g>
</g>
</svg>
