<?xml version="1.0" encoding="UTF-8" standalone="no"?>
<!DOCTYPE svg PUBLIC "-//W3C//DTD SVG 1.1//EN"
 "http://www.w3.org/Graphics/SVG/1.1/DTD/svg11.dtd">
<!-- Generated by graphviz version 2.40.1 (20161225.0304)
 -->
<!-- Title: Species_Base::setX Pages: 1 -->
<svg width="732pt" height="154pt"
 viewBox="0.00 0.00 732.00 153.50" xmlns="http://www.w3.org/2000/svg" xmlns:xlink="http://www.w3.org/1999/xlink">
<g id="graph0" class="graph" transform="scale(1 1) rotate(0) translate(4 149.5)">
<title>Species_Base::setX</title>
<!-- Node136 -->
<g id="node1" class="node">
<title>Node136</title>
<polygon fill="#bfbfbf" stroke="#000000" points="0,-57.5 0,-76.5 106,-76.5 106,-57.5 0,-57.5"/>
<text text-anchor="middle" x="53" y="-64.5" font-family="Helvetica,sans-Serif" font-size="10.00" fill="#000000">Species_Base::setX</text>
</g>
<!-- Node137 -->
<g id="node2" class="node">
<title>Node137</title>
<g id="a_node2"><a xlink:href="classSolver.html#a9172d0d2dc6399ada494ef23020943d5" target="_top" xlink:title="Computes the partial integral &#160;for the specified species. ">
<polygon fill="none" stroke="#000000" points="154,-115 154,-145 270,-145 270,-115 154,-115"/>
<text text-anchor="start" x="162" y="-133" font-family="Helvetica,sans-Serif" font-size="10.00" fill="#000000">Solver::integrate_wudx</text>
<text text-anchor="middle" x="212" y="-122" font-family="Helvetica,sans-Serif" font-size="10.00" fill="#000000">_above</text>
</a>
</g>
</g>
<!-- Node136&#45;&gt;Node137 -->
<g id="edge1" class="edge">
<title>Node136&#45;&gt;Node137</title>
<path fill="none" stroke="#191970" d="M83.885,-80.7313C100.922,-88.1679 122.5148,-97.3688 142,-105 150.5313,-108.3412 159.7148,-111.7521 168.5324,-114.937"/>
<polygon fill="#191970" stroke="#191970" points="84.9943,-77.3959 74.4308,-76.5818 82.181,-83.8057 84.9943,-77.3959"/>
</g>
<!-- Node138 -->
<g id="node3" class="node">
<title>Node138</title>
<g id="a_node3"><a xlink:href="classSolver.html#a2a6ca7647a4cde1195789132f3873c0b" target="_top" xlink:title="Solver::integrate_x">
<polygon fill="none" stroke="#000000" points="163,-76.5 163,-95.5 261,-95.5 261,-76.5 163,-76.5"/>
<text text-anchor="middle" x="212" y="-83.5" font-family="Helvetica,sans-Serif" font-size="10.00" fill="#000000">Solver::integrate_x</text>
</a>
</g>
</g>
<!-- Node136&#45;&gt;Node138 -->
<g id="edge2" class="edge">
<title>Node136&#45;&gt;Node138</title>
<path fill="none" stroke="#191970" d="M116.3844,-74.5742C131.8226,-76.4191 148.1072,-78.365 162.7752,-80.1178"/>
<polygon fill="#191970" stroke="#191970" points="116.7317,-71.0909 106.387,-73.3796 115.9011,-78.0415 116.7317,-71.0909"/>
</g>
<!-- Node142 -->
<g id="node7" class="node">
<title>Node142</title>
<g id="a_node7"><a xlink:href="classSolver.html#a0c67ab4d4fd9c36cfcbfdc13021b419f" target="_top" xlink:title="Solver::initialize">
<polygon fill="none" stroke="#000000" points="169,-38.5 169,-57.5 255,-57.5 255,-38.5 169,-38.5"/>
<text text-anchor="middle" x="212" y="-45.5" font-family="Helvetica,sans-Serif" font-size="10.00" fill="#000000">Solver::initialize</text>
</a>
</g>
</g>
<!-- Node136&#45;&gt;Node142 -->
<g id="edge6" class="edge">
<title>Node136&#45;&gt;Node142</title>
<path fill="none" stroke="#191970" d="M116.557,-59.4051C134.0876,-57.3103 152.6969,-55.0865 168.7831,-53.1643"/>
<polygon fill="#191970" stroke="#191970" points="115.9011,-55.9585 106.387,-60.6204 116.7317,-62.9091 115.9011,-55.9585"/>
</g>
<!-- Node143 -->
<g id="node8" class="node">
<title>Node143</title>
<g id="a_node8"><a xlink:href="classSolver.html#ad3f68f3021eed287c5b1c85bdc24afd8" target="_top" xlink:title="Solver::copyStateToCohorts">
<polygon fill="none" stroke="#000000" points="142,-.5 142,-19.5 282,-19.5 282,-.5 142,-.5"/>
<text text-anchor="middle" x="212" y="-7.5" font-family="Helvetica,sans-Serif" font-size="10.00" fill="#000000">Solver::copyStateToCohorts</text>
</a>
</g>
</g>
<!-- Node136&#45;&gt;Node143 -->
<g id="edge7" class="edge">
<title>Node136&#45;&gt;Node143</title>
<path fill="none" stroke="#191970" d="M82.6421,-53.1216C99.7612,-45.4167 121.8341,-36.0041 142,-29 151.9922,-25.5295 162.9636,-22.2908 173.1958,-19.5056"/>
<polygon fill="#191970" stroke="#191970" points="80.8358,-50.0983 73.187,-57.4296 83.7382,-56.4683 80.8358,-50.0983"/>
</g>
<!-- Node139 -->
<g id="node4" class="node">
<title>Node139</title>
<g id="a_node4"><a xlink:href="classSolver.html#aa5f2d1d48f6b4db83dbb257325924d2c" target="_top" xlink:title="Solver::calcSpeciesBirthFlux">
<polygon fill="none" stroke="#000000" points="318,-76.5 318,-95.5 461,-95.5 461,-76.5 318,-76.5"/>
<text text-anchor="middle" x="389.5" y="-83.5" font-family="Helvetica,sans-Serif" font-size="10.00" fill="#000000">Solver::calcSpeciesBirthFlux</text>
</a>
</g>
</g>
<!-- Node138&#45;&gt;Node139 -->
<g id="edge3" class="edge">
<title>Node138&#45;&gt;Node139</title>
<path fill="none" stroke="#191970" d="M271.4967,-86C286.3355,-86 302.4028,-86 317.7637,-86"/>
<polygon fill="#191970" stroke="#191970" points="271.4437,-82.5001 261.4436,-86 271.4436,-89.5001 271.4437,-82.5001"/>
</g>
<!-- Node140 -->
<g id="node5" class="node">
<title>Node140</title>
<g id="a_node5"><a xlink:href="classSolver.html#ae9cbf50e5db34626f54298c75fc64188" target="_top" xlink:title="Solver::newborns_out">
<polygon fill="none" stroke="#000000" points="497,-76.5 497,-95.5 608,-95.5 608,-76.5 497,-76.5"/>
<text text-anchor="middle" x="552.5" y="-83.5" font-family="Helvetica,sans-Serif" font-size="10.00" fill="#000000">Solver::newborns_out</text>
</a>
</g>
</g>
<!-- Node139&#45;&gt;Node140 -->
<g id="edge4" class="edge">
<title>Node139&#45;&gt;Node140</title>
<path fill="none" stroke="#191970" d="M471.718,-86C480.1363,-86 488.5443,-86 496.5828,-86"/>
<polygon fill="#191970" stroke="#191970" points="471.4687,-82.5001 461.4686,-86 471.4686,-89.5001 471.4687,-82.5001"/>
</g>
<!-- Node141 -->
<g id="node6" class="node">
<title>Node141</title>
<g id="a_node6"><a xlink:href="classSolver.html#a40c9ebb8d585e07d8f65c4ac5ada6420" target="_top" xlink:title="Solver::u0_out">
<polygon fill="none" stroke="#000000" points="644,-76.5 644,-95.5 724,-95.5 724,-76.5 644,-76.5"/>
<text text-anchor="middle" x="684" y="-83.5" font-family="Helvetica,sans-Serif" font-size="10.00" fill="#000000">Solver::u0_out</text>
</a>
</g>
</g>
<!-- Node140&#45;&gt;Node141 -->
<g id="edge5" class="edge">
<title>Node140&#45;&gt;Node141</title>
<path fill="none" stroke="#191970" d="M618.3788,-86C627.0211,-86 635.6605,-86 643.6996,-86"/>
<polygon fill="#191970" stroke="#191970" points="618.2679,-82.5001 608.2678,-86 618.2678,-89.5001 618.2679,-82.5001"/>
</g>
<!-- Node144 -->
<g id="node9" class="node">
<title>Node144</title>
<g id="a_node9"><a xlink:href="classSolver.html#af4c8f6565df94ed6a058a224196b9c2b" target="_top" xlink:title="Solver::step_to">
<polygon fill="none" stroke="#000000" points="348,-.5 348,-19.5 431,-19.5 431,-.5 348,-.5"/>
<text text-anchor="middle" x="389.5" y="-7.5" font-family="Helvetica,sans-Serif" font-size="10.00" fill="#000000">Solver::step_to</text>
</a>
</g>
</g>
<!-- Node143&#45;&gt;Node144 -->
<g id="edge8" class="edge">
<title>Node143&#45;&gt;Node144</title>
<path fill="none" stroke="#191970" d="M292.1665,-10C311.448,-10 331.275,-10 347.9612,-10"/>
<polygon fill="#191970" stroke="#191970" points="292.1527,-6.5001 282.1527,-10 292.1527,-13.5001 292.1527,-6.5001"/>
</g>
<!-- Node145 -->
<g id="node10" class="node">
<title>Node145</title>
<g id="a_node10"><a xlink:href="classSolver.html#a06cf82d0a99490279ab20d2ad6b876db" target="_top" xlink:title="Solver::step_to">
<polygon fill="none" stroke="#000000" points="511,-.5 511,-19.5 594,-19.5 594,-.5 511,-.5"/>
<text text-anchor="middle" x="552.5" y="-7.5" font-family="Helvetica,sans-Serif" font-size="10.00" fill="#000000">Solver::step_to</text>
</a>
</g>
</g>
<!-- Node144&#45;&gt;Node145 -->
<g id="edge9" class="edge">
<title>Node144&#45;&gt;Node145</title>
<path fill="none" stroke="#191970" d="M441.094,-10C463.5502,-10 489.5233,-10 510.7392,-10"/>
<polygon fill="#191970" stroke="#191970" points="441.0536,-6.5001 431.0535,-10 441.0535,-13.5001 441.0536,-6.5001"/>
</g>
</g>
</svg>
