<?xml version="1.0" encoding="UTF-8" standalone="no"?>
<!DOCTYPE svg PUBLIC "-//W3C//DTD SVG 1.1//EN"
 "http://www.w3.org/Graphics/SVG/1.1/DTD/svg11.dtd">
<!-- Generated by graphviz version 2.40.1 (20161225.0304)
 -->
<!-- Title: IteratorSet&lt; Iterator &gt; Pages: 1 -->
<svg width="374pt" height="230pt"
 viewBox="0.00 0.00 373.50 230.00" xmlns="http://www.w3.org/2000/svg" xmlns:xlink="http://www.w3.org/1999/xlink">
<g id="graph0" class="graph" transform="scale(1 1) rotate(0) translate(4 226)">
<title>IteratorSet&lt; Iterator &gt;</title>
<!-- Node1 -->
<g id="node1" class="node">
<title>Node1</title>
<polygon fill="#bfbfbf" stroke="#000000" points="120.5,-.5 120.5,-19.5 231.5,-19.5 231.5,-.5 120.5,-.5"/>
<text text-anchor="middle" x="176" y="-7.5" font-family="Helvetica,sans-Serif" font-size="10.00" fill="#000000">IteratorSet&lt; Iterator &gt;</text>
</g>
<!-- Node2 -->
<g id="node2" class="node">
<title>Node2</title>
<polygon fill="none" stroke="#bfbfbf" points="0,-67.5 0,-86.5 112,-86.5 112,-67.5 0,-67.5"/>
<text text-anchor="middle" x="56" y="-74.5" font-family="Helvetica,sans-Serif" font-size="10.00" fill="#000000">std::vector&lt; Iterator &gt;</text>
</g>
<!-- Node2&#45;&gt;Node1 -->
<g id="edge1" class="edge">
<title>Node2&#45;&gt;Node1</title>
<path fill="none" stroke="#9a32cd" stroke-dasharray="5,2" d="M82.1768,-62.3846C105.4489,-49.391 138.8033,-30.7681 158.8388,-19.5817"/>
<polygon fill="#9a32cd" stroke="#9a32cd" points="80.2181,-59.4696 73.1931,-67.4005 83.6306,-65.5815 80.2181,-59.4696"/>
<text text-anchor="middle" x="135" y="-41" font-family="Helvetica,sans-Serif" font-size="10.00" fill="#000000"> iters</text>
</g>
<!-- Node3 -->
<g id="node3" class="node">
<title>Node3</title>
<polygon fill="none" stroke="#bfbfbf" points="130,-67.5 130,-86.5 222,-86.5 222,-67.5 130,-67.5"/>
<text text-anchor="middle" x="176" y="-74.5" font-family="Helvetica,sans-Serif" font-size="10.00" fill="#000000">std::vector&lt; int &gt;</text>
</g>
<!-- Node3&#45;&gt;Node1 -->
<g id="edge2" class="edge">
<title>Node3&#45;&gt;Node1</title>
<path fill="none" stroke="#9a32cd" stroke-dasharray="5,2" d="M176,-57.1079C176,-44.714 176,-29.3263 176,-19.5817"/>
<polygon fill="#9a32cd" stroke="#9a32cd" points="172.5001,-57.4005 176,-67.4005 179.5001,-57.4006 172.5001,-57.4005"/>
<text text-anchor="middle" x="192.5" y="-41" font-family="Helvetica,sans-Serif" font-size="10.00" fill="#000000"> strides</text>
</g>
<!-- Node4 -->
<g id="node4" class="node">
<title>Node4</title>
<polygon fill="none" stroke="#bfbfbf" points="240.5,-67.5 240.5,-86.5 365.5,-86.5 365.5,-67.5 240.5,-67.5"/>
<text text-anchor="middle" x="303" y="-74.5" font-family="Helvetica,sans-Serif" font-size="10.00" fill="#000000">std::vector&lt; std::string &gt;</text>
</g>
<!-- Node4&#45;&gt;Node1 -->
<g id="edge3" class="edge">
<title>Node4&#45;&gt;Node1</title>
<path fill="none" stroke="#9a32cd" stroke-dasharray="5,2" d="M275.9504,-62.7298C251.2953,-49.7227 215.5549,-30.8676 194.1622,-19.5817"/>
<polygon fill="#9a32cd" stroke="#9a32cd" points="274.3262,-65.83 284.804,-67.4005 277.5925,-59.6388 274.3262,-65.83"/>
<text text-anchor="middle" x="263.5" y="-41" font-family="Helvetica,sans-Serif" font-size="10.00" fill="#000000"> names</text>
</g>
<!-- Node5 -->
<g id="node5" class="node">
<title>Node5</title>
<g id="a_node5"><a xlink:title="STL class. ">
<polygon fill="none" stroke="#bfbfbf" points="273,-134.5 273,-153.5 333,-153.5 333,-134.5 273,-134.5"/>
<text text-anchor="middle" x="303" y="-141.5" font-family="Helvetica,sans-Serif" font-size="10.00" fill="#000000">std::string</text>
</a>
</g>
</g>
<!-- Node5&#45;&gt;Node4 -->
<g id="edge4" class="edge">
<title>Node5&#45;&gt;Node4</title>
<path fill="none" stroke="#9a32cd" stroke-dasharray="5,2" d="M303,-124.1079C303,-111.714 303,-96.3263 303,-86.5817"/>
<polygon fill="#9a32cd" stroke="#9a32cd" points="299.5001,-124.4005 303,-134.4005 306.5001,-124.4006 299.5001,-124.4005"/>
<text text-anchor="middle" x="324.5" y="-108" font-family="Helvetica,sans-Serif" font-size="10.00" fill="#000000"> elements</text>
</g>
<!-- Node6 -->
<g id="node6" class="node">
<title>Node6</title>
<g id="a_node6"><a xlink:title="STL class. ">
<polygon fill="none" stroke="#bfbfbf" points="255.5,-191.5 255.5,-221.5 350.5,-221.5 350.5,-191.5 255.5,-191.5"/>
<text text-anchor="start" x="263.5" y="-209.5" font-family="Helvetica,sans-Serif" font-size="10.00" fill="#000000">std::basic_string&lt;</text>
<text text-anchor="middle" x="303" y="-198.5" font-family="Helvetica,sans-Serif" font-size="10.00" fill="#000000"> char &gt;</text>
</a>
</g>
</g>
<!-- Node6&#45;&gt;Node5 -->
<g id="edge5" class="edge">
<title>Node6&#45;&gt;Node5</title>
<path fill="none" stroke="#191970" d="M303,-181.3498C303,-171.6481 303,-161.1303 303,-153.7356"/>
<polygon fill="#191970" stroke="#191970" points="299.5001,-181.3705 303,-191.3705 306.5001,-181.3705 299.5001,-181.3705"/>
</g>
</g>
</svg>
