<?xml version="1.0" encoding="UTF-8" standalone="no"?>
<!DOCTYPE svg PUBLIC "-//W3C//DTD SVG 1.1//EN"
 "http://www.w3.org/Graphics/SVG/1.1/DTD/svg11.dtd">
<!-- Generated by graphviz version 2.40.1 (20161225.0304)
 -->
<!-- Title: Species_Base::growthRateGradient Pages: 1 -->
<svg width="537pt" height="66pt"
 viewBox="0.00 0.00 537.00 66.00" xmlns="http://www.w3.org/2000/svg" xmlns:xlink="http://www.w3.org/1999/xlink">
<g id="graph0" class="graph" transform="scale(1 1) rotate(0) translate(4 62)">
<title>Species_Base::growthRateGradient</title>
<!-- Node86 -->
<g id="node1" class="node">
<title>Node86</title>
<polygon fill="#bfbfbf" stroke="#000000" points="0,-14 0,-44 136,-44 136,-14 0,-14"/>
<text text-anchor="start" x="8" y="-32" font-family="Helvetica,sans-Serif" font-size="10.00" fill="#000000">Species_Base::growthRate</text>
<text text-anchor="middle" x="68" y="-21" font-family="Helvetica,sans-Serif" font-size="10.00" fill="#000000">Gradient</text>
</g>
<!-- Node87 -->
<g id="node2" class="node">
<title>Node87</title>
<g id="a_node2"><a xlink:href="classSolver.html#ab712f582d6f785adb8620cb40bbb3de4" target="_top" xlink:title="Solver::calcRates_CM">
<polygon fill="none" stroke="#000000" points="173.5,-38.5 173.5,-57.5 289.5,-57.5 289.5,-38.5 173.5,-38.5"/>
<text text-anchor="middle" x="231.5" y="-45.5" font-family="Helvetica,sans-Serif" font-size="10.00" fill="#000000">Solver::calcRates_CM</text>
</a>
</g>
</g>
<!-- Node86&#45;&gt;Node87 -->
<g id="edge1" class="edge">
<title>Node86&#45;&gt;Node87</title>
<path fill="none" stroke="#191970" d="M146.5825,-38.1319C155.6496,-39.1856 164.7687,-40.2453 173.4928,-41.2591"/>
<polygon fill="#191970" stroke="#191970" points="146.7286,-34.6254 136.3914,-36.9476 145.9205,-41.5786 146.7286,-34.6254"/>
</g>
<!-- Node90 -->
<g id="node5" class="node">
<title>Node90</title>
<g id="a_node5"><a xlink:href="classSolver.html#a23be16428b7ba399bfd2f06555547f6b" target="_top" xlink:title="Solver::calcRates_EBT">
<polygon fill="none" stroke="#000000" points="172,-.5 172,-19.5 291,-19.5 291,-.5 172,-.5"/>
<text text-anchor="middle" x="231.5" y="-7.5" font-family="Helvetica,sans-Serif" font-size="10.00" fill="#000000">Solver::calcRates_EBT</text>
</a>
</g>
</g>
<!-- Node86&#45;&gt;Node90 -->
<g id="edge4" class="edge">
<title>Node86&#45;&gt;Node90</title>
<path fill="none" stroke="#191970" d="M146.4269,-19.8862C155.0142,-18.8883 163.6506,-17.8846 171.956,-16.9195"/>
<polygon fill="#191970" stroke="#191970" points="145.9205,-16.4214 136.3914,-21.0524 146.7286,-23.3746 145.9205,-16.4214"/>
</g>
<!-- Node88 -->
<g id="node3" class="node">
<title>Node88</title>
<g id="a_node3"><a xlink:href="classSolver.html#af4c8f6565df94ed6a058a224196b9c2b" target="_top" xlink:title="Solver::step_to">
<polygon fill="none" stroke="#000000" points="327,-19.5 327,-38.5 410,-38.5 410,-19.5 327,-19.5"/>
<text text-anchor="middle" x="368.5" y="-26.5" font-family="Helvetica,sans-Serif" font-size="10.00" fill="#000000">Solver::step_to</text>
</a>
</g>
</g>
<!-- Node87&#45;&gt;Node88 -->
<g id="edge2" class="edge">
<title>Node87&#45;&gt;Node88</title>
<path fill="none" stroke="#191970" d="M299.6644,-38.5465C308.9721,-37.2557 318.288,-35.9637 326.9248,-34.7659"/>
<polygon fill="#191970" stroke="#191970" points="299.0247,-35.1017 289.6003,-39.9423 299.9864,-42.0353 299.0247,-35.1017"/>
</g>
<!-- Node89 -->
<g id="node4" class="node">
<title>Node89</title>
<g id="a_node4"><a xlink:href="classSolver.html#a06cf82d0a99490279ab20d2ad6b876db" target="_top" xlink:title="Solver::step_to">
<polygon fill="none" stroke="#000000" points="446,-19.5 446,-38.5 529,-38.5 529,-19.5 446,-19.5"/>
<text text-anchor="middle" x="487.5" y="-26.5" font-family="Helvetica,sans-Serif" font-size="10.00" fill="#000000">Solver::step_to</text>
</a>
</g>
</g>
<!-- Node88&#45;&gt;Node89 -->
<g id="edge3" class="edge">
<title>Node88&#45;&gt;Node89</title>
<path fill="none" stroke="#191970" d="M420.3174,-29C428.8022,-29 437.499,-29 445.7019,-29"/>
<polygon fill="#191970" stroke="#191970" points="420.1205,-25.5001 410.1204,-29 420.1204,-32.5001 420.1205,-25.5001"/>
</g>
<!-- Node90&#45;&gt;Node88 -->
<g id="edge5" class="edge">
<title>Node90&#45;&gt;Node88</title>
<path fill="none" stroke="#191970" d="M301.3444,-19.6865C310.0102,-20.8883 318.6473,-22.0861 326.7006,-23.203"/>
<polygon fill="#191970" stroke="#191970" points="301.5777,-16.1854 291.1917,-18.2784 300.616,-23.119 301.5777,-16.1854"/>
</g>
</g>
</svg>
