<?xml version="1.0" encoding="UTF-8" standalone="no"?>
<!DOCTYPE svg PUBLIC "-//W3C//DTD SVG 1.1//EN"
 "http://www.w3.org/Graphics/SVG/1.1/DTD/svg11.dtd">
<!-- Generated by graphviz version 2.40.1 (20161225.0304)
 -->
<!-- Title: LSODA::methodswitch Pages: 1 -->
<svg width="882pt" height="28pt"
 viewBox="0.00 0.00 882.00 28.00" xmlns="http://www.w3.org/2000/svg" xmlns:xlink="http://www.w3.org/1999/xlink">
<g id="graph0" class="graph" transform="scale(1 1) rotate(0) translate(4 24)">
<title>LSODA::methodswitch</title>
<!-- Node154 -->
<g id="node1" class="node">
<title>Node154</title>
<polygon fill="#bfbfbf" stroke="#000000" points="0,-.5 0,-19.5 117,-19.5 117,-.5 0,-.5"/>
<text text-anchor="middle" x="58.5" y="-7.5" font-family="Helvetica,sans-Serif" font-size="10.00" fill="#000000">LSODA::methodswitch</text>
</g>
<!-- Node155 -->
<g id="node2" class="node">
<title>Node155</title>
<g id="a_node2"><a xlink:href="classLSODA.html#a7c6d8d75b383474b5b05c710d2921618" target="_top" xlink:title="LSODA::stoda">
<polygon fill="none" stroke="#000000" points="153,-.5 153,-19.5 233,-19.5 233,-.5 153,-.5"/>
<text text-anchor="middle" x="193" y="-7.5" font-family="Helvetica,sans-Serif" font-size="10.00" fill="#000000">LSODA::stoda</text>
</a>
</g>
</g>
<!-- Node154&#45;&gt;Node155 -->
<g id="edge1" class="edge">
<title>Node154&#45;&gt;Node155</title>
<path fill="none" stroke="#191970" d="M127.3106,-10C136.0226,-10 144.6997,-10 152.7566,-10"/>
<polygon fill="#191970" stroke="#191970" points="127.1024,-6.5001 117.1024,-10 127.1024,-13.5001 127.1024,-6.5001"/>
</g>
<!-- Node156 -->
<g id="node3" class="node">
<title>Node156</title>
<g id="a_node3"><a xlink:href="classLSODA.html#a705dcfe5b21827adb8871e48f2c72fb2" target="_top" xlink:title="LSODA::lsoda">
<polygon fill="none" stroke="#000000" points="269,-.5 269,-19.5 349,-19.5 349,-.5 269,-.5"/>
<text text-anchor="middle" x="309" y="-7.5" font-family="Helvetica,sans-Serif" font-size="10.00" fill="#000000">LSODA::lsoda</text>
</a>
</g>
</g>
<!-- Node155&#45;&gt;Node156 -->
<g id="edge2" class="edge">
<title>Node155&#45;&gt;Node156</title>
<path fill="none" stroke="#191970" d="M243.442,-10C251.9315,-10 260.6408,-10 268.8255,-10"/>
<polygon fill="#191970" stroke="#191970" points="243.2457,-6.5001 233.2456,-10 243.2456,-13.5001 243.2457,-6.5001"/>
</g>
<!-- Node157 -->
<g id="node4" class="node">
<title>Node157</title>
<g id="a_node4"><a xlink:href="classLSODA.html#a391e4d7bea026ad7c300cfb55cb290d1" target="_top" xlink:title="LSODA::lsoda_update">
<polygon fill="none" stroke="#000000" points="385,-.5 385,-19.5 499,-19.5 499,-.5 385,-.5"/>
<text text-anchor="middle" x="442" y="-7.5" font-family="Helvetica,sans-Serif" font-size="10.00" fill="#000000">LSODA::lsoda_update</text>
</a>
</g>
</g>
<!-- Node156&#45;&gt;Node157 -->
<g id="edge3" class="edge">
<title>Node156&#45;&gt;Node157</title>
<path fill="none" stroke="#191970" d="M359.4762,-10C367.7175,-10 376.3078,-10 384.6989,-10"/>
<polygon fill="#191970" stroke="#191970" points="359.2653,-6.5001 349.2653,-10 359.2653,-13.5001 359.2653,-6.5001"/>
</g>
<!-- Node158 -->
<g id="node5" class="node">
<title>Node158</title>
<g id="a_node5"><a xlink:href="classOdeSolver.html#a77d9f02ed28d5515366e6be08560f35a" target="_top" xlink:title="OdeSolver::step_to">
<polygon fill="none" stroke="#000000" points="535,-.5 535,-19.5 636,-19.5 636,-.5 535,-.5"/>
<text text-anchor="middle" x="585.5" y="-7.5" font-family="Helvetica,sans-Serif" font-size="10.00" fill="#000000">OdeSolver::step_to</text>
</a>
</g>
</g>
<!-- Node157&#45;&gt;Node158 -->
<g id="edge4" class="edge">
<title>Node157&#45;&gt;Node158</title>
<path fill="none" stroke="#191970" d="M509.3985,-10C517.8783,-10 526.4395,-10 534.6059,-10"/>
<polygon fill="#191970" stroke="#191970" points="509.1274,-6.5001 499.1273,-10 509.1273,-13.5001 509.1274,-6.5001"/>
</g>
<!-- Node159 -->
<g id="node6" class="node">
<title>Node159</title>
<g id="a_node6"><a xlink:href="classSolver.html#af4c8f6565df94ed6a058a224196b9c2b" target="_top" xlink:title="Solver::step_to">
<polygon fill="none" stroke="#000000" points="672,-.5 672,-19.5 755,-19.5 755,-.5 672,-.5"/>
<text text-anchor="middle" x="713.5" y="-7.5" font-family="Helvetica,sans-Serif" font-size="10.00" fill="#000000">Solver::step_to</text>
</a>
</g>
</g>
<!-- Node158&#45;&gt;Node159 -->
<g id="edge5" class="edge">
<title>Node158&#45;&gt;Node159</title>
<path fill="none" stroke="#191970" d="M646.2268,-10C654.9273,-10 663.7087,-10 671.9255,-10"/>
<polygon fill="#191970" stroke="#191970" points="646.089,-6.5001 636.089,-10 646.089,-13.5001 646.089,-6.5001"/>
</g>
<!-- Node160 -->
<g id="node7" class="node">
<title>Node160</title>
<g id="a_node7"><a xlink:href="classSolver.html#a06cf82d0a99490279ab20d2ad6b876db" target="_top" xlink:title="Solver::step_to">
<polygon fill="none" stroke="#000000" points="791,-.5 791,-19.5 874,-19.5 874,-.5 791,-.5"/>
<text text-anchor="middle" x="832.5" y="-7.5" font-family="Helvetica,sans-Serif" font-size="10.00" fill="#000000">Solver::step_to</text>
</a>
</g>
</g>
<!-- Node159&#45;&gt;Node160 -->
<g id="edge6" class="edge">
<title>Node159&#45;&gt;Node160</title>
<path fill="none" stroke="#191970" d="M765.3174,-10C773.8022,-10 782.499,-10 790.7019,-10"/>
<polygon fill="#191970" stroke="#191970" points="765.1205,-6.5001 755.1204,-10 765.1204,-13.5001 765.1205,-6.5001"/>
</g>
</g>
</svg>
