<?xml version="1.0" encoding="UTF-8" standalone="no"?>
<!DOCTYPE svg PUBLIC "-//W3C//DTD SVG 1.1//EN"
 "http://www.w3.org/Graphics/SVG/1.1/DTD/svg11.dtd">
<!-- Generated by graphviz version 2.40.1 (20161225.0304)
 -->
<!-- Title: Solver::copyStateToCohorts Pages: 1 -->
<svg width="386pt" height="28pt"
 viewBox="0.00 0.00 386.00 28.00" xmlns="http://www.w3.org/2000/svg" xmlns:xlink="http://www.w3.org/1999/xlink">
<g id="graph0" class="graph" transform="scale(1 1) rotate(0) translate(4 24)">
<title>Solver::copyStateToCohorts</title>
<!-- Node80 -->
<g id="node1" class="node">
<title>Node80</title>
<polygon fill="#bfbfbf" stroke="#000000" points="0,-.5 0,-19.5 140,-19.5 140,-.5 0,-.5"/>
<text text-anchor="middle" x="70" y="-7.5" font-family="Helvetica,sans-Serif" font-size="10.00" fill="#000000">Solver::copyStateToCohorts</text>
</g>
<!-- Node81 -->
<g id="node2" class="node">
<title>Node81</title>
<g id="a_node2"><a xlink:href="classSolver.html#af4c8f6565df94ed6a058a224196b9c2b" target="_top" xlink:title="Solver::step_to">
<polygon fill="none" stroke="#000000" points="176,-.5 176,-19.5 259,-19.5 259,-.5 176,-.5"/>
<text text-anchor="middle" x="217.5" y="-7.5" font-family="Helvetica,sans-Serif" font-size="10.00" fill="#000000">Solver::step_to</text>
</a>
</g>
</g>
<!-- Node80&#45;&gt;Node81 -->
<g id="edge1" class="edge">
<title>Node80&#45;&gt;Node81</title>
<path fill="none" stroke="#191970" d="M150.5617,-10C159.2833,-10 167.8767,-10 175.8485,-10"/>
<polygon fill="#191970" stroke="#191970" points="150.2941,-6.5001 140.2941,-10 150.2941,-13.5001 150.2941,-6.5001"/>
</g>
<!-- Node82 -->
<g id="node3" class="node">
<title>Node82</title>
<g id="a_node3"><a xlink:href="classSolver.html#a06cf82d0a99490279ab20d2ad6b876db" target="_top" xlink:title="Solver::step_to">
<polygon fill="none" stroke="#000000" points="295,-.5 295,-19.5 378,-19.5 378,-.5 295,-.5"/>
<text text-anchor="middle" x="336.5" y="-7.5" font-family="Helvetica,sans-Serif" font-size="10.00" fill="#000000">Solver::step_to</text>
</a>
</g>
</g>
<!-- Node81&#45;&gt;Node82 -->
<g id="edge2" class="edge">
<title>Node81&#45;&gt;Node82</title>
<path fill="none" stroke="#191970" d="M269.3174,-10C277.8022,-10 286.499,-10 294.7019,-10"/>
<polygon fill="#191970" stroke="#191970" points="269.1205,-6.5001 259.1204,-10 269.1204,-13.5001 269.1205,-6.5001"/>
</g>
</g>
</svg>
