<?xml version="1.0" encoding="UTF-8" standalone="no"?>
<!DOCTYPE svg PUBLIC "-//W3C//DTD SVG 1.1//EN"
 "http://www.w3.org/Graphics/SVG/1.1/DTD/svg11.dtd">
<!-- Generated by graphviz version 2.40.1 (20161225.0304)
 -->
<!-- Title: LSODA::endstoda Pages: 1 -->
<svg width="861pt" height="28pt"
 viewBox="0.00 0.00 861.00 28.00" xmlns="http://www.w3.org/2000/svg" xmlns:xlink="http://www.w3.org/1999/xlink">
<g id="graph0" class="graph" transform="scale(1 1) rotate(0) translate(4 24)">
<title>LSODA::endstoda</title>
<!-- Node58 -->
<g id="node1" class="node">
<title>Node58</title>
<polygon fill="#bfbfbf" stroke="#000000" points="0,-.5 0,-19.5 96,-19.5 96,-.5 0,-.5"/>
<text text-anchor="middle" x="48" y="-7.5" font-family="Helvetica,sans-Serif" font-size="10.00" fill="#000000">LSODA::endstoda</text>
</g>
<!-- Node59 -->
<g id="node2" class="node">
<title>Node59</title>
<g id="a_node2"><a xlink:href="classLSODA.html#a7c6d8d75b383474b5b05c710d2921618" target="_top" xlink:title="LSODA::stoda">
<polygon fill="none" stroke="#000000" points="132,-.5 132,-19.5 212,-19.5 212,-.5 132,-.5"/>
<text text-anchor="middle" x="172" y="-7.5" font-family="Helvetica,sans-Serif" font-size="10.00" fill="#000000">LSODA::stoda</text>
</a>
</g>
</g>
<!-- Node58&#45;&gt;Node59 -->
<g id="edge1" class="edge">
<title>Node58&#45;&gt;Node59</title>
<path fill="none" stroke="#191970" d="M106.5683,-10C115.0595,-10 123.6367,-10 131.6604,-10"/>
<polygon fill="#191970" stroke="#191970" points="106.2967,-6.5001 96.2967,-10 106.2967,-13.5001 106.2967,-6.5001"/>
</g>
<!-- Node60 -->
<g id="node3" class="node">
<title>Node60</title>
<g id="a_node3"><a xlink:href="classLSODA.html#a705dcfe5b21827adb8871e48f2c72fb2" target="_top" xlink:title="LSODA::lsoda">
<polygon fill="none" stroke="#000000" points="248,-.5 248,-19.5 328,-19.5 328,-.5 248,-.5"/>
<text text-anchor="middle" x="288" y="-7.5" font-family="Helvetica,sans-Serif" font-size="10.00" fill="#000000">LSODA::lsoda</text>
</a>
</g>
</g>
<!-- Node59&#45;&gt;Node60 -->
<g id="edge2" class="edge">
<title>Node59&#45;&gt;Node60</title>
<path fill="none" stroke="#191970" d="M222.442,-10C230.9315,-10 239.6408,-10 247.8255,-10"/>
<polygon fill="#191970" stroke="#191970" points="222.2457,-6.5001 212.2456,-10 222.2456,-13.5001 222.2457,-6.5001"/>
</g>
<!-- Node61 -->
<g id="node4" class="node">
<title>Node61</title>
<g id="a_node4"><a xlink:href="classLSODA.html#a391e4d7bea026ad7c300cfb55cb290d1" target="_top" xlink:title="LSODA::lsoda_update">
<polygon fill="none" stroke="#000000" points="364,-.5 364,-19.5 478,-19.5 478,-.5 364,-.5"/>
<text text-anchor="middle" x="421" y="-7.5" font-family="Helvetica,sans-Serif" font-size="10.00" fill="#000000">LSODA::lsoda_update</text>
</a>
</g>
</g>
<!-- Node60&#45;&gt;Node61 -->
<g id="edge3" class="edge">
<title>Node60&#45;&gt;Node61</title>
<path fill="none" stroke="#191970" d="M338.4762,-10C346.7175,-10 355.3078,-10 363.6989,-10"/>
<polygon fill="#191970" stroke="#191970" points="338.2653,-6.5001 328.2653,-10 338.2653,-13.5001 338.2653,-6.5001"/>
</g>
<!-- Node62 -->
<g id="node5" class="node">
<title>Node62</title>
<g id="a_node5"><a xlink:href="classOdeSolver.html#a77d9f02ed28d5515366e6be08560f35a" target="_top" xlink:title="OdeSolver::step_to">
<polygon fill="none" stroke="#000000" points="514,-.5 514,-19.5 615,-19.5 615,-.5 514,-.5"/>
<text text-anchor="middle" x="564.5" y="-7.5" font-family="Helvetica,sans-Serif" font-size="10.00" fill="#000000">OdeSolver::step_to</text>
</a>
</g>
</g>
<!-- Node61&#45;&gt;Node62 -->
<g id="edge4" class="edge">
<title>Node61&#45;&gt;Node62</title>
<path fill="none" stroke="#191970" d="M488.3985,-10C496.8783,-10 505.4395,-10 513.6059,-10"/>
<polygon fill="#191970" stroke="#191970" points="488.1274,-6.5001 478.1273,-10 488.1273,-13.5001 488.1274,-6.5001"/>
</g>
<!-- Node63 -->
<g id="node6" class="node">
<title>Node63</title>
<g id="a_node6"><a xlink:href="classSolver.html#af4c8f6565df94ed6a058a224196b9c2b" target="_top" xlink:title="Solver::step_to">
<polygon fill="none" stroke="#000000" points="651,-.5 651,-19.5 734,-19.5 734,-.5 651,-.5"/>
<text text-anchor="middle" x="692.5" y="-7.5" font-family="Helvetica,sans-Serif" font-size="10.00" fill="#000000">Solver::step_to</text>
</a>
</g>
</g>
<!-- Node62&#45;&gt;Node63 -->
<g id="edge5" class="edge">
<title>Node62&#45;&gt;Node63</title>
<path fill="none" stroke="#191970" d="M625.2268,-10C633.9273,-10 642.7087,-10 650.9255,-10"/>
<polygon fill="#191970" stroke="#191970" points="625.089,-6.5001 615.089,-10 625.089,-13.5001 625.089,-6.5001"/>
</g>
<!-- Node64 -->
<g id="node7" class="node">
<title>Node64</title>
<g id="a_node7"><a xlink:href="classSolver.html#a06cf82d0a99490279ab20d2ad6b876db" target="_top" xlink:title="Solver::step_to">
<polygon fill="none" stroke="#000000" points="770,-.5 770,-19.5 853,-19.5 853,-.5 770,-.5"/>
<text text-anchor="middle" x="811.5" y="-7.5" font-family="Helvetica,sans-Serif" font-size="10.00" fill="#000000">Solver::step_to</text>
</a>
</g>
</g>
<!-- Node63&#45;&gt;Node64 -->
<g id="edge6" class="edge">
<title>Node63&#45;&gt;Node64</title>
<path fill="none" stroke="#191970" d="M744.3174,-10C752.8022,-10 761.499,-10 769.7019,-10"/>
<polygon fill="#191970" stroke="#191970" points="744.1205,-6.5001 734.1204,-10 744.1204,-13.5001 744.1205,-6.5001"/>
</g>
</g>
</svg>
