<?xml version="1.0" encoding="UTF-8" standalone="no"?>
<!DOCTYPE svg PUBLIC "-//W3C//DTD SVG 1.1//EN"
 "http://www.w3.org/Graphics/SVG/1.1/DTD/svg11.dtd">
<!-- Generated by graphviz version 2.40.1 (20161225.0304)
 -->
<!-- Title: Species_Base::mortalityRate Pages: 1 -->
<svg width="548pt" height="142pt"
 viewBox="0.00 0.00 548.00 142.00" xmlns="http://www.w3.org/2000/svg" xmlns:xlink="http://www.w3.org/1999/xlink">
<g id="graph0" class="graph" transform="scale(1 1) rotate(0) translate(4 138)">
<title>Species_Base::mortalityRate</title>
<!-- Node107 -->
<g id="node1" class="node">
<title>Node107</title>
<polygon fill="#bfbfbf" stroke="#000000" points="0,-57.5 0,-76.5 144,-76.5 144,-57.5 0,-57.5"/>
<text text-anchor="middle" x="72" y="-64.5" font-family="Helvetica,sans-Serif" font-size="10.00" fill="#000000">Species_Base::mortalityRate</text>
</g>
<!-- Node108 -->
<g id="node2" class="node">
<title>Node108</title>
<g id="a_node2"><a xlink:href="classSolver.html#ab712f582d6f785adb8620cb40bbb3de4" target="_top" xlink:title="Solver::calcRates_CM">
<polygon fill="none" stroke="#000000" points="183,-114.5 183,-133.5 299,-133.5 299,-114.5 183,-114.5"/>
<text text-anchor="middle" x="241" y="-121.5" font-family="Helvetica,sans-Serif" font-size="10.00" fill="#000000">Solver::calcRates_CM</text>
</a>
</g>
</g>
<!-- Node107&#45;&gt;Node108 -->
<g id="edge1" class="edge">
<title>Node107&#45;&gt;Node108</title>
<path fill="none" stroke="#191970" d="M108.003,-80.0363C128.9493,-87.5282 155.8946,-97.0081 180,-105 189.581,-108.1765 200.0583,-111.4955 209.5841,-114.4543"/>
<polygon fill="#191970" stroke="#191970" points="109.1322,-76.723 98.5377,-76.6401 106.7681,-83.3117 109.1322,-76.723"/>
</g>
<!-- Node111 -->
<g id="node5" class="node">
<title>Node111</title>
<g id="a_node5"><a xlink:href="classSolver.html#a23be16428b7ba399bfd2f06555547f6b" target="_top" xlink:title="Solver::calcRates_EBT">
<polygon fill="none" stroke="#000000" points="181.5,-76.5 181.5,-95.5 300.5,-95.5 300.5,-76.5 181.5,-76.5"/>
<text text-anchor="middle" x="241" y="-83.5" font-family="Helvetica,sans-Serif" font-size="10.00" fill="#000000">Solver::calcRates_EBT</text>
</a>
</g>
</g>
<!-- Node107&#45;&gt;Node111 -->
<g id="edge4" class="edge">
<title>Node107&#45;&gt;Node111</title>
<path fill="none" stroke="#191970" d="M154.376,-76.2612C163.4553,-77.282 172.5673,-78.3064 181.2925,-79.2873"/>
<polygon fill="#191970" stroke="#191970" points="154.4899,-72.752 144.1614,-75.1128 153.7078,-79.7082 154.4899,-72.752"/>
</g>
<!-- Node112 -->
<g id="node6" class="node">
<title>Node112</title>
<g id="a_node6"><a xlink:href="classSolver.html#a2ea9fb6abc4ffd5ac28154332029da40" target="_top" xlink:title="Solver::calcRates_FMU">
<polygon fill="none" stroke="#000000" points="180,-38.5 180,-57.5 302,-57.5 302,-38.5 180,-38.5"/>
<text text-anchor="middle" x="241" y="-45.5" font-family="Helvetica,sans-Serif" font-size="10.00" fill="#000000">Solver::calcRates_FMU</text>
</a>
</g>
</g>
<!-- Node107&#45;&gt;Node112 -->
<g id="edge6" class="edge">
<title>Node107&#45;&gt;Node112</title>
<path fill="none" stroke="#191970" d="M154.2869,-57.7488C162.9429,-56.7756 171.63,-55.799 179.9843,-54.8598"/>
<polygon fill="#191970" stroke="#191970" points="153.7078,-54.2918 144.1614,-58.8872 154.4899,-61.248 153.7078,-54.2918"/>
</g>
<!-- Node113 -->
<g id="node7" class="node">
<title>Node113</title>
<g id="a_node7"><a xlink:href="classSolver.html#a8f96f44ff535452912b2a3a2fc43e60e" target="_top" xlink:title="Solver::stepU_iFMU">
<polygon fill="none" stroke="#000000" points="188,-.5 188,-19.5 294,-19.5 294,-.5 188,-.5"/>
<text text-anchor="middle" x="241" y="-7.5" font-family="Helvetica,sans-Serif" font-size="10.00" fill="#000000">Solver::stepU_iFMU</text>
</a>
</g>
</g>
<!-- Node107&#45;&gt;Node113 -->
<g id="edge8" class="edge">
<title>Node107&#45;&gt;Node113</title>
<path fill="none" stroke="#191970" d="M108.003,-53.9637C128.9493,-46.4718 155.8946,-36.9919 180,-29 189.581,-25.8235 200.0583,-22.5045 209.5841,-19.5457"/>
<polygon fill="#191970" stroke="#191970" points="106.7681,-50.6883 98.5377,-57.3599 109.1322,-57.277 106.7681,-50.6883"/>
</g>
<!-- Node109 -->
<g id="node3" class="node">
<title>Node109</title>
<g id="a_node3"><a xlink:href="classSolver.html#af4c8f6565df94ed6a058a224196b9c2b" target="_top" xlink:title="Solver::step_to">
<polygon fill="none" stroke="#000000" points="338,-57.5 338,-76.5 421,-76.5 421,-57.5 338,-57.5"/>
<text text-anchor="middle" x="379.5" y="-64.5" font-family="Helvetica,sans-Serif" font-size="10.00" fill="#000000">Solver::step_to</text>
</a>
</g>
</g>
<!-- Node108&#45;&gt;Node109 -->
<g id="edge2" class="edge">
<title>Node108&#45;&gt;Node109</title>
<path fill="none" stroke="#191970" d="M284.6696,-111.2975C290.545,-109.3272 296.4545,-107.208 302,-105 323.1618,-96.5743 346.5158,-84.7577 361.9983,-76.5472"/>
<polygon fill="#191970" stroke="#191970" points="283.322,-108.0548 274.8841,-114.4621 285.4759,-114.7151 283.322,-108.0548"/>
</g>
<!-- Node110 -->
<g id="node4" class="node">
<title>Node110</title>
<g id="a_node4"><a xlink:href="classSolver.html#a06cf82d0a99490279ab20d2ad6b876db" target="_top" xlink:title="Solver::step_to">
<polygon fill="none" stroke="#000000" points="457,-57.5 457,-76.5 540,-76.5 540,-57.5 457,-57.5"/>
<text text-anchor="middle" x="498.5" y="-64.5" font-family="Helvetica,sans-Serif" font-size="10.00" fill="#000000">Solver::step_to</text>
</a>
</g>
</g>
<!-- Node109&#45;&gt;Node110 -->
<g id="edge3" class="edge">
<title>Node109&#45;&gt;Node110</title>
<path fill="none" stroke="#191970" d="M431.3174,-67C439.8022,-67 448.499,-67 456.7019,-67"/>
<polygon fill="#191970" stroke="#191970" points="431.1205,-63.5001 421.1204,-67 431.1204,-70.5001 431.1205,-63.5001"/>
</g>
<!-- Node111&#45;&gt;Node109 -->
<g id="edge5" class="edge">
<title>Node111&#45;&gt;Node109</title>
<path fill="none" stroke="#191970" d="M310.6498,-76.4452C319.9926,-75.1635 329.3257,-73.8831 337.9689,-72.6974"/>
<polygon fill="#191970" stroke="#191970" points="309.9717,-73.0053 300.5402,-77.832 310.9232,-79.9404 309.9717,-73.0053"/>
</g>
<!-- Node112&#45;&gt;Node109 -->
<g id="edge7" class="edge">
<title>Node112&#45;&gt;Node109</title>
<path fill="none" stroke="#191970" d="M312.0629,-57.7487C320.8539,-58.9547 329.6059,-60.1553 337.7517,-61.2728"/>
<polygon fill="#191970" stroke="#191970" points="312.5342,-54.2807 302.1513,-56.389 311.5828,-61.2157 312.5342,-54.2807"/>
</g>
<!-- Node113&#45;&gt;Node109 -->
<g id="edge9" class="edge">
<title>Node113&#45;&gt;Node109</title>
<path fill="none" stroke="#191970" d="M284.6696,-22.7025C290.545,-24.6728 296.4545,-26.792 302,-29 323.1618,-37.4257 346.5158,-49.2423 361.9983,-57.4528"/>
<polygon fill="#191970" stroke="#191970" points="285.4759,-19.2849 274.8841,-19.5379 283.322,-25.9452 285.4759,-19.2849"/>
</g>
</g>
</svg>
