<?xml version="1.0" encoding="UTF-8" standalone="no"?>
<!DOCTYPE svg PUBLIC "-//W3C//DTD SVG 1.1//EN"
 "http://www.w3.org/Graphics/SVG/1.1/DTD/svg11.dtd">
<!-- Generated by graphviz version 2.40.1 (20161225.0304)
 -->
<!-- Title: LSODA::vmnorm Pages: 1 -->
<svg width="1100pt" height="123pt"
 viewBox="0.00 0.00 1100.00 123.00" xmlns="http://www.w3.org/2000/svg" xmlns:xlink="http://www.w3.org/1999/xlink">
<g id="graph0" class="graph" transform="scale(1 1) rotate(0) translate(4 119)">
<title>LSODA::vmnorm</title>
<!-- Node260 -->
<g id="node1" class="node">
<title>Node260</title>
<polygon fill="#bfbfbf" stroke="#000000" points="0,-38.5 0,-57.5 92,-57.5 92,-38.5 0,-38.5"/>
<text text-anchor="middle" x="46" y="-45.5" font-family="Helvetica,sans-Serif" font-size="10.00" fill="#000000">LSODA::vmnorm</text>
</g>
<!-- Node261 -->
<g id="node2" class="node">
<title>Node261</title>
<g id="a_node2"><a xlink:href="classLSODA.html#a87757b30f48356ff9c77bf587ebb16d8" target="_top" xlink:title="LSODA::prja">
<polygon fill="none" stroke="#000000" points="128,-95.5 128,-114.5 200,-114.5 200,-95.5 128,-95.5"/>
<text text-anchor="middle" x="164" y="-102.5" font-family="Helvetica,sans-Serif" font-size="10.00" fill="#000000">LSODA::prja</text>
</a>
</g>
</g>
<!-- Node260&#45;&gt;Node261 -->
<g id="edge1" class="edge">
<title>Node260&#45;&gt;Node261</title>
<path fill="none" stroke="#191970" d="M74.7694,-61.8971C96.2994,-72.2972 125.1883,-86.252 144.185,-95.4284"/>
<polygon fill="#191970" stroke="#191970" points="76.2774,-58.7386 65.7505,-57.5405 73.2327,-65.0418 76.2774,-58.7386"/>
</g>
<!-- Node262 -->
<g id="node3" class="node">
<title>Node262</title>
<g id="a_node3"><a xlink:href="classLSODA.html#ae5ebdebff330f29ef0c15bece1bf8299" target="_top" xlink:title="LSODA::correction">
<polygon fill="none" stroke="#000000" points="236,-57.5 236,-76.5 335,-76.5 335,-57.5 236,-57.5"/>
<text text-anchor="middle" x="285.5" y="-64.5" font-family="Helvetica,sans-Serif" font-size="10.00" fill="#000000">LSODA::correction</text>
</a>
</g>
</g>
<!-- Node260&#45;&gt;Node262 -->
<g id="edge9" class="edge">
<title>Node260&#45;&gt;Node262</title>
<path fill="none" stroke="#191970" d="M102.1607,-52.4553C142.6529,-55.6677 196.8089,-59.964 235.7482,-63.0531"/>
<polygon fill="#191970" stroke="#191970" points="102.4235,-48.9653 92.178,-51.6634 101.8699,-55.9434 102.4235,-48.9653"/>
</g>
<!-- Node263 -->
<g id="node4" class="node">
<title>Node263</title>
<g id="a_node4"><a xlink:href="classLSODA.html#a7c6d8d75b383474b5b05c710d2921618" target="_top" xlink:title="LSODA::stoda">
<polygon fill="none" stroke="#000000" points="371,-19.5 371,-38.5 451,-38.5 451,-19.5 371,-19.5"/>
<text text-anchor="middle" x="411" y="-26.5" font-family="Helvetica,sans-Serif" font-size="10.00" fill="#000000">LSODA::stoda</text>
</a>
</g>
</g>
<!-- Node260&#45;&gt;Node263 -->
<g id="edge10" class="edge">
<title>Node260&#45;&gt;Node263</title>
<path fill="none" stroke="#191970" d="M102.335,-45.0675C176.6222,-41.2005 305.5287,-34.4903 370.7413,-31.0957"/>
<polygon fill="#191970" stroke="#191970" points="102.032,-41.5784 92.2275,-45.5936 102.396,-48.569 102.032,-41.5784"/>
</g>
<!-- Node264 -->
<g id="node5" class="node">
<title>Node264</title>
<g id="a_node5"><a xlink:href="classLSODA.html#a705dcfe5b21827adb8871e48f2c72fb2" target="_top" xlink:title="LSODA::lsoda">
<polygon fill="none" stroke="#000000" points="487,-.5 487,-19.5 567,-19.5 567,-.5 487,-.5"/>
<text text-anchor="middle" x="527" y="-7.5" font-family="Helvetica,sans-Serif" font-size="10.00" fill="#000000">LSODA::lsoda</text>
</a>
</g>
</g>
<!-- Node260&#45;&gt;Node264 -->
<g id="edge11" class="edge">
<title>Node260&#45;&gt;Node264</title>
<path fill="none" stroke="#191970" d="M102.3258,-39.4637C110.9187,-38.2465 119.69,-37.0522 128,-36 235.7561,-22.3559 262.5378,-15.786 371,-10 410.3503,-7.9008 455.3634,-8.1878 486.8909,-8.8267"/>
<polygon fill="#191970" stroke="#191970" points="101.7591,-36.0091 92.3587,-40.8962 102.7549,-42.938 101.7591,-36.0091"/>
</g>
<!-- Node261&#45;&gt;Node262 -->
<g id="edge2" class="edge">
<title>Node261&#45;&gt;Node262</title>
<path fill="none" stroke="#191970" d="M204.544,-92.3196C220.9606,-87.1852 239.5989,-81.3559 254.8502,-76.5859"/>
<polygon fill="#191970" stroke="#191970" points="203.1589,-89.0855 194.6596,-95.411 205.2485,-95.7664 203.1589,-89.0855"/>
</g>
<!-- Node262&#45;&gt;Node263 -->
<g id="edge3" class="edge">
<title>Node262&#45;&gt;Node263</title>
<path fill="none" stroke="#191970" d="M326.8995,-54.4647C343.9723,-49.2952 363.4391,-43.4009 379.3412,-38.5859"/>
<polygon fill="#191970" stroke="#191970" points="325.7255,-51.1632 317.1689,-57.411 327.7541,-57.8628 325.7255,-51.1632"/>
</g>
<!-- Node263&#45;&gt;Node264 -->
<g id="edge4" class="edge">
<title>Node263&#45;&gt;Node264</title>
<path fill="none" stroke="#191970" d="M461.1622,-20.7838C469.74,-19.3788 478.5508,-17.9356 486.8255,-16.5803"/>
<polygon fill="#191970" stroke="#191970" points="460.5484,-17.3376 451.2456,-22.408 461.6799,-24.2455 460.5484,-17.3376"/>
</g>
<!-- Node265 -->
<g id="node6" class="node">
<title>Node265</title>
<g id="a_node6"><a xlink:href="classLSODA.html#a391e4d7bea026ad7c300cfb55cb290d1" target="_top" xlink:title="LSODA::lsoda_update">
<polygon fill="none" stroke="#000000" points="603,-.5 603,-19.5 717,-19.5 717,-.5 603,-.5"/>
<text text-anchor="middle" x="660" y="-7.5" font-family="Helvetica,sans-Serif" font-size="10.00" fill="#000000">LSODA::lsoda_update</text>
</a>
</g>
</g>
<!-- Node264&#45;&gt;Node265 -->
<g id="edge5" class="edge">
<title>Node264&#45;&gt;Node265</title>
<path fill="none" stroke="#191970" d="M577.4762,-10C585.7175,-10 594.3078,-10 602.6989,-10"/>
<polygon fill="#191970" stroke="#191970" points="577.2653,-6.5001 567.2653,-10 577.2653,-13.5001 577.2653,-6.5001"/>
</g>
<!-- Node266 -->
<g id="node7" class="node">
<title>Node266</title>
<g id="a_node7"><a xlink:href="classOdeSolver.html#a77d9f02ed28d5515366e6be08560f35a" target="_top" xlink:title="OdeSolver::step_to">
<polygon fill="none" stroke="#000000" points="753,-.5 753,-19.5 854,-19.5 854,-.5 753,-.5"/>
<text text-anchor="middle" x="803.5" y="-7.5" font-family="Helvetica,sans-Serif" font-size="10.00" fill="#000000">OdeSolver::step_to</text>
</a>
</g>
</g>
<!-- Node265&#45;&gt;Node266 -->
<g id="edge6" class="edge">
<title>Node265&#45;&gt;Node266</title>
<path fill="none" stroke="#191970" d="M727.3985,-10C735.8783,-10 744.4395,-10 752.6059,-10"/>
<polygon fill="#191970" stroke="#191970" points="727.1274,-6.5001 717.1273,-10 727.1273,-13.5001 727.1274,-6.5001"/>
</g>
<!-- Node267 -->
<g id="node8" class="node">
<title>Node267</title>
<g id="a_node8"><a xlink:href="classSolver.html#af4c8f6565df94ed6a058a224196b9c2b" target="_top" xlink:title="Solver::step_to">
<polygon fill="none" stroke="#000000" points="890,-.5 890,-19.5 973,-19.5 973,-.5 890,-.5"/>
<text text-anchor="middle" x="931.5" y="-7.5" font-family="Helvetica,sans-Serif" font-size="10.00" fill="#000000">Solver::step_to</text>
</a>
</g>
</g>
<!-- Node266&#45;&gt;Node267 -->
<g id="edge7" class="edge">
<title>Node266&#45;&gt;Node267</title>
<path fill="none" stroke="#191970" d="M864.2268,-10C872.9273,-10 881.7087,-10 889.9255,-10"/>
<polygon fill="#191970" stroke="#191970" points="864.089,-6.5001 854.089,-10 864.089,-13.5001 864.089,-6.5001"/>
</g>
<!-- Node268 -->
<g id="node9" class="node">
<title>Node268</title>
<g id="a_node9"><a xlink:href="classSolver.html#a06cf82d0a99490279ab20d2ad6b876db" target="_top" xlink:title="Solver::step_to">
<polygon fill="none" stroke="#000000" points="1009,-.5 1009,-19.5 1092,-19.5 1092,-.5 1009,-.5"/>
<text text-anchor="middle" x="1050.5" y="-7.5" font-family="Helvetica,sans-Serif" font-size="10.00" fill="#000000">Solver::step_to</text>
</a>
</g>
</g>
<!-- Node267&#45;&gt;Node268 -->
<g id="edge8" class="edge">
<title>Node267&#45;&gt;Node268</title>
<path fill="none" stroke="#191970" d="M983.3174,-10C991.8022,-10 1000.499,-10 1008.7019,-10"/>
<polygon fill="#191970" stroke="#191970" points="983.1205,-6.5001 973.1204,-10 983.1204,-13.5001 983.1205,-6.5001"/>
</g>
</g>
</svg>
