<?xml version="1.0" encoding="UTF-8" standalone="no"?>
<!DOCTYPE svg PUBLIC "-//W3C//DTD SVG 1.1//EN"
 "http://www.w3.org/Graphics/SVG/1.1/DTD/svg11.dtd">
<!-- Generated by graphviz version 2.40.1 (20161225.0304)
 -->
<!-- Title: Spline::constructAndReset Pages: 1 -->
<svg width="527pt" height="137pt"
 viewBox="0.00 0.00 527.00 137.00" xmlns="http://www.w3.org/2000/svg" xmlns:xlink="http://www.w3.org/1999/xlink">
<g id="graph0" class="graph" transform="scale(1 1) rotate(0) translate(4 133)">
<title>Spline::constructAndReset</title>
<!-- Node0 -->
<g id="node1" class="node">
<title>Node0</title>
<polygon fill="#bfbfbf" stroke="#000000" points="0,-55 0,-74 134,-74 134,-55 0,-55"/>
<text text-anchor="middle" x="67" y="-62" font-family="Helvetica,sans-Serif" font-size="10.00" fill="#000000">Spline::constructAndReset</text>
</g>
<!-- Node1 -->
<g id="node2" class="node">
<title>Node1</title>
<g id="a_node2"><a xlink:href="classSpline.html#a42eec80590bdc7fa338c4643cf307344" target="_top" xlink:title="Spline::set_points">
<polygon fill="none" stroke="#000000" points="170,-55 170,-74 265,-74 265,-55 170,-55"/>
<text text-anchor="middle" x="217.5" y="-62" font-family="Helvetica,sans-Serif" font-size="10.00" fill="#000000">Spline::set_points</text>
</a>
</g>
</g>
<!-- Node0&#45;&gt;Node1 -->
<g id="edge1" class="edge">
<title>Node0&#45;&gt;Node1</title>
<path fill="none" stroke="#191970" d="M134.3266,-64.5C142.6911,-64.5 151.1876,-64.5 159.3967,-64.5"/>
<polygon fill="#191970" stroke="#191970" points="159.6094,-68.0001 169.6094,-64.5 159.6094,-61.0001 159.6094,-68.0001"/>
</g>
<!-- Node2 -->
<g id="node3" class="node">
<title>Node2</title>
<g id="a_node3"><a xlink:href="classSpline.html#a387b90e40d7bc335fed9163123f45827" target="_top" xlink:title="Spline::solve_coeffs\l_cubic">
<polygon fill="none" stroke="#000000" points="301,-98.5 301,-128.5 406,-128.5 406,-98.5 301,-98.5"/>
<text text-anchor="start" x="309" y="-116.5" font-family="Helvetica,sans-Serif" font-size="10.00" fill="#000000">Spline::solve_coeffs</text>
<text text-anchor="middle" x="353.5" y="-105.5" font-family="Helvetica,sans-Serif" font-size="10.00" fill="#000000">_cubic</text>
</a>
</g>
</g>
<!-- Node1&#45;&gt;Node2 -->
<g id="edge2" class="edge">
<title>Node1&#45;&gt;Node2</title>
<path fill="none" stroke="#191970" d="M244.045,-74.064C260.5864,-80.0238 282.42,-87.8903 302.2328,-95.0287"/>
<polygon fill="#191970" stroke="#191970" points="301.1704,-98.3661 311.7648,-98.463 303.5432,-91.7805 301.1704,-98.3661"/>
</g>
<!-- Node4 -->
<g id="node5" class="node">
<title>Node4</title>
<g id="a_node5"><a xlink:href="classSpline.html#af8963e6ffac552d5d4401411d6db7cef" target="_top" xlink:title="Spline::solve_coeffs\l_linear">
<polygon fill="none" stroke="#000000" points="301,-49.5 301,-79.5 406,-79.5 406,-49.5 301,-49.5"/>
<text text-anchor="start" x="309" y="-67.5" font-family="Helvetica,sans-Serif" font-size="10.00" fill="#000000">Spline::solve_coeffs</text>
<text text-anchor="middle" x="353.5" y="-56.5" font-family="Helvetica,sans-Serif" font-size="10.00" fill="#000000">_linear</text>
</a>
</g>
</g>
<!-- Node1&#45;&gt;Node4 -->
<g id="edge4" class="edge">
<title>Node1&#45;&gt;Node4</title>
<path fill="none" stroke="#191970" d="M265.0662,-64.5C273.3245,-64.5 282.026,-64.5 290.618,-64.5"/>
<polygon fill="#191970" stroke="#191970" points="290.6208,-68.0001 300.6207,-64.5 290.6207,-61.0001 290.6208,-68.0001"/>
</g>
<!-- Node5 -->
<g id="node6" class="node">
<title>Node5</title>
<g id="a_node6"><a xlink:href="classSpline.html#a5bf7d2457cf9635742b921a1380ea88f" target="_top" xlink:title="Spline::solve_coeffs\l_constrained_cubic">
<polygon fill="none" stroke="#000000" points="301,-.5 301,-30.5 406,-30.5 406,-.5 301,-.5"/>
<text text-anchor="start" x="309" y="-18.5" font-family="Helvetica,sans-Serif" font-size="10.00" fill="#000000">Spline::solve_coeffs</text>
<text text-anchor="middle" x="353.5" y="-7.5" font-family="Helvetica,sans-Serif" font-size="10.00" fill="#000000">_constrained_cubic</text>
</a>
</g>
</g>
<!-- Node1&#45;&gt;Node5 -->
<g id="edge5" class="edge">
<title>Node1&#45;&gt;Node5</title>
<path fill="none" stroke="#191970" d="M244.045,-54.936C260.5864,-48.9762 282.42,-41.1097 302.2328,-33.9713"/>
<polygon fill="#191970" stroke="#191970" points="303.5432,-37.2195 311.7648,-30.537 301.1704,-30.6339 303.5432,-37.2195"/>
</g>
<!-- Node3 -->
<g id="node4" class="node">
<title>Node3</title>
<g id="a_node4"><a xlink:href="cubic__spline_8h.html#a2c5f148ad4f2ebdf6888836c97369d90" target="_top" xlink:title="thomas_solve">
<polygon fill="none" stroke="#000000" points="442,-104 442,-123 519,-123 519,-104 442,-104"/>
<text text-anchor="middle" x="480.5" y="-111" font-family="Helvetica,sans-Serif" font-size="10.00" fill="#000000">thomas_solve</text>
</a>
</g>
</g>
<!-- Node2&#45;&gt;Node3 -->
<g id="edge3" class="edge">
<title>Node2&#45;&gt;Node3</title>
<path fill="none" stroke="#191970" d="M406.2561,-113.5C414.5939,-113.5 423.1862,-113.5 431.4354,-113.5"/>
<polygon fill="#191970" stroke="#191970" points="431.6558,-117.0001 441.6557,-113.5 431.6557,-110.0001 431.6558,-117.0001"/>
</g>
</g>
</svg>
