<?xml version="1.0" encoding="UTF-8" standalone="no"?>
<!DOCTYPE svg PUBLIC "-//W3C//DTD SVG 1.1//EN"
 "http://www.w3.org/Graphics/SVG/1.1/DTD/svg11.dtd">
<!-- Generated by graphviz version 2.40.1 (20161225.0304)
 -->
<!-- Title: Spline::set_points Pages: 1 -->
<svg width="357pt" height="137pt"
 viewBox="0.00 0.00 357.00 137.00" xmlns="http://www.w3.org/2000/svg" xmlns:xlink="http://www.w3.org/1999/xlink">
<g id="graph0" class="graph" transform="scale(1 1) rotate(0) translate(4 133)">
<title>Spline::set_points</title>
<!-- Node25 -->
<g id="node1" class="node">
<title>Node25</title>
<polygon fill="#bfbfbf" stroke="#000000" points="0,-55 0,-74 95,-74 95,-55 0,-55"/>
<text text-anchor="middle" x="47.5" y="-62" font-family="Helvetica,sans-Serif" font-size="10.00" fill="#000000">Spline::set_points</text>
</g>
<!-- Node26 -->
<g id="node2" class="node">
<title>Node26</title>
<g id="a_node2"><a xlink:href="classSpline.html#a387b90e40d7bc335fed9163123f45827" target="_top" xlink:title="Spline::solve_coeffs\l_cubic">
<polygon fill="none" stroke="#000000" points="131,-98.5 131,-128.5 236,-128.5 236,-98.5 131,-98.5"/>
<text text-anchor="start" x="139" y="-116.5" font-family="Helvetica,sans-Serif" font-size="10.00" fill="#000000">Spline::solve_coeffs</text>
<text text-anchor="middle" x="183.5" y="-105.5" font-family="Helvetica,sans-Serif" font-size="10.00" fill="#000000">_cubic</text>
</a>
</g>
</g>
<!-- Node25&#45;&gt;Node26 -->
<g id="edge1" class="edge">
<title>Node25&#45;&gt;Node26</title>
<path fill="none" stroke="#191970" d="M74.045,-74.064C90.5864,-80.0238 112.42,-87.8903 132.2328,-95.0287"/>
<polygon fill="#191970" stroke="#191970" points="131.1704,-98.3661 141.7648,-98.463 133.5432,-91.7805 131.1704,-98.3661"/>
</g>
<!-- Node28 -->
<g id="node4" class="node">
<title>Node28</title>
<g id="a_node4"><a xlink:href="classSpline.html#af8963e6ffac552d5d4401411d6db7cef" target="_top" xlink:title="Spline::solve_coeffs\l_linear">
<polygon fill="none" stroke="#000000" points="131,-49.5 131,-79.5 236,-79.5 236,-49.5 131,-49.5"/>
<text text-anchor="start" x="139" y="-67.5" font-family="Helvetica,sans-Serif" font-size="10.00" fill="#000000">Spline::solve_coeffs</text>
<text text-anchor="middle" x="183.5" y="-56.5" font-family="Helvetica,sans-Serif" font-size="10.00" fill="#000000">_linear</text>
</a>
</g>
</g>
<!-- Node25&#45;&gt;Node28 -->
<g id="edge3" class="edge">
<title>Node25&#45;&gt;Node28</title>
<path fill="none" stroke="#191970" d="M95.0662,-64.5C103.3245,-64.5 112.026,-64.5 120.618,-64.5"/>
<polygon fill="#191970" stroke="#191970" points="120.6208,-68.0001 130.6207,-64.5 120.6207,-61.0001 120.6208,-68.0001"/>
</g>
<!-- Node29 -->
<g id="node5" class="node">
<title>Node29</title>
<g id="a_node5"><a xlink:href="classSpline.html#a5bf7d2457cf9635742b921a1380ea88f" target="_top" xlink:title="Spline::solve_coeffs\l_constrained_cubic">
<polygon fill="none" stroke="#000000" points="131,-.5 131,-30.5 236,-30.5 236,-.5 131,-.5"/>
<text text-anchor="start" x="139" y="-18.5" font-family="Helvetica,sans-Serif" font-size="10.00" fill="#000000">Spline::solve_coeffs</text>
<text text-anchor="middle" x="183.5" y="-7.5" font-family="Helvetica,sans-Serif" font-size="10.00" fill="#000000">_constrained_cubic</text>
</a>
</g>
</g>
<!-- Node25&#45;&gt;Node29 -->
<g id="edge4" class="edge">
<title>Node25&#45;&gt;Node29</title>
<path fill="none" stroke="#191970" d="M74.045,-54.936C90.5864,-48.9762 112.42,-41.1097 132.2328,-33.9713"/>
<polygon fill="#191970" stroke="#191970" points="133.5432,-37.2195 141.7648,-30.537 131.1704,-30.6339 133.5432,-37.2195"/>
</g>
<!-- Node27 -->
<g id="node3" class="node">
<title>Node27</title>
<g id="a_node3"><a xlink:href="cubic__spline_8h.html#a2c5f148ad4f2ebdf6888836c97369d90" target="_top" xlink:title="thomas_solve">
<polygon fill="none" stroke="#000000" points="272,-104 272,-123 349,-123 349,-104 272,-104"/>
<text text-anchor="middle" x="310.5" y="-111" font-family="Helvetica,sans-Serif" font-size="10.00" fill="#000000">thomas_solve</text>
</a>
</g>
</g>
<!-- Node26&#45;&gt;Node27 -->
<g id="edge2" class="edge">
<title>Node26&#45;&gt;Node27</title>
<path fill="none" stroke="#191970" d="M236.2561,-113.5C244.5939,-113.5 253.1862,-113.5 261.4354,-113.5"/>
<polygon fill="#191970" stroke="#191970" points="261.6558,-117.0001 271.6557,-113.5 261.6557,-110.0001 261.6558,-117.0001"/>
</g>
</g>
</svg>
