<?xml version="1.0" encoding="UTF-8" standalone="no"?>
<!DOCTYPE svg PUBLIC "-//W3C//DTD SVG 1.1//EN"
 "http://www.w3.org/Graphics/SVG/1.1/DTD/svg11.dtd">
<!-- Generated by graphviz version 2.40.1 (20161225.0304)
 -->
<!-- Title: LSODA::scaleh Pages: 1 -->
<svg width="850pt" height="28pt"
 viewBox="0.00 0.00 850.00 28.00" xmlns="http://www.w3.org/2000/svg" xmlns:xlink="http://www.w3.org/1999/xlink">
<g id="graph0" class="graph" transform="scale(1 1) rotate(0) translate(4 24)">
<title>LSODA::scaleh</title>
<!-- Node197 -->
<g id="node1" class="node">
<title>Node197</title>
<polygon fill="#bfbfbf" stroke="#000000" points="0,-.5 0,-19.5 85,-19.5 85,-.5 0,-.5"/>
<text text-anchor="middle" x="42.5" y="-7.5" font-family="Helvetica,sans-Serif" font-size="10.00" fill="#000000">LSODA::scaleh</text>
</g>
<!-- Node198 -->
<g id="node2" class="node">
<title>Node198</title>
<g id="a_node2"><a xlink:href="classLSODA.html#a7c6d8d75b383474b5b05c710d2921618" target="_top" xlink:title="LSODA::stoda">
<polygon fill="none" stroke="#000000" points="121,-.5 121,-19.5 201,-19.5 201,-.5 121,-.5"/>
<text text-anchor="middle" x="161" y="-7.5" font-family="Helvetica,sans-Serif" font-size="10.00" fill="#000000">LSODA::stoda</text>
</a>
</g>
</g>
<!-- Node197&#45;&gt;Node198 -->
<g id="edge1" class="edge">
<title>Node197&#45;&gt;Node198</title>
<path fill="none" stroke="#191970" d="M95.4642,-10C103.9212,-10 112.551,-10 120.6539,-10"/>
<polygon fill="#191970" stroke="#191970" points="95.2813,-6.5001 85.2812,-10 95.2812,-13.5001 95.2813,-6.5001"/>
</g>
<!-- Node199 -->
<g id="node3" class="node">
<title>Node199</title>
<g id="a_node3"><a xlink:href="classLSODA.html#a705dcfe5b21827adb8871e48f2c72fb2" target="_top" xlink:title="LSODA::lsoda">
<polygon fill="none" stroke="#000000" points="237,-.5 237,-19.5 317,-19.5 317,-.5 237,-.5"/>
<text text-anchor="middle" x="277" y="-7.5" font-family="Helvetica,sans-Serif" font-size="10.00" fill="#000000">LSODA::lsoda</text>
</a>
</g>
</g>
<!-- Node198&#45;&gt;Node199 -->
<g id="edge2" class="edge">
<title>Node198&#45;&gt;Node199</title>
<path fill="none" stroke="#191970" d="M211.442,-10C219.9315,-10 228.6408,-10 236.8255,-10"/>
<polygon fill="#191970" stroke="#191970" points="211.2457,-6.5001 201.2456,-10 211.2456,-13.5001 211.2457,-6.5001"/>
</g>
<!-- Node200 -->
<g id="node4" class="node">
<title>Node200</title>
<g id="a_node4"><a xlink:href="classLSODA.html#a391e4d7bea026ad7c300cfb55cb290d1" target="_top" xlink:title="LSODA::lsoda_update">
<polygon fill="none" stroke="#000000" points="353,-.5 353,-19.5 467,-19.5 467,-.5 353,-.5"/>
<text text-anchor="middle" x="410" y="-7.5" font-family="Helvetica,sans-Serif" font-size="10.00" fill="#000000">LSODA::lsoda_update</text>
</a>
</g>
</g>
<!-- Node199&#45;&gt;Node200 -->
<g id="edge3" class="edge">
<title>Node199&#45;&gt;Node200</title>
<path fill="none" stroke="#191970" d="M327.4762,-10C335.7175,-10 344.3078,-10 352.6989,-10"/>
<polygon fill="#191970" stroke="#191970" points="327.2653,-6.5001 317.2653,-10 327.2653,-13.5001 327.2653,-6.5001"/>
</g>
<!-- Node201 -->
<g id="node5" class="node">
<title>Node201</title>
<g id="a_node5"><a xlink:href="classOdeSolver.html#a77d9f02ed28d5515366e6be08560f35a" target="_top" xlink:title="OdeSolver::step_to">
<polygon fill="none" stroke="#000000" points="503,-.5 503,-19.5 604,-19.5 604,-.5 503,-.5"/>
<text text-anchor="middle" x="553.5" y="-7.5" font-family="Helvetica,sans-Serif" font-size="10.00" fill="#000000">OdeSolver::step_to</text>
</a>
</g>
</g>
<!-- Node200&#45;&gt;Node201 -->
<g id="edge4" class="edge">
<title>Node200&#45;&gt;Node201</title>
<path fill="none" stroke="#191970" d="M477.3985,-10C485.8783,-10 494.4395,-10 502.6059,-10"/>
<polygon fill="#191970" stroke="#191970" points="477.1274,-6.5001 467.1273,-10 477.1273,-13.5001 477.1274,-6.5001"/>
</g>
<!-- Node202 -->
<g id="node6" class="node">
<title>Node202</title>
<g id="a_node6"><a xlink:href="classSolver.html#af4c8f6565df94ed6a058a224196b9c2b" target="_top" xlink:title="Solver::step_to">
<polygon fill="none" stroke="#000000" points="640,-.5 640,-19.5 723,-19.5 723,-.5 640,-.5"/>
<text text-anchor="middle" x="681.5" y="-7.5" font-family="Helvetica,sans-Serif" font-size="10.00" fill="#000000">Solver::step_to</text>
</a>
</g>
</g>
<!-- Node201&#45;&gt;Node202 -->
<g id="edge5" class="edge">
<title>Node201&#45;&gt;Node202</title>
<path fill="none" stroke="#191970" d="M614.2268,-10C622.9273,-10 631.7087,-10 639.9255,-10"/>
<polygon fill="#191970" stroke="#191970" points="614.089,-6.5001 604.089,-10 614.089,-13.5001 614.089,-6.5001"/>
</g>
<!-- Node203 -->
<g id="node7" class="node">
<title>Node203</title>
<g id="a_node7"><a xlink:href="classSolver.html#a06cf82d0a99490279ab20d2ad6b876db" target="_top" xlink:title="Solver::step_to">
<polygon fill="none" stroke="#000000" points="759,-.5 759,-19.5 842,-19.5 842,-.5 759,-.5"/>
<text text-anchor="middle" x="800.5" y="-7.5" font-family="Helvetica,sans-Serif" font-size="10.00" fill="#000000">Solver::step_to</text>
</a>
</g>
</g>
<!-- Node202&#45;&gt;Node203 -->
<g id="edge6" class="edge">
<title>Node202&#45;&gt;Node203</title>
<path fill="none" stroke="#191970" d="M733.3174,-10C741.8022,-10 750.499,-10 758.7019,-10"/>
<polygon fill="#191970" stroke="#191970" points="733.1205,-6.5001 723.1204,-10 733.1204,-13.5001 733.1205,-6.5001"/>
</g>
</g>
</svg>
