<?xml version="1.0" encoding="UTF-8" standalone="no"?>
<!DOCTYPE svg PUBLIC "-//W3C//DTD SVG 1.1//EN"
 "http://www.w3.org/Graphics/SVG/1.1/DTD/svg11.dtd">
<!-- Generated by graphviz version 2.40.1 (20161225.0304)
 -->
<!-- Title: LSODA::resize_system Pages: 1 -->
<svg width="769pt" height="28pt"
 viewBox="0.00 0.00 769.00 28.00" xmlns="http://www.w3.org/2000/svg" xmlns:xlink="http://www.w3.org/1999/xlink">
<g id="graph0" class="graph" transform="scale(1 1) rotate(0) translate(4 24)">
<title>LSODA::resize_system</title>
<!-- Node190 -->
<g id="node1" class="node">
<title>Node190</title>
<polygon fill="#bfbfbf" stroke="#000000" points="0,-.5 0,-19.5 120,-19.5 120,-.5 0,-.5"/>
<text text-anchor="middle" x="60" y="-7.5" font-family="Helvetica,sans-Serif" font-size="10.00" fill="#000000">LSODA::resize_system</text>
</g>
<!-- Node191 -->
<g id="node2" class="node">
<title>Node191</title>
<g id="a_node2"><a xlink:href="classLSODA.html#a705dcfe5b21827adb8871e48f2c72fb2" target="_top" xlink:title="LSODA::lsoda">
<polygon fill="none" stroke="#000000" points="156,-.5 156,-19.5 236,-19.5 236,-.5 156,-.5"/>
<text text-anchor="middle" x="196" y="-7.5" font-family="Helvetica,sans-Serif" font-size="10.00" fill="#000000">LSODA::lsoda</text>
</a>
</g>
</g>
<!-- Node190&#45;&gt;Node191 -->
<g id="edge1" class="edge">
<title>Node190&#45;&gt;Node191</title>
<path fill="none" stroke="#191970" d="M130.3002,-10C139.0436,-10 147.7363,-10 155.7992,-10"/>
<polygon fill="#191970" stroke="#191970" points="130.0475,-6.5001 120.0475,-10 130.0474,-13.5001 130.0475,-6.5001"/>
</g>
<!-- Node192 -->
<g id="node3" class="node">
<title>Node192</title>
<g id="a_node3"><a xlink:href="classLSODA.html#a391e4d7bea026ad7c300cfb55cb290d1" target="_top" xlink:title="LSODA::lsoda_update">
<polygon fill="none" stroke="#000000" points="272,-.5 272,-19.5 386,-19.5 386,-.5 272,-.5"/>
<text text-anchor="middle" x="329" y="-7.5" font-family="Helvetica,sans-Serif" font-size="10.00" fill="#000000">LSODA::lsoda_update</text>
</a>
</g>
</g>
<!-- Node191&#45;&gt;Node192 -->
<g id="edge2" class="edge">
<title>Node191&#45;&gt;Node192</title>
<path fill="none" stroke="#191970" d="M246.4762,-10C254.7175,-10 263.3078,-10 271.6989,-10"/>
<polygon fill="#191970" stroke="#191970" points="246.2653,-6.5001 236.2653,-10 246.2653,-13.5001 246.2653,-6.5001"/>
</g>
<!-- Node193 -->
<g id="node4" class="node">
<title>Node193</title>
<g id="a_node4"><a xlink:href="classOdeSolver.html#a77d9f02ed28d5515366e6be08560f35a" target="_top" xlink:title="OdeSolver::step_to">
<polygon fill="none" stroke="#000000" points="422,-.5 422,-19.5 523,-19.5 523,-.5 422,-.5"/>
<text text-anchor="middle" x="472.5" y="-7.5" font-family="Helvetica,sans-Serif" font-size="10.00" fill="#000000">OdeSolver::step_to</text>
</a>
</g>
</g>
<!-- Node192&#45;&gt;Node193 -->
<g id="edge3" class="edge">
<title>Node192&#45;&gt;Node193</title>
<path fill="none" stroke="#191970" d="M396.3985,-10C404.8783,-10 413.4395,-10 421.6059,-10"/>
<polygon fill="#191970" stroke="#191970" points="396.1274,-6.5001 386.1273,-10 396.1273,-13.5001 396.1274,-6.5001"/>
</g>
<!-- Node194 -->
<g id="node5" class="node">
<title>Node194</title>
<g id="a_node5"><a xlink:href="classSolver.html#af4c8f6565df94ed6a058a224196b9c2b" target="_top" xlink:title="Solver::step_to">
<polygon fill="none" stroke="#000000" points="559,-.5 559,-19.5 642,-19.5 642,-.5 559,-.5"/>
<text text-anchor="middle" x="600.5" y="-7.5" font-family="Helvetica,sans-Serif" font-size="10.00" fill="#000000">Solver::step_to</text>
</a>
</g>
</g>
<!-- Node193&#45;&gt;Node194 -->
<g id="edge4" class="edge">
<title>Node193&#45;&gt;Node194</title>
<path fill="none" stroke="#191970" d="M533.2268,-10C541.9273,-10 550.7087,-10 558.9255,-10"/>
<polygon fill="#191970" stroke="#191970" points="533.089,-6.5001 523.089,-10 533.089,-13.5001 533.089,-6.5001"/>
</g>
<!-- Node195 -->
<g id="node6" class="node">
<title>Node195</title>
<g id="a_node6"><a xlink:href="classSolver.html#a06cf82d0a99490279ab20d2ad6b876db" target="_top" xlink:title="Solver::step_to">
<polygon fill="none" stroke="#000000" points="678,-.5 678,-19.5 761,-19.5 761,-.5 678,-.5"/>
<text text-anchor="middle" x="719.5" y="-7.5" font-family="Helvetica,sans-Serif" font-size="10.00" fill="#000000">Solver::step_to</text>
</a>
</g>
</g>
<!-- Node194&#45;&gt;Node195 -->
<g id="edge5" class="edge">
<title>Node194&#45;&gt;Node195</title>
<path fill="none" stroke="#191970" d="M652.3174,-10C660.8022,-10 669.499,-10 677.7019,-10"/>
<polygon fill="#191970" stroke="#191970" points="652.1205,-6.5001 642.1204,-10 652.1204,-13.5001 652.1205,-6.5001"/>
</g>
</g>
</svg>
