<?xml version="1.0" encoding="UTF-8" standalone="no"?>
<!DOCTYPE svg PUBLIC "-//W3C//DTD SVG 1.1//EN"
 "http://www.w3.org/Graphics/SVG/1.1/DTD/svg11.dtd">
<!-- Generated by graphviz version 2.40.1 (20161225.0304)
 -->
<!-- Title: RKCK45::Step_to Pages: 1 -->
<svg width="478pt" height="28pt"
 viewBox="0.00 0.00 478.00 28.00" xmlns="http://www.w3.org/2000/svg" xmlns:xlink="http://www.w3.org/1999/xlink">
<g id="graph0" class="graph" transform="scale(1 1) rotate(0) translate(4 24)">
<title>RKCK45::Step_to</title>
<!-- Node60 -->
<g id="node1" class="node">
<title>Node60</title>
<polygon fill="#bfbfbf" stroke="#000000" points="0,-.5 0,-19.5 95,-19.5 95,-.5 0,-.5"/>
<text text-anchor="middle" x="47.5" y="-7.5" font-family="Helvetica,sans-Serif" font-size="10.00" fill="#000000">RKCK45::Step_to</text>
</g>
<!-- Node61 -->
<g id="node2" class="node">
<title>Node61</title>
<g id="a_node2"><a xlink:href="classOdeSolver.html#a77d9f02ed28d5515366e6be08560f35a" target="_top" xlink:title="OdeSolver::step_to">
<polygon fill="none" stroke="#000000" points="131,-.5 131,-19.5 232,-19.5 232,-.5 131,-.5"/>
<text text-anchor="middle" x="181.5" y="-7.5" font-family="Helvetica,sans-Serif" font-size="10.00" fill="#000000">OdeSolver::step_to</text>
</a>
</g>
</g>
<!-- Node60&#45;&gt;Node61 -->
<g id="edge1" class="edge">
<title>Node60&#45;&gt;Node61</title>
<path fill="none" stroke="#191970" d="M105.3412,-10C113.8324,-10 122.5235,-10 130.8553,-10"/>
<polygon fill="#191970" stroke="#191970" points="105.1207,-6.5001 95.1207,-10 105.1207,-13.5001 105.1207,-6.5001"/>
</g>
<!-- Node62 -->
<g id="node3" class="node">
<title>Node62</title>
<g id="a_node3"><a xlink:href="classSolver.html#af4c8f6565df94ed6a058a224196b9c2b" target="_top" xlink:title="Solver::step_to">
<polygon fill="none" stroke="#000000" points="268,-.5 268,-19.5 351,-19.5 351,-.5 268,-.5"/>
<text text-anchor="middle" x="309.5" y="-7.5" font-family="Helvetica,sans-Serif" font-size="10.00" fill="#000000">Solver::step_to</text>
</a>
</g>
</g>
<!-- Node61&#45;&gt;Node62 -->
<g id="edge2" class="edge">
<title>Node61&#45;&gt;Node62</title>
<path fill="none" stroke="#191970" d="M242.2268,-10C250.9273,-10 259.7087,-10 267.9255,-10"/>
<polygon fill="#191970" stroke="#191970" points="242.089,-6.5001 232.089,-10 242.089,-13.5001 242.089,-6.5001"/>
</g>
<!-- Node63 -->
<g id="node4" class="node">
<title>Node63</title>
<g id="a_node4"><a xlink:href="classSolver.html#a06cf82d0a99490279ab20d2ad6b876db" target="_top" xlink:title="Solver::step_to">
<polygon fill="none" stroke="#000000" points="387,-.5 387,-19.5 470,-19.5 470,-.5 387,-.5"/>
<text text-anchor="middle" x="428.5" y="-7.5" font-family="Helvetica,sans-Serif" font-size="10.00" fill="#000000">Solver::step_to</text>
</a>
</g>
</g>
<!-- Node62&#45;&gt;Node63 -->
<g id="edge3" class="edge">
<title>Node62&#45;&gt;Node63</title>
<path fill="none" stroke="#191970" d="M361.3174,-10C369.8022,-10 378.499,-10 386.7019,-10"/>
<polygon fill="#191970" stroke="#191970" points="361.1205,-6.5001 351.1204,-10 361.1204,-13.5001 361.1205,-6.5001"/>
</g>
</g>
</svg>
