<?xml version="1.0" encoding="UTF-8" standalone="no"?>
<!DOCTYPE svg PUBLIC "-//W3C//DTD SVG 1.1//EN"
 "http://www.w3.org/Graphics/SVG/1.1/DTD/svg11.dtd">
<!-- Generated by graphviz version 2.40.1 (20161225.0304)
 -->
<!-- Title: RKCK45::get_fn_evals Pages: 1 -->
<svg width="486pt" height="123pt"
 viewBox="0.00 0.00 486.00 123.00" xmlns="http://www.w3.org/2000/svg" xmlns:xlink="http://www.w3.org/1999/xlink">
<g id="graph0" class="graph" transform="scale(1 1) rotate(0) translate(4 119)">
<title>RKCK45::get_fn_evals</title>
<!-- Node6 -->
<g id="node1" class="node">
<title>Node6</title>
<polygon fill="#bfbfbf" stroke="#000000" points="0,-19.5 0,-38.5 117,-38.5 117,-19.5 0,-19.5"/>
<text text-anchor="middle" x="58.5" y="-26.5" font-family="Helvetica,sans-Serif" font-size="10.00" fill="#000000">RKCK45::get_fn_evals</text>
</g>
<!-- Node7 -->
<g id="node2" class="node">
<title>Node7</title>
<g id="a_node2"><a xlink:href="classRKCK45.html#ab304a56995de997c15d992f5665b94e5" target="_top" xlink:title="RKCK45::RKTry">
<polygon fill="none" stroke="#000000" points="153,-57.5 153,-76.5 243,-76.5 243,-57.5 153,-57.5"/>
<text text-anchor="middle" x="198" y="-64.5" font-family="Helvetica,sans-Serif" font-size="10.00" fill="#000000">RKCK45::RKTry</text>
</a>
</g>
</g>
<!-- Node6&#45;&gt;Node7 -->
<g id="edge1" class="edge">
<title>Node6&#45;&gt;Node7</title>
<path fill="none" stroke="#191970" d="M93.7017,-38.589C111.7099,-43.4944 133.8284,-49.5196 153.0556,-54.7571"/>
<polygon fill="#191970" stroke="#191970" points="152.2412,-58.1627 162.8095,-57.4141 154.081,-51.4088 152.2412,-58.1627"/>
</g>
<!-- Node10 -->
<g id="node5" class="node">
<title>Node10</title>
<g id="a_node5"><a xlink:href="classRKCK45.html#a9ce8515e634e6937f8587d280d18d18a" target="_top" xlink:title="RKCK45::RKStep">
<polygon fill="none" stroke="#000000" points="279,-19.5 279,-38.5 375,-38.5 375,-19.5 279,-19.5"/>
<text text-anchor="middle" x="327" y="-26.5" font-family="Helvetica,sans-Serif" font-size="10.00" fill="#000000">RKCK45::RKStep</text>
</a>
</g>
</g>
<!-- Node6&#45;&gt;Node10 -->
<g id="edge8" class="edge">
<title>Node6&#45;&gt;Node10</title>
<path fill="none" stroke="#191970" d="M117.0917,-29C162.0415,-29 223.7929,-29 268.6759,-29"/>
<polygon fill="#191970" stroke="#191970" points="268.8414,-32.5001 278.8414,-29 268.8414,-25.5001 268.8414,-32.5001"/>
</g>
<!-- Node11 -->
<g id="node6" class="node">
<title>Node11</title>
<g id="a_node6"><a xlink:href="classRKCK45.html#ad30346cd92d32df6663deb6d0f4619a5" target="_top" xlink:title="RKCK45::h">
<polygon fill="none" stroke="#000000" points="411,-.5 411,-19.5 478,-19.5 478,-.5 411,-.5"/>
<text text-anchor="middle" x="444.5" y="-7.5" font-family="Helvetica,sans-Serif" font-size="10.00" fill="#000000">RKCK45::h</text>
</a>
</g>
</g>
<!-- Node6&#45;&gt;Node11 -->
<g id="edge7" class="edge">
<title>Node6&#45;&gt;Node11</title>
<path fill="none" stroke="#191970" d="M117.3721,-22.5421C161.7367,-18.0126 224.1057,-12.3607 279,-10 320.1854,-8.2289 367.1893,-8.4429 400.5538,-8.9734"/>
<polygon fill="#191970" stroke="#191970" points="400.8226,-12.4785 410.8825,-9.1546 400.9455,-5.4796 400.8226,-12.4785"/>
</g>
<!-- Node8 -->
<g id="node3" class="node">
<title>Node8</title>
<g id="a_node3"><a xlink:href="classRKCK45.html#ac38757c7ff000b18a23c5938d8346e17" target="_top" xlink:title="RKCK45::Step">
<polygon fill="none" stroke="#000000" points="286,-95.5 286,-114.5 368,-114.5 368,-95.5 286,-95.5"/>
<text text-anchor="middle" x="327" y="-102.5" font-family="Helvetica,sans-Serif" font-size="10.00" fill="#000000">RKCK45::Step</text>
</a>
</g>
</g>
<!-- Node7&#45;&gt;Node8 -->
<g id="edge2" class="edge">
<title>Node7&#45;&gt;Node8</title>
<path fill="none" stroke="#191970" d="M230.5521,-76.589C246.8993,-81.4044 266.9092,-87.2988 284.4571,-92.468"/>
<polygon fill="#191970" stroke="#191970" points="283.8768,-95.9457 294.4583,-95.4141 285.8548,-89.2309 283.8768,-95.9457"/>
</g>
<!-- Node9 -->
<g id="node4" class="node">
<title>Node9</title>
<g id="a_node4"><a xlink:href="classRKCK45.html#af7ed85b9bd7f3aee9779517c9a885b39" target="_top" xlink:title="RKCK45::resize">
<polygon fill="none" stroke="#000000" points="283,-57.5 283,-76.5 371,-76.5 371,-57.5 283,-57.5"/>
<text text-anchor="middle" x="327" y="-64.5" font-family="Helvetica,sans-Serif" font-size="10.00" fill="#000000">RKCK45::resize</text>
</a>
</g>
</g>
<!-- Node7&#45;&gt;Node9 -->
<g id="edge3" class="edge">
<title>Node7&#45;&gt;Node9</title>
<path fill="none" stroke="#191970" d="M243.1179,-67C252.7165,-67 262.9463,-67 272.8426,-67"/>
<polygon fill="#191970" stroke="#191970" points="272.9945,-70.5001 282.9945,-67 272.9944,-63.5001 272.9945,-70.5001"/>
</g>
<!-- Node7&#45;&gt;Node10 -->
<g id="edge4" class="edge">
<title>Node7&#45;&gt;Node10</title>
<path fill="none" stroke="#191970" d="M214.6004,-57.4076C228.5185,-51.7723 249.2534,-44.9924 269.1379,-39.3265"/>
<polygon fill="#191970" stroke="#191970" points="270.0984,-42.6923 278.7975,-36.6445 268.2256,-35.9475 270.0984,-42.6923"/>
</g>
<!-- Node10&#45;&gt;Node7 -->
<g id="edge6" class="edge">
<title>Node10&#45;&gt;Node7</title>
<path fill="none" stroke="#191970" d="M310.5843,-38.5175C295.9729,-44.4487 273.7448,-51.6635 252.8882,-57.5143"/>
<polygon fill="#191970" stroke="#191970" points="251.8435,-54.1714 243.1179,-60.1809 253.6867,-60.9243 251.8435,-54.1714"/>
</g>
<!-- Node10&#45;&gt;Node11 -->
<g id="edge5" class="edge">
<title>Node10&#45;&gt;Node11</title>
<path fill="none" stroke="#191970" d="M375.1308,-21.2172C383.6917,-19.8328 392.5638,-18.3982 400.987,-17.0362"/>
<polygon fill="#191970" stroke="#191970" points="401.6746,-20.4705 410.9877,-15.419 400.5572,-13.5603 401.6746,-20.4705"/>
</g>
</g>
</svg>
