<?xml version="1.0" encoding="UTF-8" standalone="no"?>
<!DOCTYPE svg PUBLIC "-//W3C//DTD SVG 1.1//EN"
 "http://www.w3.org/Graphics/SVG/1.1/DTD/svg11.dtd">
<!-- Generated by graphviz version 2.40.1 (20161225.0304)
 -->
<!-- Title: Solver::u0_out Pages: 1 -->
<svg width="751pt" height="161pt"
 viewBox="0.00 0.00 751.00 161.00" xmlns="http://www.w3.org/2000/svg" xmlns:xlink="http://www.w3.org/1999/xlink">
<g id="graph0" class="graph" transform="scale(1 1) rotate(0) translate(4 157)">
<title>Solver::u0_out</title>
<!-- Node263 -->
<g id="node1" class="node">
<title>Node263</title>
<polygon fill="#bfbfbf" stroke="#000000" points="0,-95.5 0,-114.5 80,-114.5 80,-95.5 0,-95.5"/>
<text text-anchor="middle" x="40" y="-102.5" font-family="Helvetica,sans-Serif" font-size="10.00" fill="#000000">Solver::u0_out</text>
</g>
<!-- Node264 -->
<g id="node2" class="node">
<title>Node264</title>
<g id="a_node2"><a xlink:href="classSolver.html#ae9cbf50e5db34626f54298c75fc64188" target="_top" xlink:title="Solver::newborns_out">
<polygon fill="none" stroke="#000000" points="116,-95.5 116,-114.5 227,-114.5 227,-95.5 116,-95.5"/>
<text text-anchor="middle" x="171.5" y="-102.5" font-family="Helvetica,sans-Serif" font-size="10.00" fill="#000000">Solver::newborns_out</text>
</a>
</g>
</g>
<!-- Node263&#45;&gt;Node264 -->
<g id="edge1" class="edge">
<title>Node263&#45;&gt;Node264</title>
<path fill="none" stroke="#191970" d="M80.1689,-105C88.2034,-105 96.8418,-105 105.4863,-105"/>
<polygon fill="#191970" stroke="#191970" points="105.6011,-108.5001 115.6011,-105 105.601,-101.5001 105.6011,-108.5001"/>
</g>
<!-- Node265 -->
<g id="node3" class="node">
<title>Node265</title>
<g id="a_node3"><a xlink:href="classEnvironmentBase.html#aab04d5438741c4f04d09514bac07348c" target="_top" xlink:title="EnvironmentBase::computeEnv">
<polygon fill="none" stroke="#000000" points="263,-133.5 263,-152.5 418,-152.5 418,-133.5 263,-133.5"/>
<text text-anchor="middle" x="340.5" y="-140.5" font-family="Helvetica,sans-Serif" font-size="10.00" fill="#000000">EnvironmentBase::computeEnv</text>
</a>
</g>
</g>
<!-- Node264&#45;&gt;Node265 -->
<g id="edge2" class="edge">
<title>Node264&#45;&gt;Node265</title>
<path fill="none" stroke="#191970" d="M214.1458,-114.589C236.6481,-119.6487 264.4482,-125.8996 288.2379,-131.2488"/>
<polygon fill="#191970" stroke="#191970" points="287.6366,-134.7009 298.1608,-133.4799 289.1723,-127.8714 287.6366,-134.7009"/>
</g>
<!-- Node266 -->
<g id="node4" class="node">
<title>Node266</title>
<g id="a_node4"><a xlink:href="classSolver.html#af574bcfab58cef5440c32fa87b027e7d" target="_top" xlink:title="Solver::preComputeSpecies">
<polygon fill="none" stroke="#000000" points="271,-95.5 271,-114.5 410,-114.5 410,-95.5 271,-95.5"/>
<text text-anchor="middle" x="340.5" y="-102.5" font-family="Helvetica,sans-Serif" font-size="10.00" fill="#000000">Solver::preComputeSpecies</text>
</a>
</g>
</g>
<!-- Node264&#45;&gt;Node266 -->
<g id="edge3" class="edge">
<title>Node264&#45;&gt;Node266</title>
<path fill="none" stroke="#191970" d="M227.3053,-105C237.9788,-105 249.3455,-105 260.6029,-105"/>
<polygon fill="#191970" stroke="#191970" points="260.8876,-108.5001 270.8876,-105 260.8875,-101.5001 260.8876,-108.5001"/>
</g>
<!-- Node267 -->
<g id="node5" class="node">
<title>Node267</title>
<g id="a_node5"><a xlink:href="classSolver.html#aa5f2d1d48f6b4db83dbb257325924d2c" target="_top" xlink:title="Solver::calcSpeciesBirthFlux">
<polygon fill="none" stroke="#000000" points="269,-57.5 269,-76.5 412,-76.5 412,-57.5 269,-57.5"/>
<text text-anchor="middle" x="340.5" y="-64.5" font-family="Helvetica,sans-Serif" font-size="10.00" fill="#000000">Solver::calcSpeciesBirthFlux</text>
</a>
</g>
</g>
<!-- Node264&#45;&gt;Node267 -->
<g id="edge4" class="edge">
<title>Node264&#45;&gt;Node267</title>
<path fill="none" stroke="#191970" d="M214.1458,-95.411C236.6481,-90.3513 264.4482,-84.1004 288.2379,-78.7512"/>
<polygon fill="#191970" stroke="#191970" points="289.1723,-82.1286 298.1608,-76.5201 287.6366,-75.2991 289.1723,-82.1286"/>
</g>
<!-- Node268 -->
<g id="node6" class="node">
<title>Node268</title>
<g id="a_node6"><a xlink:href="classSolver.html#a2a6ca7647a4cde1195789132f3873c0b" target="_top" xlink:title="Solver::integrate_x">
<polygon fill="none" stroke="#000000" points="454,-57.5 454,-76.5 552,-76.5 552,-57.5 454,-57.5"/>
<text text-anchor="middle" x="503" y="-64.5" font-family="Helvetica,sans-Serif" font-size="10.00" fill="#000000">Solver::integrate_x</text>
</a>
</g>
</g>
<!-- Node267&#45;&gt;Node268 -->
<g id="edge5" class="edge">
<title>Node267&#45;&gt;Node268</title>
<path fill="none" stroke="#191970" d="M412.2479,-67C422.5967,-67 433.154,-67 443.2358,-67"/>
<polygon fill="#191970" stroke="#191970" points="443.5414,-70.5001 453.5413,-67 443.5413,-63.5001 443.5414,-70.5001"/>
</g>
<!-- Node269 -->
<g id="node7" class="node">
<title>Node269</title>
<g id="a_node7"><a xlink:href="classSpecies__Base.html#ad412522fc071525a19f95609880b20ff" target="_top" xlink:title="Species_Base::getU">
<polygon fill="none" stroke="#000000" points="612,-114.5 612,-133.5 719,-133.5 719,-114.5 612,-114.5"/>
<text text-anchor="middle" x="665.5" y="-121.5" font-family="Helvetica,sans-Serif" font-size="10.00" fill="#000000">Species_Base::getU</text>
</a>
</g>
</g>
<!-- Node268&#45;&gt;Node269 -->
<g id="edge6" class="edge">
<title>Node268&#45;&gt;Node269</title>
<path fill="none" stroke="#191970" d="M521.8461,-76.6077C538.8138,-84.97 564.6061,-96.9762 588,-105 595.2788,-107.4965 603.0477,-109.8042 610.7512,-111.8874"/>
<polygon fill="#191970" stroke="#191970" points="609.8733,-115.2755 620.4322,-114.4035 611.6342,-108.5005 609.8733,-115.2755"/>
</g>
<!-- Node270 -->
<g id="node8" class="node">
<title>Node270</title>
<g id="a_node8"><a xlink:href="classSpecies__Base.html#aa6880c6f5c8ff125cab4d1195dedfb13" target="_top" xlink:title="Species_Base::getX">
<polygon fill="none" stroke="#000000" points="612.5,-76.5 612.5,-95.5 718.5,-95.5 718.5,-76.5 612.5,-76.5"/>
<text text-anchor="middle" x="665.5" y="-83.5" font-family="Helvetica,sans-Serif" font-size="10.00" fill="#000000">Species_Base::getX</text>
</a>
</g>
</g>
<!-- Node268&#45;&gt;Node270 -->
<g id="edge7" class="edge">
<title>Node268&#45;&gt;Node270</title>
<path fill="none" stroke="#191970" d="M552.1963,-72.7522C567.9001,-74.5883 585.5064,-76.6469 602.0729,-78.5839"/>
<polygon fill="#191970" stroke="#191970" points="601.8884,-82.0861 612.2273,-79.7712 602.7014,-75.1335 601.8884,-82.0861"/>
</g>
<!-- Node271 -->
<g id="node9" class="node">
<title>Node271</title>
<g id="a_node9"><a xlink:href="classSpecies__Base.html#a86a04ae53b3f25c4e90b01a8eaed3bfd" target="_top" xlink:title="Species_Base::setX">
<polygon fill="none" stroke="#000000" points="612.5,-38.5 612.5,-57.5 718.5,-57.5 718.5,-38.5 612.5,-38.5"/>
<text text-anchor="middle" x="665.5" y="-45.5" font-family="Helvetica,sans-Serif" font-size="10.00" fill="#000000">Species_Base::setX</text>
</a>
</g>
</g>
<!-- Node268&#45;&gt;Node271 -->
<g id="edge8" class="edge">
<title>Node268&#45;&gt;Node271</title>
<path fill="none" stroke="#191970" d="M552.1963,-61.2478C567.9001,-59.4117 585.5064,-57.3531 602.0729,-55.4161"/>
<polygon fill="#191970" stroke="#191970" points="602.7014,-58.8665 612.2273,-54.2288 601.8884,-51.9139 602.7014,-58.8665"/>
</g>
<!-- Node272 -->
<g id="node10" class="node">
<title>Node272</title>
<g id="a_node10"><a xlink:href="classSpecies__Base.html#a191930a24322d8df293e759943d156fa" target="_top" xlink:title="Species_Base::get_boundary_u">
<polygon fill="none" stroke="#000000" points="588,-.5 588,-19.5 743,-19.5 743,-.5 588,-.5"/>
<text text-anchor="middle" x="665.5" y="-7.5" font-family="Helvetica,sans-Serif" font-size="10.00" fill="#000000">Species_Base::get_boundary_u</text>
</a>
</g>
</g>
<!-- Node268&#45;&gt;Node272 -->
<g id="edge9" class="edge">
<title>Node268&#45;&gt;Node272</title>
<path fill="none" stroke="#191970" d="M521.8461,-57.3923C538.8138,-49.03 564.6061,-37.0238 588,-29 595.2788,-26.5035 603.0477,-24.1958 610.7512,-22.1126"/>
<polygon fill="#191970" stroke="#191970" points="611.6342,-25.4995 620.4322,-19.5965 609.8733,-18.7245 611.6342,-25.4995"/>
</g>
</g>
</svg>
