<?xml version="1.0" encoding="UTF-8" standalone="no"?>
<!DOCTYPE svg PUBLIC "-//W3C//DTD SVG 1.1//EN"
 "http://www.w3.org/Graphics/SVG/1.1/DTD/svg11.dtd">
<!-- Generated by graphviz version 2.40.1 (20161225.0304)
 -->
<!-- Title: Solver::step_to Pages: 1 -->
<svg width="1166pt" height="682pt"
 viewBox="0.00 0.00 1166.00 682.00" xmlns="http://www.w3.org/2000/svg" xmlns:xlink="http://www.w3.org/1999/xlink">
<g id="graph0" class="graph" transform="scale(1 1) rotate(0) translate(4 678)">
<title>Solver::step_to</title>
<!-- Node131 -->
<g id="node1" class="node">
<title>Node131</title>
<polygon fill="#bfbfbf" stroke="#000000" points="0,-297.5 0,-316.5 83,-316.5 83,-297.5 0,-297.5"/>
<text text-anchor="middle" x="41.5" y="-304.5" font-family="Helvetica,sans-Serif" font-size="10.00" fill="#000000">Solver::step_to</text>
</g>
<!-- Node132 -->
<g id="node2" class="node">
<title>Node132</title>
<g id="a_node2"><a xlink:href="classSolver.html#ad3f68f3021eed287c5b1c85bdc24afd8" target="_top" xlink:title="Solver::copyStateToCohorts">
<polygon fill="none" stroke="#000000" points="131.5,-594.5 131.5,-613.5 271.5,-613.5 271.5,-594.5 131.5,-594.5"/>
<text text-anchor="middle" x="201.5" y="-601.5" font-family="Helvetica,sans-Serif" font-size="10.00" fill="#000000">Solver::copyStateToCohorts</text>
</a>
</g>
</g>
<!-- Node131&#45;&gt;Node132 -->
<g id="edge1" class="edge">
<title>Node131&#45;&gt;Node132</title>
<path fill="none" stroke="#191970" d="M43.4738,-316.5108C50.2159,-347.5491 74.4201,-447.9687 119,-519 136.0642,-546.1892 162.9911,-571.8233 181.4091,-587.6902"/>
<polygon fill="#191970" stroke="#191970" points="179.3051,-590.4942 189.2067,-594.2636 183.8169,-585.1422 179.3051,-590.4942"/>
</g>
<!-- Node136 -->
<g id="node6" class="node">
<title>Node136</title>
<g id="a_node6"><a xlink:href="classEnvironmentBase.html#ae8ee835be256735745ed1c68161b0f17" target="_top" xlink:title="EnvironmentBase::computeEnv">
<polygon fill="none" stroke="#000000" points="124,-490.5 124,-509.5 279,-509.5 279,-490.5 124,-490.5"/>
<text text-anchor="middle" x="201.5" y="-497.5" font-family="Helvetica,sans-Serif" font-size="10.00" fill="#000000">EnvironmentBase::computeEnv</text>
</a>
</g>
</g>
<!-- Node131&#45;&gt;Node136 -->
<g id="edge5" class="edge">
<title>Node131&#45;&gt;Node136</title>
<path fill="none" stroke="#191970" d="M42.7858,-316.7031C47.2504,-346.3497 64.8886,-436.425 119,-481 121.0349,-482.6763 123.1897,-484.2109 125.4375,-485.6156"/>
<polygon fill="#191970" stroke="#191970" points="124.0362,-488.8337 134.5126,-490.4134 127.3079,-482.6453 124.0362,-488.8337"/>
</g>
<!-- Node137 -->
<g id="node7" class="node">
<title>Node137</title>
<g id="a_node7"><a xlink:href="classSolver.html#af574bcfab58cef5440c32fa87b027e7d" target="_top" xlink:title="Solver::preComputeSpecies">
<polygon fill="none" stroke="#000000" points="132,-452.5 132,-471.5 271,-471.5 271,-452.5 132,-452.5"/>
<text text-anchor="middle" x="201.5" y="-459.5" font-family="Helvetica,sans-Serif" font-size="10.00" fill="#000000">Solver::preComputeSpecies</text>
</a>
</g>
</g>
<!-- Node131&#45;&gt;Node137 -->
<g id="edge6" class="edge">
<title>Node131&#45;&gt;Node137</title>
<path fill="none" stroke="#191970" d="M44.0741,-316.7135C51.2716,-341.8846 74.0837,-409.5859 119,-443 121.5133,-444.8697 124.1799,-446.5598 126.9569,-448.0871"/>
<polygon fill="#191970" stroke="#191970" points="125.6122,-451.3228 136.1488,-452.4324 128.6039,-444.9943 125.6122,-451.3228"/>
</g>
<!-- Node138 -->
<g id="node8" class="node">
<title>Node138</title>
<g id="a_node8"><a xlink:href="classSolver.html#a2ea9fb6abc4ffd5ac28154332029da40" target="_top" xlink:title="Solver::calcRates_FMU">
<polygon fill="none" stroke="#000000" points="140.5,-414.5 140.5,-433.5 262.5,-433.5 262.5,-414.5 140.5,-414.5"/>
<text text-anchor="middle" x="201.5" y="-421.5" font-family="Helvetica,sans-Serif" font-size="10.00" fill="#000000">Solver::calcRates_FMU</text>
</a>
</g>
</g>
<!-- Node131&#45;&gt;Node138 -->
<g id="edge7" class="edge">
<title>Node131&#45;&gt;Node138</title>
<path fill="none" stroke="#191970" d="M46.1975,-316.5766C56.4603,-336.437 82.887,-382.1563 119,-405 122.6332,-407.2983 126.5133,-409.3194 130.5362,-411.0967"/>
<polygon fill="#191970" stroke="#191970" points="129.5447,-414.466 140.1337,-414.8169 132.0747,-407.9392 129.5447,-414.466"/>
</g>
<!-- Node140 -->
<g id="node10" class="node">
<title>Node140</title>
<g id="a_node10"><a xlink:href="classOdeSolver.html#a77d9f02ed28d5515366e6be08560f35a" target="_top" xlink:title="OdeSolver::step_to">
<polygon fill="none" stroke="#000000" points="151,-376.5 151,-395.5 252,-395.5 252,-376.5 151,-376.5"/>
<text text-anchor="middle" x="201.5" y="-383.5" font-family="Helvetica,sans-Serif" font-size="10.00" fill="#000000">OdeSolver::step_to</text>
</a>
</g>
</g>
<!-- Node131&#45;&gt;Node140 -->
<g id="edge9" class="edge">
<title>Node131&#45;&gt;Node140</title>
<path fill="none" stroke="#191970" d="M52.1957,-316.9284C66.4115,-329.6134 92.7984,-351.4279 119,-364 126.8653,-367.7739 135.4743,-370.9754 144.0695,-373.6681"/>
<polygon fill="#191970" stroke="#191970" points="143.1468,-377.0448 153.7274,-376.4955 145.1136,-370.3268 143.1468,-377.0448"/>
</g>
<!-- Node166 -->
<g id="node34" class="node">
<title>Node166</title>
<g id="a_node34"><a xlink:href="classSolver.html#a8f96f44ff535452912b2a3a2fc43e60e" target="_top" xlink:title="Solver::stepU_iFMU">
<polygon fill="none" stroke="#000000" points="148.5,-335.5 148.5,-354.5 254.5,-354.5 254.5,-335.5 148.5,-335.5"/>
<text text-anchor="middle" x="201.5" y="-342.5" font-family="Helvetica,sans-Serif" font-size="10.00" fill="#000000">Solver::stepU_iFMU</text>
</a>
</g>
</g>
<!-- Node131&#45;&gt;Node166 -->
<g id="edge36" class="edge">
<title>Node131&#45;&gt;Node166</title>
<path fill="none" stroke="#191970" d="M80.1063,-316.578C92.5167,-319.6266 106.3309,-322.9883 119,-326 128.8666,-328.3455 139.4078,-330.8069 149.5433,-333.1514"/>
<polygon fill="#191970" stroke="#191970" points="148.9727,-336.6116 159.5035,-335.4482 150.5457,-329.7906 148.9727,-336.6116"/>
</g>
<!-- Node167 -->
<g id="node35" class="node">
<title>Node167</title>
<g id="a_node35"><a xlink:href="classSolver.html#af20fce0c27f051dfb93383069a77fd72" target="_top" xlink:title="Solver::calcRates_iFMU">
<polygon fill="none" stroke="#000000" points="139.5,-297.5 139.5,-316.5 263.5,-316.5 263.5,-297.5 139.5,-297.5"/>
<text text-anchor="middle" x="201.5" y="-304.5" font-family="Helvetica,sans-Serif" font-size="10.00" fill="#000000">Solver::calcRates_iFMU</text>
</a>
</g>
</g>
<!-- Node131&#45;&gt;Node167 -->
<g id="edge37" class="edge">
<title>Node131&#45;&gt;Node167</title>
<path fill="none" stroke="#191970" d="M83.1204,-307C97.172,-307 113.2939,-307 129.0244,-307"/>
<polygon fill="#191970" stroke="#191970" points="129.2793,-310.5001 139.2793,-307 129.2792,-303.5001 129.2793,-310.5001"/>
</g>
<!-- Node168 -->
<g id="node36" class="node">
<title>Node168</title>
<g id="a_node36"><a xlink:href="classSolver.html#a23be16428b7ba399bfd2f06555547f6b" target="_top" xlink:title="Solver::calcRates_EBT">
<polygon fill="none" stroke="#000000" points="142,-259.5 142,-278.5 261,-278.5 261,-259.5 142,-259.5"/>
<text text-anchor="middle" x="201.5" y="-266.5" font-family="Helvetica,sans-Serif" font-size="10.00" fill="#000000">Solver::calcRates_EBT</text>
</a>
</g>
</g>
<!-- Node131&#45;&gt;Node168 -->
<g id="edge38" class="edge">
<title>Node131&#45;&gt;Node168</title>
<path fill="none" stroke="#191970" d="M80.1063,-297.422C92.5167,-294.3734 106.3309,-291.0117 119,-288 128.8666,-285.6545 139.4078,-283.1931 149.5433,-280.8486"/>
<polygon fill="#191970" stroke="#191970" points="150.5457,-284.2094 159.5035,-278.5518 148.9727,-277.3884 150.5457,-284.2094"/>
</g>
<!-- Node178 -->
<g id="node46" class="node">
<title>Node178</title>
<g id="a_node46"><a xlink:href="classSolver.html#a755d2db1e1e57bb998526cd604bd7565" target="_top" xlink:title="Solver::removeDeadCohorts_EBT">
<polygon fill="none" stroke="#000000" points="119,-221.5 119,-240.5 284,-240.5 284,-221.5 119,-221.5"/>
<text text-anchor="middle" x="201.5" y="-228.5" font-family="Helvetica,sans-Serif" font-size="10.00" fill="#000000">Solver::removeDeadCohorts_EBT</text>
</a>
</g>
</g>
<!-- Node131&#45;&gt;Node178 -->
<g id="edge48" class="edge">
<title>Node131&#45;&gt;Node178</title>
<path fill="none" stroke="#191970" d="M51.6477,-297.3719C65.6712,-284.6045 92.2834,-262.2609 119,-250 124.3913,-247.5258 130.1332,-245.3595 135.9812,-243.4655"/>
<polygon fill="#191970" stroke="#191970" points="137.2883,-246.7285 145.8798,-240.5288 135.2973,-240.0176 137.2883,-246.7285"/>
</g>
<!-- Node179 -->
<g id="node47" class="node">
<title>Node179</title>
<g id="a_node47"><a xlink:href="classSolver.html#a1b1f4ba3186796d37c909c6b26c7d6f2" target="_top" xlink:title="Solver::addCohort_EBT">
<polygon fill="none" stroke="#000000" points="141.5,-183.5 141.5,-202.5 261.5,-202.5 261.5,-183.5 141.5,-183.5"/>
<text text-anchor="middle" x="201.5" y="-190.5" font-family="Helvetica,sans-Serif" font-size="10.00" fill="#000000">Solver::addCohort_EBT</text>
</a>
</g>
</g>
<!-- Node131&#45;&gt;Node179 -->
<g id="edge49" class="edge">
<title>Node131&#45;&gt;Node179</title>
<path fill="none" stroke="#191970" d="M46.4381,-297.4218C56.9653,-278.0157 83.5747,-234.034 119,-212 123.0757,-209.465 127.4541,-207.2675 131.9915,-205.3628"/>
<polygon fill="#191970" stroke="#191970" points="133.3195,-208.6034 141.4828,-201.8497 130.8896,-202.0386 133.3195,-208.6034"/>
</g>
<!-- Node180 -->
<g id="node48" class="node">
<title>Node180</title>
<g id="a_node48"><a xlink:href="classSolver.html#ab712f582d6f785adb8620cb40bbb3de4" target="_top" xlink:title="Solver::calcRates_CM">
<polygon fill="none" stroke="#000000" points="143.5,-145.5 143.5,-164.5 259.5,-164.5 259.5,-145.5 143.5,-145.5"/>
<text text-anchor="middle" x="201.5" y="-152.5" font-family="Helvetica,sans-Serif" font-size="10.00" fill="#000000">Solver::calcRates_CM</text>
</a>
</g>
</g>
<!-- Node131&#45;&gt;Node180 -->
<g id="edge50" class="edge">
<title>Node131&#45;&gt;Node180</title>
<path fill="none" stroke="#191970" d="M44.1413,-297.4972C51.5012,-272.8727 74.6715,-206.6457 119,-174 123.512,-170.6771 128.5099,-167.9226 133.7488,-165.6408"/>
<polygon fill="#191970" stroke="#191970" points="135.254,-168.8143 143.3864,-162.0234 132.7942,-162.2607 135.254,-168.8143"/>
</g>
<!-- Node181 -->
<g id="node49" class="node">
<title>Node181</title>
<g id="a_node49"><a xlink:href="classSolver.html#af6469f699052d7c5fc9192c75b597f30" target="_top" xlink:title="Solver::addCohort_CM">
<polygon fill="none" stroke="#000000" points="143.5,-107.5 143.5,-126.5 259.5,-126.5 259.5,-107.5 143.5,-107.5"/>
<text text-anchor="middle" x="201.5" y="-114.5" font-family="Helvetica,sans-Serif" font-size="10.00" fill="#000000">Solver::addCohort_CM</text>
</a>
</g>
</g>
<!-- Node131&#45;&gt;Node181 -->
<g id="edge51" class="edge">
<title>Node131&#45;&gt;Node181</title>
<path fill="none" stroke="#191970" d="M42.842,-297.4602C47.4686,-268.3131 65.5235,-179.761 119,-136 123.4077,-132.3931 128.3713,-129.4428 133.6215,-127.0329"/>
<polygon fill="#191970" stroke="#191970" points="135.2755,-130.1449 143.3232,-123.2538 132.7348,-123.6222 135.2755,-130.1449"/>
</g>
<!-- Node182 -->
<g id="node50" class="node">
<title>Node182</title>
<g id="a_node50"><a xlink:href="classSolver.html#ad4c2e8d0c5a11726f47553adcf0f4c73" target="_top" xlink:title="Solver::removeCohort_CM">
<polygon fill="none" stroke="#000000" points="135,-69.5 135,-88.5 268,-88.5 268,-69.5 135,-69.5"/>
<text text-anchor="middle" x="201.5" y="-76.5" font-family="Helvetica,sans-Serif" font-size="10.00" fill="#000000">Solver::removeCohort_CM</text>
</a>
</g>
</g>
<!-- Node131&#45;&gt;Node182 -->
<g id="edge52" class="edge">
<title>Node131&#45;&gt;Node182</title>
<path fill="none" stroke="#191970" d="M41.9864,-297.3286C44.2058,-264.0346 56.2134,-153.1825 119,-98 121.0286,-96.2171 123.191,-94.5922 125.4576,-93.1119"/>
<polygon fill="#191970" stroke="#191970" points="127.5543,-95.9549 134.6536,-88.0904 124.1995,-89.8112 127.5543,-95.9549"/>
</g>
<!-- Node133 -->
<g id="node3" class="node">
<title>Node133</title>
<g id="a_node3"><a xlink:href="classSpecies__Base.html#ad9ddab41ba3c6e242f1b3a8a50ed7a36" target="_top" xlink:title="Species_Base::setU">
<polygon fill="none" stroke="#000000" points="343,-654.5 343,-673.5 450,-673.5 450,-654.5 343,-654.5"/>
<text text-anchor="middle" x="396.5" y="-661.5" font-family="Helvetica,sans-Serif" font-size="10.00" fill="#000000">Species_Base::setU</text>
</a>
</g>
</g>
<!-- Node132&#45;&gt;Node133 -->
<g id="edge2" class="edge">
<title>Node132&#45;&gt;Node133</title>
<path fill="none" stroke="#191970" d="M227.1745,-613.6303C251.0323,-622.4004 287.6496,-635.4071 320,-645 328.1098,-647.4048 336.7634,-649.756 345.2252,-651.9393"/>
<polygon fill="#191970" stroke="#191970" points="344.4736,-655.3594 355.0265,-654.4183 346.1901,-648.5731 344.4736,-655.3594"/>
</g>
<!-- Node134 -->
<g id="node4" class="node">
<title>Node134</title>
<g id="a_node4"><a xlink:href="classSpecies__Base.html#a86a04ae53b3f25c4e90b01a8eaed3bfd" target="_top" xlink:title="Species_Base::setX">
<polygon fill="none" stroke="#000000" points="343.5,-616.5 343.5,-635.5 449.5,-635.5 449.5,-616.5 343.5,-616.5"/>
<text text-anchor="middle" x="396.5" y="-623.5" font-family="Helvetica,sans-Serif" font-size="10.00" fill="#000000">Species_Base::setX</text>
</a>
</g>
</g>
<!-- Node132&#45;&gt;Node134 -->
<g id="edge3" class="edge">
<title>Node132&#45;&gt;Node134</title>
<path fill="none" stroke="#191970" d="M271.624,-611.9114C291.7079,-614.1773 313.4782,-616.6334 333.1312,-618.8507"/>
<polygon fill="#191970" stroke="#191970" points="332.8659,-622.3429 343.1953,-619.9861 333.6507,-615.387 332.8659,-622.3429"/>
</g>
<!-- Node135 -->
<g id="node5" class="node">
<title>Node135</title>
<g id="a_node5"><a xlink:href="classSpecies__Base.html#a2ca0ef18e0b775f6efc02b026bd2f5ac" target="_top" xlink:title="Species_Base::copyExtraState\lToCohorts">
<polygon fill="none" stroke="#000000" points="320,-567 320,-597 473,-597 473,-567 320,-567"/>
<text text-anchor="start" x="328" y="-585" font-family="Helvetica,sans-Serif" font-size="10.00" fill="#000000">Species_Base::copyExtraState</text>
<text text-anchor="middle" x="396.5" y="-574" font-family="Helvetica,sans-Serif" font-size="10.00" fill="#000000">ToCohorts</text>
</a>
</g>
</g>
<!-- Node132&#45;&gt;Node135 -->
<g id="edge4" class="edge">
<title>Node132&#45;&gt;Node135</title>
<path fill="none" stroke="#191970" d="M271.624,-596.0886C283.9444,-594.6986 296.8994,-593.237 309.611,-591.8029"/>
<polygon fill="#191970" stroke="#191970" points="310.1919,-595.2596 319.7364,-590.6605 309.4071,-588.3037 310.1919,-595.2596"/>
</g>
<!-- Node139 -->
<g id="node9" class="node">
<title>Node139</title>
<g id="a_node9"><a xlink:href="fmu_8cpp.html#af0b176a8634995ec9711c803bb30743a" target="_top" xlink:title="phi">
<polygon fill="none" stroke="#000000" points="382,-528.5 382,-547.5 411,-547.5 411,-528.5 382,-528.5"/>
<text text-anchor="middle" x="396.5" y="-535.5" font-family="Helvetica,sans-Serif" font-size="10.00" fill="#000000">phi</text>
</a>
</g>
</g>
<!-- Node138&#45;&gt;Node139 -->
<g id="edge8" class="edge">
<title>Node138&#45;&gt;Node139</title>
<path fill="none" stroke="#191970" d="M262.5627,-431.3756C270.3006,-434.1668 277.701,-437.9334 284,-443 313.1235,-466.4256 291.0776,-495.3265 320,-519 334.4549,-530.8316 355.2444,-535.4477 371.5036,-537.1792"/>
<polygon fill="#191970" stroke="#191970" points="371.666,-540.7016 381.9027,-537.9703 372.197,-533.7217 371.666,-540.7016"/>
</g>
<!-- Node141 -->
<g id="node11" class="node">
<title>Node141</title>
<g id="a_node11"><a xlink:href="classLSODA.html#a278bb538d9b0354084473a931567a023" target="_top" xlink:title="LSODA::set_istate">
<polygon fill="none" stroke="#000000" points="347,-490.5 347,-509.5 446,-509.5 446,-490.5 347,-490.5"/>
<text text-anchor="middle" x="396.5" y="-497.5" font-family="Helvetica,sans-Serif" font-size="10.00" fill="#000000">LSODA::set_istate</text>
</a>
</g>
</g>
<!-- Node140&#45;&gt;Node141 -->
<g id="edge10" class="edge">
<title>Node140&#45;&gt;Node141</title>
<path fill="none" stroke="#191970" d="M252.304,-390.2517C263.6323,-393.1272 274.9523,-397.7225 284,-405 313.1235,-428.4256 291.0776,-457.3265 320,-481 325.0731,-485.1524 330.9265,-488.4161 337.0904,-490.9782"/>
<polygon fill="#191970" stroke="#191970" points="336.3699,-494.4351 346.9648,-494.4539 338.6941,-487.8322 336.3699,-494.4351"/>
</g>
<!-- Node142 -->
<g id="node12" class="node">
<title>Node142</title>
<g id="a_node12"><a xlink:href="classLSODA.html#a391e4d7bea026ad7c300cfb55cb290d1" target="_top" xlink:title="LSODA::lsoda_update">
<polygon fill="none" stroke="#000000" points="339.5,-452.5 339.5,-471.5 453.5,-471.5 453.5,-452.5 339.5,-452.5"/>
<text text-anchor="middle" x="396.5" y="-459.5" font-family="Helvetica,sans-Serif" font-size="10.00" fill="#000000">LSODA::lsoda_update</text>
</a>
</g>
</g>
<!-- Node140&#45;&gt;Node142 -->
<g id="edge11" class="edge">
<title>Node140&#45;&gt;Node142</title>
<path fill="none" stroke="#191970" d="M252.1213,-392.7474C263.0921,-395.5286 274.3027,-399.4556 284,-405 304.1964,-416.5473 299.903,-431.2806 320,-443 323.7238,-445.1715 327.6895,-447.0963 331.7811,-448.8022"/>
<polygon fill="#191970" stroke="#191970" points="330.909,-452.2113 341.5022,-452.3984 333.3378,-445.6462 330.909,-452.2113"/>
</g>
<!-- Node164 -->
<g id="node32" class="node">
<title>Node164</title>
<g id="a_node32"><a xlink:href="classLSODA.html#a418110bad0f4978101950dfd04311a02" target="_top" xlink:title="LSODA::get_istate">
<polygon fill="none" stroke="#000000" points="347,-414.5 347,-433.5 446,-433.5 446,-414.5 347,-414.5"/>
<text text-anchor="middle" x="396.5" y="-421.5" font-family="Helvetica,sans-Serif" font-size="10.00" fill="#000000">LSODA::get_istate</text>
</a>
</g>
</g>
<!-- Node140&#45;&gt;Node164 -->
<g id="edge34" class="edge">
<title>Node140&#45;&gt;Node164</title>
<path fill="none" stroke="#191970" d="M250.455,-395.54C276.8809,-400.6896 309.6943,-407.084 337.52,-412.5065"/>
<polygon fill="#191970" stroke="#191970" points="337.04,-415.9787 347.5248,-414.4561 338.3789,-409.1079 337.04,-415.9787"/>
</g>
<!-- Node165 -->
<g id="node33" class="node">
<title>Node165</title>
<g id="a_node33"><a xlink:href="classLSODA.html#adb5f9410c901c193aeb836dd9cc4ab70" target="_top" xlink:title="LSODA::get_fncalls">
<polygon fill="none" stroke="#000000" points="344.5,-376.5 344.5,-395.5 448.5,-395.5 448.5,-376.5 344.5,-376.5"/>
<text text-anchor="middle" x="396.5" y="-383.5" font-family="Helvetica,sans-Serif" font-size="10.00" fill="#000000">LSODA::get_fncalls</text>
</a>
</g>
</g>
<!-- Node140&#45;&gt;Node165 -->
<g id="edge35" class="edge">
<title>Node140&#45;&gt;Node165</title>
<path fill="none" stroke="#191970" d="M252.2249,-386C277.2302,-386 307.6148,-386 334.039,-386"/>
<polygon fill="#191970" stroke="#191970" points="334.3307,-389.5001 344.3307,-386 334.3306,-382.5001 334.3307,-389.5001"/>
</g>
<!-- Node143 -->
<g id="node13" class="node">
<title>Node143</title>
<g id="a_node13"><a xlink:href="classLSODA.html#a705dcfe5b21827adb8871e48f2c72fb2" target="_top" xlink:title="LSODA::lsoda">
<polygon fill="none" stroke="#000000" points="509,-452.5 509,-471.5 589,-471.5 589,-452.5 509,-452.5"/>
<text text-anchor="middle" x="549" y="-459.5" font-family="Helvetica,sans-Serif" font-size="10.00" fill="#000000">LSODA::lsoda</text>
</a>
</g>
</g>
<!-- Node142&#45;&gt;Node143 -->
<g id="edge12" class="edge">
<title>Node142&#45;&gt;Node143</title>
<path fill="none" stroke="#191970" d="M453.7192,-462C468.4093,-462 484.1061,-462 498.4331,-462"/>
<polygon fill="#191970" stroke="#191970" points="498.5894,-465.5001 508.5894,-462 498.5894,-458.5001 498.5894,-465.5001"/>
</g>
<!-- Node144 -->
<g id="node14" class="node">
<title>Node144</title>
<g id="a_node14"><a xlink:href="classLSODA.html#addd83d35565b2c2db644f27dbd94446f" target="_top" xlink:title="LSODA::terminate">
<polygon fill="none" stroke="#000000" points="636.5,-585.5 636.5,-604.5 733.5,-604.5 733.5,-585.5 636.5,-585.5"/>
<text text-anchor="middle" x="685" y="-592.5" font-family="Helvetica,sans-Serif" font-size="10.00" fill="#000000">LSODA::terminate</text>
</a>
</g>
</g>
<!-- Node143&#45;&gt;Node144 -->
<g id="edge13" class="edge">
<title>Node143&#45;&gt;Node144</title>
<path fill="none" stroke="#191970" d="M552.7251,-471.5461C561.7284,-493.3758 586.7865,-547.2662 625,-576 627.4958,-577.8766 630.182,-579.571 632.9851,-581.1006"/>
<polygon fill="#191970" stroke="#191970" points="631.7057,-584.3663 642.2455,-585.4453 634.679,-578.0292 631.7057,-584.3663"/>
</g>
<!-- Node145 -->
<g id="node15" class="node">
<title>Node145</title>
<g id="a_node15"><a xlink:href="classLSODA.html#a6f118c16d754b66d7ee9220037260978" target="_top" xlink:title="LSODA::resize_system">
<polygon fill="none" stroke="#000000" points="625,-547.5 625,-566.5 745,-566.5 745,-547.5 625,-547.5"/>
<text text-anchor="middle" x="685" y="-554.5" font-family="Helvetica,sans-Serif" font-size="10.00" fill="#000000">LSODA::resize_system</text>
</a>
</g>
</g>
<!-- Node143&#45;&gt;Node145 -->
<g id="edge14" class="edge">
<title>Node143&#45;&gt;Node145</title>
<path fill="none" stroke="#191970" d="M556.0883,-471.6381C568.3728,-487.6795 595.1802,-519.8795 625,-538 628.4214,-540.0791 632.0925,-541.9522 635.8718,-543.6358"/>
<polygon fill="#191970" stroke="#191970" points="634.8231,-546.9856 645.4082,-547.4395 637.4165,-540.4837 634.8231,-546.9856"/>
</g>
<!-- Node146 -->
<g id="node16" class="node">
<title>Node146</title>
<g id="a_node16"><a xlink:href="classLSODA.html#a0a54717e6b42492345098b16bb248e77" target="_top" xlink:title="LSODA::ewset">
<polygon fill="none" stroke="#000000" points="643.5,-509.5 643.5,-528.5 726.5,-528.5 726.5,-509.5 643.5,-509.5"/>
<text text-anchor="middle" x="685" y="-516.5" font-family="Helvetica,sans-Serif" font-size="10.00" fill="#000000">LSODA::ewset</text>
</a>
</g>
</g>
<!-- Node143&#45;&gt;Node146 -->
<g id="edge15" class="edge">
<title>Node143&#45;&gt;Node146</title>
<path fill="none" stroke="#191970" d="M566.1492,-471.5478C581.3232,-479.7586 604.22,-491.5755 625,-500 630.449,-502.2091 636.2584,-504.329 642.0359,-506.2996"/>
<polygon fill="#191970" stroke="#191970" points="641.0666,-509.6652 651.6595,-509.4644 643.2534,-503.0155 641.0666,-509.6652"/>
</g>
<!-- Node147 -->
<g id="node17" class="node">
<title>Node147</title>
<g id="a_node17"><a xlink:href="classLSODA.html#afbcbaee47892060721287dc0ba9708f9" target="_top" xlink:title="LSODA::terminate2">
<polygon fill="none" stroke="#000000" points="634,-471.5 634,-490.5 736,-490.5 736,-471.5 634,-471.5"/>
<text text-anchor="middle" x="685" y="-478.5" font-family="Helvetica,sans-Serif" font-size="10.00" fill="#000000">LSODA::terminate2</text>
</a>
</g>
</g>
<!-- Node143&#45;&gt;Node147 -->
<g id="edge16" class="edge">
<title>Node143&#45;&gt;Node147</title>
<path fill="none" stroke="#191970" d="M589.0689,-467.5979C599.8559,-469.1049 611.7778,-470.7704 623.4445,-472.4003"/>
<polygon fill="#191970" stroke="#191970" points="623.2082,-475.9012 633.5963,-473.8186 624.1768,-468.9686 623.2082,-475.9012"/>
</g>
<!-- Node148 -->
<g id="node18" class="node">
<title>Node148</title>
<g id="a_node18"><a xlink:href="classLSODA.html#ac94b738016b2a7c57cedd5ea4f13311f" target="_top" xlink:title="LSODA::vmnorm">
<polygon fill="none" stroke="#000000" points="1066,-367.5 1066,-386.5 1158,-386.5 1158,-367.5 1066,-367.5"/>
<text text-anchor="middle" x="1112" y="-374.5" font-family="Helvetica,sans-Serif" font-size="10.00" fill="#000000">LSODA::vmnorm</text>
</a>
</g>
</g>
<!-- Node143&#45;&gt;Node148 -->
<g id="edge17" class="edge">
<title>Node143&#45;&gt;Node148</title>
<path fill="none" stroke="#191970" d="M589.1744,-460.1007C689.2097,-455.0739 947.3294,-440.1973 1030,-417 1050.3333,-411.2945 1071.7291,-400.6822 1087.5653,-391.8217"/>
<polygon fill="#191970" stroke="#191970" points="1089.7292,-394.6144 1096.648,-386.5907 1086.2356,-388.5485 1089.7292,-394.6144"/>
</g>
<!-- Node149 -->
<g id="node19" class="node">
<title>Node149</title>
<g id="a_node19"><a xlink:href="classLSODA.html#a1ee114165850fa09fcbd0b206de560dc" target="_top" xlink:title="LSODA::intdy">
<polygon fill="none" stroke="#000000" points="646.5,-395.5 646.5,-414.5 723.5,-414.5 723.5,-395.5 646.5,-395.5"/>
<text text-anchor="middle" x="685" y="-402.5" font-family="Helvetica,sans-Serif" font-size="10.00" fill="#000000">LSODA::intdy</text>
</a>
</g>
</g>
<!-- Node143&#45;&gt;Node149 -->
<g id="edge18" class="edge">
<title>Node143&#45;&gt;Node149</title>
<path fill="none" stroke="#191970" d="M570.5495,-452.444C585.7256,-445.7631 606.5456,-436.6955 625,-429 633.5015,-425.4549 642.7212,-421.7151 651.3241,-418.2703"/>
<polygon fill="#191970" stroke="#191970" points="652.71,-421.4857 660.7038,-414.5323 650.1185,-414.9831 652.71,-421.4857"/>
</g>
<!-- Node150 -->
<g id="node20" class="node">
<title>Node150</title>
<g id="a_node20"><a xlink:href="classLSODA.html#abf4eccf92cba7f87f9d5051ee6b28a42" target="_top" xlink:title="LSODA::successreturn">
<polygon fill="none" stroke="#000000" points="626,-357.5 626,-376.5 744,-376.5 744,-357.5 626,-357.5"/>
<text text-anchor="middle" x="685" y="-364.5" font-family="Helvetica,sans-Serif" font-size="10.00" fill="#000000">LSODA::successreturn</text>
</a>
</g>
</g>
<!-- Node143&#45;&gt;Node150 -->
<g id="edge19" class="edge">
<title>Node143&#45;&gt;Node150</title>
<path fill="none" stroke="#191970" d="M556.0883,-452.3619C568.3728,-436.3205 595.1802,-404.1205 625,-386 628.4214,-383.9209 632.0925,-382.0478 635.8718,-380.3642"/>
<polygon fill="#191970" stroke="#191970" points="637.4165,-383.5163 645.4082,-376.5605 634.8231,-377.0144 637.4165,-383.5163"/>
</g>
<!-- Node151 -->
<g id="node21" class="node">
<title>Node151</title>
<g id="a_node21"><a xlink:href="classLSODA.html#a7c6d8d75b383474b5b05c710d2921618" target="_top" xlink:title="LSODA::stoda">
<polygon fill="none" stroke="#000000" points="645,-281.5 645,-300.5 725,-300.5 725,-281.5 645,-281.5"/>
<text text-anchor="middle" x="685" y="-288.5" font-family="Helvetica,sans-Serif" font-size="10.00" fill="#000000">LSODA::stoda</text>
</a>
</g>
</g>
<!-- Node143&#45;&gt;Node151 -->
<g id="edge20" class="edge">
<title>Node143&#45;&gt;Node151</title>
<path fill="none" stroke="#191970" d="M554.4421,-452.3388C566.0877,-432.0351 594.8295,-383.8548 625,-348 637.3266,-333.3511 653.0767,-318.509 665.3468,-307.6436"/>
<polygon fill="#191970" stroke="#191970" points="667.9553,-310.0133 673.2006,-300.808 663.3597,-304.7331 667.9553,-310.0133"/>
</g>
<!-- Node151&#45;&gt;Node148 -->
<g id="edge24" class="edge">
<title>Node151&#45;&gt;Node148</title>
<path fill="none" stroke="#191970" d="M695.3489,-300.5208C707.434,-311.7097 727.9437,-330.9201 745,-348 761.4391,-364.4618 759.6287,-376.8075 781,-386 877.2436,-427.3974 1004.2108,-405.2906 1069.3782,-389.1176"/>
<polygon fill="#191970" stroke="#191970" points="1070.4706,-392.451 1079.2923,-386.5835 1068.737,-385.669 1070.4706,-392.451"/>
</g>
<!-- Node152 -->
<g id="node22" class="node">
<title>Node152</title>
<g id="a_node22"><a xlink:href="classLSODA.html#a0f3b8f1c3f9e12fb89ddebfc02930b56" target="_top" xlink:title="LSODA::cfode">
<polygon fill="none" stroke="#000000" points="799.5,-357.5 799.5,-376.5 879.5,-376.5 879.5,-357.5 799.5,-357.5"/>
<text text-anchor="middle" x="839.5" y="-364.5" font-family="Helvetica,sans-Serif" font-size="10.00" fill="#000000">LSODA::cfode</text>
</a>
</g>
</g>
<!-- Node151&#45;&gt;Node152 -->
<g id="edge21" class="edge">
<title>Node151&#45;&gt;Node152</title>
<path fill="none" stroke="#191970" d="M698.781,-300.5185C716.9657,-312.7602 750.2727,-334.0961 781,-348 785.7428,-350.1461 790.8007,-352.1638 795.8817,-354.0243"/>
<polygon fill="#191970" stroke="#191970" points="795.0095,-357.4264 805.6043,-357.4005 797.3058,-350.8137 795.0095,-357.4264"/>
</g>
<!-- Node153 -->
<g id="node23" class="node">
<title>Node153</title>
<g id="a_node23"><a xlink:href="classLSODA.html#a391bc37600b2df97c24cafc6352dc4ce" target="_top" xlink:title="LSODA::resetcoeff">
<polygon fill="none" stroke="#000000" points="789.5,-319.5 789.5,-338.5 889.5,-338.5 889.5,-319.5 789.5,-319.5"/>
<text text-anchor="middle" x="839.5" y="-326.5" font-family="Helvetica,sans-Serif" font-size="10.00" fill="#000000">LSODA::resetcoeff</text>
</a>
</g>
</g>
<!-- Node151&#45;&gt;Node153 -->
<g id="edge22" class="edge">
<title>Node151&#45;&gt;Node153</title>
<path fill="none" stroke="#191970" d="M723.9869,-300.589C744.283,-305.5809 769.2935,-311.7324 790.8462,-317.0334"/>
<polygon fill="#191970" stroke="#191970" points="790.2469,-320.4902 800.7935,-319.4799 791.9188,-313.6928 790.2469,-320.4902"/>
</g>
<!-- Node154 -->
<g id="node24" class="node">
<title>Node154</title>
<g id="a_node24"><a xlink:href="classLSODA.html#acd395b8e8db2b012842c1ffd57244fd3" target="_top" xlink:title="LSODA::scaleh">
<polygon fill="none" stroke="#000000" points="797,-281.5 797,-300.5 882,-300.5 882,-281.5 797,-281.5"/>
<text text-anchor="middle" x="839.5" y="-288.5" font-family="Helvetica,sans-Serif" font-size="10.00" fill="#000000">LSODA::scaleh</text>
</a>
</g>
</g>
<!-- Node151&#45;&gt;Node154 -->
<g id="edge23" class="edge">
<title>Node151&#45;&gt;Node154</title>
<path fill="none" stroke="#191970" d="M725.1897,-291C743.9196,-291 766.4588,-291 786.5546,-291"/>
<polygon fill="#191970" stroke="#191970" points="786.8076,-294.5001 796.8076,-291 786.8076,-287.5001 786.8076,-294.5001"/>
</g>
<!-- Node155 -->
<g id="node25" class="node">
<title>Node155</title>
<g id="a_node25"><a xlink:href="classLSODA.html#ae5ebdebff330f29ef0c15bece1bf8299" target="_top" xlink:title="LSODA::correction">
<polygon fill="none" stroke="#000000" points="790,-243.5 790,-262.5 889,-262.5 889,-243.5 790,-243.5"/>
<text text-anchor="middle" x="839.5" y="-250.5" font-family="Helvetica,sans-Serif" font-size="10.00" fill="#000000">LSODA::correction</text>
</a>
</g>
</g>
<!-- Node151&#45;&gt;Node155 -->
<g id="edge25" class="edge">
<title>Node151&#45;&gt;Node155</title>
<path fill="none" stroke="#191970" d="M723.9869,-281.411C744.283,-276.4191 769.2935,-270.2676 790.8462,-264.9666"/>
<polygon fill="#191970" stroke="#191970" points="791.9188,-268.3072 800.7935,-262.5201 790.2469,-261.5098 791.9188,-268.3072"/>
</g>
<!-- Node161 -->
<g id="node29" class="node">
<title>Node161</title>
<g id="a_node29"><a xlink:href="classLSODA.html#aa81043ac776e6d6b81ae2382b03dea2a" target="_top" xlink:title="LSODA::methodswitch">
<polygon fill="none" stroke="#000000" points="781,-205.5 781,-224.5 898,-224.5 898,-205.5 781,-205.5"/>
<text text-anchor="middle" x="839.5" y="-212.5" font-family="Helvetica,sans-Serif" font-size="10.00" fill="#000000">LSODA::methodswitch</text>
</a>
</g>
</g>
<!-- Node151&#45;&gt;Node161 -->
<g id="edge31" class="edge">
<title>Node151&#45;&gt;Node161</title>
<path fill="none" stroke="#191970" d="M698.781,-281.4815C716.9657,-269.2398 750.2727,-247.9039 781,-234 785.7428,-231.8539 790.8007,-229.8362 795.8817,-227.9757"/>
<polygon fill="#191970" stroke="#191970" points="797.3058,-231.1863 805.6043,-224.5995 795.0095,-224.5736 797.3058,-231.1863"/>
</g>
<!-- Node162 -->
<g id="node30" class="node">
<title>Node162</title>
<g id="a_node30"><a xlink:href="classLSODA.html#a1d1e589364f1c4100eba1837021fc4d9" target="_top" xlink:title="LSODA::endstoda">
<polygon fill="none" stroke="#000000" points="791.5,-167.5 791.5,-186.5 887.5,-186.5 887.5,-167.5 791.5,-167.5"/>
<text text-anchor="middle" x="839.5" y="-174.5" font-family="Helvetica,sans-Serif" font-size="10.00" fill="#000000">LSODA::endstoda</text>
</a>
</g>
</g>
<!-- Node151&#45;&gt;Node162 -->
<g id="edge32" class="edge">
<title>Node151&#45;&gt;Node162</title>
<path fill="none" stroke="#191970" d="M692.103,-281.4403C706.6899,-262.4559 741.9507,-219.7858 781,-196 784.3914,-193.9342 788.032,-192.0676 791.7778,-190.386"/>
<polygon fill="#191970" stroke="#191970" points="793.2569,-193.5635 801.2234,-186.5788 790.64,-187.0711 793.2569,-193.5635"/>
</g>
<!-- Node163 -->
<g id="node31" class="node">
<title>Node163</title>
<g id="a_node31"><a xlink:href="classLSODA.html#a0fae42ed968227524b320ab5d3470665" target="_top" xlink:title="LSODA::orderswitch">
<polygon fill="none" stroke="#000000" points="786,-129.5 786,-148.5 893,-148.5 893,-129.5 786,-129.5"/>
<text text-anchor="middle" x="839.5" y="-136.5" font-family="Helvetica,sans-Serif" font-size="10.00" fill="#000000">LSODA::orderswitch</text>
</a>
</g>
</g>
<!-- Node151&#45;&gt;Node163 -->
<g id="edge33" class="edge">
<title>Node151&#45;&gt;Node163</title>
<path fill="none" stroke="#191970" d="M689.295,-281.3615C700.6427,-256.9863 733.8227,-192.3841 781,-158 783.6321,-156.0817 786.4673,-154.3508 789.42,-152.7898"/>
<polygon fill="#191970" stroke="#191970" points="790.9177,-155.9535 798.5446,-148.5995 787.9964,-149.5922 790.9177,-155.9535"/>
</g>
<!-- Node155&#45;&gt;Node148 -->
<g id="edge29" class="edge">
<title>Node155&#45;&gt;Node148</title>
<path fill="none" stroke="#191970" d="M880.0892,-262.5628C886.4058,-265.0497 892.6141,-268.1496 898,-272 919.6931,-287.5087 912.2749,-304.5361 934,-320 970.1248,-345.7136 1018.4023,-360.217 1055.5649,-368.1514"/>
<polygon fill="#191970" stroke="#191970" points="1055.2357,-371.656 1065.7326,-370.219 1056.6306,-364.7964 1055.2357,-371.656"/>
</g>
<!-- Node156 -->
<g id="node26" class="node">
<title>Node156</title>
<g id="a_node26"><a xlink:href="classLSODA.html#a87757b30f48356ff9c77bf587ebb16d8" target="_top" xlink:title="LSODA::prja">
<polygon fill="none" stroke="#ff0000" points="946,-291.5 946,-310.5 1018,-310.5 1018,-291.5 946,-291.5"/>
<text text-anchor="middle" x="982" y="-298.5" font-family="Helvetica,sans-Serif" font-size="10.00" fill="#000000">LSODA::prja</text>
</a>
</g>
</g>
<!-- Node155&#45;&gt;Node156 -->
<g id="edge26" class="edge">
<title>Node155&#45;&gt;Node156</title>
<path fill="none" stroke="#191970" d="M869.2953,-262.5602C878.5093,-265.548 888.6845,-268.8795 898,-272 913.4519,-277.1761 930.4528,-283.0178 945.0941,-288.0946"/>
<polygon fill="#191970" stroke="#191970" points="944.2105,-291.4928 954.8053,-291.4696 946.5085,-284.8807 944.2105,-291.4928"/>
</g>
<!-- Node159 -->
<g id="node27" class="node">
<title>Node159</title>
<g id="a_node27"><a xlink:href="classLSODA.html#ac7effc5da52973a91cb3409012f172e7" target="_top" xlink:title="LSODA::corfailure">
<polygon fill="none" stroke="#000000" points="934,-248.5 934,-267.5 1030,-267.5 1030,-248.5 934,-248.5"/>
<text text-anchor="middle" x="982" y="-255.5" font-family="Helvetica,sans-Serif" font-size="10.00" fill="#000000">LSODA::corfailure</text>
</a>
</g>
</g>
<!-- Node155&#45;&gt;Node159 -->
<g id="edge28" class="edge">
<title>Node155&#45;&gt;Node159</title>
<path fill="none" stroke="#191970" d="M889.3396,-254.7488C900.4004,-255.1369 912.22,-255.5516 923.5887,-255.9505"/>
<polygon fill="#191970" stroke="#191970" points="923.7512,-259.4582 933.8678,-256.3111 923.9967,-252.4625 923.7512,-259.4582"/>
</g>
<!-- Node160 -->
<g id="node28" class="node">
<title>Node160</title>
<g id="a_node28"><a xlink:href="classLSODA.html#a5476113f8738e733652f1f6b02eaba3b" target="_top" xlink:title="LSODA::solsy">
<polygon fill="none" stroke="#000000" points="942,-210.5 942,-229.5 1022,-229.5 1022,-210.5 942,-210.5"/>
<text text-anchor="middle" x="982" y="-217.5" font-family="Helvetica,sans-Serif" font-size="10.00" fill="#000000">LSODA::solsy</text>
</a>
</g>
</g>
<!-- Node155&#45;&gt;Node160 -->
<g id="edge30" class="edge">
<title>Node155&#45;&gt;Node160</title>
<path fill="none" stroke="#191970" d="M880.7169,-243.455C896.6454,-239.7663 915.0252,-235.51 931.719,-231.644"/>
<polygon fill="#191970" stroke="#191970" points="932.9058,-234.9619 941.8583,-229.296 931.3265,-228.1424 932.9058,-234.9619"/>
</g>
<!-- Node156&#45;&gt;Node148 -->
<g id="edge27" class="edge">
<title>Node156&#45;&gt;Node148</title>
<path fill="none" stroke="#191970" d="M998.4646,-310.6255C1020.7356,-323.6454 1060.6683,-346.9907 1086.7465,-362.2364"/>
<polygon fill="#191970" stroke="#191970" points="1085.2697,-365.4272 1095.6691,-367.4527 1088.8026,-359.3841 1085.2697,-365.4272"/>
</g>
<!-- Node169 -->
<g id="node37" class="node">
<title>Node169</title>
<g id="a_node37"><a xlink:href="classSpecies__Base.html#aa6880c6f5c8ff125cab4d1195dedfb13" target="_top" xlink:title="Species_Base::getX">
<polygon fill="none" stroke="#000000" points="343.5,-338.5 343.5,-357.5 449.5,-357.5 449.5,-338.5 343.5,-338.5"/>
<text text-anchor="middle" x="396.5" y="-345.5" font-family="Helvetica,sans-Serif" font-size="10.00" fill="#000000">Species_Base::getX</text>
</a>
</g>
</g>
<!-- Node168&#45;&gt;Node169 -->
<g id="edge39" class="edge">
<title>Node168&#45;&gt;Node169</title>
<path fill="none" stroke="#191970" d="M261.3761,-278.0812C269.293,-280.615 277.0594,-283.8556 284,-288 304.8204,-300.4323 299.2866,-316.3903 320,-329 324.3451,-331.6451 329.0412,-333.9227 333.8949,-335.8837"/>
<polygon fill="#191970" stroke="#191970" points="332.7775,-339.2011 343.372,-339.2779 335.1378,-332.611 332.7775,-339.2011"/>
</g>
<!-- Node170 -->
<g id="node38" class="node">
<title>Node170</title>
<g id="a_node38"><a xlink:href="classSpecies__Base.html#ad412522fc071525a19f95609880b20ff" target="_top" xlink:title="Species_Base::getU">
<polygon fill="none" stroke="#000000" points="343,-300.5 343,-319.5 450,-319.5 450,-300.5 343,-300.5"/>
<text text-anchor="middle" x="396.5" y="-307.5" font-family="Helvetica,sans-Serif" font-size="10.00" fill="#000000">Species_Base::getU</text>
</a>
</g>
</g>
<!-- Node168&#45;&gt;Node170 -->
<g id="edge40" class="edge">
<title>Node168&#45;&gt;Node170</title>
<path fill="none" stroke="#191970" d="M246.7271,-278.5093C274.9292,-284.439 311.4156,-292.1105 341.3151,-298.397"/>
<polygon fill="#191970" stroke="#191970" points="340.6747,-301.8388 351.1809,-300.4714 342.115,-294.9886 340.6747,-301.8388"/>
</g>
<!-- Node171 -->
<g id="node39" class="node">
<title>Node171</title>
<g id="a_node39"><a xlink:href="classSpecies__Base.html#ad68f257218879207e9f6ed4cf3bd7eef" target="_top" xlink:title="Species_Base::growthRate\lGradient">
<polygon fill="none" stroke="#000000" points="328.5,-251 328.5,-281 464.5,-281 464.5,-251 328.5,-251"/>
<text text-anchor="start" x="336.5" y="-269" font-family="Helvetica,sans-Serif" font-size="10.00" fill="#000000">Species_Base::growthRate</text>
<text text-anchor="middle" x="396.5" y="-258" font-family="Helvetica,sans-Serif" font-size="10.00" fill="#000000">Gradient</text>
</a>
</g>
</g>
<!-- Node168&#45;&gt;Node171 -->
<g id="edge41" class="edge">
<title>Node168&#45;&gt;Node171</title>
<path fill="none" stroke="#191970" d="M261.066,-268.0836C279.1047,-267.8061 299.1959,-267.497 318.2633,-267.2036"/>
<polygon fill="#191970" stroke="#191970" points="318.4819,-270.7008 328.4268,-267.0473 318.3741,-263.7016 318.4819,-270.7008"/>
</g>
<!-- Node172 -->
<g id="node40" class="node">
<title>Node172</title>
<g id="a_node40"><a xlink:href="classSpecies__Base.html#a83ff45fc4f334241eeae08d523d343b5" target="_top" xlink:title="Species_Base::mortalityRate\lGradient">
<polygon fill="none" stroke="#000000" points="324.5,-202 324.5,-232 468.5,-232 468.5,-202 324.5,-202"/>
<text text-anchor="start" x="332.5" y="-220" font-family="Helvetica,sans-Serif" font-size="10.00" fill="#000000">Species_Base::mortalityRate</text>
<text text-anchor="middle" x="396.5" y="-209" font-family="Helvetica,sans-Serif" font-size="10.00" fill="#000000">Gradient</text>
</a>
</g>
</g>
<!-- Node168&#45;&gt;Node172 -->
<g id="edge42" class="edge">
<title>Node168&#45;&gt;Node172</title>
<path fill="none" stroke="#191970" d="M245.2897,-259.4207C257.828,-256.5411 271.4869,-253.2731 284,-250 301.531,-245.4143 320.4743,-240.0271 337.7276,-234.9505"/>
<polygon fill="#191970" stroke="#191970" points="339.0734,-238.2022 347.6673,-232.0057 337.085,-231.4905 339.0734,-238.2022"/>
</g>
<!-- Node173 -->
<g id="node41" class="node">
<title>Node173</title>
<g id="a_node41"><a xlink:href="classSpecies__Base.html#aad4cefae53644171dfcd12639d2e0e63" target="_top" xlink:title="Species_Base::establishment\lProbability">
<polygon fill="none" stroke="#000000" points="323.5,-153 323.5,-183 469.5,-183 469.5,-153 323.5,-153"/>
<text text-anchor="start" x="331.5" y="-171" font-family="Helvetica,sans-Serif" font-size="10.00" fill="#000000">Species_Base::establishment</text>
<text text-anchor="middle" x="396.5" y="-160" font-family="Helvetica,sans-Serif" font-size="10.00" fill="#000000">Probability</text>
</a>
</g>
</g>
<!-- Node168&#45;&gt;Node173 -->
<g id="edge43" class="edge">
<title>Node168&#45;&gt;Node173</title>
<path fill="none" stroke="#191970" d="M261.1637,-261.1925C269.2861,-258.4771 277.1665,-254.8467 284,-250 308.4397,-232.6657 296.3602,-211.4102 320,-193 322.3253,-191.1891 324.7869,-189.5068 327.3463,-187.9444"/>
<polygon fill="#191970" stroke="#191970" points="329.2281,-190.9062 336.3703,-183.0807 325.9069,-184.7442 329.2281,-190.9062"/>
</g>
<!-- Node174 -->
<g id="node42" class="node">
<title>Node174</title>
<g id="a_node42"><a xlink:href="classSpecies__Base.html#a6759c877ef7531a835326dcc11adb2c2" target="_top" xlink:title="Species_Base::get_u0">
<polygon fill="none" stroke="#000000" points="339,-114.5 339,-133.5 454,-133.5 454,-114.5 339,-114.5"/>
<text text-anchor="middle" x="396.5" y="-121.5" font-family="Helvetica,sans-Serif" font-size="10.00" fill="#000000">Species_Base::get_u0</text>
</a>
</g>
</g>
<!-- Node168&#45;&gt;Node174 -->
<g id="edge44" class="edge">
<title>Node168&#45;&gt;Node174</title>
<path fill="none" stroke="#191970" d="M261.0231,-263.04C269.4496,-260.0978 277.4573,-255.9129 284,-250 320.9132,-216.6402 283.5805,-177.898 320,-144 322.9675,-141.238 326.2683,-138.8471 329.7861,-136.7784"/>
<polygon fill="#191970" stroke="#191970" points="331.4945,-139.8383 338.9109,-132.2721 328.3949,-133.5619 331.4945,-139.8383"/>
</g>
<!-- Node175 -->
<g id="node43" class="node">
<title>Node175</title>
<g id="a_node43"><a xlink:href="classSpecies__Base.html#abe98e190e76cfd39eee7ef3d30141d53" target="_top" xlink:title="Species_Base::growthRate">
<polygon fill="none" stroke="#000000" points="328.5,-76.5 328.5,-95.5 464.5,-95.5 464.5,-76.5 328.5,-76.5"/>
<text text-anchor="middle" x="396.5" y="-83.5" font-family="Helvetica,sans-Serif" font-size="10.00" fill="#000000">Species_Base::growthRate</text>
</a>
</g>
</g>
<!-- Node168&#45;&gt;Node175 -->
<g id="edge45" class="edge">
<title>Node168&#45;&gt;Node175</title>
<path fill="none" stroke="#191970" d="M261.0512,-263.6632C269.5759,-260.6545 277.6066,-256.2856 284,-250 331.3499,-203.4482 273.0494,-151.9546 320,-105 321.2972,-103.7027 322.6684,-102.4891 324.1021,-101.3541"/>
<polygon fill="#191970" stroke="#191970" points="326.407,-104.0329 332.9199,-95.6763 322.6172,-98.1475 326.407,-104.0329"/>
</g>
<!-- Node176 -->
<g id="node44" class="node">
<title>Node176</title>
<g id="a_node44"><a xlink:href="classSpecies__Base.html#a59ab3c647c48a819f1911957e5724d5e" target="_top" xlink:title="Species_Base::mortalityRate">
<polygon fill="none" stroke="#000000" points="324.5,-38.5 324.5,-57.5 468.5,-57.5 468.5,-38.5 324.5,-38.5"/>
<text text-anchor="middle" x="396.5" y="-45.5" font-family="Helvetica,sans-Serif" font-size="10.00" fill="#000000">Species_Base::mortalityRate</text>
</a>
</g>
</g>
<!-- Node168&#45;&gt;Node176 -->
<g id="edge46" class="edge">
<title>Node168&#45;&gt;Node176</title>
<path fill="none" stroke="#191970" d="M261.3232,-263.9332C269.814,-260.8908 277.7629,-256.4407 284,-250 341.6649,-190.4528 262.8458,-127.0376 320,-67 321.2325,-65.7053 322.5385,-64.4932 323.9071,-63.3588"/>
<polygon fill="#191970" stroke="#191970" points="326.013,-66.1604 332.3566,-57.6746 322.1057,-60.3523 326.013,-66.1604"/>
</g>
<!-- Node177 -->
<g id="node45" class="node">
<title>Node177</title>
<g id="a_node45"><a xlink:href="classSpecies__Base.html#a1c47d1905fa4da0a1f203f641f6ed2af" target="_top" xlink:title="Species_Base::getExtraRates">
<polygon fill="none" stroke="#000000" points="322,-.5 322,-19.5 471,-19.5 471,-.5 322,-.5"/>
<text text-anchor="middle" x="396.5" y="-7.5" font-family="Helvetica,sans-Serif" font-size="10.00" fill="#000000">Species_Base::getExtraRates</text>
</a>
</g>
</g>
<!-- Node168&#45;&gt;Node177 -->
<g id="edge47" class="edge">
<title>Node168&#45;&gt;Node177</title>
<path fill="none" stroke="#191970" d="M261.0914,-264.2591C269.7167,-261.1922 277.7688,-256.6492 284,-250 352.0497,-177.3857 252.573,-102.193 320,-29 321.2112,-27.6853 322.4979,-26.4552 323.8493,-25.3047"/>
<polygon fill="#191970" stroke="#191970" points="325.9645,-28.0979 332.2213,-19.5479 321.9983,-22.33 325.9645,-28.0979"/>
</g>
</g>
</svg>
