<?xml version="1.0" encoding="UTF-8" standalone="no"?>
<!DOCTYPE svg PUBLIC "-//W3C//DTD SVG 1.1//EN"
 "http://www.w3.org/Graphics/SVG/1.1/DTD/svg11.dtd">
<!-- Generated by graphviz version 2.40.1 (20161225.0304)
 -->
<!-- Title: OdeSolver::reset Pages: 1 -->
<svg width="248pt" height="66pt"
 viewBox="0.00 0.00 248.00 66.00" xmlns="http://www.w3.org/2000/svg" xmlns:xlink="http://www.w3.org/1999/xlink">
<g id="graph0" class="graph" transform="scale(1 1) rotate(0) translate(4 62)">
<title>OdeSolver::reset</title>
<!-- Node8 -->
<g id="node1" class="node">
<title>Node8</title>
<polygon fill="#bfbfbf" stroke="#000000" points="0,-19.5 0,-38.5 90,-38.5 90,-19.5 0,-19.5"/>
<text text-anchor="middle" x="45" y="-26.5" font-family="Helvetica,sans-Serif" font-size="10.00" fill="#000000">OdeSolver::reset</text>
</g>
<!-- Node9 -->
<g id="node2" class="node">
<title>Node9</title>
<g id="a_node2"><a xlink:href="classOdeSolver.html#ae8e744addd5025ca790671750084828f" target="_top" xlink:title="OdeSolver::OdeSolver">
<polygon fill="none" stroke="#000000" points="126,-38.5 126,-57.5 240,-57.5 240,-38.5 126,-38.5"/>
<text text-anchor="middle" x="183" y="-45.5" font-family="Helvetica,sans-Serif" font-size="10.00" fill="#000000">OdeSolver::OdeSolver</text>
</a>
</g>
</g>
<!-- Node8&#45;&gt;Node9 -->
<g id="edge1" class="edge">
<title>Node8&#45;&gt;Node9</title>
<path fill="none" stroke="#191970" d="M100.2118,-36.6016C108.574,-37.7529 117.2178,-38.943 125.6246,-40.1005"/>
<polygon fill="#191970" stroke="#191970" points="100.5703,-33.118 90.1864,-35.2213 99.6155,-40.0526 100.5703,-33.118"/>
</g>
<!-- Node10 -->
<g id="node3" class="node">
<title>Node10</title>
<g id="a_node3"><a xlink:href="classSolver.html#ab96a5a58ead6c525a4f74c2e793b9cd3" target="_top" xlink:title="Solver::resetState">
<polygon fill="none" stroke="#000000" points="135.5,-.5 135.5,-19.5 230.5,-19.5 230.5,-.5 135.5,-.5"/>
<text text-anchor="middle" x="183" y="-7.5" font-family="Helvetica,sans-Serif" font-size="10.00" fill="#000000">Solver::resetState</text>
</a>
</g>
</g>
<!-- Node8&#45;&gt;Node10 -->
<g id="edge2" class="edge">
<title>Node8&#45;&gt;Node10</title>
<path fill="none" stroke="#191970" d="M100.2271,-21.3963C111.8519,-19.7958 124.0204,-18.1204 135.3392,-16.562"/>
<polygon fill="#191970" stroke="#191970" points="99.6155,-17.9474 90.1864,-22.7787 100.5703,-24.882 99.6155,-17.9474"/>
</g>
</g>
</svg>
