<?xml version="1.0" encoding="UTF-8" standalone="no"?>
<!DOCTYPE svg PUBLIC "-//W3C//DTD SVG 1.1//EN"
 "http://www.w3.org/Graphics/SVG/1.1/DTD/svg11.dtd">
<!-- Generated by graphviz version 2.40.1 (20161225.0304)
 -->
<!-- Title: RKCK45::size Pages: 1 -->
<svg width="470pt" height="85pt"
 viewBox="0.00 0.00 470.00 85.00" xmlns="http://www.w3.org/2000/svg" xmlns:xlink="http://www.w3.org/1999/xlink">
<g id="graph0" class="graph" transform="scale(1 1) rotate(0) translate(4 81)">
<title>RKCK45::size</title>
<!-- Node68 -->
<g id="node1" class="node">
<title>Node68</title>
<polygon fill="#bfbfbf" stroke="#000000" points="0,-19.5 0,-38.5 80,-38.5 80,-19.5 0,-19.5"/>
<text text-anchor="middle" x="40" y="-26.5" font-family="Helvetica,sans-Serif" font-size="10.00" fill="#000000">RKCK45::size</text>
</g>
<!-- Node69 -->
<g id="node2" class="node">
<title>Node69</title>
<g id="a_node2"><a xlink:href="classRKCK45.html#a9ce8515e634e6937f8587d280d18d18a" target="_top" xlink:title="RKCK45::RKStep">
<polygon fill="none" stroke="#000000" points="116,-38.5 116,-57.5 212,-57.5 212,-38.5 116,-38.5"/>
<text text-anchor="middle" x="164" y="-45.5" font-family="Helvetica,sans-Serif" font-size="10.00" fill="#000000">RKCK45::RKStep</text>
</a>
</g>
</g>
<!-- Node68&#45;&gt;Node69 -->
<g id="edge1" class="edge">
<title>Node68&#45;&gt;Node69</title>
<path fill="none" stroke="#191970" d="M80.2592,-35.1688C88.3917,-36.4149 97.0956,-37.7485 105.7039,-39.0675"/>
<polygon fill="#191970" stroke="#191970" points="105.3107,-42.5481 115.7255,-40.6031 106.371,-35.6288 105.3107,-42.5481"/>
</g>
<!-- Node71 -->
<g id="node4" class="node">
<title>Node71</title>
<g id="a_node4"><a xlink:href="classRKCK45.html#ab304a56995de997c15d992f5665b94e5" target="_top" xlink:title="RKCK45::RKTry">
<polygon fill="none" stroke="#000000" points="248,-19.5 248,-38.5 338,-38.5 338,-19.5 248,-19.5"/>
<text text-anchor="middle" x="293" y="-26.5" font-family="Helvetica,sans-Serif" font-size="10.00" fill="#000000">RKCK45::RKTry</text>
</a>
</g>
</g>
<!-- Node68&#45;&gt;Node71 -->
<g id="edge7" class="edge">
<title>Node68&#45;&gt;Node71</title>
<path fill="none" stroke="#191970" d="M80.0886,-29C122.6661,-29 190.2613,-29 237.8449,-29"/>
<polygon fill="#191970" stroke="#191970" points="237.9783,-32.5001 247.9783,-29 237.9782,-25.5001 237.9783,-32.5001"/>
</g>
<!-- Node70 -->
<g id="node3" class="node">
<title>Node70</title>
<g id="a_node3"><a xlink:href="classRKCK45.html#ad30346cd92d32df6663deb6d0f4619a5" target="_top" xlink:title="RKCK45::h">
<polygon fill="none" stroke="#000000" points="259.5,-57.5 259.5,-76.5 326.5,-76.5 326.5,-57.5 259.5,-57.5"/>
<text text-anchor="middle" x="293" y="-64.5" font-family="Helvetica,sans-Serif" font-size="10.00" fill="#000000">RKCK45::h</text>
</a>
</g>
</g>
<!-- Node69&#45;&gt;Node70 -->
<g id="edge2" class="edge">
<title>Node69&#45;&gt;Node70</title>
<path fill="none" stroke="#191970" d="M212.0348,-55.0749C224.2238,-56.8702 237.2535,-58.7893 249.2188,-60.5516"/>
<polygon fill="#191970" stroke="#191970" points="249.0087,-64.0583 259.412,-62.0529 250.0288,-57.1331 249.0087,-64.0583"/>
</g>
<!-- Node69&#45;&gt;Node71 -->
<g id="edge3" class="edge">
<title>Node69&#45;&gt;Node71</title>
<path fill="none" stroke="#191970" d="M190.7289,-38.4705C204.3574,-35.5128 221.4597,-32.6289 237.7568,-30.4488"/>
<polygon fill="#191970" stroke="#191970" points="238.2778,-33.9109 247.7617,-29.188 237.4026,-26.9658 238.2778,-33.9109"/>
</g>
<!-- Node71&#45;&gt;Node69 -->
<g id="edge6" class="edge">
<title>Node71&#45;&gt;Node69</title>
<path fill="none" stroke="#191970" d="M266.2711,-38.5295C253.4277,-41.3168 237.4993,-44.0386 222.067,-46.1676"/>
<polygon fill="#191970" stroke="#191970" points="221.4983,-42.712 212.0348,-47.4757 222.4035,-49.6532 221.4983,-42.712"/>
</g>
<!-- Node72 -->
<g id="node5" class="node">
<title>Node72</title>
<g id="a_node5"><a xlink:href="classRKCK45.html#ac38757c7ff000b18a23c5938d8346e17" target="_top" xlink:title="RKCK45::Step">
<polygon fill="none" stroke="#000000" points="377,-38.5 377,-57.5 459,-57.5 459,-38.5 377,-38.5"/>
<text text-anchor="middle" x="418" y="-45.5" font-family="Helvetica,sans-Serif" font-size="10.00" fill="#000000">RKCK45::Step</text>
</a>
</g>
</g>
<!-- Node71&#45;&gt;Node72 -->
<g id="edge4" class="edge">
<title>Node71&#45;&gt;Node72</title>
<path fill="none" stroke="#191970" d="M338.1279,-35.8594C347.3719,-37.2645 357.1667,-38.7533 366.6116,-40.189"/>
<polygon fill="#191970" stroke="#191970" points="366.2681,-43.6769 376.6805,-41.7194 367.3201,-36.7564 366.2681,-43.6769"/>
</g>
<!-- Node73 -->
<g id="node6" class="node">
<title>Node73</title>
<g id="a_node6"><a xlink:href="classRKCK45.html#af7ed85b9bd7f3aee9779517c9a885b39" target="_top" xlink:title="RKCK45::resize">
<polygon fill="none" stroke="#000000" points="374,-.5 374,-19.5 462,-19.5 462,-.5 374,-.5"/>
<text text-anchor="middle" x="418" y="-7.5" font-family="Helvetica,sans-Serif" font-size="10.00" fill="#000000">RKCK45::resize</text>
</a>
</g>
</g>
<!-- Node71&#45;&gt;Node73 -->
<g id="edge5" class="edge">
<title>Node71&#45;&gt;Node73</title>
<path fill="none" stroke="#191970" d="M338.1279,-22.1406C346.4715,-20.8723 355.2639,-19.5359 363.8427,-18.2319"/>
<polygon fill="#191970" stroke="#191970" points="364.4153,-21.6852 373.7758,-16.7221 363.3633,-14.7647 364.4153,-21.6852"/>
</g>
</g>
</svg>
