<?xml version="1.0" encoding="UTF-8" standalone="no"?>
<!DOCTYPE svg PUBLIC "-//W3C//DTD SVG 1.1//EN"
 "http://www.w3.org/Graphics/SVG/1.1/DTD/svg11.dtd">
<!-- Generated by graphviz version 2.40.1 (20161225.0304)
 -->
<!-- Title: Species_Base::calc_boundary_u Pages: 1 -->
<svg width="508pt" height="142pt"
 viewBox="0.00 0.00 508.00 142.00" xmlns="http://www.w3.org/2000/svg" xmlns:xlink="http://www.w3.org/1999/xlink">
<g id="graph0" class="graph" transform="scale(1 1) rotate(0) translate(4 138)">
<title>Species_Base::calc_boundary_u</title>
<!-- Node11 -->
<g id="node1" class="node">
<title>Node11</title>
<polygon fill="#bfbfbf" stroke="#000000" points="0,-52 0,-82 104,-82 104,-52 0,-52"/>
<text text-anchor="start" x="8" y="-70" font-family="Helvetica,sans-Serif" font-size="10.00" fill="#000000">Species_Base::calc</text>
<text text-anchor="middle" x="52" y="-59" font-family="Helvetica,sans-Serif" font-size="10.00" fill="#000000">_boundary_u</text>
</g>
<!-- Node12 -->
<g id="node2" class="node">
<title>Node12</title>
<g id="a_node2"><a xlink:href="classSolver.html#ab712f582d6f785adb8620cb40bbb3de4" target="_top" xlink:title="Solver::calcRates_CM">
<polygon fill="none" stroke="#000000" points="143,-114.5 143,-133.5 259,-133.5 259,-114.5 143,-114.5"/>
<text text-anchor="middle" x="201" y="-121.5" font-family="Helvetica,sans-Serif" font-size="10.00" fill="#000000">Solver::calcRates_CM</text>
</a>
</g>
</g>
<!-- Node11&#45;&gt;Node12 -->
<g id="edge1" class="edge">
<title>Node11&#45;&gt;Node12</title>
<path fill="none" stroke="#191970" d="M93.8797,-86.1576C108.3557,-92.4918 124.7669,-99.3566 140,-105 149.0491,-108.3524 158.9928,-111.6206 168.1779,-114.4746"/>
<polygon fill="#191970" stroke="#191970" points="95.2395,-82.932 84.6782,-82.0899 92.4092,-89.3343 95.2395,-82.932"/>
</g>
<!-- Node15 -->
<g id="node5" class="node">
<title>Node15</title>
<g id="a_node5"><a xlink:href="classSolver.html#a23be16428b7ba399bfd2f06555547f6b" target="_top" xlink:title="Solver::calcRates_EBT">
<polygon fill="none" stroke="#000000" points="141.5,-76.5 141.5,-95.5 260.5,-95.5 260.5,-76.5 141.5,-76.5"/>
<text text-anchor="middle" x="201" y="-83.5" font-family="Helvetica,sans-Serif" font-size="10.00" fill="#000000">Solver::calcRates_EBT</text>
</a>
</g>
</g>
<!-- Node11&#45;&gt;Node15 -->
<g id="edge4" class="edge">
<title>Node11&#45;&gt;Node15</title>
<path fill="none" stroke="#191970" d="M114.12,-74.9213C123.1019,-76.0667 132.3308,-77.2435 141.2646,-78.3827"/>
<polygon fill="#191970" stroke="#191970" points="114.4754,-71.4384 104.113,-73.6453 113.5899,-78.3822 114.4754,-71.4384"/>
</g>
<!-- Node16 -->
<g id="node6" class="node">
<title>Node16</title>
<g id="a_node6"><a xlink:href="classSolver.html#a2ea9fb6abc4ffd5ac28154332029da40" target="_top" xlink:title="Solver::calcRates_FMU">
<polygon fill="none" stroke="#000000" points="140,-38.5 140,-57.5 262,-57.5 262,-38.5 140,-38.5"/>
<text text-anchor="middle" x="201" y="-45.5" font-family="Helvetica,sans-Serif" font-size="10.00" fill="#000000">Solver::calcRates_FMU</text>
</a>
</g>
</g>
<!-- Node11&#45;&gt;Node16 -->
<g id="edge6" class="edge">
<title>Node11&#45;&gt;Node16</title>
<path fill="none" stroke="#191970" d="M114.045,-59.0882C122.6183,-57.995 131.4182,-56.8729 139.9728,-55.782"/>
<polygon fill="#191970" stroke="#191970" points="113.5899,-55.6178 104.113,-60.3547 114.4754,-62.5616 113.5899,-55.6178"/>
</g>
<!-- Node17 -->
<g id="node7" class="node">
<title>Node17</title>
<g id="a_node7"><a xlink:href="classSolver.html#a8f96f44ff535452912b2a3a2fc43e60e" target="_top" xlink:title="Solver::stepU_iFMU">
<polygon fill="none" stroke="#000000" points="148,-.5 148,-19.5 254,-19.5 254,-.5 148,-.5"/>
<text text-anchor="middle" x="201" y="-7.5" font-family="Helvetica,sans-Serif" font-size="10.00" fill="#000000">Solver::stepU_iFMU</text>
</a>
</g>
</g>
<!-- Node11&#45;&gt;Node17 -->
<g id="edge8" class="edge">
<title>Node11&#45;&gt;Node17</title>
<path fill="none" stroke="#191970" d="M93.8797,-47.8424C108.3557,-41.5082 124.7669,-34.6434 140,-29 149.0491,-25.6476 158.9928,-22.3794 168.1779,-19.5254"/>
<polygon fill="#191970" stroke="#191970" points="92.4092,-44.6657 84.6782,-51.9101 95.2395,-51.068 92.4092,-44.6657"/>
</g>
<!-- Node13 -->
<g id="node3" class="node">
<title>Node13</title>
<g id="a_node3"><a xlink:href="classSolver.html#af4c8f6565df94ed6a058a224196b9c2b" target="_top" xlink:title="Solver::step_to">
<polygon fill="none" stroke="#000000" points="298,-57.5 298,-76.5 381,-76.5 381,-57.5 298,-57.5"/>
<text text-anchor="middle" x="339.5" y="-64.5" font-family="Helvetica,sans-Serif" font-size="10.00" fill="#000000">Solver::step_to</text>
</a>
</g>
</g>
<!-- Node12&#45;&gt;Node13 -->
<g id="edge2" class="edge">
<title>Node12&#45;&gt;Node13</title>
<path fill="none" stroke="#191970" d="M244.6696,-111.2975C250.545,-109.3272 256.4545,-107.208 262,-105 283.1618,-96.5743 306.5158,-84.7577 321.9983,-76.5472"/>
<polygon fill="#191970" stroke="#191970" points="243.322,-108.0548 234.8841,-114.4621 245.4759,-114.7151 243.322,-108.0548"/>
</g>
<!-- Node14 -->
<g id="node4" class="node">
<title>Node14</title>
<g id="a_node4"><a xlink:href="classSolver.html#a06cf82d0a99490279ab20d2ad6b876db" target="_top" xlink:title="Solver::step_to">
<polygon fill="none" stroke="#000000" points="417,-57.5 417,-76.5 500,-76.5 500,-57.5 417,-57.5"/>
<text text-anchor="middle" x="458.5" y="-64.5" font-family="Helvetica,sans-Serif" font-size="10.00" fill="#000000">Solver::step_to</text>
</a>
</g>
</g>
<!-- Node13&#45;&gt;Node14 -->
<g id="edge3" class="edge">
<title>Node13&#45;&gt;Node14</title>
<path fill="none" stroke="#191970" d="M391.3174,-67C399.8022,-67 408.499,-67 416.7019,-67"/>
<polygon fill="#191970" stroke="#191970" points="391.1205,-63.5001 381.1204,-67 391.1204,-70.5001 391.1205,-63.5001"/>
</g>
<!-- Node15&#45;&gt;Node13 -->
<g id="edge5" class="edge">
<title>Node15&#45;&gt;Node13</title>
<path fill="none" stroke="#191970" d="M270.6498,-76.4452C279.9926,-75.1635 289.3257,-73.8831 297.9689,-72.6974"/>
<polygon fill="#191970" stroke="#191970" points="269.9717,-73.0053 260.5402,-77.832 270.9232,-79.9404 269.9717,-73.0053"/>
</g>
<!-- Node16&#45;&gt;Node13 -->
<g id="edge7" class="edge">
<title>Node16&#45;&gt;Node13</title>
<path fill="none" stroke="#191970" d="M272.0629,-57.7487C280.8539,-58.9547 289.6059,-60.1553 297.7517,-61.2728"/>
<polygon fill="#191970" stroke="#191970" points="272.5342,-54.2807 262.1513,-56.389 271.5828,-61.2157 272.5342,-54.2807"/>
</g>
<!-- Node17&#45;&gt;Node13 -->
<g id="edge9" class="edge">
<title>Node17&#45;&gt;Node13</title>
<path fill="none" stroke="#191970" d="M244.6696,-22.7025C250.545,-24.6728 256.4545,-26.792 262,-29 283.1618,-37.4257 306.5158,-49.2423 321.9983,-57.4528"/>
<polygon fill="#191970" stroke="#191970" points="245.4759,-19.2849 234.8841,-19.5379 243.322,-25.9452 245.4759,-19.2849"/>
</g>
</g>
</svg>
