<?xml version="1.0" encoding="UTF-8" standalone="no"?>
<!DOCTYPE svg PUBLIC "-//W3C//DTD SVG 1.1//EN"
 "http://www.w3.org/Graphics/SVG/1.1/DTD/svg11.dtd">
<!-- Generated by graphviz version 2.40.1 (20161225.0304)
 -->
<!-- Title: LSODA::stoda Pages: 1 -->
<svg width="729pt" height="28pt"
 viewBox="0.00 0.00 729.00 28.00" xmlns="http://www.w3.org/2000/svg" xmlns:xlink="http://www.w3.org/1999/xlink">
<g id="graph0" class="graph" transform="scale(1 1) rotate(0) translate(4 24)">
<title>LSODA::stoda</title>
<!-- Node232 -->
<g id="node1" class="node">
<title>Node232</title>
<polygon fill="#bfbfbf" stroke="#000000" points="0,-.5 0,-19.5 80,-19.5 80,-.5 0,-.5"/>
<text text-anchor="middle" x="40" y="-7.5" font-family="Helvetica,sans-Serif" font-size="10.00" fill="#000000">LSODA::stoda</text>
</g>
<!-- Node233 -->
<g id="node2" class="node">
<title>Node233</title>
<g id="a_node2"><a xlink:href="classLSODA.html#a705dcfe5b21827adb8871e48f2c72fb2" target="_top" xlink:title="LSODA::lsoda">
<polygon fill="none" stroke="#000000" points="116,-.5 116,-19.5 196,-19.5 196,-.5 116,-.5"/>
<text text-anchor="middle" x="156" y="-7.5" font-family="Helvetica,sans-Serif" font-size="10.00" fill="#000000">LSODA::lsoda</text>
</a>
</g>
</g>
<!-- Node232&#45;&gt;Node233 -->
<g id="edge1" class="edge">
<title>Node232&#45;&gt;Node233</title>
<path fill="none" stroke="#191970" d="M90.442,-10C98.9315,-10 107.6408,-10 115.8255,-10"/>
<polygon fill="#191970" stroke="#191970" points="90.2457,-6.5001 80.2456,-10 90.2456,-13.5001 90.2457,-6.5001"/>
</g>
<!-- Node234 -->
<g id="node3" class="node">
<title>Node234</title>
<g id="a_node3"><a xlink:href="classLSODA.html#a391e4d7bea026ad7c300cfb55cb290d1" target="_top" xlink:title="LSODA::lsoda_update">
<polygon fill="none" stroke="#000000" points="232,-.5 232,-19.5 346,-19.5 346,-.5 232,-.5"/>
<text text-anchor="middle" x="289" y="-7.5" font-family="Helvetica,sans-Serif" font-size="10.00" fill="#000000">LSODA::lsoda_update</text>
</a>
</g>
</g>
<!-- Node233&#45;&gt;Node234 -->
<g id="edge2" class="edge">
<title>Node233&#45;&gt;Node234</title>
<path fill="none" stroke="#191970" d="M206.4762,-10C214.7175,-10 223.3078,-10 231.6989,-10"/>
<polygon fill="#191970" stroke="#191970" points="206.2653,-6.5001 196.2653,-10 206.2653,-13.5001 206.2653,-6.5001"/>
</g>
<!-- Node235 -->
<g id="node4" class="node">
<title>Node235</title>
<g id="a_node4"><a xlink:href="classOdeSolver.html#a77d9f02ed28d5515366e6be08560f35a" target="_top" xlink:title="OdeSolver::step_to">
<polygon fill="none" stroke="#000000" points="382,-.5 382,-19.5 483,-19.5 483,-.5 382,-.5"/>
<text text-anchor="middle" x="432.5" y="-7.5" font-family="Helvetica,sans-Serif" font-size="10.00" fill="#000000">OdeSolver::step_to</text>
</a>
</g>
</g>
<!-- Node234&#45;&gt;Node235 -->
<g id="edge3" class="edge">
<title>Node234&#45;&gt;Node235</title>
<path fill="none" stroke="#191970" d="M356.3985,-10C364.8783,-10 373.4395,-10 381.6059,-10"/>
<polygon fill="#191970" stroke="#191970" points="356.1274,-6.5001 346.1273,-10 356.1273,-13.5001 356.1274,-6.5001"/>
</g>
<!-- Node236 -->
<g id="node5" class="node">
<title>Node236</title>
<g id="a_node5"><a xlink:href="classSolver.html#af4c8f6565df94ed6a058a224196b9c2b" target="_top" xlink:title="Solver::step_to">
<polygon fill="none" stroke="#000000" points="519,-.5 519,-19.5 602,-19.5 602,-.5 519,-.5"/>
<text text-anchor="middle" x="560.5" y="-7.5" font-family="Helvetica,sans-Serif" font-size="10.00" fill="#000000">Solver::step_to</text>
</a>
</g>
</g>
<!-- Node235&#45;&gt;Node236 -->
<g id="edge4" class="edge">
<title>Node235&#45;&gt;Node236</title>
<path fill="none" stroke="#191970" d="M493.2268,-10C501.9273,-10 510.7087,-10 518.9255,-10"/>
<polygon fill="#191970" stroke="#191970" points="493.089,-6.5001 483.089,-10 493.089,-13.5001 493.089,-6.5001"/>
</g>
<!-- Node237 -->
<g id="node6" class="node">
<title>Node237</title>
<g id="a_node6"><a xlink:href="classSolver.html#a06cf82d0a99490279ab20d2ad6b876db" target="_top" xlink:title="Solver::step_to">
<polygon fill="none" stroke="#000000" points="638,-.5 638,-19.5 721,-19.5 721,-.5 638,-.5"/>
<text text-anchor="middle" x="679.5" y="-7.5" font-family="Helvetica,sans-Serif" font-size="10.00" fill="#000000">Solver::step_to</text>
</a>
</g>
</g>
<!-- Node236&#45;&gt;Node237 -->
<g id="edge5" class="edge">
<title>Node236&#45;&gt;Node237</title>
<path fill="none" stroke="#191970" d="M612.3174,-10C620.8022,-10 629.499,-10 637.7019,-10"/>
<polygon fill="#191970" stroke="#191970" points="612.1205,-6.5001 602.1204,-10 612.1204,-13.5001 612.1205,-6.5001"/>
</g>
</g>
</svg>
