<?xml version="1.0" encoding="UTF-8" standalone="no"?>
<!DOCTYPE svg PUBLIC "-//W3C//DTD SVG 1.1//EN"
 "http://www.w3.org/Graphics/SVG/1.1/DTD/svg11.dtd">
<!-- Generated by graphviz version 2.40.1 (20161225.0304)
 -->
<!-- Title: Solver::newborns_out Pages: 1 -->
<svg width="635pt" height="161pt"
 viewBox="0.00 0.00 635.00 161.00" xmlns="http://www.w3.org/2000/svg" xmlns:xlink="http://www.w3.org/1999/xlink">
<g id="graph0" class="graph" transform="scale(1 1) rotate(0) translate(4 157)">
<title>Solver::newborns_out</title>
<!-- Node105 -->
<g id="node1" class="node">
<title>Node105</title>
<polygon fill="#bfbfbf" stroke="#000000" points="0,-95.5 0,-114.5 111,-114.5 111,-95.5 0,-95.5"/>
<text text-anchor="middle" x="55.5" y="-102.5" font-family="Helvetica,sans-Serif" font-size="10.00" fill="#000000">Solver::newborns_out</text>
</g>
<!-- Node106 -->
<g id="node2" class="node">
<title>Node106</title>
<g id="a_node2"><a xlink:href="classEnvironmentBase.html#aab04d5438741c4f04d09514bac07348c" target="_top" xlink:title="EnvironmentBase::computeEnv">
<polygon fill="none" stroke="#000000" points="147,-133.5 147,-152.5 302,-152.5 302,-133.5 147,-133.5"/>
<text text-anchor="middle" x="224.5" y="-140.5" font-family="Helvetica,sans-Serif" font-size="10.00" fill="#000000">EnvironmentBase::computeEnv</text>
</a>
</g>
</g>
<!-- Node105&#45;&gt;Node106 -->
<g id="edge1" class="edge">
<title>Node105&#45;&gt;Node106</title>
<path fill="none" stroke="#191970" d="M98.1458,-114.589C120.6481,-119.6487 148.4482,-125.8996 172.2379,-131.2488"/>
<polygon fill="#191970" stroke="#191970" points="171.6366,-134.7009 182.1608,-133.4799 173.1723,-127.8714 171.6366,-134.7009"/>
</g>
<!-- Node107 -->
<g id="node3" class="node">
<title>Node107</title>
<g id="a_node3"><a xlink:href="classSolver.html#af574bcfab58cef5440c32fa87b027e7d" target="_top" xlink:title="Solver::preComputeSpecies">
<polygon fill="none" stroke="#000000" points="155,-95.5 155,-114.5 294,-114.5 294,-95.5 155,-95.5"/>
<text text-anchor="middle" x="224.5" y="-102.5" font-family="Helvetica,sans-Serif" font-size="10.00" fill="#000000">Solver::preComputeSpecies</text>
</a>
</g>
</g>
<!-- Node105&#45;&gt;Node107 -->
<g id="edge2" class="edge">
<title>Node105&#45;&gt;Node107</title>
<path fill="none" stroke="#191970" d="M111.3053,-105C121.9788,-105 133.3455,-105 144.6029,-105"/>
<polygon fill="#191970" stroke="#191970" points="144.8876,-108.5001 154.8876,-105 144.8875,-101.5001 144.8876,-108.5001"/>
</g>
<!-- Node108 -->
<g id="node4" class="node">
<title>Node108</title>
<g id="a_node4"><a xlink:href="classSolver.html#aa5f2d1d48f6b4db83dbb257325924d2c" target="_top" xlink:title="Solver::calcSpeciesBirthFlux">
<polygon fill="none" stroke="#000000" points="153,-57.5 153,-76.5 296,-76.5 296,-57.5 153,-57.5"/>
<text text-anchor="middle" x="224.5" y="-64.5" font-family="Helvetica,sans-Serif" font-size="10.00" fill="#000000">Solver::calcSpeciesBirthFlux</text>
</a>
</g>
</g>
<!-- Node105&#45;&gt;Node108 -->
<g id="edge3" class="edge">
<title>Node105&#45;&gt;Node108</title>
<path fill="none" stroke="#191970" d="M98.1458,-95.411C120.6481,-90.3513 148.4482,-84.1004 172.2379,-78.7512"/>
<polygon fill="#191970" stroke="#191970" points="173.1723,-82.1286 182.1608,-76.5201 171.6366,-75.2991 173.1723,-82.1286"/>
</g>
<!-- Node109 -->
<g id="node5" class="node">
<title>Node109</title>
<g id="a_node5"><a xlink:href="classSolver.html#a2a6ca7647a4cde1195789132f3873c0b" target="_top" xlink:title="Computes the integral &#160;for the specified species. For details, see integrate_wudx_above. ">
<polygon fill="none" stroke="#000000" points="338,-57.5 338,-76.5 436,-76.5 436,-57.5 338,-57.5"/>
<text text-anchor="middle" x="387" y="-64.5" font-family="Helvetica,sans-Serif" font-size="10.00" fill="#000000">Solver::integrate_x</text>
</a>
</g>
</g>
<!-- Node108&#45;&gt;Node109 -->
<g id="edge4" class="edge">
<title>Node108&#45;&gt;Node109</title>
<path fill="none" stroke="#191970" d="M296.2479,-67C306.5967,-67 317.154,-67 327.2358,-67"/>
<polygon fill="#191970" stroke="#191970" points="327.5414,-70.5001 337.5413,-67 327.5413,-63.5001 327.5414,-70.5001"/>
</g>
<!-- Node110 -->
<g id="node6" class="node">
<title>Node110</title>
<g id="a_node6"><a xlink:href="classSpecies__Base.html#ad412522fc071525a19f95609880b20ff" target="_top" xlink:title="Species_Base::getU">
<polygon fill="none" stroke="#000000" points="496,-114.5 496,-133.5 603,-133.5 603,-114.5 496,-114.5"/>
<text text-anchor="middle" x="549.5" y="-121.5" font-family="Helvetica,sans-Serif" font-size="10.00" fill="#000000">Species_Base::getU</text>
</a>
</g>
</g>
<!-- Node109&#45;&gt;Node110 -->
<g id="edge5" class="edge">
<title>Node109&#45;&gt;Node110</title>
<path fill="none" stroke="#191970" d="M405.8461,-76.6077C422.8138,-84.97 448.6061,-96.9762 472,-105 479.2788,-107.4965 487.0477,-109.8042 494.7512,-111.8874"/>
<polygon fill="#191970" stroke="#191970" points="493.8733,-115.2755 504.4322,-114.4035 495.6342,-108.5005 493.8733,-115.2755"/>
</g>
<!-- Node111 -->
<g id="node7" class="node">
<title>Node111</title>
<g id="a_node7"><a xlink:href="classSpecies__Base.html#aa6880c6f5c8ff125cab4d1195dedfb13" target="_top" xlink:title="Species_Base::getX">
<polygon fill="none" stroke="#000000" points="496.5,-76.5 496.5,-95.5 602.5,-95.5 602.5,-76.5 496.5,-76.5"/>
<text text-anchor="middle" x="549.5" y="-83.5" font-family="Helvetica,sans-Serif" font-size="10.00" fill="#000000">Species_Base::getX</text>
</a>
</g>
</g>
<!-- Node109&#45;&gt;Node111 -->
<g id="edge6" class="edge">
<title>Node109&#45;&gt;Node111</title>
<path fill="none" stroke="#191970" d="M436.1963,-72.7522C451.9001,-74.5883 469.5064,-76.6469 486.0729,-78.5839"/>
<polygon fill="#191970" stroke="#191970" points="485.8884,-82.0861 496.2273,-79.7712 486.7014,-75.1335 485.8884,-82.0861"/>
</g>
<!-- Node112 -->
<g id="node8" class="node">
<title>Node112</title>
<g id="a_node8"><a xlink:href="classSpecies__Base.html#a86a04ae53b3f25c4e90b01a8eaed3bfd" target="_top" xlink:title="Species_Base::setX">
<polygon fill="none" stroke="#000000" points="496.5,-38.5 496.5,-57.5 602.5,-57.5 602.5,-38.5 496.5,-38.5"/>
<text text-anchor="middle" x="549.5" y="-45.5" font-family="Helvetica,sans-Serif" font-size="10.00" fill="#000000">Species_Base::setX</text>
</a>
</g>
</g>
<!-- Node109&#45;&gt;Node112 -->
<g id="edge7" class="edge">
<title>Node109&#45;&gt;Node112</title>
<path fill="none" stroke="#191970" d="M436.1963,-61.2478C451.9001,-59.4117 469.5064,-57.3531 486.0729,-55.4161"/>
<polygon fill="#191970" stroke="#191970" points="486.7014,-58.8665 496.2273,-54.2288 485.8884,-51.9139 486.7014,-58.8665"/>
</g>
<!-- Node113 -->
<g id="node9" class="node">
<title>Node113</title>
<g id="a_node9"><a xlink:href="classSpecies__Base.html#a191930a24322d8df293e759943d156fa" target="_top" xlink:title="Species_Base::get_boundary_u">
<polygon fill="none" stroke="#000000" points="472,-.5 472,-19.5 627,-19.5 627,-.5 472,-.5"/>
<text text-anchor="middle" x="549.5" y="-7.5" font-family="Helvetica,sans-Serif" font-size="10.00" fill="#000000">Species_Base::get_boundary_u</text>
</a>
</g>
</g>
<!-- Node109&#45;&gt;Node113 -->
<g id="edge8" class="edge">
<title>Node109&#45;&gt;Node113</title>
<path fill="none" stroke="#191970" d="M405.8461,-57.3923C422.8138,-49.03 448.6061,-37.0238 472,-29 479.2788,-26.5035 487.0477,-24.1958 494.7512,-22.1126"/>
<polygon fill="#191970" stroke="#191970" points="495.6342,-25.4995 504.4322,-19.5965 493.8733,-18.7245 495.6342,-25.4995"/>
</g>
</g>
</svg>
