<?xml version="1.0" encoding="UTF-8" standalone="no"?>
<!DOCTYPE svg PUBLIC "-//W3C//DTD SVG 1.1//EN"
 "http://www.w3.org/Graphics/SVG/1.1/DTD/svg11.dtd">
<!-- Generated by graphviz version 2.40.1 (20161225.0304)
 -->
<!-- Title: Solver::copyStateToCohorts Pages: 1 -->
<svg width="337pt" height="154pt"
 viewBox="0.00 0.00 337.00 153.50" xmlns="http://www.w3.org/2000/svg" xmlns:xlink="http://www.w3.org/1999/xlink">
<g id="graph0" class="graph" transform="scale(1 1) rotate(0) translate(4 149.5)">
<title>Solver::copyStateToCohorts</title>
<!-- Node75 -->
<g id="node1" class="node">
<title>Node75</title>
<polygon fill="#bfbfbf" stroke="#000000" points="0,-69 0,-88 140,-88 140,-69 0,-69"/>
<text text-anchor="middle" x="70" y="-76" font-family="Helvetica,sans-Serif" font-size="10.00" fill="#000000">Solver::copyStateToCohorts</text>
</g>
<!-- Node76 -->
<g id="node2" class="node">
<title>Node76</title>
<g id="a_node2"><a xlink:href="classSpecies__Base.html#a25a20f843be73c25744dd0e860c11c6f" target="_top" xlink:title="Species_Base::set_xb">
<polygon fill="none" stroke="#000000" points="195,-126 195,-145 310,-145 310,-126 195,-126"/>
<text text-anchor="middle" x="252.5" y="-133" font-family="Helvetica,sans-Serif" font-size="10.00" fill="#000000">Species_Base::set_xb</text>
</a>
</g>
</g>
<!-- Node75&#45;&gt;Node76 -->
<g id="edge1" class="edge">
<title>Node75&#45;&gt;Node76</title>
<path fill="none" stroke="#191970" d="M94.6089,-88.1192C115.9433,-96.2659 147.7453,-107.9505 176,-116.5 184.0022,-118.9214 192.5419,-121.2691 200.9067,-123.4405"/>
<polygon fill="#191970" stroke="#191970" points="200.0496,-126.8339 210.6034,-125.9024 201.7722,-120.0491 200.0496,-126.8339"/>
</g>
<!-- Node77 -->
<g id="node3" class="node">
<title>Node77</title>
<g id="a_node3"><a xlink:href="classSpecies__Base.html#ad9ddab41ba3c6e242f1b3a8a50ed7a36" target="_top" xlink:title="Species_Base::setU">
<polygon fill="none" stroke="#000000" points="199,-88 199,-107 306,-107 306,-88 199,-88"/>
<text text-anchor="middle" x="252.5" y="-95" font-family="Helvetica,sans-Serif" font-size="10.00" fill="#000000">Species_Base::setU</text>
</a>
</g>
</g>
<!-- Node75&#45;&gt;Node77 -->
<g id="edge2" class="edge">
<title>Node75&#45;&gt;Node77</title>
<path fill="none" stroke="#191970" d="M140.0373,-85.7916C156.0341,-87.457 172.9516,-89.2182 188.672,-90.8549"/>
<polygon fill="#191970" stroke="#191970" points="188.4993,-94.3557 198.808,-91.9101 189.2242,-87.3934 188.4993,-94.3557"/>
</g>
<!-- Node78 -->
<g id="node4" class="node">
<title>Node78</title>
<g id="a_node4"><a xlink:href="classSpecies__Base.html#a86a04ae53b3f25c4e90b01a8eaed3bfd" target="_top" xlink:title="Species_Base::setX">
<polygon fill="none" stroke="#000000" points="199.5,-50 199.5,-69 305.5,-69 305.5,-50 199.5,-50"/>
<text text-anchor="middle" x="252.5" y="-57" font-family="Helvetica,sans-Serif" font-size="10.00" fill="#000000">Species_Base::setX</text>
</a>
</g>
</g>
<!-- Node75&#45;&gt;Node78 -->
<g id="edge3" class="edge">
<title>Node75&#45;&gt;Node78</title>
<path fill="none" stroke="#191970" d="M140.0373,-71.2084C156.199,-69.5259 173.3005,-67.7454 189.1578,-66.0945"/>
<polygon fill="#191970" stroke="#191970" points="189.7925,-69.5475 199.3763,-65.0307 189.0676,-62.5851 189.7925,-69.5475"/>
</g>
<!-- Node79 -->
<g id="node5" class="node">
<title>Node79</title>
<g id="a_node5"><a xlink:href="classSpecies__Base.html#a2ca0ef18e0b775f6efc02b026bd2f5ac" target="_top" xlink:title="Species_Base::copyExtraState\lToCohorts">
<polygon fill="none" stroke="#000000" points="176,-.5 176,-30.5 329,-30.5 329,-.5 176,-.5"/>
<text text-anchor="start" x="184" y="-18.5" font-family="Helvetica,sans-Serif" font-size="10.00" fill="#000000">Species_Base::copyExtraState</text>
<text text-anchor="middle" x="252.5" y="-7.5" font-family="Helvetica,sans-Serif" font-size="10.00" fill="#000000">ToCohorts</text>
</a>
</g>
</g>
<!-- Node75&#45;&gt;Node79 -->
<g id="edge4" class="edge">
<title>Node75&#45;&gt;Node79</title>
<path fill="none" stroke="#191970" d="M96.0644,-68.9234C117.4768,-61.1123 148.6282,-49.8767 176,-40.5 182.3944,-38.3095 189.1038,-36.0542 195.7808,-33.8367"/>
<polygon fill="#191970" stroke="#191970" points="197.1019,-37.0864 205.4998,-30.6269 194.9066,-30.4395 197.1019,-37.0864"/>
</g>
</g>
</svg>
