<?xml version="1.0" encoding="UTF-8" standalone="no"?>
<!DOCTYPE svg PUBLIC "-//W3C//DTD SVG 1.1//EN"
 "http://www.w3.org/Graphics/SVG/1.1/DTD/svg11.dtd">
<!-- Generated by graphviz version 2.40.1 (20161225.0304)
 -->
<!-- Title: Cohort::preCompute Pages: 1 -->
<svg width="304pt" height="104pt"
 viewBox="0.00 0.00 304.00 104.00" xmlns="http://www.w3.org/2000/svg" xmlns:xlink="http://www.w3.org/1999/xlink">
<g id="graph0" class="graph" transform="scale(1 1) rotate(0) translate(4 100)">
<title>Cohort::preCompute</title>
<!-- Node18 -->
<g id="node1" class="node">
<title>Node18</title>
<polygon fill="#bfbfbf" stroke="#000000" points="0,-38.5 0,-57.5 105,-57.5 105,-38.5 0,-38.5"/>
<text text-anchor="middle" x="52.5" y="-45.5" font-family="Helvetica,sans-Serif" font-size="10.00" fill="#000000">Cohort::preCompute</text>
</g>
<!-- Node19 -->
<g id="node2" class="node">
<title>Node19</title>
<g id="a_node2"><a xlink:href="classCohort.html#a2bcde3a746dea351fd36ffd77f7c8665" target="_top" xlink:title="Cohort\&lt; Model \&gt;::growthRate">
<polygon fill="none" stroke="#000000" points="145.5,-76.5 145.5,-95.5 291.5,-95.5 291.5,-76.5 145.5,-76.5"/>
<text text-anchor="middle" x="218.5" y="-83.5" font-family="Helvetica,sans-Serif" font-size="10.00" fill="#000000">Cohort&lt; Model &gt;::growthRate</text>
</a>
</g>
</g>
<!-- Node18&#45;&gt;Node19 -->
<g id="edge1" class="edge">
<title>Node18&#45;&gt;Node19</title>
<path fill="none" stroke="#191970" d="M104.1534,-59.8243C127.5564,-65.1816 154.8571,-71.4311 176.9124,-76.4799"/>
<polygon fill="#191970" stroke="#191970" points="104.9177,-56.4088 94.3888,-57.589 103.3556,-63.2323 104.9177,-56.4088"/>
</g>
<!-- Node20 -->
<g id="node3" class="node">
<title>Node20</title>
<g id="a_node3"><a xlink:href="classCohort.html#a30709315cd5e4db121e86deac183c4b8" target="_top" xlink:title="Cohort\&lt; Model \&gt;::mortalityRate">
<polygon fill="none" stroke="#000000" points="141,-38.5 141,-57.5 296,-57.5 296,-38.5 141,-38.5"/>
<text text-anchor="middle" x="218.5" y="-45.5" font-family="Helvetica,sans-Serif" font-size="10.00" fill="#000000">Cohort&lt; Model &gt;::mortalityRate</text>
</a>
</g>
</g>
<!-- Node18&#45;&gt;Node20 -->
<g id="edge2" class="edge">
<title>Node18&#45;&gt;Node20</title>
<path fill="none" stroke="#191970" d="M115.1059,-48C123.5134,-48 132.2186,-48 140.8463,-48"/>
<polygon fill="#191970" stroke="#191970" points="115.0235,-44.5001 105.0234,-48 115.0234,-51.5001 115.0235,-44.5001"/>
</g>
<!-- Node21 -->
<g id="node4" class="node">
<title>Node21</title>
<g id="a_node4"><a xlink:href="classCohort.html#ad18a65be901aa50f357939bbd7731ccb" target="_top" xlink:title="Cohort\&lt; Model \&gt;::birthRate">
<polygon fill="none" stroke="#000000" points="150.5,-.5 150.5,-19.5 286.5,-19.5 286.5,-.5 150.5,-.5"/>
<text text-anchor="middle" x="218.5" y="-7.5" font-family="Helvetica,sans-Serif" font-size="10.00" fill="#000000">Cohort&lt; Model &gt;::birthRate</text>
</a>
</g>
</g>
<!-- Node18&#45;&gt;Node21 -->
<g id="edge3" class="edge">
<title>Node18&#45;&gt;Node21</title>
<path fill="none" stroke="#191970" d="M104.1534,-36.1757C127.5564,-30.8184 154.8571,-24.5689 176.9124,-19.5201"/>
<polygon fill="#191970" stroke="#191970" points="103.3556,-32.7677 94.3888,-38.411 104.9177,-39.5912 103.3556,-32.7677"/>
</g>
</g>
</svg>
