<?xml version="1.0" encoding="UTF-8" standalone="no"?>
<!DOCTYPE svg PUBLIC "-//W3C//DTD SVG 1.1//EN"
 "http://www.w3.org/Graphics/SVG/1.1/DTD/svg11.dtd">
<!-- Generated by graphviz version 2.40.1 (20161225.0304)
 -->
<!-- Title: RKCK45::Step_to Pages: 1 -->
<svg width="479pt" height="85pt"
 viewBox="0.00 0.00 479.00 85.00" xmlns="http://www.w3.org/2000/svg" xmlns:xlink="http://www.w3.org/1999/xlink">
<g id="graph0" class="graph" transform="scale(1 1) rotate(0) translate(4 81)">
<title>RKCK45::Step_to</title>
<!-- Node54 -->
<g id="node1" class="node">
<title>Node54</title>
<polygon fill="#bfbfbf" stroke="#000000" points="0,-38.5 0,-57.5 95,-57.5 95,-38.5 0,-38.5"/>
<text text-anchor="middle" x="47.5" y="-45.5" font-family="Helvetica,sans-Serif" font-size="10.00" fill="#000000">RKCK45::Step_to</text>
</g>
<!-- Node55 -->
<g id="node2" class="node">
<title>Node55</title>
<g id="a_node2"><a xlink:href="classRKCK45.html#a20415037da7046ff94afadbf927c42d3" target="_top" xlink:title="RKCK45::Step">
<polygon fill="none" stroke="#000000" points="131,-38.5 131,-57.5 213,-57.5 213,-38.5 131,-38.5"/>
<text text-anchor="middle" x="172" y="-45.5" font-family="Helvetica,sans-Serif" font-size="10.00" fill="#000000">RKCK45::Step</text>
</a>
</g>
</g>
<!-- Node54&#45;&gt;Node55 -->
<g id="edge1" class="edge">
<title>Node54&#45;&gt;Node55</title>
<path fill="none" stroke="#191970" d="M95.2789,-48C103.5666,-48 112.2167,-48 120.5962,-48"/>
<polygon fill="#191970" stroke="#191970" points="120.6406,-51.5001 130.6406,-48 120.6406,-44.5001 120.6406,-51.5001"/>
</g>
<!-- Node56 -->
<g id="node3" class="node">
<title>Node56</title>
<g id="a_node3"><a xlink:href="classRKCK45.html#a219b69e8759b799b422d5c6b97509fd0" target="_top" xlink:title="RKCK45::resize">
<polygon fill="none" stroke="#000000" points="253,-57.5 253,-76.5 341,-76.5 341,-57.5 253,-57.5"/>
<text text-anchor="middle" x="297" y="-64.5" font-family="Helvetica,sans-Serif" font-size="10.00" fill="#000000">RKCK45::resize</text>
</a>
</g>
</g>
<!-- Node55&#45;&gt;Node56 -->
<g id="edge2" class="edge">
<title>Node55&#45;&gt;Node56</title>
<path fill="none" stroke="#191970" d="M213.2761,-54.274C222.6708,-55.702 232.7914,-57.2403 242.6379,-58.737"/>
<polygon fill="#191970" stroke="#191970" points="242.3455,-62.2326 252.7579,-60.2752 243.3974,-55.3121 242.3455,-62.2326"/>
</g>
<!-- Node57 -->
<g id="node4" class="node">
<title>Node57</title>
<g id="a_node4"><a xlink:href="classRKCK45.html#adfa11ff7b8da1b21aea9e457ac4e9d1c" target="_top" xlink:title="RKCK45::RKStep">
<polygon fill="none" stroke="#000000" points="249,-19.5 249,-38.5 345,-38.5 345,-19.5 249,-19.5"/>
<text text-anchor="middle" x="297" y="-26.5" font-family="Helvetica,sans-Serif" font-size="10.00" fill="#000000">RKCK45::RKStep</text>
</a>
</g>
</g>
<!-- Node55&#45;&gt;Node57 -->
<g id="edge3" class="edge">
<title>Node55&#45;&gt;Node57</title>
<path fill="none" stroke="#191970" d="M213.2761,-41.726C221.4541,-40.483 230.1822,-39.1563 238.8007,-37.8463"/>
<polygon fill="#191970" stroke="#191970" points="239.4677,-41.2852 248.8282,-36.3221 238.4158,-34.3647 239.4677,-41.2852"/>
</g>
<!-- Node58 -->
<g id="node5" class="node">
<title>Node58</title>
<g id="a_node5"><a xlink:href="classRKCK45.html#a25808387ad46ff36ec579617c5ba9eee" target="_top" xlink:title="RKCK45::h">
<polygon fill="none" stroke="#000000" points="392.5,-38.5 392.5,-57.5 459.5,-57.5 459.5,-38.5 392.5,-38.5"/>
<text text-anchor="middle" x="426" y="-45.5" font-family="Helvetica,sans-Serif" font-size="10.00" fill="#000000">RKCK45::h</text>
</a>
</g>
</g>
<!-- Node57&#45;&gt;Node58 -->
<g id="edge4" class="edge">
<title>Node57&#45;&gt;Node58</title>
<path fill="none" stroke="#191970" d="M345.0348,-36.0749C357.2238,-37.8702 370.2535,-39.7893 382.2188,-41.5516"/>
<polygon fill="#191970" stroke="#191970" points="382.0087,-45.0583 392.412,-43.0529 383.0288,-38.1331 382.0087,-45.0583"/>
</g>
<!-- Node59 -->
<g id="node6" class="node">
<title>Node59</title>
<g id="a_node6"><a xlink:href="classRKCK45.html#aa61f9dd524bbc30f9c5480a868378c1f" target="_top" xlink:title="RKCK45::RKTry">
<polygon fill="none" stroke="#000000" points="381,-.5 381,-19.5 471,-19.5 471,-.5 381,-.5"/>
<text text-anchor="middle" x="426" y="-7.5" font-family="Helvetica,sans-Serif" font-size="10.00" fill="#000000">RKCK45::RKTry</text>
</a>
</g>
</g>
<!-- Node57&#45;&gt;Node59 -->
<g id="edge5" class="edge">
<title>Node57&#45;&gt;Node59</title>
<path fill="none" stroke="#191970" d="M345.0348,-21.9251C353.4787,-20.6814 362.326,-19.3783 370.9434,-18.1091"/>
<polygon fill="#191970" stroke="#191970" points="371.5328,-21.5602 380.916,-16.6403 370.5127,-14.6349 371.5328,-21.5602"/>
</g>
</g>
</svg>
