<?xml version="1.0" encoding="UTF-8" standalone="no"?>
<!DOCTYPE svg PUBLIC "-//W3C//DTD SVG 1.1//EN"
 "http://www.w3.org/Graphics/SVG/1.1/DTD/svg11.dtd">
<!-- Generated by graphviz version 2.40.1 (20161225.0304)
 -->
<!-- Title: Species_Base::establishmentProbability Pages: 1 -->
<svg width="550pt" height="142pt"
 viewBox="0.00 0.00 550.00 142.00" xmlns="http://www.w3.org/2000/svg" xmlns:xlink="http://www.w3.org/1999/xlink">
<g id="graph0" class="graph" transform="scale(1 1) rotate(0) translate(4 138)">
<title>Species_Base::establishmentProbability</title>
<!-- Node27 -->
<g id="node1" class="node">
<title>Node27</title>
<polygon fill="#bfbfbf" stroke="#000000" points="0,-52 0,-82 146,-82 146,-52 0,-52"/>
<text text-anchor="start" x="8" y="-70" font-family="Helvetica,sans-Serif" font-size="10.00" fill="#000000">Species_Base::establishment</text>
<text text-anchor="middle" x="73" y="-59" font-family="Helvetica,sans-Serif" font-size="10.00" fill="#000000">Probability</text>
</g>
<!-- Node28 -->
<g id="node2" class="node">
<title>Node28</title>
<g id="a_node2"><a xlink:href="classSolver.html#ab712f582d6f785adb8620cb40bbb3de4" target="_top" xlink:title="Solver::calcRates_CM">
<polygon fill="none" stroke="#000000" points="185,-114.5 185,-133.5 301,-133.5 301,-114.5 185,-114.5"/>
<text text-anchor="middle" x="243" y="-121.5" font-family="Helvetica,sans-Serif" font-size="10.00" fill="#000000">Solver::calcRates_CM</text>
</a>
</g>
</g>
<!-- Node27&#45;&gt;Node28 -->
<g id="edge1" class="edge">
<title>Node27&#45;&gt;Node28</title>
<path fill="none" stroke="#191970" d="M124.8323,-85.4677C142.8812,-91.7927 163.2927,-98.8276 182,-105 191.5855,-108.1627 202.0642,-111.4777 211.5898,-114.4372"/>
<polygon fill="#191970" stroke="#191970" points="125.6689,-82.0519 115.074,-82.0369 123.347,-88.6557 125.6689,-82.0519"/>
</g>
<!-- Node31 -->
<g id="node5" class="node">
<title>Node31</title>
<g id="a_node5"><a xlink:href="classSolver.html#a23be16428b7ba399bfd2f06555547f6b" target="_top" xlink:title="Solver::calcRates_EBT">
<polygon fill="none" stroke="#000000" points="183.5,-76.5 183.5,-95.5 302.5,-95.5 302.5,-76.5 183.5,-76.5"/>
<text text-anchor="middle" x="243" y="-83.5" font-family="Helvetica,sans-Serif" font-size="10.00" fill="#000000">Solver::calcRates_EBT</text>
</a>
</g>
</g>
<!-- Node27&#45;&gt;Node31 -->
<g id="edge4" class="edge">
<title>Node27&#45;&gt;Node31</title>
<path fill="none" stroke="#191970" d="M156.0311,-76.2799C165.2299,-77.308 174.4594,-78.3396 183.2885,-79.3264"/>
<polygon fill="#191970" stroke="#191970" points="156.4088,-72.8005 146.0819,-75.168 155.6312,-79.7571 156.4088,-72.8005"/>
</g>
<!-- Node32 -->
<g id="node6" class="node">
<title>Node32</title>
<g id="a_node6"><a xlink:href="classSolver.html#a2ea9fb6abc4ffd5ac28154332029da40" target="_top" xlink:title="Solver::calcRates_FMU">
<polygon fill="none" stroke="#000000" points="182,-38.5 182,-57.5 304,-57.5 304,-38.5 182,-38.5"/>
<text text-anchor="middle" x="243" y="-45.5" font-family="Helvetica,sans-Serif" font-size="10.00" fill="#000000">Solver::calcRates_FMU</text>
</a>
</g>
</g>
<!-- Node27&#45;&gt;Node32 -->
<g id="edge6" class="edge">
<title>Node27&#45;&gt;Node32</title>
<path fill="none" stroke="#191970" d="M156.2353,-57.6972C164.9126,-56.7274 173.6144,-55.7549 181.9788,-54.82"/>
<polygon fill="#191970" stroke="#191970" points="155.6312,-54.2429 146.0819,-58.832 156.4088,-61.1995 155.6312,-54.2429"/>
</g>
<!-- Node33 -->
<g id="node7" class="node">
<title>Node33</title>
<g id="a_node7"><a xlink:href="classSolver.html#a8f96f44ff535452912b2a3a2fc43e60e" target="_top" xlink:title="Solver::stepU_iFMU">
<polygon fill="none" stroke="#000000" points="190,-.5 190,-19.5 296,-19.5 296,-.5 190,-.5"/>
<text text-anchor="middle" x="243" y="-7.5" font-family="Helvetica,sans-Serif" font-size="10.00" fill="#000000">Solver::stepU_iFMU</text>
</a>
</g>
</g>
<!-- Node27&#45;&gt;Node33 -->
<g id="edge8" class="edge">
<title>Node27&#45;&gt;Node33</title>
<path fill="none" stroke="#191970" d="M124.8323,-48.5323C142.8812,-42.2073 163.2927,-35.1724 182,-29 191.5855,-25.8373 202.0642,-22.5223 211.5898,-19.5628"/>
<polygon fill="#191970" stroke="#191970" points="123.347,-45.3443 115.074,-51.9631 125.6689,-51.9481 123.347,-45.3443"/>
</g>
<!-- Node29 -->
<g id="node3" class="node">
<title>Node29</title>
<g id="a_node3"><a xlink:href="classSolver.html#af4c8f6565df94ed6a058a224196b9c2b" target="_top" xlink:title="Solver::step_to">
<polygon fill="none" stroke="#000000" points="340,-57.5 340,-76.5 423,-76.5 423,-57.5 340,-57.5"/>
<text text-anchor="middle" x="381.5" y="-64.5" font-family="Helvetica,sans-Serif" font-size="10.00" fill="#000000">Solver::step_to</text>
</a>
</g>
</g>
<!-- Node28&#45;&gt;Node29 -->
<g id="edge2" class="edge">
<title>Node28&#45;&gt;Node29</title>
<path fill="none" stroke="#191970" d="M286.6696,-111.2975C292.545,-109.3272 298.4545,-107.208 304,-105 325.1618,-96.5743 348.5158,-84.7577 363.9983,-76.5472"/>
<polygon fill="#191970" stroke="#191970" points="285.322,-108.0548 276.8841,-114.4621 287.4759,-114.7151 285.322,-108.0548"/>
</g>
<!-- Node30 -->
<g id="node4" class="node">
<title>Node30</title>
<g id="a_node4"><a xlink:href="classSolver.html#a06cf82d0a99490279ab20d2ad6b876db" target="_top" xlink:title="Solver::step_to">
<polygon fill="none" stroke="#000000" points="459,-57.5 459,-76.5 542,-76.5 542,-57.5 459,-57.5"/>
<text text-anchor="middle" x="500.5" y="-64.5" font-family="Helvetica,sans-Serif" font-size="10.00" fill="#000000">Solver::step_to</text>
</a>
</g>
</g>
<!-- Node29&#45;&gt;Node30 -->
<g id="edge3" class="edge">
<title>Node29&#45;&gt;Node30</title>
<path fill="none" stroke="#191970" d="M433.3174,-67C441.8022,-67 450.499,-67 458.7019,-67"/>
<polygon fill="#191970" stroke="#191970" points="433.1205,-63.5001 423.1204,-67 433.1204,-70.5001 433.1205,-63.5001"/>
</g>
<!-- Node31&#45;&gt;Node29 -->
<g id="edge5" class="edge">
<title>Node31&#45;&gt;Node29</title>
<path fill="none" stroke="#191970" d="M312.6498,-76.4452C321.9926,-75.1635 331.3257,-73.8831 339.9689,-72.6974"/>
<polygon fill="#191970" stroke="#191970" points="311.9717,-73.0053 302.5402,-77.832 312.9232,-79.9404 311.9717,-73.0053"/>
</g>
<!-- Node32&#45;&gt;Node29 -->
<g id="edge7" class="edge">
<title>Node32&#45;&gt;Node29</title>
<path fill="none" stroke="#191970" d="M314.0629,-57.7487C322.8539,-58.9547 331.6059,-60.1553 339.7517,-61.2728"/>
<polygon fill="#191970" stroke="#191970" points="314.5342,-54.2807 304.1513,-56.389 313.5828,-61.2157 314.5342,-54.2807"/>
</g>
<!-- Node33&#45;&gt;Node29 -->
<g id="edge9" class="edge">
<title>Node33&#45;&gt;Node29</title>
<path fill="none" stroke="#191970" d="M286.6696,-22.7025C292.545,-24.6728 298.4545,-26.792 304,-29 325.1618,-37.4257 348.5158,-49.2423 363.9983,-57.4528"/>
<polygon fill="#191970" stroke="#191970" points="287.4759,-19.2849 276.8841,-19.5379 285.322,-25.9452 287.4759,-19.2849"/>
</g>
</g>
</svg>
