<?xml version="1.0" encoding="UTF-8" standalone="no"?>
<!DOCTYPE svg PUBLIC "-//W3C//DTD SVG 1.1//EN"
 "http://www.w3.org/Graphics/SVG/1.1/DTD/svg11.dtd">
<!-- Generated by graphviz version 2.40.1 (20161225.0304)
 -->
<!-- Title: Species_Base::getU Pages: 1 -->
<svg width="733pt" height="230pt"
 viewBox="0.00 0.00 733.00 230.00" xmlns="http://www.w3.org/2000/svg" xmlns:xlink="http://www.w3.org/1999/xlink">
<g id="graph0" class="graph" transform="scale(1 1) rotate(0) translate(4 226)">
<title>Species_Base::getU</title>
<!-- Node52 -->
<g id="node1" class="node">
<title>Node52</title>
<polygon fill="#bfbfbf" stroke="#000000" points="0,-104.5 0,-123.5 107,-123.5 107,-104.5 0,-104.5"/>
<text text-anchor="middle" x="53.5" y="-111.5" font-family="Helvetica,sans-Serif" font-size="10.00" fill="#000000">Species_Base::getU</text>
</g>
<!-- Node53 -->
<g id="node2" class="node">
<title>Node53</title>
<g id="a_node2"><a xlink:href="classSolver.html#ab712f582d6f785adb8620cb40bbb3de4" target="_top" xlink:title="Solver::calcRates_CM">
<polygon fill="none" stroke="#000000" points="155,-202.5 155,-221.5 271,-221.5 271,-202.5 155,-202.5"/>
<text text-anchor="middle" x="213" y="-209.5" font-family="Helvetica,sans-Serif" font-size="10.00" fill="#000000">Solver::calcRates_CM</text>
</a>
</g>
</g>
<!-- Node52&#45;&gt;Node53 -->
<g id="edge1" class="edge">
<title>Node52&#45;&gt;Node53</title>
<path fill="none" stroke="#191970" d="M68.3053,-131.0632C84.7961,-149.0271 113.0942,-176.8906 143,-193 150.0953,-196.822 158.0179,-199.9205 165.9108,-202.4184"/>
<polygon fill="#191970" stroke="#191970" points="70.8789,-128.6906 61.5959,-123.584 65.6682,-133.365 70.8789,-128.6906"/>
</g>
<!-- Node56 -->
<g id="node5" class="node">
<title>Node56</title>
<g id="a_node5"><a xlink:href="classSolver.html#a23be16428b7ba399bfd2f06555547f6b" target="_top" xlink:title="Solver::calcRates_EBT">
<polygon fill="none" stroke="#000000" points="153.5,-164.5 153.5,-183.5 272.5,-183.5 272.5,-164.5 153.5,-164.5"/>
<text text-anchor="middle" x="213" y="-171.5" font-family="Helvetica,sans-Serif" font-size="10.00" fill="#000000">Solver::calcRates_EBT</text>
</a>
</g>
</g>
<!-- Node52&#45;&gt;Node56 -->
<g id="edge4" class="edge">
<title>Node52&#45;&gt;Node56</title>
<path fill="none" stroke="#191970" d="M81.0365,-128.0439C98.4902,-136.5849 121.7116,-147.294 143,-155 152.7093,-158.5146 163.3806,-161.727 173.4014,-164.4703"/>
<polygon fill="#191970" stroke="#191970" points="82.4963,-124.8612 71.9823,-123.5548 79.3869,-131.1327 82.4963,-124.8612"/>
</g>
<!-- Node57 -->
<g id="node6" class="node">
<title>Node57</title>
<g id="a_node6"><a xlink:href="classSolver.html#a8f96f44ff535452912b2a3a2fc43e60e" target="_top" xlink:title="Solver::stepU_iFMU">
<polygon fill="none" stroke="#000000" points="160,-126.5 160,-145.5 266,-145.5 266,-126.5 160,-126.5"/>
<text text-anchor="middle" x="213" y="-133.5" font-family="Helvetica,sans-Serif" font-size="10.00" fill="#000000">Solver::stepU_iFMU</text>
</a>
</g>
</g>
<!-- Node52&#45;&gt;Node57 -->
<g id="edge6" class="edge">
<title>Node52&#45;&gt;Node57</title>
<path fill="none" stroke="#191970" d="M117.202,-122.7865C131.3448,-124.7372 146.19,-126.7848 159.8576,-128.67"/>
<polygon fill="#191970" stroke="#191970" points="117.4394,-119.2862 107.0549,-121.3869 116.4829,-126.2205 117.4394,-119.2862"/>
</g>
<!-- Node58 -->
<g id="node7" class="node">
<title>Node58</title>
<g id="a_node7"><a xlink:href="classSolver.html#a9172d0d2dc6399ada494ef23020943d5" target="_top" xlink:title="Computes the partial integral &#160;for the specified species. ">
<polygon fill="none" stroke="#000000" points="155,-77 155,-107 271,-107 271,-77 155,-77"/>
<text text-anchor="start" x="163" y="-95" font-family="Helvetica,sans-Serif" font-size="10.00" fill="#000000">Solver::integrate_wudx</text>
<text text-anchor="middle" x="213" y="-84" font-family="Helvetica,sans-Serif" font-size="10.00" fill="#000000">_above</text>
</a>
</g>
</g>
<!-- Node52&#45;&gt;Node58 -->
<g id="edge8" class="edge">
<title>Node52&#45;&gt;Node58</title>
<path fill="none" stroke="#191970" d="M117.3335,-105.1954C129.7535,-103.4823 142.7105,-101.6951 154.9321,-100.0094"/>
<polygon fill="#191970" stroke="#191970" points="116.4829,-101.7795 107.0549,-106.6131 117.4394,-108.7138 116.4829,-101.7795"/>
</g>
<!-- Node59 -->
<g id="node8" class="node">
<title>Node59</title>
<g id="a_node8"><a xlink:href="classSolver.html#a2a6ca7647a4cde1195789132f3873c0b" target="_top" xlink:title="Computes the integral &#160;for the specified species. For details, see integrate_wudx_above. ">
<polygon fill="none" stroke="#000000" points="164,-38.5 164,-57.5 262,-57.5 262,-38.5 164,-38.5"/>
<text text-anchor="middle" x="213" y="-45.5" font-family="Helvetica,sans-Serif" font-size="10.00" fill="#000000">Solver::integrate_x</text>
</a>
</g>
</g>
<!-- Node52&#45;&gt;Node59 -->
<g id="edge9" class="edge">
<title>Node52&#45;&gt;Node59</title>
<path fill="none" stroke="#191970" d="M78.1843,-99.1587C95.7824,-89.0504 120.2582,-75.9334 143,-67 152.1421,-63.4088 162.2116,-60.2422 171.7948,-57.5747"/>
<polygon fill="#191970" stroke="#191970" points="76.0427,-96.356 69.1698,-104.4192 79.5709,-102.4019 76.0427,-96.356"/>
</g>
<!-- Node63 -->
<g id="node12" class="node">
<title>Node63</title>
<g id="a_node12"><a xlink:href="classSolver.html#ac108d0e9de32ef14e68a176ff9969c38" target="_top" xlink:title="Solver::copyCohortsToState">
<polygon fill="none" stroke="#000000" points="143,-.5 143,-19.5 283,-19.5 283,-.5 143,-.5"/>
<text text-anchor="middle" x="213" y="-7.5" font-family="Helvetica,sans-Serif" font-size="10.00" fill="#000000">Solver::copyCohortsToState</text>
</a>
</g>
</g>
<!-- Node52&#45;&gt;Node63 -->
<g id="edge13" class="edge">
<title>Node52&#45;&gt;Node63</title>
<path fill="none" stroke="#191970" d="M67.301,-96.4677C83.4378,-77.1406 111.9243,-46.4776 143,-29 149.8049,-25.1728 157.4195,-22.0849 165.0525,-19.6028"/>
<polygon fill="#191970" stroke="#191970" points="64.5845,-94.2608 60.9801,-104.2238 70.0107,-98.6831 64.5845,-94.2608"/>
</g>
<!-- Node54 -->
<g id="node3" class="node">
<title>Node54</title>
<g id="a_node3"><a xlink:href="classSolver.html#af4c8f6565df94ed6a058a224196b9c2b" target="_top" xlink:title="Solver::step_to">
<polygon fill="none" stroke="#000000" points="349,-164.5 349,-183.5 432,-183.5 432,-164.5 349,-164.5"/>
<text text-anchor="middle" x="390.5" y="-171.5" font-family="Helvetica,sans-Serif" font-size="10.00" fill="#000000">Solver::step_to</text>
</a>
</g>
</g>
<!-- Node53&#45;&gt;Node54 -->
<g id="edge2" class="edge">
<title>Node53&#45;&gt;Node54</title>
<path fill="none" stroke="#191970" d="M267.9058,-200.2455C293.9796,-194.6635 324.6373,-188.1002 348.772,-182.9333"/>
<polygon fill="#191970" stroke="#191970" points="266.8365,-196.8951 257.7907,-202.411 268.3019,-203.74 266.8365,-196.8951"/>
</g>
<!-- Node55 -->
<g id="node4" class="node">
<title>Node55</title>
<g id="a_node4"><a xlink:href="classSolver.html#a06cf82d0a99490279ab20d2ad6b876db" target="_top" xlink:title="Solver::step_to">
<polygon fill="none" stroke="#000000" points="512,-164.5 512,-183.5 595,-183.5 595,-164.5 512,-164.5"/>
<text text-anchor="middle" x="553.5" y="-171.5" font-family="Helvetica,sans-Serif" font-size="10.00" fill="#000000">Solver::step_to</text>
</a>
</g>
</g>
<!-- Node54&#45;&gt;Node55 -->
<g id="edge3" class="edge">
<title>Node54&#45;&gt;Node55</title>
<path fill="none" stroke="#191970" d="M442.094,-174C464.5502,-174 490.5233,-174 511.7392,-174"/>
<polygon fill="#191970" stroke="#191970" points="442.0536,-170.5001 432.0535,-174 442.0535,-177.5001 442.0536,-170.5001"/>
</g>
<!-- Node56&#45;&gt;Node54 -->
<g id="edge5" class="edge">
<title>Node56&#45;&gt;Node54</title>
<path fill="none" stroke="#191970" d="M282.7537,-174C305.1628,-174 329.2672,-174 348.9831,-174"/>
<polygon fill="#191970" stroke="#191970" points="282.5987,-170.5001 272.5987,-174 282.5987,-177.5001 282.5987,-170.5001"/>
</g>
<!-- Node57&#45;&gt;Node54 -->
<g id="edge7" class="edge">
<title>Node57&#45;&gt;Node54</title>
<path fill="none" stroke="#191970" d="M267.9058,-147.7545C293.9796,-153.3365 324.6373,-159.8998 348.772,-165.0667"/>
<polygon fill="#191970" stroke="#191970" points="268.3019,-144.26 257.7907,-145.589 266.8365,-151.1049 268.3019,-144.26"/>
</g>
<!-- Node60 -->
<g id="node9" class="node">
<title>Node60</title>
<g id="a_node9"><a xlink:href="classSolver.html#aa5f2d1d48f6b4db83dbb257325924d2c" target="_top" xlink:title="Solver::calcSpeciesBirthFlux">
<polygon fill="none" stroke="#000000" points="319,-38.5 319,-57.5 462,-57.5 462,-38.5 319,-38.5"/>
<text text-anchor="middle" x="390.5" y="-45.5" font-family="Helvetica,sans-Serif" font-size="10.00" fill="#000000">Solver::calcSpeciesBirthFlux</text>
</a>
</g>
</g>
<!-- Node59&#45;&gt;Node60 -->
<g id="edge10" class="edge">
<title>Node59&#45;&gt;Node60</title>
<path fill="none" stroke="#191970" d="M272.4967,-48C287.3355,-48 303.4028,-48 318.7637,-48"/>
<polygon fill="#191970" stroke="#191970" points="272.4437,-44.5001 262.4436,-48 272.4436,-51.5001 272.4437,-44.5001"/>
</g>
<!-- Node61 -->
<g id="node10" class="node">
<title>Node61</title>
<g id="a_node10"><a xlink:href="classSolver.html#ae9cbf50e5db34626f54298c75fc64188" target="_top" xlink:title="Solver::newborns_out">
<polygon fill="none" stroke="#000000" points="498,-38.5 498,-57.5 609,-57.5 609,-38.5 498,-38.5"/>
<text text-anchor="middle" x="553.5" y="-45.5" font-family="Helvetica,sans-Serif" font-size="10.00" fill="#000000">Solver::newborns_out</text>
</a>
</g>
</g>
<!-- Node60&#45;&gt;Node61 -->
<g id="edge11" class="edge">
<title>Node60&#45;&gt;Node61</title>
<path fill="none" stroke="#191970" d="M472.718,-48C481.1363,-48 489.5443,-48 497.5828,-48"/>
<polygon fill="#191970" stroke="#191970" points="472.4687,-44.5001 462.4686,-48 472.4686,-51.5001 472.4687,-44.5001"/>
</g>
<!-- Node62 -->
<g id="node11" class="node">
<title>Node62</title>
<g id="a_node11"><a xlink:href="classSolver.html#a40c9ebb8d585e07d8f65c4ac5ada6420" target="_top" xlink:title="Solver::u0_out">
<polygon fill="none" stroke="#000000" points="645,-38.5 645,-57.5 725,-57.5 725,-38.5 645,-38.5"/>
<text text-anchor="middle" x="685" y="-45.5" font-family="Helvetica,sans-Serif" font-size="10.00" fill="#000000">Solver::u0_out</text>
</a>
</g>
</g>
<!-- Node61&#45;&gt;Node62 -->
<g id="edge12" class="edge">
<title>Node61&#45;&gt;Node62</title>
<path fill="none" stroke="#191970" d="M619.3788,-48C628.0211,-48 636.6605,-48 644.6996,-48"/>
<polygon fill="#191970" stroke="#191970" points="619.2679,-44.5001 609.2678,-48 619.2678,-51.5001 619.2679,-44.5001"/>
</g>
</g>
</svg>
