<?xml version="1.0" encoding="UTF-8" standalone="no"?>
<!DOCTYPE svg PUBLIC "-//W3C//DTD SVG 1.1//EN"
 "http://www.w3.org/Graphics/SVG/1.1/DTD/svg11.dtd">
<!-- Generated by graphviz version 2.40.1 (20161225.0304)
 -->
<!-- Title: LSODA::dgefa Pages: 1 -->
<svg width="1088pt" height="28pt"
 viewBox="0.00 0.00 1088.00 28.00" xmlns="http://www.w3.org/2000/svg" xmlns:xlink="http://www.w3.org/1999/xlink">
<g id="graph0" class="graph" transform="scale(1 1) rotate(0) translate(4 24)">
<title>LSODA::dgefa</title>
<!-- Node44 -->
<g id="node1" class="node">
<title>Node44</title>
<polygon fill="#bfbfbf" stroke="#000000" points="0,-.5 0,-19.5 80,-19.5 80,-.5 0,-.5"/>
<text text-anchor="middle" x="40" y="-7.5" font-family="Helvetica,sans-Serif" font-size="10.00" fill="#000000">LSODA::dgefa</text>
</g>
<!-- Node45 -->
<g id="node2" class="node">
<title>Node45</title>
<g id="a_node2"><a xlink:href="classLSODA.html#a87757b30f48356ff9c77bf587ebb16d8" target="_top" xlink:title="LSODA::prja">
<polygon fill="none" stroke="#000000" points="116,-.5 116,-19.5 188,-19.5 188,-.5 116,-.5"/>
<text text-anchor="middle" x="152" y="-7.5" font-family="Helvetica,sans-Serif" font-size="10.00" fill="#000000">LSODA::prja</text>
</a>
</g>
</g>
<!-- Node44&#45;&gt;Node45 -->
<g id="edge1" class="edge">
<title>Node44&#45;&gt;Node45</title>
<path fill="none" stroke="#191970" d="M90.1566,-10C98.8247,-10 107.6817,-10 115.8845,-10"/>
<polygon fill="#191970" stroke="#191970" points="90.1183,-6.5001 80.1182,-10 90.1182,-13.5001 90.1183,-6.5001"/>
</g>
<!-- Node46 -->
<g id="node3" class="node">
<title>Node46</title>
<g id="a_node3"><a xlink:href="classLSODA.html#ae5ebdebff330f29ef0c15bece1bf8299" target="_top" xlink:title="LSODA::correction">
<polygon fill="none" stroke="#000000" points="224,-.5 224,-19.5 323,-19.5 323,-.5 224,-.5"/>
<text text-anchor="middle" x="273.5" y="-7.5" font-family="Helvetica,sans-Serif" font-size="10.00" fill="#000000">LSODA::correction</text>
</a>
</g>
</g>
<!-- Node45&#45;&gt;Node46 -->
<g id="edge2" class="edge">
<title>Node45&#45;&gt;Node46</title>
<path fill="none" stroke="#191970" d="M198.3974,-10C206.7076,-10 215.3978,-10 223.7965,-10"/>
<polygon fill="#191970" stroke="#191970" points="198.1251,-6.5001 188.125,-10 198.125,-13.5001 198.1251,-6.5001"/>
</g>
<!-- Node47 -->
<g id="node4" class="node">
<title>Node47</title>
<g id="a_node4"><a xlink:href="classLSODA.html#a7c6d8d75b383474b5b05c710d2921618" target="_top" xlink:title="LSODA::stoda">
<polygon fill="none" stroke="#000000" points="359,-.5 359,-19.5 439,-19.5 439,-.5 359,-.5"/>
<text text-anchor="middle" x="399" y="-7.5" font-family="Helvetica,sans-Serif" font-size="10.00" fill="#000000">LSODA::stoda</text>
</a>
</g>
</g>
<!-- Node46&#45;&gt;Node47 -->
<g id="edge3" class="edge">
<title>Node46&#45;&gt;Node47</title>
<path fill="none" stroke="#191970" d="M333.1585,-10C341.7902,-10 350.5,-10 358.6326,-10"/>
<polygon fill="#191970" stroke="#191970" points="333.101,-6.5001 323.1009,-10 333.1009,-13.5001 333.101,-6.5001"/>
</g>
<!-- Node48 -->
<g id="node5" class="node">
<title>Node48</title>
<g id="a_node5"><a xlink:href="classLSODA.html#a705dcfe5b21827adb8871e48f2c72fb2" target="_top" xlink:title="LSODA::lsoda">
<polygon fill="none" stroke="#000000" points="475,-.5 475,-19.5 555,-19.5 555,-.5 475,-.5"/>
<text text-anchor="middle" x="515" y="-7.5" font-family="Helvetica,sans-Serif" font-size="10.00" fill="#000000">LSODA::lsoda</text>
</a>
</g>
</g>
<!-- Node47&#45;&gt;Node48 -->
<g id="edge4" class="edge">
<title>Node47&#45;&gt;Node48</title>
<path fill="none" stroke="#191970" d="M449.442,-10C457.9315,-10 466.6408,-10 474.8255,-10"/>
<polygon fill="#191970" stroke="#191970" points="449.2457,-6.5001 439.2456,-10 449.2456,-13.5001 449.2457,-6.5001"/>
</g>
<!-- Node49 -->
<g id="node6" class="node">
<title>Node49</title>
<g id="a_node6"><a xlink:href="classLSODA.html#a391e4d7bea026ad7c300cfb55cb290d1" target="_top" xlink:title="LSODA::lsoda_update">
<polygon fill="none" stroke="#000000" points="591,-.5 591,-19.5 705,-19.5 705,-.5 591,-.5"/>
<text text-anchor="middle" x="648" y="-7.5" font-family="Helvetica,sans-Serif" font-size="10.00" fill="#000000">LSODA::lsoda_update</text>
</a>
</g>
</g>
<!-- Node48&#45;&gt;Node49 -->
<g id="edge5" class="edge">
<title>Node48&#45;&gt;Node49</title>
<path fill="none" stroke="#191970" d="M565.4762,-10C573.7175,-10 582.3078,-10 590.6989,-10"/>
<polygon fill="#191970" stroke="#191970" points="565.2653,-6.5001 555.2653,-10 565.2653,-13.5001 565.2653,-6.5001"/>
</g>
<!-- Node50 -->
<g id="node7" class="node">
<title>Node50</title>
<g id="a_node7"><a xlink:href="classOdeSolver.html#a77d9f02ed28d5515366e6be08560f35a" target="_top" xlink:title="OdeSolver::step_to">
<polygon fill="none" stroke="#000000" points="741,-.5 741,-19.5 842,-19.5 842,-.5 741,-.5"/>
<text text-anchor="middle" x="791.5" y="-7.5" font-family="Helvetica,sans-Serif" font-size="10.00" fill="#000000">OdeSolver::step_to</text>
</a>
</g>
</g>
<!-- Node49&#45;&gt;Node50 -->
<g id="edge6" class="edge">
<title>Node49&#45;&gt;Node50</title>
<path fill="none" stroke="#191970" d="M715.3985,-10C723.8783,-10 732.4395,-10 740.6059,-10"/>
<polygon fill="#191970" stroke="#191970" points="715.1274,-6.5001 705.1273,-10 715.1273,-13.5001 715.1274,-6.5001"/>
</g>
<!-- Node51 -->
<g id="node8" class="node">
<title>Node51</title>
<g id="a_node8"><a xlink:href="classSolver.html#af4c8f6565df94ed6a058a224196b9c2b" target="_top" xlink:title="Solver::step_to">
<polygon fill="none" stroke="#000000" points="878,-.5 878,-19.5 961,-19.5 961,-.5 878,-.5"/>
<text text-anchor="middle" x="919.5" y="-7.5" font-family="Helvetica,sans-Serif" font-size="10.00" fill="#000000">Solver::step_to</text>
</a>
</g>
</g>
<!-- Node50&#45;&gt;Node51 -->
<g id="edge7" class="edge">
<title>Node50&#45;&gt;Node51</title>
<path fill="none" stroke="#191970" d="M852.2268,-10C860.9273,-10 869.7087,-10 877.9255,-10"/>
<polygon fill="#191970" stroke="#191970" points="852.089,-6.5001 842.089,-10 852.089,-13.5001 852.089,-6.5001"/>
</g>
<!-- Node52 -->
<g id="node9" class="node">
<title>Node52</title>
<g id="a_node9"><a xlink:href="classSolver.html#a06cf82d0a99490279ab20d2ad6b876db" target="_top" xlink:title="Solver::step_to">
<polygon fill="none" stroke="#000000" points="997,-.5 997,-19.5 1080,-19.5 1080,-.5 997,-.5"/>
<text text-anchor="middle" x="1038.5" y="-7.5" font-family="Helvetica,sans-Serif" font-size="10.00" fill="#000000">Solver::step_to</text>
</a>
</g>
</g>
<!-- Node51&#45;&gt;Node52 -->
<g id="edge8" class="edge">
<title>Node51&#45;&gt;Node52</title>
<path fill="none" stroke="#191970" d="M971.3174,-10C979.8022,-10 988.499,-10 996.7019,-10"/>
<polygon fill="#191970" stroke="#191970" points="971.1205,-6.5001 961.1204,-10 971.1204,-13.5001 971.1205,-6.5001"/>
</g>
</g>
</svg>
