<?xml version="1.0" encoding="UTF-8" standalone="no"?>
<!DOCTYPE svg PUBLIC "-//W3C//DTD SVG 1.1//EN"
 "http://www.w3.org/Graphics/SVG/1.1/DTD/svg11.dtd">
<!-- Generated by graphviz version 2.40.1 (20161225.0304)
 -->
<!-- Title: Solver::calcSpeciesBirthFlux Pages: 1 -->
<svg width="476pt" height="142pt"
 viewBox="0.00 0.00 476.00 142.00" xmlns="http://www.w3.org/2000/svg" xmlns:xlink="http://www.w3.org/1999/xlink">
<g id="graph0" class="graph" transform="scale(1 1) rotate(0) translate(4 138)">
<title>Solver::calcSpeciesBirthFlux</title>
<!-- Node61 -->
<g id="node1" class="node">
<title>Node61</title>
<polygon fill="#bfbfbf" stroke="#000000" points="0,-57.5 0,-76.5 143,-76.5 143,-57.5 0,-57.5"/>
<text text-anchor="middle" x="71.5" y="-64.5" font-family="Helvetica,sans-Serif" font-size="10.00" fill="#000000">Solver::calcSpeciesBirthFlux</text>
</g>
<!-- Node62 -->
<g id="node2" class="node">
<title>Node62</title>
<g id="a_node2"><a xlink:href="classSolver.html#a2a6ca7647a4cde1195789132f3873c0b" target="_top" xlink:title="Computes the integral &#160;for the specified species. For details, see integrate_wudx_above. ">
<polygon fill="none" stroke="#000000" points="179,-57.5 179,-76.5 277,-76.5 277,-57.5 179,-57.5"/>
<text text-anchor="middle" x="228" y="-64.5" font-family="Helvetica,sans-Serif" font-size="10.00" fill="#000000">Solver::integrate_x</text>
</a>
</g>
</g>
<!-- Node61&#45;&gt;Node62 -->
<g id="edge1" class="edge">
<title>Node61&#45;&gt;Node62</title>
<path fill="none" stroke="#191970" d="M143.3375,-67C151.9065,-67 160.5787,-67 168.9395,-67"/>
<polygon fill="#191970" stroke="#191970" points="168.9554,-70.5001 178.9554,-67 168.9553,-63.5001 168.9554,-70.5001"/>
</g>
<!-- Node63 -->
<g id="node3" class="node">
<title>Node63</title>
<g id="a_node3"><a xlink:href="classSpecies__Base.html#ad412522fc071525a19f95609880b20ff" target="_top" xlink:title="Species_Base::getU">
<polygon fill="none" stroke="#000000" points="337,-114.5 337,-133.5 444,-133.5 444,-114.5 337,-114.5"/>
<text text-anchor="middle" x="390.5" y="-121.5" font-family="Helvetica,sans-Serif" font-size="10.00" fill="#000000">Species_Base::getU</text>
</a>
</g>
</g>
<!-- Node62&#45;&gt;Node63 -->
<g id="edge2" class="edge">
<title>Node62&#45;&gt;Node63</title>
<path fill="none" stroke="#191970" d="M246.8461,-76.6077C263.8138,-84.97 289.6061,-96.9762 313,-105 320.2788,-107.4965 328.0477,-109.8042 335.7512,-111.8874"/>
<polygon fill="#191970" stroke="#191970" points="334.8733,-115.2755 345.4322,-114.4035 336.6342,-108.5005 334.8733,-115.2755"/>
</g>
<!-- Node64 -->
<g id="node4" class="node">
<title>Node64</title>
<g id="a_node4"><a xlink:href="classSpecies__Base.html#aa6880c6f5c8ff125cab4d1195dedfb13" target="_top" xlink:title="Species_Base::getX">
<polygon fill="none" stroke="#000000" points="337.5,-76.5 337.5,-95.5 443.5,-95.5 443.5,-76.5 337.5,-76.5"/>
<text text-anchor="middle" x="390.5" y="-83.5" font-family="Helvetica,sans-Serif" font-size="10.00" fill="#000000">Species_Base::getX</text>
</a>
</g>
</g>
<!-- Node62&#45;&gt;Node64 -->
<g id="edge3" class="edge">
<title>Node62&#45;&gt;Node64</title>
<path fill="none" stroke="#191970" d="M277.1963,-72.7522C292.9001,-74.5883 310.5064,-76.6469 327.0729,-78.5839"/>
<polygon fill="#191970" stroke="#191970" points="326.8884,-82.0861 337.2273,-79.7712 327.7014,-75.1335 326.8884,-82.0861"/>
</g>
<!-- Node65 -->
<g id="node5" class="node">
<title>Node65</title>
<g id="a_node5"><a xlink:href="classSpecies__Base.html#a86a04ae53b3f25c4e90b01a8eaed3bfd" target="_top" xlink:title="Species_Base::setX">
<polygon fill="none" stroke="#000000" points="337.5,-38.5 337.5,-57.5 443.5,-57.5 443.5,-38.5 337.5,-38.5"/>
<text text-anchor="middle" x="390.5" y="-45.5" font-family="Helvetica,sans-Serif" font-size="10.00" fill="#000000">Species_Base::setX</text>
</a>
</g>
</g>
<!-- Node62&#45;&gt;Node65 -->
<g id="edge4" class="edge">
<title>Node62&#45;&gt;Node65</title>
<path fill="none" stroke="#191970" d="M277.1963,-61.2478C292.9001,-59.4117 310.5064,-57.3531 327.0729,-55.4161"/>
<polygon fill="#191970" stroke="#191970" points="327.7014,-58.8665 337.2273,-54.2288 326.8884,-51.9139 327.7014,-58.8665"/>
</g>
<!-- Node66 -->
<g id="node6" class="node">
<title>Node66</title>
<g id="a_node6"><a xlink:href="classSpecies__Base.html#a191930a24322d8df293e759943d156fa" target="_top" xlink:title="Species_Base::get_boundary_u">
<polygon fill="none" stroke="#000000" points="313,-.5 313,-19.5 468,-19.5 468,-.5 313,-.5"/>
<text text-anchor="middle" x="390.5" y="-7.5" font-family="Helvetica,sans-Serif" font-size="10.00" fill="#000000">Species_Base::get_boundary_u</text>
</a>
</g>
</g>
<!-- Node62&#45;&gt;Node66 -->
<g id="edge5" class="edge">
<title>Node62&#45;&gt;Node66</title>
<path fill="none" stroke="#191970" d="M246.8461,-57.3923C263.8138,-49.03 289.6061,-37.0238 313,-29 320.2788,-26.5035 328.0477,-24.1958 335.7512,-22.1126"/>
<polygon fill="#191970" stroke="#191970" points="336.6342,-25.4995 345.4322,-19.5965 334.8733,-18.7245 336.6342,-25.4995"/>
</g>
</g>
</svg>
