<?xml version="1.0" encoding="UTF-8" standalone="no"?>
<!DOCTYPE svg PUBLIC "-//W3C//DTD SVG 1.1//EN"
 "http://www.w3.org/Graphics/SVG/1.1/DTD/svg11.dtd">
<!-- Generated by graphviz version 2.40.1 (20161225.0304)
 -->
<!-- Title: RKCK45::RKTry Pages: 1 -->
<svg width="383pt" height="75pt"
 viewBox="0.00 0.00 383.00 75.00" xmlns="http://www.w3.org/2000/svg" xmlns:xlink="http://www.w3.org/1999/xlink">
<g id="graph0" class="graph" transform="scale(1 1) rotate(0) translate(4 71)">
<title>RKCK45::RKTry</title>
<!-- Node53 -->
<g id="node1" class="node">
<title>Node53</title>
<polygon fill="#bfbfbf" stroke="#000000" points="0,-28.5 0,-47.5 90,-47.5 90,-28.5 0,-28.5"/>
<text text-anchor="middle" x="45" y="-35.5" font-family="Helvetica,sans-Serif" font-size="10.00" fill="#000000">RKCK45::RKTry</text>
</g>
<!-- Node54 -->
<g id="node2" class="node">
<title>Node54</title>
<g id="a_node2"><a xlink:href="classRKCK45.html#a8779263975ee2b9cc3c37bd024e8b658" target="_top" xlink:title="RKCK45::size">
<polygon fill="none" stroke="#000000" points="276.5,-47.5 276.5,-66.5 356.5,-66.5 356.5,-47.5 276.5,-47.5"/>
<text text-anchor="middle" x="316.5" y="-54.5" font-family="Helvetica,sans-Serif" font-size="10.00" fill="#000000">RKCK45::size</text>
</a>
</g>
</g>
<!-- Node53&#45;&gt;Node54 -->
<g id="edge1" class="edge">
<title>Node53&#45;&gt;Node54</title>
<path fill="none" stroke="#191970" d="M87.7627,-49.9702C100.0098,-52.8679 113.4451,-55.5472 126,-57 177.5803,-62.9685 237.5438,-61.6163 276.208,-59.6778"/>
<polygon fill="#191970" stroke="#191970" points="88.3478,-46.5095 77.8,-47.5069 86.6676,-53.3049 88.3478,-46.5095"/>
</g>
<!-- Node55 -->
<g id="node3" class="node">
<title>Node55</title>
<g id="a_node3"><a xlink:href="classRKCK45.html#a5c883118b935daa56c54f9a39f247b7e" target="_top" xlink:title="RKCK45::get_fn_evals">
<polygon fill="none" stroke="#000000" points="258,-.5 258,-19.5 375,-19.5 375,-.5 258,-.5"/>
<text text-anchor="middle" x="316.5" y="-7.5" font-family="Helvetica,sans-Serif" font-size="10.00" fill="#000000">RKCK45::get_fn_evals</text>
</a>
</g>
</g>
<!-- Node53&#45;&gt;Node55 -->
<g id="edge2" class="edge">
<title>Node53&#45;&gt;Node55</title>
<path fill="none" stroke="#191970" d="M89.4854,-26.0216C101.2754,-23.2722 114.0506,-20.6694 126,-19 169.9404,-12.8613 220.0752,-10.6832 257.8805,-10.0013"/>
<polygon fill="#191970" stroke="#191970" points="88.3204,-22.7024 79.4238,-28.4557 89.9664,-29.5062 88.3204,-22.7024"/>
</g>
<!-- Node56 -->
<g id="node4" class="node">
<title>Node56</title>
<g id="a_node4"><a xlink:href="classRKCK45.html#a9ce8515e634e6937f8587d280d18d18a" target="_top" xlink:title="RKCK45::RKStep">
<polygon fill="none" stroke="#000000" points="126,-28.5 126,-47.5 222,-47.5 222,-28.5 126,-28.5"/>
<text text-anchor="middle" x="174" y="-35.5" font-family="Helvetica,sans-Serif" font-size="10.00" fill="#000000">RKCK45::RKStep</text>
</a>
</g>
</g>
<!-- Node53&#45;&gt;Node56 -->
<g id="edge3" class="edge">
<title>Node53&#45;&gt;Node56</title>
<path fill="none" stroke="#191970" d="M100.2594,-31.312C108.6938,-31.1982 117.3435,-31.2411 125.6154,-31.4409"/>
<polygon fill="#191970" stroke="#191970" points="100.0409,-27.8157 90.1179,-31.5285 100.1904,-34.8141 100.0409,-27.8157"/>
</g>
<!-- Node56&#45;&gt;Node53 -->
<g id="edge6" class="edge">
<title>Node56&#45;&gt;Node53</title>
<path fill="none" stroke="#191970" d="M115.378,-44.725C106.897,-44.7973 98.2793,-44.7128 90.1179,-44.4715"/>
<polygon fill="#191970" stroke="#191970" points="115.6734,-48.2208 125.6154,-44.5591 115.5599,-41.2217 115.6734,-48.2208"/>
</g>
<!-- Node56&#45;&gt;Node54 -->
<g id="edge4" class="edge">
<title>Node56&#45;&gt;Node54</title>
<path fill="none" stroke="#191970" d="M232.3336,-45.7778C247.1324,-47.751 262.7003,-49.8267 276.3672,-51.649"/>
<polygon fill="#191970" stroke="#191970" points="232.6189,-42.285 222.244,-44.4325 231.6937,-49.2236 232.6189,-42.285"/>
</g>
<!-- Node56&#45;&gt;Node55 -->
<g id="edge5" class="edge">
<title>Node56&#45;&gt;Node55</title>
<path fill="none" stroke="#191970" d="M232.0674,-26.5903C243.9396,-24.2575 256.3179,-21.8253 267.8208,-19.565"/>
<polygon fill="#191970" stroke="#191970" points="231.3815,-23.158 222.244,-28.5205 232.7312,-30.0267 231.3815,-23.158"/>
</g>
</g>
</svg>
