<?xml version="1.0" encoding="UTF-8" standalone="no"?>
<!DOCTYPE svg PUBLIC "-//W3C//DTD SVG 1.1//EN"
 "http://www.w3.org/Graphics/SVG/1.1/DTD/svg11.dtd">
<!-- Generated by graphviz version 2.40.1 (20161225.0304)
 -->
<!-- Title: RKCK45&lt; container &gt; Pages: 1 -->
<svg width="121pt" height="172pt"
 viewBox="0.00 0.00 121.00 172.00" xmlns="http://www.w3.org/2000/svg" xmlns:xlink="http://www.w3.org/1999/xlink">
<g id="graph0" class="graph" transform="scale(1 1) rotate(0) translate(4 168)">
<title>RKCK45&lt; container &gt;</title>
<!-- Node1 -->
<g id="node1" class="node">
<title>Node1</title>
<polygon fill="#bfbfbf" stroke="#000000" points="0,-.5 0,-19.5 113,-19.5 113,-.5 0,-.5"/>
<text text-anchor="middle" x="56.5" y="-7.5" font-family="Helvetica,sans-Serif" font-size="10.00" fill="#000000">RKCK45&lt; container &gt;</text>
</g>
<!-- Node2 -->
<g id="node2" class="node">
<title>Node2</title>
<polygon fill="none" stroke="#bfbfbf" points="1.5,-144.5 1.5,-163.5 111.5,-163.5 111.5,-144.5 1.5,-144.5"/>
<text text-anchor="middle" x="56.5" y="-151.5" font-family="Helvetica,sans-Serif" font-size="10.00" fill="#000000">std::vector&lt; double &gt;</text>
</g>
<!-- Node2&#45;&gt;Node1 -->
<g id="edge1" class="edge">
<title>Node2&#45;&gt;Node1</title>
<path fill="none" stroke="#9a32cd" stroke-dasharray="5,2" d="M56.5,-133.9129C56.5,-102.4665 56.5,-42.8094 56.5,-19.5877"/>
<polygon fill="#9a32cd" stroke="#9a32cd" points="53.0001,-134.1023 56.5,-144.1023 60.0001,-134.1023 53.0001,-134.1023"/>
<text text-anchor="middle" x="69" y="-118" font-family="Helvetica,sans-Serif" font-size="10.00" fill="#000000"> dydx</text>
<text text-anchor="middle" x="69" y="-107" font-family="Helvetica,sans-Serif" font-size="10.00" fill="#000000">k1</text>
<text text-anchor="middle" x="69" y="-96" font-family="Helvetica,sans-Serif" font-size="10.00" fill="#000000">k2</text>
<text text-anchor="middle" x="69" y="-85" font-family="Helvetica,sans-Serif" font-size="10.00" fill="#000000">yt</text>
<text text-anchor="middle" x="69" y="-74" font-family="Helvetica,sans-Serif" font-size="10.00" fill="#000000">k3</text>
<text text-anchor="middle" x="69" y="-63" font-family="Helvetica,sans-Serif" font-size="10.00" fill="#000000">k4</text>
<text text-anchor="middle" x="69" y="-52" font-family="Helvetica,sans-Serif" font-size="10.00" fill="#000000">k5</text>
<text text-anchor="middle" x="69" y="-41" font-family="Helvetica,sans-Serif" font-size="10.00" fill="#000000">yscal</text>
</g>
</g>
</svg>
