<?xml version="1.0" encoding="UTF-8" standalone="no"?>
<!DOCTYPE svg PUBLIC "-//W3C//DTD SVG 1.1//EN"
 "http://www.w3.org/Graphics/SVG/1.1/DTD/svg11.dtd">
<!-- Generated by graphviz version 2.40.1 (20161225.0304)
 -->
<!-- Title: Solver::newborns_out Pages: 1 -->
<svg width="680pt" height="142pt"
 viewBox="0.00 0.00 680.00 142.00" xmlns="http://www.w3.org/2000/svg" xmlns:xlink="http://www.w3.org/1999/xlink">
<g id="graph0" class="graph" transform="scale(1 1) rotate(0) translate(4 138)">
<title>Solver::newborns_out</title>
<!-- Node122 -->
<g id="node1" class="node">
<title>Node122</title>
<polygon fill="#bfbfbf" stroke="#000000" points="0,-76.5 0,-95.5 111,-95.5 111,-76.5 0,-76.5"/>
<text text-anchor="middle" x="55.5" y="-83.5" font-family="Helvetica,sans-Serif" font-size="10.00" fill="#000000">Solver::newborns_out</text>
</g>
<!-- Node123 -->
<g id="node2" class="node">
<title>Node123</title>
<g id="a_node2"><a xlink:href="classSolver.html#ac737953d0d5a3ade1893f1f80b3f4791" target="_top" xlink:title="Solver::updateEnv">
<polygon fill="none" stroke="#000000" points="170,-95.5 170,-114.5 267,-114.5 267,-95.5 170,-95.5"/>
<text text-anchor="middle" x="218.5" y="-102.5" font-family="Helvetica,sans-Serif" font-size="10.00" fill="#000000">Solver::updateEnv</text>
</a>
</g>
</g>
<!-- Node122&#45;&gt;Node123 -->
<g id="edge1" class="edge">
<title>Node122&#45;&gt;Node123</title>
<path fill="none" stroke="#191970" d="M111.1395,-92.4856C126.7999,-94.311 143.8815,-96.3021 159.7192,-98.1482"/>
<polygon fill="#191970" stroke="#191970" points="159.5817,-101.6558 169.9197,-99.3373 160.3922,-94.7029 159.5817,-101.6558"/>
</g>
<!-- Node125 -->
<g id="node4" class="node">
<title>Node125</title>
<g id="a_node4"><a xlink:href="classSolver.html#aa5f2d1d48f6b4db83dbb257325924d2c" target="_top" xlink:title="Solver::calcSpeciesBirthFlux">
<polygon fill="none" stroke="#000000" points="147,-57.5 147,-76.5 290,-76.5 290,-57.5 147,-57.5"/>
<text text-anchor="middle" x="218.5" y="-64.5" font-family="Helvetica,sans-Serif" font-size="10.00" fill="#000000">Solver::calcSpeciesBirthFlux</text>
</a>
</g>
</g>
<!-- Node122&#45;&gt;Node125 -->
<g id="edge3" class="edge">
<title>Node122&#45;&gt;Node125</title>
<path fill="none" stroke="#191970" d="M111.1395,-79.5144C119.4254,-78.5486 128.1092,-77.5363 136.7961,-76.5238"/>
<polygon fill="#191970" stroke="#191970" points="137.4441,-79.972 146.9715,-75.3377 136.6335,-73.0191 137.4441,-79.972"/>
</g>
<!-- Node124 -->
<g id="node3" class="node">
<title>Node124</title>
<g id="a_node3"><a xlink:href="classEnvironmentBase.html#aab04d5438741c4f04d09514bac07348c" target="_top" xlink:title="EnvironmentBase::computeEnv">
<polygon fill="none" stroke="#000000" points="326,-95.5 326,-114.5 481,-114.5 481,-95.5 326,-95.5"/>
<text text-anchor="middle" x="403.5" y="-102.5" font-family="Helvetica,sans-Serif" font-size="10.00" fill="#000000">EnvironmentBase::computeEnv</text>
</a>
</g>
</g>
<!-- Node123&#45;&gt;Node124 -->
<g id="edge2" class="edge">
<title>Node123&#45;&gt;Node124</title>
<path fill="none" stroke="#191970" d="M267.1066,-105C282.0006,-105 298.8712,-105 315.5444,-105"/>
<polygon fill="#191970" stroke="#191970" points="315.881,-108.5001 325.8809,-105 315.8809,-101.5001 315.881,-108.5001"/>
</g>
<!-- Node126 -->
<g id="node5" class="node">
<title>Node126</title>
<g id="a_node5"><a xlink:href="classSolver.html#a2a6ca7647a4cde1195789132f3873c0b" target="_top" xlink:title="Computes the integral &#160;for the specified species. For details, see integrate_wudx_above. ">
<polygon fill="none" stroke="#000000" points="354.5,-57.5 354.5,-76.5 452.5,-76.5 452.5,-57.5 354.5,-57.5"/>
<text text-anchor="middle" x="403.5" y="-64.5" font-family="Helvetica,sans-Serif" font-size="10.00" fill="#000000">Solver::integrate_x</text>
</a>
</g>
</g>
<!-- Node125&#45;&gt;Node126 -->
<g id="edge4" class="edge">
<title>Node125&#45;&gt;Node126</title>
<path fill="none" stroke="#191970" d="M290.0258,-67C307.8766,-67 326.8275,-67 344.0252,-67"/>
<polygon fill="#191970" stroke="#191970" points="344.4811,-70.5001 354.4811,-67 344.481,-63.5001 344.4811,-70.5001"/>
</g>
<!-- Node127 -->
<g id="node6" class="node">
<title>Node127</title>
<g id="a_node6"><a xlink:href="classSpecies__Base.html#ad412522fc071525a19f95609880b20ff" target="_top" xlink:title="Species_Base::getU">
<polygon fill="none" stroke="#000000" points="541,-114.5 541,-133.5 648,-133.5 648,-114.5 541,-114.5"/>
<text text-anchor="middle" x="594.5" y="-121.5" font-family="Helvetica,sans-Serif" font-size="10.00" fill="#000000">Species_Base::getU</text>
</a>
</g>
</g>
<!-- Node126&#45;&gt;Node127 -->
<g id="edge5" class="edge">
<title>Node126&#45;&gt;Node127</title>
<path fill="none" stroke="#191970" d="M450.3758,-76.5302C460.6135,-79.1521 471.2872,-82.3105 481,-86 497.9126,-92.4243 500.0874,-98.5757 517,-105 523.6776,-107.5365 530.8093,-109.822 537.9412,-111.8548"/>
<polygon fill="#191970" stroke="#191970" points="537.0575,-115.2414 547.6242,-114.4698 538.8827,-108.4836 537.0575,-115.2414"/>
</g>
<!-- Node128 -->
<g id="node7" class="node">
<title>Node128</title>
<g id="a_node7"><a xlink:href="classSpecies__Base.html#aa6880c6f5c8ff125cab4d1195dedfb13" target="_top" xlink:title="Species_Base::getX">
<polygon fill="none" stroke="#000000" points="541.5,-76.5 541.5,-95.5 647.5,-95.5 647.5,-76.5 541.5,-76.5"/>
<text text-anchor="middle" x="594.5" y="-83.5" font-family="Helvetica,sans-Serif" font-size="10.00" fill="#000000">Species_Base::getX</text>
</a>
</g>
</g>
<!-- Node126&#45;&gt;Node128 -->
<g id="edge6" class="edge">
<title>Node126&#45;&gt;Node128</title>
<path fill="none" stroke="#191970" d="M452.6872,-71.893C476.6915,-74.2808 505.8465,-77.1811 531.464,-79.7294"/>
<polygon fill="#191970" stroke="#191970" points="531.161,-83.2165 541.4584,-80.7236 531.854,-76.2508 531.161,-83.2165"/>
</g>
<!-- Node129 -->
<g id="node8" class="node">
<title>Node129</title>
<g id="a_node8"><a xlink:href="classSpecies__Base.html#a86a04ae53b3f25c4e90b01a8eaed3bfd" target="_top" xlink:title="Species_Base::setX">
<polygon fill="none" stroke="#000000" points="541.5,-38.5 541.5,-57.5 647.5,-57.5 647.5,-38.5 541.5,-38.5"/>
<text text-anchor="middle" x="594.5" y="-45.5" font-family="Helvetica,sans-Serif" font-size="10.00" fill="#000000">Species_Base::setX</text>
</a>
</g>
</g>
<!-- Node126&#45;&gt;Node129 -->
<g id="edge7" class="edge">
<title>Node126&#45;&gt;Node129</title>
<path fill="none" stroke="#191970" d="M452.6872,-62.107C476.6915,-59.7192 505.8465,-56.8189 531.464,-54.2706"/>
<polygon fill="#191970" stroke="#191970" points="531.854,-57.7492 541.4584,-53.2764 531.161,-50.7835 531.854,-57.7492"/>
</g>
<!-- Node130 -->
<g id="node9" class="node">
<title>Node130</title>
<g id="a_node9"><a xlink:href="classSpecies__Base.html#a191930a24322d8df293e759943d156fa" target="_top" xlink:title="Species_Base::get_boundary_u">
<polygon fill="none" stroke="#000000" points="517,-.5 517,-19.5 672,-19.5 672,-.5 517,-.5"/>
<text text-anchor="middle" x="594.5" y="-7.5" font-family="Helvetica,sans-Serif" font-size="10.00" fill="#000000">Species_Base::get_boundary_u</text>
</a>
</g>
</g>
<!-- Node126&#45;&gt;Node130 -->
<g id="edge8" class="edge">
<title>Node126&#45;&gt;Node130</title>
<path fill="none" stroke="#191970" d="M429.9073,-57.4689C452.7869,-49.3772 486.8595,-37.724 517,-29 525.4115,-26.5653 534.3942,-24.1746 543.1531,-21.9545"/>
<polygon fill="#191970" stroke="#191970" points="544.0463,-25.3391 552.9048,-19.5272 542.3555,-18.5463 544.0463,-25.3391"/>
</g>
</g>
</svg>
