<?xml version="1.0" encoding="UTF-8" standalone="no"?>
<!DOCTYPE svg PUBLIC "-//W3C//DTD SVG 1.1//EN"
 "http://www.w3.org/Graphics/SVG/1.1/DTD/svg11.dtd">
<!-- Generated by graphviz version 2.40.1 (20161225.0304)
 -->
<!-- Title: Species::growthRateGradient Pages: 1 -->
<svg width="291pt" height="66pt"
 viewBox="0.00 0.00 291.00 66.00" xmlns="http://www.w3.org/2000/svg" xmlns:xlink="http://www.w3.org/1999/xlink">
<g id="graph0" class="graph" transform="scale(1 1) rotate(0) translate(4 62)">
<title>Species::growthRateGradient</title>
<!-- Node34 -->
<g id="node1" class="node">
<title>Node34</title>
<polygon fill="#bfbfbf" stroke="#000000" points="0,-19.5 0,-38.5 145,-38.5 145,-19.5 0,-19.5"/>
<text text-anchor="middle" x="72.5" y="-26.5" font-family="Helvetica,sans-Serif" font-size="10.00" fill="#000000">Species::growthRateGradient</text>
</g>
<!-- Node35 -->
<g id="node2" class="node">
<title>Node35</title>
<g id="a_node2"><a xlink:href="classCohort.html#af684d203ee2a31b98f767fd6f1362ae0" target="_top" xlink:title="Cohort::set_size">
<polygon fill="none" stroke="#000000" points="187.5,-38.5 187.5,-57.5 276.5,-57.5 276.5,-38.5 187.5,-38.5"/>
<text text-anchor="middle" x="232" y="-45.5" font-family="Helvetica,sans-Serif" font-size="10.00" fill="#000000">Cohort::set_size</text>
</a>
</g>
</g>
<!-- Node34&#45;&gt;Node35 -->
<g id="edge1" class="edge">
<title>Node34&#45;&gt;Node35</title>
<path fill="none" stroke="#191970" d="M145.2487,-37.666C155.9708,-38.9432 166.8629,-40.2407 177.1418,-41.4652"/>
<polygon fill="#191970" stroke="#191970" points="176.8436,-44.9543 187.1874,-42.6618 177.6716,-38.0034 176.8436,-44.9543"/>
</g>
<!-- Node36 -->
<g id="node3" class="node">
<title>Node36</title>
<g id="a_node3"><a xlink:href="classCohort.html#a2bcde3a746dea351fd36ffd77f7c8665" target="_top" xlink:title="Cohort::growthRate">
<polygon fill="none" stroke="#000000" points="181,-.5 181,-19.5 283,-19.5 283,-.5 181,-.5"/>
<text text-anchor="middle" x="232" y="-7.5" font-family="Helvetica,sans-Serif" font-size="10.00" fill="#000000">Cohort::growthRate</text>
</a>
</g>
</g>
<!-- Node34&#45;&gt;Node36 -->
<g id="edge2" class="edge">
<title>Node34&#45;&gt;Node36</title>
<path fill="none" stroke="#191970" d="M145.2487,-20.334C153.7768,-19.3181 162.4125,-18.2894 170.7617,-17.2949"/>
<polygon fill="#191970" stroke="#191970" points="171.2614,-20.7602 180.7772,-16.1018 170.4334,-13.8093 171.2614,-20.7602"/>
</g>
</g>
</svg>
