<?xml version="1.0" encoding="UTF-8" standalone="no"?>
<!DOCTYPE svg PUBLIC "-//W3C//DTD SVG 1.1//EN"
 "http://www.w3.org/Graphics/SVG/1.1/DTD/svg11.dtd">
<!-- Generated by graphviz version 2.40.1 (20161225.0304)
 -->
<!-- Title: LSODA::lsoda Pages: 1 -->
<svg width="613pt" height="28pt"
 viewBox="0.00 0.00 613.00 28.00" xmlns="http://www.w3.org/2000/svg" xmlns:xlink="http://www.w3.org/1999/xlink">
<g id="graph0" class="graph" transform="scale(1 1) rotate(0) translate(4 24)">
<title>LSODA::lsoda</title>
<!-- Node122 -->
<g id="node1" class="node">
<title>Node122</title>
<polygon fill="#bfbfbf" stroke="#000000" points="0,-.5 0,-19.5 80,-19.5 80,-.5 0,-.5"/>
<text text-anchor="middle" x="40" y="-7.5" font-family="Helvetica,sans-Serif" font-size="10.00" fill="#000000">LSODA::lsoda</text>
</g>
<!-- Node123 -->
<g id="node2" class="node">
<title>Node123</title>
<g id="a_node2"><a xlink:href="classLSODA.html#a391e4d7bea026ad7c300cfb55cb290d1" target="_top" xlink:title="LSODA::lsoda_update">
<polygon fill="none" stroke="#000000" points="116,-.5 116,-19.5 230,-19.5 230,-.5 116,-.5"/>
<text text-anchor="middle" x="173" y="-7.5" font-family="Helvetica,sans-Serif" font-size="10.00" fill="#000000">LSODA::lsoda_update</text>
</a>
</g>
</g>
<!-- Node122&#45;&gt;Node123 -->
<g id="edge1" class="edge">
<title>Node122&#45;&gt;Node123</title>
<path fill="none" stroke="#191970" d="M90.4762,-10C98.7175,-10 107.3078,-10 115.6989,-10"/>
<polygon fill="#191970" stroke="#191970" points="90.2653,-6.5001 80.2653,-10 90.2653,-13.5001 90.2653,-6.5001"/>
</g>
<!-- Node124 -->
<g id="node3" class="node">
<title>Node124</title>
<g id="a_node3"><a xlink:href="classOdeSolver.html#a77d9f02ed28d5515366e6be08560f35a" target="_top" xlink:title="OdeSolver::step_to">
<polygon fill="none" stroke="#000000" points="266,-.5 266,-19.5 367,-19.5 367,-.5 266,-.5"/>
<text text-anchor="middle" x="316.5" y="-7.5" font-family="Helvetica,sans-Serif" font-size="10.00" fill="#000000">OdeSolver::step_to</text>
</a>
</g>
</g>
<!-- Node123&#45;&gt;Node124 -->
<g id="edge2" class="edge">
<title>Node123&#45;&gt;Node124</title>
<path fill="none" stroke="#191970" d="M240.3985,-10C248.8783,-10 257.4395,-10 265.6059,-10"/>
<polygon fill="#191970" stroke="#191970" points="240.1274,-6.5001 230.1273,-10 240.1273,-13.5001 240.1274,-6.5001"/>
</g>
<!-- Node125 -->
<g id="node4" class="node">
<title>Node125</title>
<g id="a_node4"><a xlink:href="classSolver.html#af4c8f6565df94ed6a058a224196b9c2b" target="_top" xlink:title="Solver::step_to">
<polygon fill="none" stroke="#000000" points="403,-.5 403,-19.5 486,-19.5 486,-.5 403,-.5"/>
<text text-anchor="middle" x="444.5" y="-7.5" font-family="Helvetica,sans-Serif" font-size="10.00" fill="#000000">Solver::step_to</text>
</a>
</g>
</g>
<!-- Node124&#45;&gt;Node125 -->
<g id="edge3" class="edge">
<title>Node124&#45;&gt;Node125</title>
<path fill="none" stroke="#191970" d="M377.2268,-10C385.9273,-10 394.7087,-10 402.9255,-10"/>
<polygon fill="#191970" stroke="#191970" points="377.089,-6.5001 367.089,-10 377.089,-13.5001 377.089,-6.5001"/>
</g>
<!-- Node126 -->
<g id="node5" class="node">
<title>Node126</title>
<g id="a_node5"><a xlink:href="classSolver.html#a06cf82d0a99490279ab20d2ad6b876db" target="_top" xlink:title="Solver::step_to">
<polygon fill="none" stroke="#000000" points="522,-.5 522,-19.5 605,-19.5 605,-.5 522,-.5"/>
<text text-anchor="middle" x="563.5" y="-7.5" font-family="Helvetica,sans-Serif" font-size="10.00" fill="#000000">Solver::step_to</text>
</a>
</g>
</g>
<!-- Node125&#45;&gt;Node126 -->
<g id="edge4" class="edge">
<title>Node125&#45;&gt;Node126</title>
<path fill="none" stroke="#191970" d="M496.3174,-10C504.8022,-10 513.499,-10 521.7019,-10"/>
<polygon fill="#191970" stroke="#191970" points="496.1205,-6.5001 486.1204,-10 496.1204,-13.5001 496.1205,-6.5001"/>
</g>
</g>
</svg>
