<?xml version="1.0" encoding="UTF-8" standalone="no"?>
<!DOCTYPE svg PUBLIC "-//W3C//DTD SVG 1.1//EN"
 "http://www.w3.org/Graphics/SVG/1.1/DTD/svg11.dtd">
<!-- Generated by graphviz version 2.40.1 (20161225.0304)
 -->
<!-- Title: Species_Base::growthRate Pages: 1 -->
<svg width="540pt" height="142pt"
 viewBox="0.00 0.00 540.00 142.00" xmlns="http://www.w3.org/2000/svg" xmlns:xlink="http://www.w3.org/1999/xlink">
<g id="graph0" class="graph" transform="scale(1 1) rotate(0) translate(4 138)">
<title>Species_Base::growthRate</title>
<!-- Node78 -->
<g id="node1" class="node">
<title>Node78</title>
<polygon fill="#bfbfbf" stroke="#000000" points="0,-57.5 0,-76.5 136,-76.5 136,-57.5 0,-57.5"/>
<text text-anchor="middle" x="68" y="-64.5" font-family="Helvetica,sans-Serif" font-size="10.00" fill="#000000">Species_Base::growthRate</text>
</g>
<!-- Node79 -->
<g id="node2" class="node">
<title>Node79</title>
<g id="a_node2"><a xlink:href="classSolver.html#ab712f582d6f785adb8620cb40bbb3de4" target="_top" xlink:title="Solver::calcRates_CM">
<polygon fill="none" stroke="#000000" points="175,-114.5 175,-133.5 291,-133.5 291,-114.5 175,-114.5"/>
<text text-anchor="middle" x="233" y="-121.5" font-family="Helvetica,sans-Serif" font-size="10.00" fill="#000000">Solver::calcRates_CM</text>
</a>
</g>
</g>
<!-- Node78&#45;&gt;Node79 -->
<g id="edge1" class="edge">
<title>Node78&#45;&gt;Node79</title>
<path fill="none" stroke="#191970" d="M102.4964,-80.0794C122.6724,-87.6099 148.6829,-97.1139 172,-105 181.4567,-108.1983 191.8035,-111.4962 201.2458,-114.4282"/>
<polygon fill="#191970" stroke="#191970" points="103.6902,-76.7891 93.0979,-76.5568 101.2335,-83.3438 103.6902,-76.7891"/>
</g>
<!-- Node82 -->
<g id="node5" class="node">
<title>Node82</title>
<g id="a_node5"><a xlink:href="classSolver.html#a23be16428b7ba399bfd2f06555547f6b" target="_top" xlink:title="Solver::calcRates_EBT">
<polygon fill="none" stroke="#000000" points="173.5,-76.5 173.5,-95.5 292.5,-95.5 292.5,-76.5 173.5,-76.5"/>
<text text-anchor="middle" x="233" y="-83.5" font-family="Helvetica,sans-Serif" font-size="10.00" fill="#000000">Solver::calcRates_EBT</text>
</a>
</g>
</g>
<!-- Node78&#45;&gt;Node82 -->
<g id="edge4" class="edge">
<title>Node78&#45;&gt;Node82</title>
<path fill="none" stroke="#191970" d="M146.2627,-76.0121C155.3421,-77.0576 164.4902,-78.111 173.2654,-79.1215"/>
<polygon fill="#191970" stroke="#191970" points="146.3992,-72.5047 136.0644,-74.8377 145.5984,-79.4588 146.3992,-72.5047"/>
</g>
<!-- Node83 -->
<g id="node6" class="node">
<title>Node83</title>
<g id="a_node6"><a xlink:href="classSolver.html#a2ea9fb6abc4ffd5ac28154332029da40" target="_top" xlink:title="Solver::calcRates_FMU">
<polygon fill="none" stroke="#000000" points="172,-38.5 172,-57.5 294,-57.5 294,-38.5 172,-38.5"/>
<text text-anchor="middle" x="233" y="-45.5" font-family="Helvetica,sans-Serif" font-size="10.00" fill="#000000">Solver::calcRates_FMU</text>
</a>
</g>
</g>
<!-- Node78&#45;&gt;Node83 -->
<g id="edge6" class="edge">
<title>Node78&#45;&gt;Node83</title>
<path fill="none" stroke="#191970" d="M146.1763,-57.9979C154.8346,-57.0009 163.5566,-55.9965 171.9593,-55.0289"/>
<polygon fill="#191970" stroke="#191970" points="145.5984,-54.5412 136.0644,-59.1623 146.3992,-61.4953 145.5984,-54.5412"/>
</g>
<!-- Node84 -->
<g id="node7" class="node">
<title>Node84</title>
<g id="a_node7"><a xlink:href="classSolver.html#a8f96f44ff535452912b2a3a2fc43e60e" target="_top" xlink:title="Solver::stepU_iFMU">
<polygon fill="none" stroke="#000000" points="180,-.5 180,-19.5 286,-19.5 286,-.5 180,-.5"/>
<text text-anchor="middle" x="233" y="-7.5" font-family="Helvetica,sans-Serif" font-size="10.00" fill="#000000">Solver::stepU_iFMU</text>
</a>
</g>
</g>
<!-- Node78&#45;&gt;Node84 -->
<g id="edge8" class="edge">
<title>Node78&#45;&gt;Node84</title>
<path fill="none" stroke="#191970" d="M102.4964,-53.9206C122.6724,-46.3901 148.6829,-36.8861 172,-29 181.4567,-25.8017 191.8035,-22.5038 201.2458,-19.5718"/>
<polygon fill="#191970" stroke="#191970" points="101.2335,-50.6562 93.0979,-57.4432 103.6902,-57.2109 101.2335,-50.6562"/>
</g>
<!-- Node80 -->
<g id="node3" class="node">
<title>Node80</title>
<g id="a_node3"><a xlink:href="classSolver.html#af4c8f6565df94ed6a058a224196b9c2b" target="_top" xlink:title="Solver::step_to">
<polygon fill="none" stroke="#000000" points="330,-57.5 330,-76.5 413,-76.5 413,-57.5 330,-57.5"/>
<text text-anchor="middle" x="371.5" y="-64.5" font-family="Helvetica,sans-Serif" font-size="10.00" fill="#000000">Solver::step_to</text>
</a>
</g>
</g>
<!-- Node79&#45;&gt;Node80 -->
<g id="edge2" class="edge">
<title>Node79&#45;&gt;Node80</title>
<path fill="none" stroke="#191970" d="M276.6696,-111.2975C282.545,-109.3272 288.4545,-107.208 294,-105 315.1618,-96.5743 338.5158,-84.7577 353.9983,-76.5472"/>
<polygon fill="#191970" stroke="#191970" points="275.322,-108.0548 266.8841,-114.4621 277.4759,-114.7151 275.322,-108.0548"/>
</g>
<!-- Node81 -->
<g id="node4" class="node">
<title>Node81</title>
<g id="a_node4"><a xlink:href="classSolver.html#a06cf82d0a99490279ab20d2ad6b876db" target="_top" xlink:title="Solver::step_to">
<polygon fill="none" stroke="#000000" points="449,-57.5 449,-76.5 532,-76.5 532,-57.5 449,-57.5"/>
<text text-anchor="middle" x="490.5" y="-64.5" font-family="Helvetica,sans-Serif" font-size="10.00" fill="#000000">Solver::step_to</text>
</a>
</g>
</g>
<!-- Node80&#45;&gt;Node81 -->
<g id="edge3" class="edge">
<title>Node80&#45;&gt;Node81</title>
<path fill="none" stroke="#191970" d="M423.3174,-67C431.8022,-67 440.499,-67 448.7019,-67"/>
<polygon fill="#191970" stroke="#191970" points="423.1205,-63.5001 413.1204,-67 423.1204,-70.5001 423.1205,-63.5001"/>
</g>
<!-- Node82&#45;&gt;Node80 -->
<g id="edge5" class="edge">
<title>Node82&#45;&gt;Node80</title>
<path fill="none" stroke="#191970" d="M302.6498,-76.4452C311.9926,-75.1635 321.3257,-73.8831 329.9689,-72.6974"/>
<polygon fill="#191970" stroke="#191970" points="301.9717,-73.0053 292.5402,-77.832 302.9232,-79.9404 301.9717,-73.0053"/>
</g>
<!-- Node83&#45;&gt;Node80 -->
<g id="edge7" class="edge">
<title>Node83&#45;&gt;Node80</title>
<path fill="none" stroke="#191970" d="M304.0629,-57.7487C312.8539,-58.9547 321.6059,-60.1553 329.7517,-61.2728"/>
<polygon fill="#191970" stroke="#191970" points="304.5342,-54.2807 294.1513,-56.389 303.5828,-61.2157 304.5342,-54.2807"/>
</g>
<!-- Node84&#45;&gt;Node80 -->
<g id="edge9" class="edge">
<title>Node84&#45;&gt;Node80</title>
<path fill="none" stroke="#191970" d="M276.6696,-22.7025C282.545,-24.6728 288.4545,-26.792 294,-29 315.1618,-37.4257 338.5158,-49.2423 353.9983,-57.4528"/>
<polygon fill="#191970" stroke="#191970" points="277.4759,-19.2849 266.8841,-19.5379 275.322,-25.9452 277.4759,-19.2849"/>
</g>
</g>
</svg>
