<?xml version="1.0" encoding="UTF-8" standalone="no"?>
<!DOCTYPE svg PUBLIC "-//W3C//DTD SVG 1.1//EN"
 "http://www.w3.org/Graphics/SVG/1.1/DTD/svg11.dtd">
<!-- Generated by graphviz version 2.40.1 (20161225.0304)
 -->
<!-- Title: LSODA::correction Pages: 1 -->
<svg width="367pt" height="142pt"
 viewBox="0.00 0.00 367.00 142.00" xmlns="http://www.w3.org/2000/svg" xmlns:xlink="http://www.w3.org/1999/xlink">
<g id="graph0" class="graph" transform="scale(1 1) rotate(0) translate(4 138)">
<title>LSODA::correction</title>
<!-- Node25 -->
<g id="node1" class="node">
<title>Node25</title>
<polygon fill="#bfbfbf" stroke="#000000" points="0,-57.5 0,-76.5 99,-76.5 99,-57.5 0,-57.5"/>
<text text-anchor="middle" x="49.5" y="-64.5" font-family="Helvetica,sans-Serif" font-size="10.00" fill="#000000">LSODA::correction</text>
</g>
<!-- Node26 -->
<g id="node2" class="node">
<title>Node26</title>
<g id="a_node2"><a xlink:href="classLSODA.html#a87757b30f48356ff9c77bf587ebb16d8" target="_top" xlink:title="LSODA::prja">
<polygon fill="none" stroke="#000000" points="147,-76.5 147,-95.5 219,-95.5 219,-76.5 147,-76.5"/>
<text text-anchor="middle" x="183" y="-83.5" font-family="Helvetica,sans-Serif" font-size="10.00" fill="#000000">LSODA::prja</text>
</a>
</g>
</g>
<!-- Node25&#45;&gt;Node26 -->
<g id="edge1" class="edge">
<title>Node25&#45;&gt;Node26</title>
<path fill="none" stroke="#191970" d="M99.2105,-74.0749C111.3659,-75.8049 124.3293,-77.6499 136.3365,-79.3587"/>
<polygon fill="#191970" stroke="#191970" points="136.2043,-82.8751 146.5977,-80.8192 137.1907,-75.945 136.2043,-82.8751"/>
</g>
<!-- Node27 -->
<g id="node3" class="node">
<title>Node27</title>
<g id="a_node3"><a xlink:href="classLSODA.html#ac94b738016b2a7c57cedd5ea4f13311f" target="_top" xlink:title="LSODA::vmnorm">
<polygon fill="none" stroke="#000000" points="267,-114.5 267,-133.5 359,-133.5 359,-114.5 267,-114.5"/>
<text text-anchor="middle" x="313" y="-121.5" font-family="Helvetica,sans-Serif" font-size="10.00" fill="#000000">LSODA::vmnorm</text>
</a>
</g>
</g>
<!-- Node25&#45;&gt;Node27 -->
<g id="edge6" class="edge">
<title>Node25&#45;&gt;Node27</title>
<path fill="none" stroke="#191970" d="M66.5984,-76.517C83.4534,-85.4301 110.2126,-98.3454 135,-105 174.8854,-115.7079 221.3237,-120.4187 256.7655,-122.4732"/>
<polygon fill="#191970" stroke="#191970" points="256.7528,-125.9773 266.9228,-123.0072 257.1203,-118.9869 256.7528,-125.9773"/>
</g>
<!-- Node30 -->
<g id="node6" class="node">
<title>Node30</title>
<g id="a_node6"><a xlink:href="classLSODA.html#ac7effc5da52973a91cb3409012f172e7" target="_top" xlink:title="LSODA::corfailure">
<polygon fill="none" stroke="#000000" points="135,-38.5 135,-57.5 231,-57.5 231,-38.5 135,-38.5"/>
<text text-anchor="middle" x="183" y="-45.5" font-family="Helvetica,sans-Serif" font-size="10.00" fill="#000000">LSODA::corfailure</text>
</a>
</g>
</g>
<!-- Node25&#45;&gt;Node30 -->
<g id="edge5" class="edge">
<title>Node25&#45;&gt;Node30</title>
<path fill="none" stroke="#191970" d="M99.2105,-59.9251C107.4323,-58.755 116.0237,-57.5322 124.4388,-56.3346"/>
<polygon fill="#191970" stroke="#191970" points="125.1722,-59.7655 134.5793,-54.8913 124.1859,-52.8354 125.1722,-59.7655"/>
</g>
<!-- Node31 -->
<g id="node7" class="node">
<title>Node31</title>
<g id="a_node7"><a xlink:href="classLSODA.html#a5476113f8738e733652f1f6b02eaba3b" target="_top" xlink:title="LSODA::solsy">
<polygon fill="none" stroke="#000000" points="143,-.5 143,-19.5 223,-19.5 223,-.5 143,-.5"/>
<text text-anchor="middle" x="183" y="-7.5" font-family="Helvetica,sans-Serif" font-size="10.00" fill="#000000">LSODA::solsy</text>
</a>
</g>
</g>
<!-- Node25&#45;&gt;Node31 -->
<g id="edge7" class="edge">
<title>Node25&#45;&gt;Node31</title>
<path fill="none" stroke="#191970" d="M70.4769,-57.3868C87.7211,-49.5543 112.8343,-38.308 135,-29 139.4158,-27.1457 144.0795,-25.2377 148.6953,-23.3791"/>
<polygon fill="#191970" stroke="#191970" points="150.0147,-26.6211 158.0077,-19.6667 147.4225,-20.1187 150.0147,-26.6211"/>
</g>
<!-- Node26&#45;&gt;Node27 -->
<g id="edge2" class="edge">
<title>Node26&#45;&gt;Node27</title>
<path fill="none" stroke="#191970" d="M215.8045,-95.589C232.2783,-100.4044 252.4434,-106.2988 270.1273,-111.468"/>
<polygon fill="#191970" stroke="#191970" points="269.6256,-114.9677 280.206,-114.4141 271.5897,-108.2489 269.6256,-114.9677"/>
</g>
<!-- Node28 -->
<g id="node4" class="node">
<title>Node28</title>
<g id="a_node4"><a xlink:href="classLSODA.html#ab6221280caead6f45c316c261e8de713" target="_top" xlink:title="LSODA::fnorm">
<polygon fill="none" stroke="#000000" points="272.5,-76.5 272.5,-95.5 353.5,-95.5 353.5,-76.5 272.5,-76.5"/>
<text text-anchor="middle" x="313" y="-83.5" font-family="Helvetica,sans-Serif" font-size="10.00" fill="#000000">LSODA::fnorm</text>
</a>
</g>
</g>
<!-- Node26&#45;&gt;Node28 -->
<g id="edge3" class="edge">
<title>Node26&#45;&gt;Node28</title>
<path fill="none" stroke="#191970" d="M219.2122,-86C232.5124,-86 247.8277,-86 262.1746,-86"/>
<polygon fill="#191970" stroke="#191970" points="262.4075,-89.5001 272.4075,-86 262.4075,-82.5001 262.4075,-89.5001"/>
</g>
<!-- Node29 -->
<g id="node5" class="node">
<title>Node29</title>
<g id="a_node5"><a xlink:href="classLSODA.html#a9aade25a1818e2af775a17a1ed2ba4f9" target="_top" xlink:title="LSODA::dgefa">
<polygon fill="none" stroke="#000000" points="273,-38.5 273,-57.5 353,-57.5 353,-38.5 273,-38.5"/>
<text text-anchor="middle" x="313" y="-45.5" font-family="Helvetica,sans-Serif" font-size="10.00" fill="#000000">LSODA::dgefa</text>
</a>
</g>
</g>
<!-- Node26&#45;&gt;Node29 -->
<g id="edge4" class="edge">
<title>Node26&#45;&gt;Node29</title>
<path fill="none" stroke="#191970" d="M215.8045,-76.411C232.2783,-71.5956 252.4434,-65.7012 270.1273,-60.532"/>
<polygon fill="#191970" stroke="#191970" points="271.5897,-63.7511 280.206,-57.5859 269.6256,-57.0323 271.5897,-63.7511"/>
</g>
</g>
</svg>
