<?xml version="1.0" encoding="UTF-8" standalone="no"?>
<!DOCTYPE svg PUBLIC "-//W3C//DTD SVG 1.1//EN"
 "http://www.w3.org/Graphics/SVG/1.1/DTD/svg11.dtd">
<!-- Generated by graphviz version 2.40.1 (20161225.0304)
 -->
<!-- Title: EnvironmentBase::computeEnv Pages: 1 -->
<svg width="648pt" height="85pt"
 viewBox="0.00 0.00 648.00 85.00" xmlns="http://www.w3.org/2000/svg" xmlns:xlink="http://www.w3.org/1999/xlink">
<g id="graph0" class="graph" transform="scale(1 1) rotate(0) translate(4 81)">
<title>EnvironmentBase::computeEnv</title>
<!-- Node4 -->
<g id="node1" class="node">
<title>Node4</title>
<polygon fill="#bfbfbf" stroke="#000000" points="0,-38.5 0,-57.5 155,-57.5 155,-38.5 0,-38.5"/>
<text text-anchor="middle" x="77.5" y="-45.5" font-family="Helvetica,sans-Serif" font-size="10.00" fill="#000000">EnvironmentBase::computeEnv</text>
</g>
<!-- Node5 -->
<g id="node2" class="node">
<title>Node5</title>
<g id="a_node2"><a xlink:href="classEnvironmentBase.html#ae8661cf24cd1402c62718d7584608df6" target="_top" xlink:title="EnvironmentBase::~EnvironmentBase">
<polygon fill="none" stroke="#000000" points="191,-57.5 191,-76.5 374,-76.5 374,-57.5 191,-57.5"/>
<text text-anchor="middle" x="282.5" y="-64.5" font-family="Helvetica,sans-Serif" font-size="10.00" fill="#000000">EnvironmentBase::~EnvironmentBase</text>
</a>
</g>
</g>
<!-- Node4&#45;&gt;Node5 -->
<g id="edge1" class="edge">
<title>Node4&#45;&gt;Node5</title>
<path fill="none" stroke="#191970" d="M165.2289,-56.131C173.682,-56.9144 182.272,-57.7106 190.7624,-58.4975"/>
<polygon fill="#191970" stroke="#191970" points="165.2821,-52.621 155.0017,-55.1831 164.636,-59.5911 165.2821,-52.621"/>
</g>
<!-- Node6 -->
<g id="node3" class="node">
<title>Node6</title>
<g id="a_node3"><a xlink:href="classSolver.html#ac737953d0d5a3ade1893f1f80b3f4791" target="_top" xlink:title="Solver::updateEnv">
<polygon fill="none" stroke="#000000" points="234,-19.5 234,-38.5 331,-38.5 331,-19.5 234,-19.5"/>
<text text-anchor="middle" x="282.5" y="-26.5" font-family="Helvetica,sans-Serif" font-size="10.00" fill="#000000">Solver::updateEnv</text>
</a>
</g>
</g>
<!-- Node4&#45;&gt;Node6 -->
<g id="edge2" class="edge">
<title>Node4&#45;&gt;Node6</title>
<path fill="none" stroke="#191970" d="M165.0043,-39.8898C188.5324,-37.7092 213.1379,-35.4287 233.7168,-33.5214"/>
<polygon fill="#191970" stroke="#191970" points="164.636,-36.4089 155.0017,-40.8169 165.2821,-43.379 164.636,-36.4089"/>
</g>
<!-- Node7 -->
<g id="node4" class="node">
<title>Node7</title>
<g id="a_node4"><a xlink:href="classSolver.html#ae9cbf50e5db34626f54298c75fc64188" target="_top" xlink:title="Solver::newborns_out">
<polygon fill="none" stroke="#000000" points="410,-38.5 410,-57.5 521,-57.5 521,-38.5 410,-38.5"/>
<text text-anchor="middle" x="465.5" y="-45.5" font-family="Helvetica,sans-Serif" font-size="10.00" fill="#000000">Solver::newborns_out</text>
</a>
</g>
</g>
<!-- Node6&#45;&gt;Node7 -->
<g id="edge3" class="edge">
<title>Node6&#45;&gt;Node7</title>
<path fill="none" stroke="#191970" d="M341.2733,-35.1021C363.2813,-37.3871 388.1986,-39.9742 409.9099,-42.2283"/>
<polygon fill="#191970" stroke="#191970" points="341.3682,-31.5933 331.0602,-34.0418 340.6452,-38.5558 341.3682,-31.5933"/>
</g>
<!-- Node9 -->
<g id="node6" class="node">
<title>Node9</title>
<g id="a_node6"><a xlink:href="classSolver.html#af4c8f6565df94ed6a058a224196b9c2b" target="_top" xlink:title="Solver::step_to">
<polygon fill="none" stroke="#000000" points="424,-.5 424,-19.5 507,-19.5 507,-.5 424,-.5"/>
<text text-anchor="middle" x="465.5" y="-7.5" font-family="Helvetica,sans-Serif" font-size="10.00" fill="#000000">Solver::step_to</text>
</a>
</g>
</g>
<!-- Node6&#45;&gt;Node9 -->
<g id="edge5" class="edge">
<title>Node6&#45;&gt;Node9</title>
<path fill="none" stroke="#191970" d="M341.1455,-22.9111C368.0806,-20.1146 399.3957,-16.8633 423.8627,-14.323"/>
<polygon fill="#191970" stroke="#191970" points="340.6452,-19.4442 331.0602,-23.9582 341.3682,-26.4067 340.6452,-19.4442"/>
</g>
<!-- Node8 -->
<g id="node5" class="node">
<title>Node8</title>
<g id="a_node5"><a xlink:href="classSolver.html#a40c9ebb8d585e07d8f65c4ac5ada6420" target="_top" xlink:title="Solver::u0_out">
<polygon fill="none" stroke="#000000" points="558.5,-38.5 558.5,-57.5 638.5,-57.5 638.5,-38.5 558.5,-38.5"/>
<text text-anchor="middle" x="598.5" y="-45.5" font-family="Helvetica,sans-Serif" font-size="10.00" fill="#000000">Solver::u0_out</text>
</a>
</g>
</g>
<!-- Node7&#45;&gt;Node8 -->
<g id="edge4" class="edge">
<title>Node7&#45;&gt;Node8</title>
<path fill="none" stroke="#191970" d="M531.1941,-48C540.5052,-48 549.8374,-48 558.4604,-48"/>
<polygon fill="#191970" stroke="#191970" points="531.1334,-44.5001 521.1333,-48 531.1333,-51.5001 531.1334,-44.5001"/>
</g>
<!-- Node10 -->
<g id="node7" class="node">
<title>Node10</title>
<g id="a_node7"><a xlink:href="classSolver.html#a06cf82d0a99490279ab20d2ad6b876db" target="_top" xlink:title="Solver::step_to">
<polygon fill="none" stroke="#000000" points="557,-.5 557,-19.5 640,-19.5 640,-.5 557,-.5"/>
<text text-anchor="middle" x="598.5" y="-7.5" font-family="Helvetica,sans-Serif" font-size="10.00" fill="#000000">Solver::step_to</text>
</a>
</g>
</g>
<!-- Node9&#45;&gt;Node10 -->
<g id="edge6" class="edge">
<title>Node9&#45;&gt;Node10</title>
<path fill="none" stroke="#191970" d="M517.4956,-10C530.5737,-10 544.4385,-10 556.9309,-10"/>
<polygon fill="#191970" stroke="#191970" points="517.2172,-6.5001 507.2171,-10 517.2171,-13.5001 517.2172,-6.5001"/>
</g>
</g>
</svg>
