<?xml version="1.0" encoding="UTF-8" standalone="no"?>
<!DOCTYPE svg PUBLIC "-//W3C//DTD SVG 1.1//EN"
 "http://www.w3.org/Graphics/SVG/1.1/DTD/svg11.dtd">
<!-- Generated by graphviz version 2.40.1 (20161225.0304)
 -->
<!-- Title: Solver::stepU_iFMU Pages: 1 -->
<svg width="296pt" height="241pt"
 viewBox="0.00 0.00 296.00 241.00" xmlns="http://www.w3.org/2000/svg" xmlns:xlink="http://www.w3.org/1999/xlink">
<g id="graph0" class="graph" transform="scale(1 1) rotate(0) translate(4 237)">
<title>Solver::stepU_iFMU</title>
<!-- Node276 -->
<g id="node1" class="node">
<title>Node276</title>
<polygon fill="#bfbfbf" stroke="#000000" points="0,-106.5 0,-125.5 106,-125.5 106,-106.5 0,-106.5"/>
<text text-anchor="middle" x="53" y="-113.5" font-family="Helvetica,sans-Serif" font-size="10.00" fill="#000000">Solver::stepU_iFMU</text>
</g>
<!-- Node277 -->
<g id="node2" class="node">
<title>Node277</title>
<g id="a_node2"><a xlink:href="classSpecies__Base.html#abe98e190e76cfd39eee7ef3d30141d53" target="_top" xlink:title="Species_Base::growthRate">
<polygon fill="none" stroke="#000000" points="147,-213.5 147,-232.5 283,-232.5 283,-213.5 147,-213.5"/>
<text text-anchor="middle" x="215" y="-220.5" font-family="Helvetica,sans-Serif" font-size="10.00" fill="#000000">Species_Base::growthRate</text>
</a>
</g>
</g>
<!-- Node276&#45;&gt;Node277 -->
<g id="edge1" class="edge">
<title>Node276&#45;&gt;Node277</title>
<path fill="none" stroke="#191970" d="M59.8943,-125.598C73.4732,-143.7774 105.5476,-183.2647 142,-204 145.9485,-206.246 150.1672,-208.2322 154.5105,-209.9878"/>
<polygon fill="#191970" stroke="#191970" points="153.5666,-213.3681 164.1609,-213.4739 155.9449,-206.7845 153.5666,-213.3681"/>
</g>
<!-- Node278 -->
<g id="node3" class="node">
<title>Node278</title>
<g id="a_node3"><a xlink:href="classSpecies__Base.html#aa6880c6f5c8ff125cab4d1195dedfb13" target="_top" xlink:title="Species_Base::getX">
<polygon fill="none" stroke="#000000" points="162,-175.5 162,-194.5 268,-194.5 268,-175.5 162,-175.5"/>
<text text-anchor="middle" x="215" y="-182.5" font-family="Helvetica,sans-Serif" font-size="10.00" fill="#000000">Species_Base::getX</text>
</a>
</g>
</g>
<!-- Node276&#45;&gt;Node278 -->
<g id="edge2" class="edge">
<title>Node276&#45;&gt;Node278</title>
<path fill="none" stroke="#191970" d="M67.2255,-125.5186C84.3324,-136.5974 114.2212,-154.8003 142,-166 147.978,-168.4102 154.3558,-170.5959 160.7585,-172.5544"/>
<polygon fill="#191970" stroke="#191970" points="160.2086,-176.0383 170.7868,-175.4446 162.1472,-169.3121 160.2086,-176.0383"/>
</g>
<!-- Node279 -->
<g id="node4" class="node">
<title>Node279</title>
<g id="a_node4"><a xlink:href="classSpecies__Base.html#aad4cefae53644171dfcd12639d2e0e63" target="_top" xlink:title="Species_Base::establishment\lProbability">
<polygon fill="none" stroke="#000000" points="142,-126 142,-156 288,-156 288,-126 142,-126"/>
<text text-anchor="start" x="150" y="-144" font-family="Helvetica,sans-Serif" font-size="10.00" fill="#000000">Species_Base::establishment</text>
<text text-anchor="middle" x="215" y="-133" font-family="Helvetica,sans-Serif" font-size="10.00" fill="#000000">Probability</text>
</a>
</g>
</g>
<!-- Node276&#45;&gt;Node279 -->
<g id="edge3" class="edge">
<title>Node276&#45;&gt;Node279</title>
<path fill="none" stroke="#191970" d="M106.0449,-124.1859C114.3585,-125.4689 123.1199,-126.821 131.9142,-128.1781"/>
<polygon fill="#191970" stroke="#191970" points="131.4181,-131.6429 141.835,-129.7091 132.4858,-124.7248 131.4181,-131.6429"/>
</g>
<!-- Node280 -->
<g id="node5" class="node">
<title>Node280</title>
<g id="a_node5"><a xlink:href="classSpecies__Base.html#a0954e7ce15766c2bae1731fe5d8decd2" target="_top" xlink:title="Species_Base::calc\l_boundary_u">
<polygon fill="none" stroke="#000000" points="163,-77 163,-107 267,-107 267,-77 163,-77"/>
<text text-anchor="start" x="171" y="-95" font-family="Helvetica,sans-Serif" font-size="10.00" fill="#000000">Species_Base::calc</text>
<text text-anchor="middle" x="215" y="-84" font-family="Helvetica,sans-Serif" font-size="10.00" fill="#000000">_boundary_u</text>
</a>
</g>
</g>
<!-- Node276&#45;&gt;Node280 -->
<g id="edge4" class="edge">
<title>Node276&#45;&gt;Node280</title>
<path fill="none" stroke="#191970" d="M106.0449,-108.1415C121.0327,-105.9211 137.4761,-103.485 152.9432,-101.1936"/>
<polygon fill="#191970" stroke="#191970" points="153.5621,-104.6402 162.9412,-99.7124 152.5362,-97.7158 153.5621,-104.6402"/>
</g>
<!-- Node281 -->
<g id="node6" class="node">
<title>Node281</title>
<g id="a_node6"><a xlink:href="classSpecies__Base.html#a59ab3c647c48a819f1911957e5724d5e" target="_top" xlink:title="Species_Base::mortalityRate">
<polygon fill="none" stroke="#000000" points="143,-38.5 143,-57.5 287,-57.5 287,-38.5 143,-38.5"/>
<text text-anchor="middle" x="215" y="-45.5" font-family="Helvetica,sans-Serif" font-size="10.00" fill="#000000">Species_Base::mortalityRate</text>
</a>
</g>
</g>
<!-- Node276&#45;&gt;Node281 -->
<g id="edge5" class="edge">
<title>Node276&#45;&gt;Node281</title>
<path fill="none" stroke="#191970" d="M68.2352,-106.3916C85.5571,-95.8021 114.9479,-78.8367 142,-68 148.955,-65.2139 156.4329,-62.6768 163.856,-60.416"/>
<polygon fill="#191970" stroke="#191970" points="164.9071,-63.7554 173.5342,-57.6053 162.9548,-57.0332 164.9071,-63.7554"/>
</g>
<!-- Node282 -->
<g id="node7" class="node">
<title>Node282</title>
<g id="a_node7"><a xlink:href="classSpecies__Base.html#ad412522fc071525a19f95609880b20ff" target="_top" xlink:title="Species_Base::getU">
<polygon fill="none" stroke="#000000" points="161.5,-.5 161.5,-19.5 268.5,-19.5 268.5,-.5 161.5,-.5"/>
<text text-anchor="middle" x="215" y="-7.5" font-family="Helvetica,sans-Serif" font-size="10.00" fill="#000000">Species_Base::getU</text>
</a>
</g>
</g>
<!-- Node276&#45;&gt;Node282 -->
<g id="edge6" class="edge">
<title>Node276&#45;&gt;Node282</title>
<path fill="none" stroke="#191970" d="M60.134,-106.233C73.8781,-88.1421 105.8811,-49.4092 142,-29 145.9549,-26.7653 150.1783,-24.7873 154.5248,-23.0375"/>
<polygon fill="#191970" stroke="#191970" points="155.9577,-26.2416 164.1804,-19.5605 153.586,-19.6556 155.9577,-26.2416"/>
</g>
</g>
</svg>
