<?xml version="1.0" encoding="UTF-8" standalone="no"?>
<!DOCTYPE svg PUBLIC "-//W3C//DTD SVG 1.1//EN"
 "http://www.w3.org/Graphics/SVG/1.1/DTD/svg11.dtd">
<!-- Generated by graphviz version 2.40.1 (20161225.0304)
 -->
<!-- Title: Solver::initialize Pages: 1 -->
<svg width="275pt" height="242pt"
 viewBox="0.00 0.00 275.00 241.50" xmlns="http://www.w3.org/2000/svg" xmlns:xlink="http://www.w3.org/1999/xlink">
<g id="graph0" class="graph" transform="scale(1 1) rotate(0) translate(4 237.5)">
<title>Solver::initialize</title>
<!-- Node70 -->
<g id="node1" class="node">
<title>Node70</title>
<polygon fill="#bfbfbf" stroke="#000000" points="0,-110 0,-129 86,-129 86,-110 0,-110"/>
<text text-anchor="middle" x="43" y="-117" font-family="Helvetica,sans-Serif" font-size="10.00" fill="#000000">Solver::initialize</text>
</g>
<!-- Node71 -->
<g id="node2" class="node">
<title>Node71</title>
<g id="a_node2"><a xlink:href="classSpecies__Base.html#a25a20f843be73c25744dd0e860c11c6f" target="_top" xlink:title="Species_Base::set_xb">
<polygon fill="none" stroke="#000000" points="137,-214 137,-233 252,-233 252,-214 137,-214"/>
<text text-anchor="middle" x="194.5" y="-221" font-family="Helvetica,sans-Serif" font-size="10.00" fill="#000000">Species_Base::set_xb</text>
</a>
</g>
</g>
<!-- Node70&#45;&gt;Node71 -->
<g id="edge1" class="edge">
<title>Node70&#45;&gt;Node71</title>
<path fill="none" stroke="#191970" d="M49.1198,-129.0578C60.9654,-146.7582 88.8058,-184.6414 122,-204.5 125.643,-206.6794 129.5349,-208.6119 133.5532,-210.3251"/>
<polygon fill="#191970" stroke="#191970" points="132.5092,-213.6722 143.1007,-213.9372 134.9862,-207.1251 132.5092,-213.6722"/>
</g>
<!-- Node72 -->
<g id="node3" class="node">
<title>Node72</title>
<g id="a_node3"><a xlink:href="classSpecies__Base.html#ab2156ad0734e670ffecbefc0001e3f2d" target="_top" xlink:title="Species_Base::set_birthTime">
<polygon fill="none" stroke="#000000" points="122,-176 122,-195 267,-195 267,-176 122,-176"/>
<text text-anchor="middle" x="194.5" y="-183" font-family="Helvetica,sans-Serif" font-size="10.00" fill="#000000">Species_Base::set_birthTime</text>
</a>
</g>
</g>
<!-- Node70&#45;&gt;Node72 -->
<g id="edge2" class="edge">
<title>Node70&#45;&gt;Node72</title>
<path fill="none" stroke="#191970" d="M56.3661,-129.0491C71.6007,-139.5442 97.5633,-156.2691 122,-166.5 127.8287,-168.9403 134.0549,-171.1385 140.3181,-173.0986"/>
<polygon fill="#191970" stroke="#191970" points="139.5578,-176.523 150.1389,-175.9833 141.5307,-169.8068 139.5578,-176.523"/>
</g>
<!-- Node73 -->
<g id="node4" class="node">
<title>Node73</title>
<g id="a_node4"><a xlink:href="classSpecies__Base.html#af3f776b8c56e133a0b260e2281a27178" target="_top" xlink:title="Species_Base::init\l_density">
<polygon fill="none" stroke="#000000" points="145.5,-126.5 145.5,-156.5 243.5,-156.5 243.5,-126.5 145.5,-126.5"/>
<text text-anchor="start" x="153.5" y="-144.5" font-family="Helvetica,sans-Serif" font-size="10.00" fill="#000000">Species_Base::init</text>
<text text-anchor="middle" x="194.5" y="-133.5" font-family="Helvetica,sans-Serif" font-size="10.00" fill="#000000">_density</text>
</a>
</g>
</g>
<!-- Node70&#45;&gt;Node73 -->
<g id="edge3" class="edge">
<title>Node70&#45;&gt;Node73</title>
<path fill="none" stroke="#191970" d="M86.0086,-125.7455C101.2944,-127.9652 118.7829,-130.5048 135.1902,-132.8874"/>
<polygon fill="#191970" stroke="#191970" points="134.8378,-136.3728 145.2371,-134.3463 135.8439,-129.4455 134.8378,-136.3728"/>
</g>
<!-- Node74 -->
<g id="node5" class="node">
<title>Node74</title>
<g id="a_node5"><a xlink:href="classSpecies__Base.html#a86a04ae53b3f25c4e90b01a8eaed3bfd" target="_top" xlink:title="Species_Base::setX">
<polygon fill="none" stroke="#000000" points="141.5,-88 141.5,-107 247.5,-107 247.5,-88 141.5,-88"/>
<text text-anchor="middle" x="194.5" y="-95" font-family="Helvetica,sans-Serif" font-size="10.00" fill="#000000">Species_Base::setX</text>
</a>
</g>
</g>
<!-- Node70&#45;&gt;Node74 -->
<g id="edge4" class="edge">
<title>Node70&#45;&gt;Node74</title>
<path fill="none" stroke="#191970" d="M86.0086,-113.2545C100.1456,-111.2016 116.1665,-108.8752 131.4739,-106.6523"/>
<polygon fill="#191970" stroke="#191970" points="132.0097,-110.1113 141.4029,-105.2105 131.0037,-103.184 132.0097,-110.1113"/>
</g>
<!-- Node75 -->
<g id="node6" class="node">
<title>Node75</title>
<g id="a_node6"><a xlink:href="classSpecies__Base.html#ad9ddab41ba3c6e242f1b3a8a50ed7a36" target="_top" xlink:title="Species_Base::setU">
<polygon fill="none" stroke="#000000" points="141,-50 141,-69 248,-69 248,-50 141,-50"/>
<text text-anchor="middle" x="194.5" y="-57" font-family="Helvetica,sans-Serif" font-size="10.00" fill="#000000">Species_Base::setU</text>
</a>
</g>
</g>
<!-- Node70&#45;&gt;Node75 -->
<g id="edge5" class="edge">
<title>Node70&#45;&gt;Node75</title>
<path fill="none" stroke="#191970" d="M58.8507,-109.9316C74.463,-100.8339 99.2156,-87.2721 122,-78.5 128.2821,-76.0814 134.986,-73.8643 141.6846,-71.8662"/>
<polygon fill="#191970" stroke="#191970" points="142.7802,-75.1936 151.4454,-69.0973 140.8698,-68.4593 142.7802,-75.1936"/>
</g>
<!-- Node76 -->
<g id="node7" class="node">
<title>Node76</title>
<g id="a_node7"><a xlink:href="classSpecies__Base.html#adf095940796f9d83366de5f1acb60047" target="_top" xlink:title="Species_Base::initAndCopy\lExtraState">
<polygon fill="none" stroke="#000000" points="125,-.5 125,-30.5 264,-30.5 264,-.5 125,-.5"/>
<text text-anchor="start" x="133" y="-18.5" font-family="Helvetica,sans-Serif" font-size="10.00" fill="#000000">Species_Base::initAndCopy</text>
<text text-anchor="middle" x="194.5" y="-7.5" font-family="Helvetica,sans-Serif" font-size="10.00" fill="#000000">ExtraState</text>
</a>
</g>
</g>
<!-- Node70&#45;&gt;Node76 -->
<g id="edge6" class="edge">
<title>Node70&#45;&gt;Node76</title>
<path fill="none" stroke="#191970" d="M50.2159,-109.8309C62.9686,-93.3745 91.0802,-59.8305 122,-40.5 125.3339,-38.4157 128.8634,-36.4796 132.499,-34.6852"/>
<polygon fill="#191970" stroke="#191970" points="134.0405,-37.8294 141.7037,-30.5132 131.1507,-31.4537 134.0405,-37.8294"/>
</g>
</g>
</svg>
