<?xml version="1.0" encoding="UTF-8" standalone="no"?>
<!DOCTYPE svg PUBLIC "-//W3C//DTD SVG 1.1//EN"
 "http://www.w3.org/Graphics/SVG/1.1/DTD/svg11.dtd">
<!-- Generated by graphviz version 2.40.1 (20161225.0304)
 -->
<!-- Title: LSODA::prja Pages: 1 -->
<svg width="972pt" height="28pt"
 viewBox="0.00 0.00 972.00 28.00" xmlns="http://www.w3.org/2000/svg" xmlns:xlink="http://www.w3.org/1999/xlink">
<g id="graph0" class="graph" transform="scale(1 1) rotate(0) translate(4 24)">
<title>LSODA::prja</title>
<!-- Node173 -->
<g id="node1" class="node">
<title>Node173</title>
<polygon fill="#bfbfbf" stroke="#000000" points="0,-.5 0,-19.5 72,-19.5 72,-.5 0,-.5"/>
<text text-anchor="middle" x="36" y="-7.5" font-family="Helvetica,sans-Serif" font-size="10.00" fill="#000000">LSODA::prja</text>
</g>
<!-- Node174 -->
<g id="node2" class="node">
<title>Node174</title>
<g id="a_node2"><a xlink:href="classLSODA.html#ae5ebdebff330f29ef0c15bece1bf8299" target="_top" xlink:title="LSODA::correction">
<polygon fill="none" stroke="#000000" points="108,-.5 108,-19.5 207,-19.5 207,-.5 108,-.5"/>
<text text-anchor="middle" x="157.5" y="-7.5" font-family="Helvetica,sans-Serif" font-size="10.00" fill="#000000">LSODA::correction</text>
</a>
</g>
</g>
<!-- Node173&#45;&gt;Node174 -->
<g id="edge1" class="edge">
<title>Node173&#45;&gt;Node174</title>
<path fill="none" stroke="#191970" d="M82.3974,-10C90.7076,-10 99.3978,-10 107.7965,-10"/>
<polygon fill="#191970" stroke="#191970" points="82.1251,-6.5001 72.125,-10 82.125,-13.5001 82.1251,-6.5001"/>
</g>
<!-- Node175 -->
<g id="node3" class="node">
<title>Node175</title>
<g id="a_node3"><a xlink:href="classLSODA.html#a7c6d8d75b383474b5b05c710d2921618" target="_top" xlink:title="LSODA::stoda">
<polygon fill="none" stroke="#000000" points="243,-.5 243,-19.5 323,-19.5 323,-.5 243,-.5"/>
<text text-anchor="middle" x="283" y="-7.5" font-family="Helvetica,sans-Serif" font-size="10.00" fill="#000000">LSODA::stoda</text>
</a>
</g>
</g>
<!-- Node174&#45;&gt;Node175 -->
<g id="edge2" class="edge">
<title>Node174&#45;&gt;Node175</title>
<path fill="none" stroke="#191970" d="M217.1585,-10C225.7902,-10 234.5,-10 242.6326,-10"/>
<polygon fill="#191970" stroke="#191970" points="217.101,-6.5001 207.1009,-10 217.1009,-13.5001 217.101,-6.5001"/>
</g>
<!-- Node176 -->
<g id="node4" class="node">
<title>Node176</title>
<g id="a_node4"><a xlink:href="classLSODA.html#a705dcfe5b21827adb8871e48f2c72fb2" target="_top" xlink:title="LSODA::lsoda">
<polygon fill="none" stroke="#000000" points="359,-.5 359,-19.5 439,-19.5 439,-.5 359,-.5"/>
<text text-anchor="middle" x="399" y="-7.5" font-family="Helvetica,sans-Serif" font-size="10.00" fill="#000000">LSODA::lsoda</text>
</a>
</g>
</g>
<!-- Node175&#45;&gt;Node176 -->
<g id="edge3" class="edge">
<title>Node175&#45;&gt;Node176</title>
<path fill="none" stroke="#191970" d="M333.442,-10C341.9315,-10 350.6408,-10 358.8255,-10"/>
<polygon fill="#191970" stroke="#191970" points="333.2457,-6.5001 323.2456,-10 333.2456,-13.5001 333.2457,-6.5001"/>
</g>
<!-- Node177 -->
<g id="node5" class="node">
<title>Node177</title>
<g id="a_node5"><a xlink:href="classLSODA.html#a391e4d7bea026ad7c300cfb55cb290d1" target="_top" xlink:title="LSODA::lsoda_update">
<polygon fill="none" stroke="#000000" points="475,-.5 475,-19.5 589,-19.5 589,-.5 475,-.5"/>
<text text-anchor="middle" x="532" y="-7.5" font-family="Helvetica,sans-Serif" font-size="10.00" fill="#000000">LSODA::lsoda_update</text>
</a>
</g>
</g>
<!-- Node176&#45;&gt;Node177 -->
<g id="edge4" class="edge">
<title>Node176&#45;&gt;Node177</title>
<path fill="none" stroke="#191970" d="M449.4762,-10C457.7175,-10 466.3078,-10 474.6989,-10"/>
<polygon fill="#191970" stroke="#191970" points="449.2653,-6.5001 439.2653,-10 449.2653,-13.5001 449.2653,-6.5001"/>
</g>
<!-- Node178 -->
<g id="node6" class="node">
<title>Node178</title>
<g id="a_node6"><a xlink:href="classOdeSolver.html#a77d9f02ed28d5515366e6be08560f35a" target="_top" xlink:title="OdeSolver::step_to">
<polygon fill="none" stroke="#000000" points="625,-.5 625,-19.5 726,-19.5 726,-.5 625,-.5"/>
<text text-anchor="middle" x="675.5" y="-7.5" font-family="Helvetica,sans-Serif" font-size="10.00" fill="#000000">OdeSolver::step_to</text>
</a>
</g>
</g>
<!-- Node177&#45;&gt;Node178 -->
<g id="edge5" class="edge">
<title>Node177&#45;&gt;Node178</title>
<path fill="none" stroke="#191970" d="M599.3985,-10C607.8783,-10 616.4395,-10 624.6059,-10"/>
<polygon fill="#191970" stroke="#191970" points="599.1274,-6.5001 589.1273,-10 599.1273,-13.5001 599.1274,-6.5001"/>
</g>
<!-- Node179 -->
<g id="node7" class="node">
<title>Node179</title>
<g id="a_node7"><a xlink:href="classSolver.html#af4c8f6565df94ed6a058a224196b9c2b" target="_top" xlink:title="Solver::step_to">
<polygon fill="none" stroke="#000000" points="762,-.5 762,-19.5 845,-19.5 845,-.5 762,-.5"/>
<text text-anchor="middle" x="803.5" y="-7.5" font-family="Helvetica,sans-Serif" font-size="10.00" fill="#000000">Solver::step_to</text>
</a>
</g>
</g>
<!-- Node178&#45;&gt;Node179 -->
<g id="edge6" class="edge">
<title>Node178&#45;&gt;Node179</title>
<path fill="none" stroke="#191970" d="M736.2268,-10C744.9273,-10 753.7087,-10 761.9255,-10"/>
<polygon fill="#191970" stroke="#191970" points="736.089,-6.5001 726.089,-10 736.089,-13.5001 736.089,-6.5001"/>
</g>
<!-- Node180 -->
<g id="node8" class="node">
<title>Node180</title>
<g id="a_node8"><a xlink:href="classSolver.html#a06cf82d0a99490279ab20d2ad6b876db" target="_top" xlink:title="Solver::step_to">
<polygon fill="none" stroke="#000000" points="881,-.5 881,-19.5 964,-19.5 964,-.5 881,-.5"/>
<text text-anchor="middle" x="922.5" y="-7.5" font-family="Helvetica,sans-Serif" font-size="10.00" fill="#000000">Solver::step_to</text>
</a>
</g>
</g>
<!-- Node179&#45;&gt;Node180 -->
<g id="edge7" class="edge">
<title>Node179&#45;&gt;Node180</title>
<path fill="none" stroke="#191970" d="M855.3174,-10C863.8022,-10 872.499,-10 880.7019,-10"/>
<polygon fill="#191970" stroke="#191970" points="855.1205,-6.5001 845.1204,-10 855.1204,-13.5001 855.1205,-6.5001"/>
</g>
</g>
</svg>
