<?xml version="1.0" encoding="UTF-8" standalone="no"?>
<!DOCTYPE svg PUBLIC "-//W3C//DTD SVG 1.1//EN"
 "http://www.w3.org/Graphics/SVG/1.1/DTD/svg11.dtd">
<!-- Generated by graphviz version 2.40.1 (20161225.0304)
 -->
<!-- Title: LSODA::successreturn Pages: 1 -->
<svg width="767pt" height="28pt"
 viewBox="0.00 0.00 767.00 28.00" xmlns="http://www.w3.org/2000/svg" xmlns:xlink="http://www.w3.org/1999/xlink">
<g id="graph0" class="graph" transform="scale(1 1) rotate(0) translate(4 24)">
<title>LSODA::successreturn</title>
<!-- Node239 -->
<g id="node1" class="node">
<title>Node239</title>
<polygon fill="#bfbfbf" stroke="#000000" points="0,-.5 0,-19.5 118,-19.5 118,-.5 0,-.5"/>
<text text-anchor="middle" x="59" y="-7.5" font-family="Helvetica,sans-Serif" font-size="10.00" fill="#000000">LSODA::successreturn</text>
</g>
<!-- Node240 -->
<g id="node2" class="node">
<title>Node240</title>
<g id="a_node2"><a xlink:href="classLSODA.html#a705dcfe5b21827adb8871e48f2c72fb2" target="_top" xlink:title="LSODA::lsoda">
<polygon fill="none" stroke="#000000" points="154,-.5 154,-19.5 234,-19.5 234,-.5 154,-.5"/>
<text text-anchor="middle" x="194" y="-7.5" font-family="Helvetica,sans-Serif" font-size="10.00" fill="#000000">LSODA::lsoda</text>
</a>
</g>
</g>
<!-- Node239&#45;&gt;Node240 -->
<g id="edge1" class="edge">
<title>Node239&#45;&gt;Node240</title>
<path fill="none" stroke="#191970" d="M128.4248,-10C137.1367,-10 145.8059,-10 153.8511,-10"/>
<polygon fill="#191970" stroke="#191970" points="128.213,-6.5001 118.213,-10 128.2129,-13.5001 128.213,-6.5001"/>
</g>
<!-- Node241 -->
<g id="node3" class="node">
<title>Node241</title>
<g id="a_node3"><a xlink:href="classLSODA.html#a391e4d7bea026ad7c300cfb55cb290d1" target="_top" xlink:title="LSODA::lsoda_update">
<polygon fill="none" stroke="#000000" points="270,-.5 270,-19.5 384,-19.5 384,-.5 270,-.5"/>
<text text-anchor="middle" x="327" y="-7.5" font-family="Helvetica,sans-Serif" font-size="10.00" fill="#000000">LSODA::lsoda_update</text>
</a>
</g>
</g>
<!-- Node240&#45;&gt;Node241 -->
<g id="edge2" class="edge">
<title>Node240&#45;&gt;Node241</title>
<path fill="none" stroke="#191970" d="M244.4762,-10C252.7175,-10 261.3078,-10 269.6989,-10"/>
<polygon fill="#191970" stroke="#191970" points="244.2653,-6.5001 234.2653,-10 244.2653,-13.5001 244.2653,-6.5001"/>
</g>
<!-- Node242 -->
<g id="node4" class="node">
<title>Node242</title>
<g id="a_node4"><a xlink:href="classOdeSolver.html#a77d9f02ed28d5515366e6be08560f35a" target="_top" xlink:title="OdeSolver::step_to">
<polygon fill="none" stroke="#000000" points="420,-.5 420,-19.5 521,-19.5 521,-.5 420,-.5"/>
<text text-anchor="middle" x="470.5" y="-7.5" font-family="Helvetica,sans-Serif" font-size="10.00" fill="#000000">OdeSolver::step_to</text>
</a>
</g>
</g>
<!-- Node241&#45;&gt;Node242 -->
<g id="edge3" class="edge">
<title>Node241&#45;&gt;Node242</title>
<path fill="none" stroke="#191970" d="M394.3985,-10C402.8783,-10 411.4395,-10 419.6059,-10"/>
<polygon fill="#191970" stroke="#191970" points="394.1274,-6.5001 384.1273,-10 394.1273,-13.5001 394.1274,-6.5001"/>
</g>
<!-- Node243 -->
<g id="node5" class="node">
<title>Node243</title>
<g id="a_node5"><a xlink:href="classSolver.html#af4c8f6565df94ed6a058a224196b9c2b" target="_top" xlink:title="Solver::step_to">
<polygon fill="none" stroke="#000000" points="557,-.5 557,-19.5 640,-19.5 640,-.5 557,-.5"/>
<text text-anchor="middle" x="598.5" y="-7.5" font-family="Helvetica,sans-Serif" font-size="10.00" fill="#000000">Solver::step_to</text>
</a>
</g>
</g>
<!-- Node242&#45;&gt;Node243 -->
<g id="edge4" class="edge">
<title>Node242&#45;&gt;Node243</title>
<path fill="none" stroke="#191970" d="M531.2268,-10C539.9273,-10 548.7087,-10 556.9255,-10"/>
<polygon fill="#191970" stroke="#191970" points="531.089,-6.5001 521.089,-10 531.089,-13.5001 531.089,-6.5001"/>
</g>
<!-- Node244 -->
<g id="node6" class="node">
<title>Node244</title>
<g id="a_node6"><a xlink:href="classSolver.html#a06cf82d0a99490279ab20d2ad6b876db" target="_top" xlink:title="Solver::step_to">
<polygon fill="none" stroke="#000000" points="676,-.5 676,-19.5 759,-19.5 759,-.5 676,-.5"/>
<text text-anchor="middle" x="717.5" y="-7.5" font-family="Helvetica,sans-Serif" font-size="10.00" fill="#000000">Solver::step_to</text>
</a>
</g>
</g>
<!-- Node243&#45;&gt;Node244 -->
<g id="edge5" class="edge">
<title>Node243&#45;&gt;Node244</title>
<path fill="none" stroke="#191970" d="M650.3174,-10C658.8022,-10 667.499,-10 675.7019,-10"/>
<polygon fill="#191970" stroke="#191970" points="650.1205,-6.5001 640.1204,-10 650.1204,-13.5001 650.1205,-6.5001"/>
</g>
</g>
</svg>
