<?xml version="1.0" encoding="UTF-8" standalone="no"?>
<!DOCTYPE svg PUBLIC "-//W3C//DTD SVG 1.1//EN"
 "http://www.w3.org/Graphics/SVG/1.1/DTD/svg11.dtd">
<!-- Generated by graphviz version 2.40.1 (20161225.0304)
 -->
<!-- Title: Solver::stepU_iFMU Pages: 1 -->
<svg width="352pt" height="28pt"
 viewBox="0.00 0.00 352.00 28.00" xmlns="http://www.w3.org/2000/svg" xmlns:xlink="http://www.w3.org/1999/xlink">
<g id="graph0" class="graph" transform="scale(1 1) rotate(0) translate(4 24)">
<title>Solver::stepU_iFMU</title>
<!-- Node260 -->
<g id="node1" class="node">
<title>Node260</title>
<polygon fill="#bfbfbf" stroke="#000000" points="0,-.5 0,-19.5 106,-19.5 106,-.5 0,-.5"/>
<text text-anchor="middle" x="53" y="-7.5" font-family="Helvetica,sans-Serif" font-size="10.00" fill="#000000">Solver::stepU_iFMU</text>
</g>
<!-- Node261 -->
<g id="node2" class="node">
<title>Node261</title>
<g id="a_node2"><a xlink:href="classSolver.html#af4c8f6565df94ed6a058a224196b9c2b" target="_top" xlink:title="Solver::step_to">
<polygon fill="none" stroke="#000000" points="142,-.5 142,-19.5 225,-19.5 225,-.5 142,-.5"/>
<text text-anchor="middle" x="183.5" y="-7.5" font-family="Helvetica,sans-Serif" font-size="10.00" fill="#000000">Solver::step_to</text>
</a>
</g>
</g>
<!-- Node260&#45;&gt;Node261 -->
<g id="edge1" class="edge">
<title>Node260&#45;&gt;Node261</title>
<path fill="none" stroke="#191970" d="M116.1774,-10C124.8296,-10 133.5304,-10 141.6705,-10"/>
<polygon fill="#191970" stroke="#191970" points="116.0794,-6.5001 106.0793,-10 116.0793,-13.5001 116.0794,-6.5001"/>
</g>
<!-- Node262 -->
<g id="node3" class="node">
<title>Node262</title>
<g id="a_node3"><a xlink:href="classSolver.html#a06cf82d0a99490279ab20d2ad6b876db" target="_top" xlink:title="Solver::step_to">
<polygon fill="none" stroke="#000000" points="261,-.5 261,-19.5 344,-19.5 344,-.5 261,-.5"/>
<text text-anchor="middle" x="302.5" y="-7.5" font-family="Helvetica,sans-Serif" font-size="10.00" fill="#000000">Solver::step_to</text>
</a>
</g>
</g>
<!-- Node261&#45;&gt;Node262 -->
<g id="edge2" class="edge">
<title>Node261&#45;&gt;Node262</title>
<path fill="none" stroke="#191970" d="M235.3174,-10C243.8022,-10 252.499,-10 260.7019,-10"/>
<polygon fill="#191970" stroke="#191970" points="235.1205,-6.5001 225.1204,-10 235.1204,-13.5001 235.1205,-6.5001"/>
</g>
</g>
</svg>
