<?xml version="1.0" encoding="UTF-8" standalone="no"?>
<!DOCTYPE svg PUBLIC "-//W3C//DTD SVG 1.1//EN"
 "http://www.w3.org/Graphics/SVG/1.1/DTD/svg11.dtd">
<!-- Generated by graphviz version 2.40.1 (20161225.0304)
 -->
<!-- Title: Species_Base::set_xb Pages: 1 -->
<svg width="537pt" height="66pt"
 viewBox="0.00 0.00 537.00 66.00" xmlns="http://www.w3.org/2000/svg" xmlns:xlink="http://www.w3.org/1999/xlink">
<g id="graph0" class="graph" transform="scale(1 1) rotate(0) translate(4 62)">
<title>Species_Base::set_xb</title>
<!-- Node145 -->
<g id="node1" class="node">
<title>Node145</title>
<polygon fill="#bfbfbf" stroke="#000000" points="0,-19.5 0,-38.5 115,-38.5 115,-19.5 0,-19.5"/>
<text text-anchor="middle" x="57.5" y="-26.5" font-family="Helvetica,sans-Serif" font-size="10.00" fill="#000000">Species_Base::set_xb</text>
</g>
<!-- Node146 -->
<g id="node2" class="node">
<title>Node146</title>
<g id="a_node2"><a xlink:href="classSolver.html#a0c67ab4d4fd9c36cfcbfdc13021b419f" target="_top" xlink:title="Solver::initialize">
<polygon fill="none" stroke="#000000" points="178,-38.5 178,-57.5 264,-57.5 264,-38.5 178,-38.5"/>
<text text-anchor="middle" x="221" y="-45.5" font-family="Helvetica,sans-Serif" font-size="10.00" fill="#000000">Solver::initialize</text>
</a>
</g>
</g>
<!-- Node145&#45;&gt;Node146 -->
<g id="edge1" class="edge">
<title>Node145&#45;&gt;Node146</title>
<path fill="none" stroke="#191970" d="M125.4352,-36.8946C143.1327,-38.9512 161.7198,-41.1112 177.7482,-42.9738"/>
<polygon fill="#191970" stroke="#191970" points="125.4812,-33.3765 115.144,-35.6987 124.6731,-40.3297 125.4812,-33.3765"/>
</g>
<!-- Node147 -->
<g id="node3" class="node">
<title>Node147</title>
<g id="a_node3"><a xlink:href="classSolver.html#ad3f68f3021eed287c5b1c85bdc24afd8" target="_top" xlink:title="Solver::copyStateToCohorts">
<polygon fill="none" stroke="#000000" points="151,-.5 151,-19.5 291,-19.5 291,-.5 151,-.5"/>
<text text-anchor="middle" x="221" y="-7.5" font-family="Helvetica,sans-Serif" font-size="10.00" fill="#000000">Solver::copyStateToCohorts</text>
</a>
</g>
</g>
<!-- Node145&#45;&gt;Node147 -->
<g id="edge2" class="edge">
<title>Node145&#45;&gt;Node147</title>
<path fill="none" stroke="#191970" d="M125.3421,-21.1162C133.8069,-20.1325 142.4767,-19.125 150.9739,-18.1376"/>
<polygon fill="#191970" stroke="#191970" points="124.6731,-17.6703 115.144,-22.3013 125.4812,-24.6235 124.6731,-17.6703"/>
</g>
<!-- Node148 -->
<g id="node4" class="node">
<title>Node148</title>
<g id="a_node4"><a xlink:href="classSolver.html#af4c8f6565df94ed6a058a224196b9c2b" target="_top" xlink:title="Solver::step_to">
<polygon fill="none" stroke="#000000" points="327,-.5 327,-19.5 410,-19.5 410,-.5 327,-.5"/>
<text text-anchor="middle" x="368.5" y="-7.5" font-family="Helvetica,sans-Serif" font-size="10.00" fill="#000000">Solver::step_to</text>
</a>
</g>
</g>
<!-- Node147&#45;&gt;Node148 -->
<g id="edge3" class="edge">
<title>Node147&#45;&gt;Node148</title>
<path fill="none" stroke="#191970" d="M301.5617,-10C310.2833,-10 318.8767,-10 326.8485,-10"/>
<polygon fill="#191970" stroke="#191970" points="301.2941,-6.5001 291.2941,-10 301.2941,-13.5001 301.2941,-6.5001"/>
</g>
<!-- Node149 -->
<g id="node5" class="node">
<title>Node149</title>
<g id="a_node5"><a xlink:href="classSolver.html#a06cf82d0a99490279ab20d2ad6b876db" target="_top" xlink:title="Solver::step_to">
<polygon fill="none" stroke="#000000" points="446,-.5 446,-19.5 529,-19.5 529,-.5 446,-.5"/>
<text text-anchor="middle" x="487.5" y="-7.5" font-family="Helvetica,sans-Serif" font-size="10.00" fill="#000000">Solver::step_to</text>
</a>
</g>
</g>
<!-- Node148&#45;&gt;Node149 -->
<g id="edge4" class="edge">
<title>Node148&#45;&gt;Node149</title>
<path fill="none" stroke="#191970" d="M420.3174,-10C428.8022,-10 437.499,-10 445.7019,-10"/>
<polygon fill="#191970" stroke="#191970" points="420.1205,-6.5001 410.1204,-10 420.1204,-13.5001 420.1205,-6.5001"/>
</g>
</g>
</svg>
