<?xml version="1.0" encoding="UTF-8" standalone="no"?>
<!DOCTYPE svg PUBLIC "-//W3C//DTD SVG 1.1//EN"
 "http://www.w3.org/Graphics/SVG/1.1/DTD/svg11.dtd">
<!-- Generated by graphviz version 2.40.1 (20161225.0304)
 -->
<!-- Title: Solver::integrate_wudx_above Pages: 1 -->
<svg width="315pt" height="142pt"
 viewBox="0.00 0.00 315.00 142.00" xmlns="http://www.w3.org/2000/svg" xmlns:xlink="http://www.w3.org/1999/xlink">
<g id="graph0" class="graph" transform="scale(1 1) rotate(0) translate(4 138)">
<title>Solver::integrate_wudx_above</title>
<!-- Node86 -->
<g id="node1" class="node">
<title>Node86</title>
<polygon fill="#bfbfbf" stroke="#000000" points="0,-52 0,-82 116,-82 116,-52 0,-52"/>
<text text-anchor="start" x="8" y="-70" font-family="Helvetica,sans-Serif" font-size="10.00" fill="#000000">Solver::integrate_wudx</text>
<text text-anchor="middle" x="58" y="-59" font-family="Helvetica,sans-Serif" font-size="10.00" fill="#000000">_above</text>
</g>
<!-- Node87 -->
<g id="node2" class="node">
<title>Node87</title>
<g id="a_node2"><a xlink:href="classSpecies__Base.html#ad412522fc071525a19f95609880b20ff" target="_top" xlink:title="Species_Base::getU">
<polygon fill="none" stroke="#000000" points="176,-114.5 176,-133.5 283,-133.5 283,-114.5 176,-114.5"/>
<text text-anchor="middle" x="229.5" y="-121.5" font-family="Helvetica,sans-Serif" font-size="10.00" fill="#000000">Species_Base::getU</text>
</a>
</g>
</g>
<!-- Node86&#45;&gt;Node87 -->
<g id="edge1" class="edge">
<title>Node86&#45;&gt;Node87</title>
<path fill="none" stroke="#191970" d="M91.9419,-82.0976C109.6228,-89.6088 131.7312,-98.456 152,-105 159.6854,-107.4813 167.8895,-109.8178 175.9775,-111.9468"/>
<polygon fill="#191970" stroke="#191970" points="175.1881,-115.3574 185.7428,-114.4365 176.9175,-108.5744 175.1881,-115.3574"/>
</g>
<!-- Node88 -->
<g id="node3" class="node">
<title>Node88</title>
<g id="a_node3"><a xlink:href="classSpecies__Base.html#aa6880c6f5c8ff125cab4d1195dedfb13" target="_top" xlink:title="Species_Base::getX">
<polygon fill="none" stroke="#000000" points="176.5,-76.5 176.5,-95.5 282.5,-95.5 282.5,-76.5 176.5,-76.5"/>
<text text-anchor="middle" x="229.5" y="-83.5" font-family="Helvetica,sans-Serif" font-size="10.00" fill="#000000">Species_Base::getX</text>
</a>
</g>
</g>
<!-- Node86&#45;&gt;Node88 -->
<g id="edge2" class="edge">
<title>Node86&#45;&gt;Node88</title>
<path fill="none" stroke="#191970" d="M116.0621,-73.4325C132.2371,-75.2245 149.8846,-77.1796 166.3375,-79.0024"/>
<polygon fill="#191970" stroke="#191970" points="166.0789,-82.4951 176.4035,-80.1176 166.8497,-75.5376 166.0789,-82.4951"/>
</g>
<!-- Node89 -->
<g id="node4" class="node">
<title>Node89</title>
<g id="a_node4"><a xlink:href="classSpecies__Base.html#a191930a24322d8df293e759943d156fa" target="_top" xlink:title="Species_Base::get_boundary_u">
<polygon fill="none" stroke="#000000" points="152,-38.5 152,-57.5 307,-57.5 307,-38.5 152,-38.5"/>
<text text-anchor="middle" x="229.5" y="-45.5" font-family="Helvetica,sans-Serif" font-size="10.00" fill="#000000">Species_Base::get_boundary_u</text>
</a>
</g>
</g>
<!-- Node86&#45;&gt;Node89 -->
<g id="edge3" class="edge">
<title>Node86&#45;&gt;Node89</title>
<path fill="none" stroke="#191970" d="M116.0621,-60.5675C124.3037,-59.6544 132.9276,-58.699 141.581,-57.7403"/>
<polygon fill="#191970" stroke="#191970" points="142.1779,-61.1957 151.7317,-56.6157 141.4071,-54.2382 142.1779,-61.1957"/>
</g>
<!-- Node90 -->
<g id="node5" class="node">
<title>Node90</title>
<g id="a_node5"><a xlink:href="classSpecies__Base.html#a86a04ae53b3f25c4e90b01a8eaed3bfd" target="_top" xlink:title="Species_Base::setX">
<polygon fill="none" stroke="#000000" points="176.5,-.5 176.5,-19.5 282.5,-19.5 282.5,-.5 176.5,-.5"/>
<text text-anchor="middle" x="229.5" y="-7.5" font-family="Helvetica,sans-Serif" font-size="10.00" fill="#000000">Species_Base::setX</text>
</a>
</g>
</g>
<!-- Node86&#45;&gt;Node90 -->
<g id="edge4" class="edge">
<title>Node86&#45;&gt;Node90</title>
<path fill="none" stroke="#191970" d="M91.9419,-51.9024C109.6228,-44.3912 131.7312,-35.544 152,-29 159.6854,-26.5187 167.8895,-24.1822 175.9775,-22.0532"/>
<polygon fill="#191970" stroke="#191970" points="176.9175,-25.4256 185.7428,-19.5635 175.1881,-18.6426 176.9175,-25.4256"/>
</g>
</g>
</svg>
