<?xml version="1.0" encoding="UTF-8" standalone="no"?>
<!DOCTYPE svg PUBLIC "-//W3C//DTD SVG 1.1//EN"
 "http://www.w3.org/Graphics/SVG/1.1/DTD/svg11.dtd">
<!-- Generated by graphviz version 2.40.1 (20161225.0304)
 -->
<!-- Title: RKCK45::RKTry Pages: 1 -->
<svg width="333pt" height="104pt"
 viewBox="0.00 0.00 333.00 104.00" xmlns="http://www.w3.org/2000/svg" xmlns:xlink="http://www.w3.org/1999/xlink">
<g id="graph0" class="graph" transform="scale(1 1) rotate(0) translate(4 100)">
<title>RKCK45::RKTry</title>
<!-- Node48 -->
<g id="node1" class="node">
<title>Node48</title>
<polygon fill="#bfbfbf" stroke="#000000" points="0,-19.5 0,-38.5 90,-38.5 90,-19.5 0,-19.5"/>
<text text-anchor="middle" x="45" y="-26.5" font-family="Helvetica,sans-Serif" font-size="10.00" fill="#000000">RKCK45::RKTry</text>
</g>
<!-- Node49 -->
<g id="node2" class="node">
<title>Node49</title>
<g id="a_node2"><a xlink:href="classRKCK45.html#ac38757c7ff000b18a23c5938d8346e17" target="_top" xlink:title="RKCK45::Step">
<polygon fill="none" stroke="#000000" points="133,-76.5 133,-95.5 215,-95.5 215,-76.5 133,-76.5"/>
<text text-anchor="middle" x="174" y="-83.5" font-family="Helvetica,sans-Serif" font-size="10.00" fill="#000000">RKCK45::Step</text>
</a>
</g>
</g>
<!-- Node48&#45;&gt;Node49 -->
<g id="edge1" class="edge">
<title>Node48&#45;&gt;Node49</title>
<path fill="none" stroke="#191970" d="M64.4874,-38.5558C80.7996,-46.4545 104.7534,-57.8216 126,-67 130.3966,-68.8993 135.0492,-70.8336 139.6593,-72.7054"/>
<polygon fill="#191970" stroke="#191970" points="138.3823,-75.9642 148.967,-76.4289 140.9823,-69.465 138.3823,-75.9642"/>
</g>
<!-- Node50 -->
<g id="node3" class="node">
<title>Node50</title>
<g id="a_node3"><a xlink:href="classRKCK45.html#af7ed85b9bd7f3aee9779517c9a885b39" target="_top" xlink:title="RKCK45::resize">
<polygon fill="none" stroke="#000000" points="130,-38.5 130,-57.5 218,-57.5 218,-38.5 130,-38.5"/>
<text text-anchor="middle" x="174" y="-45.5" font-family="Helvetica,sans-Serif" font-size="10.00" fill="#000000">RKCK45::resize</text>
</a>
</g>
</g>
<!-- Node48&#45;&gt;Node50 -->
<g id="edge2" class="edge">
<title>Node48&#45;&gt;Node50</title>
<path fill="none" stroke="#191970" d="M90.1179,-35.6453C99.7165,-37.059 109.9463,-38.5657 119.8426,-40.0233"/>
<polygon fill="#191970" stroke="#191970" points="119.5912,-43.524 129.9945,-41.5186 120.6112,-36.5987 119.5912,-43.524"/>
</g>
<!-- Node51 -->
<g id="node4" class="node">
<title>Node51</title>
<g id="a_node4"><a xlink:href="classRKCK45.html#a9ce8515e634e6937f8587d280d18d18a" target="_top" xlink:title="RKCK45::RKStep">
<polygon fill="none" stroke="#000000" points="126,-.5 126,-19.5 222,-19.5 222,-.5 126,-.5"/>
<text text-anchor="middle" x="174" y="-7.5" font-family="Helvetica,sans-Serif" font-size="10.00" fill="#000000">RKCK45::RKStep</text>
</a>
</g>
</g>
<!-- Node48&#45;&gt;Node51 -->
<g id="edge3" class="edge">
<title>Node48&#45;&gt;Node51</title>
<path fill="none" stroke="#191970" d="M71.7289,-19.4705C84.5629,-16.6852 100.4775,-13.9653 115.8992,-11.8371"/>
<polygon fill="#191970" stroke="#191970" points="116.4618,-15.2934 125.925,-10.5292 115.5563,-8.3523 116.4618,-15.2934"/>
</g>
<!-- Node51&#45;&gt;Node48 -->
<g id="edge5" class="edge">
<title>Node51&#45;&gt;Node48</title>
<path fill="none" stroke="#191970" d="M147.1487,-19.5561C133.5045,-22.5122 116.402,-25.3928 100.1152,-27.5683"/>
<polygon fill="#191970" stroke="#191970" points="99.6028,-24.1051 90.1179,-28.8262 100.4767,-31.0504 99.6028,-24.1051"/>
</g>
<!-- Node52 -->
<g id="node5" class="node">
<title>Node52</title>
<g id="a_node5"><a xlink:href="classRKCK45.html#ad30346cd92d32df6663deb6d0f4619a5" target="_top" xlink:title="RKCK45::h">
<polygon fill="none" stroke="#000000" points="258,-.5 258,-19.5 325,-19.5 325,-.5 258,-.5"/>
<text text-anchor="middle" x="291.5" y="-7.5" font-family="Helvetica,sans-Serif" font-size="10.00" fill="#000000">RKCK45::h</text>
</a>
</g>
</g>
<!-- Node51&#45;&gt;Node52 -->
<g id="edge4" class="edge">
<title>Node51&#45;&gt;Node52</title>
<path fill="none" stroke="#191970" d="M222.1308,-10C230.6917,-10 239.5638,-10 247.987,-10"/>
<polygon fill="#191970" stroke="#191970" points="247.9877,-13.5001 257.9877,-10 247.9877,-6.5001 247.9877,-13.5001"/>
</g>
</g>
</svg>
