<?xml version="1.0" encoding="UTF-8" standalone="no"?>
<!DOCTYPE svg PUBLIC "-//W3C//DTD SVG 1.1//EN"
 "http://www.w3.org/Graphics/SVG/1.1/DTD/svg11.dtd">
<!-- Generated by graphviz version 2.40.1 (20161225.0304)
 -->
<!-- Title: Species&lt; Model &gt; Pages: 1 -->
<svg width="435pt" height="263pt"
 viewBox="0.00 0.00 435.00 263.00" xmlns="http://www.w3.org/2000/svg" xmlns:xlink="http://www.w3.org/1999/xlink">
<g id="graph0" class="graph" transform="scale(1 1) rotate(0) translate(4 259)">
<title>Species&lt; Model &gt;</title>
<!-- Node2 -->
<g id="node1" class="node">
<title>Node2</title>
<polygon fill="#bfbfbf" stroke="#000000" points="186.5,-.5 186.5,-19.5 282.5,-19.5 282.5,-.5 186.5,-.5"/>
<text text-anchor="middle" x="234.5" y="-7.5" font-family="Helvetica,sans-Serif" font-size="10.00" fill="#000000">Species&lt; Model &gt;</text>
</g>
<!-- Node3 -->
<g id="node2" class="node">
<title>Node3</title>
<g id="a_node2"><a xlink:href="classSpecies__Base.html" target="_top" xlink:title="Species_Base">
<polygon fill="none" stroke="#000000" points="118.5,-73 118.5,-92 198.5,-92 198.5,-73 118.5,-73"/>
<text text-anchor="middle" x="158.5" y="-80" font-family="Helvetica,sans-Serif" font-size="10.00" fill="#000000">Species_Base</text>
</a>
</g>
</g>
<!-- Node3&#45;&gt;Node2 -->
<g id="edge1" class="edge">
<title>Node3&#45;&gt;Node2</title>
<path fill="none" stroke="#191970" d="M176.3736,-65.4495C191.3472,-51.1655 212.1813,-31.2909 224.4127,-19.6228"/>
<polygon fill="#191970" stroke="#191970" points="173.5696,-63.2873 168.7497,-72.7223 178.4013,-68.3523 173.5696,-63.2873"/>
</g>
<!-- Node4 -->
<g id="node3" class="node">
<title>Node4</title>
<polygon fill="none" stroke="#bfbfbf" points="0,-178.5 0,-197.5 95,-197.5 95,-178.5 0,-178.5"/>
<text text-anchor="middle" x="47.5" y="-185.5" font-family="Helvetica,sans-Serif" font-size="10.00" fill="#000000">std::list&lt; double &gt;</text>
</g>
<!-- Node4&#45;&gt;Node3 -->
<g id="edge2" class="edge">
<title>Node4&#45;&gt;Node3</title>
<path fill="none" stroke="#9a32cd" stroke-dasharray="5,2" d="M45.9462,-168.0009C45.8135,-152.1116 48.2406,-130.2623 60.5,-116 68.3528,-106.8642 94.8354,-98.1139 118.2932,-91.8486"/>
<polygon fill="#9a32cd" stroke="#9a32cd" points="42.4636,-168.4837 46.3912,-178.3237 49.4571,-168.1822 42.4636,-168.4837"/>
<text text-anchor="middle" x="109" y="-135.5" font-family="Helvetica,sans-Serif" font-size="10.00" fill="#000000"> birth_flux_out_history</text>
</g>
<!-- Node5 -->
<g id="node4" class="node">
<title>Node5</title>
<polygon fill="none" stroke="#bfbfbf" points="113.5,-178.5 113.5,-197.5 223.5,-197.5 223.5,-178.5 113.5,-178.5"/>
<text text-anchor="middle" x="168.5" y="-185.5" font-family="Helvetica,sans-Serif" font-size="10.00" fill="#000000">std::vector&lt; double &gt;</text>
</g>
<!-- Node5&#45;&gt;Node3 -->
<g id="edge3" class="edge">
<title>Node5&#45;&gt;Node3</title>
<path fill="none" stroke="#9a32cd" stroke-dasharray="5,2" d="M166.6128,-168.0898C164.4662,-145.4438 161.0487,-109.3887 159.4206,-92.2126"/>
<polygon fill="#9a32cd" stroke="#9a32cd" points="163.149,-168.6388 167.5771,-178.2639 170.1178,-167.9782 163.149,-168.6388"/>
<text text-anchor="middle" x="185.5" y="-152" font-family="Helvetica,sans-Serif" font-size="10.00" fill="#000000"> x</text>
<text text-anchor="middle" x="185.5" y="-141" font-family="Helvetica,sans-Serif" font-size="10.00" fill="#000000">schedule</text>
<text text-anchor="middle" x="185.5" y="-130" font-family="Helvetica,sans-Serif" font-size="10.00" fill="#000000">h</text>
<text text-anchor="middle" x="185.5" y="-119" font-family="Helvetica,sans-Serif" font-size="10.00" fill="#000000">X</text>
</g>
<!-- Node6 -->
<g id="node5" class="node">
<title>Node6</title>
<g id="a_node5"><a xlink:href="classCohort.html" target="_top" xlink:title="Cohort\&lt; Model \&gt;">
<polygon fill="none" stroke="#000000" points="291.5,-178.5 291.5,-197.5 381.5,-197.5 381.5,-178.5 291.5,-178.5"/>
<text text-anchor="middle" x="336.5" y="-185.5" font-family="Helvetica,sans-Serif" font-size="10.00" fill="#000000">Cohort&lt; Model &gt;</text>
</a>
</g>
</g>
<!-- Node6&#45;&gt;Node2 -->
<g id="edge4" class="edge">
<title>Node6&#45;&gt;Node2</title>
<path fill="none" stroke="#9a32cd" stroke-dasharray="5,2" d="M313.2772,-172.5351C291.4982,-156.6339 260.0271,-129.7561 244.5,-98 231.7349,-71.8928 232.3677,-36.3693 233.5733,-19.5632"/>
<polygon fill="#9a32cd" stroke="#9a32cd" points="311.4754,-175.5477 321.6602,-178.4666 315.5186,-169.8335 311.4754,-175.5477"/>
<text text-anchor="middle" x="281" y="-85.5" font-family="Helvetica,sans-Serif" font-size="10.00" fill="#000000"> boundaryCohort</text>
<text text-anchor="middle" x="281" y="-74.5" font-family="Helvetica,sans-Serif" font-size="10.00" fill="#000000">savedCohort</text>
</g>
<!-- Node8 -->
<g id="node7" class="node">
<title>Node8</title>
<polygon fill="none" stroke="#bfbfbf" points="326,-67.5 326,-97.5 427,-97.5 427,-67.5 326,-67.5"/>
<text text-anchor="start" x="334" y="-85.5" font-family="Helvetica,sans-Serif" font-size="10.00" fill="#000000">std::vector&lt; Cohort</text>
<text text-anchor="middle" x="376.5" y="-74.5" font-family="Helvetica,sans-Serif" font-size="10.00" fill="#000000">&lt; Model &gt; &gt;</text>
</g>
<!-- Node6&#45;&gt;Node8 -->
<g id="edge7" class="edge">
<title>Node6&#45;&gt;Node8</title>
<path fill="none" stroke="#9a32cd" stroke-dasharray="5,2" d="M343.8049,-168.7333C351.5681,-148.258 363.6814,-116.309 370.7796,-97.5875"/>
<polygon fill="#9a32cd" stroke="#9a32cd" points="340.464,-167.6726 340.1914,-178.2639 347.0093,-170.1543 340.464,-167.6726"/>
<text text-anchor="middle" x="385" y="-135.5" font-family="Helvetica,sans-Serif" font-size="10.00" fill="#000000"> elements</text>
</g>
<!-- Node7 -->
<g id="node6" class="node">
<title>Node7</title>
<polygon fill="none" stroke="#bfbfbf" points="315,-235.5 315,-254.5 358,-254.5 358,-235.5 315,-235.5"/>
<text text-anchor="middle" x="336.5" y="-242.5" font-family="Helvetica,sans-Serif" font-size="10.00" fill="#000000">Model</text>
</g>
<!-- Node7&#45;&gt;Node6 -->
<g id="edge5" class="edge">
<title>Node7&#45;&gt;Node6</title>
<path fill="none" stroke="#191970" d="M336.5,-225.2342C336.5,-215.8491 336.5,-205.0651 336.5,-197.5265"/>
<polygon fill="#191970" stroke="#191970" points="333.0001,-225.3307 336.5,-235.3307 340.0001,-225.3308 333.0001,-225.3307"/>
</g>
<!-- Node8&#45;&gt;Node2 -->
<g id="edge6" class="edge">
<title>Node8&#45;&gt;Node2</title>
<path fill="none" stroke="#9a32cd" stroke-dasharray="5,2" d="M338.1306,-62.91C310.7152,-48.9127 275.0046,-30.6802 253.4643,-19.6825"/>
<polygon fill="#9a32cd" stroke="#9a32cd" points="336.5796,-66.0479 347.0775,-67.478 339.7627,-59.8134 336.5796,-66.0479"/>
<text text-anchor="middle" x="327.5" y="-41" font-family="Helvetica,sans-Serif" font-size="10.00" fill="#000000"> cohorts</text>
</g>
</g>
</svg>
