<?xml version="1.0" encoding="UTF-8" standalone="no"?>
<!DOCTYPE svg PUBLIC "-//W3C//DTD SVG 1.1//EN"
 "http://www.w3.org/Graphics/SVG/1.1/DTD/svg11.dtd">
<!-- Generated by graphviz version 2.40.1 (20161225.0304)
 -->
<!-- Title: ODE_Solver&lt; F &gt; Pages: 1 -->
<svg width="238pt" height="95pt"
 viewBox="0.00 0.00 237.50 95.00" xmlns="http://www.w3.org/2000/svg" xmlns:xlink="http://www.w3.org/1999/xlink">
<g id="graph0" class="graph" transform="scale(1 1) rotate(0) translate(4 91)">
<title>ODE_Solver&lt; F &gt;</title>
<!-- Node2 -->
<g id="node1" class="node">
<title>Node2</title>
<polygon fill="#bfbfbf" stroke="#000000" points="65,-.5 65,-19.5 160,-19.5 160,-.5 65,-.5"/>
<text text-anchor="middle" x="112.5" y="-7.5" font-family="Helvetica,sans-Serif" font-size="10.00" fill="#000000">ODE_Solver&lt; F &gt;</text>
</g>
<!-- Node3 -->
<g id="node2" class="node">
<title>Node3</title>
<polygon fill="none" stroke="#bfbfbf" points="0,-67.5 0,-86.5 101,-86.5 101,-67.5 0,-67.5"/>
<text text-anchor="middle" x="50.5" y="-74.5" font-family="Helvetica,sans-Serif" font-size="10.00" fill="#000000">gsl_odeiv2_system</text>
</g>
<!-- Node3&#45;&gt;Node2 -->
<g id="edge1" class="edge">
<title>Node3&#45;&gt;Node2</title>
<path fill="none" stroke="#191970" d="M66.4953,-59.7147C78.3158,-46.941 93.9718,-30.0224 103.6334,-19.5817"/>
<polygon fill="#191970" stroke="#191970" points="63.6061,-57.6837 59.3831,-67.4005 68.7439,-62.4381 63.6061,-57.6837"/>
</g>
<!-- Node4 -->
<g id="node3" class="node">
<title>Node4</title>
<polygon fill="none" stroke="#bfbfbf" points="119.5,-67.5 119.5,-86.5 229.5,-86.5 229.5,-67.5 119.5,-67.5"/>
<text text-anchor="middle" x="174.5" y="-74.5" font-family="Helvetica,sans-Serif" font-size="10.00" fill="#000000">std::vector&lt; double &gt;</text>
</g>
<!-- Node4&#45;&gt;Node2 -->
<g id="edge2" class="edge">
<title>Node4&#45;&gt;Node2</title>
<path fill="none" stroke="#9a32cd" stroke-dasharray="5,2" d="M158.5047,-59.7147C146.6842,-46.941 131.0282,-30.0224 121.3666,-19.5817"/>
<polygon fill="#9a32cd" stroke="#9a32cd" points="156.2561,-62.4381 165.6169,-67.4005 161.3939,-57.6837 156.2561,-62.4381"/>
<text text-anchor="middle" x="151" y="-41" font-family="Helvetica,sans-Serif" font-size="10.00" fill="#000000"> y</text>
</g>
</g>
</svg>
