<?xml version="1.0" encoding="UTF-8" standalone="no"?>
<!DOCTYPE svg PUBLIC "-//W3C//DTD SVG 1.1//EN"
 "http://www.w3.org/Graphics/SVG/1.1/DTD/svg11.dtd">
<!-- Generated by graphviz version 2.40.1 (20161225.0304)
 -->
<!-- Title: OdeSolver::step_to Pages: 1 -->
<svg width="944pt" height="484pt"
 viewBox="0.00 0.00 944.00 484.00" xmlns="http://www.w3.org/2000/svg" xmlns:xlink="http://www.w3.org/1999/xlink">
<g id="graph0" class="graph" transform="scale(1 1) rotate(0) translate(4 480)">
<title>OdeSolver::step_to</title>
<!-- Node11 -->
<g id="node1" class="node">
<title>Node11</title>
<polygon fill="#bfbfbf" stroke="#000000" points="0,-304.5 0,-323.5 101,-323.5 101,-304.5 0,-304.5"/>
<text text-anchor="middle" x="50.5" y="-311.5" font-family="Helvetica,sans-Serif" font-size="10.00" fill="#000000">OdeSolver::step_to</text>
</g>
<!-- Node12 -->
<g id="node2" class="node">
<title>Node12</title>
<g id="a_node2"><a xlink:href="classLSODA.html#a278bb538d9b0354084473a931567a023" target="_top" xlink:title="LSODA::set_istate">
<polygon fill="none" stroke="#000000" points="144.5,-361.5 144.5,-380.5 243.5,-380.5 243.5,-361.5 144.5,-361.5"/>
<text text-anchor="middle" x="194" y="-368.5" font-family="Helvetica,sans-Serif" font-size="10.00" fill="#000000">LSODA::set_istate</text>
</a>
</g>
</g>
<!-- Node11&#45;&gt;Node12 -->
<g id="edge1" class="edge">
<title>Node11&#45;&gt;Node12</title>
<path fill="none" stroke="#191970" d="M70.9011,-323.5991C88.2905,-331.6269 114.042,-343.1525 137,-352 142.4872,-354.1146 148.3218,-356.2193 154.0848,-358.2159"/>
<polygon fill="#191970" stroke="#191970" points="153.0475,-361.5598 163.6419,-361.4566 155.2955,-354.9306 153.0475,-361.5598"/>
</g>
<!-- Node13 -->
<g id="node3" class="node">
<title>Node13</title>
<g id="a_node3"><a xlink:href="classLSODA.html#a391e4d7bea026ad7c300cfb55cb290d1" target="_top" xlink:title="LSODA::lsoda_update">
<polygon fill="none" stroke="#000000" points="137,-323.5 137,-342.5 251,-342.5 251,-323.5 137,-323.5"/>
<text text-anchor="middle" x="194" y="-330.5" font-family="Helvetica,sans-Serif" font-size="10.00" fill="#000000">LSODA::lsoda_update</text>
</a>
</g>
</g>
<!-- Node11&#45;&gt;Node13 -->
<g id="edge2" class="edge">
<title>Node11&#45;&gt;Node13</title>
<path fill="none" stroke="#191970" d="M101.0927,-320.6987C109.3284,-321.7891 117.9725,-322.9336 126.5349,-324.0673"/>
<polygon fill="#191970" stroke="#191970" points="126.1467,-327.5464 136.5196,-325.3894 127.0655,-320.607 126.1467,-327.5464"/>
</g>
<!-- Node35 -->
<g id="node25" class="node">
<title>Node35</title>
<g id="a_node25"><a xlink:href="classLSODA.html#a418110bad0f4978101950dfd04311a02" target="_top" xlink:title="LSODA::get_istate">
<polygon fill="none" stroke="#000000" points="144.5,-285.5 144.5,-304.5 243.5,-304.5 243.5,-285.5 144.5,-285.5"/>
<text text-anchor="middle" x="194" y="-292.5" font-family="Helvetica,sans-Serif" font-size="10.00" fill="#000000">LSODA::get_istate</text>
</a>
</g>
</g>
<!-- Node11&#45;&gt;Node35 -->
<g id="edge27" class="edge">
<title>Node11&#45;&gt;Node35</title>
<path fill="none" stroke="#191970" d="M101.0927,-307.3013C111.8425,-305.878 123.2881,-304.3626 134.3396,-302.8993"/>
<polygon fill="#191970" stroke="#191970" points="134.8929,-306.3567 144.347,-301.5743 133.974,-299.4172 134.8929,-306.3567"/>
</g>
<!-- Node36 -->
<g id="node26" class="node">
<title>Node36</title>
<g id="a_node26"><a xlink:href="classLSODA.html#adb5f9410c901c193aeb836dd9cc4ab70" target="_top" xlink:title="LSODA::get_fncalls">
<polygon fill="none" stroke="#000000" points="142,-247.5 142,-266.5 246,-266.5 246,-247.5 142,-247.5"/>
<text text-anchor="middle" x="194" y="-254.5" font-family="Helvetica,sans-Serif" font-size="10.00" fill="#000000">LSODA::get_fncalls</text>
</a>
</g>
</g>
<!-- Node11&#45;&gt;Node36 -->
<g id="edge28" class="edge">
<title>Node11&#45;&gt;Node36</title>
<path fill="none" stroke="#191970" d="M70.9011,-304.4009C88.2905,-296.3731 114.042,-284.8475 137,-276 142.4872,-273.8854 148.3218,-271.7807 154.0848,-269.7841"/>
<polygon fill="#191970" stroke="#191970" points="155.2955,-273.0694 163.6419,-266.5434 153.0475,-266.4402 155.2955,-273.0694"/>
</g>
<!-- Node14 -->
<g id="node4" class="node">
<title>Node14</title>
<g id="a_node4"><a xlink:href="classLSODA.html#a705dcfe5b21827adb8871e48f2c72fb2" target="_top" xlink:title="LSODA::lsoda">
<polygon fill="none" stroke="#000000" points="287,-323.5 287,-342.5 367,-342.5 367,-323.5 287,-323.5"/>
<text text-anchor="middle" x="327" y="-330.5" font-family="Helvetica,sans-Serif" font-size="10.00" fill="#000000">LSODA::lsoda</text>
</a>
</g>
</g>
<!-- Node13&#45;&gt;Node14 -->
<g id="edge3" class="edge">
<title>Node13&#45;&gt;Node14</title>
<path fill="none" stroke="#191970" d="M251.1758,-333C259.5915,-333 268.2104,-333 276.4789,-333"/>
<polygon fill="#191970" stroke="#191970" points="276.7234,-336.5001 286.7234,-333 276.7234,-329.5001 276.7234,-336.5001"/>
</g>
<!-- Node15 -->
<g id="node5" class="node">
<title>Node15</title>
<g id="a_node5"><a xlink:href="classLSODA.html#addd83d35565b2c2db644f27dbd94446f" target="_top" xlink:title="LSODA::terminate">
<polygon fill="none" stroke="#000000" points="414.5,-456.5 414.5,-475.5 511.5,-475.5 511.5,-456.5 414.5,-456.5"/>
<text text-anchor="middle" x="463" y="-463.5" font-family="Helvetica,sans-Serif" font-size="10.00" fill="#000000">LSODA::terminate</text>
</a>
</g>
</g>
<!-- Node14&#45;&gt;Node15 -->
<g id="edge4" class="edge">
<title>Node14&#45;&gt;Node15</title>
<path fill="none" stroke="#191970" d="M330.7251,-342.5461C339.7284,-364.3758 364.7865,-418.2662 403,-447 405.4958,-448.8766 408.182,-450.571 410.9851,-452.1006"/>
<polygon fill="#191970" stroke="#191970" points="409.7057,-455.3663 420.2455,-456.4453 412.679,-449.0292 409.7057,-455.3663"/>
</g>
<!-- Node16 -->
<g id="node6" class="node">
<title>Node16</title>
<g id="a_node6"><a xlink:href="classLSODA.html#a6f118c16d754b66d7ee9220037260978" target="_top" xlink:title="LSODA::resize_system">
<polygon fill="none" stroke="#000000" points="403,-418.5 403,-437.5 523,-437.5 523,-418.5 403,-418.5"/>
<text text-anchor="middle" x="463" y="-425.5" font-family="Helvetica,sans-Serif" font-size="10.00" fill="#000000">LSODA::resize_system</text>
</a>
</g>
</g>
<!-- Node14&#45;&gt;Node16 -->
<g id="edge5" class="edge">
<title>Node14&#45;&gt;Node16</title>
<path fill="none" stroke="#191970" d="M334.0883,-342.6381C346.3728,-358.6795 373.1802,-390.8795 403,-409 406.4214,-411.0791 410.0925,-412.9522 413.8718,-414.6358"/>
<polygon fill="#191970" stroke="#191970" points="412.8231,-417.9856 423.4082,-418.4395 415.4165,-411.4837 412.8231,-417.9856"/>
</g>
<!-- Node17 -->
<g id="node7" class="node">
<title>Node17</title>
<g id="a_node7"><a xlink:href="classLSODA.html#a0a54717e6b42492345098b16bb248e77" target="_top" xlink:title="LSODA::ewset">
<polygon fill="none" stroke="#000000" points="421.5,-380.5 421.5,-399.5 504.5,-399.5 504.5,-380.5 421.5,-380.5"/>
<text text-anchor="middle" x="463" y="-387.5" font-family="Helvetica,sans-Serif" font-size="10.00" fill="#000000">LSODA::ewset</text>
</a>
</g>
</g>
<!-- Node14&#45;&gt;Node17 -->
<g id="edge6" class="edge">
<title>Node14&#45;&gt;Node17</title>
<path fill="none" stroke="#191970" d="M344.1492,-342.5478C359.3232,-350.7586 382.22,-362.5755 403,-371 408.449,-373.2091 414.2584,-375.329 420.0359,-377.2996"/>
<polygon fill="#191970" stroke="#191970" points="419.0666,-380.6652 429.6595,-380.4644 421.2534,-374.0155 419.0666,-380.6652"/>
</g>
<!-- Node18 -->
<g id="node8" class="node">
<title>Node18</title>
<g id="a_node8"><a xlink:href="classLSODA.html#afbcbaee47892060721287dc0ba9708f9" target="_top" xlink:title="LSODA::terminate2">
<polygon fill="none" stroke="#000000" points="412,-342.5 412,-361.5 514,-361.5 514,-342.5 412,-342.5"/>
<text text-anchor="middle" x="463" y="-349.5" font-family="Helvetica,sans-Serif" font-size="10.00" fill="#000000">LSODA::terminate2</text>
</a>
</g>
</g>
<!-- Node14&#45;&gt;Node18 -->
<g id="edge7" class="edge">
<title>Node14&#45;&gt;Node18</title>
<path fill="none" stroke="#191970" d="M367.0689,-338.5979C377.8559,-340.1049 389.7778,-341.7704 401.4445,-343.4003"/>
<polygon fill="#191970" stroke="#191970" points="401.2082,-346.9012 411.5963,-344.8186 402.1768,-339.9686 401.2082,-346.9012"/>
</g>
<!-- Node19 -->
<g id="node9" class="node">
<title>Node19</title>
<g id="a_node9"><a xlink:href="classLSODA.html#ac94b738016b2a7c57cedd5ea4f13311f" target="_top" xlink:title="LSODA::vmnorm">
<polygon fill="none" stroke="#000000" points="844,-242.5 844,-261.5 936,-261.5 936,-242.5 844,-242.5"/>
<text text-anchor="middle" x="890" y="-249.5" font-family="Helvetica,sans-Serif" font-size="10.00" fill="#000000">LSODA::vmnorm</text>
</a>
</g>
</g>
<!-- Node14&#45;&gt;Node19 -->
<g id="edge8" class="edge">
<title>Node14&#45;&gt;Node19</title>
<path fill="none" stroke="#191970" d="M367.1453,-331.1885C467.1131,-326.3931 725.0881,-312.1946 808,-290 827.8317,-284.6913 848.8121,-274.8824 864.5863,-266.5603"/>
<polygon fill="#191970" stroke="#191970" points="866.5599,-269.4715 873.6784,-261.6243 863.2201,-263.3196 866.5599,-269.4715"/>
</g>
<!-- Node20 -->
<g id="node10" class="node">
<title>Node20</title>
<g id="a_node10"><a xlink:href="classLSODA.html#a1ee114165850fa09fcbd0b206de560dc" target="_top" xlink:title="LSODA::intdy">
<polygon fill="none" stroke="#000000" points="424.5,-266.5 424.5,-285.5 501.5,-285.5 501.5,-266.5 424.5,-266.5"/>
<text text-anchor="middle" x="463" y="-273.5" font-family="Helvetica,sans-Serif" font-size="10.00" fill="#000000">LSODA::intdy</text>
</a>
</g>
</g>
<!-- Node14&#45;&gt;Node20 -->
<g id="edge9" class="edge">
<title>Node14&#45;&gt;Node20</title>
<path fill="none" stroke="#191970" d="M348.5495,-323.444C363.7256,-316.7631 384.5456,-307.6955 403,-300 411.5015,-296.4549 420.7212,-292.7151 429.3241,-289.2703"/>
<polygon fill="#191970" stroke="#191970" points="430.71,-292.4857 438.7038,-285.5323 428.1185,-285.9831 430.71,-292.4857"/>
</g>
<!-- Node21 -->
<g id="node11" class="node">
<title>Node21</title>
<g id="a_node11"><a xlink:href="classLSODA.html#abf4eccf92cba7f87f9d5051ee6b28a42" target="_top" xlink:title="LSODA::successreturn">
<polygon fill="none" stroke="#000000" points="404,-228.5 404,-247.5 522,-247.5 522,-228.5 404,-228.5"/>
<text text-anchor="middle" x="463" y="-235.5" font-family="Helvetica,sans-Serif" font-size="10.00" fill="#000000">LSODA::successreturn</text>
</a>
</g>
</g>
<!-- Node14&#45;&gt;Node21 -->
<g id="edge10" class="edge">
<title>Node14&#45;&gt;Node21</title>
<path fill="none" stroke="#191970" d="M334.0883,-323.3619C346.3728,-307.3205 373.1802,-275.1205 403,-257 406.4214,-254.9209 410.0925,-253.0478 413.8718,-251.3642"/>
<polygon fill="#191970" stroke="#191970" points="415.4165,-254.5163 423.4082,-247.5605 412.8231,-248.0144 415.4165,-254.5163"/>
</g>
<!-- Node22 -->
<g id="node12" class="node">
<title>Node22</title>
<g id="a_node12"><a xlink:href="classLSODA.html#a7c6d8d75b383474b5b05c710d2921618" target="_top" xlink:title="LSODA::stoda">
<polygon fill="none" stroke="#000000" points="423,-152.5 423,-171.5 503,-171.5 503,-152.5 423,-152.5"/>
<text text-anchor="middle" x="463" y="-159.5" font-family="Helvetica,sans-Serif" font-size="10.00" fill="#000000">LSODA::stoda</text>
</a>
</g>
</g>
<!-- Node14&#45;&gt;Node22 -->
<g id="edge11" class="edge">
<title>Node14&#45;&gt;Node22</title>
<path fill="none" stroke="#191970" d="M332.4421,-323.3388C344.0877,-303.0351 372.8295,-254.8548 403,-219 415.3266,-204.3511 431.0767,-189.509 443.3468,-178.6436"/>
<polygon fill="#191970" stroke="#191970" points="445.9553,-181.0133 451.2006,-171.808 441.3597,-175.7331 445.9553,-181.0133"/>
</g>
<!-- Node22&#45;&gt;Node19 -->
<g id="edge15" class="edge">
<title>Node22&#45;&gt;Node19</title>
<path fill="none" stroke="#191970" d="M473.3489,-171.5208C485.434,-182.7097 505.9437,-201.9201 523,-219 539.4391,-235.4618 537.6287,-247.8075 559,-257 653.9662,-297.848 778.8952,-278.8242 844.7949,-263.8988"/>
<polygon fill="#191970" stroke="#191970" points="845.91,-267.2325 854.8509,-261.5483 844.3168,-260.4163 845.91,-267.2325"/>
</g>
<!-- Node23 -->
<g id="node13" class="node">
<title>Node23</title>
<g id="a_node13"><a xlink:href="classLSODA.html#a0f3b8f1c3f9e12fb89ddebfc02930b56" target="_top" xlink:title="LSODA::cfode">
<polygon fill="none" stroke="#000000" points="577.5,-228.5 577.5,-247.5 657.5,-247.5 657.5,-228.5 577.5,-228.5"/>
<text text-anchor="middle" x="617.5" y="-235.5" font-family="Helvetica,sans-Serif" font-size="10.00" fill="#000000">LSODA::cfode</text>
</a>
</g>
</g>
<!-- Node22&#45;&gt;Node23 -->
<g id="edge12" class="edge">
<title>Node22&#45;&gt;Node23</title>
<path fill="none" stroke="#191970" d="M476.781,-171.5185C494.9657,-183.7602 528.2727,-205.0961 559,-219 563.7428,-221.1461 568.8007,-223.1638 573.8817,-225.0243"/>
<polygon fill="#191970" stroke="#191970" points="573.0095,-228.4264 583.6043,-228.4005 575.3058,-221.8137 573.0095,-228.4264"/>
</g>
<!-- Node24 -->
<g id="node14" class="node">
<title>Node24</title>
<g id="a_node14"><a xlink:href="classLSODA.html#a391bc37600b2df97c24cafc6352dc4ce" target="_top" xlink:title="LSODA::resetcoeff">
<polygon fill="none" stroke="#000000" points="567.5,-190.5 567.5,-209.5 667.5,-209.5 667.5,-190.5 567.5,-190.5"/>
<text text-anchor="middle" x="617.5" y="-197.5" font-family="Helvetica,sans-Serif" font-size="10.00" fill="#000000">LSODA::resetcoeff</text>
</a>
</g>
</g>
<!-- Node22&#45;&gt;Node24 -->
<g id="edge13" class="edge">
<title>Node22&#45;&gt;Node24</title>
<path fill="none" stroke="#191970" d="M501.9869,-171.589C522.283,-176.5809 547.2935,-182.7324 568.8462,-188.0334"/>
<polygon fill="#191970" stroke="#191970" points="568.2469,-191.4902 578.7935,-190.4799 569.9188,-184.6928 568.2469,-191.4902"/>
</g>
<!-- Node25 -->
<g id="node15" class="node">
<title>Node25</title>
<g id="a_node15"><a xlink:href="classLSODA.html#acd395b8e8db2b012842c1ffd57244fd3" target="_top" xlink:title="LSODA::scaleh">
<polygon fill="none" stroke="#000000" points="575,-152.5 575,-171.5 660,-171.5 660,-152.5 575,-152.5"/>
<text text-anchor="middle" x="617.5" y="-159.5" font-family="Helvetica,sans-Serif" font-size="10.00" fill="#000000">LSODA::scaleh</text>
</a>
</g>
</g>
<!-- Node22&#45;&gt;Node25 -->
<g id="edge14" class="edge">
<title>Node22&#45;&gt;Node25</title>
<path fill="none" stroke="#191970" d="M503.1897,-162C521.9196,-162 544.4588,-162 564.5546,-162"/>
<polygon fill="#191970" stroke="#191970" points="564.8076,-165.5001 574.8076,-162 564.8076,-158.5001 564.8076,-165.5001"/>
</g>
<!-- Node26 -->
<g id="node16" class="node">
<title>Node26</title>
<g id="a_node16"><a xlink:href="classLSODA.html#ae5ebdebff330f29ef0c15bece1bf8299" target="_top" xlink:title="LSODA::correction">
<polygon fill="none" stroke="#000000" points="568,-114.5 568,-133.5 667,-133.5 667,-114.5 568,-114.5"/>
<text text-anchor="middle" x="617.5" y="-121.5" font-family="Helvetica,sans-Serif" font-size="10.00" fill="#000000">LSODA::correction</text>
</a>
</g>
</g>
<!-- Node22&#45;&gt;Node26 -->
<g id="edge16" class="edge">
<title>Node22&#45;&gt;Node26</title>
<path fill="none" stroke="#191970" d="M501.9869,-152.411C522.283,-147.4191 547.2935,-141.2676 568.8462,-135.9666"/>
<polygon fill="#191970" stroke="#191970" points="569.9188,-139.3072 578.7935,-133.5201 568.2469,-132.5098 569.9188,-139.3072"/>
</g>
<!-- Node32 -->
<g id="node22" class="node">
<title>Node32</title>
<g id="a_node22"><a xlink:href="classLSODA.html#aa81043ac776e6d6b81ae2382b03dea2a" target="_top" xlink:title="LSODA::methodswitch">
<polygon fill="none" stroke="#000000" points="559,-76.5 559,-95.5 676,-95.5 676,-76.5 559,-76.5"/>
<text text-anchor="middle" x="617.5" y="-83.5" font-family="Helvetica,sans-Serif" font-size="10.00" fill="#000000">LSODA::methodswitch</text>
</a>
</g>
</g>
<!-- Node22&#45;&gt;Node32 -->
<g id="edge24" class="edge">
<title>Node22&#45;&gt;Node32</title>
<path fill="none" stroke="#191970" d="M476.781,-152.4815C494.9657,-140.2398 528.2727,-118.9039 559,-105 563.7428,-102.8539 568.8007,-100.8362 573.8817,-98.9757"/>
<polygon fill="#191970" stroke="#191970" points="575.3058,-102.1863 583.6043,-95.5995 573.0095,-95.5736 575.3058,-102.1863"/>
</g>
<!-- Node33 -->
<g id="node23" class="node">
<title>Node33</title>
<g id="a_node23"><a xlink:href="classLSODA.html#a1d1e589364f1c4100eba1837021fc4d9" target="_top" xlink:title="LSODA::endstoda">
<polygon fill="none" stroke="#000000" points="569.5,-38.5 569.5,-57.5 665.5,-57.5 665.5,-38.5 569.5,-38.5"/>
<text text-anchor="middle" x="617.5" y="-45.5" font-family="Helvetica,sans-Serif" font-size="10.00" fill="#000000">LSODA::endstoda</text>
</a>
</g>
</g>
<!-- Node22&#45;&gt;Node33 -->
<g id="edge25" class="edge">
<title>Node22&#45;&gt;Node33</title>
<path fill="none" stroke="#191970" d="M470.103,-152.4403C484.6899,-133.4559 519.9507,-90.7858 559,-67 562.3914,-64.9342 566.032,-63.0676 569.7778,-61.386"/>
<polygon fill="#191970" stroke="#191970" points="571.2569,-64.5635 579.2234,-57.5788 568.64,-58.0711 571.2569,-64.5635"/>
</g>
<!-- Node34 -->
<g id="node24" class="node">
<title>Node34</title>
<g id="a_node24"><a xlink:href="classLSODA.html#a0fae42ed968227524b320ab5d3470665" target="_top" xlink:title="LSODA::orderswitch">
<polygon fill="none" stroke="#000000" points="564,-.5 564,-19.5 671,-19.5 671,-.5 564,-.5"/>
<text text-anchor="middle" x="617.5" y="-7.5" font-family="Helvetica,sans-Serif" font-size="10.00" fill="#000000">LSODA::orderswitch</text>
</a>
</g>
</g>
<!-- Node22&#45;&gt;Node34 -->
<g id="edge26" class="edge">
<title>Node22&#45;&gt;Node34</title>
<path fill="none" stroke="#191970" d="M467.295,-152.3615C478.6427,-127.9863 511.8227,-63.3841 559,-29 561.6321,-27.0817 564.4673,-25.3508 567.42,-23.7898"/>
<polygon fill="#191970" stroke="#191970" points="568.9177,-26.9535 576.5446,-19.5995 565.9964,-20.5922 568.9177,-26.9535"/>
</g>
<!-- Node26&#45;&gt;Node19 -->
<g id="edge22" class="edge">
<title>Node26&#45;&gt;Node19</title>
<path fill="none" stroke="#191970" d="M659.7051,-133.5324C665.5438,-136.0051 671.1817,-139.1085 676,-143 700.7888,-163.0205 686.6615,-185.6798 712,-205 746.9645,-231.6598 795.7515,-243.2392 833.409,-248.2474"/>
<polygon fill="#191970" stroke="#191970" points="833.3667,-251.7677 843.7144,-249.4927 834.2066,-244.8182 833.3667,-251.7677"/>
</g>
<!-- Node27 -->
<g id="node17" class="node">
<title>Node27</title>
<g id="a_node17"><a xlink:href="classLSODA.html#a87757b30f48356ff9c77bf587ebb16d8" target="_top" xlink:title="LSODA::prja">
<polygon fill="none" stroke="#000000" points="724,-176.5 724,-195.5 796,-195.5 796,-176.5 724,-176.5"/>
<text text-anchor="middle" x="760" y="-183.5" font-family="Helvetica,sans-Serif" font-size="10.00" fill="#000000">LSODA::prja</text>
</a>
</g>
</g>
<!-- Node26&#45;&gt;Node27 -->
<g id="edge17" class="edge">
<title>Node26&#45;&gt;Node27</title>
<path fill="none" stroke="#191970" d="M650.3542,-133.5766C658.8163,-136.3398 667.8359,-139.5499 676,-143 692.6647,-150.0424 695.9082,-153.7319 712,-162 718.236,-165.2041 724.9533,-168.5983 731.3301,-171.7939"/>
<polygon fill="#191970" stroke="#191970" points="729.8232,-174.9534 740.3336,-176.2885 732.9498,-168.6905 729.8232,-174.9534"/>
</g>
<!-- Node30 -->
<g id="node20" class="node">
<title>Node30</title>
<g id="a_node20"><a xlink:href="classLSODA.html#ac7effc5da52973a91cb3409012f172e7" target="_top" xlink:title="LSODA::corfailure">
<polygon fill="none" stroke="#000000" points="712,-133.5 712,-152.5 808,-152.5 808,-133.5 712,-133.5"/>
<text text-anchor="middle" x="760" y="-140.5" font-family="Helvetica,sans-Serif" font-size="10.00" fill="#000000">LSODA::corfailure</text>
</a>
</g>
</g>
<!-- Node26&#45;&gt;Node30 -->
<g id="edge21" class="edge">
<title>Node26&#45;&gt;Node30</title>
<path fill="none" stroke="#191970" d="M667.3396,-130.6453C678.5132,-132.1351 690.4613,-133.7282 701.9365,-135.2582"/>
<polygon fill="#191970" stroke="#191970" points="701.4929,-138.7299 711.8678,-136.5824 702.4181,-131.7913 701.4929,-138.7299"/>
</g>
<!-- Node31 -->
<g id="node21" class="node">
<title>Node31</title>
<g id="a_node21"><a xlink:href="classLSODA.html#a5476113f8738e733652f1f6b02eaba3b" target="_top" xlink:title="LSODA::solsy">
<polygon fill="none" stroke="#000000" points="720,-95.5 720,-114.5 800,-114.5 800,-95.5 720,-95.5"/>
<text text-anchor="middle" x="760" y="-102.5" font-family="Helvetica,sans-Serif" font-size="10.00" fill="#000000">LSODA::solsy</text>
</a>
</g>
</g>
<!-- Node26&#45;&gt;Node31 -->
<g id="edge23" class="edge">
<title>Node26&#45;&gt;Node31</title>
<path fill="none" stroke="#191970" d="M667.3396,-117.3547C681.0263,-115.5298 695.8751,-113.55 709.5935,-111.7209"/>
<polygon fill="#191970" stroke="#191970" points="710.376,-115.1476 719.8257,-110.3566 709.4508,-108.209 710.376,-115.1476"/>
</g>
<!-- Node27&#45;&gt;Node19 -->
<g id="edge18" class="edge">
<title>Node27&#45;&gt;Node19</title>
<path fill="none" stroke="#191970" d="M775.8037,-195.5851C792.4684,-205.515 819.6341,-221.2025 844,-233 847.8496,-234.8639 851.9303,-236.7173 856.0088,-238.4947"/>
<polygon fill="#191970" stroke="#191970" points="854.8382,-241.7998 865.4117,-242.473 857.5658,-235.353 854.8382,-241.7998"/>
</g>
<!-- Node28 -->
<g id="node18" class="node">
<title>Node28</title>
<g id="a_node18"><a xlink:href="classLSODA.html#ab6221280caead6f45c316c261e8de713" target="_top" xlink:title="LSODA::fnorm">
<polygon fill="none" stroke="#000000" points="849.5,-204.5 849.5,-223.5 930.5,-223.5 930.5,-204.5 849.5,-204.5"/>
<text text-anchor="middle" x="890" y="-211.5" font-family="Helvetica,sans-Serif" font-size="10.00" fill="#000000">LSODA::fnorm</text>
</a>
</g>
</g>
<!-- Node27&#45;&gt;Node28 -->
<g id="edge19" class="edge">
<title>Node27&#45;&gt;Node28</title>
<path fill="none" stroke="#191970" d="M796.2122,-193.7996C809.6415,-196.692 825.1253,-200.027 839.5922,-203.1429"/>
<polygon fill="#191970" stroke="#191970" points="838.8947,-206.5729 849.4075,-205.257 840.3686,-199.7298 838.8947,-206.5729"/>
</g>
<!-- Node29 -->
<g id="node19" class="node">
<title>Node29</title>
<g id="a_node19"><a xlink:href="classLSODA.html#a9aade25a1818e2af775a17a1ed2ba4f9" target="_top" xlink:title="LSODA::dgefa">
<polygon fill="none" stroke="#000000" points="850,-166.5 850,-185.5 930,-185.5 930,-166.5 850,-166.5"/>
<text text-anchor="middle" x="890" y="-173.5" font-family="Helvetica,sans-Serif" font-size="10.00" fill="#000000">LSODA::dgefa</text>
</a>
</g>
</g>
<!-- Node27&#45;&gt;Node29 -->
<g id="edge20" class="edge">
<title>Node27&#45;&gt;Node29</title>
<path fill="none" stroke="#191970" d="M796.2122,-183.2144C809.6333,-182.1821 825.1063,-180.9918 839.5656,-179.8796"/>
<polygon fill="#191970" stroke="#191970" points="840.1691,-183.3436 849.8712,-179.0868 839.6322,-176.3642 840.1691,-183.3436"/>
</g>
</g>
</svg>
