<?xml version="1.0" encoding="UTF-8" standalone="no"?>
<!DOCTYPE svg PUBLIC "-//W3C//DTD SVG 1.1//EN"
 "http://www.w3.org/Graphics/SVG/1.1/DTD/svg11.dtd">
<!-- Generated by graphviz version 2.40.1 (20161225.0304)
 -->
<!-- Title: RKCK45 Pages: 1 -->
<svg width="118pt" height="172pt"
 viewBox="0.00 0.00 118.00 172.00" xmlns="http://www.w3.org/2000/svg" xmlns:xlink="http://www.w3.org/1999/xlink">
<g id="graph0" class="graph" transform="scale(1 1) rotate(0) translate(4 168)">
<title>RKCK45</title>
<!-- Node1 -->
<g id="node1" class="node">
<title>Node1</title>
<polygon fill="#bfbfbf" stroke="#000000" points="27,-.5 27,-19.5 83,-19.5 83,-.5 27,-.5"/>
<text text-anchor="middle" x="55" y="-7.5" font-family="Helvetica,sans-Serif" font-size="10.00" fill="#000000">RKCK45</text>
</g>
<!-- Node2 -->
<g id="node2" class="node">
<title>Node2</title>
<polygon fill="none" stroke="#bfbfbf" points="0,-144.5 0,-163.5 110,-163.5 110,-144.5 0,-144.5"/>
<text text-anchor="middle" x="55" y="-151.5" font-family="Helvetica,sans-Serif" font-size="10.00" fill="#000000">std::vector&lt; double &gt;</text>
</g>
<!-- Node2&#45;&gt;Node1 -->
<g id="edge1" class="edge">
<title>Node2&#45;&gt;Node1</title>
<path fill="none" stroke="#9a32cd" stroke-dasharray="5,2" d="M55,-133.9129C55,-102.4665 55,-42.8094 55,-19.5877"/>
<polygon fill="#9a32cd" stroke="#9a32cd" points="51.5001,-134.1023 55,-144.1023 58.5001,-134.1023 51.5001,-134.1023"/>
<text text-anchor="middle" x="67.5" y="-118" font-family="Helvetica,sans-Serif" font-size="10.00" fill="#000000"> dydx</text>
<text text-anchor="middle" x="67.5" y="-107" font-family="Helvetica,sans-Serif" font-size="10.00" fill="#000000">k1</text>
<text text-anchor="middle" x="67.5" y="-96" font-family="Helvetica,sans-Serif" font-size="10.00" fill="#000000">k2</text>
<text text-anchor="middle" x="67.5" y="-85" font-family="Helvetica,sans-Serif" font-size="10.00" fill="#000000">yt</text>
<text text-anchor="middle" x="67.5" y="-74" font-family="Helvetica,sans-Serif" font-size="10.00" fill="#000000">k3</text>
<text text-anchor="middle" x="67.5" y="-63" font-family="Helvetica,sans-Serif" font-size="10.00" fill="#000000">k4</text>
<text text-anchor="middle" x="67.5" y="-52" font-family="Helvetica,sans-Serif" font-size="10.00" fill="#000000">k5</text>
<text text-anchor="middle" x="67.5" y="-41" font-family="Helvetica,sans-Serif" font-size="10.00" fill="#000000">yscal</text>
</g>
</g>
</svg>
