<?xml version="1.0" encoding="UTF-8" standalone="no"?>
<!DOCTYPE svg PUBLIC "-//W3C//DTD SVG 1.1//EN"
 "http://www.w3.org/Graphics/SVG/1.1/DTD/svg11.dtd">
<!-- Generated by graphviz version 2.40.1 (20161225.0304)
 -->
<!-- Title: Solver::u0_out Pages: 1 -->
<svg width="796pt" height="142pt"
 viewBox="0.00 0.00 796.00 142.00" xmlns="http://www.w3.org/2000/svg" xmlns:xlink="http://www.w3.org/1999/xlink">
<g id="graph0" class="graph" transform="scale(1 1) rotate(0) translate(4 138)">
<title>Solver::u0_out</title>
<!-- Node286 -->
<g id="node1" class="node">
<title>Node286</title>
<polygon fill="#bfbfbf" stroke="#000000" points="0,-76.5 0,-95.5 80,-95.5 80,-76.5 0,-76.5"/>
<text text-anchor="middle" x="40" y="-83.5" font-family="Helvetica,sans-Serif" font-size="10.00" fill="#000000">Solver::u0_out</text>
</g>
<!-- Node287 -->
<g id="node2" class="node">
<title>Node287</title>
<g id="a_node2"><a xlink:href="classSolver.html#ae9cbf50e5db34626f54298c75fc64188" target="_top" xlink:title="Solver::newborns_out">
<polygon fill="none" stroke="#000000" points="116,-76.5 116,-95.5 227,-95.5 227,-76.5 116,-76.5"/>
<text text-anchor="middle" x="171.5" y="-83.5" font-family="Helvetica,sans-Serif" font-size="10.00" fill="#000000">Solver::newborns_out</text>
</a>
</g>
</g>
<!-- Node286&#45;&gt;Node287 -->
<g id="edge1" class="edge">
<title>Node286&#45;&gt;Node287</title>
<path fill="none" stroke="#191970" d="M80.1689,-86C88.2034,-86 96.8418,-86 105.4863,-86"/>
<polygon fill="#191970" stroke="#191970" points="105.6011,-89.5001 115.6011,-86 105.601,-82.5001 105.6011,-89.5001"/>
</g>
<!-- Node288 -->
<g id="node3" class="node">
<title>Node288</title>
<g id="a_node3"><a xlink:href="classSolver.html#ac737953d0d5a3ade1893f1f80b3f4791" target="_top" xlink:title="Solver::updateEnv">
<polygon fill="none" stroke="#000000" points="286,-95.5 286,-114.5 383,-114.5 383,-95.5 286,-95.5"/>
<text text-anchor="middle" x="334.5" y="-102.5" font-family="Helvetica,sans-Serif" font-size="10.00" fill="#000000">Solver::updateEnv</text>
</a>
</g>
</g>
<!-- Node287&#45;&gt;Node288 -->
<g id="edge2" class="edge">
<title>Node287&#45;&gt;Node288</title>
<path fill="none" stroke="#191970" d="M227.1395,-92.4856C242.7999,-94.311 259.8815,-96.3021 275.7192,-98.1482"/>
<polygon fill="#191970" stroke="#191970" points="275.5817,-101.6558 285.9197,-99.3373 276.3922,-94.7029 275.5817,-101.6558"/>
</g>
<!-- Node290 -->
<g id="node5" class="node">
<title>Node290</title>
<g id="a_node5"><a xlink:href="classSolver.html#aa5f2d1d48f6b4db83dbb257325924d2c" target="_top" xlink:title="Solver::calcSpeciesBirthFlux">
<polygon fill="none" stroke="#000000" points="263,-57.5 263,-76.5 406,-76.5 406,-57.5 263,-57.5"/>
<text text-anchor="middle" x="334.5" y="-64.5" font-family="Helvetica,sans-Serif" font-size="10.00" fill="#000000">Solver::calcSpeciesBirthFlux</text>
</a>
</g>
</g>
<!-- Node287&#45;&gt;Node290 -->
<g id="edge4" class="edge">
<title>Node287&#45;&gt;Node290</title>
<path fill="none" stroke="#191970" d="M227.1395,-79.5144C235.4254,-78.5486 244.1092,-77.5363 252.7961,-76.5238"/>
<polygon fill="#191970" stroke="#191970" points="253.4441,-79.972 262.9715,-75.3377 252.6335,-73.0191 253.4441,-79.972"/>
</g>
<!-- Node289 -->
<g id="node4" class="node">
<title>Node289</title>
<g id="a_node4"><a xlink:href="classEnvironmentBase.html#aab04d5438741c4f04d09514bac07348c" target="_top" xlink:title="EnvironmentBase::computeEnv">
<polygon fill="none" stroke="#000000" points="442,-95.5 442,-114.5 597,-114.5 597,-95.5 442,-95.5"/>
<text text-anchor="middle" x="519.5" y="-102.5" font-family="Helvetica,sans-Serif" font-size="10.00" fill="#000000">EnvironmentBase::computeEnv</text>
</a>
</g>
</g>
<!-- Node288&#45;&gt;Node289 -->
<g id="edge3" class="edge">
<title>Node288&#45;&gt;Node289</title>
<path fill="none" stroke="#191970" d="M383.1066,-105C398.0006,-105 414.8712,-105 431.5444,-105"/>
<polygon fill="#191970" stroke="#191970" points="431.881,-108.5001 441.8809,-105 431.8809,-101.5001 431.881,-108.5001"/>
</g>
<!-- Node291 -->
<g id="node6" class="node">
<title>Node291</title>
<g id="a_node6"><a xlink:href="classSolver.html#a2a6ca7647a4cde1195789132f3873c0b" target="_top" xlink:title="Computes the integral &#160;for the specified species. For details, see integrate_wudx_above. ">
<polygon fill="none" stroke="#000000" points="470.5,-57.5 470.5,-76.5 568.5,-76.5 568.5,-57.5 470.5,-57.5"/>
<text text-anchor="middle" x="519.5" y="-64.5" font-family="Helvetica,sans-Serif" font-size="10.00" fill="#000000">Solver::integrate_x</text>
</a>
</g>
</g>
<!-- Node290&#45;&gt;Node291 -->
<g id="edge5" class="edge">
<title>Node290&#45;&gt;Node291</title>
<path fill="none" stroke="#191970" d="M406.0258,-67C423.8766,-67 442.8275,-67 460.0252,-67"/>
<polygon fill="#191970" stroke="#191970" points="460.4811,-70.5001 470.4811,-67 460.481,-63.5001 460.4811,-70.5001"/>
</g>
<!-- Node292 -->
<g id="node7" class="node">
<title>Node292</title>
<g id="a_node7"><a xlink:href="classSpecies__Base.html#ad412522fc071525a19f95609880b20ff" target="_top" xlink:title="Species_Base::getU">
<polygon fill="none" stroke="#000000" points="657,-114.5 657,-133.5 764,-133.5 764,-114.5 657,-114.5"/>
<text text-anchor="middle" x="710.5" y="-121.5" font-family="Helvetica,sans-Serif" font-size="10.00" fill="#000000">Species_Base::getU</text>
</a>
</g>
</g>
<!-- Node291&#45;&gt;Node292 -->
<g id="edge6" class="edge">
<title>Node291&#45;&gt;Node292</title>
<path fill="none" stroke="#191970" d="M566.3758,-76.5302C576.6135,-79.1521 587.2872,-82.3105 597,-86 613.9126,-92.4243 616.0874,-98.5757 633,-105 639.6776,-107.5365 646.8093,-109.822 653.9412,-111.8548"/>
<polygon fill="#191970" stroke="#191970" points="653.0575,-115.2414 663.6242,-114.4698 654.8827,-108.4836 653.0575,-115.2414"/>
</g>
<!-- Node293 -->
<g id="node8" class="node">
<title>Node293</title>
<g id="a_node8"><a xlink:href="classSpecies__Base.html#aa6880c6f5c8ff125cab4d1195dedfb13" target="_top" xlink:title="Species_Base::getX">
<polygon fill="none" stroke="#000000" points="657.5,-76.5 657.5,-95.5 763.5,-95.5 763.5,-76.5 657.5,-76.5"/>
<text text-anchor="middle" x="710.5" y="-83.5" font-family="Helvetica,sans-Serif" font-size="10.00" fill="#000000">Species_Base::getX</text>
</a>
</g>
</g>
<!-- Node291&#45;&gt;Node293 -->
<g id="edge7" class="edge">
<title>Node291&#45;&gt;Node293</title>
<path fill="none" stroke="#191970" d="M568.6872,-71.893C592.6915,-74.2808 621.8465,-77.1811 647.464,-79.7294"/>
<polygon fill="#191970" stroke="#191970" points="647.161,-83.2165 657.4584,-80.7236 647.854,-76.2508 647.161,-83.2165"/>
</g>
<!-- Node294 -->
<g id="node9" class="node">
<title>Node294</title>
<g id="a_node9"><a xlink:href="classSpecies__Base.html#a86a04ae53b3f25c4e90b01a8eaed3bfd" target="_top" xlink:title="Species_Base::setX">
<polygon fill="none" stroke="#000000" points="657.5,-38.5 657.5,-57.5 763.5,-57.5 763.5,-38.5 657.5,-38.5"/>
<text text-anchor="middle" x="710.5" y="-45.5" font-family="Helvetica,sans-Serif" font-size="10.00" fill="#000000">Species_Base::setX</text>
</a>
</g>
</g>
<!-- Node291&#45;&gt;Node294 -->
<g id="edge8" class="edge">
<title>Node291&#45;&gt;Node294</title>
<path fill="none" stroke="#191970" d="M568.6872,-62.107C592.6915,-59.7192 621.8465,-56.8189 647.464,-54.2706"/>
<polygon fill="#191970" stroke="#191970" points="647.854,-57.7492 657.4584,-53.2764 647.161,-50.7835 647.854,-57.7492"/>
</g>
<!-- Node295 -->
<g id="node10" class="node">
<title>Node295</title>
<g id="a_node10"><a xlink:href="classSpecies__Base.html#a191930a24322d8df293e759943d156fa" target="_top" xlink:title="Species_Base::get_boundary_u">
<polygon fill="none" stroke="#000000" points="633,-.5 633,-19.5 788,-19.5 788,-.5 633,-.5"/>
<text text-anchor="middle" x="710.5" y="-7.5" font-family="Helvetica,sans-Serif" font-size="10.00" fill="#000000">Species_Base::get_boundary_u</text>
</a>
</g>
</g>
<!-- Node291&#45;&gt;Node295 -->
<g id="edge9" class="edge">
<title>Node291&#45;&gt;Node295</title>
<path fill="none" stroke="#191970" d="M545.9073,-57.4689C568.7869,-49.3772 602.8595,-37.724 633,-29 641.4115,-26.5653 650.3942,-24.1746 659.1531,-21.9545"/>
<polygon fill="#191970" stroke="#191970" points="660.0463,-25.3391 668.9048,-19.5272 658.3555,-18.5463 660.0463,-25.3391"/>
</g>
</g>
</svg>
