<?xml version="1.0" encoding="UTF-8" standalone="no"?>
<!DOCTYPE svg PUBLIC "-//W3C//DTD SVG 1.1//EN"
 "http://www.w3.org/Graphics/SVG/1.1/DTD/svg11.dtd">
<!-- Generated by graphviz version 2.40.1 (20161225.0304)
 -->
<!-- Title: Cohort::set_size Pages: 1 -->
<svg width="286pt" height="154pt"
 viewBox="0.00 0.00 286.00 154.00" xmlns="http://www.w3.org/2000/svg" xmlns:xlink="http://www.w3.org/1999/xlink">
<g id="graph0" class="graph" transform="scale(1 1) rotate(0) translate(4 150)">
<title>Cohort::set_size</title>
<!-- Node10 -->
<g id="node1" class="node">
<title>Node10</title>
<polygon fill="#bfbfbf" stroke="#000000" points="0,-66.5 0,-85.5 89,-85.5 89,-66.5 0,-66.5"/>
<text text-anchor="middle" x="44.5" y="-73.5" font-family="Helvetica,sans-Serif" font-size="10.00" fill="#000000">Cohort::set_size</text>
</g>
<!-- Node11 -->
<g id="node2" class="node">
<title>Node11</title>
<g id="a_node2"><a xlink:href="classSpecies.html#a323b58d45526dcc09f9829efc2330656" target="_top" xlink:title="Species::growthRateOffset">
<polygon fill="none" stroke="#000000" points="134,-126.5 134,-145.5 269,-145.5 269,-126.5 134,-126.5"/>
<text text-anchor="middle" x="201.5" y="-133.5" font-family="Helvetica,sans-Serif" font-size="10.00" fill="#000000">Species::growthRateOffset</text>
</a>
</g>
</g>
<!-- Node10&#45;&gt;Node11 -->
<g id="edge1" class="edge">
<title>Node10&#45;&gt;Node11</title>
<path fill="none" stroke="#191970" d="M69.6232,-90.6711C85.1722,-99.2725 105.7742,-109.8235 125,-117 134.7437,-120.6371 145.4444,-123.7892 155.6751,-126.4238"/>
<polygon fill="#191970" stroke="#191970" points="71.0823,-87.4759 60.6521,-85.6151 67.6453,-93.5741 71.0823,-87.4759"/>
</g>
<!-- Node12 -->
<g id="node3" class="node">
<title>Node12</title>
<g id="a_node3"><a xlink:href="classSpecies.html#a2c3eea1d652bc5aa42bb36caab683ad1" target="_top" xlink:title="Species::growthRateGradient">
<polygon fill="none" stroke="#000000" points="129,-88.5 129,-107.5 274,-107.5 274,-88.5 129,-88.5"/>
<text text-anchor="middle" x="201.5" y="-95.5" font-family="Helvetica,sans-Serif" font-size="10.00" fill="#000000">Species::growthRateGradient</text>
</a>
</g>
</g>
<!-- Node10&#45;&gt;Node12 -->
<g id="edge2" class="edge">
<title>Node10&#45;&gt;Node12</title>
<path fill="none" stroke="#191970" d="M99.0816,-83.6484C110.2331,-85.211 122.0966,-86.8734 133.6469,-88.4919"/>
<polygon fill="#191970" stroke="#191970" points="99.4589,-80.1671 89.0699,-82.2455 98.4875,-87.0994 99.4589,-80.1671"/>
</g>
<!-- Node13 -->
<g id="node4" class="node">
<title>Node13</title>
<g id="a_node4"><a xlink:href="classSpecies.html#a426e06f2dfc4d2ae83cdabbd7fd2546b" target="_top" xlink:title="Species::growthRateGradient\lCentered">
<polygon fill="none" stroke="#000000" points="129,-39 129,-69 274,-69 274,-39 129,-39"/>
<text text-anchor="start" x="137" y="-57" font-family="Helvetica,sans-Serif" font-size="10.00" fill="#000000">Species::growthRateGradient</text>
<text text-anchor="middle" x="201.5" y="-46" font-family="Helvetica,sans-Serif" font-size="10.00" fill="#000000">Centered</text>
</a>
</g>
</g>
<!-- Node10&#45;&gt;Node13 -->
<g id="edge3" class="edge">
<title>Node10&#45;&gt;Node13</title>
<path fill="none" stroke="#191970" d="M99.2333,-68.3304C108.8167,-66.9875 118.9218,-65.5715 128.8991,-64.1734"/>
<polygon fill="#191970" stroke="#191970" points="98.4875,-64.9006 89.0699,-69.7545 99.4589,-71.8329 98.4875,-64.9006"/>
</g>
<!-- Node14 -->
<g id="node5" class="node">
<title>Node14</title>
<g id="a_node5"><a xlink:href="classSpecies.html#a070336f0725472a8bfb59da72f40197a" target="_top" xlink:title="Species::mortalityRateGradient">
<polygon fill="none" stroke="#000000" points="125,-.5 125,-19.5 278,-19.5 278,-.5 125,-.5"/>
<text text-anchor="middle" x="201.5" y="-7.5" font-family="Helvetica,sans-Serif" font-size="10.00" fill="#000000">Species::mortalityRateGradient</text>
</a>
</g>
</g>
<!-- Node10&#45;&gt;Node14 -->
<g id="edge4" class="edge">
<title>Node10&#45;&gt;Node14</title>
<path fill="none" stroke="#191970" d="M66.9577,-61.0239C82.6698,-51.0908 104.4437,-38.3881 125,-30 135.041,-25.9027 146.17,-22.4296 156.7592,-19.5857"/>
<polygon fill="#191970" stroke="#191970" points="64.972,-58.1396 58.4622,-66.4987 68.7639,-64.0237 64.972,-58.1396"/>
</g>
</g>
</svg>
