<?xml version="1.0" encoding="UTF-8" standalone="no"?>
<!DOCTYPE svg PUBLIC "-//W3C//DTD SVG 1.1//EN"
 "http://www.w3.org/Graphics/SVG/1.1/DTD/svg11.dtd">
<!-- Generated by graphviz version 2.40.1 (20161225.0304)
 -->
<!-- Title: Solver::calcSpeciesBirthFlux Pages: 1 -->
<svg width="414pt" height="28pt"
 viewBox="0.00 0.00 414.00 28.00" xmlns="http://www.w3.org/2000/svg" xmlns:xlink="http://www.w3.org/1999/xlink">
<g id="graph0" class="graph" transform="scale(1 1) rotate(0) translate(4 24)">
<title>Solver::calcSpeciesBirthFlux</title>
<!-- Node67 -->
<g id="node1" class="node">
<title>Node67</title>
<polygon fill="#bfbfbf" stroke="#000000" points="0,-.5 0,-19.5 143,-19.5 143,-.5 0,-.5"/>
<text text-anchor="middle" x="71.5" y="-7.5" font-family="Helvetica,sans-Serif" font-size="10.00" fill="#000000">Solver::calcSpeciesBirthFlux</text>
</g>
<!-- Node68 -->
<g id="node2" class="node">
<title>Node68</title>
<g id="a_node2"><a xlink:href="classSolver.html#ae9cbf50e5db34626f54298c75fc64188" target="_top" xlink:title="Solver::newborns_out">
<polygon fill="none" stroke="#000000" points="179,-.5 179,-19.5 290,-19.5 290,-.5 179,-.5"/>
<text text-anchor="middle" x="234.5" y="-7.5" font-family="Helvetica,sans-Serif" font-size="10.00" fill="#000000">Solver::newborns_out</text>
</a>
</g>
</g>
<!-- Node67&#45;&gt;Node68 -->
<g id="edge1" class="edge">
<title>Node67&#45;&gt;Node68</title>
<path fill="none" stroke="#191970" d="M153.718,-10C162.1363,-10 170.5443,-10 178.5828,-10"/>
<polygon fill="#191970" stroke="#191970" points="153.4687,-6.5001 143.4686,-10 153.4686,-13.5001 153.4687,-6.5001"/>
</g>
<!-- Node69 -->
<g id="node3" class="node">
<title>Node69</title>
<g id="a_node3"><a xlink:href="classSolver.html#a40c9ebb8d585e07d8f65c4ac5ada6420" target="_top" xlink:title="Solver::u0_out">
<polygon fill="none" stroke="#000000" points="326,-.5 326,-19.5 406,-19.5 406,-.5 326,-.5"/>
<text text-anchor="middle" x="366" y="-7.5" font-family="Helvetica,sans-Serif" font-size="10.00" fill="#000000">Solver::u0_out</text>
</a>
</g>
</g>
<!-- Node68&#45;&gt;Node69 -->
<g id="edge2" class="edge">
<title>Node68&#45;&gt;Node69</title>
<path fill="none" stroke="#191970" d="M300.3788,-10C309.0211,-10 317.6605,-10 325.6996,-10"/>
<polygon fill="#191970" stroke="#191970" points="300.2679,-6.5001 290.2678,-10 300.2678,-13.5001 300.2679,-6.5001"/>
</g>
</g>
</svg>
