<?xml version="1.0" encoding="UTF-8" standalone="no"?>
<!DOCTYPE svg PUBLIC "-//W3C//DTD SVG 1.1//EN"
 "http://www.w3.org/Graphics/SVG/1.1/DTD/svg11.dtd">
<!-- Generated by graphviz version 2.40.1 (20161225.0304)
 -->
<!-- Title: RKCK45::RKStep Pages: 1 -->
<svg width="763pt" height="66pt"
 viewBox="0.00 0.00 763.00 66.00" xmlns="http://www.w3.org/2000/svg" xmlns:xlink="http://www.w3.org/1999/xlink">
<g id="graph0" class="graph" transform="scale(1 1) rotate(0) translate(4 62)">
<title>RKCK45::RKStep</title>
<!-- Node26 -->
<g id="node1" class="node">
<title>Node26</title>
<polygon fill="#bfbfbf" stroke="#000000" points="0,-19.5 0,-38.5 96,-38.5 96,-19.5 0,-19.5"/>
<text text-anchor="middle" x="48" y="-26.5" font-family="Helvetica,sans-Serif" font-size="10.00" fill="#000000">RKCK45::RKStep</text>
</g>
<!-- Node27 -->
<g id="node2" class="node">
<title>Node27</title>
<g id="a_node2"><a xlink:href="classRKCK45.html#a118a0972fa102cd12f85f6f5cadbf416" target="_top" xlink:title="RKCK45::get_fn_evals">
<polygon fill="none" stroke="#000000" points="132,-38.5 132,-57.5 249,-57.5 249,-38.5 132,-38.5"/>
<text text-anchor="middle" x="190.5" y="-45.5" font-family="Helvetica,sans-Serif" font-size="10.00" fill="#000000">RKCK45::get_fn_evals</text>
</a>
</g>
</g>
<!-- Node26&#45;&gt;Node27 -->
<g id="edge1" class="edge">
<title>Node26&#45;&gt;Node27</title>
<path fill="none" stroke="#191970" d="M106.3767,-36.7836C114.8122,-37.9083 123.4966,-39.0662 131.9358,-40.1914"/>
<polygon fill="#191970" stroke="#191970" points="106.6189,-33.285 96.244,-35.4325 105.6937,-40.2236 106.6189,-33.285"/>
</g>
<!-- Node28 -->
<g id="node3" class="node">
<title>Node28</title>
<g id="a_node3"><a xlink:href="classRKCK45.html#a20415037da7046ff94afadbf927c42d3" target="_top" xlink:title="RKCK45::Step">
<polygon fill="none" stroke="#000000" points="149.5,-.5 149.5,-19.5 231.5,-19.5 231.5,-.5 149.5,-.5"/>
<text text-anchor="middle" x="190.5" y="-7.5" font-family="Helvetica,sans-Serif" font-size="10.00" fill="#000000">RKCK45::Step</text>
</a>
</g>
</g>
<!-- Node26&#45;&gt;Node28 -->
<g id="edge2" class="edge">
<title>Node26&#45;&gt;Node28</title>
<path fill="none" stroke="#191970" d="M106.5647,-21.1914C120.96,-19.272 136.0691,-17.2575 149.4384,-15.4749"/>
<polygon fill="#191970" stroke="#191970" points="105.6937,-17.7764 96.244,-22.5675 106.6189,-24.715 105.6937,-17.7764"/>
</g>
<!-- Node29 -->
<g id="node4" class="node">
<title>Node29</title>
<g id="a_node4"><a xlink:href="classRKCK45.html#a91b5ae2e8a9dadc117e6412f054afa59" target="_top" xlink:title="RKCK45::Step_to">
<polygon fill="none" stroke="#000000" points="285,-.5 285,-19.5 380,-19.5 380,-.5 285,-.5"/>
<text text-anchor="middle" x="332.5" y="-7.5" font-family="Helvetica,sans-Serif" font-size="10.00" fill="#000000">RKCK45::Step_to</text>
</a>
</g>
</g>
<!-- Node28&#45;&gt;Node29 -->
<g id="edge3" class="edge">
<title>Node28&#45;&gt;Node29</title>
<path fill="none" stroke="#191970" d="M241.5866,-10C255.6638,-10 270.8774,-10 284.7577,-10"/>
<polygon fill="#191970" stroke="#191970" points="241.5723,-6.5001 231.5723,-10 241.5722,-13.5001 241.5723,-6.5001"/>
</g>
<!-- Node30 -->
<g id="node5" class="node">
<title>Node30</title>
<g id="a_node5"><a xlink:href="classOdeSolver.html#a77d9f02ed28d5515366e6be08560f35a" target="_top" xlink:title="OdeSolver::step_to">
<polygon fill="none" stroke="#000000" points="416,-.5 416,-19.5 517,-19.5 517,-.5 416,-.5"/>
<text text-anchor="middle" x="466.5" y="-7.5" font-family="Helvetica,sans-Serif" font-size="10.00" fill="#000000">OdeSolver::step_to</text>
</a>
</g>
</g>
<!-- Node29&#45;&gt;Node30 -->
<g id="edge4" class="edge">
<title>Node29&#45;&gt;Node30</title>
<path fill="none" stroke="#191970" d="M390.3412,-10C398.8324,-10 407.5235,-10 415.8553,-10"/>
<polygon fill="#191970" stroke="#191970" points="390.1207,-6.5001 380.1207,-10 390.1207,-13.5001 390.1207,-6.5001"/>
</g>
<!-- Node31 -->
<g id="node6" class="node">
<title>Node31</title>
<g id="a_node6"><a xlink:href="classSolver.html#af4c8f6565df94ed6a058a224196b9c2b" target="_top" xlink:title="Solver::step_to">
<polygon fill="none" stroke="#000000" points="553,-.5 553,-19.5 636,-19.5 636,-.5 553,-.5"/>
<text text-anchor="middle" x="594.5" y="-7.5" font-family="Helvetica,sans-Serif" font-size="10.00" fill="#000000">Solver::step_to</text>
</a>
</g>
</g>
<!-- Node30&#45;&gt;Node31 -->
<g id="edge5" class="edge">
<title>Node30&#45;&gt;Node31</title>
<path fill="none" stroke="#191970" d="M527.2268,-10C535.9273,-10 544.7087,-10 552.9255,-10"/>
<polygon fill="#191970" stroke="#191970" points="527.089,-6.5001 517.089,-10 527.089,-13.5001 527.089,-6.5001"/>
</g>
<!-- Node32 -->
<g id="node7" class="node">
<title>Node32</title>
<g id="a_node7"><a xlink:href="classSolver.html#a06cf82d0a99490279ab20d2ad6b876db" target="_top" xlink:title="Solver::step_to">
<polygon fill="none" stroke="#000000" points="672,-.5 672,-19.5 755,-19.5 755,-.5 672,-.5"/>
<text text-anchor="middle" x="713.5" y="-7.5" font-family="Helvetica,sans-Serif" font-size="10.00" fill="#000000">Solver::step_to</text>
</a>
</g>
</g>
<!-- Node31&#45;&gt;Node32 -->
<g id="edge6" class="edge">
<title>Node31&#45;&gt;Node32</title>
<path fill="none" stroke="#191970" d="M646.3174,-10C654.8022,-10 663.499,-10 671.7019,-10"/>
<polygon fill="#191970" stroke="#191970" points="646.1205,-6.5001 636.1204,-10 646.1204,-13.5001 646.1205,-6.5001"/>
</g>
</g>
</svg>
