<?xml version="1.0" encoding="UTF-8" standalone="no"?>
<!DOCTYPE svg PUBLIC "-//W3C//DTD SVG 1.1//EN"
 "http://www.w3.org/Graphics/SVG/1.1/DTD/svg11.dtd">
<!-- Generated by graphviz version 2.40.1 (20161225.0304)
 -->
<!-- Title: OdeSolver::step_to Pages: 1 -->
<svg width="946pt" height="560pt"
 viewBox="0.00 0.00 946.00 560.00" xmlns="http://www.w3.org/2000/svg" xmlns:xlink="http://www.w3.org/1999/xlink">
<g id="graph0" class="graph" transform="scale(1 1) rotate(0) translate(4 556)">
<title>OdeSolver::step_to</title>
<!-- Node11 -->
<g id="node1" class="node">
<title>Node11</title>
<polygon fill="#bfbfbf" stroke="#000000" points="0,-361.5 0,-380.5 101,-380.5 101,-361.5 0,-361.5"/>
<text text-anchor="middle" x="50.5" y="-368.5" font-family="Helvetica,sans-Serif" font-size="10.00" fill="#000000">OdeSolver::step_to</text>
</g>
<!-- Node12 -->
<g id="node2" class="node">
<title>Node12</title>
<g id="a_node2"><a xlink:href="classRKCK45.html#a91b5ae2e8a9dadc117e6412f054afa59" target="_top" xlink:title="RKCK45::Step_to">
<polygon fill="none" stroke="#000000" points="146.5,-475.5 146.5,-494.5 241.5,-494.5 241.5,-475.5 146.5,-475.5"/>
<text text-anchor="middle" x="194" y="-482.5" font-family="Helvetica,sans-Serif" font-size="10.00" fill="#000000">RKCK45::Step_to</text>
</a>
</g>
</g>
<!-- Node11&#45;&gt;Node12 -->
<g id="edge1" class="edge">
<title>Node11&#45;&gt;Node12</title>
<path fill="none" stroke="#191970" d="M62.7347,-380.7196C87.4101,-400.3223 143.3626,-444.7724 173.6365,-468.8227"/>
<polygon fill="#191970" stroke="#191970" points="171.7892,-471.8252 181.7962,-475.305 176.1434,-466.3442 171.7892,-471.8252"/>
</g>
<!-- Node18 -->
<g id="node8" class="node">
<title>Node18</title>
<g id="a_node8"><a xlink:href="classLSODA.html#a278bb538d9b0354084473a931567a023" target="_top" xlink:title="LSODA::set_istate">
<polygon fill="none" stroke="#000000" points="144.5,-399.5 144.5,-418.5 243.5,-418.5 243.5,-399.5 144.5,-399.5"/>
<text text-anchor="middle" x="194" y="-406.5" font-family="Helvetica,sans-Serif" font-size="10.00" fill="#000000">LSODA::set_istate</text>
</a>
</g>
</g>
<!-- Node11&#45;&gt;Node18 -->
<g id="edge7" class="edge">
<title>Node11&#45;&gt;Node18</title>
<path fill="none" stroke="#191970" d="M86.7111,-380.589C105.3206,-385.5169 128.1972,-391.5749 148.0389,-396.8291"/>
<polygon fill="#191970" stroke="#191970" points="147.2377,-400.2375 157.8005,-399.4141 149.0296,-393.4708 147.2377,-400.2375"/>
</g>
<!-- Node19 -->
<g id="node9" class="node">
<title>Node19</title>
<g id="a_node9"><a xlink:href="classLSODA.html#a391e4d7bea026ad7c300cfb55cb290d1" target="_top" xlink:title="LSODA::lsoda_update">
<polygon fill="none" stroke="#000000" points="137,-361.5 137,-380.5 251,-380.5 251,-361.5 137,-361.5"/>
<text text-anchor="middle" x="194" y="-368.5" font-family="Helvetica,sans-Serif" font-size="10.00" fill="#000000">LSODA::lsoda_update</text>
</a>
</g>
</g>
<!-- Node11&#45;&gt;Node19 -->
<g id="edge8" class="edge">
<title>Node11&#45;&gt;Node19</title>
<path fill="none" stroke="#191970" d="M101.0927,-371C109.2389,-371 117.7846,-371 126.2557,-371"/>
<polygon fill="#191970" stroke="#191970" points="126.5196,-374.5001 136.5196,-371 126.5196,-367.5001 126.5196,-374.5001"/>
</g>
<!-- Node41 -->
<g id="node31" class="node">
<title>Node41</title>
<g id="a_node31"><a xlink:href="classLSODA.html#a418110bad0f4978101950dfd04311a02" target="_top" xlink:title="LSODA::get_istate">
<polygon fill="none" stroke="#000000" points="144.5,-323.5 144.5,-342.5 243.5,-342.5 243.5,-323.5 144.5,-323.5"/>
<text text-anchor="middle" x="194" y="-330.5" font-family="Helvetica,sans-Serif" font-size="10.00" fill="#000000">LSODA::get_istate</text>
</a>
</g>
</g>
<!-- Node11&#45;&gt;Node41 -->
<g id="edge33" class="edge">
<title>Node11&#45;&gt;Node41</title>
<path fill="none" stroke="#191970" d="M86.7111,-361.411C105.3206,-356.4831 128.1972,-350.4251 148.0389,-345.1709"/>
<polygon fill="#191970" stroke="#191970" points="149.0296,-348.5292 157.8005,-342.5859 147.2377,-341.7625 149.0296,-348.5292"/>
</g>
<!-- Node42 -->
<g id="node32" class="node">
<title>Node42</title>
<g id="a_node32"><a xlink:href="classLSODA.html#adb5f9410c901c193aeb836dd9cc4ab70" target="_top" xlink:title="LSODA::get_fncalls">
<polygon fill="none" stroke="#000000" points="142,-285.5 142,-304.5 246,-304.5 246,-285.5 142,-285.5"/>
<text text-anchor="middle" x="194" y="-292.5" font-family="Helvetica,sans-Serif" font-size="10.00" fill="#000000">LSODA::get_fncalls</text>
</a>
</g>
</g>
<!-- Node11&#45;&gt;Node42 -->
<g id="edge34" class="edge">
<title>Node11&#45;&gt;Node42</title>
<path fill="none" stroke="#191970" d="M62.7753,-361.4106C79.0068,-349.0921 108.852,-327.6735 137,-314 141.4011,-311.8621 146.103,-309.8698 150.8477,-308.0414"/>
<polygon fill="#191970" stroke="#191970" points="152.3524,-311.2191 160.5644,-304.5248 149.9701,-304.6369 152.3524,-311.2191"/>
</g>
<!-- Node13 -->
<g id="node3" class="node">
<title>Node13</title>
<g id="a_node3"><a xlink:href="classRKCK45.html#a20415037da7046ff94afadbf927c42d3" target="_top" xlink:title="RKCK45::Step">
<polygon fill="none" stroke="#000000" points="287,-494.5 287,-513.5 369,-513.5 369,-494.5 287,-494.5"/>
<text text-anchor="middle" x="328" y="-501.5" font-family="Helvetica,sans-Serif" font-size="10.00" fill="#000000">RKCK45::Step</text>
</a>
</g>
</g>
<!-- Node12&#45;&gt;Node13 -->
<g id="edge2" class="edge">
<title>Node12&#45;&gt;Node13</title>
<path fill="none" stroke="#191970" d="M241.6207,-491.7522C253.0244,-493.3691 265.2476,-495.1023 276.8054,-496.7411"/>
<polygon fill="#191970" stroke="#191970" points="276.3612,-500.213 286.7536,-498.1516 277.344,-493.2823 276.3612,-500.213"/>
</g>
<!-- Node14 -->
<g id="node4" class="node">
<title>Node14</title>
<g id="a_node4"><a xlink:href="classRKCK45.html#a219b69e8759b799b422d5c6b97509fd0" target="_top" xlink:title="RKCK45::resize">
<polygon fill="none" stroke="#000000" points="421,-532.5 421,-551.5 509,-551.5 509,-532.5 421,-532.5"/>
<text text-anchor="middle" x="465" y="-539.5" font-family="Helvetica,sans-Serif" font-size="10.00" fill="#000000">RKCK45::resize</text>
</a>
</g>
</g>
<!-- Node13&#45;&gt;Node14 -->
<g id="edge3" class="edge">
<title>Node13&#45;&gt;Node14</title>
<path fill="none" stroke="#191970" d="M362.5709,-513.589C380.1752,-518.4719 401.7793,-524.4643 420.601,-529.685"/>
<polygon fill="#191970" stroke="#191970" points="419.8685,-533.1138 430.4402,-532.4141 421.7395,-526.3685 419.8685,-533.1138"/>
</g>
<!-- Node15 -->
<g id="node5" class="node">
<title>Node15</title>
<g id="a_node5"><a xlink:href="classRKCK45.html#adfa11ff7b8da1b21aea9e457ac4e9d1c" target="_top" xlink:title="RKCK45::RKStep">
<polygon fill="none" stroke="#000000" points="417,-494.5 417,-513.5 513,-513.5 513,-494.5 417,-494.5"/>
<text text-anchor="middle" x="465" y="-501.5" font-family="Helvetica,sans-Serif" font-size="10.00" fill="#000000">RKCK45::RKStep</text>
</a>
</g>
</g>
<!-- Node13&#45;&gt;Node15 -->
<g id="edge4" class="edge">
<title>Node13&#45;&gt;Node15</title>
<path fill="none" stroke="#191970" d="M369.1045,-504C380.9209,-504 394.0394,-504 406.6844,-504"/>
<polygon fill="#191970" stroke="#191970" points="406.6899,-507.5001 416.6899,-504 406.6899,-500.5001 406.6899,-507.5001"/>
</g>
<!-- Node16 -->
<g id="node6" class="node">
<title>Node16</title>
<g id="a_node6"><a xlink:href="classRKCK45.html#a25808387ad46ff36ec579617c5ba9eee" target="_top" xlink:title="RKCK45::h">
<polygon fill="none" stroke="#000000" points="586,-513.5 586,-532.5 653,-532.5 653,-513.5 586,-513.5"/>
<text text-anchor="middle" x="619.5" y="-520.5" font-family="Helvetica,sans-Serif" font-size="10.00" fill="#000000">RKCK45::h</text>
</a>
</g>
</g>
<!-- Node15&#45;&gt;Node16 -->
<g id="edge5" class="edge">
<title>Node15&#45;&gt;Node16</title>
<path fill="none" stroke="#191970" d="M513.0379,-509.9076C533.011,-512.3638 556.0394,-515.1958 575.5587,-517.5962"/>
<polygon fill="#191970" stroke="#191970" points="575.3523,-521.0971 585.7047,-518.8439 576.2067,-514.1495 575.3523,-521.0971"/>
</g>
<!-- Node17 -->
<g id="node7" class="node">
<title>Node17</title>
<g id="a_node7"><a xlink:href="classRKCK45.html#aa61f9dd524bbc30f9c5480a868378c1f" target="_top" xlink:title="RKCK45::RKTry">
<polygon fill="none" stroke="#000000" points="574.5,-475.5 574.5,-494.5 664.5,-494.5 664.5,-475.5 574.5,-475.5"/>
<text text-anchor="middle" x="619.5" y="-482.5" font-family="Helvetica,sans-Serif" font-size="10.00" fill="#000000">RKCK45::RKTry</text>
</a>
</g>
</g>
<!-- Node15&#45;&gt;Node17 -->
<g id="edge6" class="edge">
<title>Node15&#45;&gt;Node17</title>
<path fill="none" stroke="#191970" d="M513.0379,-498.0924C529.2497,-496.0987 547.4745,-493.8575 564.2018,-491.8004"/>
<polygon fill="#191970" stroke="#191970" points="564.894,-495.2418 574.392,-490.5473 564.0395,-488.2941 564.894,-495.2418"/>
</g>
<!-- Node20 -->
<g id="node10" class="node">
<title>Node20</title>
<g id="a_node10"><a xlink:href="classLSODA.html#a705dcfe5b21827adb8871e48f2c72fb2" target="_top" xlink:title="LSODA::lsoda">
<polygon fill="none" stroke="#000000" points="288,-342.5 288,-361.5 368,-361.5 368,-342.5 288,-342.5"/>
<text text-anchor="middle" x="328" y="-349.5" font-family="Helvetica,sans-Serif" font-size="10.00" fill="#000000">LSODA::lsoda</text>
</a>
</g>
</g>
<!-- Node19&#45;&gt;Node20 -->
<g id="edge9" class="edge">
<title>Node19&#45;&gt;Node20</title>
<path fill="none" stroke="#191970" d="M251.2167,-362.8872C260.113,-361.6258 269.2444,-360.331 277.9653,-359.0945"/>
<polygon fill="#191970" stroke="#191970" points="278.5661,-362.5444 287.9757,-357.6751 277.5833,-355.6137 278.5661,-362.5444"/>
</g>
<!-- Node21 -->
<g id="node11" class="node">
<title>Node21</title>
<g id="a_node11"><a xlink:href="classLSODA.html#addd83d35565b2c2db644f27dbd94446f" target="_top" xlink:title="LSODA::terminate">
<polygon fill="none" stroke="#000000" points="416.5,-456.5 416.5,-475.5 513.5,-475.5 513.5,-456.5 416.5,-456.5"/>
<text text-anchor="middle" x="465" y="-463.5" font-family="Helvetica,sans-Serif" font-size="10.00" fill="#000000">LSODA::terminate</text>
</a>
</g>
</g>
<!-- Node20&#45;&gt;Node21 -->
<g id="edge10" class="edge">
<title>Node20&#45;&gt;Node21</title>
<path fill="none" stroke="#191970" d="M333.205,-361.6402C344.0198,-380.7693 370.7892,-423.6868 405,-447 407.9331,-448.9988 411.0879,-450.7962 414.361,-452.4113"/>
<polygon fill="#191970" stroke="#191970" points="413.2442,-455.7415 423.8122,-456.4955 416.021,-449.3158 413.2442,-455.7415"/>
</g>
<!-- Node22 -->
<g id="node12" class="node">
<title>Node22</title>
<g id="a_node12"><a xlink:href="classLSODA.html#a6f118c16d754b66d7ee9220037260978" target="_top" xlink:title="LSODA::resize_system">
<polygon fill="none" stroke="#000000" points="405,-418.5 405,-437.5 525,-437.5 525,-418.5 405,-418.5"/>
<text text-anchor="middle" x="465" y="-425.5" font-family="Helvetica,sans-Serif" font-size="10.00" fill="#000000">LSODA::resize_system</text>
</a>
</g>
</g>
<!-- Node20&#45;&gt;Node22 -->
<g id="edge11" class="edge">
<title>Node20&#45;&gt;Node22</title>
<path fill="none" stroke="#191970" d="M338.7056,-361.7484C352.9149,-374.2387 379.2236,-395.8429 405,-409 409.276,-411.1826 413.8516,-413.1757 418.4981,-414.98"/>
<polygon fill="#191970" stroke="#191970" points="417.4673,-418.3287 428.0618,-418.4188 419.8359,-411.7416 417.4673,-418.3287"/>
</g>
<!-- Node23 -->
<g id="node13" class="node">
<title>Node23</title>
<g id="a_node13"><a xlink:href="classLSODA.html#a0a54717e6b42492345098b16bb248e77" target="_top" xlink:title="LSODA::ewset">
<polygon fill="none" stroke="#000000" points="423.5,-380.5 423.5,-399.5 506.5,-399.5 506.5,-380.5 423.5,-380.5"/>
<text text-anchor="middle" x="465" y="-387.5" font-family="Helvetica,sans-Serif" font-size="10.00" fill="#000000">LSODA::ewset</text>
</a>
</g>
</g>
<!-- Node20&#45;&gt;Node23 -->
<g id="edge12" class="edge">
<title>Node20&#45;&gt;Node23</title>
<path fill="none" stroke="#191970" d="M362.5709,-361.589C380.1752,-366.4719 401.7793,-372.4643 420.601,-377.685"/>
<polygon fill="#191970" stroke="#191970" points="419.8685,-381.1138 430.4402,-380.4141 421.7395,-374.3685 419.8685,-381.1138"/>
</g>
<!-- Node24 -->
<g id="node14" class="node">
<title>Node24</title>
<g id="a_node14"><a xlink:href="classLSODA.html#afbcbaee47892060721287dc0ba9708f9" target="_top" xlink:title="LSODA::terminate2">
<polygon fill="none" stroke="#000000" points="414,-342.5 414,-361.5 516,-361.5 516,-342.5 414,-342.5"/>
<text text-anchor="middle" x="465" y="-349.5" font-family="Helvetica,sans-Serif" font-size="10.00" fill="#000000">LSODA::terminate2</text>
</a>
</g>
</g>
<!-- Node20&#45;&gt;Node24 -->
<g id="edge13" class="edge">
<title>Node20&#45;&gt;Node24</title>
<path fill="none" stroke="#191970" d="M368.3635,-352C379.3519,-352 391.5095,-352 403.3879,-352"/>
<polygon fill="#191970" stroke="#191970" points="403.7184,-355.5001 413.7183,-352 403.7183,-348.5001 403.7184,-355.5001"/>
</g>
<!-- Node25 -->
<g id="node15" class="node">
<title>Node25</title>
<g id="a_node15"><a xlink:href="classLSODA.html#ac94b738016b2a7c57cedd5ea4f13311f" target="_top" xlink:title="LSODA::vmnorm">
<polygon fill="none" stroke="#000000" points="846,-242.5 846,-261.5 938,-261.5 938,-242.5 846,-242.5"/>
<text text-anchor="middle" x="892" y="-249.5" font-family="Helvetica,sans-Serif" font-size="10.00" fill="#000000">LSODA::vmnorm</text>
</a>
</g>
</g>
<!-- Node20&#45;&gt;Node25 -->
<g id="edge14" class="edge">
<title>Node20&#45;&gt;Node25</title>
<path fill="none" stroke="#191970" d="M362.2847,-342.4791C375.5436,-339.0771 390.8961,-335.477 405,-333 583.2832,-301.6897 635.5397,-338.258 810,-290 829.7869,-284.5267 850.7683,-274.7215 866.5542,-266.4423"/>
<polygon fill="#191970" stroke="#191970" points="868.5127,-269.3628 875.6546,-261.5369 865.1913,-263.2009 868.5127,-269.3628"/>
</g>
<!-- Node26 -->
<g id="node16" class="node">
<title>Node26</title>
<g id="a_node16"><a xlink:href="classLSODA.html#a1ee114165850fa09fcbd0b206de560dc" target="_top" xlink:title="LSODA::intdy">
<polygon fill="none" stroke="#000000" points="426.5,-266.5 426.5,-285.5 503.5,-285.5 503.5,-266.5 426.5,-266.5"/>
<text text-anchor="middle" x="465" y="-273.5" font-family="Helvetica,sans-Serif" font-size="10.00" fill="#000000">LSODA::intdy</text>
</a>
</g>
</g>
<!-- Node20&#45;&gt;Node26 -->
<g id="edge15" class="edge">
<title>Node20&#45;&gt;Node26</title>
<path fill="none" stroke="#191970" d="M340.2883,-342.4872C355.0701,-331.337 380.9112,-312.7634 405,-300 412.3298,-296.1163 420.4306,-292.474 428.2456,-289.2576"/>
<polygon fill="#191970" stroke="#191970" points="429.5624,-292.5007 437.5655,-285.5579 426.9796,-285.9945 429.5624,-292.5007"/>
</g>
<!-- Node27 -->
<g id="node17" class="node">
<title>Node27</title>
<g id="a_node17"><a xlink:href="classLSODA.html#abf4eccf92cba7f87f9d5051ee6b28a42" target="_top" xlink:title="LSODA::successreturn">
<polygon fill="none" stroke="#000000" points="406,-228.5 406,-247.5 524,-247.5 524,-228.5 406,-228.5"/>
<text text-anchor="middle" x="465" y="-235.5" font-family="Helvetica,sans-Serif" font-size="10.00" fill="#000000">LSODA::successreturn</text>
</a>
</g>
</g>
<!-- Node20&#45;&gt;Node27 -->
<g id="edge16" class="edge">
<title>Node20&#45;&gt;Node27</title>
<path fill="none" stroke="#191970" d="M333.205,-342.3598C344.0198,-323.2307 370.7892,-280.3132 405,-257 407.9331,-255.0012 411.0879,-253.2038 414.361,-251.5887"/>
<polygon fill="#191970" stroke="#191970" points="416.021,-254.6842 423.8122,-247.5045 413.2442,-248.2585 416.021,-254.6842"/>
</g>
<!-- Node28 -->
<g id="node18" class="node">
<title>Node28</title>
<g id="a_node18"><a xlink:href="classLSODA.html#a7c6d8d75b383474b5b05c710d2921618" target="_top" xlink:title="LSODA::stoda">
<polygon fill="none" stroke="#000000" points="425,-152.5 425,-171.5 505,-171.5 505,-152.5 425,-152.5"/>
<text text-anchor="middle" x="465" y="-159.5" font-family="Helvetica,sans-Serif" font-size="10.00" fill="#000000">LSODA::stoda</text>
</a>
</g>
</g>
<!-- Node20&#45;&gt;Node28 -->
<g id="edge17" class="edge">
<title>Node20&#45;&gt;Node28</title>
<path fill="none" stroke="#191970" d="M332.3772,-342.3914C342.9761,-319.6596 371.62,-261.314 405,-219 416.8575,-203.9689 432.6269,-189.1425 445.0233,-178.38"/>
<polygon fill="#191970" stroke="#191970" points="447.62,-180.7666 452.977,-171.6258 443.089,-175.4309 447.62,-180.7666"/>
</g>
<!-- Node28&#45;&gt;Node25 -->
<g id="edge21" class="edge">
<title>Node28&#45;&gt;Node25</title>
<path fill="none" stroke="#191970" d="M475.3489,-171.5208C487.434,-182.7097 507.9437,-201.9201 525,-219 541.4391,-235.4618 539.6287,-247.8075 561,-257 655.9662,-297.848 780.8952,-278.8242 846.7949,-263.8988"/>
<polygon fill="#191970" stroke="#191970" points="847.91,-267.2325 856.8509,-261.5483 846.3168,-260.4163 847.91,-267.2325"/>
</g>
<!-- Node29 -->
<g id="node19" class="node">
<title>Node29</title>
<g id="a_node19"><a xlink:href="classLSODA.html#a0f3b8f1c3f9e12fb89ddebfc02930b56" target="_top" xlink:title="LSODA::cfode">
<polygon fill="none" stroke="#000000" points="579.5,-228.5 579.5,-247.5 659.5,-247.5 659.5,-228.5 579.5,-228.5"/>
<text text-anchor="middle" x="619.5" y="-235.5" font-family="Helvetica,sans-Serif" font-size="10.00" fill="#000000">LSODA::cfode</text>
</a>
</g>
</g>
<!-- Node28&#45;&gt;Node29 -->
<g id="edge18" class="edge">
<title>Node28&#45;&gt;Node29</title>
<path fill="none" stroke="#191970" d="M478.781,-171.5185C496.9657,-183.7602 530.2727,-205.0961 561,-219 565.7428,-221.1461 570.8007,-223.1638 575.8817,-225.0243"/>
<polygon fill="#191970" stroke="#191970" points="575.0095,-228.4264 585.6043,-228.4005 577.3058,-221.8137 575.0095,-228.4264"/>
</g>
<!-- Node30 -->
<g id="node20" class="node">
<title>Node30</title>
<g id="a_node20"><a xlink:href="classLSODA.html#a391bc37600b2df97c24cafc6352dc4ce" target="_top" xlink:title="LSODA::resetcoeff">
<polygon fill="none" stroke="#000000" points="569.5,-190.5 569.5,-209.5 669.5,-209.5 669.5,-190.5 569.5,-190.5"/>
<text text-anchor="middle" x="619.5" y="-197.5" font-family="Helvetica,sans-Serif" font-size="10.00" fill="#000000">LSODA::resetcoeff</text>
</a>
</g>
</g>
<!-- Node28&#45;&gt;Node30 -->
<g id="edge19" class="edge">
<title>Node28&#45;&gt;Node30</title>
<path fill="none" stroke="#191970" d="M503.9869,-171.589C524.283,-176.5809 549.2935,-182.7324 570.8462,-188.0334"/>
<polygon fill="#191970" stroke="#191970" points="570.2469,-191.4902 580.7935,-190.4799 571.9188,-184.6928 570.2469,-191.4902"/>
</g>
<!-- Node31 -->
<g id="node21" class="node">
<title>Node31</title>
<g id="a_node21"><a xlink:href="classLSODA.html#acd395b8e8db2b012842c1ffd57244fd3" target="_top" xlink:title="LSODA::scaleh">
<polygon fill="none" stroke="#000000" points="577,-152.5 577,-171.5 662,-171.5 662,-152.5 577,-152.5"/>
<text text-anchor="middle" x="619.5" y="-159.5" font-family="Helvetica,sans-Serif" font-size="10.00" fill="#000000">LSODA::scaleh</text>
</a>
</g>
</g>
<!-- Node28&#45;&gt;Node31 -->
<g id="edge20" class="edge">
<title>Node28&#45;&gt;Node31</title>
<path fill="none" stroke="#191970" d="M505.1897,-162C523.9196,-162 546.4588,-162 566.5546,-162"/>
<polygon fill="#191970" stroke="#191970" points="566.8076,-165.5001 576.8076,-162 566.8076,-158.5001 566.8076,-165.5001"/>
</g>
<!-- Node32 -->
<g id="node22" class="node">
<title>Node32</title>
<g id="a_node22"><a xlink:href="classLSODA.html#ae5ebdebff330f29ef0c15bece1bf8299" target="_top" xlink:title="LSODA::correction">
<polygon fill="none" stroke="#000000" points="570,-114.5 570,-133.5 669,-133.5 669,-114.5 570,-114.5"/>
<text text-anchor="middle" x="619.5" y="-121.5" font-family="Helvetica,sans-Serif" font-size="10.00" fill="#000000">LSODA::correction</text>
</a>
</g>
</g>
<!-- Node28&#45;&gt;Node32 -->
<g id="edge22" class="edge">
<title>Node28&#45;&gt;Node32</title>
<path fill="none" stroke="#191970" d="M503.9869,-152.411C524.283,-147.4191 549.2935,-141.2676 570.8462,-135.9666"/>
<polygon fill="#191970" stroke="#191970" points="571.9188,-139.3072 580.7935,-133.5201 570.2469,-132.5098 571.9188,-139.3072"/>
</g>
<!-- Node38 -->
<g id="node28" class="node">
<title>Node38</title>
<g id="a_node28"><a xlink:href="classLSODA.html#aa81043ac776e6d6b81ae2382b03dea2a" target="_top" xlink:title="LSODA::methodswitch">
<polygon fill="none" stroke="#000000" points="561,-76.5 561,-95.5 678,-95.5 678,-76.5 561,-76.5"/>
<text text-anchor="middle" x="619.5" y="-83.5" font-family="Helvetica,sans-Serif" font-size="10.00" fill="#000000">LSODA::methodswitch</text>
</a>
</g>
</g>
<!-- Node28&#45;&gt;Node38 -->
<g id="edge30" class="edge">
<title>Node28&#45;&gt;Node38</title>
<path fill="none" stroke="#191970" d="M478.781,-152.4815C496.9657,-140.2398 530.2727,-118.9039 561,-105 565.7428,-102.8539 570.8007,-100.8362 575.8817,-98.9757"/>
<polygon fill="#191970" stroke="#191970" points="577.3058,-102.1863 585.6043,-95.5995 575.0095,-95.5736 577.3058,-102.1863"/>
</g>
<!-- Node39 -->
<g id="node29" class="node">
<title>Node39</title>
<g id="a_node29"><a xlink:href="classLSODA.html#a1d1e589364f1c4100eba1837021fc4d9" target="_top" xlink:title="LSODA::endstoda">
<polygon fill="none" stroke="#000000" points="571.5,-38.5 571.5,-57.5 667.5,-57.5 667.5,-38.5 571.5,-38.5"/>
<text text-anchor="middle" x="619.5" y="-45.5" font-family="Helvetica,sans-Serif" font-size="10.00" fill="#000000">LSODA::endstoda</text>
</a>
</g>
</g>
<!-- Node28&#45;&gt;Node39 -->
<g id="edge31" class="edge">
<title>Node28&#45;&gt;Node39</title>
<path fill="none" stroke="#191970" d="M472.103,-152.4403C486.6899,-133.4559 521.9507,-90.7858 561,-67 564.3914,-64.9342 568.032,-63.0676 571.7778,-61.386"/>
<polygon fill="#191970" stroke="#191970" points="573.2569,-64.5635 581.2234,-57.5788 570.64,-58.0711 573.2569,-64.5635"/>
</g>
<!-- Node40 -->
<g id="node30" class="node">
<title>Node40</title>
<g id="a_node30"><a xlink:href="classLSODA.html#a0fae42ed968227524b320ab5d3470665" target="_top" xlink:title="LSODA::orderswitch">
<polygon fill="none" stroke="#000000" points="566,-.5 566,-19.5 673,-19.5 673,-.5 566,-.5"/>
<text text-anchor="middle" x="619.5" y="-7.5" font-family="Helvetica,sans-Serif" font-size="10.00" fill="#000000">LSODA::orderswitch</text>
</a>
</g>
</g>
<!-- Node28&#45;&gt;Node40 -->
<g id="edge32" class="edge">
<title>Node28&#45;&gt;Node40</title>
<path fill="none" stroke="#191970" d="M469.295,-152.3615C480.6427,-127.9863 513.8227,-63.3841 561,-29 563.6321,-27.0817 566.4673,-25.3508 569.42,-23.7898"/>
<polygon fill="#191970" stroke="#191970" points="570.9177,-26.9535 578.5446,-19.5995 567.9964,-20.5922 570.9177,-26.9535"/>
</g>
<!-- Node32&#45;&gt;Node25 -->
<g id="edge28" class="edge">
<title>Node32&#45;&gt;Node25</title>
<path fill="none" stroke="#191970" d="M661.7051,-133.5324C667.5438,-136.0051 673.1817,-139.1085 678,-143 702.7888,-163.0205 688.6615,-185.6798 714,-205 748.9645,-231.6598 797.7515,-243.2392 835.409,-248.2474"/>
<polygon fill="#191970" stroke="#191970" points="835.3667,-251.7677 845.7144,-249.4927 836.2066,-244.8182 835.3667,-251.7677"/>
</g>
<!-- Node33 -->
<g id="node23" class="node">
<title>Node33</title>
<g id="a_node23"><a xlink:href="classLSODA.html#a87757b30f48356ff9c77bf587ebb16d8" target="_top" xlink:title="LSODA::prja">
<polygon fill="none" stroke="#000000" points="726,-176.5 726,-195.5 798,-195.5 798,-176.5 726,-176.5"/>
<text text-anchor="middle" x="762" y="-183.5" font-family="Helvetica,sans-Serif" font-size="10.00" fill="#000000">LSODA::prja</text>
</a>
</g>
</g>
<!-- Node32&#45;&gt;Node33 -->
<g id="edge23" class="edge">
<title>Node32&#45;&gt;Node33</title>
<path fill="none" stroke="#191970" d="M652.3542,-133.5766C660.8163,-136.3398 669.8359,-139.5499 678,-143 694.6647,-150.0424 697.9082,-153.7319 714,-162 720.236,-165.2041 726.9533,-168.5983 733.3301,-171.7939"/>
<polygon fill="#191970" stroke="#191970" points="731.8232,-174.9534 742.3336,-176.2885 734.9498,-168.6905 731.8232,-174.9534"/>
</g>
<!-- Node36 -->
<g id="node26" class="node">
<title>Node36</title>
<g id="a_node26"><a xlink:href="classLSODA.html#ac7effc5da52973a91cb3409012f172e7" target="_top" xlink:title="LSODA::corfailure">
<polygon fill="none" stroke="#000000" points="714,-133.5 714,-152.5 810,-152.5 810,-133.5 714,-133.5"/>
<text text-anchor="middle" x="762" y="-140.5" font-family="Helvetica,sans-Serif" font-size="10.00" fill="#000000">LSODA::corfailure</text>
</a>
</g>
</g>
<!-- Node32&#45;&gt;Node36 -->
<g id="edge27" class="edge">
<title>Node32&#45;&gt;Node36</title>
<path fill="none" stroke="#191970" d="M669.3396,-130.6453C680.5132,-132.1351 692.4613,-133.7282 703.9365,-135.2582"/>
<polygon fill="#191970" stroke="#191970" points="703.4929,-138.7299 713.8678,-136.5824 704.4181,-131.7913 703.4929,-138.7299"/>
</g>
<!-- Node37 -->
<g id="node27" class="node">
<title>Node37</title>
<g id="a_node27"><a xlink:href="classLSODA.html#a5476113f8738e733652f1f6b02eaba3b" target="_top" xlink:title="LSODA::solsy">
<polygon fill="none" stroke="#000000" points="722,-95.5 722,-114.5 802,-114.5 802,-95.5 722,-95.5"/>
<text text-anchor="middle" x="762" y="-102.5" font-family="Helvetica,sans-Serif" font-size="10.00" fill="#000000">LSODA::solsy</text>
</a>
</g>
</g>
<!-- Node32&#45;&gt;Node37 -->
<g id="edge29" class="edge">
<title>Node32&#45;&gt;Node37</title>
<path fill="none" stroke="#191970" d="M669.3396,-117.3547C683.0263,-115.5298 697.8751,-113.55 711.5935,-111.7209"/>
<polygon fill="#191970" stroke="#191970" points="712.376,-115.1476 721.8257,-110.3566 711.4508,-108.209 712.376,-115.1476"/>
</g>
<!-- Node33&#45;&gt;Node25 -->
<g id="edge24" class="edge">
<title>Node33&#45;&gt;Node25</title>
<path fill="none" stroke="#191970" d="M777.8037,-195.5851C794.4684,-205.515 821.6341,-221.2025 846,-233 849.8496,-234.8639 853.9303,-236.7173 858.0088,-238.4947"/>
<polygon fill="#191970" stroke="#191970" points="856.8382,-241.7998 867.4117,-242.473 859.5658,-235.353 856.8382,-241.7998"/>
</g>
<!-- Node34 -->
<g id="node24" class="node">
<title>Node34</title>
<g id="a_node24"><a xlink:href="classLSODA.html#ab6221280caead6f45c316c261e8de713" target="_top" xlink:title="LSODA::fnorm">
<polygon fill="none" stroke="#000000" points="851.5,-204.5 851.5,-223.5 932.5,-223.5 932.5,-204.5 851.5,-204.5"/>
<text text-anchor="middle" x="892" y="-211.5" font-family="Helvetica,sans-Serif" font-size="10.00" fill="#000000">LSODA::fnorm</text>
</a>
</g>
</g>
<!-- Node33&#45;&gt;Node34 -->
<g id="edge25" class="edge">
<title>Node33&#45;&gt;Node34</title>
<path fill="none" stroke="#191970" d="M798.2122,-193.7996C811.6415,-196.692 827.1253,-200.027 841.5922,-203.1429"/>
<polygon fill="#191970" stroke="#191970" points="840.8947,-206.5729 851.4075,-205.257 842.3686,-199.7298 840.8947,-206.5729"/>
</g>
<!-- Node35 -->
<g id="node25" class="node">
<title>Node35</title>
<g id="a_node25"><a xlink:href="classLSODA.html#a9aade25a1818e2af775a17a1ed2ba4f9" target="_top" xlink:title="LSODA::dgefa">
<polygon fill="none" stroke="#000000" points="852,-166.5 852,-185.5 932,-185.5 932,-166.5 852,-166.5"/>
<text text-anchor="middle" x="892" y="-173.5" font-family="Helvetica,sans-Serif" font-size="10.00" fill="#000000">LSODA::dgefa</text>
</a>
</g>
</g>
<!-- Node33&#45;&gt;Node35 -->
<g id="edge26" class="edge">
<title>Node33&#45;&gt;Node35</title>
<path fill="none" stroke="#191970" d="M798.2122,-183.2144C811.6333,-182.1821 827.1063,-180.9918 841.5656,-179.8796"/>
<polygon fill="#191970" stroke="#191970" points="842.1691,-183.3436 851.8712,-179.0868 841.6322,-176.3642 842.1691,-183.3436"/>
</g>
</g>
</svg>
