<?xml version="1.0" encoding="UTF-8" standalone="no"?>
<!DOCTYPE svg PUBLIC "-//W3C//DTD SVG 1.1//EN"
 "http://www.w3.org/Graphics/SVG/1.1/DTD/svg11.dtd">
<!-- Generated by graphviz version 2.40.1 (20161225.0304)
 -->
<!-- Title: Solver::addSpecies Pages: 1 -->
<svg width="309pt" height="66pt"
 viewBox="0.00 0.00 309.00 66.00" xmlns="http://www.w3.org/2000/svg" xmlns:xlink="http://www.w3.org/1999/xlink">
<g id="graph0" class="graph" transform="scale(1 1) rotate(0) translate(4 62)">
<title>Solver::addSpecies</title>
<!-- Node14 -->
<g id="node1" class="node">
<title>Node14</title>
<polygon fill="#bfbfbf" stroke="#000000" points="0,-19.5 0,-38.5 101,-38.5 101,-19.5 0,-19.5"/>
<text text-anchor="middle" x="50.5" y="-26.5" font-family="Helvetica,sans-Serif" font-size="10.00" fill="#000000">Solver::addSpecies</text>
</g>
<!-- Node15 -->
<g id="node2" class="node">
<title>Node15</title>
<g id="a_node2"><a xlink:href="classSpecies__Base.html#a9a0950905cc15ea5c28f0b66ebc05d2a" target="_top" xlink:title="Species_Base::set_inputBirthFlux">
<polygon fill="none" stroke="#000000" points="137,-38.5 137,-57.5 301,-57.5 301,-38.5 137,-38.5"/>
<text text-anchor="middle" x="219" y="-45.5" font-family="Helvetica,sans-Serif" font-size="10.00" fill="#000000">Species_Base::set_inputBirthFlux</text>
</a>
</g>
</g>
<!-- Node14&#45;&gt;Node15 -->
<g id="edge1" class="edge">
<title>Node14&#45;&gt;Node15</title>
<path fill="none" stroke="#191970" d="M101.0556,-34.7006C109.2961,-35.6298 118.0516,-36.6171 126.9238,-37.6175"/>
<polygon fill="#191970" stroke="#191970" points="126.64,-41.1076 136.9693,-38.7502 127.4245,-34.1517 126.64,-41.1076"/>
</g>
<!-- Node16 -->
<g id="node3" class="node">
<title>Node16</title>
<g id="a_node3"><a xlink:href="classSpecies__Base.html#ad12fddce95c7fcbca4142f056a38d670" target="_top" xlink:title="Species_Base::resize">
<polygon fill="none" stroke="#000000" points="163,-.5 163,-19.5 275,-19.5 275,-.5 163,-.5"/>
<text text-anchor="middle" x="219" y="-7.5" font-family="Helvetica,sans-Serif" font-size="10.00" fill="#000000">Species_Base::resize</text>
</a>
</g>
</g>
<!-- Node14&#45;&gt;Node16 -->
<g id="edge2" class="edge">
<title>Node14&#45;&gt;Node16</title>
<path fill="none" stroke="#191970" d="M101.0556,-23.2994C117.3436,-21.4627 135.6432,-19.3993 152.8801,-17.4557"/>
<polygon fill="#191970" stroke="#191970" points="153.338,-20.9263 162.8828,-16.3278 152.5536,-13.9704 153.338,-20.9263"/>
</g>
</g>
</svg>
