<?xml version="1.0" encoding="UTF-8" standalone="no"?>
<!DOCTYPE svg PUBLIC "-//W3C//DTD SVG 1.1//EN"
 "http://www.w3.org/Graphics/SVG/1.1/DTD/svg11.dtd">
<!-- Generated by graphviz version 2.40.1 (20161225.0304)
 -->
<!-- Title: Spline::solve_coeffs_constrained_cubic Pages: 1 -->
<svg width="438pt" height="66pt"
 viewBox="0.00 0.00 438.00 66.00" xmlns="http://www.w3.org/2000/svg" xmlns:xlink="http://www.w3.org/1999/xlink">
<g id="graph0" class="graph" transform="scale(1 1) rotate(0) translate(4 62)">
<title>Spline::solve_coeffs_constrained_cubic</title>
<!-- Node34 -->
<g id="node1" class="node">
<title>Node34</title>
<polygon fill="#bfbfbf" stroke="#000000" points="0,-14 0,-44 105,-44 105,-14 0,-14"/>
<text text-anchor="start" x="8" y="-32" font-family="Helvetica,sans-Serif" font-size="10.00" fill="#000000">Spline::solve_coeffs</text>
<text text-anchor="middle" x="52.5" y="-21" font-family="Helvetica,sans-Serif" font-size="10.00" fill="#000000">_constrained_cubic</text>
</g>
<!-- Node35 -->
<g id="node2" class="node">
<title>Node35</title>
<g id="a_node2"><a xlink:href="classSpline.html#a42eec80590bdc7fa338c4643cf307344" target="_top" xlink:title="Spline::set_points">
<polygon fill="none" stroke="#000000" points="141,-19.5 141,-38.5 236,-38.5 236,-19.5 141,-19.5"/>
<text text-anchor="middle" x="188.5" y="-26.5" font-family="Helvetica,sans-Serif" font-size="10.00" fill="#000000">Spline::set_points</text>
</a>
</g>
</g>
<!-- Node34&#45;&gt;Node35 -->
<g id="edge1" class="edge">
<title>Node34&#45;&gt;Node35</title>
<path fill="none" stroke="#191970" d="M115.1673,-29C123.8336,-29 132.6161,-29 140.9472,-29"/>
<polygon fill="#191970" stroke="#191970" points="115.0812,-25.5001 105.0812,-29 115.0811,-32.5001 115.0812,-25.5001"/>
</g>
<!-- Node36 -->
<g id="node3" class="node">
<title>Node36</title>
<g id="a_node3"><a xlink:href="classSpline.html#a2990afcfd16e90f6b9fa0391fdc9b2b0" target="_top" xlink:title="Spline::constructAndReset">
<polygon fill="none" stroke="#000000" points="284,-38.5 284,-57.5 418,-57.5 418,-38.5 284,-38.5"/>
<text text-anchor="middle" x="351" y="-45.5" font-family="Helvetica,sans-Serif" font-size="10.00" fill="#000000">Spline::constructAndReset</text>
</a>
</g>
</g>
<!-- Node35&#45;&gt;Node36 -->
<g id="edge2" class="edge">
<title>Node35&#45;&gt;Node36</title>
<path fill="none" stroke="#191970" d="M246.378,-35.7673C258.53,-37.1881 271.4443,-38.6981 283.9008,-40.1546"/>
<polygon fill="#191970" stroke="#191970" points="246.7153,-32.283 236.3765,-34.5979 245.9023,-39.2356 246.7153,-32.283"/>
</g>
<!-- Node37 -->
<g id="node4" class="node">
<title>Node37</title>
<g id="a_node4"><a xlink:href="classSolver.html#aca318144131fe7ed314e6e62037dcde6" target="_top" xlink:title="Solver::getDensitySpecies_EBT">
<polygon fill="none" stroke="#000000" points="272,-.5 272,-19.5 430,-19.5 430,-.5 272,-.5"/>
<text text-anchor="middle" x="351" y="-7.5" font-family="Helvetica,sans-Serif" font-size="10.00" fill="#000000">Solver::getDensitySpecies_EBT</text>
</a>
</g>
</g>
<!-- Node35&#45;&gt;Node37 -->
<g id="edge3" class="edge">
<title>Node35&#45;&gt;Node37</title>
<path fill="none" stroke="#191970" d="M246.5386,-22.214C254.7284,-21.2564 263.2618,-20.2586 271.7657,-19.2643"/>
<polygon fill="#191970" stroke="#191970" points="245.9023,-18.7644 236.3765,-23.4021 246.7153,-25.7171 245.9023,-18.7644"/>
</g>
</g>
</svg>
