<?xml version="1.0" encoding="UTF-8" standalone="no"?>
<!DOCTYPE svg PUBLIC "-//W3C//DTD SVG 1.1//EN"
 "http://www.w3.org/Graphics/SVG/1.1/DTD/svg11.dtd">
<!-- Generated by graphviz version 2.40.1 (20161225.0304)
 -->
<!-- Title: Solver::calcRates_FMU Pages: 1 -->
<svg width="315pt" height="290pt"
 viewBox="0.00 0.00 315.00 290.00" xmlns="http://www.w3.org/2000/svg" xmlns:xlink="http://www.w3.org/1999/xlink">
<g id="graph0" class="graph" transform="scale(1 1) rotate(0) translate(4 286)">
<title>Solver::calcRates_FMU</title>
<!-- Node46 -->
<g id="node1" class="node">
<title>Node46</title>
<polygon fill="#bfbfbf" stroke="#000000" points="0,-120.5 0,-139.5 122,-139.5 122,-120.5 0,-120.5"/>
<text text-anchor="middle" x="61" y="-127.5" font-family="Helvetica,sans-Serif" font-size="10.00" fill="#000000">Solver::calcRates_FMU</text>
</g>
<!-- Node47 -->
<g id="node2" class="node">
<title>Node47</title>
<g id="a_node2"><a xlink:href="classSpecies__Base.html#abe98e190e76cfd39eee7ef3d30141d53" target="_top" xlink:title="Species_Base::growthRate">
<polygon fill="none" stroke="#000000" points="164.5,-262.5 164.5,-281.5 300.5,-281.5 300.5,-262.5 164.5,-262.5"/>
<text text-anchor="middle" x="232.5" y="-269.5" font-family="Helvetica,sans-Serif" font-size="10.00" fill="#000000">Species_Base::growthRate</text>
</a>
</g>
</g>
<!-- Node46&#45;&gt;Node47 -->
<g id="edge1" class="edge">
<title>Node46&#45;&gt;Node47</title>
<path fill="none" stroke="#191970" d="M65.7993,-139.7644C77.8404,-163.1998 111.7121,-222.913 158,-253 161.1511,-255.0482 164.5103,-256.8757 167.9937,-258.5063"/>
<polygon fill="#191970" stroke="#191970" points="166.8663,-261.8267 177.4467,-262.3789 169.5199,-255.3492 166.8663,-261.8267"/>
</g>
<!-- Node48 -->
<g id="node3" class="node">
<title>Node48</title>
<g id="a_node3"><a xlink:href="classSpecies__Base.html#ae267209e533ed4d38908c2e2c1925417" target="_top" xlink:title="Species_Base::growthRate\lOffset">
<polygon fill="none" stroke="#000000" points="164.5,-213 164.5,-243 300.5,-243 300.5,-213 164.5,-213"/>
<text text-anchor="start" x="172.5" y="-231" font-family="Helvetica,sans-Serif" font-size="10.00" fill="#000000">Species_Base::growthRate</text>
<text text-anchor="middle" x="232.5" y="-220" font-family="Helvetica,sans-Serif" font-size="10.00" fill="#000000">Offset</text>
</a>
</g>
</g>
<!-- Node46&#45;&gt;Node48 -->
<g id="edge2" class="edge">
<title>Node46&#45;&gt;Node48</title>
<path fill="none" stroke="#191970" d="M71.2314,-139.7298C88.0809,-155.2855 123.2731,-185.8469 158,-204 161.4904,-205.8246 165.1455,-207.5437 168.8832,-209.1578"/>
<polygon fill="#191970" stroke="#191970" points="167.7141,-212.4601 178.2974,-212.9539 170.332,-205.9681 167.7141,-212.4601"/>
</g>
<!-- Node49 -->
<g id="node4" class="node">
<title>Node49</title>
<g id="a_node4"><a xlink:href="classSpecies__Base.html#aad4cefae53644171dfcd12639d2e0e63" target="_top" xlink:title="Species_Base::establishment\lProbability">
<polygon fill="none" stroke="#000000" points="159.5,-164 159.5,-194 305.5,-194 305.5,-164 159.5,-164"/>
<text text-anchor="start" x="167.5" y="-182" font-family="Helvetica,sans-Serif" font-size="10.00" fill="#000000">Species_Base::establishment</text>
<text text-anchor="middle" x="232.5" y="-171" font-family="Helvetica,sans-Serif" font-size="10.00" fill="#000000">Probability</text>
</a>
</g>
</g>
<!-- Node46&#45;&gt;Node49 -->
<g id="edge3" class="edge">
<title>Node46&#45;&gt;Node49</title>
<path fill="none" stroke="#191970" d="M94.4741,-139.564C115.9969,-145.7134 144.6248,-153.8928 170.2274,-161.2078"/>
<polygon fill="#191970" stroke="#191970" points="169.2938,-164.5811 179.8706,-163.963 171.2169,-157.8504 169.2938,-164.5811"/>
</g>
<!-- Node50 -->
<g id="node5" class="node">
<title>Node50</title>
<g id="a_node5"><a xlink:href="classSpecies__Base.html#a0954e7ce15766c2bae1731fe5d8decd2" target="_top" xlink:title="Species_Base::calc\l_boundary_u">
<polygon fill="none" stroke="#000000" points="180.5,-115 180.5,-145 284.5,-145 284.5,-115 180.5,-115"/>
<text text-anchor="start" x="188.5" y="-133" font-family="Helvetica,sans-Serif" font-size="10.00" fill="#000000">Species_Base::calc</text>
<text text-anchor="middle" x="232.5" y="-122" font-family="Helvetica,sans-Serif" font-size="10.00" fill="#000000">_boundary_u</text>
</a>
</g>
</g>
<!-- Node46&#45;&gt;Node50 -->
<g id="edge4" class="edge">
<title>Node46&#45;&gt;Node50</title>
<path fill="none" stroke="#191970" d="M122.431,-130C137.9631,-130 154.6557,-130 170.2288,-130"/>
<polygon fill="#191970" stroke="#191970" points="170.2775,-133.5001 180.2775,-130 170.2775,-126.5001 170.2775,-133.5001"/>
</g>
<!-- Node51 -->
<g id="node6" class="node">
<title>Node51</title>
<g id="a_node6"><a xlink:href="fmu_8cpp.html#af0b176a8634995ec9711c803bb30743a" target="_top" xlink:title="phi">
<polygon fill="none" stroke="#000000" points="218,-76.5 218,-95.5 247,-95.5 247,-76.5 218,-76.5"/>
<text text-anchor="middle" x="232.5" y="-83.5" font-family="Helvetica,sans-Serif" font-size="10.00" fill="#000000">phi</text>
</a>
</g>
</g>
<!-- Node46&#45;&gt;Node51 -->
<g id="edge5" class="edge">
<title>Node46&#45;&gt;Node51</title>
<path fill="none" stroke="#191970" d="M98.2129,-120.4527C131.4078,-111.9362 179.072,-99.7075 207.7836,-92.3412"/>
<polygon fill="#191970" stroke="#191970" points="208.9735,-95.6494 217.7899,-89.774 207.2338,-88.869 208.9735,-95.6494"/>
</g>
<!-- Node52 -->
<g id="node7" class="node">
<title>Node52</title>
<g id="a_node7"><a xlink:href="classSpecies__Base.html#a59ab3c647c48a819f1911957e5724d5e" target="_top" xlink:title="Species_Base::mortalityRate">
<polygon fill="none" stroke="#000000" points="160.5,-38.5 160.5,-57.5 304.5,-57.5 304.5,-38.5 160.5,-38.5"/>
<text text-anchor="middle" x="232.5" y="-45.5" font-family="Helvetica,sans-Serif" font-size="10.00" fill="#000000">Species_Base::mortalityRate</text>
</a>
</g>
</g>
<!-- Node46&#45;&gt;Node52 -->
<g id="edge6" class="edge">
<title>Node46&#45;&gt;Node52</title>
<path fill="none" stroke="#191970" d="M72.8174,-120.4738C90.3869,-106.7571 124.8922,-81.5024 158,-67 163.4828,-64.5983 169.3308,-62.455 175.2478,-60.5533"/>
<polygon fill="#191970" stroke="#191970" points="176.6368,-63.7914 185.2184,-57.578 174.6351,-57.0837 176.6368,-63.7914"/>
</g>
<!-- Node53 -->
<g id="node8" class="node">
<title>Node53</title>
<g id="a_node8"><a xlink:href="classSpecies__Base.html#a1c47d1905fa4da0a1f203f641f6ed2af" target="_top" xlink:title="Species_Base::getExtraRates">
<polygon fill="none" stroke="#000000" points="158,-.5 158,-19.5 307,-19.5 307,-.5 158,-.5"/>
<text text-anchor="middle" x="232.5" y="-7.5" font-family="Helvetica,sans-Serif" font-size="10.00" fill="#000000">Species_Base::getExtraRates</text>
</a>
</g>
</g>
<!-- Node46&#45;&gt;Node53 -->
<g id="edge7" class="edge">
<title>Node46&#45;&gt;Node53</title>
<path fill="none" stroke="#191970" d="M67.488,-120.2214C81.4851,-99.9256 116.6199,-53.1151 158,-29 161.867,-26.7464 165.9991,-24.7572 170.2606,-23.0018"/>
<polygon fill="#191970" stroke="#191970" points="171.5624,-26.2524 179.7436,-19.5205 169.15,-19.6812 171.5624,-26.2524"/>
</g>
</g>
</svg>
