<?xml version="1.0" encoding="UTF-8" standalone="no"?>
<!DOCTYPE svg PUBLIC "-//W3C//DTD SVG 1.1//EN"
 "http://www.w3.org/Graphics/SVG/1.1/DTD/svg11.dtd">
<!-- Generated by graphviz version 2.40.1 (20161225.0304)
 -->
<!-- Title: Species_Base Pages: 1 -->
<svg width="232pt" height="128pt"
 viewBox="0.00 0.00 231.50 128.00" xmlns="http://www.w3.org/2000/svg" xmlns:xlink="http://www.w3.org/1999/xlink">
<g id="graph0" class="graph" transform="scale(1 1) rotate(0) translate(4 124)">
<title>Species_Base</title>
<!-- Node2 -->
<g id="node1" class="node">
<title>Node2</title>
<polygon fill="#bfbfbf" stroke="#000000" points="67.5,-.5 67.5,-19.5 147.5,-19.5 147.5,-.5 67.5,-.5"/>
<text text-anchor="middle" x="107.5" y="-7.5" font-family="Helvetica,sans-Serif" font-size="10.00" fill="#000000">Species_Base</text>
</g>
<!-- Node3 -->
<g id="node2" class="node">
<title>Node3</title>
<polygon fill="none" stroke="#bfbfbf" points="0,-100.5 0,-119.5 95,-119.5 95,-100.5 0,-100.5"/>
<text text-anchor="middle" x="47.5" y="-107.5" font-family="Helvetica,sans-Serif" font-size="10.00" fill="#000000">std::list&lt; double &gt;</text>
</g>
<!-- Node3&#45;&gt;Node2 -->
<g id="edge1" class="edge">
<title>Node3&#45;&gt;Node2</title>
<path fill="none" stroke="#9a32cd" stroke-dasharray="5,2" d="M42.8191,-90.1769C40.3295,-74.7222 39.5495,-53.3747 49.5,-38 54.907,-29.6456 63.5646,-23.7159 72.5591,-19.5347"/>
<polygon fill="#9a32cd" stroke="#9a32cd" points="39.4314,-91.0882 44.805,-100.2191 46.2984,-89.7301 39.4314,-91.0882"/>
<text text-anchor="middle" x="98" y="-57.5" font-family="Helvetica,sans-Serif" font-size="10.00" fill="#000000"> birth_flux_out_history</text>
</g>
<!-- Node4 -->
<g id="node3" class="node">
<title>Node4</title>
<polygon fill="none" stroke="#bfbfbf" points="113.5,-100.5 113.5,-119.5 223.5,-119.5 223.5,-100.5 113.5,-100.5"/>
<text text-anchor="middle" x="168.5" y="-107.5" font-family="Helvetica,sans-Serif" font-size="10.00" fill="#000000">std::vector&lt; double &gt;</text>
</g>
<!-- Node4&#45;&gt;Node2 -->
<g id="edge2" class="edge">
<title>Node4&#45;&gt;Node2</title>
<path fill="none" stroke="#9a32cd" stroke-dasharray="5,2" d="M165.9921,-90.2751C163.2501,-74.8752 157.6586,-53.5534 146.5,-38 141.1553,-30.5503 133.203,-24.333 125.8709,-19.6645"/>
<polygon fill="#9a32cd" stroke="#9a32cd" points="162.55,-90.9202 167.524,-100.2748 169.4693,-89.8601 162.55,-90.9202"/>
<text text-anchor="middle" x="183.5" y="-74" font-family="Helvetica,sans-Serif" font-size="10.00" fill="#000000"> x</text>
<text text-anchor="middle" x="183.5" y="-63" font-family="Helvetica,sans-Serif" font-size="10.00" fill="#000000">schedule</text>
<text text-anchor="middle" x="183.5" y="-52" font-family="Helvetica,sans-Serif" font-size="10.00" fill="#000000">h</text>
<text text-anchor="middle" x="183.5" y="-41" font-family="Helvetica,sans-Serif" font-size="10.00" fill="#000000">X</text>
</g>
</g>
</svg>
