<?xml version="1.0" encoding="UTF-8" standalone="no"?>
<!DOCTYPE svg PUBLIC "-//W3C//DTD SVG 1.1//EN"
 "http://www.w3.org/Graphics/SVG/1.1/DTD/svg11.dtd">
<!-- Generated by graphviz version 2.40.1 (20161225.0304)
 -->
<!-- Title: LSODA::terminate2 Pages: 1 -->
<svg width="751pt" height="28pt"
 viewBox="0.00 0.00 751.00 28.00" xmlns="http://www.w3.org/2000/svg" xmlns:xlink="http://www.w3.org/1999/xlink">
<g id="graph0" class="graph" transform="scale(1 1) rotate(0) translate(4 24)">
<title>LSODA::terminate2</title>
<!-- Node253 -->
<g id="node1" class="node">
<title>Node253</title>
<polygon fill="#bfbfbf" stroke="#000000" points="0,-.5 0,-19.5 102,-19.5 102,-.5 0,-.5"/>
<text text-anchor="middle" x="51" y="-7.5" font-family="Helvetica,sans-Serif" font-size="10.00" fill="#000000">LSODA::terminate2</text>
</g>
<!-- Node254 -->
<g id="node2" class="node">
<title>Node254</title>
<g id="a_node2"><a xlink:href="classLSODA.html#a705dcfe5b21827adb8871e48f2c72fb2" target="_top" xlink:title="LSODA::lsoda">
<polygon fill="none" stroke="#000000" points="138,-.5 138,-19.5 218,-19.5 218,-.5 138,-.5"/>
<text text-anchor="middle" x="178" y="-7.5" font-family="Helvetica,sans-Serif" font-size="10.00" fill="#000000">LSODA::lsoda</text>
</a>
</g>
</g>
<!-- Node253&#45;&gt;Node254 -->
<g id="edge1" class="edge">
<title>Node253&#45;&gt;Node254</title>
<path fill="none" stroke="#191970" d="M112.3816,-10C121.0317,-10 129.7343,-10 137.8464,-10"/>
<polygon fill="#191970" stroke="#191970" points="112.2897,-6.5001 102.2897,-10 112.2897,-13.5001 112.2897,-6.5001"/>
</g>
<!-- Node255 -->
<g id="node3" class="node">
<title>Node255</title>
<g id="a_node3"><a xlink:href="classLSODA.html#a391e4d7bea026ad7c300cfb55cb290d1" target="_top" xlink:title="LSODA::lsoda_update">
<polygon fill="none" stroke="#000000" points="254,-.5 254,-19.5 368,-19.5 368,-.5 254,-.5"/>
<text text-anchor="middle" x="311" y="-7.5" font-family="Helvetica,sans-Serif" font-size="10.00" fill="#000000">LSODA::lsoda_update</text>
</a>
</g>
</g>
<!-- Node254&#45;&gt;Node255 -->
<g id="edge2" class="edge">
<title>Node254&#45;&gt;Node255</title>
<path fill="none" stroke="#191970" d="M228.4762,-10C236.7175,-10 245.3078,-10 253.6989,-10"/>
<polygon fill="#191970" stroke="#191970" points="228.2653,-6.5001 218.2653,-10 228.2653,-13.5001 228.2653,-6.5001"/>
</g>
<!-- Node256 -->
<g id="node4" class="node">
<title>Node256</title>
<g id="a_node4"><a xlink:href="classOdeSolver.html#a77d9f02ed28d5515366e6be08560f35a" target="_top" xlink:title="OdeSolver::step_to">
<polygon fill="none" stroke="#000000" points="404,-.5 404,-19.5 505,-19.5 505,-.5 404,-.5"/>
<text text-anchor="middle" x="454.5" y="-7.5" font-family="Helvetica,sans-Serif" font-size="10.00" fill="#000000">OdeSolver::step_to</text>
</a>
</g>
</g>
<!-- Node255&#45;&gt;Node256 -->
<g id="edge3" class="edge">
<title>Node255&#45;&gt;Node256</title>
<path fill="none" stroke="#191970" d="M378.3985,-10C386.8783,-10 395.4395,-10 403.6059,-10"/>
<polygon fill="#191970" stroke="#191970" points="378.1274,-6.5001 368.1273,-10 378.1273,-13.5001 378.1274,-6.5001"/>
</g>
<!-- Node257 -->
<g id="node5" class="node">
<title>Node257</title>
<g id="a_node5"><a xlink:href="classSolver.html#af4c8f6565df94ed6a058a224196b9c2b" target="_top" xlink:title="Solver::step_to">
<polygon fill="none" stroke="#000000" points="541,-.5 541,-19.5 624,-19.5 624,-.5 541,-.5"/>
<text text-anchor="middle" x="582.5" y="-7.5" font-family="Helvetica,sans-Serif" font-size="10.00" fill="#000000">Solver::step_to</text>
</a>
</g>
</g>
<!-- Node256&#45;&gt;Node257 -->
<g id="edge4" class="edge">
<title>Node256&#45;&gt;Node257</title>
<path fill="none" stroke="#191970" d="M515.2268,-10C523.9273,-10 532.7087,-10 540.9255,-10"/>
<polygon fill="#191970" stroke="#191970" points="515.089,-6.5001 505.089,-10 515.089,-13.5001 515.089,-6.5001"/>
</g>
<!-- Node258 -->
<g id="node6" class="node">
<title>Node258</title>
<g id="a_node6"><a xlink:href="classSolver.html#a06cf82d0a99490279ab20d2ad6b876db" target="_top" xlink:title="Solver::step_to">
<polygon fill="none" stroke="#000000" points="660,-.5 660,-19.5 743,-19.5 743,-.5 660,-.5"/>
<text text-anchor="middle" x="701.5" y="-7.5" font-family="Helvetica,sans-Serif" font-size="10.00" fill="#000000">Solver::step_to</text>
</a>
</g>
</g>
<!-- Node257&#45;&gt;Node258 -->
<g id="edge5" class="edge">
<title>Node257&#45;&gt;Node258</title>
<path fill="none" stroke="#191970" d="M634.3174,-10C642.8022,-10 651.499,-10 659.7019,-10"/>
<polygon fill="#191970" stroke="#191970" points="634.1205,-6.5001 624.1204,-10 634.1204,-13.5001 634.1205,-6.5001"/>
</g>
</g>
</svg>
