<?xml version="1.0" encoding="UTF-8" standalone="no"?>
<!DOCTYPE svg PUBLIC "-//W3C//DTD SVG 1.1//EN"
 "http://www.w3.org/Graphics/SVG/1.1/DTD/svg11.dtd">
<!-- Generated by graphviz version 2.40.1 (20161225.0304)
 -->
<!-- Title: Cohort::mortalityRate Pages: 1 -->
<svg width="307pt" height="66pt"
 viewBox="0.00 0.00 307.00 66.00" xmlns="http://www.w3.org/2000/svg" xmlns:xlink="http://www.w3.org/1999/xlink">
<g id="graph0" class="graph" transform="scale(1 1) rotate(0) translate(4 62)">
<title>Cohort::mortalityRate</title>
<!-- Node14 -->
<g id="node1" class="node">
<title>Node14</title>
<polygon fill="#bfbfbf" stroke="#000000" points="0,-19.5 0,-38.5 110,-38.5 110,-19.5 0,-19.5"/>
<text text-anchor="middle" x="55" y="-26.5" font-family="Helvetica,sans-Serif" font-size="10.00" fill="#000000">Cohort::mortalityRate</text>
</g>
<!-- Node15 -->
<g id="node2" class="node">
<title>Node15</title>
<g id="a_node2"><a xlink:href="classSpecies.html#a11f2e15a662e03a0c09c032586912f8c" target="_top" xlink:title="Species::mortalityRate">
<polygon fill="none" stroke="#000000" points="164.5,-38.5 164.5,-57.5 280.5,-57.5 280.5,-38.5 164.5,-38.5"/>
<text text-anchor="middle" x="222.5" y="-45.5" font-family="Helvetica,sans-Serif" font-size="10.00" fill="#000000">Species::mortalityRate</text>
</a>
</g>
</g>
<!-- Node14&#45;&gt;Node15 -->
<g id="edge1" class="edge">
<title>Node14&#45;&gt;Node15</title>
<path fill="none" stroke="#191970" d="M120.6571,-36.4477C135.0855,-38.0843 150.2664,-39.8063 164.3739,-41.4066"/>
<polygon fill="#191970" stroke="#191970" points="120.6408,-32.9235 110.31,-35.274 119.8517,-39.8789 120.6408,-32.9235"/>
</g>
<!-- Node16 -->
<g id="node3" class="node">
<title>Node16</title>
<g id="a_node3"><a xlink:href="classSpecies.html#a070336f0725472a8bfb59da72f40197a" target="_top" xlink:title="Species::mortalityRateGradient">
<polygon fill="none" stroke="#000000" points="146,-.5 146,-19.5 299,-19.5 299,-.5 146,-.5"/>
<text text-anchor="middle" x="222.5" y="-7.5" font-family="Helvetica,sans-Serif" font-size="10.00" fill="#000000">Species::mortalityRateGradient</text>
</a>
</g>
</g>
<!-- Node14&#45;&gt;Node16 -->
<g id="edge2" class="edge">
<title>Node14&#45;&gt;Node16</title>
<path fill="none" stroke="#191970" d="M120.3178,-21.5908C128.6458,-20.6461 137.2297,-19.6725 145.7174,-18.7097"/>
<polygon fill="#191970" stroke="#191970" points="119.8517,-18.1211 110.31,-22.726 120.6408,-25.0765 119.8517,-18.1211"/>
</g>
</g>
</svg>
