<?xml version="1.0" encoding="UTF-8" standalone="no"?>
<!DOCTYPE svg PUBLIC "-//W3C//DTD SVG 1.1//EN"
 "http://www.w3.org/Graphics/SVG/1.1/DTD/svg11.dtd">
<!-- Generated by graphviz version 2.40.1 (20161225.0304)
 -->
<!-- Title: LSODA::lsoda Pages: 1 -->
<svg width="657pt" height="484pt"
 viewBox="0.00 0.00 657.00 484.00" xmlns="http://www.w3.org/2000/svg" xmlns:xlink="http://www.w3.org/1999/xlink">
<g id="graph0" class="graph" transform="scale(1 1) rotate(0) translate(4 480)">
<title>LSODA::lsoda</title>
<!-- Node101 -->
<g id="node1" class="node">
<title>Node101</title>
<polygon fill="#bfbfbf" stroke="#000000" points="0,-323.5 0,-342.5 80,-342.5 80,-323.5 0,-323.5"/>
<text text-anchor="middle" x="40" y="-330.5" font-family="Helvetica,sans-Serif" font-size="10.00" fill="#000000">LSODA::lsoda</text>
</g>
<!-- Node102 -->
<g id="node2" class="node">
<title>Node102</title>
<g id="a_node2"><a xlink:href="classLSODA.html#addd83d35565b2c2db644f27dbd94446f" target="_top" xlink:title="LSODA::terminate">
<polygon fill="none" stroke="#000000" points="127.5,-456.5 127.5,-475.5 224.5,-475.5 224.5,-456.5 127.5,-456.5"/>
<text text-anchor="middle" x="176" y="-463.5" font-family="Helvetica,sans-Serif" font-size="10.00" fill="#000000">LSODA::terminate</text>
</a>
</g>
</g>
<!-- Node101&#45;&gt;Node102 -->
<g id="edge1" class="edge">
<title>Node101&#45;&gt;Node102</title>
<path fill="none" stroke="#191970" d="M43.7251,-342.5461C52.7284,-364.3758 77.7865,-418.2662 116,-447 118.4958,-448.8766 121.182,-450.571 123.9851,-452.1006"/>
<polygon fill="#191970" stroke="#191970" points="122.7057,-455.3663 133.2455,-456.4453 125.679,-449.0292 122.7057,-455.3663"/>
</g>
<!-- Node103 -->
<g id="node3" class="node">
<title>Node103</title>
<g id="a_node3"><a xlink:href="classLSODA.html#a6f118c16d754b66d7ee9220037260978" target="_top" xlink:title="LSODA::resize_system">
<polygon fill="none" stroke="#000000" points="116,-418.5 116,-437.5 236,-437.5 236,-418.5 116,-418.5"/>
<text text-anchor="middle" x="176" y="-425.5" font-family="Helvetica,sans-Serif" font-size="10.00" fill="#000000">LSODA::resize_system</text>
</a>
</g>
</g>
<!-- Node101&#45;&gt;Node103 -->
<g id="edge2" class="edge">
<title>Node101&#45;&gt;Node103</title>
<path fill="none" stroke="#191970" d="M47.0883,-342.6381C59.3728,-358.6795 86.1802,-390.8795 116,-409 119.4214,-411.0791 123.0925,-412.9522 126.8718,-414.6358"/>
<polygon fill="#191970" stroke="#191970" points="125.8231,-417.9856 136.4082,-418.4395 128.4165,-411.4837 125.8231,-417.9856"/>
</g>
<!-- Node104 -->
<g id="node4" class="node">
<title>Node104</title>
<g id="a_node4"><a xlink:href="classLSODA.html#a0a54717e6b42492345098b16bb248e77" target="_top" xlink:title="LSODA::ewset">
<polygon fill="none" stroke="#000000" points="134.5,-380.5 134.5,-399.5 217.5,-399.5 217.5,-380.5 134.5,-380.5"/>
<text text-anchor="middle" x="176" y="-387.5" font-family="Helvetica,sans-Serif" font-size="10.00" fill="#000000">LSODA::ewset</text>
</a>
</g>
</g>
<!-- Node101&#45;&gt;Node104 -->
<g id="edge3" class="edge">
<title>Node101&#45;&gt;Node104</title>
<path fill="none" stroke="#191970" d="M57.1492,-342.5478C72.3232,-350.7586 95.22,-362.5755 116,-371 121.449,-373.2091 127.2584,-375.329 133.0359,-377.2996"/>
<polygon fill="#191970" stroke="#191970" points="132.0666,-380.6652 142.6595,-380.4644 134.2534,-374.0155 132.0666,-380.6652"/>
</g>
<!-- Node105 -->
<g id="node5" class="node">
<title>Node105</title>
<g id="a_node5"><a xlink:href="classLSODA.html#afbcbaee47892060721287dc0ba9708f9" target="_top" xlink:title="LSODA::terminate2">
<polygon fill="none" stroke="#000000" points="125,-342.5 125,-361.5 227,-361.5 227,-342.5 125,-342.5"/>
<text text-anchor="middle" x="176" y="-349.5" font-family="Helvetica,sans-Serif" font-size="10.00" fill="#000000">LSODA::terminate2</text>
</a>
</g>
</g>
<!-- Node101&#45;&gt;Node105 -->
<g id="edge4" class="edge">
<title>Node101&#45;&gt;Node105</title>
<path fill="none" stroke="#191970" d="M80.0689,-338.5979C90.8559,-340.1049 102.7778,-341.7704 114.4445,-343.4003"/>
<polygon fill="#191970" stroke="#191970" points="114.2082,-346.9012 124.5963,-344.8186 115.1768,-339.9686 114.2082,-346.9012"/>
</g>
<!-- Node106 -->
<g id="node6" class="node">
<title>Node106</title>
<g id="a_node6"><a xlink:href="classLSODA.html#ac94b738016b2a7c57cedd5ea4f13311f" target="_top" xlink:title="LSODA::vmnorm">
<polygon fill="none" stroke="#000000" points="557,-242.5 557,-261.5 649,-261.5 649,-242.5 557,-242.5"/>
<text text-anchor="middle" x="603" y="-249.5" font-family="Helvetica,sans-Serif" font-size="10.00" fill="#000000">LSODA::vmnorm</text>
</a>
</g>
</g>
<!-- Node101&#45;&gt;Node106 -->
<g id="edge5" class="edge">
<title>Node101&#45;&gt;Node106</title>
<path fill="none" stroke="#191970" d="M80.1453,-331.1885C180.1131,-326.3931 438.0881,-312.1946 521,-290 540.8317,-284.6913 561.8121,-274.8824 577.5863,-266.5603"/>
<polygon fill="#191970" stroke="#191970" points="579.5599,-269.4715 586.6784,-261.6243 576.2201,-263.3196 579.5599,-269.4715"/>
</g>
<!-- Node107 -->
<g id="node7" class="node">
<title>Node107</title>
<g id="a_node7"><a xlink:href="classLSODA.html#a1ee114165850fa09fcbd0b206de560dc" target="_top" xlink:title="LSODA::intdy">
<polygon fill="none" stroke="#000000" points="137.5,-266.5 137.5,-285.5 214.5,-285.5 214.5,-266.5 137.5,-266.5"/>
<text text-anchor="middle" x="176" y="-273.5" font-family="Helvetica,sans-Serif" font-size="10.00" fill="#000000">LSODA::intdy</text>
</a>
</g>
</g>
<!-- Node101&#45;&gt;Node107 -->
<g id="edge6" class="edge">
<title>Node101&#45;&gt;Node107</title>
<path fill="none" stroke="#191970" d="M61.5495,-323.444C76.7256,-316.7631 97.5456,-307.6955 116,-300 124.5015,-296.4549 133.7212,-292.7151 142.3241,-289.2703"/>
<polygon fill="#191970" stroke="#191970" points="143.71,-292.4857 151.7038,-285.5323 141.1185,-285.9831 143.71,-292.4857"/>
</g>
<!-- Node108 -->
<g id="node8" class="node">
<title>Node108</title>
<g id="a_node8"><a xlink:href="classLSODA.html#abf4eccf92cba7f87f9d5051ee6b28a42" target="_top" xlink:title="LSODA::successreturn">
<polygon fill="none" stroke="#000000" points="117,-228.5 117,-247.5 235,-247.5 235,-228.5 117,-228.5"/>
<text text-anchor="middle" x="176" y="-235.5" font-family="Helvetica,sans-Serif" font-size="10.00" fill="#000000">LSODA::successreturn</text>
</a>
</g>
</g>
<!-- Node101&#45;&gt;Node108 -->
<g id="edge7" class="edge">
<title>Node101&#45;&gt;Node108</title>
<path fill="none" stroke="#191970" d="M47.0883,-323.3619C59.3728,-307.3205 86.1802,-275.1205 116,-257 119.4214,-254.9209 123.0925,-253.0478 126.8718,-251.3642"/>
<polygon fill="#191970" stroke="#191970" points="128.4165,-254.5163 136.4082,-247.5605 125.8231,-248.0144 128.4165,-254.5163"/>
</g>
<!-- Node109 -->
<g id="node9" class="node">
<title>Node109</title>
<g id="a_node9"><a xlink:href="classLSODA.html#a7c6d8d75b383474b5b05c710d2921618" target="_top" xlink:title="LSODA::stoda">
<polygon fill="none" stroke="#000000" points="136,-152.5 136,-171.5 216,-171.5 216,-152.5 136,-152.5"/>
<text text-anchor="middle" x="176" y="-159.5" font-family="Helvetica,sans-Serif" font-size="10.00" fill="#000000">LSODA::stoda</text>
</a>
</g>
</g>
<!-- Node101&#45;&gt;Node109 -->
<g id="edge8" class="edge">
<title>Node101&#45;&gt;Node109</title>
<path fill="none" stroke="#191970" d="M45.4421,-323.3388C57.0877,-303.0351 85.8295,-254.8548 116,-219 128.3266,-204.3511 144.0767,-189.509 156.3468,-178.6436"/>
<polygon fill="#191970" stroke="#191970" points="158.9553,-181.0133 164.2006,-171.808 154.3597,-175.7331 158.9553,-181.0133"/>
</g>
<!-- Node109&#45;&gt;Node106 -->
<g id="edge12" class="edge">
<title>Node109&#45;&gt;Node106</title>
<path fill="none" stroke="#191970" d="M186.3489,-171.5208C198.434,-182.7097 218.9437,-201.9201 236,-219 252.4391,-235.4618 250.6287,-247.8075 272,-257 366.9662,-297.848 491.8952,-278.8242 557.7949,-263.8988"/>
<polygon fill="#191970" stroke="#191970" points="558.91,-267.2325 567.8509,-261.5483 557.3168,-260.4163 558.91,-267.2325"/>
</g>
<!-- Node110 -->
<g id="node10" class="node">
<title>Node110</title>
<g id="a_node10"><a xlink:href="classLSODA.html#a0f3b8f1c3f9e12fb89ddebfc02930b56" target="_top" xlink:title="LSODA::cfode">
<polygon fill="none" stroke="#000000" points="290.5,-228.5 290.5,-247.5 370.5,-247.5 370.5,-228.5 290.5,-228.5"/>
<text text-anchor="middle" x="330.5" y="-235.5" font-family="Helvetica,sans-Serif" font-size="10.00" fill="#000000">LSODA::cfode</text>
</a>
</g>
</g>
<!-- Node109&#45;&gt;Node110 -->
<g id="edge9" class="edge">
<title>Node109&#45;&gt;Node110</title>
<path fill="none" stroke="#191970" d="M189.781,-171.5185C207.9657,-183.7602 241.2727,-205.0961 272,-219 276.7428,-221.1461 281.8007,-223.1638 286.8817,-225.0243"/>
<polygon fill="#191970" stroke="#191970" points="286.0095,-228.4264 296.6043,-228.4005 288.3058,-221.8137 286.0095,-228.4264"/>
</g>
<!-- Node111 -->
<g id="node11" class="node">
<title>Node111</title>
<g id="a_node11"><a xlink:href="classLSODA.html#a391bc37600b2df97c24cafc6352dc4ce" target="_top" xlink:title="LSODA::resetcoeff">
<polygon fill="none" stroke="#000000" points="280.5,-190.5 280.5,-209.5 380.5,-209.5 380.5,-190.5 280.5,-190.5"/>
<text text-anchor="middle" x="330.5" y="-197.5" font-family="Helvetica,sans-Serif" font-size="10.00" fill="#000000">LSODA::resetcoeff</text>
</a>
</g>
</g>
<!-- Node109&#45;&gt;Node111 -->
<g id="edge10" class="edge">
<title>Node109&#45;&gt;Node111</title>
<path fill="none" stroke="#191970" d="M214.9869,-171.589C235.283,-176.5809 260.2935,-182.7324 281.8462,-188.0334"/>
<polygon fill="#191970" stroke="#191970" points="281.2469,-191.4902 291.7935,-190.4799 282.9188,-184.6928 281.2469,-191.4902"/>
</g>
<!-- Node112 -->
<g id="node12" class="node">
<title>Node112</title>
<g id="a_node12"><a xlink:href="classLSODA.html#acd395b8e8db2b012842c1ffd57244fd3" target="_top" xlink:title="LSODA::scaleh">
<polygon fill="none" stroke="#000000" points="288,-152.5 288,-171.5 373,-171.5 373,-152.5 288,-152.5"/>
<text text-anchor="middle" x="330.5" y="-159.5" font-family="Helvetica,sans-Serif" font-size="10.00" fill="#000000">LSODA::scaleh</text>
</a>
</g>
</g>
<!-- Node109&#45;&gt;Node112 -->
<g id="edge11" class="edge">
<title>Node109&#45;&gt;Node112</title>
<path fill="none" stroke="#191970" d="M216.1897,-162C234.9196,-162 257.4588,-162 277.5546,-162"/>
<polygon fill="#191970" stroke="#191970" points="277.8076,-165.5001 287.8076,-162 277.8076,-158.5001 277.8076,-165.5001"/>
</g>
<!-- Node113 -->
<g id="node13" class="node">
<title>Node113</title>
<g id="a_node13"><a xlink:href="classLSODA.html#ae5ebdebff330f29ef0c15bece1bf8299" target="_top" xlink:title="LSODA::correction">
<polygon fill="none" stroke="#000000" points="281,-114.5 281,-133.5 380,-133.5 380,-114.5 281,-114.5"/>
<text text-anchor="middle" x="330.5" y="-121.5" font-family="Helvetica,sans-Serif" font-size="10.00" fill="#000000">LSODA::correction</text>
</a>
</g>
</g>
<!-- Node109&#45;&gt;Node113 -->
<g id="edge13" class="edge">
<title>Node109&#45;&gt;Node113</title>
<path fill="none" stroke="#191970" d="M214.9869,-152.411C235.283,-147.4191 260.2935,-141.2676 281.8462,-135.9666"/>
<polygon fill="#191970" stroke="#191970" points="282.9188,-139.3072 291.7935,-133.5201 281.2469,-132.5098 282.9188,-139.3072"/>
</g>
<!-- Node119 -->
<g id="node19" class="node">
<title>Node119</title>
<g id="a_node19"><a xlink:href="classLSODA.html#aa81043ac776e6d6b81ae2382b03dea2a" target="_top" xlink:title="LSODA::methodswitch">
<polygon fill="none" stroke="#000000" points="272,-76.5 272,-95.5 389,-95.5 389,-76.5 272,-76.5"/>
<text text-anchor="middle" x="330.5" y="-83.5" font-family="Helvetica,sans-Serif" font-size="10.00" fill="#000000">LSODA::methodswitch</text>
</a>
</g>
</g>
<!-- Node109&#45;&gt;Node119 -->
<g id="edge21" class="edge">
<title>Node109&#45;&gt;Node119</title>
<path fill="none" stroke="#191970" d="M189.781,-152.4815C207.9657,-140.2398 241.2727,-118.9039 272,-105 276.7428,-102.8539 281.8007,-100.8362 286.8817,-98.9757"/>
<polygon fill="#191970" stroke="#191970" points="288.3058,-102.1863 296.6043,-95.5995 286.0095,-95.5736 288.3058,-102.1863"/>
</g>
<!-- Node120 -->
<g id="node20" class="node">
<title>Node120</title>
<g id="a_node20"><a xlink:href="classLSODA.html#a1d1e589364f1c4100eba1837021fc4d9" target="_top" xlink:title="LSODA::endstoda">
<polygon fill="none" stroke="#000000" points="282.5,-38.5 282.5,-57.5 378.5,-57.5 378.5,-38.5 282.5,-38.5"/>
<text text-anchor="middle" x="330.5" y="-45.5" font-family="Helvetica,sans-Serif" font-size="10.00" fill="#000000">LSODA::endstoda</text>
</a>
</g>
</g>
<!-- Node109&#45;&gt;Node120 -->
<g id="edge22" class="edge">
<title>Node109&#45;&gt;Node120</title>
<path fill="none" stroke="#191970" d="M183.103,-152.4403C197.6899,-133.4559 232.9507,-90.7858 272,-67 275.3914,-64.9342 279.032,-63.0676 282.7778,-61.386"/>
<polygon fill="#191970" stroke="#191970" points="284.2569,-64.5635 292.2234,-57.5788 281.64,-58.0711 284.2569,-64.5635"/>
</g>
<!-- Node121 -->
<g id="node21" class="node">
<title>Node121</title>
<g id="a_node21"><a xlink:href="classLSODA.html#a0fae42ed968227524b320ab5d3470665" target="_top" xlink:title="LSODA::orderswitch">
<polygon fill="none" stroke="#000000" points="277,-.5 277,-19.5 384,-19.5 384,-.5 277,-.5"/>
<text text-anchor="middle" x="330.5" y="-7.5" font-family="Helvetica,sans-Serif" font-size="10.00" fill="#000000">LSODA::orderswitch</text>
</a>
</g>
</g>
<!-- Node109&#45;&gt;Node121 -->
<g id="edge23" class="edge">
<title>Node109&#45;&gt;Node121</title>
<path fill="none" stroke="#191970" d="M180.295,-152.3615C191.6427,-127.9863 224.8227,-63.3841 272,-29 274.6321,-27.0817 277.4673,-25.3508 280.42,-23.7898"/>
<polygon fill="#191970" stroke="#191970" points="281.9177,-26.9535 289.5446,-19.5995 278.9964,-20.5922 281.9177,-26.9535"/>
</g>
<!-- Node113&#45;&gt;Node106 -->
<g id="edge19" class="edge">
<title>Node113&#45;&gt;Node106</title>
<path fill="none" stroke="#191970" d="M372.7051,-133.5324C378.5438,-136.0051 384.1817,-139.1085 389,-143 413.7888,-163.0205 399.6615,-185.6798 425,-205 459.9645,-231.6598 508.7515,-243.2392 546.409,-248.2474"/>
<polygon fill="#191970" stroke="#191970" points="546.3667,-251.7677 556.7144,-249.4927 547.2066,-244.8182 546.3667,-251.7677"/>
</g>
<!-- Node114 -->
<g id="node14" class="node">
<title>Node114</title>
<g id="a_node14"><a xlink:href="classLSODA.html#a87757b30f48356ff9c77bf587ebb16d8" target="_top" xlink:title="LSODA::prja">
<polygon fill="none" stroke="#000000" points="437,-176.5 437,-195.5 509,-195.5 509,-176.5 437,-176.5"/>
<text text-anchor="middle" x="473" y="-183.5" font-family="Helvetica,sans-Serif" font-size="10.00" fill="#000000">LSODA::prja</text>
</a>
</g>
</g>
<!-- Node113&#45;&gt;Node114 -->
<g id="edge14" class="edge">
<title>Node113&#45;&gt;Node114</title>
<path fill="none" stroke="#191970" d="M363.3542,-133.5766C371.8163,-136.3398 380.8359,-139.5499 389,-143 405.6647,-150.0424 408.9082,-153.7319 425,-162 431.236,-165.2041 437.9533,-168.5983 444.3301,-171.7939"/>
<polygon fill="#191970" stroke="#191970" points="442.8232,-174.9534 453.3336,-176.2885 445.9498,-168.6905 442.8232,-174.9534"/>
</g>
<!-- Node117 -->
<g id="node17" class="node">
<title>Node117</title>
<g id="a_node17"><a xlink:href="classLSODA.html#ac7effc5da52973a91cb3409012f172e7" target="_top" xlink:title="LSODA::corfailure">
<polygon fill="none" stroke="#000000" points="425,-133.5 425,-152.5 521,-152.5 521,-133.5 425,-133.5"/>
<text text-anchor="middle" x="473" y="-140.5" font-family="Helvetica,sans-Serif" font-size="10.00" fill="#000000">LSODA::corfailure</text>
</a>
</g>
</g>
<!-- Node113&#45;&gt;Node117 -->
<g id="edge18" class="edge">
<title>Node113&#45;&gt;Node117</title>
<path fill="none" stroke="#191970" d="M380.3396,-130.6453C391.5132,-132.1351 403.4613,-133.7282 414.9365,-135.2582"/>
<polygon fill="#191970" stroke="#191970" points="414.4929,-138.7299 424.8678,-136.5824 415.4181,-131.7913 414.4929,-138.7299"/>
</g>
<!-- Node118 -->
<g id="node18" class="node">
<title>Node118</title>
<g id="a_node18"><a xlink:href="classLSODA.html#a5476113f8738e733652f1f6b02eaba3b" target="_top" xlink:title="LSODA::solsy">
<polygon fill="none" stroke="#000000" points="433,-95.5 433,-114.5 513,-114.5 513,-95.5 433,-95.5"/>
<text text-anchor="middle" x="473" y="-102.5" font-family="Helvetica,sans-Serif" font-size="10.00" fill="#000000">LSODA::solsy</text>
</a>
</g>
</g>
<!-- Node113&#45;&gt;Node118 -->
<g id="edge20" class="edge">
<title>Node113&#45;&gt;Node118</title>
<path fill="none" stroke="#191970" d="M380.3396,-117.3547C394.0263,-115.5298 408.8751,-113.55 422.5935,-111.7209"/>
<polygon fill="#191970" stroke="#191970" points="423.376,-115.1476 432.8257,-110.3566 422.4508,-108.209 423.376,-115.1476"/>
</g>
<!-- Node114&#45;&gt;Node106 -->
<g id="edge15" class="edge">
<title>Node114&#45;&gt;Node106</title>
<path fill="none" stroke="#191970" d="M488.8037,-195.5851C505.4684,-205.515 532.6341,-221.2025 557,-233 560.8496,-234.8639 564.9303,-236.7173 569.0088,-238.4947"/>
<polygon fill="#191970" stroke="#191970" points="567.8382,-241.7998 578.4117,-242.473 570.5658,-235.353 567.8382,-241.7998"/>
</g>
<!-- Node115 -->
<g id="node15" class="node">
<title>Node115</title>
<g id="a_node15"><a xlink:href="classLSODA.html#ab6221280caead6f45c316c261e8de713" target="_top" xlink:title="LSODA::fnorm">
<polygon fill="none" stroke="#000000" points="562.5,-204.5 562.5,-223.5 643.5,-223.5 643.5,-204.5 562.5,-204.5"/>
<text text-anchor="middle" x="603" y="-211.5" font-family="Helvetica,sans-Serif" font-size="10.00" fill="#000000">LSODA::fnorm</text>
</a>
</g>
</g>
<!-- Node114&#45;&gt;Node115 -->
<g id="edge16" class="edge">
<title>Node114&#45;&gt;Node115</title>
<path fill="none" stroke="#191970" d="M509.2122,-193.7996C522.6415,-196.692 538.1253,-200.027 552.5922,-203.1429"/>
<polygon fill="#191970" stroke="#191970" points="551.8947,-206.5729 562.4075,-205.257 553.3686,-199.7298 551.8947,-206.5729"/>
</g>
<!-- Node116 -->
<g id="node16" class="node">
<title>Node116</title>
<g id="a_node16"><a xlink:href="classLSODA.html#a9aade25a1818e2af775a17a1ed2ba4f9" target="_top" xlink:title="LSODA::dgefa">
<polygon fill="none" stroke="#000000" points="563,-166.5 563,-185.5 643,-185.5 643,-166.5 563,-166.5"/>
<text text-anchor="middle" x="603" y="-173.5" font-family="Helvetica,sans-Serif" font-size="10.00" fill="#000000">LSODA::dgefa</text>
</a>
</g>
</g>
<!-- Node114&#45;&gt;Node116 -->
<g id="edge17" class="edge">
<title>Node114&#45;&gt;Node116</title>
<path fill="none" stroke="#191970" d="M509.2122,-183.2144C522.6333,-182.1821 538.1063,-180.9918 552.5656,-179.8796"/>
<polygon fill="#191970" stroke="#191970" points="553.1691,-183.3436 562.8712,-179.0868 552.6322,-176.3642 553.1691,-183.3436"/>
</g>
</g>
</svg>
