<?xml version="1.0" encoding="UTF-8" standalone="no"?>
<!DOCTYPE svg PUBLIC "-//W3C//DTD SVG 1.1//EN"
 "http://www.w3.org/Graphics/SVG/1.1/DTD/svg11.dtd">
<!-- Generated by graphviz version 2.40.1 (20161225.0304)
 -->
<!-- Title: LSODA::set_istate Pages: 1 -->
<svg width="482pt" height="28pt"
 viewBox="0.00 0.00 482.00 28.00" xmlns="http://www.w3.org/2000/svg" xmlns:xlink="http://www.w3.org/1999/xlink">
<g id="graph0" class="graph" transform="scale(1 1) rotate(0) translate(4 24)">
<title>LSODA::set_istate</title>
<!-- Node205 -->
<g id="node1" class="node">
<title>Node205</title>
<polygon fill="#bfbfbf" stroke="#000000" points="0,-.5 0,-19.5 99,-19.5 99,-.5 0,-.5"/>
<text text-anchor="middle" x="49.5" y="-7.5" font-family="Helvetica,sans-Serif" font-size="10.00" fill="#000000">LSODA::set_istate</text>
</g>
<!-- Node206 -->
<g id="node2" class="node">
<title>Node206</title>
<g id="a_node2"><a xlink:href="classOdeSolver.html#a77d9f02ed28d5515366e6be08560f35a" target="_top" xlink:title="OdeSolver::step_to">
<polygon fill="none" stroke="#000000" points="135,-.5 135,-19.5 236,-19.5 236,-.5 135,-.5"/>
<text text-anchor="middle" x="185.5" y="-7.5" font-family="Helvetica,sans-Serif" font-size="10.00" fill="#000000">OdeSolver::step_to</text>
</a>
</g>
</g>
<!-- Node205&#45;&gt;Node206 -->
<g id="edge1" class="edge">
<title>Node205&#45;&gt;Node206</title>
<path fill="none" stroke="#191970" d="M109.5143,-10C117.9277,-10 126.5064,-10 134.7257,-10"/>
<polygon fill="#191970" stroke="#191970" points="109.3692,-6.5001 99.3691,-10 109.3691,-13.5001 109.3692,-6.5001"/>
</g>
<!-- Node207 -->
<g id="node3" class="node">
<title>Node207</title>
<g id="a_node3"><a xlink:href="classSolver.html#af4c8f6565df94ed6a058a224196b9c2b" target="_top" xlink:title="Solver::step_to">
<polygon fill="none" stroke="#000000" points="272,-.5 272,-19.5 355,-19.5 355,-.5 272,-.5"/>
<text text-anchor="middle" x="313.5" y="-7.5" font-family="Helvetica,sans-Serif" font-size="10.00" fill="#000000">Solver::step_to</text>
</a>
</g>
</g>
<!-- Node206&#45;&gt;Node207 -->
<g id="edge2" class="edge">
<title>Node206&#45;&gt;Node207</title>
<path fill="none" stroke="#191970" d="M246.2268,-10C254.9273,-10 263.7087,-10 271.9255,-10"/>
<polygon fill="#191970" stroke="#191970" points="246.089,-6.5001 236.089,-10 246.089,-13.5001 246.089,-6.5001"/>
</g>
<!-- Node208 -->
<g id="node4" class="node">
<title>Node208</title>
<g id="a_node4"><a xlink:href="classSolver.html#a06cf82d0a99490279ab20d2ad6b876db" target="_top" xlink:title="Solver::step_to">
<polygon fill="none" stroke="#000000" points="391,-.5 391,-19.5 474,-19.5 474,-.5 391,-.5"/>
<text text-anchor="middle" x="432.5" y="-7.5" font-family="Helvetica,sans-Serif" font-size="10.00" fill="#000000">Solver::step_to</text>
</a>
</g>
</g>
<!-- Node207&#45;&gt;Node208 -->
<g id="edge3" class="edge">
<title>Node207&#45;&gt;Node208</title>
<path fill="none" stroke="#191970" d="M365.3174,-10C373.8022,-10 382.499,-10 390.7019,-10"/>
<polygon fill="#191970" stroke="#191970" points="365.1205,-6.5001 355.1204,-10 365.1204,-13.5001 365.1205,-6.5001"/>
</g>
</g>
</svg>
