<?xml version="1.0" encoding="UTF-8" standalone="no"?>
<!DOCTYPE svg PUBLIC "-//W3C//DTD SVG 1.1//EN"
 "http://www.w3.org/Graphics/SVG/1.1/DTD/svg11.dtd">
<!-- Generated by graphviz version 2.40.1 (20161225.0304)
 -->
<!-- Title: LSODA::fnorm Pages: 1 -->
<svg width="1089pt" height="28pt"
 viewBox="0.00 0.00 1089.00 28.00" xmlns="http://www.w3.org/2000/svg" xmlns:xlink="http://www.w3.org/1999/xlink">
<g id="graph0" class="graph" transform="scale(1 1) rotate(0) translate(4 24)">
<title>LSODA::fnorm</title>
<!-- Node73 -->
<g id="node1" class="node">
<title>Node73</title>
<polygon fill="#bfbfbf" stroke="#000000" points="0,-.5 0,-19.5 81,-19.5 81,-.5 0,-.5"/>
<text text-anchor="middle" x="40.5" y="-7.5" font-family="Helvetica,sans-Serif" font-size="10.00" fill="#000000">LSODA::fnorm</text>
</g>
<!-- Node74 -->
<g id="node2" class="node">
<title>Node74</title>
<g id="a_node2"><a xlink:href="classLSODA.html#a87757b30f48356ff9c77bf587ebb16d8" target="_top" xlink:title="LSODA::prja">
<polygon fill="none" stroke="#000000" points="117,-.5 117,-19.5 189,-19.5 189,-.5 117,-.5"/>
<text text-anchor="middle" x="153" y="-7.5" font-family="Helvetica,sans-Serif" font-size="10.00" fill="#000000">LSODA::prja</text>
</a>
</g>
</g>
<!-- Node73&#45;&gt;Node74 -->
<g id="edge1" class="edge">
<title>Node73&#45;&gt;Node74</title>
<path fill="none" stroke="#191970" d="M91.1751,-10C99.8575,-10 108.7189,-10 116.9207,-10"/>
<polygon fill="#191970" stroke="#191970" points="91.1151,-6.5001 81.1151,-10 91.115,-13.5001 91.1151,-6.5001"/>
</g>
<!-- Node75 -->
<g id="node3" class="node">
<title>Node75</title>
<g id="a_node3"><a xlink:href="classLSODA.html#ae5ebdebff330f29ef0c15bece1bf8299" target="_top" xlink:title="LSODA::correction">
<polygon fill="none" stroke="#000000" points="225,-.5 225,-19.5 324,-19.5 324,-.5 225,-.5"/>
<text text-anchor="middle" x="274.5" y="-7.5" font-family="Helvetica,sans-Serif" font-size="10.00" fill="#000000">LSODA::correction</text>
</a>
</g>
</g>
<!-- Node74&#45;&gt;Node75 -->
<g id="edge2" class="edge">
<title>Node74&#45;&gt;Node75</title>
<path fill="none" stroke="#191970" d="M199.3974,-10C207.7076,-10 216.3978,-10 224.7965,-10"/>
<polygon fill="#191970" stroke="#191970" points="199.1251,-6.5001 189.125,-10 199.125,-13.5001 199.1251,-6.5001"/>
</g>
<!-- Node76 -->
<g id="node4" class="node">
<title>Node76</title>
<g id="a_node4"><a xlink:href="classLSODA.html#a7c6d8d75b383474b5b05c710d2921618" target="_top" xlink:title="LSODA::stoda">
<polygon fill="none" stroke="#000000" points="360,-.5 360,-19.5 440,-19.5 440,-.5 360,-.5"/>
<text text-anchor="middle" x="400" y="-7.5" font-family="Helvetica,sans-Serif" font-size="10.00" fill="#000000">LSODA::stoda</text>
</a>
</g>
</g>
<!-- Node75&#45;&gt;Node76 -->
<g id="edge3" class="edge">
<title>Node75&#45;&gt;Node76</title>
<path fill="none" stroke="#191970" d="M334.1585,-10C342.7902,-10 351.5,-10 359.6326,-10"/>
<polygon fill="#191970" stroke="#191970" points="334.101,-6.5001 324.1009,-10 334.1009,-13.5001 334.101,-6.5001"/>
</g>
<!-- Node77 -->
<g id="node5" class="node">
<title>Node77</title>
<g id="a_node5"><a xlink:href="classLSODA.html#a705dcfe5b21827adb8871e48f2c72fb2" target="_top" xlink:title="LSODA::lsoda">
<polygon fill="none" stroke="#000000" points="476,-.5 476,-19.5 556,-19.5 556,-.5 476,-.5"/>
<text text-anchor="middle" x="516" y="-7.5" font-family="Helvetica,sans-Serif" font-size="10.00" fill="#000000">LSODA::lsoda</text>
</a>
</g>
</g>
<!-- Node76&#45;&gt;Node77 -->
<g id="edge4" class="edge">
<title>Node76&#45;&gt;Node77</title>
<path fill="none" stroke="#191970" d="M450.442,-10C458.9315,-10 467.6408,-10 475.8255,-10"/>
<polygon fill="#191970" stroke="#191970" points="450.2457,-6.5001 440.2456,-10 450.2456,-13.5001 450.2457,-6.5001"/>
</g>
<!-- Node78 -->
<g id="node6" class="node">
<title>Node78</title>
<g id="a_node6"><a xlink:href="classLSODA.html#a391e4d7bea026ad7c300cfb55cb290d1" target="_top" xlink:title="LSODA::lsoda_update">
<polygon fill="none" stroke="#000000" points="592,-.5 592,-19.5 706,-19.5 706,-.5 592,-.5"/>
<text text-anchor="middle" x="649" y="-7.5" font-family="Helvetica,sans-Serif" font-size="10.00" fill="#000000">LSODA::lsoda_update</text>
</a>
</g>
</g>
<!-- Node77&#45;&gt;Node78 -->
<g id="edge5" class="edge">
<title>Node77&#45;&gt;Node78</title>
<path fill="none" stroke="#191970" d="M566.4762,-10C574.7175,-10 583.3078,-10 591.6989,-10"/>
<polygon fill="#191970" stroke="#191970" points="566.2653,-6.5001 556.2653,-10 566.2653,-13.5001 566.2653,-6.5001"/>
</g>
<!-- Node79 -->
<g id="node7" class="node">
<title>Node79</title>
<g id="a_node7"><a xlink:href="classOdeSolver.html#a77d9f02ed28d5515366e6be08560f35a" target="_top" xlink:title="OdeSolver::step_to">
<polygon fill="none" stroke="#000000" points="742,-.5 742,-19.5 843,-19.5 843,-.5 742,-.5"/>
<text text-anchor="middle" x="792.5" y="-7.5" font-family="Helvetica,sans-Serif" font-size="10.00" fill="#000000">OdeSolver::step_to</text>
</a>
</g>
</g>
<!-- Node78&#45;&gt;Node79 -->
<g id="edge6" class="edge">
<title>Node78&#45;&gt;Node79</title>
<path fill="none" stroke="#191970" d="M716.3985,-10C724.8783,-10 733.4395,-10 741.6059,-10"/>
<polygon fill="#191970" stroke="#191970" points="716.1274,-6.5001 706.1273,-10 716.1273,-13.5001 716.1274,-6.5001"/>
</g>
<!-- Node80 -->
<g id="node8" class="node">
<title>Node80</title>
<g id="a_node8"><a xlink:href="classSolver.html#af4c8f6565df94ed6a058a224196b9c2b" target="_top" xlink:title="Solver::step_to">
<polygon fill="none" stroke="#000000" points="879,-.5 879,-19.5 962,-19.5 962,-.5 879,-.5"/>
<text text-anchor="middle" x="920.5" y="-7.5" font-family="Helvetica,sans-Serif" font-size="10.00" fill="#000000">Solver::step_to</text>
</a>
</g>
</g>
<!-- Node79&#45;&gt;Node80 -->
<g id="edge7" class="edge">
<title>Node79&#45;&gt;Node80</title>
<path fill="none" stroke="#191970" d="M853.2268,-10C861.9273,-10 870.7087,-10 878.9255,-10"/>
<polygon fill="#191970" stroke="#191970" points="853.089,-6.5001 843.089,-10 853.089,-13.5001 853.089,-6.5001"/>
</g>
<!-- Node81 -->
<g id="node9" class="node">
<title>Node81</title>
<g id="a_node9"><a xlink:href="classSolver.html#a06cf82d0a99490279ab20d2ad6b876db" target="_top" xlink:title="Solver::step_to">
<polygon fill="none" stroke="#000000" points="998,-.5 998,-19.5 1081,-19.5 1081,-.5 998,-.5"/>
<text text-anchor="middle" x="1039.5" y="-7.5" font-family="Helvetica,sans-Serif" font-size="10.00" fill="#000000">Solver::step_to</text>
</a>
</g>
</g>
<!-- Node80&#45;&gt;Node81 -->
<g id="edge8" class="edge">
<title>Node80&#45;&gt;Node81</title>
<path fill="none" stroke="#191970" d="M972.3174,-10C980.8022,-10 989.499,-10 997.7019,-10"/>
<polygon fill="#191970" stroke="#191970" points="972.1205,-6.5001 962.1204,-10 972.1204,-13.5001 972.1205,-6.5001"/>
</g>
</g>
</svg>
