<?xml version="1.0" encoding="UTF-8" standalone="no"?>
<!DOCTYPE svg PUBLIC "-//W3C//DTD SVG 1.1//EN"
 "http://www.w3.org/Graphics/SVG/1.1/DTD/svg11.dtd">
<!-- Generated by graphviz version 2.40.1 (20161225.0304)
 -->
<!-- Title: Species_Base::getX Pages: 1 -->
<svg width="732pt" height="230pt"
 viewBox="0.00 0.00 732.00 230.00" xmlns="http://www.w3.org/2000/svg" xmlns:xlink="http://www.w3.org/1999/xlink">
<g id="graph0" class="graph" transform="scale(1 1) rotate(0) translate(4 226)">
<title>Species_Base::getX</title>
<!-- Node65 -->
<g id="node1" class="node">
<title>Node65</title>
<polygon fill="#bfbfbf" stroke="#000000" points="0,-104.5 0,-123.5 106,-123.5 106,-104.5 0,-104.5"/>
<text text-anchor="middle" x="53" y="-111.5" font-family="Helvetica,sans-Serif" font-size="10.00" fill="#000000">Species_Base::getX</text>
</g>
<!-- Node66 -->
<g id="node2" class="node">
<title>Node66</title>
<g id="a_node2"><a xlink:href="classSolver.html#ab712f582d6f785adb8620cb40bbb3de4" target="_top" xlink:title="Solver::calcRates_CM">
<polygon fill="none" stroke="#000000" points="154,-202.5 154,-221.5 270,-221.5 270,-202.5 154,-202.5"/>
<text text-anchor="middle" x="212" y="-209.5" font-family="Helvetica,sans-Serif" font-size="10.00" fill="#000000">Solver::calcRates_CM</text>
</a>
</g>
</g>
<!-- Node65&#45;&gt;Node66 -->
<g id="edge1" class="edge">
<title>Node65&#45;&gt;Node66</title>
<path fill="none" stroke="#191970" d="M67.7028,-131.0668C84.0846,-149.0336 112.2103,-176.8997 142,-193 149.0899,-196.8319 157.0099,-199.9353 164.9018,-202.435"/>
<polygon fill="#191970" stroke="#191970" points="70.3039,-128.7248 61.0386,-123.5861 65.0771,-133.3811 70.3039,-128.7248"/>
</g>
<!-- Node69 -->
<g id="node5" class="node">
<title>Node69</title>
<g id="a_node5"><a xlink:href="classSolver.html#a23be16428b7ba399bfd2f06555547f6b" target="_top" xlink:title="Solver::calcRates_EBT">
<polygon fill="none" stroke="#000000" points="152.5,-164.5 152.5,-183.5 271.5,-183.5 271.5,-164.5 152.5,-164.5"/>
<text text-anchor="middle" x="212" y="-171.5" font-family="Helvetica,sans-Serif" font-size="10.00" fill="#000000">Solver::calcRates_EBT</text>
</a>
</g>
</g>
<!-- Node65&#45;&gt;Node69 -->
<g id="edge4" class="edge">
<title>Node65&#45;&gt;Node69</title>
<path fill="none" stroke="#191970" d="M80.3739,-128.053C97.7268,-136.5975 120.818,-147.3071 142,-155 151.7056,-158.5249 162.3755,-161.741 172.3963,-164.4846"/>
<polygon fill="#191970" stroke="#191970" points="81.8831,-124.8946 71.3724,-123.5618 78.7579,-131.1582 81.8831,-124.8946"/>
</g>
<!-- Node70 -->
<g id="node6" class="node">
<title>Node70</title>
<g id="a_node6"><a xlink:href="classSolver.html#a8f96f44ff535452912b2a3a2fc43e60e" target="_top" xlink:title="Solver::stepU_iFMU">
<polygon fill="none" stroke="#000000" points="159,-126.5 159,-145.5 265,-145.5 265,-126.5 159,-126.5"/>
<text text-anchor="middle" x="212" y="-133.5" font-family="Helvetica,sans-Serif" font-size="10.00" fill="#000000">Solver::stepU_iFMU</text>
</a>
</g>
</g>
<!-- Node65&#45;&gt;Node70 -->
<g id="edge6" class="edge">
<title>Node65&#45;&gt;Node70</title>
<path fill="none" stroke="#191970" d="M116.4477,-122.7789C130.4694,-124.719 145.1863,-126.7553 158.7539,-128.6326"/>
<polygon fill="#191970" stroke="#191970" points="116.7724,-119.2906 106.387,-121.3869 115.8129,-126.2245 116.7724,-119.2906"/>
</g>
<!-- Node71 -->
<g id="node7" class="node">
<title>Node71</title>
<g id="a_node7"><a xlink:href="classSolver.html#a9172d0d2dc6399ada494ef23020943d5" target="_top" xlink:title="Computes the partial integral &#160;for the specified species. ">
<polygon fill="none" stroke="#000000" points="154,-77 154,-107 270,-107 270,-77 154,-77"/>
<text text-anchor="start" x="162" y="-95" font-family="Helvetica,sans-Serif" font-size="10.00" fill="#000000">Solver::integrate_wudx</text>
<text text-anchor="middle" x="212" y="-84" font-family="Helvetica,sans-Serif" font-size="10.00" fill="#000000">_above</text>
</a>
</g>
</g>
<!-- Node65&#45;&gt;Node71 -->
<g id="edge8" class="edge">
<title>Node65&#45;&gt;Node71</title>
<path fill="none" stroke="#191970" d="M116.5722,-105.2038C128.8788,-103.5011 141.7162,-101.7248 153.8388,-100.0475"/>
<polygon fill="#191970" stroke="#191970" points="115.8129,-101.7755 106.387,-106.6131 116.7724,-108.7094 115.8129,-101.7755"/>
</g>
<!-- Node72 -->
<g id="node8" class="node">
<title>Node72</title>
<g id="a_node8"><a xlink:href="classSolver.html#a2a6ca7647a4cde1195789132f3873c0b" target="_top" xlink:title="Computes the integral &#160;for the specified species. For details, see integrate_wudx_above. ">
<polygon fill="none" stroke="#000000" points="163,-38.5 163,-57.5 261,-57.5 261,-38.5 163,-38.5"/>
<text text-anchor="middle" x="212" y="-45.5" font-family="Helvetica,sans-Serif" font-size="10.00" fill="#000000">Solver::integrate_x</text>
</a>
</g>
</g>
<!-- Node65&#45;&gt;Node72 -->
<g id="edge9" class="edge">
<title>Node65&#45;&gt;Node72</title>
<path fill="none" stroke="#191970" d="M77.5356,-99.1506C95.0305,-89.0385 119.368,-75.9204 142,-67 151.1379,-63.3983 161.2059,-60.2275 170.7887,-57.5594"/>
<polygon fill="#191970" stroke="#191970" points="75.425,-96.3311 68.5746,-104.4134 78.9699,-102.3672 75.425,-96.3311"/>
</g>
<!-- Node76 -->
<g id="node12" class="node">
<title>Node76</title>
<g id="a_node12"><a xlink:href="classSolver.html#ac108d0e9de32ef14e68a176ff9969c38" target="_top" xlink:title="Solver::copyCohortsToState">
<polygon fill="none" stroke="#000000" points="142,-.5 142,-19.5 282,-19.5 282,-.5 142,-.5"/>
<text text-anchor="middle" x="212" y="-7.5" font-family="Helvetica,sans-Serif" font-size="10.00" fill="#000000">Solver::copyCohortsToState</text>
</a>
</g>
</g>
<!-- Node65&#45;&gt;Node76 -->
<g id="edge13" class="edge">
<title>Node65&#45;&gt;Node76</title>
<path fill="none" stroke="#191970" d="M66.6676,-96.507C82.6887,-77.1797 111.0174,-46.4824 142,-29 148.7996,-25.1633 156.4114,-22.0705 164.0433,-19.5864"/>
<polygon fill="#191970" stroke="#191970" points="63.772,-94.5216 60.2073,-104.4987 69.2158,-98.9222 63.772,-94.5216"/>
</g>
<!-- Node67 -->
<g id="node3" class="node">
<title>Node67</title>
<g id="a_node3"><a xlink:href="classSolver.html#af4c8f6565df94ed6a058a224196b9c2b" target="_top" xlink:title="Solver::step_to">
<polygon fill="none" stroke="#000000" points="348,-164.5 348,-183.5 431,-183.5 431,-164.5 348,-164.5"/>
<text text-anchor="middle" x="389.5" y="-171.5" font-family="Helvetica,sans-Serif" font-size="10.00" fill="#000000">Solver::step_to</text>
</a>
</g>
</g>
<!-- Node66&#45;&gt;Node67 -->
<g id="edge2" class="edge">
<title>Node66&#45;&gt;Node67</title>
<path fill="none" stroke="#191970" d="M266.9058,-200.2455C292.9796,-194.6635 323.6373,-188.1002 347.772,-182.9333"/>
<polygon fill="#191970" stroke="#191970" points="265.8365,-196.8951 256.7907,-202.411 267.3019,-203.74 265.8365,-196.8951"/>
</g>
<!-- Node68 -->
<g id="node4" class="node">
<title>Node68</title>
<g id="a_node4"><a xlink:href="classSolver.html#a06cf82d0a99490279ab20d2ad6b876db" target="_top" xlink:title="Solver::step_to">
<polygon fill="none" stroke="#000000" points="511,-164.5 511,-183.5 594,-183.5 594,-164.5 511,-164.5"/>
<text text-anchor="middle" x="552.5" y="-171.5" font-family="Helvetica,sans-Serif" font-size="10.00" fill="#000000">Solver::step_to</text>
</a>
</g>
</g>
<!-- Node67&#45;&gt;Node68 -->
<g id="edge3" class="edge">
<title>Node67&#45;&gt;Node68</title>
<path fill="none" stroke="#191970" d="M441.094,-174C463.5502,-174 489.5233,-174 510.7392,-174"/>
<polygon fill="#191970" stroke="#191970" points="441.0536,-170.5001 431.0535,-174 441.0535,-177.5001 441.0536,-170.5001"/>
</g>
<!-- Node69&#45;&gt;Node67 -->
<g id="edge5" class="edge">
<title>Node69&#45;&gt;Node67</title>
<path fill="none" stroke="#191970" d="M281.7537,-174C304.1628,-174 328.2672,-174 347.9831,-174"/>
<polygon fill="#191970" stroke="#191970" points="281.5987,-170.5001 271.5987,-174 281.5987,-177.5001 281.5987,-170.5001"/>
</g>
<!-- Node70&#45;&gt;Node67 -->
<g id="edge7" class="edge">
<title>Node70&#45;&gt;Node67</title>
<path fill="none" stroke="#191970" d="M266.9058,-147.7545C292.9796,-153.3365 323.6373,-159.8998 347.772,-165.0667"/>
<polygon fill="#191970" stroke="#191970" points="267.3019,-144.26 256.7907,-145.589 265.8365,-151.1049 267.3019,-144.26"/>
</g>
<!-- Node73 -->
<g id="node9" class="node">
<title>Node73</title>
<g id="a_node9"><a xlink:href="classSolver.html#aa5f2d1d48f6b4db83dbb257325924d2c" target="_top" xlink:title="Solver::calcSpeciesBirthFlux">
<polygon fill="none" stroke="#000000" points="318,-38.5 318,-57.5 461,-57.5 461,-38.5 318,-38.5"/>
<text text-anchor="middle" x="389.5" y="-45.5" font-family="Helvetica,sans-Serif" font-size="10.00" fill="#000000">Solver::calcSpeciesBirthFlux</text>
</a>
</g>
</g>
<!-- Node72&#45;&gt;Node73 -->
<g id="edge10" class="edge">
<title>Node72&#45;&gt;Node73</title>
<path fill="none" stroke="#191970" d="M271.4967,-48C286.3355,-48 302.4028,-48 317.7637,-48"/>
<polygon fill="#191970" stroke="#191970" points="271.4437,-44.5001 261.4436,-48 271.4436,-51.5001 271.4437,-44.5001"/>
</g>
<!-- Node74 -->
<g id="node10" class="node">
<title>Node74</title>
<g id="a_node10"><a xlink:href="classSolver.html#ae9cbf50e5db34626f54298c75fc64188" target="_top" xlink:title="Solver::newborns_out">
<polygon fill="none" stroke="#000000" points="497,-38.5 497,-57.5 608,-57.5 608,-38.5 497,-38.5"/>
<text text-anchor="middle" x="552.5" y="-45.5" font-family="Helvetica,sans-Serif" font-size="10.00" fill="#000000">Solver::newborns_out</text>
</a>
</g>
</g>
<!-- Node73&#45;&gt;Node74 -->
<g id="edge11" class="edge">
<title>Node73&#45;&gt;Node74</title>
<path fill="none" stroke="#191970" d="M471.718,-48C480.1363,-48 488.5443,-48 496.5828,-48"/>
<polygon fill="#191970" stroke="#191970" points="471.4687,-44.5001 461.4686,-48 471.4686,-51.5001 471.4687,-44.5001"/>
</g>
<!-- Node75 -->
<g id="node11" class="node">
<title>Node75</title>
<g id="a_node11"><a xlink:href="classSolver.html#a40c9ebb8d585e07d8f65c4ac5ada6420" target="_top" xlink:title="Solver::u0_out">
<polygon fill="none" stroke="#000000" points="644,-38.5 644,-57.5 724,-57.5 724,-38.5 644,-38.5"/>
<text text-anchor="middle" x="684" y="-45.5" font-family="Helvetica,sans-Serif" font-size="10.00" fill="#000000">Solver::u0_out</text>
</a>
</g>
</g>
<!-- Node74&#45;&gt;Node75 -->
<g id="edge12" class="edge">
<title>Node74&#45;&gt;Node75</title>
<path fill="none" stroke="#191970" d="M618.3788,-48C627.0211,-48 635.6605,-48 643.6996,-48"/>
<polygon fill="#191970" stroke="#191970" points="618.2679,-44.5001 608.2678,-48 618.2678,-51.5001 618.2679,-44.5001"/>
</g>
</g>
</svg>
