<?xml version="1.0" encoding="UTF-8" standalone="no"?>
<!DOCTYPE svg PUBLIC "-//W3C//DTD SVG 1.1//EN"
 "http://www.w3.org/Graphics/SVG/1.1/DTD/svg11.dtd">
<!-- Generated by graphviz version 2.40.1 (20161225.0304)
 -->
<!-- Title: Solver::step_to Pages: 1 -->
<svg width="1010pt" height="720pt"
 viewBox="0.00 0.00 1010.00 720.00" xmlns="http://www.w3.org/2000/svg" xmlns:xlink="http://www.w3.org/1999/xlink">
<g id="graph0" class="graph" transform="scale(1 1) rotate(0) translate(4 716)">
<title>Solver::step_to</title>
<!-- Node199 -->
<g id="node1" class="node">
<title>Node199</title>
<polygon fill="#bfbfbf" stroke="#000000" points="0,-306.5 0,-325.5 83,-325.5 83,-306.5 0,-306.5"/>
<text text-anchor="middle" x="41.5" y="-313.5" font-family="Helvetica,sans-Serif" font-size="10.00" fill="#000000">Solver::step_to</text>
</g>
<!-- Node200 -->
<g id="node2" class="node">
<title>Node200</title>
<g id="a_node2"><a xlink:href="classSolver.html#af4c8f6565df94ed6a058a224196b9c2b" target="_top" xlink:title="Solver::step_to">
<polygon fill="none" stroke="#000000" points="119,-306.5 119,-325.5 202,-325.5 202,-306.5 119,-306.5"/>
<text text-anchor="middle" x="160.5" y="-313.5" font-family="Helvetica,sans-Serif" font-size="10.00" fill="#000000">Solver::step_to</text>
</a>
</g>
</g>
<!-- Node199&#45;&gt;Node200 -->
<g id="edge1" class="edge">
<title>Node199&#45;&gt;Node200</title>
<path fill="none" stroke="#191970" d="M83.1204,-316C91.3162,-316 100.0109,-316 108.4987,-316"/>
<polygon fill="#191970" stroke="#191970" points="108.702,-319.5001 118.7019,-316 108.7019,-312.5001 108.702,-319.5001"/>
</g>
<!-- Node201 -->
<g id="node3" class="node">
<title>Node201</title>
<g id="a_node3"><a xlink:href="classSolver.html#ad3f68f3021eed287c5b1c85bdc24afd8" target="_top" xlink:title="Solver::copyStateToCohorts">
<polygon fill="none" stroke="#000000" points="250.5,-632.5 250.5,-651.5 390.5,-651.5 390.5,-632.5 250.5,-632.5"/>
<text text-anchor="middle" x="320.5" y="-639.5" font-family="Helvetica,sans-Serif" font-size="10.00" fill="#000000">Solver::copyStateToCohorts</text>
</a>
</g>
</g>
<!-- Node200&#45;&gt;Node201 -->
<g id="edge2" class="edge">
<title>Node200&#45;&gt;Node201</title>
<path fill="none" stroke="#191970" d="M162.6715,-325.786C170.0192,-357.757 195.8683,-461.4703 238,-538 256.4783,-571.5648 285.7499,-605.3955 304.0032,-624.9912"/>
<polygon fill="#191970" stroke="#191970" points="301.6715,-627.6193 311.0878,-632.4755 306.7551,-622.8071 301.6715,-627.6193"/>
</g>
<!-- Node205 -->
<g id="node7" class="node">
<title>Node205</title>
<g id="a_node7"><a xlink:href="classEnvironmentBase.html#aab04d5438741c4f04d09514bac07348c" target="_top" xlink:title="EnvironmentBase::computeEnv">
<polygon fill="none" stroke="#000000" points="243,-509.5 243,-528.5 398,-528.5 398,-509.5 243,-509.5"/>
<text text-anchor="middle" x="320.5" y="-516.5" font-family="Helvetica,sans-Serif" font-size="10.00" fill="#000000">EnvironmentBase::computeEnv</text>
</a>
</g>
</g>
<!-- Node200&#45;&gt;Node205 -->
<g id="edge6" class="edge">
<title>Node200&#45;&gt;Node205</title>
<path fill="none" stroke="#191970" d="M161.5425,-325.8077C165.3667,-356.6571 181.4956,-452.479 238,-500 239.9685,-501.6555 242.0534,-503.1735 244.2296,-504.565"/>
<polygon fill="#191970" stroke="#191970" points="242.5628,-507.6426 253.0227,-509.3285 245.8971,-501.4877 242.5628,-507.6426"/>
</g>
<!-- Node206 -->
<g id="node8" class="node">
<title>Node206</title>
<g id="a_node8"><a xlink:href="classSolver.html#af574bcfab58cef5440c32fa87b027e7d" target="_top" xlink:title="Solver::preComputeSpecies">
<polygon fill="none" stroke="#000000" points="251,-471.5 251,-490.5 390,-490.5 390,-471.5 251,-471.5"/>
<text text-anchor="middle" x="320.5" y="-478.5" font-family="Helvetica,sans-Serif" font-size="10.00" fill="#000000">Solver::preComputeSpecies</text>
</a>
</g>
</g>
<!-- Node200&#45;&gt;Node206 -->
<g id="edge7" class="edge">
<title>Node200&#45;&gt;Node206</title>
<path fill="none" stroke="#191970" d="M162.6579,-325.6409C169.0808,-351.9895 190.6478,-425.6596 238,-462 240.3502,-463.8037 242.8417,-465.4411 245.4378,-466.9273"/>
<polygon fill="#191970" stroke="#191970" points="244.0932,-470.1659 254.6136,-471.4193 247.1711,-463.8788 244.0932,-470.1659"/>
</g>
<!-- Node207 -->
<g id="node9" class="node">
<title>Node207</title>
<g id="a_node9"><a xlink:href="classSolver.html#a2ea9fb6abc4ffd5ac28154332029da40" target="_top" xlink:title="Solver::calcRates_FMU">
<polygon fill="none" stroke="#000000" points="259.5,-433.5 259.5,-452.5 381.5,-452.5 381.5,-433.5 259.5,-433.5"/>
<text text-anchor="middle" x="320.5" y="-440.5" font-family="Helvetica,sans-Serif" font-size="10.00" fill="#000000">Solver::calcRates_FMU</text>
</a>
</g>
</g>
<!-- Node200&#45;&gt;Node207 -->
<g id="edge8" class="edge">
<title>Node200&#45;&gt;Node207</title>
<path fill="none" stroke="#191970" d="M164.4876,-325.5711C173.8887,-346.8916 199.5793,-398.422 238,-424 241.7488,-426.4957 245.782,-428.6661 249.9779,-430.5535"/>
<polygon fill="#191970" stroke="#191970" points="248.789,-433.8468 259.3762,-434.2492 251.3508,-427.3324 248.789,-433.8468"/>
</g>
<!-- Node209 -->
<g id="node11" class="node">
<title>Node209</title>
<g id="a_node11"><a xlink:href="classOdeSolver.html#a77d9f02ed28d5515366e6be08560f35a" target="_top" xlink:title="OdeSolver::step_to">
<polygon fill="none" stroke="#000000" points="270,-395.5 270,-414.5 371,-414.5 371,-395.5 270,-395.5"/>
<text text-anchor="middle" x="320.5" y="-402.5" font-family="Helvetica,sans-Serif" font-size="10.00" fill="#000000">OdeSolver::step_to</text>
</a>
</g>
</g>
<!-- Node200&#45;&gt;Node209 -->
<g id="edge10" class="edge">
<title>Node200&#45;&gt;Node209</title>
<path fill="none" stroke="#191970" d="M171.6699,-325.7047C186.1833,-337.9523 212.6714,-359.0945 238,-373 251.3288,-380.3176 266.6832,-386.7602 280.5045,-391.9106"/>
<polygon fill="#191970" stroke="#191970" points="279.6524,-395.3239 290.2467,-395.4265 282.0287,-388.7396 279.6524,-395.3239"/>
</g>
<!-- Node241 -->
<g id="node34" class="node">
<title>Node241</title>
<g id="a_node34"><a xlink:href="classSolver.html#a8f96f44ff535452912b2a3a2fc43e60e" target="_top" xlink:title="Solver::stepU_iFMU">
<polygon fill="none" stroke="#000000" points="267.5,-344.5 267.5,-363.5 373.5,-363.5 373.5,-344.5 267.5,-344.5"/>
<text text-anchor="middle" x="320.5" y="-351.5" font-family="Helvetica,sans-Serif" font-size="10.00" fill="#000000">Solver::stepU_iFMU</text>
</a>
</g>
</g>
<!-- Node200&#45;&gt;Node241 -->
<g id="edge34" class="edge">
<title>Node200&#45;&gt;Node241</title>
<path fill="none" stroke="#191970" d="M199.1063,-325.578C211.5167,-328.6266 225.3309,-331.9883 238,-335 247.8666,-337.3455 258.4078,-339.8069 268.5433,-342.1514"/>
<polygon fill="#191970" stroke="#191970" points="267.9727,-345.6116 278.5035,-344.4482 269.5457,-338.7906 267.9727,-345.6116"/>
</g>
<!-- Node242 -->
<g id="node35" class="node">
<title>Node242</title>
<g id="a_node35"><a xlink:href="classSolver.html#af20fce0c27f051dfb93383069a77fd72" target="_top" xlink:title="Solver::calcRates_iFMU">
<polygon fill="none" stroke="#000000" points="258.5,-306.5 258.5,-325.5 382.5,-325.5 382.5,-306.5 258.5,-306.5"/>
<text text-anchor="middle" x="320.5" y="-313.5" font-family="Helvetica,sans-Serif" font-size="10.00" fill="#000000">Solver::calcRates_iFMU</text>
</a>
</g>
</g>
<!-- Node200&#45;&gt;Node242 -->
<g id="edge35" class="edge">
<title>Node200&#45;&gt;Node242</title>
<path fill="none" stroke="#191970" d="M202.1204,-316C216.172,-316 232.2939,-316 248.0244,-316"/>
<polygon fill="#191970" stroke="#191970" points="248.2793,-319.5001 258.2793,-316 248.2792,-312.5001 248.2793,-319.5001"/>
</g>
<!-- Node243 -->
<g id="node36" class="node">
<title>Node243</title>
<g id="a_node36"><a xlink:href="classSolver.html#a23be16428b7ba399bfd2f06555547f6b" target="_top" xlink:title="Solver::calcRates_EBT">
<polygon fill="none" stroke="#000000" points="261,-268.5 261,-287.5 380,-287.5 380,-268.5 261,-268.5"/>
<text text-anchor="middle" x="320.5" y="-275.5" font-family="Helvetica,sans-Serif" font-size="10.00" fill="#000000">Solver::calcRates_EBT</text>
</a>
</g>
</g>
<!-- Node200&#45;&gt;Node243 -->
<g id="edge36" class="edge">
<title>Node200&#45;&gt;Node243</title>
<path fill="none" stroke="#191970" d="M199.1063,-306.422C211.5167,-303.3734 225.3309,-300.0117 238,-297 247.8666,-294.6545 258.4078,-292.1931 268.5433,-289.8486"/>
<polygon fill="#191970" stroke="#191970" points="269.5457,-293.2094 278.5035,-287.5518 267.9727,-286.3884 269.5457,-293.2094"/>
</g>
<!-- Node253 -->
<g id="node46" class="node">
<title>Node253</title>
<g id="a_node46"><a xlink:href="classSolver.html#a755d2db1e1e57bb998526cd604bd7565" target="_top" xlink:title="Solver::removeDeadCohorts_EBT">
<polygon fill="none" stroke="#000000" points="238,-230.5 238,-249.5 403,-249.5 403,-230.5 238,-230.5"/>
<text text-anchor="middle" x="320.5" y="-237.5" font-family="Helvetica,sans-Serif" font-size="10.00" fill="#000000">Solver::removeDeadCohorts_EBT</text>
</a>
</g>
</g>
<!-- Node200&#45;&gt;Node253 -->
<g id="edge46" class="edge">
<title>Node200&#45;&gt;Node253</title>
<path fill="none" stroke="#191970" d="M170.6477,-306.3719C184.6712,-293.6045 211.2834,-271.2609 238,-259 243.3913,-256.5258 249.1332,-254.3595 254.9812,-252.4655"/>
<polygon fill="#191970" stroke="#191970" points="256.2883,-255.7285 264.8798,-249.5288 254.2973,-249.0176 256.2883,-255.7285"/>
</g>
<!-- Node254 -->
<g id="node47" class="node">
<title>Node254</title>
<g id="a_node47"><a xlink:href="classSolver.html#a1b1f4ba3186796d37c909c6b26c7d6f2" target="_top" xlink:title="Solver::addCohort_EBT">
<polygon fill="none" stroke="#000000" points="260.5,-192.5 260.5,-211.5 380.5,-211.5 380.5,-192.5 260.5,-192.5"/>
<text text-anchor="middle" x="320.5" y="-199.5" font-family="Helvetica,sans-Serif" font-size="10.00" fill="#000000">Solver::addCohort_EBT</text>
</a>
</g>
</g>
<!-- Node200&#45;&gt;Node254 -->
<g id="edge47" class="edge">
<title>Node200&#45;&gt;Node254</title>
<path fill="none" stroke="#191970" d="M165.4381,-306.4218C175.9653,-287.0157 202.5747,-243.034 238,-221 242.0757,-218.465 246.4541,-216.2675 250.9915,-214.3628"/>
<polygon fill="#191970" stroke="#191970" points="252.3195,-217.6034 260.4828,-210.8497 249.8896,-211.0386 252.3195,-217.6034"/>
</g>
<!-- Node255 -->
<g id="node48" class="node">
<title>Node255</title>
<g id="a_node48"><a xlink:href="classSolver.html#ab712f582d6f785adb8620cb40bbb3de4" target="_top" xlink:title="Solver::calcRates_CM">
<polygon fill="none" stroke="#000000" points="262.5,-154.5 262.5,-173.5 378.5,-173.5 378.5,-154.5 262.5,-154.5"/>
<text text-anchor="middle" x="320.5" y="-161.5" font-family="Helvetica,sans-Serif" font-size="10.00" fill="#000000">Solver::calcRates_CM</text>
</a>
</g>
</g>
<!-- Node200&#45;&gt;Node255 -->
<g id="edge48" class="edge">
<title>Node200&#45;&gt;Node255</title>
<path fill="none" stroke="#191970" d="M163.1413,-306.4972C170.5012,-281.8727 193.6715,-215.6457 238,-183 242.512,-179.6771 247.5099,-176.9226 252.7488,-174.6408"/>
<polygon fill="#191970" stroke="#191970" points="254.254,-177.8143 262.3864,-171.0234 251.7942,-171.2607 254.254,-177.8143"/>
</g>
<!-- Node256 -->
<g id="node49" class="node">
<title>Node256</title>
<g id="a_node49"><a xlink:href="classSolver.html#af6469f699052d7c5fc9192c75b597f30" target="_top" xlink:title="Solver::addCohort_CM">
<polygon fill="none" stroke="#000000" points="262.5,-116.5 262.5,-135.5 378.5,-135.5 378.5,-116.5 262.5,-116.5"/>
<text text-anchor="middle" x="320.5" y="-123.5" font-family="Helvetica,sans-Serif" font-size="10.00" fill="#000000">Solver::addCohort_CM</text>
</a>
</g>
</g>
<!-- Node200&#45;&gt;Node256 -->
<g id="edge49" class="edge">
<title>Node200&#45;&gt;Node256</title>
<path fill="none" stroke="#191970" d="M161.842,-306.4602C166.4686,-277.3131 184.5235,-188.761 238,-145 242.4077,-141.3931 247.3713,-138.4428 252.6215,-136.0329"/>
<polygon fill="#191970" stroke="#191970" points="254.2755,-139.1449 262.3232,-132.2538 251.7348,-132.6222 254.2755,-139.1449"/>
</g>
<!-- Node257 -->
<g id="node50" class="node">
<title>Node257</title>
<g id="a_node50"><a xlink:href="classSolver.html#ad4c2e8d0c5a11726f47553adcf0f4c73" target="_top" xlink:title="Solver::removeCohort_CM">
<polygon fill="none" stroke="#000000" points="254,-78.5 254,-97.5 387,-97.5 387,-78.5 254,-78.5"/>
<text text-anchor="middle" x="320.5" y="-85.5" font-family="Helvetica,sans-Serif" font-size="10.00" fill="#000000">Solver::removeCohort_CM</text>
</a>
</g>
</g>
<!-- Node200&#45;&gt;Node257 -->
<g id="edge50" class="edge">
<title>Node200&#45;&gt;Node257</title>
<path fill="none" stroke="#191970" d="M160.9864,-306.3286C163.2058,-273.0346 175.2134,-162.1825 238,-107 240.0286,-105.2171 242.191,-103.5922 244.4576,-102.1119"/>
<polygon fill="#191970" stroke="#191970" points="246.5543,-104.9549 253.6536,-97.0904 243.1995,-98.8112 246.5543,-104.9549"/>
</g>
<!-- Node202 -->
<g id="node4" class="node">
<title>Node202</title>
<g id="a_node4"><a xlink:href="classSpecies__Base.html#ad9ddab41ba3c6e242f1b3a8a50ed7a36" target="_top" xlink:title="Species_Base::setU">
<polygon fill="none" stroke="#000000" points="462,-692.5 462,-711.5 569,-711.5 569,-692.5 462,-692.5"/>
<text text-anchor="middle" x="515.5" y="-699.5" font-family="Helvetica,sans-Serif" font-size="10.00" fill="#000000">Species_Base::setU</text>
</a>
</g>
</g>
<!-- Node201&#45;&gt;Node202 -->
<g id="edge3" class="edge">
<title>Node201&#45;&gt;Node202</title>
<path fill="none" stroke="#191970" d="M346.1745,-651.6303C370.0323,-660.4004 406.6496,-673.4071 439,-683 447.1098,-685.4048 455.7634,-687.756 464.2252,-689.9393"/>
<polygon fill="#191970" stroke="#191970" points="463.4736,-693.3594 474.0265,-692.4183 465.1901,-686.5731 463.4736,-693.3594"/>
</g>
<!-- Node203 -->
<g id="node5" class="node">
<title>Node203</title>
<g id="a_node5"><a xlink:href="classSpecies__Base.html#a86a04ae53b3f25c4e90b01a8eaed3bfd" target="_top" xlink:title="Species_Base::setX">
<polygon fill="none" stroke="#000000" points="462.5,-654.5 462.5,-673.5 568.5,-673.5 568.5,-654.5 462.5,-654.5"/>
<text text-anchor="middle" x="515.5" y="-661.5" font-family="Helvetica,sans-Serif" font-size="10.00" fill="#000000">Species_Base::setX</text>
</a>
</g>
</g>
<!-- Node201&#45;&gt;Node203 -->
<g id="edge4" class="edge">
<title>Node201&#45;&gt;Node203</title>
<path fill="none" stroke="#191970" d="M390.624,-649.9114C410.7079,-652.1773 432.4782,-654.6334 452.1312,-656.8507"/>
<polygon fill="#191970" stroke="#191970" points="451.8659,-660.3429 462.1953,-657.9861 452.6507,-653.387 451.8659,-660.3429"/>
</g>
<!-- Node204 -->
<g id="node6" class="node">
<title>Node204</title>
<g id="a_node6"><a xlink:href="classSpecies__Base.html#a2ca0ef18e0b775f6efc02b026bd2f5ac" target="_top" xlink:title="Species_Base::copyExtraState\lToCohorts">
<polygon fill="none" stroke="#000000" points="439,-605 439,-635 592,-635 592,-605 439,-605"/>
<text text-anchor="start" x="447" y="-623" font-family="Helvetica,sans-Serif" font-size="10.00" fill="#000000">Species_Base::copyExtraState</text>
<text text-anchor="middle" x="515.5" y="-612" font-family="Helvetica,sans-Serif" font-size="10.00" fill="#000000">ToCohorts</text>
</a>
</g>
</g>
<!-- Node201&#45;&gt;Node204 -->
<g id="edge5" class="edge">
<title>Node201&#45;&gt;Node204</title>
<path fill="none" stroke="#191970" d="M390.624,-634.0886C402.9444,-632.6986 415.8994,-631.237 428.611,-629.8029"/>
<polygon fill="#191970" stroke="#191970" points="429.1919,-633.2596 438.7364,-628.6605 428.4071,-626.3037 429.1919,-633.2596"/>
</g>
<!-- Node208 -->
<g id="node10" class="node">
<title>Node208</title>
<g id="a_node10"><a xlink:href="fmu_8cpp.html#af0b176a8634995ec9711c803bb30743a" target="_top" xlink:title="phi">
<polygon fill="none" stroke="#000000" points="501,-566.5 501,-585.5 530,-585.5 530,-566.5 501,-566.5"/>
<text text-anchor="middle" x="515.5" y="-573.5" font-family="Helvetica,sans-Serif" font-size="10.00" fill="#000000">phi</text>
</a>
</g>
</g>
<!-- Node207&#45;&gt;Node208 -->
<g id="edge9" class="edge">
<title>Node207&#45;&gt;Node208</title>
<path fill="none" stroke="#191970" d="M381.5282,-449.7614C389.3621,-452.6353 396.7983,-456.5885 403,-462 437.0211,-491.6864 405.2338,-527.0241 439,-557 453.1876,-569.595 474.4434,-574.1207 490.9514,-575.623"/>
<polygon fill="#191970" stroke="#191970" points="490.7994,-579.1201 500.9919,-576.2282 491.2206,-572.1328 490.7994,-579.1201"/>
</g>
<!-- Node210 -->
<g id="node12" class="node">
<title>Node210</title>
<g id="a_node12"><a xlink:href="classRKCK45.html#a91b5ae2e8a9dadc117e6412f054afa59" target="_top" xlink:title="RKCK45::Step_to">
<polygon fill="none" stroke="#000000" points="468,-528.5 468,-547.5 563,-547.5 563,-528.5 468,-528.5"/>
<text text-anchor="middle" x="515.5" y="-535.5" font-family="Helvetica,sans-Serif" font-size="10.00" fill="#000000">RKCK45::Step_to</text>
</a>
</g>
</g>
<!-- Node209&#45;&gt;Node210 -->
<g id="edge11" class="edge">
<title>Node209&#45;&gt;Node210</title>
<path fill="none" stroke="#191970" d="M371.3029,-408.6313C382.7614,-411.5147 394.1404,-416.2692 403,-424 437.0211,-453.6864 405.2338,-489.0241 439,-519 444.5583,-523.9344 451.2015,-527.6302 458.219,-530.391"/>
<polygon fill="#191970" stroke="#191970" points="457.3605,-533.7933 467.9536,-533.6045 459.5549,-527.1461 457.3605,-533.7933"/>
</g>
<!-- Node216 -->
<g id="node18" class="node">
<title>Node216</title>
<g id="a_node18"><a xlink:href="classLSODA.html#a278bb538d9b0354084473a931567a023" target="_top" xlink:title="LSODA::set_istate">
<polygon fill="none" stroke="#000000" points="466,-490.5 466,-509.5 565,-509.5 565,-490.5 466,-490.5"/>
<text text-anchor="middle" x="515.5" y="-497.5" font-family="Helvetica,sans-Serif" font-size="10.00" fill="#000000">LSODA::set_istate</text>
</a>
</g>
</g>
<!-- Node209&#45;&gt;Node216 -->
<g id="edge17" class="edge">
<title>Node209&#45;&gt;Node216</title>
<path fill="none" stroke="#191970" d="M371.128,-410.1638C382.3374,-413.013 393.649,-417.3676 403,-424 427.4397,-441.3343 414.7092,-463.4576 439,-481 444.1692,-484.7331 449.9909,-487.7367 456.0563,-490.1527"/>
<polygon fill="#191970" stroke="#191970" points="455.135,-493.5371 465.7297,-493.486 457.4155,-486.919 455.135,-493.5371"/>
</g>
<!-- Node217 -->
<g id="node19" class="node">
<title>Node217</title>
<g id="a_node19"><a xlink:href="classLSODA.html#a391e4d7bea026ad7c300cfb55cb290d1" target="_top" xlink:title="LSODA::lsoda_update">
<polygon fill="none" stroke="#000000" points="458.5,-452.5 458.5,-471.5 572.5,-471.5 572.5,-452.5 458.5,-452.5"/>
<text text-anchor="middle" x="515.5" y="-459.5" font-family="Helvetica,sans-Serif" font-size="10.00" fill="#000000">LSODA::lsoda_update</text>
</a>
</g>
</g>
<!-- Node209&#45;&gt;Node217 -->
<g id="edge18" class="edge">
<title>Node209&#45;&gt;Node217</title>
<path fill="none" stroke="#191970" d="M371.2837,-414.5137C381.9136,-417.1089 392.9433,-420.2606 403,-424 419.9574,-430.3053 422.0971,-436.5501 439,-443 445.4427,-445.4584 452.3131,-447.6852 459.1932,-449.6763"/>
<polygon fill="#191970" stroke="#191970" points="458.6622,-453.1596 469.2315,-452.4243 460.5105,-446.408 458.6622,-453.1596"/>
</g>
<!-- Node239 -->
<g id="node32" class="node">
<title>Node239</title>
<g id="a_node32"><a xlink:href="classLSODA.html#a418110bad0f4978101950dfd04311a02" target="_top" xlink:title="LSODA::get_istate">
<polygon fill="none" stroke="#000000" points="466,-414.5 466,-433.5 565,-433.5 565,-414.5 466,-414.5"/>
<text text-anchor="middle" x="515.5" y="-421.5" font-family="Helvetica,sans-Serif" font-size="10.00" fill="#000000">LSODA::get_istate</text>
</a>
</g>
</g>
<!-- Node209&#45;&gt;Node239 -->
<g id="edge32" class="edge">
<title>Node209&#45;&gt;Node239</title>
<path fill="none" stroke="#191970" d="M371.2249,-409.9424C397.0413,-412.4579 428.5916,-415.532 455.5975,-418.1633"/>
<polygon fill="#191970" stroke="#191970" points="455.4115,-421.6617 465.7038,-419.1481 456.0904,-414.6947 455.4115,-421.6617"/>
</g>
<!-- Node240 -->
<g id="node33" class="node">
<title>Node240</title>
<g id="a_node33"><a xlink:href="classLSODA.html#adb5f9410c901c193aeb836dd9cc4ab70" target="_top" xlink:title="LSODA::get_fncalls">
<polygon fill="none" stroke="#000000" points="463.5,-376.5 463.5,-395.5 567.5,-395.5 567.5,-376.5 463.5,-376.5"/>
<text text-anchor="middle" x="515.5" y="-383.5" font-family="Helvetica,sans-Serif" font-size="10.00" fill="#000000">LSODA::get_fncalls</text>
</a>
</g>
</g>
<!-- Node209&#45;&gt;Node240 -->
<g id="edge33" class="edge">
<title>Node209&#45;&gt;Node240</title>
<path fill="none" stroke="#191970" d="M371.2249,-400.0576C396.2302,-397.6212 426.6148,-394.6606 453.039,-392.0859"/>
<polygon fill="#191970" stroke="#191970" points="453.7173,-395.5365 463.3307,-391.0832 453.0384,-388.5695 453.7173,-395.5365"/>
</g>
<!-- Node211 -->
<g id="node13" class="node">
<title>Node211</title>
<g id="a_node13"><a xlink:href="classRKCK45.html#a20415037da7046ff94afadbf927c42d3" target="_top" xlink:title="RKCK45::Step">
<polygon fill="none" stroke="#000000" points="628,-566.5 628,-585.5 710,-585.5 710,-566.5 628,-566.5"/>
<text text-anchor="middle" x="669" y="-573.5" font-family="Helvetica,sans-Serif" font-size="10.00" fill="#000000">RKCK45::Step</text>
</a>
</g>
</g>
<!-- Node210&#45;&gt;Node211 -->
<g id="edge12" class="edge">
<title>Node210&#45;&gt;Node211</title>
<path fill="none" stroke="#191970" d="M554.2345,-547.589C574.3993,-552.5809 599.2479,-558.7324 620.6611,-564.0334"/>
<polygon fill="#191970" stroke="#191970" points="619.9959,-567.4743 630.544,-566.4799 621.6781,-560.6794 619.9959,-567.4743"/>
</g>
<!-- Node212 -->
<g id="node14" class="node">
<title>Node212</title>
<g id="a_node14"><a xlink:href="classRKCK45.html#a219b69e8759b799b422d5c6b97509fd0" target="_top" xlink:title="RKCK45::resize">
<polygon fill="none" stroke="#000000" points="762,-604.5 762,-623.5 850,-623.5 850,-604.5 762,-604.5"/>
<text text-anchor="middle" x="806" y="-611.5" font-family="Helvetica,sans-Serif" font-size="10.00" fill="#000000">RKCK45::resize</text>
</a>
</g>
</g>
<!-- Node211&#45;&gt;Node212 -->
<g id="edge13" class="edge">
<title>Node211&#45;&gt;Node212</title>
<path fill="none" stroke="#191970" d="M703.5709,-585.589C721.1752,-590.4719 742.7793,-596.4643 761.601,-601.685"/>
<polygon fill="#191970" stroke="#191970" points="760.8685,-605.1138 771.4402,-604.4141 762.7395,-598.3685 760.8685,-605.1138"/>
</g>
<!-- Node213 -->
<g id="node15" class="node">
<title>Node213</title>
<g id="a_node15"><a xlink:href="classRKCK45.html#adfa11ff7b8da1b21aea9e457ac4e9d1c" target="_top" xlink:title="RKCK45::RKStep">
<polygon fill="none" stroke="#000000" points="758,-566.5 758,-585.5 854,-585.5 854,-566.5 758,-566.5"/>
<text text-anchor="middle" x="806" y="-573.5" font-family="Helvetica,sans-Serif" font-size="10.00" fill="#000000">RKCK45::RKStep</text>
</a>
</g>
</g>
<!-- Node211&#45;&gt;Node213 -->
<g id="edge14" class="edge">
<title>Node211&#45;&gt;Node213</title>
<path fill="none" stroke="#191970" d="M710.1045,-576C721.9209,-576 735.0394,-576 747.6844,-576"/>
<polygon fill="#191970" stroke="#191970" points="747.6899,-579.5001 757.6899,-576 747.6899,-572.5001 747.6899,-579.5001"/>
</g>
<!-- Node214 -->
<g id="node16" class="node">
<title>Node214</title>
<g id="a_node16"><a xlink:href="classRKCK45.html#a25808387ad46ff36ec579617c5ba9eee" target="_top" xlink:title="RKCK45::h">
<polygon fill="none" stroke="#000000" points="918.5,-585.5 918.5,-604.5 985.5,-604.5 985.5,-585.5 918.5,-585.5"/>
<text text-anchor="middle" x="952" y="-592.5" font-family="Helvetica,sans-Serif" font-size="10.00" fill="#000000">RKCK45::h</text>
</a>
</g>
</g>
<!-- Node213&#45;&gt;Node214 -->
<g id="edge15" class="edge">
<title>Node213&#45;&gt;Node214</title>
<path fill="none" stroke="#191970" d="M854.2105,-582.274C871.544,-584.5297 890.9934,-587.0608 907.9543,-589.268"/>
<polygon fill="#191970" stroke="#191970" points="907.784,-592.7753 918.1521,-590.5951 908.6874,-585.8338 907.784,-592.7753"/>
</g>
<!-- Node215 -->
<g id="node17" class="node">
<title>Node215</title>
<g id="a_node17"><a xlink:href="classRKCK45.html#aa61f9dd524bbc30f9c5480a868378c1f" target="_top" xlink:title="RKCK45::RKTry">
<polygon fill="none" stroke="#000000" points="907,-547.5 907,-566.5 997,-566.5 997,-547.5 907,-547.5"/>
<text text-anchor="middle" x="952" y="-554.5" font-family="Helvetica,sans-Serif" font-size="10.00" fill="#000000">RKCK45::RKTry</text>
</a>
</g>
</g>
<!-- Node213&#45;&gt;Node215 -->
<g id="edge16" class="edge">
<title>Node213&#45;&gt;Node215</title>
<path fill="none" stroke="#191970" d="M854.2105,-569.726C867.8453,-567.9516 882.7893,-566.0069 896.8014,-564.1834"/>
<polygon fill="#191970" stroke="#191970" points="897.343,-567.6425 906.8077,-562.8812 896.4396,-560.701 897.343,-567.6425"/>
</g>
<!-- Node218 -->
<g id="node20" class="node">
<title>Node218</title>
<g id="a_node20"><a xlink:href="classLSODA.html#a705dcfe5b21827adb8871e48f2c72fb2" target="_top" xlink:title="LSODA::lsoda">
<polygon fill="none" stroke="#000000" points="629,-414.5 629,-433.5 709,-433.5 709,-414.5 629,-414.5"/>
<text text-anchor="middle" x="669" y="-421.5" font-family="Helvetica,sans-Serif" font-size="10.00" fill="#000000">LSODA::lsoda</text>
</a>
</g>
</g>
<!-- Node217&#45;&gt;Node218 -->
<g id="edge19" class="edge">
<title>Node217&#45;&gt;Node218</title>
<path fill="none" stroke="#191970" d="M554.2345,-452.411C574.3993,-447.4191 599.2479,-441.2676 620.6611,-435.9666"/>
<polygon fill="#191970" stroke="#191970" points="621.6781,-439.3206 630.544,-433.5201 619.9959,-432.5257 621.6781,-439.3206"/>
</g>
<!-- Node219 -->
<g id="node21" class="node">
<title>Node219</title>
<g id="a_node21"><a xlink:href="classLSODA.html#addd83d35565b2c2db644f27dbd94446f" target="_top" xlink:title="LSODA::terminate">
<polygon fill="none" stroke="#000000" points="757.5,-528.5 757.5,-547.5 854.5,-547.5 854.5,-528.5 757.5,-528.5"/>
<text text-anchor="middle" x="806" y="-535.5" font-family="Helvetica,sans-Serif" font-size="10.00" fill="#000000">LSODA::terminate</text>
</a>
</g>
</g>
<!-- Node218&#45;&gt;Node219 -->
<g id="edge20" class="edge">
<title>Node218&#45;&gt;Node219</title>
<path fill="none" stroke="#191970" d="M674.205,-433.6402C685.0198,-452.7693 711.7892,-495.6868 746,-519 748.9331,-520.9988 752.0879,-522.7962 755.361,-524.4113"/>
<polygon fill="#191970" stroke="#191970" points="754.2442,-527.7415 764.8122,-528.4955 757.021,-521.3158 754.2442,-527.7415"/>
</g>
<!-- Node220 -->
<g id="node22" class="node">
<title>Node220</title>
<g id="a_node22"><a xlink:href="classLSODA.html#a6f118c16d754b66d7ee9220037260978" target="_top" xlink:title="LSODA::resize_system">
<polygon fill="none" stroke="#000000" points="746,-490.5 746,-509.5 866,-509.5 866,-490.5 746,-490.5"/>
<text text-anchor="middle" x="806" y="-497.5" font-family="Helvetica,sans-Serif" font-size="10.00" fill="#000000">LSODA::resize_system</text>
</a>
</g>
</g>
<!-- Node218&#45;&gt;Node220 -->
<g id="edge21" class="edge">
<title>Node218&#45;&gt;Node220</title>
<path fill="none" stroke="#191970" d="M679.7056,-433.7484C693.9149,-446.2387 720.2236,-467.8429 746,-481 750.276,-483.1826 754.8516,-485.1757 759.4981,-486.98"/>
<polygon fill="#191970" stroke="#191970" points="758.4673,-490.3287 769.0618,-490.4188 760.8359,-483.7416 758.4673,-490.3287"/>
</g>
<!-- Node221 -->
<g id="node23" class="node">
<title>Node221</title>
<g id="a_node23"><a xlink:href="classLSODA.html#a0a54717e6b42492345098b16bb248e77" target="_top" xlink:title="LSODA::ewset">
<polygon fill="none" stroke="#000000" points="764.5,-452.5 764.5,-471.5 847.5,-471.5 847.5,-452.5 764.5,-452.5"/>
<text text-anchor="middle" x="806" y="-459.5" font-family="Helvetica,sans-Serif" font-size="10.00" fill="#000000">LSODA::ewset</text>
</a>
</g>
</g>
<!-- Node218&#45;&gt;Node221 -->
<g id="edge22" class="edge">
<title>Node218&#45;&gt;Node221</title>
<path fill="none" stroke="#191970" d="M703.5709,-433.589C721.1752,-438.4719 742.7793,-444.4643 761.601,-449.685"/>
<polygon fill="#191970" stroke="#191970" points="760.8685,-453.1138 771.4402,-452.4141 762.7395,-446.3685 760.8685,-453.1138"/>
</g>
<!-- Node222 -->
<g id="node24" class="node">
<title>Node222</title>
<g id="a_node24"><a xlink:href="classLSODA.html#afbcbaee47892060721287dc0ba9708f9" target="_top" xlink:title="LSODA::terminate2">
<polygon fill="none" stroke="#000000" points="755,-414.5 755,-433.5 857,-433.5 857,-414.5 755,-414.5"/>
<text text-anchor="middle" x="806" y="-421.5" font-family="Helvetica,sans-Serif" font-size="10.00" fill="#000000">LSODA::terminate2</text>
</a>
</g>
</g>
<!-- Node218&#45;&gt;Node222 -->
<g id="edge23" class="edge">
<title>Node218&#45;&gt;Node222</title>
<path fill="none" stroke="#191970" d="M709.3635,-424C720.3519,-424 732.5095,-424 744.3879,-424"/>
<polygon fill="#191970" stroke="#191970" points="744.7184,-427.5001 754.7183,-424 744.7183,-420.5001 744.7184,-427.5001"/>
</g>
<!-- Node223 -->
<g id="node25" class="node">
<title>Node223</title>
<g id="a_node25"><a xlink:href="classLSODA.html#ac94b738016b2a7c57cedd5ea4f13311f" target="_top" xlink:title="LSODA::vmnorm">
<polygon fill="none" stroke="#000000" points="906,-357.5 906,-376.5 998,-376.5 998,-357.5 906,-357.5"/>
<text text-anchor="middle" x="952" y="-364.5" font-family="Helvetica,sans-Serif" font-size="10.00" fill="#000000">LSODA::vmnorm</text>
</a>
</g>
</g>
<!-- Node218&#45;&gt;Node223 -->
<g id="edge24" class="edge">
<title>Node218&#45;&gt;Node223</title>
<path fill="none" stroke="#191970" d="M705.7131,-414.4685C718.4333,-411.2918 732.8089,-407.8415 746,-405 796.4152,-394.1401 854.1869,-383.6514 895.6954,-376.4551"/>
<polygon fill="#191970" stroke="#191970" points="896.3582,-379.8925 905.6179,-374.7438 895.1685,-372.9943 896.3582,-379.8925"/>
</g>
<!-- Node224 -->
<g id="node26" class="node">
<title>Node224</title>
<g id="a_node26"><a xlink:href="classLSODA.html#a1ee114165850fa09fcbd0b206de560dc" target="_top" xlink:title="LSODA::intdy">
<polygon fill="none" stroke="#000000" points="767.5,-338.5 767.5,-357.5 844.5,-357.5 844.5,-338.5 767.5,-338.5"/>
<text text-anchor="middle" x="806" y="-345.5" font-family="Helvetica,sans-Serif" font-size="10.00" fill="#000000">LSODA::intdy</text>
</a>
</g>
</g>
<!-- Node218&#45;&gt;Node224 -->
<g id="edge25" class="edge">
<title>Node218&#45;&gt;Node224</title>
<path fill="none" stroke="#191970" d="M681.2883,-414.4872C696.0701,-403.337 721.9112,-384.7634 746,-372 753.3298,-368.1163 761.4306,-364.474 769.2456,-361.2576"/>
<polygon fill="#191970" stroke="#191970" points="770.5624,-364.5007 778.5655,-357.5579 767.9796,-357.9945 770.5624,-364.5007"/>
</g>
<!-- Node225 -->
<g id="node27" class="node">
<title>Node225</title>
<g id="a_node27"><a xlink:href="classLSODA.html#abf4eccf92cba7f87f9d5051ee6b28a42" target="_top" xlink:title="LSODA::successreturn">
<polygon fill="none" stroke="#000000" points="747,-300.5 747,-319.5 865,-319.5 865,-300.5 747,-300.5"/>
<text text-anchor="middle" x="806" y="-307.5" font-family="Helvetica,sans-Serif" font-size="10.00" fill="#000000">LSODA::successreturn</text>
</a>
</g>
</g>
<!-- Node218&#45;&gt;Node225 -->
<g id="edge26" class="edge">
<title>Node218&#45;&gt;Node225</title>
<path fill="none" stroke="#191970" d="M674.205,-414.3598C685.0198,-395.2307 711.7892,-352.3132 746,-329 748.9331,-327.0012 752.0879,-325.2038 755.361,-323.5887"/>
<polygon fill="#191970" stroke="#191970" points="757.021,-326.6842 764.8122,-319.5045 754.2442,-320.2585 757.021,-326.6842"/>
</g>
<!-- Node226 -->
<g id="node28" class="node">
<title>Node226</title>
<g id="a_node28"><a xlink:href="classLSODA.html#a7c6d8d75b383474b5b05c710d2921618" target="_top" xlink:title="LSODA::stoda">
<polygon fill="none" stroke="#ff0000" points="766,-262.5 766,-281.5 846,-281.5 846,-262.5 766,-262.5"/>
<text text-anchor="middle" x="806" y="-269.5" font-family="Helvetica,sans-Serif" font-size="10.00" fill="#000000">LSODA::stoda</text>
</a>
</g>
</g>
<!-- Node218&#45;&gt;Node226 -->
<g id="edge27" class="edge">
<title>Node218&#45;&gt;Node226</title>
<path fill="none" stroke="#191970" d="M671.8716,-414.3439C679.6282,-389.9274 703.3445,-325.2363 746,-291 749.1688,-288.4566 752.6831,-286.2512 756.3756,-284.3393"/>
<polygon fill="#191970" stroke="#191970" points="758.0923,-287.4074 765.8261,-280.1659 755.2645,-281.004 758.0923,-287.4074"/>
</g>
<!-- Node226&#45;&gt;Node223 -->
<g id="edge31" class="edge">
<title>Node226&#45;&gt;Node223</title>
<path fill="none" stroke="#191970" d="M845.9925,-281.5369C852.9399,-284.0551 859.8883,-287.1721 866,-291 885.7165,-303.3488 884.6817,-313.4658 902,-329 910.6439,-336.7534 920.7492,-344.6323 929.6041,-351.1905"/>
<polygon fill="#191970" stroke="#191970" points="927.7958,-354.2031 937.9416,-357.2548 931.9133,-348.5422 927.7958,-354.2031"/>
</g>
<!-- Node227 -->
<g id="node29" class="node">
<title>Node227</title>
<g id="a_node29"><a xlink:href="classLSODA.html#a0f3b8f1c3f9e12fb89ddebfc02930b56" target="_top" xlink:title="LSODA::cfode">
<polygon fill="none" stroke="#000000" points="912,-300.5 912,-319.5 992,-319.5 992,-300.5 912,-300.5"/>
<text text-anchor="middle" x="952" y="-307.5" font-family="Helvetica,sans-Serif" font-size="10.00" fill="#000000">LSODA::cfode</text>
</a>
</g>
</g>
<!-- Node226&#45;&gt;Node227 -->
<g id="edge28" class="edge">
<title>Node226&#45;&gt;Node227</title>
<path fill="none" stroke="#191970" d="M842.842,-281.589C861.8479,-286.5358 885.2286,-292.6211 905.4692,-297.8892"/>
<polygon fill="#191970" stroke="#191970" points="904.8638,-301.3482 915.423,-300.4799 906.627,-294.5739 904.8638,-301.3482"/>
</g>
<!-- Node228 -->
<g id="node30" class="node">
<title>Node228</title>
<g id="a_node30"><a xlink:href="classLSODA.html#a391bc37600b2df97c24cafc6352dc4ce" target="_top" xlink:title="LSODA::resetcoeff">
<polygon fill="none" stroke="#000000" points="902,-262.5 902,-281.5 1002,-281.5 1002,-262.5 902,-262.5"/>
<text text-anchor="middle" x="952" y="-269.5" font-family="Helvetica,sans-Serif" font-size="10.00" fill="#000000">LSODA::resetcoeff</text>
</a>
</g>
</g>
<!-- Node226&#45;&gt;Node228 -->
<g id="edge29" class="edge">
<title>Node226&#45;&gt;Node228</title>
<path fill="none" stroke="#191970" d="M846.2816,-272C860.2717,-272 876.2832,-272 891.5411,-272"/>
<polygon fill="#191970" stroke="#191970" points="891.9498,-275.5001 901.9498,-272 891.9497,-268.5001 891.9498,-275.5001"/>
</g>
<!-- Node229 -->
<g id="node31" class="node">
<title>Node229</title>
<g id="a_node31"><a xlink:href="classLSODA.html#acd395b8e8db2b012842c1ffd57244fd3" target="_top" xlink:title="LSODA::scaleh">
<polygon fill="none" stroke="#000000" points="909.5,-224.5 909.5,-243.5 994.5,-243.5 994.5,-224.5 909.5,-224.5"/>
<text text-anchor="middle" x="952" y="-231.5" font-family="Helvetica,sans-Serif" font-size="10.00" fill="#000000">LSODA::scaleh</text>
</a>
</g>
</g>
<!-- Node226&#45;&gt;Node229 -->
<g id="edge30" class="edge">
<title>Node226&#45;&gt;Node229</title>
<path fill="none" stroke="#191970" d="M842.842,-262.411C861.8479,-257.4642 885.2286,-251.3789 905.4692,-246.1108"/>
<polygon fill="#191970" stroke="#191970" points="906.627,-249.4261 915.423,-243.5201 904.8638,-242.6518 906.627,-249.4261"/>
</g>
<!-- Node244 -->
<g id="node37" class="node">
<title>Node244</title>
<g id="a_node37"><a xlink:href="classSpecies__Base.html#aa6880c6f5c8ff125cab4d1195dedfb13" target="_top" xlink:title="Species_Base::getX">
<polygon fill="none" stroke="#000000" points="462.5,-338.5 462.5,-357.5 568.5,-357.5 568.5,-338.5 462.5,-338.5"/>
<text text-anchor="middle" x="515.5" y="-345.5" font-family="Helvetica,sans-Serif" font-size="10.00" fill="#000000">Species_Base::getX</text>
</a>
</g>
</g>
<!-- Node243&#45;&gt;Node244 -->
<g id="edge37" class="edge">
<title>Node243&#45;&gt;Node244</title>
<path fill="none" stroke="#191970" d="M379.0559,-287.6277C387.3361,-290.0839 395.5555,-293.1574 403,-297 422.0226,-306.8189 420.0619,-319.019 439,-329 443.5001,-331.3717 448.3063,-333.4553 453.2348,-335.2844"/>
<polygon fill="#191970" stroke="#191970" points="452.2211,-338.6359 462.815,-338.497 454.4467,-331.9991 452.2211,-338.6359"/>
</g>
<!-- Node245 -->
<g id="node38" class="node">
<title>Node245</title>
<g id="a_node38"><a xlink:href="classSpecies__Base.html#ad412522fc071525a19f95609880b20ff" target="_top" xlink:title="Species_Base::getU">
<polygon fill="none" stroke="#000000" points="462,-300.5 462,-319.5 569,-319.5 569,-300.5 462,-300.5"/>
<text text-anchor="middle" x="515.5" y="-307.5" font-family="Helvetica,sans-Serif" font-size="10.00" fill="#000000">Species_Base::getU</text>
</a>
</g>
</g>
<!-- Node243&#45;&gt;Node245 -->
<g id="edge38" class="edge">
<title>Node243&#45;&gt;Node245</title>
<path fill="none" stroke="#191970" d="M378.4785,-287.5144C401.5634,-291.3027 428.2064,-295.6749 451.8261,-299.551"/>
<polygon fill="#191970" stroke="#191970" points="451.3098,-303.013 461.7446,-301.1786 452.4434,-296.1054 451.3098,-303.013"/>
</g>
<!-- Node246 -->
<g id="node39" class="node">
<title>Node246</title>
<g id="a_node39"><a xlink:href="classSpecies__Base.html#ad68f257218879207e9f6ed4cf3bd7eef" target="_top" xlink:title="Species_Base::growthRate\lGradient">
<polygon fill="none" stroke="#000000" points="447.5,-251 447.5,-281 583.5,-281 583.5,-251 447.5,-251"/>
<text text-anchor="start" x="455.5" y="-269" font-family="Helvetica,sans-Serif" font-size="10.00" fill="#000000">Species_Base::growthRate</text>
<text text-anchor="middle" x="515.5" y="-258" font-family="Helvetica,sans-Serif" font-size="10.00" fill="#000000">Gradient</text>
</a>
</g>
</g>
<!-- Node243&#45;&gt;Node246 -->
<g id="edge39" class="edge">
<title>Node243&#45;&gt;Node246</title>
<path fill="none" stroke="#191970" d="M380.066,-274.3344C398.1047,-273.2243 418.1959,-271.9879 437.2633,-270.8146"/>
<polygon fill="#191970" stroke="#191970" points="437.6607,-274.2968 447.4268,-270.1891 437.2307,-267.31 437.6607,-274.2968"/>
</g>
<!-- Node247 -->
<g id="node40" class="node">
<title>Node247</title>
<g id="a_node40"><a xlink:href="classSpecies__Base.html#a83ff45fc4f334241eeae08d523d343b5" target="_top" xlink:title="Species_Base::mortalityRate\lGradient">
<polygon fill="none" stroke="#000000" points="443.5,-202 443.5,-232 587.5,-232 587.5,-202 443.5,-202"/>
<text text-anchor="start" x="451.5" y="-220" font-family="Helvetica,sans-Serif" font-size="10.00" fill="#000000">Species_Base::mortalityRate</text>
<text text-anchor="middle" x="515.5" y="-209" font-family="Helvetica,sans-Serif" font-size="10.00" fill="#000000">Gradient</text>
</a>
</g>
</g>
<!-- Node243&#45;&gt;Node247 -->
<g id="edge40" class="edge">
<title>Node243&#45;&gt;Node247</title>
<path fill="none" stroke="#191970" d="M369.8508,-268.457C380.8874,-265.8207 392.4461,-262.6595 403,-259 419.7178,-253.2033 422.5583,-248.5388 439,-242 444.7086,-239.7297 450.713,-237.5018 456.7431,-235.3687"/>
<polygon fill="#191970" stroke="#191970" points="457.8917,-238.6749 466.2014,-232.1022 455.6066,-232.0584 457.8917,-238.6749"/>
</g>
<!-- Node248 -->
<g id="node41" class="node">
<title>Node248</title>
<g id="a_node41"><a xlink:href="classSpecies__Base.html#aad4cefae53644171dfcd12639d2e0e63" target="_top" xlink:title="Species_Base::establishment\lProbability">
<polygon fill="none" stroke="#000000" points="442.5,-153 442.5,-183 588.5,-183 588.5,-153 442.5,-153"/>
<text text-anchor="start" x="450.5" y="-171" font-family="Helvetica,sans-Serif" font-size="10.00" fill="#000000">Species_Base::establishment</text>
<text text-anchor="middle" x="515.5" y="-160" font-family="Helvetica,sans-Serif" font-size="10.00" fill="#000000">Probability</text>
</a>
</g>
</g>
<!-- Node243&#45;&gt;Node248 -->
<g id="edge41" class="edge">
<title>Node243&#45;&gt;Node248</title>
<path fill="none" stroke="#191970" d="M380.0254,-270.7291C388.2587,-267.9442 396.2079,-264.1516 403,-259 429.6219,-238.808 413.308,-214.3628 439,-193 441.0211,-191.3194 443.1584,-189.7508 445.3837,-188.2869"/>
<polygon fill="#191970" stroke="#191970" points="447.4141,-191.157 454.3444,-183.1432 443.9292,-185.0861 447.4141,-191.157"/>
</g>
<!-- Node249 -->
<g id="node42" class="node">
<title>Node249</title>
<g id="a_node42"><a xlink:href="classSpecies__Base.html#a6759c877ef7531a835326dcc11adb2c2" target="_top" xlink:title="Species_Base::get_u0">
<polygon fill="none" stroke="#000000" points="458,-114.5 458,-133.5 573,-133.5 573,-114.5 458,-114.5"/>
<text text-anchor="middle" x="515.5" y="-121.5" font-family="Helvetica,sans-Serif" font-size="10.00" fill="#000000">Species_Base::get_u0</text>
</a>
</g>
</g>
<!-- Node243&#45;&gt;Node249 -->
<g id="edge42" class="edge">
<title>Node243&#45;&gt;Node249</title>
<path fill="none" stroke="#191970" d="M380.1488,-272.1774C388.5591,-269.2175 396.5288,-264.9911 403,-259 442.3005,-222.6157 400.2378,-180.9572 439,-144 441.9341,-141.2026 445.2092,-138.7844 448.7077,-136.6952"/>
<polygon fill="#191970" stroke="#191970" points="450.4176,-139.7534 457.7969,-132.151 447.2873,-133.4923 450.4176,-139.7534"/>
</g>
<!-- Node250 -->
<g id="node43" class="node">
<title>Node250</title>
<g id="a_node43"><a xlink:href="classSpecies__Base.html#abe98e190e76cfd39eee7ef3d30141d53" target="_top" xlink:title="Species_Base::growthRate">
<polygon fill="none" stroke="#000000" points="447.5,-76.5 447.5,-95.5 583.5,-95.5 583.5,-76.5 447.5,-76.5"/>
<text text-anchor="middle" x="515.5" y="-83.5" font-family="Helvetica,sans-Serif" font-size="10.00" fill="#000000">Species_Base::growthRate</text>
</a>
</g>
</g>
<!-- Node243&#45;&gt;Node250 -->
<g id="edge43" class="edge">
<title>Node243&#45;&gt;Node250</title>
<path fill="none" stroke="#191970" d="M380.1265,-272.7393C388.6418,-269.721 396.6499,-265.3293 403,-259 452.7839,-209.3794 389.6417,-155.044 439,-105 440.2883,-103.6938 441.6514,-102.4723 443.0781,-101.3303"/>
<polygon fill="#191970" stroke="#191970" points="445.3861,-104.0046 451.8639,-95.6207 441.5717,-98.1351 445.3861,-104.0046"/>
</g>
<!-- Node251 -->
<g id="node44" class="node">
<title>Node251</title>
<g id="a_node44"><a xlink:href="classSpecies__Base.html#a59ab3c647c48a819f1911957e5724d5e" target="_top" xlink:title="Species_Base::mortalityRate">
<polygon fill="none" stroke="#000000" points="443.5,-38.5 443.5,-57.5 587.5,-57.5 587.5,-38.5 443.5,-38.5"/>
<text text-anchor="middle" x="515.5" y="-45.5" font-family="Helvetica,sans-Serif" font-size="10.00" fill="#000000">Species_Base::mortalityRate</text>
</a>
</g>
</g>
<!-- Node243&#45;&gt;Node251 -->
<g id="edge44" class="edge">
<title>Node243&#45;&gt;Node251</title>
<path fill="none" stroke="#191970" d="M380.3732,-272.9813C388.8577,-269.9329 396.7916,-265.4683 403,-259 463.1197,-196.3629 379.4175,-130.1483 439,-67 440.2268,-65.6998 441.5275,-64.4829 442.8915,-63.344"/>
<polygon fill="#191970" stroke="#191970" points="444.9999,-66.1433 451.3201,-57.64 441.0766,-60.3461 444.9999,-66.1433"/>
</g>
<!-- Node252 -->
<g id="node45" class="node">
<title>Node252</title>
<g id="a_node45"><a xlink:href="classSpecies__Base.html#a1c47d1905fa4da0a1f203f641f6ed2af" target="_top" xlink:title="Species_Base::getExtraRates">
<polygon fill="none" stroke="#000000" points="441,-.5 441,-19.5 590,-19.5 590,-.5 441,-.5"/>
<text text-anchor="middle" x="515.5" y="-7.5" font-family="Helvetica,sans-Serif" font-size="10.00" fill="#000000">Species_Base::getExtraRates</text>
</a>
</g>
</g>
<!-- Node243&#45;&gt;Node252 -->
<g id="edge45" class="edge">
<title>Node243&#45;&gt;Node252</title>
<path fill="none" stroke="#191970" d="M380.1271,-273.2924C388.7481,-270.2215 396.7894,-265.6686 403,-259 473.5157,-183.284 369.1336,-105.3156 439,-29 440.2071,-27.6815 441.4901,-26.4481 442.8383,-25.2945"/>
<polygon fill="#191970" stroke="#191970" points="444.9551,-28.0862 451.1954,-19.5241 440.9778,-22.3259 444.9551,-28.0862"/>
</g>
</g>
</svg>
