<?xml version="1.0" encoding="UTF-8" standalone="no"?>
<!DOCTYPE svg PUBLIC "-//W3C//DTD SVG 1.1//EN"
 "http://www.w3.org/Graphics/SVG/1.1/DTD/svg11.dtd">
<!-- Generated by graphviz version 2.40.1 (20161225.0304)
 -->
<!-- Title: Species_Base::growthRateGradient Pages: 1 -->
<svg width="537pt" height="39pt"
 viewBox="0.00 0.00 537.00 39.00" xmlns="http://www.w3.org/2000/svg" xmlns:xlink="http://www.w3.org/1999/xlink">
<g id="graph0" class="graph" transform="scale(1 1) rotate(0) translate(4 35)">
<title>Species_Base::growthRateGradient</title>
<!-- Node75 -->
<g id="node1" class="node">
<title>Node75</title>
<polygon fill="#bfbfbf" stroke="#000000" points="0,-.5 0,-30.5 136,-30.5 136,-.5 0,-.5"/>
<text text-anchor="start" x="8" y="-18.5" font-family="Helvetica,sans-Serif" font-size="10.00" fill="#000000">Species_Base::growthRate</text>
<text text-anchor="middle" x="68" y="-7.5" font-family="Helvetica,sans-Serif" font-size="10.00" fill="#000000">Gradient</text>
</g>
<!-- Node76 -->
<g id="node2" class="node">
<title>Node76</title>
<g id="a_node2"><a xlink:href="classSolver.html#a23be16428b7ba399bfd2f06555547f6b" target="_top" xlink:title="Solver::calcRates_EBT">
<polygon fill="none" stroke="#000000" points="172,-6 172,-25 291,-25 291,-6 172,-6"/>
<text text-anchor="middle" x="231.5" y="-13" font-family="Helvetica,sans-Serif" font-size="10.00" fill="#000000">Solver::calcRates_EBT</text>
</a>
</g>
</g>
<!-- Node75&#45;&gt;Node76 -->
<g id="edge1" class="edge">
<title>Node75&#45;&gt;Node76</title>
<path fill="none" stroke="#191970" d="M146.4269,-15.5C155.0142,-15.5 163.6506,-15.5 171.956,-15.5"/>
<polygon fill="#191970" stroke="#191970" points="146.3914,-12.0001 136.3914,-15.5 146.3913,-19.0001 146.3914,-12.0001"/>
</g>
<!-- Node77 -->
<g id="node3" class="node">
<title>Node77</title>
<g id="a_node3"><a xlink:href="classSolver.html#af4c8f6565df94ed6a058a224196b9c2b" target="_top" xlink:title="Solver::step_to">
<polygon fill="none" stroke="#000000" points="327,-6 327,-25 410,-25 410,-6 327,-6"/>
<text text-anchor="middle" x="368.5" y="-13" font-family="Helvetica,sans-Serif" font-size="10.00" fill="#000000">Solver::step_to</text>
</a>
</g>
</g>
<!-- Node76&#45;&gt;Node77 -->
<g id="edge2" class="edge">
<title>Node76&#45;&gt;Node77</title>
<path fill="none" stroke="#191970" d="M301.3444,-15.5C310.0102,-15.5 318.6473,-15.5 326.7006,-15.5"/>
<polygon fill="#191970" stroke="#191970" points="301.1917,-12.0001 291.1917,-15.5 301.1916,-19.0001 301.1917,-12.0001"/>
</g>
<!-- Node78 -->
<g id="node4" class="node">
<title>Node78</title>
<g id="a_node4"><a xlink:href="classSolver.html#a06cf82d0a99490279ab20d2ad6b876db" target="_top" xlink:title="Solver::step_to">
<polygon fill="none" stroke="#000000" points="446,-6 446,-25 529,-25 529,-6 446,-6"/>
<text text-anchor="middle" x="487.5" y="-13" font-family="Helvetica,sans-Serif" font-size="10.00" fill="#000000">Solver::step_to</text>
</a>
</g>
</g>
<!-- Node77&#45;&gt;Node78 -->
<g id="edge3" class="edge">
<title>Node77&#45;&gt;Node78</title>
<path fill="none" stroke="#191970" d="M420.3174,-15.5C428.8022,-15.5 437.499,-15.5 445.7019,-15.5"/>
<polygon fill="#191970" stroke="#191970" points="420.1205,-12.0001 410.1204,-15.5 420.1204,-19.0001 420.1205,-12.0001"/>
</g>
</g>
</svg>
