<?xml version="1.0" encoding="UTF-8" standalone="no"?>
<!DOCTYPE svg PUBLIC "-//W3C//DTD SVG 1.1//EN"
 "http://www.w3.org/Graphics/SVG/1.1/DTD/svg11.dtd">
<!-- Generated by graphviz version 2.40.1 (20161225.0304)
 -->
<!-- Title: Species_Base::mortalityRateGradient Pages: 1 -->
<svg width="545pt" height="39pt"
 viewBox="0.00 0.00 545.00 39.00" xmlns="http://www.w3.org/2000/svg" xmlns:xlink="http://www.w3.org/1999/xlink">
<g id="graph0" class="graph" transform="scale(1 1) rotate(0) translate(4 35)">
<title>Species_Base::mortalityRateGradient</title>
<!-- Node97 -->
<g id="node1" class="node">
<title>Node97</title>
<polygon fill="#bfbfbf" stroke="#000000" points="0,-.5 0,-30.5 144,-30.5 144,-.5 0,-.5"/>
<text text-anchor="start" x="8" y="-18.5" font-family="Helvetica,sans-Serif" font-size="10.00" fill="#000000">Species_Base::mortalityRate</text>
<text text-anchor="middle" x="72" y="-7.5" font-family="Helvetica,sans-Serif" font-size="10.00" fill="#000000">Gradient</text>
</g>
<!-- Node98 -->
<g id="node2" class="node">
<title>Node98</title>
<g id="a_node2"><a xlink:href="classSolver.html#a23be16428b7ba399bfd2f06555547f6b" target="_top" xlink:title="Solver::calcRates_EBT">
<polygon fill="none" stroke="#000000" points="180,-6 180,-25 299,-25 299,-6 180,-6"/>
<text text-anchor="middle" x="239.5" y="-13" font-family="Helvetica,sans-Serif" font-size="10.00" fill="#000000">Solver::calcRates_EBT</text>
</a>
</g>
</g>
<!-- Node97&#45;&gt;Node98 -->
<g id="edge1" class="edge">
<title>Node97&#45;&gt;Node98</title>
<path fill="none" stroke="#191970" d="M154.1622,-15.5C162.8407,-15.5 171.5419,-15.5 179.893,-15.5"/>
<polygon fill="#191970" stroke="#191970" points="154.0072,-12.0001 144.0072,-15.5 154.0071,-19.0001 154.0072,-12.0001"/>
</g>
<!-- Node99 -->
<g id="node3" class="node">
<title>Node99</title>
<g id="a_node3"><a xlink:href="classSolver.html#af4c8f6565df94ed6a058a224196b9c2b" target="_top" xlink:title="Solver::step_to">
<polygon fill="none" stroke="#000000" points="335,-6 335,-25 418,-25 418,-6 335,-6"/>
<text text-anchor="middle" x="376.5" y="-13" font-family="Helvetica,sans-Serif" font-size="10.00" fill="#000000">Solver::step_to</text>
</a>
</g>
</g>
<!-- Node98&#45;&gt;Node99 -->
<g id="edge2" class="edge">
<title>Node98&#45;&gt;Node99</title>
<path fill="none" stroke="#191970" d="M309.3444,-15.5C318.0102,-15.5 326.6473,-15.5 334.7006,-15.5"/>
<polygon fill="#191970" stroke="#191970" points="309.1917,-12.0001 299.1917,-15.5 309.1916,-19.0001 309.1917,-12.0001"/>
</g>
<!-- Node100 -->
<g id="node4" class="node">
<title>Node100</title>
<g id="a_node4"><a xlink:href="classSolver.html#a06cf82d0a99490279ab20d2ad6b876db" target="_top" xlink:title="Solver::step_to">
<polygon fill="none" stroke="#000000" points="454,-6 454,-25 537,-25 537,-6 454,-6"/>
<text text-anchor="middle" x="495.5" y="-13" font-family="Helvetica,sans-Serif" font-size="10.00" fill="#000000">Solver::step_to</text>
</a>
</g>
</g>
<!-- Node99&#45;&gt;Node100 -->
<g id="edge3" class="edge">
<title>Node99&#45;&gt;Node100</title>
<path fill="none" stroke="#191970" d="M428.3174,-15.5C436.8022,-15.5 445.499,-15.5 453.7019,-15.5"/>
<polygon fill="#191970" stroke="#191970" points="428.1205,-12.0001 418.1204,-15.5 428.1204,-19.0001 428.1205,-12.0001"/>
</g>
</g>
</svg>
