<?xml version="1.0" encoding="UTF-8" standalone="no"?>
<!DOCTYPE svg PUBLIC "-//W3C//DTD SVG 1.1//EN"
 "http://www.w3.org/Graphics/SVG/1.1/DTD/svg11.dtd">
<!-- Generated by graphviz version 2.40.1 (20161225.0304)
 -->
<!-- Title: RKCK45::get_fn_evals Pages: 1 -->
<svg width="383pt" height="75pt"
 viewBox="0.00 0.00 383.00 75.00" xmlns="http://www.w3.org/2000/svg" xmlns:xlink="http://www.w3.org/1999/xlink">
<g id="graph0" class="graph" transform="scale(1 1) rotate(0) translate(4 71)">
<title>RKCK45::get_fn_evals</title>
<!-- Node2 -->
<g id="node1" class="node">
<title>Node2</title>
<polygon fill="#bfbfbf" stroke="#000000" points="0,-28.5 0,-47.5 117,-47.5 117,-28.5 0,-28.5"/>
<text text-anchor="middle" x="58.5" y="-35.5" font-family="Helvetica,sans-Serif" font-size="10.00" fill="#000000">RKCK45::get_fn_evals</text>
</g>
<!-- Node3 -->
<g id="node2" class="node">
<title>Node3</title>
<g id="a_node2"><a xlink:href="classRKCK45.html#aa61f9dd524bbc30f9c5480a868378c1f" target="_top" xlink:title="RKCK45::RKTry">
<polygon fill="none" stroke="#000000" points="285,-47.5 285,-66.5 375,-66.5 375,-47.5 285,-47.5"/>
<text text-anchor="middle" x="330" y="-54.5" font-family="Helvetica,sans-Serif" font-size="10.00" fill="#000000">RKCK45::RKTry</text>
</a>
</g>
</g>
<!-- Node2&#45;&gt;Node3 -->
<g id="edge1" class="edge">
<title>Node2&#45;&gt;Node3</title>
<path fill="none" stroke="#191970" d="M96.8598,-47.5099C113.9302,-51.2749 134.3494,-55.1437 153,-57 193.633,-61.0443 239.7734,-60.8901 274.7556,-59.8062"/>
<polygon fill="#191970" stroke="#191970" points="274.8994,-63.3035 284.773,-59.4613 274.6584,-56.3076 274.8994,-63.3035"/>
</g>
<!-- Node4 -->
<g id="node3" class="node">
<title>Node4</title>
<g id="a_node3"><a xlink:href="classRKCK45.html#a25808387ad46ff36ec579617c5ba9eee" target="_top" xlink:title="RKCK45::h">
<polygon fill="none" stroke="#000000" points="296.5,-.5 296.5,-19.5 363.5,-19.5 363.5,-.5 296.5,-.5"/>
<text text-anchor="middle" x="330" y="-7.5" font-family="Helvetica,sans-Serif" font-size="10.00" fill="#000000">RKCK45::h</text>
</a>
</g>
</g>
<!-- Node2&#45;&gt;Node4 -->
<g id="edge2" class="edge">
<title>Node2&#45;&gt;Node4</title>
<path fill="none" stroke="#191970" d="M99.2172,-28.4448C115.809,-24.9098 135.2328,-21.2255 153,-19 198.1544,-13.3441 250.213,-11.2194 286.1266,-10.4336"/>
<polygon fill="#191970" stroke="#191970" points="286.3373,-13.9302 296.2679,-10.2379 286.2022,-6.9315 286.3373,-13.9302"/>
</g>
<!-- Node5 -->
<g id="node4" class="node">
<title>Node5</title>
<g id="a_node4"><a xlink:href="classRKCK45.html#adfa11ff7b8da1b21aea9e457ac4e9d1c" target="_top" xlink:title="RKCK45::RKStep">
<polygon fill="none" stroke="#000000" points="153,-28.5 153,-47.5 249,-47.5 249,-28.5 153,-28.5"/>
<text text-anchor="middle" x="201" y="-35.5" font-family="Helvetica,sans-Serif" font-size="10.00" fill="#000000">RKCK45::RKStep</text>
</a>
</g>
</g>
<!-- Node2&#45;&gt;Node5 -->
<g id="edge3" class="edge">
<title>Node2&#45;&gt;Node5</title>
<path fill="none" stroke="#191970" d="M117.2829,-38C125.6767,-38 134.3087,-38 142.6933,-38"/>
<polygon fill="#191970" stroke="#191970" points="142.7654,-41.5001 152.7653,-38 142.7653,-34.5001 142.7654,-41.5001"/>
</g>
<!-- Node5&#45;&gt;Node3 -->
<g id="edge5" class="edge">
<title>Node5&#45;&gt;Node3</title>
<path fill="none" stroke="#191970" d="M249.0348,-45.0749C257.4787,-46.3186 266.326,-47.6217 274.9434,-48.8909"/>
<polygon fill="#191970" stroke="#191970" points="274.5127,-52.3651 284.916,-50.3597 275.5328,-45.4398 274.5127,-52.3651"/>
</g>
<!-- Node5&#45;&gt;Node4 -->
<g id="edge4" class="edge">
<title>Node5&#45;&gt;Node4</title>
<path fill="none" stroke="#191970" d="M245.0337,-28.4423C258.4112,-25.5387 273.099,-22.3506 286.4449,-19.4538"/>
<polygon fill="#191970" stroke="#191970" points="287.3149,-22.8466 296.345,-17.305 285.8301,-16.0058 287.3149,-22.8466"/>
</g>
</g>
</svg>
