<?xml version="1.0" encoding="UTF-8" standalone="no"?>
<!DOCTYPE svg PUBLIC "-//W3C//DTD SVG 1.1//EN"
 "http://www.w3.org/Graphics/SVG/1.1/DTD/svg11.dtd">
<!-- Generated by graphviz version 2.40.1 (20161225.0304)
 -->
<!-- Title: RKCK45::h Pages: 1 -->
<svg width="486pt" height="85pt"
 viewBox="0.00 0.00 486.00 85.00" xmlns="http://www.w3.org/2000/svg" xmlns:xlink="http://www.w3.org/1999/xlink">
<g id="graph0" class="graph" transform="scale(1 1) rotate(0) translate(4 81)">
<title>RKCK45::h</title>
<!-- Node16 -->
<g id="node1" class="node">
<title>Node16</title>
<polygon fill="#bfbfbf" stroke="#000000" points="0,-57.5 0,-76.5 67,-76.5 67,-57.5 0,-57.5"/>
<text text-anchor="middle" x="33.5" y="-64.5" font-family="Helvetica,sans-Serif" font-size="10.00" fill="#000000">RKCK45::h</text>
</g>
<!-- Node17 -->
<g id="node2" class="node">
<title>Node17</title>
<g id="a_node2"><a xlink:href="classRKCK45.html#a5c883118b935daa56c54f9a39f247b7e" target="_top" xlink:title="RKCK45::get_fn_evals">
<polygon fill="none" stroke="#000000" points="361,-57.5 361,-76.5 478,-76.5 478,-57.5 361,-57.5"/>
<text text-anchor="middle" x="419.5" y="-64.5" font-family="Helvetica,sans-Serif" font-size="10.00" fill="#000000">RKCK45::get_fn_evals</text>
</a>
</g>
</g>
<!-- Node16&#45;&gt;Node17 -->
<g id="edge1" class="edge">
<title>Node16&#45;&gt;Node17</title>
<path fill="none" stroke="#191970" d="M77.2573,-67C146.8626,-67 282.8842,-67 360.852,-67"/>
<polygon fill="#191970" stroke="#191970" points="77.0798,-63.5001 67.0797,-67 77.0797,-70.5001 77.0798,-63.5001"/>
</g>
<!-- Node18 -->
<g id="node3" class="node">
<title>Node18</title>
<g id="a_node3"><a xlink:href="classRKCK45.html#a9ce8515e634e6937f8587d280d18d18a" target="_top" xlink:title="RKCK45::RKStep">
<polygon fill="none" stroke="#000000" points="103,-19.5 103,-38.5 199,-38.5 199,-19.5 103,-19.5"/>
<text text-anchor="middle" x="151" y="-26.5" font-family="Helvetica,sans-Serif" font-size="10.00" fill="#000000">RKCK45::RKStep</text>
</a>
</g>
</g>
<!-- Node16&#45;&gt;Node18 -->
<g id="edge2" class="edge">
<title>Node16&#45;&gt;Node18</title>
<path fill="none" stroke="#191970" d="M72.7092,-54.3196C88.5854,-49.1852 106.61,-43.3559 121.3593,-38.5859"/>
<polygon fill="#191970" stroke="#191970" points="71.588,-51.0036 63.1502,-57.411 73.742,-57.664 71.588,-51.0036"/>
</g>
<!-- Node18&#45;&gt;Node17 -->
<g id="edge4" class="edge">
<title>Node18&#45;&gt;Node17</title>
<path fill="none" stroke="#191970" d="M198.9288,-40.8819C210.6728,-43.5048 223.2458,-46.0726 235,-48 276.7858,-54.852 324.3252,-59.678 360.6816,-62.7514"/>
<polygon fill="#191970" stroke="#191970" points="199.392,-37.3974 188.8631,-38.5774 197.8298,-44.2209 199.392,-37.3974"/>
</g>
<!-- Node19 -->
<g id="node4" class="node">
<title>Node19</title>
<g id="a_node4"><a xlink:href="classRKCK45.html#a8779263975ee2b9cc3c37bd024e8b658" target="_top" xlink:title="RKCK45::size">
<polygon fill="none" stroke="#000000" points="379.5,-.5 379.5,-19.5 459.5,-19.5 459.5,-.5 379.5,-.5"/>
<text text-anchor="middle" x="419.5" y="-7.5" font-family="Helvetica,sans-Serif" font-size="10.00" fill="#000000">RKCK45::size</text>
</a>
</g>
</g>
<!-- Node18&#45;&gt;Node19 -->
<g id="edge3" class="edge">
<title>Node18&#45;&gt;Node19</title>
<path fill="none" stroke="#191970" d="M194.9892,-17.116C207.7922,-14.185 221.868,-11.4666 235,-10 284.5008,-4.4715 341.9393,-5.6593 379.4084,-7.4439"/>
<polygon fill="#191970" stroke="#191970" points="193.9503,-13.7656 185.0366,-19.4923 195.5761,-20.5742 193.9503,-13.7656"/>
</g>
<!-- Node20 -->
<g id="node5" class="node">
<title>Node20</title>
<g id="a_node5"><a xlink:href="classRKCK45.html#ab304a56995de997c15d992f5665b94e5" target="_top" xlink:title="RKCK45::RKTry">
<polygon fill="none" stroke="#000000" points="235,-19.5 235,-38.5 325,-38.5 325,-19.5 235,-19.5"/>
<text text-anchor="middle" x="280" y="-26.5" font-family="Helvetica,sans-Serif" font-size="10.00" fill="#000000">RKCK45::RKTry</text>
</a>
</g>
</g>
<!-- Node18&#45;&gt;Node20 -->
<g id="edge5" class="edge">
<title>Node18&#45;&gt;Node20</title>
<path fill="none" stroke="#191970" d="M209.0946,-22.2797C217.7572,-22.1992 226.5754,-22.2825 234.916,-22.5295"/>
<polygon fill="#191970" stroke="#191970" points="208.9743,-18.7811 199.0348,-22.4494 209.0925,-25.7801 208.9743,-18.7811"/>
</g>
<!-- Node20&#45;&gt;Node17 -->
<g id="edge7" class="edge">
<title>Node20&#45;&gt;Node17</title>
<path fill="none" stroke="#191970" d="M324.9564,-41.2462C344.1848,-46.484 366.3031,-52.5091 384.3095,-57.4141"/>
<polygon fill="#191970" stroke="#191970" points="325.7701,-37.8404 315.2017,-38.589 323.9303,-44.5943 325.7701,-37.8404"/>
</g>
<!-- Node20&#45;&gt;Node18 -->
<g id="edge8" class="edge">
<title>Node20&#45;&gt;Node18</title>
<path fill="none" stroke="#191970" d="M224.6623,-35.6891C216.1337,-35.8032 207.3869,-35.757 199.0348,-35.5506"/>
<polygon fill="#191970" stroke="#191970" points="224.9929,-39.1829 234.916,-35.4705 224.8437,-32.1845 224.9929,-39.1829"/>
</g>
<!-- Node20&#45;&gt;Node19 -->
<g id="edge6" class="edge">
<title>Node20&#45;&gt;Node19</title>
<path fill="none" stroke="#191970" d="M335.2573,-21.4739C349.9066,-19.4787 365.4482,-17.3619 379.1406,-15.497"/>
<polygon fill="#191970" stroke="#191970" points="334.7278,-18.0136 325.2917,-22.8312 335.6725,-24.9496 334.7278,-18.0136"/>
</g>
</g>
</svg>
