<?xml version="1.0" encoding="UTF-8" standalone="no"?>
<!DOCTYPE svg PUBLIC "-//W3C//DTD SVG 1.1//EN"
 "http://www.w3.org/Graphics/SVG/1.1/DTD/svg11.dtd">
<!-- Generated by graphviz version 2.40.1 (20161225.0304)
 -->
<!-- Title: LSODA::terminate Pages: 1 -->
<svg width="746pt" height="28pt"
 viewBox="0.00 0.00 746.00 28.00" xmlns="http://www.w3.org/2000/svg" xmlns:xlink="http://www.w3.org/1999/xlink">
<g id="graph0" class="graph" transform="scale(1 1) rotate(0) translate(4 24)">
<title>LSODA::terminate</title>
<!-- Node246 -->
<g id="node1" class="node">
<title>Node246</title>
<polygon fill="#bfbfbf" stroke="#000000" points="0,-.5 0,-19.5 97,-19.5 97,-.5 0,-.5"/>
<text text-anchor="middle" x="48.5" y="-7.5" font-family="Helvetica,sans-Serif" font-size="10.00" fill="#000000">LSODA::terminate</text>
</g>
<!-- Node247 -->
<g id="node2" class="node">
<title>Node247</title>
<g id="a_node2"><a xlink:href="classLSODA.html#a705dcfe5b21827adb8871e48f2c72fb2" target="_top" xlink:title="LSODA::lsoda">
<polygon fill="none" stroke="#000000" points="133,-.5 133,-19.5 213,-19.5 213,-.5 133,-.5"/>
<text text-anchor="middle" x="173" y="-7.5" font-family="Helvetica,sans-Serif" font-size="10.00" fill="#000000">LSODA::lsoda</text>
</a>
</g>
</g>
<!-- Node246&#45;&gt;Node247 -->
<g id="edge1" class="edge">
<title>Node246&#45;&gt;Node247</title>
<path fill="none" stroke="#191970" d="M107.3533,-10C115.9434,-10 124.62,-10 132.7262,-10"/>
<polygon fill="#191970" stroke="#191970" points="107.3484,-6.5001 97.3484,-10 107.3483,-13.5001 107.3484,-6.5001"/>
</g>
<!-- Node248 -->
<g id="node3" class="node">
<title>Node248</title>
<g id="a_node3"><a xlink:href="classLSODA.html#a391e4d7bea026ad7c300cfb55cb290d1" target="_top" xlink:title="LSODA::lsoda_update">
<polygon fill="none" stroke="#000000" points="249,-.5 249,-19.5 363,-19.5 363,-.5 249,-.5"/>
<text text-anchor="middle" x="306" y="-7.5" font-family="Helvetica,sans-Serif" font-size="10.00" fill="#000000">LSODA::lsoda_update</text>
</a>
</g>
</g>
<!-- Node247&#45;&gt;Node248 -->
<g id="edge2" class="edge">
<title>Node247&#45;&gt;Node248</title>
<path fill="none" stroke="#191970" d="M223.4762,-10C231.7175,-10 240.3078,-10 248.6989,-10"/>
<polygon fill="#191970" stroke="#191970" points="223.2653,-6.5001 213.2653,-10 223.2653,-13.5001 223.2653,-6.5001"/>
</g>
<!-- Node249 -->
<g id="node4" class="node">
<title>Node249</title>
<g id="a_node4"><a xlink:href="classOdeSolver.html#a77d9f02ed28d5515366e6be08560f35a" target="_top" xlink:title="OdeSolver::step_to">
<polygon fill="none" stroke="#000000" points="399,-.5 399,-19.5 500,-19.5 500,-.5 399,-.5"/>
<text text-anchor="middle" x="449.5" y="-7.5" font-family="Helvetica,sans-Serif" font-size="10.00" fill="#000000">OdeSolver::step_to</text>
</a>
</g>
</g>
<!-- Node248&#45;&gt;Node249 -->
<g id="edge3" class="edge">
<title>Node248&#45;&gt;Node249</title>
<path fill="none" stroke="#191970" d="M373.3985,-10C381.8783,-10 390.4395,-10 398.6059,-10"/>
<polygon fill="#191970" stroke="#191970" points="373.1274,-6.5001 363.1273,-10 373.1273,-13.5001 373.1274,-6.5001"/>
</g>
<!-- Node250 -->
<g id="node5" class="node">
<title>Node250</title>
<g id="a_node5"><a xlink:href="classSolver.html#af4c8f6565df94ed6a058a224196b9c2b" target="_top" xlink:title="Solver::step_to">
<polygon fill="none" stroke="#000000" points="536,-.5 536,-19.5 619,-19.5 619,-.5 536,-.5"/>
<text text-anchor="middle" x="577.5" y="-7.5" font-family="Helvetica,sans-Serif" font-size="10.00" fill="#000000">Solver::step_to</text>
</a>
</g>
</g>
<!-- Node249&#45;&gt;Node250 -->
<g id="edge4" class="edge">
<title>Node249&#45;&gt;Node250</title>
<path fill="none" stroke="#191970" d="M510.2268,-10C518.9273,-10 527.7087,-10 535.9255,-10"/>
<polygon fill="#191970" stroke="#191970" points="510.089,-6.5001 500.089,-10 510.089,-13.5001 510.089,-6.5001"/>
</g>
<!-- Node251 -->
<g id="node6" class="node">
<title>Node251</title>
<g id="a_node6"><a xlink:href="classSolver.html#a06cf82d0a99490279ab20d2ad6b876db" target="_top" xlink:title="Solver::step_to">
<polygon fill="none" stroke="#000000" points="655,-.5 655,-19.5 738,-19.5 738,-.5 655,-.5"/>
<text text-anchor="middle" x="696.5" y="-7.5" font-family="Helvetica,sans-Serif" font-size="10.00" fill="#000000">Solver::step_to</text>
</a>
</g>
</g>
<!-- Node250&#45;&gt;Node251 -->
<g id="edge5" class="edge">
<title>Node250&#45;&gt;Node251</title>
<path fill="none" stroke="#191970" d="M629.3174,-10C637.8022,-10 646.499,-10 654.7019,-10"/>
<polygon fill="#191970" stroke="#191970" points="629.1205,-6.5001 619.1204,-10 629.1204,-13.5001 629.1205,-6.5001"/>
</g>
</g>
</svg>
