<?xml version="1.0" encoding="UTF-8" standalone="no"?>
<!DOCTYPE svg PUBLIC "-//W3C//DTD SVG 1.1//EN"
 "http://www.w3.org/Graphics/SVG/1.1/DTD/svg11.dtd">
<!-- Generated by graphviz version 2.40.1 (20161225.0304)
 -->
<!-- Title: Solver::calcRates_EBT Pages: 1 -->
<svg width="312pt" height="377pt"
 viewBox="0.00 0.00 312.00 377.00" xmlns="http://www.w3.org/2000/svg" xmlns:xlink="http://www.w3.org/1999/xlink">
<g id="graph0" class="graph" transform="scale(1 1) rotate(0) translate(4 373)">
<title>Solver::calcRates_EBT</title>
<!-- Node33 -->
<g id="node1" class="node">
<title>Node33</title>
<polygon fill="#bfbfbf" stroke="#000000" points="0,-169.5 0,-188.5 119,-188.5 119,-169.5 0,-169.5"/>
<text text-anchor="middle" x="59.5" y="-176.5" font-family="Helvetica,sans-Serif" font-size="10.00" fill="#000000">Solver::calcRates_EBT</text>
</g>
<!-- Node34 -->
<g id="node2" class="node">
<title>Node34</title>
<g id="a_node2"><a xlink:href="classSpecies__Base.html#aa6880c6f5c8ff125cab4d1195dedfb13" target="_top" xlink:title="Species_Base::getX">
<polygon fill="none" stroke="#000000" points="176.5,-349.5 176.5,-368.5 282.5,-368.5 282.5,-349.5 176.5,-349.5"/>
<text text-anchor="middle" x="229.5" y="-356.5" font-family="Helvetica,sans-Serif" font-size="10.00" fill="#000000">Species_Base::getX</text>
</a>
</g>
</g>
<!-- Node33&#45;&gt;Node34 -->
<g id="edge1" class="edge">
<title>Node33&#45;&gt;Node34</title>
<path fill="none" stroke="#191970" d="M62.35,-188.7653C71.1019,-216.9636 100.3636,-299.1027 155,-340 158.6449,-342.7283 162.6411,-345.0669 166.8303,-347.0712"/>
<polygon fill="#191970" stroke="#191970" points="165.6683,-350.3778 176.2479,-350.9464 168.3321,-343.9044 165.6683,-350.3778"/>
</g>
<!-- Node35 -->
<g id="node3" class="node">
<title>Node35</title>
<g id="a_node3"><a xlink:href="classSpecies__Base.html#ad412522fc071525a19f95609880b20ff" target="_top" xlink:title="Species_Base::getU">
<polygon fill="none" stroke="#000000" points="176,-311.5 176,-330.5 283,-330.5 283,-311.5 176,-311.5"/>
<text text-anchor="middle" x="229.5" y="-318.5" font-family="Helvetica,sans-Serif" font-size="10.00" fill="#000000">Species_Base::getU</text>
</a>
</g>
</g>
<!-- Node33&#45;&gt;Node35 -->
<g id="edge2" class="edge">
<title>Node33&#45;&gt;Node35</title>
<path fill="none" stroke="#191970" d="M64.1828,-188.7648C75.9436,-212.2013 109.0987,-271.9168 155,-302 158.5795,-304.3459 162.4309,-306.4023 166.4301,-308.2048"/>
<polygon fill="#191970" stroke="#191970" points="165.3843,-311.5546 175.9711,-311.9667 167.952,-305.0425 165.3843,-311.5546"/>
</g>
<!-- Node36 -->
<g id="node4" class="node">
<title>Node36</title>
<g id="a_node4"><a xlink:href="classSpecies__Base.html#ad68f257218879207e9f6ed4cf3bd7eef" target="_top" xlink:title="Species_Base::growthRate\lGradient">
<polygon fill="none" stroke="#000000" points="161.5,-262 161.5,-292 297.5,-292 297.5,-262 161.5,-262"/>
<text text-anchor="start" x="169.5" y="-280" font-family="Helvetica,sans-Serif" font-size="10.00" fill="#000000">Species_Base::growthRate</text>
<text text-anchor="middle" x="229.5" y="-269" font-family="Helvetica,sans-Serif" font-size="10.00" fill="#000000">Gradient</text>
</a>
</g>
</g>
<!-- Node33&#45;&gt;Node36 -->
<g id="edge3" class="edge">
<title>Node33&#45;&gt;Node36</title>
<path fill="none" stroke="#191970" d="M69.5431,-188.7408C86.0897,-204.3119 120.6795,-234.8945 155,-253 158.4835,-254.8377 162.1333,-256.567 165.8669,-258.1887"/>
<polygon fill="#191970" stroke="#191970" points="164.6911,-261.4886 175.2737,-261.9992 167.3193,-255.0007 164.6911,-261.4886"/>
</g>
<!-- Node37 -->
<g id="node5" class="node">
<title>Node37</title>
<g id="a_node5"><a xlink:href="classSpecies__Base.html#a83ff45fc4f334241eeae08d523d343b5" target="_top" xlink:title="Species_Base::mortalityRate\lGradient">
<polygon fill="none" stroke="#000000" points="157.5,-213 157.5,-243 301.5,-243 301.5,-213 157.5,-213"/>
<text text-anchor="start" x="165.5" y="-231" font-family="Helvetica,sans-Serif" font-size="10.00" fill="#000000">Species_Base::mortalityRate</text>
<text text-anchor="middle" x="229.5" y="-220" font-family="Helvetica,sans-Serif" font-size="10.00" fill="#000000">Gradient</text>
</a>
</g>
</g>
<!-- Node33&#45;&gt;Node37 -->
<g id="edge4" class="edge">
<title>Node33&#45;&gt;Node37</title>
<path fill="none" stroke="#191970" d="M92.6813,-188.564C113.9219,-194.6863 142.1435,-202.8208 167.4365,-210.1111"/>
<polygon fill="#191970" stroke="#191970" points="166.7527,-213.5565 177.3309,-212.963 168.6915,-206.8303 166.7527,-213.5565"/>
</g>
<!-- Node38 -->
<g id="node6" class="node">
<title>Node38</title>
<g id="a_node6"><a xlink:href="classSpecies__Base.html#aad4cefae53644171dfcd12639d2e0e63" target="_top" xlink:title="Species_Base::establishment\lProbability">
<polygon fill="none" stroke="#000000" points="156.5,-164 156.5,-194 302.5,-194 302.5,-164 156.5,-164"/>
<text text-anchor="start" x="164.5" y="-182" font-family="Helvetica,sans-Serif" font-size="10.00" fill="#000000">Species_Base::establishment</text>
<text text-anchor="middle" x="229.5" y="-171" font-family="Helvetica,sans-Serif" font-size="10.00" fill="#000000">Probability</text>
</a>
</g>
</g>
<!-- Node33&#45;&gt;Node38 -->
<g id="edge5" class="edge">
<title>Node33&#45;&gt;Node38</title>
<path fill="none" stroke="#191970" d="M119.4356,-179C128.1175,-179 137.1825,-179 146.2215,-179"/>
<polygon fill="#191970" stroke="#191970" points="146.394,-182.5001 156.394,-179 146.394,-175.5001 146.394,-182.5001"/>
</g>
<!-- Node39 -->
<g id="node7" class="node">
<title>Node39</title>
<g id="a_node7"><a xlink:href="classSpecies__Base.html#a0954e7ce15766c2bae1731fe5d8decd2" target="_top" xlink:title="Species_Base::calc\l_boundary_u">
<polygon fill="none" stroke="#000000" points="177.5,-115 177.5,-145 281.5,-145 281.5,-115 177.5,-115"/>
<text text-anchor="start" x="185.5" y="-133" font-family="Helvetica,sans-Serif" font-size="10.00" fill="#000000">Species_Base::calc</text>
<text text-anchor="middle" x="229.5" y="-122" font-family="Helvetica,sans-Serif" font-size="10.00" fill="#000000">_boundary_u</text>
</a>
</g>
</g>
<!-- Node33&#45;&gt;Node39 -->
<g id="edge6" class="edge">
<title>Node33&#45;&gt;Node39</title>
<path fill="none" stroke="#191970" d="M92.6813,-169.436C113.9219,-163.3137 142.1435,-155.1792 167.4365,-147.8889"/>
<polygon fill="#191970" stroke="#191970" points="168.6915,-151.1697 177.3309,-145.037 166.7527,-144.4435 168.6915,-151.1697"/>
</g>
<!-- Node40 -->
<g id="node8" class="node">
<title>Node40</title>
<g id="a_node8"><a xlink:href="classSpecies__Base.html#abe98e190e76cfd39eee7ef3d30141d53" target="_top" xlink:title="Species_Base::growthRate">
<polygon fill="none" stroke="#000000" points="161.5,-76.5 161.5,-95.5 297.5,-95.5 297.5,-76.5 161.5,-76.5"/>
<text text-anchor="middle" x="229.5" y="-83.5" font-family="Helvetica,sans-Serif" font-size="10.00" fill="#000000">Species_Base::growthRate</text>
</a>
</g>
</g>
<!-- Node33&#45;&gt;Node40 -->
<g id="edge7" class="edge">
<title>Node33&#45;&gt;Node40</title>
<path fill="none" stroke="#191970" d="M69.2048,-169.4562C85.5413,-153.9119 120.175,-123.1441 155,-106 160.6771,-103.2052 166.7964,-100.7608 173.0014,-98.6326"/>
<polygon fill="#191970" stroke="#191970" points="174.2917,-101.8955 182.7714,-95.5436 172.1814,-95.2211 174.2917,-101.8955"/>
</g>
<!-- Node41 -->
<g id="node9" class="node">
<title>Node41</title>
<g id="a_node9"><a xlink:href="classSpecies__Base.html#a59ab3c647c48a819f1911957e5724d5e" target="_top" xlink:title="Species_Base::mortalityRate">
<polygon fill="none" stroke="#000000" points="157.5,-38.5 157.5,-57.5 301.5,-57.5 301.5,-38.5 157.5,-38.5"/>
<text text-anchor="middle" x="229.5" y="-45.5" font-family="Helvetica,sans-Serif" font-size="10.00" fill="#000000">Species_Base::mortalityRate</text>
</a>
</g>
</g>
<!-- Node33&#45;&gt;Node41 -->
<g id="edge8" class="edge">
<title>Node33&#45;&gt;Node41</title>
<path fill="none" stroke="#191970" d="M64.7937,-169.4736C77.3959,-147.716 111.4075,-94.1624 155,-67 158.4075,-64.8768 162.0427,-62.9902 165.8051,-61.314"/>
<polygon fill="#191970" stroke="#191970" points="167.3305,-64.4754 175.3621,-57.5657 164.7745,-57.9587 167.3305,-64.4754"/>
</g>
<!-- Node42 -->
<g id="node10" class="node">
<title>Node42</title>
<g id="a_node10"><a xlink:href="classSpecies__Base.html#a1c47d1905fa4da0a1f203f641f6ed2af" target="_top" xlink:title="Species_Base::getExtraRates">
<polygon fill="none" stroke="#000000" points="155,-.5 155,-19.5 304,-19.5 304,-.5 155,-.5"/>
<text text-anchor="middle" x="229.5" y="-7.5" font-family="Helvetica,sans-Serif" font-size="10.00" fill="#000000">Species_Base::getExtraRates</text>
</a>
</g>
</g>
<!-- Node33&#45;&gt;Node42 -->
<g id="edge9" class="edge">
<title>Node33&#45;&gt;Node42</title>
<path fill="none" stroke="#191970" d="M62.8281,-169.1296C72.4523,-142.1473 102.9926,-66.6636 155,-29 157.7027,-27.0427 160.588,-25.2865 163.5945,-23.7108"/>
<polygon fill="#191970" stroke="#191970" points="165.2408,-26.8078 172.9161,-19.5044 162.3615,-20.4274 165.2408,-26.8078"/>
</g>
</g>
</svg>
