<?xml version="1.0" encoding="UTF-8" standalone="no"?>
<!DOCTYPE svg PUBLIC "-//W3C//DTD SVG 1.1//EN"
 "http://www.w3.org/Graphics/SVG/1.1/DTD/svg11.dtd">
<!-- Generated by graphviz version 2.40.1 (20161225.0304)
 -->
<!-- Title: thomas_solve Pages: 1 -->
<svg width="551pt" height="91pt"
 viewBox="0.00 0.00 551.00 91.00" xmlns="http://www.w3.org/2000/svg" xmlns:xlink="http://www.w3.org/1999/xlink">
<g id="graph0" class="graph" transform="scale(1 1) rotate(0) translate(4 87)">
<title>thomas_solve</title>
<!-- Node7 -->
<g id="node1" class="node">
<title>Node7</title>
<polygon fill="#bfbfbf" stroke="#000000" points="0,-22.5 0,-41.5 77,-41.5 77,-22.5 0,-22.5"/>
<text text-anchor="middle" x="38.5" y="-29.5" font-family="Helvetica,sans-Serif" font-size="10.00" fill="#000000">thomas_solve</text>
</g>
<!-- Node8 -->
<g id="node2" class="node">
<title>Node8</title>
<g id="a_node2"><a xlink:href="classSpline.html#a387b90e40d7bc335fed9163123f45827" target="_top" xlink:title="Spline::solve_coeffs\l_cubic">
<polygon fill="none" stroke="#000000" points="113,-39 113,-69 218,-69 218,-39 113,-39"/>
<text text-anchor="start" x="121" y="-57" font-family="Helvetica,sans-Serif" font-size="10.00" fill="#000000">Spline::solve_coeffs</text>
<text text-anchor="middle" x="165.5" y="-46" font-family="Helvetica,sans-Serif" font-size="10.00" fill="#000000">_cubic</text>
</a>
</g>
</g>
<!-- Node7&#45;&gt;Node8 -->
<g id="edge1" class="edge">
<title>Node7&#45;&gt;Node8</title>
<path fill="none" stroke="#191970" d="M87.3,-40.4535C95.6848,-41.906 104.4313,-43.4212 112.9103,-44.89"/>
<polygon fill="#191970" stroke="#191970" points="87.745,-36.9786 77.2943,-38.7203 86.5501,-43.8759 87.745,-36.9786"/>
</g>
<!-- Node12 -->
<g id="node6" class="node">
<title>Node12</title>
<g id="a_node6"><a xlink:href="classBandMatrix.html#afe93a8c9ba520e3adf955e26f5b55dbd" target="_top" xlink:title="BandMatrix::solve">
<polygon fill="none" stroke="#000000" points="118,-.5 118,-19.5 213,-19.5 213,-.5 118,-.5"/>
<text text-anchor="middle" x="165.5" y="-7.5" font-family="Helvetica,sans-Serif" font-size="10.00" fill="#000000">BandMatrix::solve</text>
</a>
</g>
</g>
<!-- Node7&#45;&gt;Node12 -->
<g id="edge5" class="edge">
<title>Node7&#45;&gt;Node12</title>
<path fill="none" stroke="#191970" d="M87.1816,-23.567C97.2865,-21.8165 107.9217,-19.9742 117.9841,-18.2311"/>
<polygon fill="#191970" stroke="#191970" points="86.5501,-20.1241 77.2943,-25.2797 87.745,-27.0214 86.5501,-20.1241"/>
</g>
<!-- Node9 -->
<g id="node3" class="node">
<title>Node9</title>
<g id="a_node3"><a xlink:href="classSpline.html#a42eec80590bdc7fa338c4643cf307344" target="_top" xlink:title="Spline::set_points">
<polygon fill="none" stroke="#000000" points="254,-44.5 254,-63.5 349,-63.5 349,-44.5 254,-44.5"/>
<text text-anchor="middle" x="301.5" y="-51.5" font-family="Helvetica,sans-Serif" font-size="10.00" fill="#000000">Spline::set_points</text>
</a>
</g>
</g>
<!-- Node8&#45;&gt;Node9 -->
<g id="edge2" class="edge">
<title>Node8&#45;&gt;Node9</title>
<path fill="none" stroke="#191970" d="M228.1673,-54C236.8336,-54 245.6161,-54 253.9472,-54"/>
<polygon fill="#191970" stroke="#191970" points="228.0812,-50.5001 218.0812,-54 228.0811,-57.5001 228.0812,-50.5001"/>
</g>
<!-- Node10 -->
<g id="node4" class="node">
<title>Node10</title>
<g id="a_node4"><a xlink:href="classSpline.html#a2990afcfd16e90f6b9fa0391fdc9b2b0" target="_top" xlink:title="Spline::constructAndReset">
<polygon fill="none" stroke="#000000" points="397,-63.5 397,-82.5 531,-82.5 531,-63.5 397,-63.5"/>
<text text-anchor="middle" x="464" y="-70.5" font-family="Helvetica,sans-Serif" font-size="10.00" fill="#000000">Spline::constructAndReset</text>
</a>
</g>
</g>
<!-- Node9&#45;&gt;Node10 -->
<g id="edge3" class="edge">
<title>Node9&#45;&gt;Node10</title>
<path fill="none" stroke="#191970" d="M359.378,-60.7673C371.53,-62.1881 384.4443,-63.6981 396.9008,-65.1546"/>
<polygon fill="#191970" stroke="#191970" points="359.7153,-57.283 349.3765,-59.5979 358.9023,-64.2356 359.7153,-57.283"/>
</g>
<!-- Node11 -->
<g id="node5" class="node">
<title>Node11</title>
<g id="a_node5"><a xlink:href="classSolver.html#aca318144131fe7ed314e6e62037dcde6" target="_top" xlink:title="Solver::getDensitySpecies_EBT">
<polygon fill="none" stroke="#000000" points="385,-25.5 385,-44.5 543,-44.5 543,-25.5 385,-25.5"/>
<text text-anchor="middle" x="464" y="-32.5" font-family="Helvetica,sans-Serif" font-size="10.00" fill="#000000">Solver::getDensitySpecies_EBT</text>
</a>
</g>
</g>
<!-- Node9&#45;&gt;Node11 -->
<g id="edge4" class="edge">
<title>Node9&#45;&gt;Node11</title>
<path fill="none" stroke="#191970" d="M359.5386,-47.214C367.7284,-46.2564 376.2618,-45.2586 384.7657,-44.2643"/>
<polygon fill="#191970" stroke="#191970" points="358.9023,-43.7644 349.3765,-48.4021 359.7153,-50.7171 358.9023,-43.7644"/>
</g>
</g>
</svg>
