<?xml version="1.0" encoding="UTF-8" standalone="no"?>
<!DOCTYPE svg PUBLIC "-//W3C//DTD SVG 1.1//EN"
 "http://www.w3.org/Graphics/SVG/1.1/DTD/svg11.dtd">
<!-- Generated by graphviz version 2.40.1 (20161225.0304)
 -->
<!-- Title: my_lower_bound Pages: 1 -->
<svg width="396pt" height="28pt"
 viewBox="0.00 0.00 396.00 28.00" xmlns="http://www.w3.org/2000/svg" xmlns:xlink="http://www.w3.org/1999/xlink">
<g id="graph0" class="graph" transform="scale(1 1) rotate(0) translate(4 24)">
<title>my_lower_bound</title>
<!-- Node1 -->
<g id="node1" class="node">
<title>Node1</title>
<polygon fill="#bfbfbf" stroke="#000000" points="0,-.5 0,-19.5 90,-19.5 90,-.5 0,-.5"/>
<text text-anchor="middle" x="45" y="-7.5" font-family="Helvetica,sans-Serif" font-size="10.00" fill="#000000">my_lower_bound</text>
</g>
<!-- Node2 -->
<g id="node2" class="node">
<title>Node2</title>
<g id="a_node2"><a xlink:href="classSpline.html#aac2008c210497336b1b4b9992ccde22f" target="_top" xlink:title="Spline::eval">
<polygon fill="none" stroke="#000000" points="126,-.5 126,-19.5 194,-19.5 194,-.5 126,-.5"/>
<text text-anchor="middle" x="160" y="-7.5" font-family="Helvetica,sans-Serif" font-size="10.00" fill="#000000">Spline::eval</text>
</a>
</g>
</g>
<!-- Node1&#45;&gt;Node2 -->
<g id="edge1" class="edge">
<title>Node1&#45;&gt;Node2</title>
<path fill="none" stroke="#191970" d="M100.2292,-10C108.9074,-10 117.6547,-10 125.6787,-10"/>
<polygon fill="#191970" stroke="#191970" points="100.121,-6.5001 90.121,-10 100.1209,-13.5001 100.121,-6.5001"/>
</g>
<!-- Node3 -->
<g id="node3" class="node">
<title>Node3</title>
<g id="a_node3"><a xlink:href="classSolver.html#aca318144131fe7ed314e6e62037dcde6" target="_top" xlink:title="Solver::getDensitySpecies_EBT">
<polygon fill="none" stroke="#000000" points="230,-.5 230,-19.5 388,-19.5 388,-.5 230,-.5"/>
<text text-anchor="middle" x="309" y="-7.5" font-family="Helvetica,sans-Serif" font-size="10.00" fill="#000000">Solver::getDensitySpecies_EBT</text>
</a>
</g>
</g>
<!-- Node2&#45;&gt;Node3 -->
<g id="edge2" class="edge">
<title>Node2&#45;&gt;Node3</title>
<path fill="none" stroke="#191970" d="M204.4057,-10C212.4592,-10 221.0766,-10 229.7803,-10"/>
<polygon fill="#191970" stroke="#191970" points="204.1836,-6.5001 194.1836,-10 204.1836,-13.5001 204.1836,-6.5001"/>
</g>
</g>
</svg>
