<?xml version="1.0" encoding="UTF-8" standalone="no"?>
<!DOCTYPE svg PUBLIC "-//W3C//DTD SVG 1.1//EN"
 "http://www.w3.org/Graphics/SVG/1.1/DTD/svg11.dtd">
<!-- Generated by graphviz version 2.40.1 (20161225.0304)
 -->
<!-- Title: src/ebt.cpp Pages: 1 -->
<svg width="919pt" height="308pt"
 viewBox="0.00 0.00 918.81 308.00" xmlns="http://www.w3.org/2000/svg" xmlns:xlink="http://www.w3.org/1999/xlink">
<g id="graph0" class="graph" transform="scale(1 1) rotate(0) translate(4 304)">
<title>src/ebt.cpp</title>
<!-- Node0 -->
<g id="node1" class="node">
<title>Node0</title>
<polygon fill="#bfbfbf" stroke="#000000" points="471.3817,-280.5 471.3817,-299.5 536.3817,-299.5 536.3817,-280.5 471.3817,-280.5"/>
<text text-anchor="middle" x="503.8817" y="-287.5" font-family="Helvetica,sans-Serif" font-size="10.00" fill="#000000">src/ebt.cpp</text>
</g>
<!-- Node1 -->
<g id="node2" class="node">
<title>Node1</title>
<polygon fill="none" stroke="#bfbfbf" points="740.8817,-56.5 740.8817,-75.5 796.8817,-75.5 796.8817,-56.5 740.8817,-56.5"/>
<text text-anchor="middle" x="768.8817" y="-63.5" font-family="Helvetica,sans-Serif" font-size="10.00" fill="#000000">algorithm</text>
</g>
<!-- Node0&#45;&gt;Node1 -->
<g id="edge1" class="edge">
<title>Node0&#45;&gt;Node1</title>
<path fill="none" stroke="#191970" d="M536.4391,-286.6995C623.2097,-277.1655 856.5104,-246.4655 901.8817,-188 936.8926,-142.8851 854.6427,-100.1725 804.3499,-79.3079"/>
<polygon fill="#191970" stroke="#191970" points="805.6468,-76.0571 795.064,-75.5513 803.0215,-82.5462 805.6468,-76.0571"/>
</g>
<!-- Node2 -->
<g id="node3" class="node">
<title>Node2</title>
<polygon fill="none" stroke="#bfbfbf" points="233.3817,-.5 233.3817,-19.5 282.3817,-19.5 282.3817,-.5 233.3817,-.5"/>
<text text-anchor="middle" x="257.8817" y="-7.5" font-family="Helvetica,sans-Serif" font-size="10.00" fill="#000000">cassert</text>
</g>
<!-- Node0&#45;&gt;Node2 -->
<g id="edge2" class="edge">
<title>Node0&#45;&gt;Node2</title>
<path fill="none" stroke="#191970" d="M471.266,-286.236C359.8039,-272.9393 .8817,-226.367 .8817,-178 .8817,-178 .8817,-178 .8817,-122 .8817,-91.4754 -2.6451,-76.5984 19.8817,-56 49.1196,-29.2651 164.0894,-16.9734 222.8686,-12.3413"/>
<polygon fill="#191970" stroke="#191970" points="223.449,-15.8075 233.1567,-11.5637 222.9214,-8.8274 223.449,-15.8075"/>
</g>
<!-- Node3 -->
<g id="node4" class="node">
<title>Node3</title>
<g id="a_node4"><a xlink:href="solver_8h.html" target="_top" xlink:title="solver.h">
<polygon fill="none" stroke="#000000" points="478.3817,-224.5 478.3817,-243.5 529.3817,-243.5 529.3817,-224.5 478.3817,-224.5"/>
<text text-anchor="middle" x="503.8817" y="-231.5" font-family="Helvetica,sans-Serif" font-size="10.00" fill="#000000">solver.h</text>
</a>
</g>
</g>
<!-- Node0&#45;&gt;Node3 -->
<g id="edge3" class="edge">
<title>Node0&#45;&gt;Node3</title>
<path fill="none" stroke="#191970" d="M503.8817,-280.2455C503.8817,-272.9382 503.8817,-262.6944 503.8817,-253.7046"/>
<polygon fill="#191970" stroke="#191970" points="507.3818,-253.6426 503.8817,-243.6427 500.3818,-253.6427 507.3818,-253.6426"/>
</g>
<!-- Node4 -->
<g id="node5" class="node">
<title>Node4</title>
<polygon fill="none" stroke="#bfbfbf" points="316.8817,-56.5 316.8817,-75.5 360.8817,-75.5 360.8817,-56.5 316.8817,-56.5"/>
<text text-anchor="middle" x="338.8817" y="-63.5" font-family="Helvetica,sans-Serif" font-size="10.00" fill="#000000">vector</text>
</g>
<!-- Node3&#45;&gt;Node4 -->
<g id="edge4" class="edge">
<title>Node3&#45;&gt;Node4</title>
<path fill="none" stroke="#191970" d="M529.4395,-232.8509C611.1631,-228.9178 862.1703,-214.738 885.8817,-188 891.7794,-181.3495 891.4197,-174.9529 885.8817,-168 853.2677,-127.0529 483.7287,-82.3208 371.2019,-69.569"/>
<polygon fill="#191970" stroke="#191970" points="371.4632,-66.0764 361.1345,-68.436 370.6803,-73.0325 371.4632,-66.0764"/>
</g>
<!-- Node5 -->
<g id="node6" class="node">
<title>Node5</title>
<polygon fill="none" stroke="#bfbfbf" points="603.3817,-112.5 603.3817,-131.5 632.3817,-131.5 632.3817,-112.5 603.3817,-112.5"/>
<text text-anchor="middle" x="617.8817" y="-119.5" font-family="Helvetica,sans-Serif" font-size="10.00" fill="#000000">list</text>
</g>
<!-- Node3&#45;&gt;Node5 -->
<g id="edge5" class="edge">
<title>Node3&#45;&gt;Node5</title>
<path fill="none" stroke="#191970" d="M504.255,-224.3431C505.2781,-210.3755 509.0538,-184.4144 522.8817,-168 532.5839,-156.4831 568.9854,-140.7939 593.8046,-131.0367"/>
<polygon fill="#191970" stroke="#191970" points="595.236,-134.2359 603.3034,-127.368 592.714,-127.706 595.236,-134.2359"/>
</g>
<!-- Node6 -->
<g id="node7" class="node">
<title>Node6</title>
<polygon fill="none" stroke="#bfbfbf" points="440.3817,-168.5 440.3817,-187.5 475.3817,-187.5 475.3817,-168.5 440.3817,-168.5"/>
<text text-anchor="middle" x="457.8817" y="-175.5" font-family="Helvetica,sans-Serif" font-size="10.00" fill="#000000">map</text>
</g>
<!-- Node3&#45;&gt;Node6 -->
<g id="edge6" class="edge">
<title>Node3&#45;&gt;Node6</title>
<path fill="none" stroke="#191970" d="M495.8691,-224.2455C489.405,-216.3761 480.1433,-205.101 472.3834,-195.6542"/>
<polygon fill="#191970" stroke="#191970" points="474.8545,-193.1484 465.8025,-187.6427 469.4454,-197.5916 474.8545,-193.1484"/>
</g>
<!-- Node7 -->
<g id="node8" class="node">
<title>Node7</title>
<polygon fill="none" stroke="#bfbfbf" points="319.3817,-112.5 319.3817,-131.5 360.3817,-131.5 360.3817,-112.5 319.3817,-112.5"/>
<text text-anchor="middle" x="339.8817" y="-119.5" font-family="Helvetica,sans-Serif" font-size="10.00" fill="#000000">string</text>
</g>
<!-- Node3&#45;&gt;Node7 -->
<g id="edge7" class="edge">
<title>Node3&#45;&gt;Node7</title>
<path fill="none" stroke="#191970" d="M478.2401,-229.2825C440.2479,-221.7821 371.6741,-206.119 354.8817,-188 343.5371,-175.7592 340.1635,-156.7853 339.4081,-142.3174"/>
<polygon fill="#191970" stroke="#191970" points="342.9019,-141.8449 339.2614,-131.8952 335.9026,-141.9435 342.9019,-141.8449"/>
</g>
<!-- Node8 -->
<g id="node9" class="node">
<title>Node8</title>
<g id="a_node9"><a xlink:href="environment__base_8h.html" target="_top" xlink:title="environment_base.h">
<polygon fill="none" stroke="#000000" points="531.8817,-168.5 531.8817,-187.5 635.8817,-187.5 635.8817,-168.5 531.8817,-168.5"/>
<text text-anchor="middle" x="583.8817" y="-175.5" font-family="Helvetica,sans-Serif" font-size="10.00" fill="#000000">environment_base.h</text>
</a>
</g>
</g>
<!-- Node3&#45;&gt;Node8 -->
<g id="edge8" class="edge">
<title>Node3&#45;&gt;Node8</title>
<path fill="none" stroke="#191970" d="M517.8167,-224.2455C529.9764,-215.7337 547.8282,-203.2375 561.9102,-193.3801"/>
<polygon fill="#191970" stroke="#191970" points="563.9213,-196.2447 570.1065,-187.6427 559.907,-190.51 563.9213,-196.2447"/>
</g>
<!-- Node9 -->
<g id="node10" class="node">
<title>Node9</title>
<g id="a_node10"><a xlink:href="species_8h.html" target="_top" xlink:title="species.h">
<polygon fill="none" stroke="#000000" points="363.3817,-168.5 363.3817,-187.5 422.3817,-187.5 422.3817,-168.5 363.3817,-168.5"/>
<text text-anchor="middle" x="392.8817" y="-175.5" font-family="Helvetica,sans-Serif" font-size="10.00" fill="#000000">species.h</text>
</a>
</g>
</g>
<!-- Node3&#45;&gt;Node9 -->
<g id="edge9" class="edge">
<title>Node3&#45;&gt;Node9</title>
<path fill="none" stroke="#191970" d="M484.8001,-224.3733C467.1416,-215.4644 440.6765,-202.1127 420.6719,-192.0203"/>
<polygon fill="#191970" stroke="#191970" points="422.219,-188.8806 411.7143,-187.5011 419.0659,-195.1303 422.219,-188.8806"/>
</g>
<!-- Node13 -->
<g id="node14" class="node">
<title>Node13</title>
<g id="a_node14"><a xlink:href="ode__solver_8h.html" target="_top" xlink:title="ode_solver.h">
<polygon fill="none" stroke="#000000" points="234.8817,-168.5 234.8817,-187.5 306.8817,-187.5 306.8817,-168.5 234.8817,-168.5"/>
<text text-anchor="middle" x="270.8817" y="-175.5" font-family="Helvetica,sans-Serif" font-size="10.00" fill="#000000">ode_solver.h</text>
</a>
</g>
</g>
<!-- Node3&#45;&gt;Node13 -->
<g id="edge18" class="edge">
<title>Node3&#45;&gt;Node13</title>
<path fill="none" stroke="#191970" d="M478.0564,-227.7931C439.2298,-218.4613 365.2383,-200.678 316.9991,-189.084"/>
<polygon fill="#191970" stroke="#191970" points="317.6592,-185.6431 307.1181,-186.7092 316.0233,-192.4492 317.6592,-185.6431"/>
</g>
<!-- Node21 -->
<g id="node22" class="node">
<title>Node21</title>
<g id="a_node22"><a xlink:href="solver_8tpp.html" target="_top" xlink:title="../src/solver.tpp">
<polygon fill="none" stroke="#000000" points="654.3817,-168.5 654.3817,-187.5 739.3817,-187.5 739.3817,-168.5 654.3817,-168.5"/>
<text text-anchor="middle" x="696.8817" y="-175.5" font-family="Helvetica,sans-Serif" font-size="10.00" fill="#000000">../src/solver.tpp</text>
</a>
</g>
</g>
<!-- Node3&#45;&gt;Node21 -->
<g id="edge32" class="edge">
<title>Node3&#45;&gt;Node21</title>
<path fill="none" stroke="#191970" d="M529.5106,-226.5636C561.3256,-217.3323 616.0459,-201.4549 654.2265,-190.3767"/>
<polygon fill="#191970" stroke="#191970" points="655.4092,-193.6779 664.0377,-187.5299 653.4585,-186.9552 655.4092,-193.6779"/>
</g>
<!-- Node22 -->
<g id="node23" class="node">
<title>Node22</title>
<g id="a_node23"><a xlink:href="size__integrals_8tpp.html" target="_top" xlink:title="../src/size_integrals.tpp">
<polygon fill="none" stroke="#000000" points="757.3817,-168.5 757.3817,-187.5 876.3817,-187.5 876.3817,-168.5 757.3817,-168.5"/>
<text text-anchor="middle" x="816.8817" y="-175.5" font-family="Helvetica,sans-Serif" font-size="10.00" fill="#000000">../src/size_integrals.tpp</text>
</a>
</g>
</g>
<!-- Node3&#45;&gt;Node22 -->
<g id="edge33" class="edge">
<title>Node3&#45;&gt;Node22</title>
<path fill="none" stroke="#191970" d="M529.4958,-229.4173C578.0624,-220.7281 684.8269,-201.6264 753.6686,-189.3097"/>
<polygon fill="#191970" stroke="#191970" points="754.3117,-192.7503 763.5389,-187.5438 753.0788,-185.8597 754.3117,-192.7503"/>
</g>
<!-- Node9&#45;&gt;Node4 -->
<g id="edge10" class="edge">
<title>Node9&#45;&gt;Node4</title>
<path fill="none" stroke="#191970" d="M390.3482,-168.2871C386.7282,-155.1307 379.4423,-131.0966 369.8817,-112 365.006,-102.261 358.3881,-92.1494 352.5189,-83.895"/>
<polygon fill="#191970" stroke="#191970" points="355.2983,-81.7666 346.562,-75.7726 349.6537,-85.9064 355.2983,-81.7666"/>
</g>
<!-- Node9&#45;&gt;Node5 -->
<g id="edge11" class="edge">
<title>Node9&#45;&gt;Node5</title>
<path fill="none" stroke="#191970" d="M422.6726,-170.2777C425.7796,-169.4973 428.893,-168.7257 431.8817,-168 501.449,-151.1082 520.056,-151.6966 588.8817,-132 590.3537,-131.5787 591.8609,-131.126 593.3767,-130.6541"/>
<polygon fill="#191970" stroke="#191970" points="594.8319,-133.8593 603.2254,-127.394 592.6321,-127.2139 594.8319,-133.8593"/>
</g>
<!-- Node9&#45;&gt;Node7 -->
<g id="edge12" class="edge">
<title>Node9&#45;&gt;Node7</title>
<path fill="none" stroke="#191970" d="M383.6498,-168.2455C376.05,-160.2155 365.094,-148.6394 356.045,-139.0781"/>
<polygon fill="#191970" stroke="#191970" points="358.4237,-136.4998 349.0078,-131.6427 353.3397,-141.3115 358.4237,-136.4998"/>
</g>
<!-- Node10 -->
<g id="node11" class="node">
<title>Node10</title>
<g id="a_node11"><a xlink:href="cohort_8h.html" target="_top" xlink:title="cohort.h">
<polygon fill="none" stroke="#000000" points="501.8817,-56.5 501.8817,-75.5 553.8817,-75.5 553.8817,-56.5 501.8817,-56.5"/>
<text text-anchor="middle" x="527.8817" y="-63.5" font-family="Helvetica,sans-Serif" font-size="10.00" fill="#000000">cohort.h</text>
</a>
</g>
</g>
<!-- Node9&#45;&gt;Node10 -->
<g id="edge13" class="edge">
<title>Node9&#45;&gt;Node10</title>
<path fill="none" stroke="#191970" d="M422.6907,-170.074C469.164,-157.6499 553.8244,-134.7182 555.8817,-132 566.9542,-117.3703 555.992,-97.7059 544.6994,-83.6553"/>
<polygon fill="#191970" stroke="#191970" points="547.0173,-80.9861 537.8196,-75.7275 541.7304,-85.5741 547.0173,-80.9861"/>
</g>
<!-- Node12 -->
<g id="node13" class="node">
<title>Node12</title>
<g id="a_node13"><a xlink:href="species_8tpp.html" target="_top" xlink:title="../src/species.tpp">
<polygon fill="none" stroke="#000000" points="454.8817,-112.5 454.8817,-131.5 546.8817,-131.5 546.8817,-112.5 454.8817,-112.5"/>
<text text-anchor="middle" x="500.8817" y="-119.5" font-family="Helvetica,sans-Serif" font-size="10.00" fill="#000000">../src/species.tpp</text>
</a>
</g>
</g>
<!-- Node9&#45;&gt;Node12 -->
<g id="edge15" class="edge">
<title>Node9&#45;&gt;Node12</title>
<path fill="none" stroke="#191970" d="M411.6939,-168.2455C428.729,-159.4125 454.0392,-146.2887 473.3499,-136.2758"/>
<polygon fill="#191970" stroke="#191970" points="475.0187,-139.353 482.2851,-131.6427 471.7964,-133.1388 475.0187,-139.353"/>
</g>
<!-- Node11 -->
<g id="node12" class="node">
<title>Node11</title>
<polygon fill="none" stroke="#bfbfbf" points="399.8817,-.5 399.8817,-19.5 453.8817,-19.5 453.8817,-.5 399.8817,-.5"/>
<text text-anchor="middle" x="426.8817" y="-7.5" font-family="Helvetica,sans-Serif" font-size="10.00" fill="#000000">iostream</text>
</g>
<!-- Node10&#45;&gt;Node11 -->
<g id="edge14" class="edge">
<title>Node10&#45;&gt;Node11</title>
<path fill="none" stroke="#191970" d="M510.2889,-56.2455C494.5027,-47.4928 471.1178,-34.527 453.123,-24.5496"/>
<polygon fill="#191970" stroke="#191970" points="454.7158,-21.4308 444.273,-19.6427 451.3214,-27.5528 454.7158,-21.4308"/>
</g>
<!-- Node12&#45;&gt;Node1 -->
<g id="edge17" class="edge">
<title>Node12&#45;&gt;Node1</title>
<path fill="none" stroke="#191970" d="M546.648,-112.4369C598.5689,-101.5877 682.3044,-84.0908 730.8046,-73.9564"/>
<polygon fill="#191970" stroke="#191970" points="731.5224,-77.3821 740.5951,-71.9106 730.0906,-70.5301 731.5224,-77.3821"/>
</g>
<!-- Node12&#45;&gt;Node2 -->
<g id="edge16" class="edge">
<title>Node12&#45;&gt;Node2</title>
<path fill="none" stroke="#191970" d="M482.8708,-112.3709C457.8136,-99.1027 410.8876,-74.717 369.8817,-56 344.0623,-44.2148 314.323,-32.0652 291.9809,-23.2139"/>
<polygon fill="#191970" stroke="#191970" points="293.1718,-19.9213 282.5848,-19.5129 290.6064,-26.4343 293.1718,-19.9213"/>
</g>
<!-- Node13&#45;&gt;Node4 -->
<g id="edge29" class="edge">
<title>Node13&#45;&gt;Node4</title>
<path fill="none" stroke="#191970" d="M276.8394,-168.1564C284.6495,-155.2554 298.7792,-131.9259 310.8817,-112 316.4533,-102.8268 322.6584,-92.6307 327.8085,-84.1736"/>
<polygon fill="#191970" stroke="#191970" points="330.8717,-85.8727 333.0848,-75.5115 324.8935,-82.2311 330.8717,-85.8727"/>
</g>
<!-- Node13&#45;&gt;Node7 -->
<g id="edge28" class="edge">
<title>Node13&#45;&gt;Node7</title>
<path fill="none" stroke="#191970" d="M282.9006,-168.2455C293.0916,-159.9746 307.9179,-147.9416 319.8924,-138.2232"/>
<polygon fill="#191970" stroke="#191970" points="322.4416,-140.662 328.0006,-131.6427 318.0304,-135.2268 322.4416,-140.662"/>
</g>
<!-- Node13&#45;&gt;Node11 -->
<g id="edge30" class="edge">
<title>Node13&#45;&gt;Node11</title>
<path fill="none" stroke="#191970" d="M306.0718,-168.352C326.7957,-161.1715 352.3075,-149.5371 369.8817,-132 399.1309,-102.8124 415.1626,-55.7722 422.2854,-29.4449"/>
<polygon fill="#191970" stroke="#191970" points="425.731,-30.0966 424.8051,-19.5423 418.9472,-28.3704 425.731,-30.0966"/>
</g>
<!-- Node14 -->
<g id="node15" class="node">
<title>Node14</title>
<g id="a_node15"><a xlink:href="rkck45_8h.html" target="_top" xlink:title="rkck45.h">
<polygon fill="none" stroke="#000000" points="130.8817,-112.5 130.8817,-131.5 184.8817,-131.5 184.8817,-112.5 130.8817,-112.5"/>
<text text-anchor="middle" x="157.8817" y="-119.5" font-family="Helvetica,sans-Serif" font-size="10.00" fill="#000000">rkck45.h</text>
</a>
</g>
</g>
<!-- Node13&#45;&gt;Node14 -->
<g id="edge19" class="edge">
<title>Node13&#45;&gt;Node14</title>
<path fill="none" stroke="#191970" d="M251.4563,-168.3733C233.4796,-159.4644 206.5376,-146.1127 186.1727,-136.0203"/>
<polygon fill="#191970" stroke="#191970" points="187.5679,-132.8055 177.0536,-131.5011 184.4596,-139.0776 187.5679,-132.8055"/>
</g>
<!-- Node15 -->
<g id="node16" class="node">
<title>Node15</title>
<g id="a_node16"><a xlink:href="lsoda_8h.html" target="_top" xlink:title="lsoda.h">
<polygon fill="none" stroke="#000000" points="64.8817,-112.5 64.8817,-131.5 112.8817,-131.5 112.8817,-112.5 64.8817,-112.5"/>
<text text-anchor="middle" x="88.8817" y="-119.5" font-family="Helvetica,sans-Serif" font-size="10.00" fill="#000000">lsoda.h</text>
</a>
</g>
</g>
<!-- Node13&#45;&gt;Node15 -->
<g id="edge20" class="edge">
<title>Node13&#45;&gt;Node15</title>
<path fill="none" stroke="#191970" d="M239.5948,-168.3733C207.0815,-158.3692 156.3601,-142.7626 122.8772,-132.4601"/>
<polygon fill="#191970" stroke="#191970" points="123.6657,-129.0409 113.0786,-129.4452 121.607,-135.7313 123.6657,-129.0409"/>
</g>
<!-- Node20 -->
<g id="node21" class="node">
<title>Node20</title>
<polygon fill="none" stroke="#bfbfbf" points="203.3817,-112.5 203.3817,-131.5 262.3817,-131.5 262.3817,-112.5 203.3817,-112.5"/>
<text text-anchor="middle" x="232.8817" y="-119.5" font-family="Helvetica,sans-Serif" font-size="10.00" fill="#000000">exception</text>
</g>
<!-- Node13&#45;&gt;Node20 -->
<g id="edge31" class="edge">
<title>Node13&#45;&gt;Node20</title>
<path fill="none" stroke="#191970" d="M264.2626,-168.2455C258.9771,-160.4564 251.4276,-149.3308 245.058,-139.9439"/>
<polygon fill="#191970" stroke="#191970" points="247.9362,-137.9522 239.425,-131.6427 242.1438,-141.8827 247.9362,-137.9522"/>
</g>
<!-- Node15&#45;&gt;Node4 -->
<g id="edge24" class="edge">
<title>Node15&#45;&gt;Node4</title>
<path fill="none" stroke="#191970" d="M112.9528,-114.3928C115.9468,-113.5392 118.9762,-112.7194 121.8817,-112 200.5816,-92.5147 224.5649,-96.6123 306.8454,-76.0278"/>
<polygon fill="#191970" stroke="#191970" points="307.7992,-79.3967 316.6248,-73.5351 306.0701,-72.6136 307.7992,-79.3967"/>
</g>
<!-- Node16 -->
<g id="node17" class="node">
<title>Node16</title>
<polygon fill="none" stroke="#bfbfbf" points="28.8817,-56.5 28.8817,-75.5 66.8817,-75.5 66.8817,-56.5 28.8817,-56.5"/>
<text text-anchor="middle" x="47.8817" y="-63.5" font-family="Helvetica,sans-Serif" font-size="10.00" fill="#000000">array</text>
</g>
<!-- Node15&#45;&gt;Node16 -->
<g id="edge21" class="edge">
<title>Node15&#45;&gt;Node16</title>
<path fill="none" stroke="#191970" d="M81.7401,-112.2455C76.0373,-104.4564 67.8917,-93.3308 61.0192,-83.9439"/>
<polygon fill="#191970" stroke="#191970" points="63.673,-81.6437 54.9415,-75.6427 58.0249,-85.7789 63.673,-81.6437"/>
</g>
<!-- Node17 -->
<g id="node18" class="node">
<title>Node17</title>
<polygon fill="none" stroke="#bfbfbf" points="84.8817,-56.5 84.8817,-75.5 128.8817,-75.5 128.8817,-56.5 84.8817,-56.5"/>
<text text-anchor="middle" x="106.8817" y="-63.5" font-family="Helvetica,sans-Serif" font-size="10.00" fill="#000000">cmath</text>
</g>
<!-- Node15&#45;&gt;Node17 -->
<g id="edge22" class="edge">
<title>Node15&#45;&gt;Node17</title>
<path fill="none" stroke="#191970" d="M92.0171,-112.2455C94.3917,-104.8579 97.731,-94.4689 100.6432,-85.4087"/>
<polygon fill="#191970" stroke="#191970" points="104.0542,-86.234 103.7823,-75.6427 97.39,-84.0919 104.0542,-86.234"/>
</g>
<!-- Node18 -->
<g id="node19" class="node">
<title>Node18</title>
<polygon fill="none" stroke="#bfbfbf" points="146.8817,-56.5 146.8817,-75.5 198.8817,-75.5 198.8817,-56.5 146.8817,-56.5"/>
<text text-anchor="middle" x="172.8817" y="-63.5" font-family="Helvetica,sans-Serif" font-size="10.00" fill="#000000">memory</text>
</g>
<!-- Node15&#45;&gt;Node18 -->
<g id="edge23" class="edge">
<title>Node15&#45;&gt;Node18</title>
<path fill="none" stroke="#191970" d="M103.5134,-112.2455C116.2811,-103.7337 135.0255,-91.2375 149.8116,-81.3801"/>
<polygon fill="#191970" stroke="#191970" points="152.0387,-84.1019 158.4177,-75.6427 148.1557,-78.2775 152.0387,-84.1019"/>
</g>
<!-- Node19 -->
<g id="node20" class="node">
<title>Node19</title>
<g id="a_node20"><a xlink:href="lsoda_8tpp.html" target="_top" xlink:title="../src/lsoda.tpp">
<polygon fill="none" stroke="#000000" points="216.8817,-56.5 216.8817,-75.5 298.8817,-75.5 298.8817,-56.5 216.8817,-56.5"/>
<text text-anchor="middle" x="257.8817" y="-63.5" font-family="Helvetica,sans-Serif" font-size="10.00" fill="#000000">../src/lsoda.tpp</text>
</a>
</g>
</g>
<!-- Node15&#45;&gt;Node19 -->
<g id="edge25" class="edge">
<title>Node15&#45;&gt;Node19</title>
<path fill="none" stroke="#191970" d="M113.0953,-113.9766C140.8869,-104.7675 186.8326,-89.5429 219.5091,-78.7152"/>
<polygon fill="#191970" stroke="#191970" points="220.7977,-81.9754 229.1892,-75.5076 218.5959,-75.3307 220.7977,-81.9754"/>
</g>
<!-- Node19&#45;&gt;Node2 -->
<g id="edge27" class="edge">
<title>Node19&#45;&gt;Node2</title>
<path fill="none" stroke="#191970" d="M257.8817,-56.2455C257.8817,-48.9382 257.8817,-38.6944 257.8817,-29.7046"/>
<polygon fill="#191970" stroke="#191970" points="261.3818,-29.6426 257.8817,-19.6427 254.3818,-29.6427 261.3818,-29.6426"/>
</g>
<!-- Node19&#45;&gt;Node11 -->
<g id="edge26" class="edge">
<title>Node19&#45;&gt;Node11</title>
<path fill="none" stroke="#191970" d="M286.9339,-56.3733C315.5469,-46.892 359.3465,-32.3785 390.3134,-22.1173"/>
<polygon fill="#191970" stroke="#191970" points="391.4897,-25.4148 399.8812,-18.9469 389.2878,-18.7701 391.4897,-25.4148"/>
</g>
</g>
</svg>
