<?xml version="1.0" encoding="UTF-8" standalone="no"?>
<!DOCTYPE svg PUBLIC "-//W3C//DTD SVG 1.1//EN"
 "http://www.w3.org/Graphics/SVG/1.1/DTD/svg11.dtd">
<!-- Generated by graphviz version 2.40.1 (20161225.0304)
 -->
<!-- Title: src/ebt.cpp Pages: 1 -->
<svg width="768pt" height="308pt"
 viewBox="0.00 0.00 767.50 308.00" xmlns="http://www.w3.org/2000/svg" xmlns:xlink="http://www.w3.org/1999/xlink">
<g id="graph0" class="graph" transform="scale(1 1) rotate(0) translate(4 304)">
<title>src/ebt.cpp</title>
<!-- Node0 -->
<g id="node1" class="node">
<title>Node0</title>
<polygon fill="#bfbfbf" stroke="#000000" points="5.5,-280.5 5.5,-299.5 70.5,-299.5 70.5,-280.5 5.5,-280.5"/>
<text text-anchor="middle" x="38" y="-287.5" font-family="Helvetica,sans-Serif" font-size="10.00" fill="#000000">src/ebt.cpp</text>
</g>
<!-- Node1 -->
<g id="node2" class="node">
<title>Node1</title>
<polygon fill="none" stroke="#bfbfbf" points="47,-56.5 47,-75.5 103,-75.5 103,-56.5 47,-56.5"/>
<text text-anchor="middle" x="75" y="-63.5" font-family="Helvetica,sans-Serif" font-size="10.00" fill="#000000">algorithm</text>
</g>
<!-- Node0&#45;&gt;Node1 -->
<g id="edge1" class="edge">
<title>Node0&#45;&gt;Node1</title>
<path fill="none" stroke="#191970" d="M38.135,-280.1962C38.7028,-253.056 41.6553,-174.7953 57,-112 59.2329,-102.8623 62.8568,-93.1102 66.2699,-84.9476"/>
<polygon fill="#191970" stroke="#191970" points="69.5476,-86.1882 70.3597,-75.6245 63.1373,-83.3761 69.5476,-86.1882"/>
</g>
<!-- Node2 -->
<g id="node3" class="node">
<title>Node2</title>
<polygon fill="none" stroke="#bfbfbf" points="123.5,-.5 123.5,-19.5 172.5,-19.5 172.5,-.5 123.5,-.5"/>
<text text-anchor="middle" x="148" y="-7.5" font-family="Helvetica,sans-Serif" font-size="10.00" fill="#000000">cassert</text>
</g>
<!-- Node0&#45;&gt;Node2 -->
<g id="edge2" class="edge">
<title>Node0&#45;&gt;Node2</title>
<path fill="none" stroke="#191970" d="M32.393,-280.4834C21.8226,-261.6141 0,-217.8343 0,-178 0,-178 0,-178 0,-122 0,-88.1521 12.603,-78.3756 38,-56 59.512,-37.0472 89.9452,-25.1377 113.3495,-18.1979"/>
<polygon fill="#191970" stroke="#191970" points="114.5379,-21.4999 123.2263,-15.4368 112.6532,-14.7584 114.5379,-21.4999"/>
</g>
<!-- Node3 -->
<g id="node4" class="node">
<title>Node3</title>
<g id="a_node4"><a xlink:href="solver_8h.html" target="_top" xlink:title="solver.h">
<polygon fill="none" stroke="#000000" points="335.5,-224.5 335.5,-243.5 386.5,-243.5 386.5,-224.5 335.5,-224.5"/>
<text text-anchor="middle" x="361" y="-231.5" font-family="Helvetica,sans-Serif" font-size="10.00" fill="#000000">solver.h</text>
</a>
</g>
</g>
<!-- Node0&#45;&gt;Node3 -->
<g id="edge3" class="edge">
<title>Node0&#45;&gt;Node3</title>
<path fill="none" stroke="#191970" d="M70.7485,-284.3222C131.8224,-273.7336 262.606,-251.059 325.6219,-240.1337"/>
<polygon fill="#191970" stroke="#191970" points="326.2374,-243.5793 335.4925,-238.4224 325.0415,-236.6821 326.2374,-243.5793"/>
</g>
<!-- Node4 -->
<g id="node5" class="node">
<title>Node4</title>
<polygon fill="none" stroke="#bfbfbf" points="294,-56.5 294,-75.5 338,-75.5 338,-56.5 294,-56.5"/>
<text text-anchor="middle" x="316" y="-63.5" font-family="Helvetica,sans-Serif" font-size="10.00" fill="#000000">vector</text>
</g>
<!-- Node3&#45;&gt;Node4 -->
<g id="edge4" class="edge">
<title>Node3&#45;&gt;Node4</title>
<path fill="none" stroke="#191970" d="M358.4517,-224.4862C351.3074,-197.8144 330.9764,-121.9117 321.2755,-85.695"/>
<polygon fill="#191970" stroke="#191970" points="324.6007,-84.5818 318.6325,-75.8279 317.8391,-86.393 324.6007,-84.5818"/>
</g>
<!-- Node5 -->
<g id="node6" class="node">
<title>Node5</title>
<polygon fill="none" stroke="#bfbfbf" points="66.5,-112.5 66.5,-131.5 95.5,-131.5 95.5,-112.5 66.5,-112.5"/>
<text text-anchor="middle" x="81" y="-119.5" font-family="Helvetica,sans-Serif" font-size="10.00" fill="#000000">list</text>
</g>
<!-- Node3&#45;&gt;Node5 -->
<g id="edge5" class="edge">
<title>Node3&#45;&gt;Node5</title>
<path fill="none" stroke="#191970" d="M335.3606,-224.6448C311.6567,-215.8051 275.5832,-201.8669 245,-188 227.2588,-179.9559 223.8797,-175.7312 206,-168 162.2589,-149.0862 149.4544,-149.1703 105,-132 104.9053,-131.9634 104.8103,-131.9267 104.7152,-131.8898"/>
<polygon fill="#191970" stroke="#191970" points="106.2579,-128.7378 95.674,-128.2571 103.6481,-135.2331 106.2579,-128.7378"/>
</g>
<!-- Node6 -->
<g id="node7" class="node">
<title>Node6</title>
<polygon fill="none" stroke="#bfbfbf" points="408.5,-168.5 408.5,-187.5 443.5,-187.5 443.5,-168.5 408.5,-168.5"/>
<text text-anchor="middle" x="426" y="-175.5" font-family="Helvetica,sans-Serif" font-size="10.00" fill="#000000">map</text>
</g>
<!-- Node3&#45;&gt;Node6 -->
<g id="edge6" class="edge">
<title>Node3&#45;&gt;Node6</title>
<path fill="none" stroke="#191970" d="M372.3221,-224.2455C381.9223,-215.9746 395.8892,-203.9416 407.1695,-194.2232"/>
<polygon fill="#191970" stroke="#191970" points="409.516,-196.8214 414.8076,-187.6427 404.947,-191.5182 409.516,-196.8214"/>
</g>
<!-- Node7 -->
<g id="node8" class="node">
<title>Node7</title>
<polygon fill="none" stroke="#bfbfbf" points="370.5,-112.5 370.5,-131.5 411.5,-131.5 411.5,-112.5 370.5,-112.5"/>
<text text-anchor="middle" x="391" y="-119.5" font-family="Helvetica,sans-Serif" font-size="10.00" fill="#000000">string</text>
</g>
<!-- Node3&#45;&gt;Node7 -->
<g id="edge7" class="edge">
<title>Node3&#45;&gt;Node7</title>
<path fill="none" stroke="#191970" d="M363.5578,-224.4509C368.4729,-206.1013 379.3239,-165.5908 385.8118,-141.3693"/>
<polygon fill="#191970" stroke="#191970" points="389.2421,-142.09 388.4487,-131.5249 382.4804,-140.2788 389.2421,-142.09"/>
</g>
<!-- Node8 -->
<g id="node9" class="node">
<title>Node8</title>
<g id="a_node9"><a xlink:href="environment__base_8h.html" target="_top" xlink:title="environment_base.h">
<polygon fill="none" stroke="#000000" points="552,-168.5 552,-187.5 656,-187.5 656,-168.5 552,-168.5"/>
<text text-anchor="middle" x="604" y="-175.5" font-family="Helvetica,sans-Serif" font-size="10.00" fill="#000000">environment_base.h</text>
</a>
</g>
</g>
<!-- Node3&#45;&gt;Node8 -->
<g id="edge8" class="edge">
<title>Node3&#45;&gt;Node8</title>
<path fill="none" stroke="#191970" d="M386.546,-228.1129C425.8439,-219.0565 501.9111,-201.5267 552.8353,-189.791"/>
<polygon fill="#191970" stroke="#191970" points="553.708,-193.1818 562.6665,-187.5254 552.1359,-186.3605 553.708,-193.1818"/>
</g>
<!-- Node9 -->
<g id="node10" class="node">
<title>Node9</title>
<g id="a_node10"><a xlink:href="species_8h.html" target="_top" xlink:title="species.h">
<polygon fill="none" stroke="#000000" points="254.5,-168.5 254.5,-187.5 313.5,-187.5 313.5,-168.5 254.5,-168.5"/>
<text text-anchor="middle" x="284" y="-175.5" font-family="Helvetica,sans-Serif" font-size="10.00" fill="#000000">species.h</text>
</a>
</g>
</g>
<!-- Node3&#45;&gt;Node9 -->
<g id="edge9" class="edge">
<title>Node3&#45;&gt;Node9</title>
<path fill="none" stroke="#191970" d="M347.5876,-224.2455C335.9943,-215.814 319.0252,-203.4729 305.5322,-193.6598"/>
<polygon fill="#191970" stroke="#191970" points="307.4047,-190.6938 297.2587,-187.6427 303.2874,-196.355 307.4047,-190.6938"/>
</g>
<!-- Node14 -->
<g id="node15" class="node">
<title>Node14</title>
<g id="a_node15"><a xlink:href="ode__solver_8h.html" target="_top" xlink:title="ode_solver.h">
<polygon fill="none" stroke="#000000" points="462,-168.5 462,-187.5 534,-187.5 534,-168.5 462,-168.5"/>
<text text-anchor="middle" x="498" y="-175.5" font-family="Helvetica,sans-Serif" font-size="10.00" fill="#000000">ode_solver.h</text>
</a>
</g>
</g>
<!-- Node3&#45;&gt;Node14 -->
<g id="edge19" class="edge">
<title>Node3&#45;&gt;Node14</title>
<path fill="none" stroke="#191970" d="M384.5511,-224.3733C406.8391,-215.2629 440.4937,-201.5062 465.3637,-191.3404"/>
<polygon fill="#191970" stroke="#191970" points="466.8239,-194.5247 474.7562,-187.5011 464.1753,-188.0451 466.8239,-194.5247"/>
</g>
<!-- Node22 -->
<g id="node23" class="node">
<title>Node22</title>
<g id="a_node23"><a xlink:href="solver_8tpp.html" target="_top" xlink:title="../src/solver.tpp">
<polygon fill="none" stroke="#000000" points="674.5,-168.5 674.5,-187.5 759.5,-187.5 759.5,-168.5 674.5,-168.5"/>
<text text-anchor="middle" x="717" y="-175.5" font-family="Helvetica,sans-Serif" font-size="10.00" fill="#000000">../src/solver.tpp</text>
</a>
</g>
</g>
<!-- Node3&#45;&gt;Node22 -->
<g id="edge33" class="edge">
<title>Node3&#45;&gt;Node22</title>
<path fill="none" stroke="#191970" d="M386.6783,-230.4665C437.5607,-223.3893 555.0011,-206.6809 664.5616,-188.0189"/>
<polygon fill="#191970" stroke="#191970" points="665.1923,-191.462 674.458,-186.3241 664.0107,-184.5624 665.1923,-191.462"/>
</g>
<!-- Node23 -->
<g id="node24" class="node">
<title>Node23</title>
<g id="a_node24"><a xlink:href="size__integrals_8tpp.html" target="_top" xlink:title="../src/size_integrals.tpp">
<polygon fill="none" stroke="#000000" points="78.5,-168.5 78.5,-187.5 197.5,-187.5 197.5,-168.5 78.5,-168.5"/>
<text text-anchor="middle" x="138" y="-175.5" font-family="Helvetica,sans-Serif" font-size="10.00" fill="#000000">../src/size_integrals.tpp</text>
</a>
</g>
</g>
<!-- Node3&#45;&gt;Node23 -->
<g id="edge34" class="edge">
<title>Node3&#45;&gt;Node23</title>
<path fill="none" stroke="#191970" d="M335.4191,-227.5761C298.9675,-218.4223 231.4304,-201.4623 185.6137,-189.9568"/>
<polygon fill="#191970" stroke="#191970" points="186.4513,-186.5585 175.8999,-187.5175 184.7463,-193.3477 186.4513,-186.5585"/>
</g>
<!-- Node9&#45;&gt;Node4 -->
<g id="edge10" class="edge">
<title>Node9&#45;&gt;Node4</title>
<path fill="none" stroke="#191970" d="M286.7283,-168.4509C291.9711,-150.1013 303.5455,-109.5908 310.4659,-85.3693"/>
<polygon fill="#191970" stroke="#191970" points="313.8967,-86.1017 313.2786,-75.5249 307.166,-84.1786 313.8967,-86.1017"/>
</g>
<!-- Node9&#45;&gt;Node5 -->
<g id="edge11" class="edge">
<title>Node9&#45;&gt;Node5</title>
<path fill="none" stroke="#191970" d="M254.3598,-170.9296C211.0463,-160.5044 132.6109,-141.2471 105,-132 104.9037,-131.9677 104.8072,-131.9353 104.7106,-131.9026"/>
<polygon fill="#191970" stroke="#191970" points="106.1884,-128.7192 95.5964,-128.4723 103.7226,-135.2705 106.1884,-128.7192"/>
</g>
<!-- Node9&#45;&gt;Node7 -->
<g id="edge12" class="edge">
<title>Node9&#45;&gt;Node7</title>
<path fill="none" stroke="#191970" d="M302.638,-168.2455C319.4386,-159.4527 344.3634,-146.4079 363.4618,-136.4125"/>
<polygon fill="#191970" stroke="#191970" points="365.3386,-139.3807 372.5756,-131.6427 362.0927,-133.1787 365.3386,-139.3807"/>
</g>
<!-- Node10 -->
<g id="node11" class="node">
<title>Node10</title>
<g id="a_node11"><a xlink:href="cohort_8h.html" target="_top" xlink:title="cohort.h">
<polygon fill="none" stroke="#000000" points="224,-112.5 224,-131.5 276,-131.5 276,-112.5 224,-112.5"/>
<text text-anchor="middle" x="250" y="-119.5" font-family="Helvetica,sans-Serif" font-size="10.00" fill="#000000">cohort.h</text>
</a>
</g>
</g>
<!-- Node9&#45;&gt;Node10 -->
<g id="edge13" class="edge">
<title>Node9&#45;&gt;Node10</title>
<path fill="none" stroke="#191970" d="M278.0777,-168.2455C273.3973,-160.5367 266.7327,-149.5598 261.0711,-140.2348"/>
<polygon fill="#191970" stroke="#191970" points="264.0361,-138.3741 255.8545,-131.6427 258.0525,-142.007 264.0361,-138.3741"/>
</g>
<!-- Node12 -->
<g id="node13" class="node">
<title>Node12</title>
<g id="a_node13"><a xlink:href="species_8tpp.html" target="_top" xlink:title="../src/species.tpp">
<polygon fill="none" stroke="#000000" points="114,-112.5 114,-131.5 206,-131.5 206,-112.5 114,-112.5"/>
<text text-anchor="middle" x="160" y="-119.5" font-family="Helvetica,sans-Serif" font-size="10.00" fill="#000000">../src/species.tpp</text>
</a>
</g>
</g>
<!-- Node9&#45;&gt;Node12 -->
<g id="edge15" class="edge">
<title>Node9&#45;&gt;Node12</title>
<path fill="none" stroke="#191970" d="M262.6836,-168.3733C242.7784,-159.3838 212.8564,-145.8706 190.44,-135.7471"/>
<polygon fill="#191970" stroke="#191970" points="191.5925,-132.4272 181.0382,-131.5011 188.7113,-138.8068 191.5925,-132.4272"/>
</g>
<!-- Node11 -->
<g id="node12" class="node">
<title>Node11</title>
<polygon fill="none" stroke="#bfbfbf" points="370,-.5 370,-19.5 424,-19.5 424,-.5 370,-.5"/>
<text text-anchor="middle" x="397" y="-7.5" font-family="Helvetica,sans-Serif" font-size="10.00" fill="#000000">iostream</text>
</g>
<!-- Node10&#45;&gt;Node11 -->
<g id="edge14" class="edge">
<title>Node10&#45;&gt;Node11</title>
<path fill="none" stroke="#191970" d="M252.8495,-112.1491C257.4272,-97.9397 267.7043,-71.6805 285,-56 306.1211,-36.8514 336.2982,-25.0811 360.0078,-18.2459"/>
<polygon fill="#191970" stroke="#191970" points="360.9915,-21.6056 369.7277,-15.6115 359.1604,-14.8493 360.9915,-21.6056"/>
</g>
<!-- Node12&#45;&gt;Node1 -->
<g id="edge17" class="edge">
<title>Node12&#45;&gt;Node1</title>
<path fill="none" stroke="#191970" d="M145.1941,-112.2455C132.2744,-103.7337 113.3069,-91.2375 98.3448,-81.3801"/>
<polygon fill="#191970" stroke="#191970" points="99.9124,-78.2216 89.6362,-75.6427 96.0613,-84.067 99.9124,-78.2216"/>
</g>
<!-- Node12&#45;&gt;Node2 -->
<g id="edge16" class="edge">
<title>Node12&#45;&gt;Node2</title>
<path fill="none" stroke="#191970" d="M158.9769,-112.4509C157.0197,-94.184 152.7095,-53.9553 150.1105,-29.6976"/>
<polygon fill="#191970" stroke="#191970" points="153.566,-29.0951 149.0205,-19.5249 146.6059,-29.8409 153.566,-29.0951"/>
</g>
<!-- Node13 -->
<g id="node14" class="node">
<title>Node13</title>
<polygon fill="none" stroke="#bfbfbf" points="176.5,-56.5 176.5,-75.5 227.5,-75.5 227.5,-56.5 176.5,-56.5"/>
<text text-anchor="middle" x="202" y="-63.5" font-family="Helvetica,sans-Serif" font-size="10.00" fill="#000000">numeric</text>
</g>
<!-- Node12&#45;&gt;Node13 -->
<g id="edge18" class="edge">
<title>Node12&#45;&gt;Node13</title>
<path fill="none" stroke="#191970" d="M167.3158,-112.2455C173.2179,-104.3761 181.6742,-93.101 188.7594,-83.6542"/>
<polygon fill="#191970" stroke="#191970" points="191.568,-85.7427 194.768,-75.6427 185.9679,-81.5427 191.568,-85.7427"/>
</g>
<!-- Node14&#45;&gt;Node4 -->
<g id="edge30" class="edge">
<title>Node14&#45;&gt;Node4</title>
<path fill="none" stroke="#191970" d="M488.614,-168.4829C474.6313,-154.6894 447.064,-128.9432 420,-112 397.0305,-97.6201 368.7938,-85.4362 347.5417,-77.2274"/>
<polygon fill="#191970" stroke="#191970" points="348.6105,-73.8899 338.0187,-73.6335 346.1388,-80.439 348.6105,-73.8899"/>
</g>
<!-- Node14&#45;&gt;Node7 -->
<g id="edge29" class="edge">
<title>Node14&#45;&gt;Node7</title>
<path fill="none" stroke="#191970" d="M479.362,-168.2455C462.5614,-159.4527 437.6366,-146.4079 418.5382,-136.4125"/>
<polygon fill="#191970" stroke="#191970" points="419.9073,-133.1787 409.4244,-131.6427 416.6614,-139.3807 419.9073,-133.1787"/>
</g>
<!-- Node14&#45;&gt;Node11 -->
<g id="edge31" class="edge">
<title>Node14&#45;&gt;Node11</title>
<path fill="none" stroke="#191970" d="M534.2893,-168.44C556.1583,-161.2446 583.464,-149.5635 603,-132 630.2547,-107.4971 658.3272,-84.2675 635,-56 609.9838,-25.6858 494.7712,-15.1193 434.2997,-11.6216"/>
<polygon fill="#191970" stroke="#191970" points="434.2055,-8.1115 424.0308,-11.0653 433.8268,-15.1012 434.2055,-8.1115"/>
</g>
<!-- Node15 -->
<g id="node16" class="node">
<title>Node15</title>
<g id="a_node16"><a xlink:href="rkck45_8h.html" target="_top" xlink:title="rkck45.h">
<polygon fill="none" stroke="#000000" points="682,-112.5 682,-131.5 736,-131.5 736,-112.5 682,-112.5"/>
<text text-anchor="middle" x="709" y="-119.5" font-family="Helvetica,sans-Serif" font-size="10.00" fill="#000000">rkck45.h</text>
</a>
</g>
</g>
<!-- Node14&#45;&gt;Node15 -->
<g id="edge20" class="edge">
<title>Node14&#45;&gt;Node15</title>
<path fill="none" stroke="#191970" d="M534.2722,-168.3733C572.7781,-158.1537 633.3125,-142.0877 672.0679,-131.8019"/>
<polygon fill="#191970" stroke="#191970" points="673.137,-135.1394 681.9046,-129.1912 671.3413,-128.3736 673.137,-135.1394"/>
</g>
<!-- Node16 -->
<g id="node17" class="node">
<title>Node16</title>
<g id="a_node17"><a xlink:href="lsoda_8h.html" target="_top" xlink:title="lsoda.h">
<polygon fill="none" stroke="#000000" points="546,-112.5 546,-131.5 594,-131.5 594,-112.5 546,-112.5"/>
<text text-anchor="middle" x="570" y="-119.5" font-family="Helvetica,sans-Serif" font-size="10.00" fill="#000000">lsoda.h</text>
</a>
</g>
</g>
<!-- Node14&#45;&gt;Node16 -->
<g id="edge21" class="edge">
<title>Node14&#45;&gt;Node16</title>
<path fill="none" stroke="#191970" d="M510.5414,-168.2455C521.2787,-159.8943 536.9473,-147.7076 549.5047,-137.9408"/>
<polygon fill="#191970" stroke="#191970" points="551.8575,-140.5449 557.6023,-131.6427 547.5599,-135.0194 551.8575,-140.5449"/>
</g>
<!-- Node21 -->
<g id="node22" class="node">
<title>Node21</title>
<polygon fill="none" stroke="#bfbfbf" points="468.5,-112.5 468.5,-131.5 527.5,-131.5 527.5,-112.5 468.5,-112.5"/>
<text text-anchor="middle" x="498" y="-119.5" font-family="Helvetica,sans-Serif" font-size="10.00" fill="#000000">exception</text>
</g>
<!-- Node14&#45;&gt;Node21 -->
<g id="edge32" class="edge">
<title>Node14&#45;&gt;Node21</title>
<path fill="none" stroke="#191970" d="M498,-168.2455C498,-160.9382 498,-150.6944 498,-141.7046"/>
<polygon fill="#191970" stroke="#191970" points="501.5001,-141.6426 498,-131.6427 494.5001,-141.6427 501.5001,-141.6426"/>
</g>
<!-- Node16&#45;&gt;Node4 -->
<g id="edge25" class="edge">
<title>Node16&#45;&gt;Node4</title>
<path fill="none" stroke="#191970" d="M545.9325,-114.605C542.6094,-113.6767 539.2295,-112.7805 536,-112 455.9672,-92.6574 431.6414,-96.8114 348.1752,-76.0566"/>
<polygon fill="#191970" stroke="#191970" points="348.8082,-72.6064 338.2548,-73.5432 347.0889,-79.392 348.8082,-72.6064"/>
</g>
<!-- Node17 -->
<g id="node18" class="node">
<title>Node17</title>
<polygon fill="none" stroke="#bfbfbf" points="456,-56.5 456,-75.5 494,-75.5 494,-56.5 456,-56.5"/>
<text text-anchor="middle" x="475" y="-63.5" font-family="Helvetica,sans-Serif" font-size="10.00" fill="#000000">array</text>
</g>
<!-- Node16&#45;&gt;Node17 -->
<g id="edge22" class="edge">
<title>Node16&#45;&gt;Node17</title>
<path fill="none" stroke="#191970" d="M553.4523,-112.2455C538.7401,-103.5731 517.0112,-90.7645 500.1495,-80.825"/>
<polygon fill="#191970" stroke="#191970" points="501.7502,-77.7057 491.3581,-75.6427 498.1954,-83.736 501.7502,-77.7057"/>
</g>
<!-- Node18 -->
<g id="node19" class="node">
<title>Node18</title>
<polygon fill="none" stroke="#bfbfbf" points="512,-56.5 512,-75.5 556,-75.5 556,-56.5 512,-56.5"/>
<text text-anchor="middle" x="534" y="-63.5" font-family="Helvetica,sans-Serif" font-size="10.00" fill="#000000">cmath</text>
</g>
<!-- Node16&#45;&gt;Node18 -->
<g id="edge23" class="edge">
<title>Node16&#45;&gt;Node18</title>
<path fill="none" stroke="#191970" d="M563.7293,-112.2455C558.7736,-104.5367 551.717,-93.5598 545.7224,-84.2348"/>
<polygon fill="#191970" stroke="#191970" points="548.5506,-82.1618 540.1989,-75.6427 542.6624,-85.9471 548.5506,-82.1618"/>
</g>
<!-- Node19 -->
<g id="node20" class="node">
<title>Node19</title>
<polygon fill="none" stroke="#bfbfbf" points="574,-56.5 574,-75.5 626,-75.5 626,-56.5 574,-56.5"/>
<text text-anchor="middle" x="600" y="-63.5" font-family="Helvetica,sans-Serif" font-size="10.00" fill="#000000">memory</text>
</g>
<!-- Node16&#45;&gt;Node19 -->
<g id="edge24" class="edge">
<title>Node16&#45;&gt;Node19</title>
<path fill="none" stroke="#191970" d="M575.2256,-112.2455C579.3123,-104.617 585.1135,-93.7881 590.075,-84.5267"/>
<polygon fill="#191970" stroke="#191970" points="593.1972,-86.1103 594.8343,-75.6427 587.0268,-82.8047 593.1972,-86.1103"/>
</g>
<!-- Node20 -->
<g id="node21" class="node">
<title>Node20</title>
<g id="a_node21"><a xlink:href="lsoda_8tpp.html" target="_top" xlink:title="../src/lsoda.tpp">
<polygon fill="none" stroke="#000000" points="356,-56.5 356,-75.5 438,-75.5 438,-56.5 356,-56.5"/>
<text text-anchor="middle" x="397" y="-63.5" font-family="Helvetica,sans-Serif" font-size="10.00" fill="#000000">../src/lsoda.tpp</text>
</a>
</g>
</g>
<!-- Node16&#45;&gt;Node20 -->
<g id="edge26" class="edge">
<title>Node16&#45;&gt;Node20</title>
<path fill="none" stroke="#191970" d="M545.9451,-114.2134C517.5525,-105.0228 469.9402,-89.6107 436.1968,-78.688"/>
<polygon fill="#191970" stroke="#191970" points="437.2333,-75.3448 426.6414,-75.5949 435.0775,-82.0045 437.2333,-75.3448"/>
</g>
<!-- Node20&#45;&gt;Node2 -->
<g id="edge28" class="edge">
<title>Node20&#45;&gt;Node2</title>
<path fill="none" stroke="#191970" d="M355.8827,-56.7527C307.4425,-45.8586 227.835,-27.9549 182.4796,-17.7544"/>
<polygon fill="#191970" stroke="#191970" points="183.0594,-14.2975 172.5351,-15.5179 181.5234,-21.1269 183.0594,-14.2975"/>
</g>
<!-- Node20&#45;&gt;Node11 -->
<g id="edge27" class="edge">
<title>Node20&#45;&gt;Node11</title>
<path fill="none" stroke="#191970" d="M397,-56.2455C397,-48.9382 397,-38.6944 397,-29.7046"/>
<polygon fill="#191970" stroke="#191970" points="400.5001,-29.6426 397,-19.6427 393.5001,-29.6427 400.5001,-29.6426"/>
</g>
</g>
</svg>
