<?xml version="1.0" encoding="UTF-8" standalone="no"?>
<!DOCTYPE svg PUBLIC "-//W3C//DTD SVG 1.1//EN"
 "http://www.w3.org/Graphics/SVG/1.1/DTD/svg11.dtd">
<!-- Generated by graphviz version 2.40.1 (20161225.0304)
 -->
<!-- Title: src/fmu.cpp Pages: 1 -->
<svg width="709pt" height="308pt"
 viewBox="0.00 0.00 708.94 308.00" xmlns="http://www.w3.org/2000/svg" xmlns:xlink="http://www.w3.org/1999/xlink">
<g id="graph0" class="graph" transform="scale(1 1) rotate(0) translate(4 304)">
<title>src/fmu.cpp</title>
<!-- Node0 -->
<g id="node1" class="node">
<title>Node0</title>
<polygon fill="#bfbfbf" stroke="#000000" points="72,-280.5 72,-299.5 140,-299.5 140,-280.5 72,-280.5"/>
<text text-anchor="middle" x="106" y="-287.5" font-family="Helvetica,sans-Serif" font-size="10.00" fill="#000000">src/fmu.cpp</text>
</g>
<!-- Node1 -->
<g id="node2" class="node">
<title>Node1</title>
<polygon fill="none" stroke="#bfbfbf" points="13.5,-.5 13.5,-19.5 62.5,-19.5 62.5,-.5 13.5,-.5"/>
<text text-anchor="middle" x="38" y="-7.5" font-family="Helvetica,sans-Serif" font-size="10.00" fill="#000000">cassert</text>
</g>
<!-- Node0&#45;&gt;Node1 -->
<g id="edge1" class="edge">
<title>Node0&#45;&gt;Node1</title>
<path fill="none" stroke="#191970" d="M86.0622,-280.3628C55.3566,-263.9628 0,-227.5285 0,-178 0,-178 0,-178 0,-122 0,-87.6118 16.2634,-50.2832 27.511,-28.5791"/>
<polygon fill="#191970" stroke="#191970" points="30.7317,-29.9804 32.393,-19.5166 24.569,-26.6605 30.7317,-29.9804"/>
</g>
<!-- Node2 -->
<g id="node3" class="node">
<title>Node2</title>
<g id="a_node3"><a xlink:href="solver_8h.html" target="_top" xlink:title="solver.h">
<polygon fill="none" stroke="#000000" points="227.5,-224.5 227.5,-243.5 278.5,-243.5 278.5,-224.5 227.5,-224.5"/>
<text text-anchor="middle" x="253" y="-231.5" font-family="Helvetica,sans-Serif" font-size="10.00" fill="#000000">solver.h</text>
</a>
</g>
</g>
<!-- Node0&#45;&gt;Node2 -->
<g id="edge2" class="edge">
<title>Node0&#45;&gt;Node2</title>
<path fill="none" stroke="#191970" d="M131.2702,-280.3733C155.3966,-271.1822 191.9362,-257.2624 218.6877,-247.0713"/>
<polygon fill="#191970" stroke="#191970" points="219.9607,-250.3318 228.0596,-243.5011 217.4687,-243.7904 219.9607,-250.3318"/>
</g>
<!-- Node3 -->
<g id="node4" class="node">
<title>Node3</title>
<polygon fill="none" stroke="#bfbfbf" points="536,-56.5 536,-75.5 580,-75.5 580,-56.5 536,-56.5"/>
<text text-anchor="middle" x="558" y="-63.5" font-family="Helvetica,sans-Serif" font-size="10.00" fill="#000000">vector</text>
</g>
<!-- Node2&#45;&gt;Node3 -->
<g id="edge3" class="edge">
<title>Node2&#45;&gt;Node3</title>
<path fill="none" stroke="#191970" d="M278.7312,-233.2206C367.6045,-230.2676 657.7046,-218.3562 685,-188 707.5846,-162.8828 704.3957,-139.654 685,-112 673.8341,-96.0799 623.836,-81.4815 590.0049,-73.1736"/>
<polygon fill="#191970" stroke="#191970" points="590.6252,-69.7234 580.0855,-70.8028 588.9979,-76.5316 590.6252,-69.7234"/>
</g>
<!-- Node4 -->
<g id="node5" class="node">
<title>Node4</title>
<polygon fill="none" stroke="#bfbfbf" points="28.5,-112.5 28.5,-131.5 57.5,-131.5 57.5,-112.5 28.5,-112.5"/>
<text text-anchor="middle" x="43" y="-119.5" font-family="Helvetica,sans-Serif" font-size="10.00" fill="#000000">list</text>
</g>
<!-- Node2&#45;&gt;Node4 -->
<g id="edge4" class="edge">
<title>Node2&#45;&gt;Node4</title>
<path fill="none" stroke="#191970" d="M227.3923,-230.9614C181.2217,-224.9866 86.6207,-210.318 63,-188 50.3784,-176.0745 45.6387,-156.4783 43.9012,-141.7302"/>
<polygon fill="#191970" stroke="#191970" points="47.3769,-141.2877 43.0769,-131.6047 40.3999,-141.8557 47.3769,-141.2877"/>
</g>
<!-- Node5 -->
<g id="node6" class="node">
<title>Node5</title>
<polygon fill="none" stroke="#bfbfbf" points="149.5,-168.5 149.5,-187.5 184.5,-187.5 184.5,-168.5 149.5,-168.5"/>
<text text-anchor="middle" x="167" y="-175.5" font-family="Helvetica,sans-Serif" font-size="10.00" fill="#000000">map</text>
</g>
<!-- Node2&#45;&gt;Node5 -->
<g id="edge5" class="edge">
<title>Node2&#45;&gt;Node5</title>
<path fill="none" stroke="#191970" d="M238.0199,-224.2455C224.8249,-215.6534 205.3949,-203.0014 190.1921,-193.1018"/>
<polygon fill="#191970" stroke="#191970" points="192.0983,-190.1665 181.8084,-187.6427 188.2785,-196.0325 192.0983,-190.1665"/>
</g>
<!-- Node6 -->
<g id="node7" class="node">
<title>Node6</title>
<polygon fill="none" stroke="#bfbfbf" points="256.5,-112.5 256.5,-131.5 297.5,-131.5 297.5,-112.5 256.5,-112.5"/>
<text text-anchor="middle" x="277" y="-119.5" font-family="Helvetica,sans-Serif" font-size="10.00" fill="#000000">string</text>
</g>
<!-- Node2&#45;&gt;Node6 -->
<g id="edge6" class="edge">
<title>Node2&#45;&gt;Node6</title>
<path fill="none" stroke="#191970" d="M245.7882,-224.4334C236.9313,-211.4429 224.0089,-187.5962 232,-168 236.7156,-156.4363 245.8927,-146.2008 254.7362,-138.3383"/>
<polygon fill="#191970" stroke="#191970" points="257.1496,-140.8842 262.6263,-131.8147 252.6891,-135.4894 257.1496,-140.8842"/>
</g>
<!-- Node7 -->
<g id="node8" class="node">
<title>Node7</title>
<g id="a_node8"><a xlink:href="environment__base_8h.html" target="_top" xlink:title="environment_base.h">
<polygon fill="none" stroke="#000000" points="241,-168.5 241,-187.5 345,-187.5 345,-168.5 241,-168.5"/>
<text text-anchor="middle" x="293" y="-175.5" font-family="Helvetica,sans-Serif" font-size="10.00" fill="#000000">environment_base.h</text>
</a>
</g>
</g>
<!-- Node2&#45;&gt;Node7 -->
<g id="edge7" class="edge">
<title>Node2&#45;&gt;Node7</title>
<path fill="none" stroke="#191970" d="M259.9675,-224.2455C265.5311,-216.4564 273.478,-205.3308 280.1829,-195.9439"/>
<polygon fill="#191970" stroke="#191970" points="283.148,-197.8144 286.1124,-187.6427 277.4519,-193.7457 283.148,-197.8144"/>
</g>
<!-- Node8 -->
<g id="node9" class="node">
<title>Node8</title>
<g id="a_node9"><a xlink:href="species_8h.html" target="_top" xlink:title="species.h">
<polygon fill="none" stroke="#000000" points="72.5,-168.5 72.5,-187.5 131.5,-187.5 131.5,-168.5 72.5,-168.5"/>
<text text-anchor="middle" x="102" y="-175.5" font-family="Helvetica,sans-Serif" font-size="10.00" fill="#000000">species.h</text>
</a>
</g>
</g>
<!-- Node2&#45;&gt;Node8 -->
<g id="edge8" class="edge">
<title>Node2&#45;&gt;Node8</title>
<path fill="none" stroke="#191970" d="M227.3849,-224.5004C202.6549,-215.329 165.0003,-201.3643 137.4083,-191.1316"/>
<polygon fill="#191970" stroke="#191970" points="138.3338,-187.7419 127.7407,-187.5462 135.8997,-194.3051 138.3338,-187.7419"/>
</g>
<!-- Node14 -->
<g id="node15" class="node">
<title>Node14</title>
<g id="a_node15"><a xlink:href="ode__solver_8h.html" target="_top" xlink:title="ode_solver.h">
<polygon fill="none" stroke="#000000" points="604,-168.5 604,-187.5 676,-187.5 676,-168.5 604,-168.5"/>
<text text-anchor="middle" x="640" y="-175.5" font-family="Helvetica,sans-Serif" font-size="10.00" fill="#000000">ode_solver.h</text>
</a>
</g>
</g>
<!-- Node2&#45;&gt;Node14 -->
<g id="edge18" class="edge">
<title>Node2&#45;&gt;Node14</title>
<path fill="none" stroke="#191970" d="M278.8577,-231.2819C334.5649,-225.2645 470.2193,-209.7439 593.7004,-188.1142"/>
<polygon fill="#191970" stroke="#191970" points="594.467,-191.533 603.7039,-186.3435 593.2469,-184.6401 594.467,-191.533"/>
</g>
<!-- Node22 -->
<g id="node23" class="node">
<title>Node22</title>
<g id="a_node23"><a xlink:href="solver_8tpp.html" target="_top" xlink:title="../src/solver.tpp">
<polygon fill="none" stroke="#000000" points="363.5,-168.5 363.5,-187.5 448.5,-187.5 448.5,-168.5 363.5,-168.5"/>
<text text-anchor="middle" x="406" y="-175.5" font-family="Helvetica,sans-Serif" font-size="10.00" fill="#000000">../src/solver.tpp</text>
</a>
</g>
</g>
<!-- Node2&#45;&gt;Node22 -->
<g id="edge32" class="edge">
<title>Node2&#45;&gt;Node22</title>
<path fill="none" stroke="#191970" d="M278.6088,-224.6269C303.7207,-215.4355 342.2225,-201.3434 370.3267,-191.0569"/>
<polygon fill="#191970" stroke="#191970" points="371.6071,-194.3154 379.7948,-187.5914 369.2011,-187.7419 371.6071,-194.3154"/>
</g>
<!-- Node23 -->
<g id="node24" class="node">
<title>Node23</title>
<g id="a_node24"><a xlink:href="size__integrals_8tpp.html" target="_top" xlink:title="../src/size_integrals.tpp">
<polygon fill="none" stroke="#000000" points="466.5,-168.5 466.5,-187.5 585.5,-187.5 585.5,-168.5 466.5,-168.5"/>
<text text-anchor="middle" x="526" y="-175.5" font-family="Helvetica,sans-Serif" font-size="10.00" fill="#000000">../src/size_integrals.tpp</text>
</a>
</g>
</g>
<!-- Node2&#45;&gt;Node23 -->
<g id="edge33" class="edge">
<title>Node2&#45;&gt;Node23</title>
<path fill="none" stroke="#191970" d="M278.6832,-228.7317C322.1602,-219.8133 411.2296,-201.5426 469.7621,-189.536"/>
<polygon fill="#191970" stroke="#191970" points="470.5066,-192.9562 479.5993,-187.5181 469.0999,-186.099 470.5066,-192.9562"/>
</g>
<!-- Node8&#45;&gt;Node3 -->
<g id="edge9" class="edge">
<title>Node8&#45;&gt;Node3</title>
<path fill="none" stroke="#191970" d="M131.7781,-169.7273C134.546,-169.0905 137.3178,-168.5015 140,-168 280.247,-141.7759 324.9817,-180.9493 459,-132 489.9601,-120.692 520.7865,-97.8399 539.6182,-82.2274"/>
<polygon fill="#191970" stroke="#191970" points="542.0283,-84.7726 547.384,-75.6311 537.4965,-79.4375 542.0283,-84.7726"/>
</g>
<!-- Node8&#45;&gt;Node4 -->
<g id="edge10" class="edge">
<title>Node8&#45;&gt;Node4</title>
<path fill="none" stroke="#191970" d="M91.723,-168.2455C83.1782,-160.1352 70.8222,-148.4075 60.6915,-138.7919"/>
<polygon fill="#191970" stroke="#191970" points="62.8218,-135.9884 53.1592,-131.6427 58.0028,-141.0655 62.8218,-135.9884"/>
</g>
<!-- Node8&#45;&gt;Node6 -->
<g id="edge11" class="edge">
<title>Node8&#45;&gt;Node6</title>
<path fill="none" stroke="#191970" d="M131.7549,-168.6996C159.1463,-160.1073 201.1444,-146.8566 246.6065,-132.0965"/>
<polygon fill="#191970" stroke="#191970" points="247.9293,-135.3468 256.3562,-128.9251 245.764,-128.6901 247.9293,-135.3468"/>
</g>
<!-- Node9 -->
<g id="node10" class="node">
<title>Node9</title>
<g id="a_node10"><a xlink:href="cohort_8h.html" target="_top" xlink:title="cohort.h">
<polygon fill="none" stroke="#000000" points="186,-112.5 186,-131.5 238,-131.5 238,-112.5 186,-112.5"/>
<text text-anchor="middle" x="212" y="-119.5" font-family="Helvetica,sans-Serif" font-size="10.00" fill="#000000">cohort.h</text>
</a>
</g>
</g>
<!-- Node8&#45;&gt;Node9 -->
<g id="edge12" class="edge">
<title>Node8&#45;&gt;Node9</title>
<path fill="none" stroke="#191970" d="M121.1605,-168.2455C138.5111,-159.4125 164.2901,-146.2887 183.9583,-136.2758"/>
<polygon fill="#191970" stroke="#191970" points="185.7353,-139.2986 193.059,-131.6427 182.5595,-133.0605 185.7353,-139.2986"/>
</g>
<!-- Node11 -->
<g id="node12" class="node">
<title>Node11</title>
<g id="a_node12"><a xlink:href="species_8tpp.html" target="_top" xlink:title="../src/species.tpp">
<polygon fill="none" stroke="#000000" points="76,-112.5 76,-131.5 168,-131.5 168,-112.5 76,-112.5"/>
<text text-anchor="middle" x="122" y="-119.5" font-family="Helvetica,sans-Serif" font-size="10.00" fill="#000000">../src/species.tpp</text>
</a>
</g>
</g>
<!-- Node8&#45;&gt;Node11 -->
<g id="edge14" class="edge">
<title>Node8&#45;&gt;Node11</title>
<path fill="none" stroke="#191970" d="M105.4837,-168.2455C108.1508,-160.7776 111.9133,-150.2427 115.1737,-141.1137"/>
<polygon fill="#191970" stroke="#191970" points="118.4889,-142.2373 118.5562,-131.6427 111.8967,-139.8829 118.4889,-142.2373"/>
</g>
<!-- Node10 -->
<g id="node11" class="node">
<title>Node10</title>
<polygon fill="none" stroke="#bfbfbf" points="293,-.5 293,-19.5 347,-19.5 347,-.5 293,-.5"/>
<text text-anchor="middle" x="320" y="-7.5" font-family="Helvetica,sans-Serif" font-size="10.00" fill="#000000">iostream</text>
</g>
<!-- Node9&#45;&gt;Node10 -->
<g id="edge13" class="edge">
<title>Node9&#45;&gt;Node10</title>
<path fill="none" stroke="#191970" d="M238.2541,-114.6942C258.2111,-107.8339 284.894,-95.633 301,-76 311.7411,-62.9067 316.4121,-44.0263 318.4423,-29.8105"/>
<polygon fill="#191970" stroke="#191970" points="321.9499,-29.9335 319.5698,-19.6095 314.9923,-29.1645 321.9499,-29.9335"/>
</g>
<!-- Node11&#45;&gt;Node1 -->
<g id="edge15" class="edge">
<title>Node11&#45;&gt;Node1</title>
<path fill="none" stroke="#191970" d="M101.8785,-112.4453C87.3884,-104.5817 68.4482,-92.1172 57,-76 47.3019,-62.3466 42.5262,-43.8082 40.1908,-29.8549"/>
<polygon fill="#191970" stroke="#191970" points="43.6404,-29.2498 38.7937,-19.8285 36.7074,-30.2159 43.6404,-29.2498"/>
</g>
<!-- Node12 -->
<g id="node13" class="node">
<title>Node12</title>
<polygon fill="none" stroke="#bfbfbf" points="66,-56.5 66,-75.5 122,-75.5 122,-56.5 66,-56.5"/>
<text text-anchor="middle" x="94" y="-63.5" font-family="Helvetica,sans-Serif" font-size="10.00" fill="#000000">algorithm</text>
</g>
<!-- Node11&#45;&gt;Node12 -->
<g id="edge16" class="edge">
<title>Node11&#45;&gt;Node12</title>
<path fill="none" stroke="#191970" d="M117.1228,-112.2455C113.3487,-104.6973 108.0079,-94.0158 103.4099,-84.8197"/>
<polygon fill="#191970" stroke="#191970" points="106.424,-83.0217 98.8213,-75.6427 100.163,-86.1522 106.424,-83.0217"/>
</g>
<!-- Node13 -->
<g id="node14" class="node">
<title>Node13</title>
<polygon fill="none" stroke="#bfbfbf" points="140.5,-56.5 140.5,-75.5 191.5,-75.5 191.5,-56.5 140.5,-56.5"/>
<text text-anchor="middle" x="166" y="-63.5" font-family="Helvetica,sans-Serif" font-size="10.00" fill="#000000">numeric</text>
</g>
<!-- Node11&#45;&gt;Node13 -->
<g id="edge17" class="edge">
<title>Node11&#45;&gt;Node13</title>
<path fill="none" stroke="#191970" d="M129.6642,-112.2455C135.8473,-104.3761 144.7063,-93.101 152.1289,-83.6542"/>
<polygon fill="#191970" stroke="#191970" points="154.9975,-85.6683 158.4236,-75.6427 149.4932,-81.3435 154.9975,-85.6683"/>
</g>
<!-- Node14&#45;&gt;Node3 -->
<g id="edge29" class="edge">
<title>Node14&#45;&gt;Node3</title>
<path fill="none" stroke="#191970" d="M608.9006,-168.4219C581.42,-159.2548 544.4298,-144.9462 536,-132 526.3767,-117.221 534.8883,-97.8295 543.9782,-83.8953"/>
<polygon fill="#191970" stroke="#191970" points="546.9119,-85.8092 549.8503,-75.6299 541.2054,-81.755 546.9119,-85.8092"/>
</g>
<!-- Node14&#45;&gt;Node6 -->
<g id="edge28" class="edge">
<title>Node14&#45;&gt;Node6</title>
<path fill="none" stroke="#191970" d="M603.6982,-169.6878C600.7608,-169.09 597.834,-168.5191 595,-168 490.1001,-148.7853 364.529,-132.6153 307.6633,-125.6584"/>
<polygon fill="#191970" stroke="#191970" points="307.8977,-122.1612 297.5486,-124.4298 307.0536,-129.1102 307.8977,-122.1612"/>
</g>
<!-- Node14&#45;&gt;Node10 -->
<g id="edge30" class="edge">
<title>Node14&#45;&gt;Node10</title>
<path fill="none" stroke="#191970" d="M654.5926,-168.4639C671.9105,-155.8953 697.0186,-132.9248 685,-112 660.3981,-69.1672 635.4223,-72.8782 589,-56 509.6422,-27.1472 410.4041,-16.1732 357.428,-12.1683"/>
<polygon fill="#191970" stroke="#191970" points="357.3828,-8.6563 347.1592,-11.4362 356.885,-15.6386 357.3828,-8.6563"/>
</g>
<!-- Node15 -->
<g id="node16" class="node">
<title>Node15</title>
<g id="a_node16"><a xlink:href="rkck45_8h.html" target="_top" xlink:title="rkck45.h">
<polygon fill="none" stroke="#000000" points="622,-112.5 622,-131.5 676,-131.5 676,-112.5 622,-112.5"/>
<text text-anchor="middle" x="649" y="-119.5" font-family="Helvetica,sans-Serif" font-size="10.00" fill="#000000">rkck45.h</text>
</a>
</g>
</g>
<!-- Node14&#45;&gt;Node15 -->
<g id="edge19" class="edge">
<title>Node14&#45;&gt;Node15</title>
<path fill="none" stroke="#191970" d="M641.5677,-168.2455C642.7421,-160.9382 644.3884,-150.6944 645.8332,-141.7046"/>
<polygon fill="#191970" stroke="#191970" points="649.3191,-142.0714 647.4503,-131.6427 642.4078,-140.9606 649.3191,-142.0714"/>
</g>
<!-- Node16 -->
<g id="node17" class="node">
<title>Node16</title>
<g id="a_node17"><a xlink:href="lsoda_8h.html" target="_top" xlink:title="lsoda.h">
<polygon fill="none" stroke="#000000" points="402,-112.5 402,-131.5 450,-131.5 450,-112.5 402,-112.5"/>
<text text-anchor="middle" x="426" y="-119.5" font-family="Helvetica,sans-Serif" font-size="10.00" fill="#000000">lsoda.h</text>
</a>
</g>
</g>
<!-- Node14&#45;&gt;Node16 -->
<g id="edge20" class="edge">
<title>Node14&#45;&gt;Node16</title>
<path fill="none" stroke="#191970" d="M603.6978,-168.5004C563.5237,-157.9875 499.2824,-141.1767 460.04,-130.9077"/>
<polygon fill="#191970" stroke="#191970" points="460.7139,-127.4662 450.1536,-128.3206 458.9418,-134.2382 460.7139,-127.4662"/>
</g>
<!-- Node21 -->
<g id="node22" class="node">
<title>Node21</title>
<polygon fill="none" stroke="#bfbfbf" points="544.5,-112.5 544.5,-131.5 603.5,-131.5 603.5,-112.5 544.5,-112.5"/>
<text text-anchor="middle" x="574" y="-119.5" font-family="Helvetica,sans-Serif" font-size="10.00" fill="#000000">exception</text>
</g>
<!-- Node14&#45;&gt;Node21 -->
<g id="edge31" class="edge">
<title>Node14&#45;&gt;Node21</title>
<path fill="none" stroke="#191970" d="M628.5037,-168.2455C618.7558,-159.9746 604.5741,-147.9416 593.1202,-138.2232"/>
<polygon fill="#191970" stroke="#191970" points="595.2541,-135.4437 585.3646,-131.6427 590.7253,-140.7813 595.2541,-135.4437"/>
</g>
<!-- Node16&#45;&gt;Node3 -->
<g id="edge24" class="edge">
<title>Node16&#45;&gt;Node3</title>
<path fill="none" stroke="#191970" d="M448.6916,-112.3733C470.0711,-103.3032 502.3057,-89.6279 526.2362,-79.4755"/>
<polygon fill="#191970" stroke="#191970" points="527.7656,-82.6287 535.6045,-75.5011 525.0317,-76.1846 527.7656,-82.6287"/>
</g>
<!-- Node17 -->
<g id="node18" class="node">
<title>Node17</title>
<polygon fill="none" stroke="#bfbfbf" points="348,-56.5 348,-75.5 386,-75.5 386,-56.5 348,-56.5"/>
<text text-anchor="middle" x="367" y="-63.5" font-family="Helvetica,sans-Serif" font-size="10.00" fill="#000000">array</text>
</g>
<!-- Node16&#45;&gt;Node17 -->
<g id="edge21" class="edge">
<title>Node16&#45;&gt;Node17</title>
<path fill="none" stroke="#191970" d="M415.723,-112.2455C407.1782,-104.1352 394.8222,-92.4075 384.6915,-82.7919"/>
<polygon fill="#191970" stroke="#191970" points="386.8218,-79.9884 377.1592,-75.6427 382.0028,-85.0655 386.8218,-79.9884"/>
</g>
<!-- Node18 -->
<g id="node19" class="node">
<title>Node18</title>
<polygon fill="none" stroke="#bfbfbf" points="404,-56.5 404,-75.5 448,-75.5 448,-56.5 404,-56.5"/>
<text text-anchor="middle" x="426" y="-63.5" font-family="Helvetica,sans-Serif" font-size="10.00" fill="#000000">cmath</text>
</g>
<!-- Node16&#45;&gt;Node18 -->
<g id="edge22" class="edge">
<title>Node16&#45;&gt;Node18</title>
<path fill="none" stroke="#191970" d="M426,-112.2455C426,-104.9382 426,-94.6944 426,-85.7046"/>
<polygon fill="#191970" stroke="#191970" points="429.5001,-85.6426 426,-75.6427 422.5001,-85.6427 429.5001,-85.6426"/>
</g>
<!-- Node19 -->
<g id="node20" class="node">
<title>Node19</title>
<polygon fill="none" stroke="#bfbfbf" points="466,-56.5 466,-75.5 518,-75.5 518,-56.5 466,-56.5"/>
<text text-anchor="middle" x="492" y="-63.5" font-family="Helvetica,sans-Serif" font-size="10.00" fill="#000000">memory</text>
</g>
<!-- Node16&#45;&gt;Node19 -->
<g id="edge23" class="edge">
<title>Node16&#45;&gt;Node19</title>
<path fill="none" stroke="#191970" d="M437.4963,-112.2455C447.2442,-103.9746 461.4259,-91.9416 472.8798,-82.2232"/>
<polygon fill="#191970" stroke="#191970" points="475.2747,-84.7813 480.6354,-75.6427 470.7459,-79.4437 475.2747,-84.7813"/>
</g>
<!-- Node20 -->
<g id="node21" class="node">
<title>Node20</title>
<g id="a_node21"><a xlink:href="lsoda_8tpp.html" target="_top" xlink:title="../src/lsoda.tpp">
<polygon fill="none" stroke="#000000" points="210,-56.5 210,-75.5 292,-75.5 292,-56.5 210,-56.5"/>
<text text-anchor="middle" x="251" y="-63.5" font-family="Helvetica,sans-Serif" font-size="10.00" fill="#000000">../src/lsoda.tpp</text>
</a>
</g>
</g>
<!-- Node16&#45;&gt;Node20 -->
<g id="edge25" class="edge">
<title>Node16&#45;&gt;Node20</title>
<path fill="none" stroke="#191970" d="M401.667,-114.2134C372.9462,-105.0228 324.7834,-89.6107 290.65,-78.688"/>
<polygon fill="#191970" stroke="#191970" points="291.5751,-75.3092 280.9841,-75.5949 289.4416,-81.9762 291.5751,-75.3092"/>
</g>
<!-- Node20&#45;&gt;Node1 -->
<g id="edge27" class="edge">
<title>Node20&#45;&gt;Node1</title>
<path fill="none" stroke="#191970" d="M214.384,-56.3733C174.5304,-45.8953 111.3009,-29.2716 72.3579,-19.0331"/>
<polygon fill="#191970" stroke="#191970" points="73.095,-15.608 62.5337,-16.4502 71.3151,-22.3779 73.095,-15.608"/>
</g>
<!-- Node20&#45;&gt;Node10 -->
<g id="edge26" class="edge">
<title>Node20&#45;&gt;Node10</title>
<path fill="none" stroke="#191970" d="M263.0189,-56.2455C273.2098,-47.9746 288.0362,-35.9416 300.0107,-26.2232"/>
<polygon fill="#191970" stroke="#191970" points="302.5598,-28.662 308.1188,-19.6427 298.1486,-23.2268 302.5598,-28.662"/>
</g>
</g>
</svg>
