<?xml version="1.0" encoding="UTF-8" standalone="no"?>
<!DOCTYPE svg PUBLIC "-//W3C//DTD SVG 1.1//EN"
 "http://www.w3.org/Graphics/SVG/1.1/DTD/svg11.dtd">
<!-- Generated by graphviz version 2.40.1 (20161225.0304)
 -->
<!-- Title: phi Pages: 1 -->
<svg width="433pt" height="28pt"
 viewBox="0.00 0.00 433.00 28.00" xmlns="http://www.w3.org/2000/svg" xmlns:xlink="http://www.w3.org/1999/xlink">
<g id="graph0" class="graph" transform="scale(1 1) rotate(0) translate(4 24)">
<title>phi</title>
<!-- Node1 -->
<g id="node1" class="node">
<title>Node1</title>
<polygon fill="#bfbfbf" stroke="#000000" points="0,-.5 0,-19.5 29,-19.5 29,-.5 0,-.5"/>
<text text-anchor="middle" x="14.5" y="-7.5" font-family="Helvetica,sans-Serif" font-size="10.00" fill="#000000">phi</text>
</g>
<!-- Node2 -->
<g id="node2" class="node">
<title>Node2</title>
<g id="a_node2"><a xlink:href="classSolver.html#a2ea9fb6abc4ffd5ac28154332029da40" target="_top" xlink:title="Solver::calcRates_FMU">
<polygon fill="none" stroke="#000000" points="65,-.5 65,-19.5 187,-19.5 187,-.5 65,-.5"/>
<text text-anchor="middle" x="126" y="-7.5" font-family="Helvetica,sans-Serif" font-size="10.00" fill="#000000">Solver::calcRates_FMU</text>
</a>
</g>
</g>
<!-- Node1&#45;&gt;Node2 -->
<g id="edge1" class="edge">
<title>Node1&#45;&gt;Node2</title>
<path fill="none" stroke="#191970" d="M39.1455,-10C46.8965,-10 55.8272,-10 64.9489,-10"/>
<polygon fill="#191970" stroke="#191970" points="39.0767,-6.5001 29.0767,-10 39.0766,-13.5001 39.0767,-6.5001"/>
</g>
<!-- Node3 -->
<g id="node3" class="node">
<title>Node3</title>
<g id="a_node3"><a xlink:href="classSolver.html#af4c8f6565df94ed6a058a224196b9c2b" target="_top" xlink:title="Solver::step_to">
<polygon fill="none" stroke="#000000" points="223,-.5 223,-19.5 306,-19.5 306,-.5 223,-.5"/>
<text text-anchor="middle" x="264.5" y="-7.5" font-family="Helvetica,sans-Serif" font-size="10.00" fill="#000000">Solver::step_to</text>
</a>
</g>
</g>
<!-- Node2&#45;&gt;Node3 -->
<g id="edge2" class="edge">
<title>Node2&#45;&gt;Node3</title>
<path fill="none" stroke="#191970" d="M197.3465,-10C206.042,-10 214.6935,-10 222.7517,-10"/>
<polygon fill="#191970" stroke="#191970" points="197.1513,-6.5001 187.1513,-10 197.1512,-13.5001 197.1513,-6.5001"/>
</g>
<!-- Node4 -->
<g id="node4" class="node">
<title>Node4</title>
<g id="a_node4"><a xlink:href="classSolver.html#a06cf82d0a99490279ab20d2ad6b876db" target="_top" xlink:title="Solver::step_to">
<polygon fill="none" stroke="#000000" points="342,-.5 342,-19.5 425,-19.5 425,-.5 342,-.5"/>
<text text-anchor="middle" x="383.5" y="-7.5" font-family="Helvetica,sans-Serif" font-size="10.00" fill="#000000">Solver::step_to</text>
</a>
</g>
</g>
<!-- Node3&#45;&gt;Node4 -->
<g id="edge3" class="edge">
<title>Node3&#45;&gt;Node4</title>
<path fill="none" stroke="#191970" d="M316.3174,-10C324.8022,-10 333.499,-10 341.7019,-10"/>
<polygon fill="#191970" stroke="#191970" points="316.1205,-6.5001 306.1204,-10 316.1204,-13.5001 316.1205,-6.5001"/>
</g>
</g>
</svg>
