<?xml version="1.0" encoding="UTF-8" standalone="no"?>
<!DOCTYPE svg PUBLIC "-//W3C//DTD SVG 1.1//EN"
 "http://www.w3.org/Graphics/SVG/1.1/DTD/svg11.dtd">
<!-- Generated by graphviz version 2.40.1 (20161225.0304)
 -->
<!-- Title: include/gsl_ode_solver.h Pages: 1 -->
<svg width="392pt" height="84pt"
 viewBox="0.00 0.00 392.00 84.00" xmlns="http://www.w3.org/2000/svg" xmlns:xlink="http://www.w3.org/1999/xlink">
<g id="graph0" class="graph" transform="scale(1 1) rotate(0) translate(4 80)">
<title>include/gsl_ode_solver.h</title>
<!-- Node0 -->
<g id="node1" class="node">
<title>Node0</title>
<polygon fill="#bfbfbf" stroke="#000000" points="169,-56.5 169,-75.5 293,-75.5 293,-56.5 169,-56.5"/>
<text text-anchor="middle" x="231" y="-63.5" font-family="Helvetica,sans-Serif" font-size="10.00" fill="#000000">include/gsl_ode_solver.h</text>
</g>
<!-- Node1 -->
<g id="node2" class="node">
<title>Node1</title>
<polygon fill="none" stroke="#bfbfbf" points="0,-.5 0,-19.5 80,-19.5 80,-.5 0,-.5"/>
<text text-anchor="middle" x="40" y="-7.5" font-family="Helvetica,sans-Serif" font-size="10.00" fill="#000000">gsl/gsl_errno.h</text>
</g>
<!-- Node0&#45;&gt;Node1 -->
<g id="edge1" class="edge">
<title>Node0&#45;&gt;Node1</title>
<path fill="none" stroke="#191970" d="M198.1659,-56.3733C166.1305,-46.9807 117.2513,-32.6496 82.3145,-22.4064"/>
<polygon fill="#191970" stroke="#191970" points="82.9864,-18.9561 72.4056,-19.5011 81.0169,-25.6733 82.9864,-18.9561"/>
</g>
<!-- Node2 -->
<g id="node3" class="node">
<title>Node2</title>
<polygon fill="none" stroke="#bfbfbf" points="98.5,-.5 98.5,-19.5 185.5,-19.5 185.5,-.5 98.5,-.5"/>
<text text-anchor="middle" x="142" y="-7.5" font-family="Helvetica,sans-Serif" font-size="10.00" fill="#000000">gsl/gsl_odeiv2.h</text>
</g>
<!-- Node0&#45;&gt;Node2 -->
<g id="edge2" class="edge">
<title>Node0&#45;&gt;Node2</title>
<path fill="none" stroke="#191970" d="M215.4974,-56.2455C201.842,-47.6534 181.7343,-35.0014 166.0011,-25.1018"/>
<polygon fill="#191970" stroke="#191970" points="167.6529,-22.006 157.325,-19.6427 163.9249,-27.9307 167.6529,-22.006"/>
</g>
<!-- Node3 -->
<g id="node4" class="node">
<title>Node3</title>
<polygon fill="none" stroke="#bfbfbf" points="204,-.5 204,-19.5 258,-19.5 258,-.5 204,-.5"/>
<text text-anchor="middle" x="231" y="-7.5" font-family="Helvetica,sans-Serif" font-size="10.00" fill="#000000">iostream</text>
</g>
<!-- Node0&#45;&gt;Node3 -->
<g id="edge3" class="edge">
<title>Node0&#45;&gt;Node3</title>
<path fill="none" stroke="#191970" d="M231,-56.2455C231,-48.9382 231,-38.6944 231,-29.7046"/>
<polygon fill="#191970" stroke="#191970" points="234.5001,-29.6426 231,-19.6427 227.5001,-29.6427 234.5001,-29.6426"/>
</g>
<!-- Node4 -->
<g id="node5" class="node">
<title>Node4</title>
<polygon fill="none" stroke="#bfbfbf" points="276,-.5 276,-19.5 320,-19.5 320,-.5 276,-.5"/>
<text text-anchor="middle" x="298" y="-7.5" font-family="Helvetica,sans-Serif" font-size="10.00" fill="#000000">vector</text>
</g>
<!-- Node0&#45;&gt;Node4 -->
<g id="edge4" class="edge">
<title>Node0&#45;&gt;Node4</title>
<path fill="none" stroke="#191970" d="M242.6705,-56.2455C252.5661,-47.9746 266.9627,-35.9416 278.5901,-26.2232"/>
<polygon fill="#191970" stroke="#191970" points="281.035,-28.7413 286.4632,-19.6427 276.5458,-23.3703 281.035,-28.7413"/>
</g>
<!-- Node5 -->
<g id="node6" class="node">
<title>Node5</title>
<polygon fill="none" stroke="#bfbfbf" points="338,-.5 338,-19.5 384,-19.5 384,-.5 338,-.5"/>
<text text-anchor="middle" x="361" y="-7.5" font-family="Helvetica,sans-Serif" font-size="10.00" fill="#000000">chrono</text>
</g>
<!-- Node0&#45;&gt;Node5 -->
<g id="edge5" class="edge">
<title>Node0&#45;&gt;Node5</title>
<path fill="none" stroke="#191970" d="M253.3478,-56.3733C274.4033,-47.3032 306.1495,-33.6279 329.7175,-23.4755"/>
<polygon fill="#191970" stroke="#191970" points="331.1444,-26.6719 338.9438,-19.5011 328.375,-20.243 331.1444,-26.6719"/>
</g>
</g>
</svg>
