<?xml version="1.0" encoding="UTF-8" standalone="no"?>
<!DOCTYPE svg PUBLIC "-//W3C//DTD SVG 1.1//EN"
 "http://www.w3.org/Graphics/SVG/1.1/DTD/svg11.dtd">
<!-- Generated by graphviz version 2.40.1 (20161225.0304)
 -->
<!-- Title: src/ifmu.cpp Pages: 1 -->
<svg width="889pt" height="308pt"
 viewBox="0.00 0.00 889.38 308.00" xmlns="http://www.w3.org/2000/svg" xmlns:xlink="http://www.w3.org/1999/xlink">
<g id="graph0" class="graph" transform="scale(1 1) rotate(0) translate(4 304)">
<title>src/ifmu.cpp</title>
<!-- Node0 -->
<g id="node1" class="node">
<title>Node0</title>
<polygon fill="#bfbfbf" stroke="#000000" points="139.5,-280.5 139.5,-299.5 210.5,-299.5 210.5,-280.5 139.5,-280.5"/>
<text text-anchor="middle" x="175" y="-287.5" font-family="Helvetica,sans-Serif" font-size="10.00" fill="#000000">src/ifmu.cpp</text>
</g>
<!-- Node1 -->
<g id="node2" class="node">
<title>Node1</title>
<polygon fill="none" stroke="#bfbfbf" points="264.5,-.5 264.5,-19.5 313.5,-19.5 313.5,-.5 264.5,-.5"/>
<text text-anchor="middle" x="289" y="-7.5" font-family="Helvetica,sans-Serif" font-size="10.00" fill="#000000">cassert</text>
</g>
<!-- Node0&#45;&gt;Node1 -->
<g id="edge1" class="edge">
<title>Node0&#45;&gt;Node1</title>
<path fill="none" stroke="#191970" d="M139.1638,-283.6988C87.9653,-272.4032 0,-243.4697 0,-178 0,-178 0,-178 0,-122 0,-68.038 177.3921,-29.8833 254.2162,-15.8896"/>
<polygon fill="#191970" stroke="#191970" points="255.132,-19.2815 264.36,-14.0763 253.9001,-12.3907 255.132,-19.2815"/>
</g>
<!-- Node2 -->
<g id="node3" class="node">
<title>Node2</title>
<g id="a_node3"><a xlink:href="solver_8h.html" target="_top" xlink:title="solver.h">
<polygon fill="none" stroke="#000000" points="378.5,-224.5 378.5,-243.5 429.5,-243.5 429.5,-224.5 378.5,-224.5"/>
<text text-anchor="middle" x="404" y="-231.5" font-family="Helvetica,sans-Serif" font-size="10.00" fill="#000000">solver.h</text>
</a>
</g>
</g>
<!-- Node0&#45;&gt;Node2 -->
<g id="edge2" class="edge">
<title>Node0&#45;&gt;Node2</title>
<path fill="none" stroke="#191970" d="M210.7813,-281.25C253.8704,-270.7129 325.7872,-253.1263 368.6727,-242.639"/>
<polygon fill="#191970" stroke="#191970" points="369.515,-246.0362 378.3974,-240.2609 367.8522,-239.2366 369.515,-246.0362"/>
</g>
<!-- Node3 -->
<g id="node4" class="node">
<title>Node3</title>
<polygon fill="none" stroke="#bfbfbf" points="532,-56.5 532,-75.5 576,-75.5 576,-56.5 532,-56.5"/>
<text text-anchor="middle" x="554" y="-63.5" font-family="Helvetica,sans-Serif" font-size="10.00" fill="#000000">vector</text>
</g>
<!-- Node2&#45;&gt;Node3 -->
<g id="edge3" class="edge">
<title>Node2&#45;&gt;Node3</title>
<path fill="none" stroke="#191970" d="M429.9683,-229.6202C455.0019,-224.0926 492.3308,-212.2114 515,-188 541.8626,-159.3099 550.2227,-112.0802 552.8245,-85.5879"/>
<polygon fill="#191970" stroke="#191970" points="556.3134,-85.866 553.6242,-75.6182 549.3358,-85.3063 556.3134,-85.866"/>
</g>
<!-- Node4 -->
<g id="node5" class="node">
<title>Node4</title>
<polygon fill="none" stroke="#bfbfbf" points="139.5,-112.5 139.5,-131.5 168.5,-131.5 168.5,-112.5 139.5,-112.5"/>
<text text-anchor="middle" x="154" y="-119.5" font-family="Helvetica,sans-Serif" font-size="10.00" fill="#000000">list</text>
</g>
<!-- Node2&#45;&gt;Node4 -->
<g id="edge4" class="edge">
<title>Node2&#45;&gt;Node4</title>
<path fill="none" stroke="#191970" d="M378.3817,-232.5208C301.7376,-227.8368 78.2004,-212.1963 57,-188 32.3212,-159.8338 93.1191,-138.0831 129.3486,-128.0603"/>
<polygon fill="#191970" stroke="#191970" points="130.4811,-131.3812 139.2535,-125.4402 128.6909,-124.614 130.4811,-131.3812"/>
</g>
<!-- Node5 -->
<g id="node6" class="node">
<title>Node5</title>
<polygon fill="none" stroke="#bfbfbf" points="688.5,-168.5 688.5,-187.5 723.5,-187.5 723.5,-168.5 688.5,-168.5"/>
<text text-anchor="middle" x="706" y="-175.5" font-family="Helvetica,sans-Serif" font-size="10.00" fill="#000000">map</text>
</g>
<!-- Node2&#45;&gt;Node5 -->
<g id="edge5" class="edge">
<title>Node2&#45;&gt;Node5</title>
<path fill="none" stroke="#191970" d="M429.7454,-231.3387C477.205,-226.0844 581.7095,-212.8909 678.4938,-187.6878"/>
<polygon fill="#191970" stroke="#191970" points="679.6685,-190.9973 688.4356,-185.0485 677.8723,-184.2316 679.6685,-190.9973"/>
</g>
<!-- Node6 -->
<g id="node7" class="node">
<title>Node6</title>
<polygon fill="none" stroke="#bfbfbf" points="484.5,-112.5 484.5,-131.5 525.5,-131.5 525.5,-112.5 484.5,-112.5"/>
<text text-anchor="middle" x="505" y="-119.5" font-family="Helvetica,sans-Serif" font-size="10.00" fill="#000000">string</text>
</g>
<!-- Node2&#45;&gt;Node6 -->
<g id="edge6" class="edge">
<title>Node2&#45;&gt;Node6</title>
<path fill="none" stroke="#191970" d="M429.813,-228.1978C451.1154,-221.9895 480.3031,-209.9251 496,-188 505.5614,-174.6448 507.2836,-155.7931 506.922,-141.6548"/>
<polygon fill="#191970" stroke="#191970" points="510.406,-141.2866 506.2952,-131.5218 503.4194,-141.7188 510.406,-141.2866"/>
</g>
<!-- Node7 -->
<g id="node8" class="node">
<title>Node7</title>
<g id="a_node8"><a xlink:href="environment__base_8h.html" target="_top" xlink:title="environment_base.h">
<polygon fill="none" stroke="#000000" points="66,-168.5 66,-187.5 170,-187.5 170,-168.5 66,-168.5"/>
<text text-anchor="middle" x="118" y="-175.5" font-family="Helvetica,sans-Serif" font-size="10.00" fill="#000000">environment_base.h</text>
</a>
</g>
</g>
<!-- Node2&#45;&gt;Node7 -->
<g id="edge7" class="edge">
<title>Node2&#45;&gt;Node7</title>
<path fill="none" stroke="#191970" d="M378.3677,-228.9811C333.2354,-220.144 238.5142,-201.5972 176.6226,-189.4785"/>
<polygon fill="#191970" stroke="#191970" points="177.0917,-186.004 166.6055,-187.5172 175.7466,-192.8736 177.0917,-186.004"/>
</g>
<!-- Node8 -->
<g id="node9" class="node">
<title>Node8</title>
<g id="a_node9"><a xlink:href="species_8h.html" target="_top" xlink:title="species.h">
<polygon fill="none" stroke="#000000" points="428.5,-168.5 428.5,-187.5 487.5,-187.5 487.5,-168.5 428.5,-168.5"/>
<text text-anchor="middle" x="458" y="-175.5" font-family="Helvetica,sans-Serif" font-size="10.00" fill="#000000">species.h</text>
</a>
</g>
</g>
<!-- Node2&#45;&gt;Node8 -->
<g id="edge8" class="edge">
<title>Node2&#45;&gt;Node8</title>
<path fill="none" stroke="#191970" d="M413.4061,-224.2455C421.1493,-216.2155 432.312,-204.6394 441.5318,-195.0781"/>
<polygon fill="#191970" stroke="#191970" points="444.2798,-197.2706 448.7017,-187.6427 439.2409,-192.4117 444.2798,-197.2706"/>
</g>
<!-- Node13 -->
<g id="node14" class="node">
<title>Node13</title>
<g id="a_node14"><a xlink:href="ode__solver_8h.html" target="_top" xlink:title="ode_solver.h">
<polygon fill="none" stroke="#000000" points="598,-168.5 598,-187.5 670,-187.5 670,-168.5 598,-168.5"/>
<text text-anchor="middle" x="634" y="-175.5" font-family="Helvetica,sans-Serif" font-size="10.00" fill="#000000">ode_solver.h</text>
</a>
</g>
</g>
<!-- Node2&#45;&gt;Node13 -->
<g id="edge17" class="edge">
<title>Node2&#45;&gt;Node13</title>
<path fill="none" stroke="#191970" d="M429.9368,-227.6849C468.325,-218.3383 540.8291,-200.6851 588.2682,-189.1347"/>
<polygon fill="#191970" stroke="#191970" points="589.1013,-192.5342 597.9894,-186.7678 587.4453,-185.7329 589.1013,-192.5342"/>
</g>
<!-- Node21 -->
<g id="node22" class="node">
<title>Node21</title>
<g id="a_node22"><a xlink:href="solver_8tpp.html" target="_top" xlink:title="../src/solver.tpp">
<polygon fill="none" stroke="#000000" points="188.5,-168.5 188.5,-187.5 273.5,-187.5 273.5,-168.5 188.5,-168.5"/>
<text text-anchor="middle" x="231" y="-175.5" font-family="Helvetica,sans-Serif" font-size="10.00" fill="#000000">../src/solver.tpp</text>
</a>
</g>
</g>
<!-- Node2&#45;&gt;Node21 -->
<g id="edge31" class="edge">
<title>Node2&#45;&gt;Node21</title>
<path fill="none" stroke="#191970" d="M378.4733,-225.737C349.9385,-216.5003 303.3923,-201.4333 270.2273,-190.6979"/>
<polygon fill="#191970" stroke="#191970" points="270.991,-187.2663 260.3991,-187.5165 268.8352,-193.9261 270.991,-187.2663"/>
</g>
<!-- Node22 -->
<g id="node23" class="node">
<title>Node22</title>
<g id="a_node23"><a xlink:href="size__integrals_8tpp.html" target="_top" xlink:title="../src/size_integrals.tpp">
<polygon fill="none" stroke="#000000" points="291.5,-168.5 291.5,-187.5 410.5,-187.5 410.5,-168.5 291.5,-168.5"/>
<text text-anchor="middle" x="351" y="-175.5" font-family="Helvetica,sans-Serif" font-size="10.00" fill="#000000">../src/size_integrals.tpp</text>
</a>
</g>
</g>
<!-- Node2&#45;&gt;Node22 -->
<g id="edge32" class="edge">
<title>Node2&#45;&gt;Node22</title>
<path fill="none" stroke="#191970" d="M394.7681,-224.2455C387.1683,-216.2155 376.2123,-204.6394 367.1632,-195.0781"/>
<polygon fill="#191970" stroke="#191970" points="369.542,-192.4998 360.1261,-187.6427 364.4579,-197.3115 369.542,-192.4998"/>
</g>
<!-- Node8&#45;&gt;Node3 -->
<g id="edge9" class="edge">
<title>Node8&#45;&gt;Node3</title>
<path fill="none" stroke="#191970" d="M458.2071,-168.4936C458.9645,-154.7133 462.1479,-128.9834 475,-112 487.0088,-96.131 506.2066,-84.7716 522.6698,-77.3112"/>
<polygon fill="#191970" stroke="#191970" points="524.1334,-80.4924 531.9722,-73.3647 521.3994,-74.0483 524.1334,-80.4924"/>
</g>
<!-- Node8&#45;&gt;Node4 -->
<g id="edge10" class="edge">
<title>Node8&#45;&gt;Node4</title>
<path fill="none" stroke="#191970" d="M428.2469,-170.1126C425.1325,-169.3644 422.0071,-168.6455 419,-168 331.2968,-149.1749 225.9995,-132.7002 178.8971,-125.6486"/>
<polygon fill="#191970" stroke="#191970" points="179.1356,-122.1457 168.7298,-124.138 178.1068,-129.0697 179.1356,-122.1457"/>
</g>
<!-- Node8&#45;&gt;Node6 -->
<g id="edge11" class="edge">
<title>Node8&#45;&gt;Node6</title>
<path fill="none" stroke="#191970" d="M466.1868,-168.2455C472.8589,-160.2958 482.4479,-148.8706 490.4253,-139.3656"/>
<polygon fill="#191970" stroke="#191970" points="493.1592,-141.5525 496.907,-131.6427 487.7974,-137.0524 493.1592,-141.5525"/>
</g>
<!-- Node9 -->
<g id="node10" class="node">
<title>Node9</title>
<g id="a_node10"><a xlink:href="cohort_8h.html" target="_top" xlink:title="cohort.h">
<polygon fill="none" stroke="#000000" points="427,-56.5 427,-75.5 479,-75.5 479,-56.5 427,-56.5"/>
<text text-anchor="middle" x="453" y="-63.5" font-family="Helvetica,sans-Serif" font-size="10.00" fill="#000000">cohort.h</text>
</a>
</g>
</g>
<!-- Node8&#45;&gt;Node9 -->
<g id="edge12" class="edge">
<title>Node8&#45;&gt;Node9</title>
<path fill="none" stroke="#191970" d="M453.589,-168.3802C449.6581,-159.2426 444.1974,-145.0061 442,-132 439.3694,-116.4296 442.6342,-98.7853 446.2751,-85.66"/>
<polygon fill="#191970" stroke="#191970" points="449.7003,-86.4296 449.3008,-75.8423 443.0108,-84.3679 449.7003,-86.4296"/>
</g>
<!-- Node11 -->
<g id="node12" class="node">
<title>Node11</title>
<g id="a_node12"><a xlink:href="species_8tpp.html" target="_top" xlink:title="../src/species.tpp">
<polygon fill="none" stroke="#000000" points="298,-112.5 298,-131.5 390,-131.5 390,-112.5 298,-112.5"/>
<text text-anchor="middle" x="344" y="-119.5" font-family="Helvetica,sans-Serif" font-size="10.00" fill="#000000">../src/species.tpp</text>
</a>
</g>
</g>
<!-- Node8&#45;&gt;Node11 -->
<g id="edge14" class="edge">
<title>Node8&#45;&gt;Node11</title>
<path fill="none" stroke="#191970" d="M438.4027,-168.3733C420.2669,-159.4644 393.0865,-146.1127 372.5413,-136.0203"/>
<polygon fill="#191970" stroke="#191970" points="373.8603,-132.7688 363.3416,-131.5011 370.7739,-139.0517 373.8603,-132.7688"/>
</g>
<!-- Node10 -->
<g id="node11" class="node">
<title>Node10</title>
<polygon fill="none" stroke="#bfbfbf" points="608,-.5 608,-19.5 662,-19.5 662,-.5 608,-.5"/>
<text text-anchor="middle" x="635" y="-7.5" font-family="Helvetica,sans-Serif" font-size="10.00" fill="#000000">iostream</text>
</g>
<!-- Node9&#45;&gt;Node10 -->
<g id="edge13" class="edge">
<title>Node9&#45;&gt;Node10</title>
<path fill="none" stroke="#191970" d="M479.0762,-57.9766C510.2081,-48.3975 562.4932,-32.3098 597.8459,-21.432"/>
<polygon fill="#191970" stroke="#191970" points="599.255,-24.6605 607.7835,-18.3743 597.1964,-17.97 599.255,-24.6605"/>
</g>
<!-- Node11&#45;&gt;Node1 -->
<g id="edge15" class="edge">
<title>Node11&#45;&gt;Node1</title>
<path fill="none" stroke="#191970" d="M334.4743,-112.1898C326.3877,-103.3706 315.0108,-89.7278 308,-76 300.5432,-61.3988 295.6153,-43.4424 292.651,-29.9473"/>
<polygon fill="#191970" stroke="#191970" points="296.0189,-28.9425 290.6104,-19.8322 289.1572,-30.3269 296.0189,-28.9425"/>
</g>
<!-- Node12 -->
<g id="node13" class="node">
<title>Node12</title>
<polygon fill="none" stroke="#bfbfbf" points="317,-56.5 317,-75.5 373,-75.5 373,-56.5 317,-56.5"/>
<text text-anchor="middle" x="345" y="-63.5" font-family="Helvetica,sans-Serif" font-size="10.00" fill="#000000">algorithm</text>
</g>
<!-- Node11&#45;&gt;Node12 -->
<g id="edge16" class="edge">
<title>Node11&#45;&gt;Node12</title>
<path fill="none" stroke="#191970" d="M344.1742,-112.2455C344.3047,-104.9382 344.4876,-94.6944 344.6481,-85.7046"/>
<polygon fill="#191970" stroke="#191970" points="348.1486,-85.7036 344.8278,-75.6427 341.1497,-85.5786 348.1486,-85.7036"/>
</g>
<!-- Node13&#45;&gt;Node3 -->
<g id="edge28" class="edge">
<title>Node13&#45;&gt;Node3</title>
<path fill="none" stroke="#191970" d="M627.1792,-168.4509C613.7772,-149.688 583.8248,-107.7548 566.6843,-83.758"/>
<polygon fill="#191970" stroke="#191970" points="569.464,-81.6279 560.8035,-75.5249 563.7678,-85.6966 569.464,-81.6279"/>
</g>
<!-- Node13&#45;&gt;Node6 -->
<g id="edge27" class="edge">
<title>Node13&#45;&gt;Node6</title>
<path fill="none" stroke="#191970" d="M611.8241,-168.3733C590.6452,-159.1793 558.5661,-145.2535 535.0883,-135.0616"/>
<polygon fill="#191970" stroke="#191970" points="536.1766,-131.7185 525.6099,-130.9469 533.3891,-138.1396 536.1766,-131.7185"/>
</g>
<!-- Node13&#45;&gt;Node10 -->
<g id="edge29" class="edge">
<title>Node13&#45;&gt;Node10</title>
<path fill="none" stroke="#191970" d="M670.4152,-169.6289C725.4063,-156.9445 823.6408,-134.0993 827,-132 860.4826,-111.0756 898.1305,-86.4528 873,-56 847.9838,-25.6858 732.7712,-15.1193 672.2997,-11.6216"/>
<polygon fill="#191970" stroke="#191970" points="672.2055,-8.1115 662.0308,-11.0653 671.8268,-15.1012 672.2055,-8.1115"/>
</g>
<!-- Node14 -->
<g id="node15" class="node">
<title>Node14</title>
<g id="a_node15"><a xlink:href="rkck45_8h.html" target="_top" xlink:title="rkck45.h">
<polygon fill="none" stroke="#000000" points="698,-112.5 698,-131.5 752,-131.5 752,-112.5 698,-112.5"/>
<text text-anchor="middle" x="725" y="-119.5" font-family="Helvetica,sans-Serif" font-size="10.00" fill="#000000">rkck45.h</text>
</a>
</g>
</g>
<!-- Node13&#45;&gt;Node14 -->
<g id="edge18" class="edge">
<title>Node13&#45;&gt;Node14</title>
<path fill="none" stroke="#191970" d="M649.851,-168.2455C663.8132,-159.6534 684.3728,-147.0014 700.4596,-137.1018"/>
<polygon fill="#191970" stroke="#191970" points="702.6484,-139.8645 709.3307,-131.6427 698.9797,-133.9029 702.6484,-139.8645"/>
</g>
<!-- Node15 -->
<g id="node16" class="node">
<title>Node15</title>
<g id="a_node16"><a xlink:href="lsoda_8h.html" target="_top" xlink:title="lsoda.h">
<polygon fill="none" stroke="#000000" points="770,-112.5 770,-131.5 818,-131.5 818,-112.5 770,-112.5"/>
<text text-anchor="middle" x="794" y="-119.5" font-family="Helvetica,sans-Serif" font-size="10.00" fill="#000000">lsoda.h</text>
</a>
</g>
</g>
<!-- Node13&#45;&gt;Node15 -->
<g id="edge19" class="edge">
<title>Node13&#45;&gt;Node15</title>
<path fill="none" stroke="#191970" d="M661.505,-168.3733C688.8393,-158.8062 730.8126,-144.1156 760.1716,-133.8399"/>
<polygon fill="#191970" stroke="#191970" points="761.7032,-137.0121 769.9855,-130.4051 759.3907,-130.4051 761.7032,-137.0121"/>
</g>
<!-- Node20 -->
<g id="node21" class="node">
<title>Node20</title>
<polygon fill="none" stroke="#bfbfbf" points="620.5,-112.5 620.5,-131.5 679.5,-131.5 679.5,-112.5 620.5,-112.5"/>
<text text-anchor="middle" x="650" y="-119.5" font-family="Helvetica,sans-Serif" font-size="10.00" fill="#000000">exception</text>
</g>
<!-- Node13&#45;&gt;Node20 -->
<g id="edge30" class="edge">
<title>Node13&#45;&gt;Node20</title>
<path fill="none" stroke="#191970" d="M636.787,-168.2455C638.8977,-160.8579 641.866,-150.4689 644.4547,-141.4087"/>
<polygon fill="#191970" stroke="#191970" points="647.863,-142.2195 647.245,-131.6427 641.1323,-140.2964 647.863,-142.2195"/>
</g>
<!-- Node15&#45;&gt;Node3 -->
<g id="edge23" class="edge">
<title>Node15&#45;&gt;Node3</title>
<path fill="none" stroke="#191970" d="M769.9214,-114.4227C766.9287,-113.5639 763.9016,-112.7347 761,-112 686.6243,-93.1673 663.9773,-96.019 586.049,-76.0569"/>
<polygon fill="#191970" stroke="#191970" points="586.8239,-72.642 576.2643,-73.5064 585.0582,-79.4157 586.8239,-72.642"/>
</g>
<!-- Node16 -->
<g id="node17" class="node">
<title>Node16</title>
<polygon fill="none" stroke="#bfbfbf" points="826,-56.5 826,-75.5 864,-75.5 864,-56.5 826,-56.5"/>
<text text-anchor="middle" x="845" y="-63.5" font-family="Helvetica,sans-Serif" font-size="10.00" fill="#000000">array</text>
</g>
<!-- Node15&#45;&gt;Node16 -->
<g id="edge20" class="edge">
<title>Node15&#45;&gt;Node16</title>
<path fill="none" stroke="#191970" d="M802.8835,-112.2455C810.1966,-104.2155 820.7391,-92.6394 829.4467,-83.0781"/>
<polygon fill="#191970" stroke="#191970" points="832.0727,-85.3928 836.2183,-75.6427 826.8972,-80.6795 832.0727,-85.3928"/>
</g>
<!-- Node17 -->
<g id="node18" class="node">
<title>Node17</title>
<polygon fill="none" stroke="#bfbfbf" points="694,-56.5 694,-75.5 738,-75.5 738,-56.5 694,-56.5"/>
<text text-anchor="middle" x="716" y="-63.5" font-family="Helvetica,sans-Serif" font-size="10.00" fill="#000000">cmath</text>
</g>
<!-- Node15&#45;&gt;Node17 -->
<g id="edge21" class="edge">
<title>Node15&#45;&gt;Node17</title>
<path fill="none" stroke="#191970" d="M780.4134,-112.2455C768.6695,-103.814 751.4801,-91.4729 737.8118,-81.6598"/>
<polygon fill="#191970" stroke="#191970" points="739.5954,-78.6316 729.4309,-75.6427 735.5129,-84.3179 739.5954,-78.6316"/>
</g>
<!-- Node18 -->
<g id="node19" class="node">
<title>Node18</title>
<polygon fill="none" stroke="#bfbfbf" points="756,-56.5 756,-75.5 808,-75.5 808,-56.5 756,-56.5"/>
<text text-anchor="middle" x="782" y="-63.5" font-family="Helvetica,sans-Serif" font-size="10.00" fill="#000000">memory</text>
</g>
<!-- Node15&#45;&gt;Node18 -->
<g id="edge22" class="edge">
<title>Node15&#45;&gt;Node18</title>
<path fill="none" stroke="#191970" d="M791.9098,-112.2455C790.3439,-104.9382 788.1488,-94.6944 786.2224,-85.7046"/>
<polygon fill="#191970" stroke="#191970" points="789.584,-84.6873 784.0663,-75.6427 782.7393,-86.1541 789.584,-84.6873"/>
</g>
<!-- Node19 -->
<g id="node20" class="node">
<title>Node19</title>
<g id="a_node20"><a xlink:href="lsoda_8tpp.html" target="_top" xlink:title="../src/lsoda.tpp">
<polygon fill="none" stroke="#000000" points="594,-56.5 594,-75.5 676,-75.5 676,-56.5 594,-56.5"/>
<text text-anchor="middle" x="635" y="-63.5" font-family="Helvetica,sans-Serif" font-size="10.00" fill="#000000">../src/lsoda.tpp</text>
</a>
</g>
</g>
<!-- Node15&#45;&gt;Node19 -->
<g id="edge24" class="edge">
<title>Node15&#45;&gt;Node19</title>
<path fill="none" stroke="#191970" d="M769.8513,-113.4948C743.7822,-104.3132 701.9491,-89.5796 671.7851,-78.9558"/>
<polygon fill="#191970" stroke="#191970" points="672.6374,-75.5452 662.0425,-75.5244 670.3119,-82.1477 672.6374,-75.5452"/>
</g>
<!-- Node19&#45;&gt;Node1 -->
<g id="edge26" class="edge">
<title>Node19&#45;&gt;Node1</title>
<path fill="none" stroke="#191970" d="M593.826,-57.6186C590.8419,-57.0562 587.8763,-56.5109 585,-56 490.7161,-39.2536 378.9282,-22.7995 323.5941,-14.881"/>
<polygon fill="#191970" stroke="#191970" points="324.0126,-11.4053 313.6186,-13.4585 323.0244,-18.3352 324.0126,-11.4053"/>
</g>
<!-- Node19&#45;&gt;Node10 -->
<g id="edge25" class="edge">
<title>Node19&#45;&gt;Node10</title>
<path fill="none" stroke="#191970" d="M635,-56.2455C635,-48.9382 635,-38.6944 635,-29.7046"/>
<polygon fill="#191970" stroke="#191970" points="638.5001,-29.6426 635,-19.6427 631.5001,-29.6427 638.5001,-29.6426"/>
</g>
</g>
</svg>
