<?xml version="1.0" encoding="UTF-8" standalone="no"?>
<!DOCTYPE svg PUBLIC "-//W3C//DTD SVG 1.1//EN"
 "http://www.w3.org/Graphics/SVG/1.1/DTD/svg11.dtd">
<!-- Generated by graphviz version 2.40.1 (20161225.0304)
 -->
<!-- Title: include/iterator_set.h Pages: 1 -->
<svg width="305pt" height="84pt"
 viewBox="0.00 0.00 305.00 84.00" xmlns="http://www.w3.org/2000/svg" xmlns:xlink="http://www.w3.org/1999/xlink">
<g id="graph0" class="graph" transform="scale(1 1) rotate(0) translate(4 80)">
<title>include/iterator_set.h</title>
<!-- Node0 -->
<g id="node1" class="node">
<title>Node0</title>
<polygon fill="#bfbfbf" stroke="#000000" points="85.5,-56.5 85.5,-75.5 192.5,-75.5 192.5,-56.5 85.5,-56.5"/>
<text text-anchor="middle" x="139" y="-63.5" font-family="Helvetica,sans-Serif" font-size="10.00" fill="#000000">include/iterator_set.h</text>
</g>
<!-- Node1 -->
<g id="node2" class="node">
<title>Node1</title>
<polygon fill="none" stroke="#bfbfbf" points="0,-.5 0,-19.5 44,-19.5 44,-.5 0,-.5"/>
<text text-anchor="middle" x="22" y="-7.5" font-family="Helvetica,sans-Serif" font-size="10.00" fill="#000000">vector</text>
</g>
<!-- Node0&#45;&gt;Node1 -->
<g id="edge1" class="edge">
<title>Node0&#45;&gt;Node1</title>
<path fill="none" stroke="#191970" d="M118.887,-56.3733C100.1897,-47.4241 72.1256,-33.9917 51.0066,-23.8835"/>
<polygon fill="#191970" stroke="#191970" points="52.3817,-20.6614 41.8506,-19.5011 49.3595,-26.9755 52.3817,-20.6614"/>
</g>
<!-- Node2 -->
<g id="node3" class="node">
<title>Node2</title>
<polygon fill="none" stroke="#bfbfbf" points="62.5,-.5 62.5,-19.5 103.5,-19.5 103.5,-.5 62.5,-.5"/>
<text text-anchor="middle" x="83" y="-7.5" font-family="Helvetica,sans-Serif" font-size="10.00" fill="#000000">string</text>
</g>
<!-- Node0&#45;&gt;Node2 -->
<g id="edge2" class="edge">
<title>Node0&#45;&gt;Node2</title>
<path fill="none" stroke="#191970" d="M129.2455,-56.2455C121.1352,-48.1352 109.4075,-36.4075 99.7919,-26.7919"/>
<polygon fill="#191970" stroke="#191970" points="102.1887,-24.2389 92.6427,-19.6427 97.2389,-29.1887 102.1887,-24.2389"/>
</g>
<!-- Node3 -->
<g id="node4" class="node">
<title>Node3</title>
<polygon fill="none" stroke="#bfbfbf" points="121.5,-.5 121.5,-19.5 156.5,-19.5 156.5,-.5 121.5,-.5"/>
<text text-anchor="middle" x="139" y="-7.5" font-family="Helvetica,sans-Serif" font-size="10.00" fill="#000000">map</text>
</g>
<!-- Node0&#45;&gt;Node3 -->
<g id="edge3" class="edge">
<title>Node0&#45;&gt;Node3</title>
<path fill="none" stroke="#191970" d="M139,-56.2455C139,-48.9382 139,-38.6944 139,-29.7046"/>
<polygon fill="#191970" stroke="#191970" points="142.5001,-29.6426 139,-19.6427 135.5001,-29.6427 142.5001,-29.6426"/>
</g>
<!-- Node4 -->
<g id="node5" class="node">
<title>Node4</title>
<polygon fill="none" stroke="#bfbfbf" points="175,-.5 175,-19.5 229,-19.5 229,-.5 175,-.5"/>
<text text-anchor="middle" x="202" y="-7.5" font-family="Helvetica,sans-Serif" font-size="10.00" fill="#000000">iostream</text>
</g>
<!-- Node0&#45;&gt;Node4 -->
<g id="edge4" class="edge">
<title>Node0&#45;&gt;Node4</title>
<path fill="none" stroke="#191970" d="M149.9738,-56.2455C159.1882,-48.0549 172.5532,-36.1749 183.4297,-26.5069"/>
<polygon fill="#191970" stroke="#191970" points="186.0032,-28.9023 191.152,-19.6427 181.3526,-23.6704 186.0032,-28.9023"/>
</g>
<!-- Node5 -->
<g id="node6" class="node">
<title>Node5</title>
<polygon fill="none" stroke="#bfbfbf" points="247,-.5 247,-19.5 297,-19.5 297,-.5 247,-.5"/>
<text text-anchor="middle" x="272" y="-7.5" font-family="Helvetica,sans-Serif" font-size="10.00" fill="#000000">iomanip</text>
</g>
<!-- Node0&#45;&gt;Node5 -->
<g id="edge5" class="edge">
<title>Node0&#45;&gt;Node5</title>
<path fill="none" stroke="#191970" d="M161.8635,-56.3733C183.405,-47.3032 215.8838,-33.6279 239.9956,-23.4755"/>
<polygon fill="#191970" stroke="#191970" points="241.5767,-26.6075 249.4348,-19.5011 238.8603,-20.156 241.5767,-26.6075"/>
</g>
</g>
</svg>
