<?xml version="1.0" encoding="UTF-8" standalone="no"?>
<!DOCTYPE svg PUBLIC "-//W3C//DTD SVG 1.1//EN"
 "http://www.w3.org/Graphics/SVG/1.1/DTD/svg11.dtd">
<!-- Generated by graphviz version 2.40.1 (20161225.0304)
 -->
<!-- Title: src/lsoda.cpp Pages: 1 -->
<svg width="535pt" height="196pt"
 viewBox="0.00 0.00 534.92 196.00" xmlns="http://www.w3.org/2000/svg" xmlns:xlink="http://www.w3.org/1999/xlink">
<g id="graph0" class="graph" transform="scale(1 1) rotate(0) translate(4 192)">
<title>src/lsoda.cpp</title>
<!-- Node0 -->
<g id="node1" class="node">
<title>Node0</title>
<polygon fill="#bfbfbf" stroke="#000000" points="259.9235,-168.5 259.9235,-187.5 334.9235,-187.5 334.9235,-168.5 259.9235,-168.5"/>
<text text-anchor="middle" x="297.4235" y="-175.5" font-family="Helvetica,sans-Serif" font-size="10.00" fill="#000000">src/lsoda.cpp</text>
</g>
<!-- Node1 -->
<g id="node2" class="node">
<title>Node1</title>
<g id="a_node2"><a xlink:href="lsoda_8h.html" target="_top" xlink:title="lsoda.h">
<polygon fill="none" stroke="#000000" points="172.4235,-112.5 172.4235,-131.5 220.4235,-131.5 220.4235,-112.5 172.4235,-112.5"/>
<text text-anchor="middle" x="196.4235" y="-119.5" font-family="Helvetica,sans-Serif" font-size="10.00" fill="#000000">lsoda.h</text>
</a>
</g>
</g>
<!-- Node0&#45;&gt;Node1 -->
<g id="edge1" class="edge">
<title>Node0&#45;&gt;Node1</title>
<path fill="none" stroke="#191970" d="M279.8307,-168.2455C264.0445,-159.4928 240.6597,-146.527 222.6648,-136.5496"/>
<polygon fill="#191970" stroke="#191970" points="224.2577,-133.4308 213.8148,-131.6427 220.8633,-139.5528 224.2577,-133.4308"/>
</g>
<!-- Node3 -->
<g id="node4" class="node">
<title>Node3</title>
<polygon fill="none" stroke="#bfbfbf" points="13.4235,-56.5 13.4235,-75.5 57.4235,-75.5 57.4235,-56.5 13.4235,-56.5"/>
<text text-anchor="middle" x="35.4235" y="-63.5" font-family="Helvetica,sans-Serif" font-size="10.00" fill="#000000">cmath</text>
</g>
<!-- Node0&#45;&gt;Node3 -->
<g id="edge11" class="edge">
<title>Node0&#45;&gt;Node3</title>
<path fill="none" stroke="#191970" d="M265.5277,-168.4901C238.066,-159.9631 197.5834,-146.5786 163.4235,-132 126.9241,-116.4229 86.4798,-94.7905 61.0133,-80.5995"/>
<polygon fill="#191970" stroke="#191970" points="62.459,-77.3972 52.0258,-75.5532 59.0318,-83.5009 62.459,-77.3972"/>
</g>
<!-- Node4 -->
<g id="node5" class="node">
<title>Node4</title>
<polygon fill="none" stroke="#bfbfbf" points="231.4235,-56.5 231.4235,-75.5 283.4235,-75.5 283.4235,-56.5 231.4235,-56.5"/>
<text text-anchor="middle" x="257.4235" y="-63.5" font-family="Helvetica,sans-Serif" font-size="10.00" fill="#000000">memory</text>
</g>
<!-- Node0&#45;&gt;Node4 -->
<g id="edge13" class="edge">
<title>Node0&#45;&gt;Node4</title>
<path fill="none" stroke="#191970" d="M294.0132,-168.4509C287.4302,-150.0186 272.8612,-109.2254 264.2246,-85.043"/>
<polygon fill="#191970" stroke="#191970" points="267.4848,-83.7651 260.8253,-75.5249 260.8926,-86.1195 267.4848,-83.7651"/>
</g>
<!-- Node5 -->
<g id="node6" class="node">
<title>Node5</title>
<polygon fill="none" stroke="#bfbfbf" points="301.4235,-56.5 301.4235,-75.5 345.4235,-75.5 345.4235,-56.5 301.4235,-56.5"/>
<text text-anchor="middle" x="323.4235" y="-63.5" font-family="Helvetica,sans-Serif" font-size="10.00" fill="#000000">vector</text>
</g>
<!-- Node0&#45;&gt;Node5 -->
<g id="edge15" class="edge">
<title>Node0&#45;&gt;Node5</title>
<path fill="none" stroke="#191970" d="M299.6403,-168.4509C303.9,-150.1013 313.3043,-109.5908 318.9271,-85.3693"/>
<polygon fill="#191970" stroke="#191970" points="322.3604,-86.0573 321.2124,-75.5249 315.5417,-84.4744 322.3604,-86.0573"/>
</g>
<!-- Node7 -->
<g id="node8" class="node">
<title>Node7</title>
<polygon fill="none" stroke="#bfbfbf" points="81.4235,-.5 81.4235,-19.5 135.4235,-19.5 135.4235,-.5 81.4235,-.5"/>
<text text-anchor="middle" x="108.4235" y="-7.5" font-family="Helvetica,sans-Serif" font-size="10.00" fill="#000000">iostream</text>
</g>
<!-- Node0&#45;&gt;Node7 -->
<g id="edge12" class="edge">
<title>Node0&#45;&gt;Node7</title>
<path fill="none" stroke="#191970" d="M259.9202,-170.9061C187.3334,-156.2873 32.3064,-120.4227 4.4235,-76 -14.3332,-46.1169 34.2845,-27.3384 71.2239,-17.7633"/>
<polygon fill="#191970" stroke="#191970" points="72.3861,-21.0822 81.2673,-15.3051 70.7219,-14.2829 72.3861,-21.0822"/>
</g>
<!-- Node8 -->
<g id="node9" class="node">
<title>Node8</title>
<polygon fill="none" stroke="#bfbfbf" points="211.9235,-.5 211.9235,-19.5 260.9235,-19.5 260.9235,-.5 211.9235,-.5"/>
<text text-anchor="middle" x="236.4235" y="-7.5" font-family="Helvetica,sans-Serif" font-size="10.00" fill="#000000">cassert</text>
</g>
<!-- Node0&#45;&gt;Node8 -->
<g id="edge10" class="edge">
<title>Node0&#45;&gt;Node8</title>
<path fill="none" stroke="#191970" d="M308.5469,-168.2611C331.6705,-146.8241 380.6747,-94.4089 354.4235,-56 344.6277,-41.6674 302.0192,-27.5141 270.8053,-18.7723"/>
<polygon fill="#191970" stroke="#191970" points="271.6961,-15.3875 261.1274,-16.1308 269.8529,-22.1405 271.6961,-15.3875"/>
</g>
<!-- Node9 -->
<g id="node10" class="node">
<title>Node9</title>
<polygon fill="none" stroke="#bfbfbf" points="401.4235,-112.5 401.4235,-131.5 457.4235,-131.5 457.4235,-112.5 401.4235,-112.5"/>
<text text-anchor="middle" x="429.4235" y="-119.5" font-family="Helvetica,sans-Serif" font-size="10.00" fill="#000000">algorithm</text>
</g>
<!-- Node0&#45;&gt;Node9 -->
<g id="edge9" class="edge">
<title>Node0&#45;&gt;Node9</title>
<path fill="none" stroke="#191970" d="M320.1152,-168.3733C341.4946,-159.3032 373.7292,-145.6279 397.6598,-135.4755"/>
<polygon fill="#191970" stroke="#191970" points="399.1892,-138.6287 407.028,-131.5011 396.4553,-132.1846 399.1892,-138.6287"/>
</g>
<!-- Node10 -->
<g id="node11" class="node">
<title>Node10</title>
<polygon fill="none" stroke="#bfbfbf" points="475.9235,-112.5 475.9235,-131.5 526.9235,-131.5 526.9235,-112.5 475.9235,-112.5"/>
<text text-anchor="middle" x="501.4235" y="-119.5" font-family="Helvetica,sans-Serif" font-size="10.00" fill="#000000">numeric</text>
</g>
<!-- Node0&#45;&gt;Node10 -->
<g id="edge14" class="edge">
<title>Node0&#45;&gt;Node10</title>
<path fill="none" stroke="#191970" d="M333.0669,-168.4375C365.2885,-159.7621 414.2759,-146.4961 466.1113,-132.0631"/>
<polygon fill="#191970" stroke="#191970" points="467.1277,-135.4133 475.8198,-129.3554 465.2471,-128.6706 467.1277,-135.4133"/>
</g>
<!-- Node2 -->
<g id="node3" class="node">
<title>Node2</title>
<polygon fill="none" stroke="#bfbfbf" points="75.4235,-56.5 75.4235,-75.5 113.4235,-75.5 113.4235,-56.5 75.4235,-56.5"/>
<text text-anchor="middle" x="94.4235" y="-63.5" font-family="Helvetica,sans-Serif" font-size="10.00" fill="#000000">array</text>
</g>
<!-- Node1&#45;&gt;Node2 -->
<g id="edge2" class="edge">
<title>Node1&#45;&gt;Node2</title>
<path fill="none" stroke="#191970" d="M178.6565,-112.2455C162.714,-103.4928 139.0976,-90.527 120.9246,-80.5496"/>
<polygon fill="#191970" stroke="#191970" points="122.4372,-77.3873 111.987,-75.6427 119.0684,-83.5233 122.4372,-77.3873"/>
</g>
<!-- Node1&#45;&gt;Node3 -->
<g id="edge3" class="edge">
<title>Node1&#45;&gt;Node3</title>
<path fill="none" stroke="#191970" d="M172.3202,-113.6162C144.2992,-103.8698 97.9572,-87.7509 67.0614,-77.0045"/>
<polygon fill="#191970" stroke="#191970" points="68.2106,-73.6986 57.6158,-73.7191 65.9109,-80.3101 68.2106,-73.6986"/>
</g>
<!-- Node1&#45;&gt;Node4 -->
<g id="edge4" class="edge">
<title>Node1&#45;&gt;Node4</title>
<path fill="none" stroke="#191970" d="M207.0489,-112.2455C215.9709,-104.0549 228.9116,-92.1749 239.4428,-82.5069"/>
<polygon fill="#191970" stroke="#191970" points="241.9203,-84.9837 246.9199,-75.6427 237.1864,-79.8271 241.9203,-84.9837"/>
</g>
<!-- Node1&#45;&gt;Node5 -->
<g id="edge5" class="edge">
<title>Node1&#45;&gt;Node5</title>
<path fill="none" stroke="#191970" d="M218.2556,-112.3733C238.7338,-103.3435 269.5634,-89.7494 292.5555,-79.6111"/>
<polygon fill="#191970" stroke="#191970" points="294.1385,-82.7383 301.8764,-75.5011 291.3142,-76.3333 294.1385,-82.7383"/>
</g>
<!-- Node6 -->
<g id="node7" class="node">
<title>Node6</title>
<g id="a_node7"><a xlink:href="lsoda_8tpp.html" target="_top" xlink:title="../src/lsoda.tpp">
<polygon fill="none" stroke="#000000" points="131.4235,-56.5 131.4235,-75.5 213.4235,-75.5 213.4235,-56.5 131.4235,-56.5"/>
<text text-anchor="middle" x="172.4235" y="-63.5" font-family="Helvetica,sans-Serif" font-size="10.00" fill="#000000">../src/lsoda.tpp</text>
</a>
</g>
</g>
<!-- Node1&#45;&gt;Node6 -->
<g id="edge6" class="edge">
<title>Node1&#45;&gt;Node6</title>
<path fill="none" stroke="#191970" d="M192.2431,-112.2455C189.0425,-104.7776 184.5275,-94.2427 180.6151,-85.1137"/>
<polygon fill="#191970" stroke="#191970" points="183.7124,-83.4554 176.5561,-75.6427 177.2784,-86.2129 183.7124,-83.4554"/>
</g>
<!-- Node6&#45;&gt;Node7 -->
<g id="edge7" class="edge">
<title>Node6&#45;&gt;Node7</title>
<path fill="none" stroke="#191970" d="M161.2756,-56.2455C151.9149,-48.0549 138.3377,-36.1749 127.2886,-26.5069"/>
<polygon fill="#191970" stroke="#191970" points="129.2743,-23.5937 119.4437,-19.6427 124.6648,-28.8618 129.2743,-23.5937"/>
</g>
<!-- Node6&#45;&gt;Node8 -->
<g id="edge8" class="edge">
<title>Node6&#45;&gt;Node8</title>
<path fill="none" stroke="#191970" d="M183.5715,-56.2455C192.9322,-48.0549 206.5093,-36.1749 217.5585,-26.5069"/>
<polygon fill="#191970" stroke="#191970" points="220.1823,-28.8618 225.4033,-19.6427 215.5728,-23.5937 220.1823,-28.8618"/>
</g>
</g>
</svg>
