<?xml version="1.0" encoding="UTF-8" standalone="no"?>
<!DOCTYPE svg PUBLIC "-//W3C//DTD SVG 1.1//EN"
 "http://www.w3.org/Graphics/SVG/1.1/DTD/svg11.dtd">
<!-- Generated by graphviz version 2.40.1 (20161225.0304)
 -->
<!-- Title: include/lsoda.h Pages: 1 -->
<svg width="359pt" height="140pt"
 viewBox="0.00 0.00 358.50 140.00" xmlns="http://www.w3.org/2000/svg" xmlns:xlink="http://www.w3.org/1999/xlink">
<g id="graph0" class="graph" transform="scale(1 1) rotate(0) translate(4 136)">
<title>include/lsoda.h</title>
<!-- Node0 -->
<g id="node1" class="node">
<title>Node0</title>
<polygon fill="#bfbfbf" stroke="#000000" points="103,-112.5 103,-131.5 185,-131.5 185,-112.5 103,-112.5"/>
<text text-anchor="middle" x="144" y="-119.5" font-family="Helvetica,sans-Serif" font-size="10.00" fill="#000000">include/lsoda.h</text>
</g>
<!-- Node1 -->
<g id="node2" class="node">
<title>Node1</title>
<polygon fill="none" stroke="#bfbfbf" points="0,-56.5 0,-75.5 38,-75.5 38,-56.5 0,-56.5"/>
<text text-anchor="middle" x="19" y="-63.5" font-family="Helvetica,sans-Serif" font-size="10.00" fill="#000000">array</text>
</g>
<!-- Node0&#45;&gt;Node1 -->
<g id="edge1" class="edge">
<title>Node0&#45;&gt;Node1</title>
<path fill="none" stroke="#191970" d="M122.5117,-112.3733C101.7452,-103.0699 70.1636,-88.9213 47.3464,-78.6992"/>
<polygon fill="#191970" stroke="#191970" points="48.7184,-75.4787 38.1613,-74.5843 45.8564,-81.8669 48.7184,-75.4787"/>
</g>
<!-- Node2 -->
<g id="node3" class="node">
<title>Node2</title>
<polygon fill="none" stroke="#bfbfbf" points="56,-56.5 56,-75.5 100,-75.5 100,-56.5 56,-56.5"/>
<text text-anchor="middle" x="78" y="-63.5" font-family="Helvetica,sans-Serif" font-size="10.00" fill="#000000">cmath</text>
</g>
<!-- Node0&#45;&gt;Node2 -->
<g id="edge2" class="edge">
<title>Node0&#45;&gt;Node2</title>
<path fill="none" stroke="#191970" d="M132.5037,-112.2455C122.7558,-103.9746 108.5741,-91.9416 97.1202,-82.2232"/>
<polygon fill="#191970" stroke="#191970" points="99.2541,-79.4437 89.3646,-75.6427 94.7253,-84.7813 99.2541,-79.4437"/>
</g>
<!-- Node3 -->
<g id="node4" class="node">
<title>Node3</title>
<polygon fill="none" stroke="#bfbfbf" points="118,-56.5 118,-75.5 170,-75.5 170,-56.5 118,-56.5"/>
<text text-anchor="middle" x="144" y="-63.5" font-family="Helvetica,sans-Serif" font-size="10.00" fill="#000000">memory</text>
</g>
<!-- Node0&#45;&gt;Node3 -->
<g id="edge3" class="edge">
<title>Node0&#45;&gt;Node3</title>
<path fill="none" stroke="#191970" d="M144,-112.2455C144,-104.9382 144,-94.6944 144,-85.7046"/>
<polygon fill="#191970" stroke="#191970" points="147.5001,-85.6426 144,-75.6427 140.5001,-85.6427 147.5001,-85.6426"/>
</g>
<!-- Node4 -->
<g id="node5" class="node">
<title>Node4</title>
<polygon fill="none" stroke="#bfbfbf" points="188,-56.5 188,-75.5 232,-75.5 232,-56.5 188,-56.5"/>
<text text-anchor="middle" x="210" y="-63.5" font-family="Helvetica,sans-Serif" font-size="10.00" fill="#000000">vector</text>
</g>
<!-- Node0&#45;&gt;Node4 -->
<g id="edge4" class="edge">
<title>Node0&#45;&gt;Node4</title>
<path fill="none" stroke="#191970" d="M155.4963,-112.2455C165.2442,-103.9746 179.4259,-91.9416 190.8798,-82.2232"/>
<polygon fill="#191970" stroke="#191970" points="193.2747,-84.7813 198.6354,-75.6427 188.7459,-79.4437 193.2747,-84.7813"/>
</g>
<!-- Node5 -->
<g id="node6" class="node">
<title>Node5</title>
<g id="a_node6"><a xlink:href="lsoda_8tpp.html" target="_top" xlink:title="../src/lsoda.tpp">
<polygon fill="none" stroke="#000000" points="250,-56.5 250,-75.5 332,-75.5 332,-56.5 250,-56.5"/>
<text text-anchor="middle" x="291" y="-63.5" font-family="Helvetica,sans-Serif" font-size="10.00" fill="#000000">../src/lsoda.tpp</text>
</a>
</g>
</g>
<!-- Node0&#45;&gt;Node5 -->
<g id="edge5" class="edge">
<title>Node0&#45;&gt;Node5</title>
<path fill="none" stroke="#191970" d="M169.2702,-112.3733C193.3966,-103.1822 229.9362,-89.2624 256.6877,-79.0713"/>
<polygon fill="#191970" stroke="#191970" points="257.9607,-82.3318 266.0596,-75.5011 255.4687,-75.7904 257.9607,-82.3318"/>
</g>
<!-- Node6 -->
<g id="node7" class="node">
<title>Node6</title>
<polygon fill="none" stroke="#bfbfbf" points="229,-.5 229,-19.5 283,-19.5 283,-.5 229,-.5"/>
<text text-anchor="middle" x="256" y="-7.5" font-family="Helvetica,sans-Serif" font-size="10.00" fill="#000000">iostream</text>
</g>
<!-- Node5&#45;&gt;Node6 -->
<g id="edge6" class="edge">
<title>Node5&#45;&gt;Node6</title>
<path fill="none" stroke="#191970" d="M284.9035,-56.2455C280.0855,-48.5367 273.2249,-37.5598 267.3968,-28.2348"/>
<polygon fill="#191970" stroke="#191970" points="270.2947,-26.2677 262.0267,-19.6427 264.3587,-29.9777 270.2947,-26.2677"/>
</g>
<!-- Node7 -->
<g id="node8" class="node">
<title>Node7</title>
<polygon fill="none" stroke="#bfbfbf" points="301.5,-.5 301.5,-19.5 350.5,-19.5 350.5,-.5 301.5,-.5"/>
<text text-anchor="middle" x="326" y="-7.5" font-family="Helvetica,sans-Serif" font-size="10.00" fill="#000000">cassert</text>
</g>
<!-- Node5&#45;&gt;Node7 -->
<g id="edge7" class="edge">
<title>Node5&#45;&gt;Node7</title>
<path fill="none" stroke="#191970" d="M297.0965,-56.2455C301.9145,-48.5367 308.7751,-37.5598 314.6032,-28.2348"/>
<polygon fill="#191970" stroke="#191970" points="317.6413,-29.9777 319.9733,-19.6427 311.7053,-26.2677 317.6413,-29.9777"/>
</g>
</g>
</svg>
