<?xml version="1.0" encoding="UTF-8" standalone="no"?>
<!DOCTYPE svg PUBLIC "-//W3C//DTD SVG 1.1//EN"
 "http://www.w3.org/Graphics/SVG/1.1/DTD/svg11.dtd">
<!-- Generated by graphviz version 2.40.1 (20161225.0304)
 -->
<!-- Title: include/ode_solver.h Pages: 1 -->
<svg width="515pt" height="196pt"
 viewBox="0.00 0.00 514.50 196.00" xmlns="http://www.w3.org/2000/svg" xmlns:xlink="http://www.w3.org/1999/xlink">
<g id="graph0" class="graph" transform="scale(1 1) rotate(0) translate(4 192)">
<title>include/ode_solver.h</title>
<!-- Node0 -->
<g id="node1" class="node">
<title>Node0</title>
<polygon fill="#bfbfbf" stroke="#000000" points="288,-168.5 288,-187.5 394,-187.5 394,-168.5 288,-168.5"/>
<text text-anchor="middle" x="341" y="-175.5" font-family="Helvetica,sans-Serif" font-size="10.00" fill="#000000">include/ode_solver.h</text>
</g>
<!-- Node1 -->
<g id="node2" class="node">
<title>Node1</title>
<g id="a_node2"><a xlink:href="rkck45_8h.html" target="_top" xlink:title="rkck45.h">
<polygon fill="none" stroke="#000000" points="133,-112.5 133,-131.5 187,-131.5 187,-112.5 133,-112.5"/>
<text text-anchor="middle" x="160" y="-119.5" font-family="Helvetica,sans-Serif" font-size="10.00" fill="#000000">rkck45.h</text>
</a>
</g>
</g>
<!-- Node0&#45;&gt;Node1 -->
<g id="edge1" class="edge">
<title>Node0&#45;&gt;Node1</title>
<path fill="none" stroke="#191970" d="M309.885,-168.3733C278.558,-158.6809 230.2338,-143.7298 196.9705,-133.4384"/>
<polygon fill="#191970" stroke="#191970" points="197.7541,-130.0172 187.1664,-130.4051 195.6851,-136.7044 197.7541,-130.0172"/>
</g>
<!-- Node2 -->
<g id="node3" class="node">
<title>Node2</title>
<g id="a_node3"><a xlink:href="lsoda_8h.html" target="_top" xlink:title="lsoda.h">
<polygon fill="none" stroke="#000000" points="205,-112.5 205,-131.5 253,-131.5 253,-112.5 205,-112.5"/>
<text text-anchor="middle" x="229" y="-119.5" font-family="Helvetica,sans-Serif" font-size="10.00" fill="#000000">lsoda.h</text>
</a>
</g>
</g>
<!-- Node0&#45;&gt;Node2 -->
<g id="edge2" class="edge">
<title>Node0&#45;&gt;Node2</title>
<path fill="none" stroke="#191970" d="M321.7465,-168.3733C303.9288,-159.4644 277.2253,-146.1127 257.0406,-136.0203"/>
<polygon fill="#191970" stroke="#191970" points="258.5118,-132.8428 248.0022,-131.5011 255.3813,-139.1038 258.5118,-132.8428"/>
</g>
<!-- Node6 -->
<g id="node7" class="node">
<title>Node6</title>
<polygon fill="none" stroke="#bfbfbf" points="288,-56.5 288,-75.5 332,-75.5 332,-56.5 288,-56.5"/>
<text text-anchor="middle" x="310" y="-63.5" font-family="Helvetica,sans-Serif" font-size="10.00" fill="#000000">vector</text>
</g>
<!-- Node0&#45;&gt;Node6 -->
<g id="edge11" class="edge">
<title>Node0&#45;&gt;Node6</title>
<path fill="none" stroke="#191970" d="M338.357,-168.4509C333.278,-150.1013 322.0653,-109.5908 315.3612,-85.3693"/>
<polygon fill="#191970" stroke="#191970" points="318.6772,-84.2289 312.6364,-75.5249 311.9308,-86.0962 318.6772,-84.2289"/>
</g>
<!-- Node8 -->
<g id="node9" class="node">
<title>Node8</title>
<polygon fill="none" stroke="#bfbfbf" points="302,-.5 302,-19.5 356,-19.5 356,-.5 302,-.5"/>
<text text-anchor="middle" x="329" y="-7.5" font-family="Helvetica,sans-Serif" font-size="10.00" fill="#000000">iostream</text>
</g>
<!-- Node0&#45;&gt;Node8 -->
<g id="edge12" class="edge">
<title>Node0&#45;&gt;Node8</title>
<path fill="none" stroke="#191970" d="M341.8218,-168.4562C343.418,-147.8295 346.3363,-97.5966 341,-56 339.8609,-47.1204 337.5327,-37.5073 335.2277,-29.3763"/>
<polygon fill="#191970" stroke="#191970" points="338.5552,-28.2881 332.3127,-19.7276 331.8543,-30.3125 338.5552,-28.2881"/>
</g>
<!-- Node10 -->
<g id="node11" class="node">
<title>Node10</title>
<polygon fill="none" stroke="#bfbfbf" points="388.5,-112.5 388.5,-131.5 429.5,-131.5 429.5,-112.5 388.5,-112.5"/>
<text text-anchor="middle" x="409" y="-119.5" font-family="Helvetica,sans-Serif" font-size="10.00" fill="#000000">string</text>
</g>
<!-- Node0&#45;&gt;Node10 -->
<g id="edge10" class="edge">
<title>Node0&#45;&gt;Node10</title>
<path fill="none" stroke="#191970" d="M352.8447,-168.2455C362.888,-159.9746 377.4995,-147.9416 389.3004,-138.2232"/>
<polygon fill="#191970" stroke="#191970" points="391.7967,-140.7015 397.291,-131.6427 387.3467,-135.298 391.7967,-140.7015"/>
</g>
<!-- Node11 -->
<g id="node12" class="node">
<title>Node11</title>
<polygon fill="none" stroke="#bfbfbf" points="447.5,-112.5 447.5,-131.5 506.5,-131.5 506.5,-112.5 447.5,-112.5"/>
<text text-anchor="middle" x="477" y="-119.5" font-family="Helvetica,sans-Serif" font-size="10.00" fill="#000000">exception</text>
</g>
<!-- Node0&#45;&gt;Node11 -->
<g id="edge13" class="edge">
<title>Node0&#45;&gt;Node11</title>
<path fill="none" stroke="#191970" d="M364.3792,-168.3733C386.5045,-159.2629 419.9134,-145.5062 444.6019,-135.3404"/>
<polygon fill="#191970" stroke="#191970" points="446.0117,-138.5451 453.9258,-131.5011 443.3464,-132.0723 446.0117,-138.5451"/>
</g>
<!-- Node3 -->
<g id="node4" class="node">
<title>Node3</title>
<polygon fill="none" stroke="#bfbfbf" points="0,-56.5 0,-75.5 38,-75.5 38,-56.5 0,-56.5"/>
<text text-anchor="middle" x="19" y="-63.5" font-family="Helvetica,sans-Serif" font-size="10.00" fill="#000000">array</text>
</g>
<!-- Node2&#45;&gt;Node3 -->
<g id="edge3" class="edge">
<title>Node2&#45;&gt;Node3</title>
<path fill="none" stroke="#191970" d="M204.8954,-114.5219C201.9071,-113.6462 198.8882,-112.7858 196,-112 133.2152,-94.9174 113.9938,-95.4 47.8457,-76.0256"/>
<polygon fill="#191970" stroke="#191970" points="48.7738,-72.6502 38.1911,-73.1561 46.7795,-79.3601 48.7738,-72.6502"/>
</g>
<!-- Node4 -->
<g id="node5" class="node">
<title>Node4</title>
<polygon fill="none" stroke="#bfbfbf" points="56,-56.5 56,-75.5 100,-75.5 100,-56.5 56,-56.5"/>
<text text-anchor="middle" x="78" y="-63.5" font-family="Helvetica,sans-Serif" font-size="10.00" fill="#000000">cmath</text>
</g>
<!-- Node2&#45;&gt;Node4 -->
<g id="edge4" class="edge">
<title>Node2&#45;&gt;Node4</title>
<path fill="none" stroke="#191970" d="M204.7392,-113.0026C178.9363,-103.4333 138.0153,-88.2573 109.6833,-77.7501"/>
<polygon fill="#191970" stroke="#191970" points="110.8254,-74.4408 100.2324,-74.2451 108.3913,-81.004 110.8254,-74.4408"/>
</g>
<!-- Node5 -->
<g id="node6" class="node">
<title>Node5</title>
<polygon fill="none" stroke="#bfbfbf" points="118,-56.5 118,-75.5 170,-75.5 170,-56.5 118,-56.5"/>
<text text-anchor="middle" x="144" y="-63.5" font-family="Helvetica,sans-Serif" font-size="10.00" fill="#000000">memory</text>
</g>
<!-- Node2&#45;&gt;Node5 -->
<g id="edge5" class="edge">
<title>Node2&#45;&gt;Node5</title>
<path fill="none" stroke="#191970" d="M214.1941,-112.2455C201.2744,-103.7337 182.3069,-91.2375 167.3448,-81.3801"/>
<polygon fill="#191970" stroke="#191970" points="168.9124,-78.2216 158.6362,-75.6427 165.0613,-84.067 168.9124,-78.2216"/>
</g>
<!-- Node2&#45;&gt;Node6 -->
<g id="edge6" class="edge">
<title>Node2&#45;&gt;Node6</title>
<path fill="none" stroke="#191970" d="M243.1091,-112.2455C255.4209,-103.7337 273.4958,-91.2375 287.7538,-81.3801"/>
<polygon fill="#191970" stroke="#191970" points="289.8174,-84.2085 296.0526,-75.6427 285.8366,-78.4506 289.8174,-84.2085"/>
</g>
<!-- Node7 -->
<g id="node8" class="node">
<title>Node7</title>
<g id="a_node8"><a xlink:href="lsoda_8tpp.html" target="_top" xlink:title="../src/lsoda.tpp">
<polygon fill="none" stroke="#000000" points="188,-56.5 188,-75.5 270,-75.5 270,-56.5 188,-56.5"/>
<text text-anchor="middle" x="229" y="-63.5" font-family="Helvetica,sans-Serif" font-size="10.00" fill="#000000">../src/lsoda.tpp</text>
</a>
</g>
</g>
<!-- Node2&#45;&gt;Node7 -->
<g id="edge7" class="edge">
<title>Node2&#45;&gt;Node7</title>
<path fill="none" stroke="#191970" d="M229,-112.2455C229,-104.9382 229,-94.6944 229,-85.7046"/>
<polygon fill="#191970" stroke="#191970" points="232.5001,-85.6426 229,-75.6427 225.5001,-85.6427 232.5001,-85.6426"/>
</g>
<!-- Node7&#45;&gt;Node8 -->
<g id="edge8" class="edge">
<title>Node7&#45;&gt;Node8</title>
<path fill="none" stroke="#191970" d="M246.4187,-56.2455C262.0485,-47.4928 285.2019,-34.527 303.0185,-24.5496"/>
<polygon fill="#191970" stroke="#191970" points="304.766,-27.5825 311.7809,-19.6427 301.3457,-21.475 304.766,-27.5825"/>
</g>
<!-- Node9 -->
<g id="node10" class="node">
<title>Node9</title>
<polygon fill="none" stroke="#bfbfbf" points="204.5,-.5 204.5,-19.5 253.5,-19.5 253.5,-.5 204.5,-.5"/>
<text text-anchor="middle" x="229" y="-7.5" font-family="Helvetica,sans-Serif" font-size="10.00" fill="#000000">cassert</text>
</g>
<!-- Node7&#45;&gt;Node9 -->
<g id="edge9" class="edge">
<title>Node7&#45;&gt;Node9</title>
<path fill="none" stroke="#191970" d="M229,-56.2455C229,-48.9382 229,-38.6944 229,-29.7046"/>
<polygon fill="#191970" stroke="#191970" points="232.5001,-29.6426 229,-19.6427 225.5001,-29.6427 232.5001,-29.6426"/>
</g>
</g>
</svg>
