<?xml version="1.0" encoding="UTF-8" standalone="no"?>
<!DOCTYPE svg PUBLIC "-//W3C//DTD SVG 1.1//EN"
 "http://www.w3.org/Graphics/SVG/1.1/DTD/svg11.dtd">
<!-- Generated by graphviz version 2.40.1 (20161225.0304)
 -->
<!-- Title: include/pspm_ode_solver.h Pages: 1 -->
<svg width="254pt" height="84pt"
 viewBox="0.00 0.00 254.00 84.00" xmlns="http://www.w3.org/2000/svg" xmlns:xlink="http://www.w3.org/1999/xlink">
<g id="graph0" class="graph" transform="scale(1 1) rotate(0) translate(4 80)">
<title>include/pspm_ode_solver.h</title>
<!-- Node0 -->
<g id="node1" class="node">
<title>Node0</title>
<polygon fill="#bfbfbf" stroke="#000000" points="61.5,-56.5 61.5,-75.5 196.5,-75.5 196.5,-56.5 61.5,-56.5"/>
<text text-anchor="middle" x="129" y="-63.5" font-family="Helvetica,sans-Serif" font-size="10.00" fill="#000000">include/pspm_ode_solver.h</text>
</g>
<!-- Node1 -->
<g id="node2" class="node">
<title>Node1</title>
<polygon fill="none" stroke="#bfbfbf" points="0,-.5 0,-19.5 54,-19.5 54,-.5 0,-.5"/>
<text text-anchor="middle" x="27" y="-7.5" font-family="Helvetica,sans-Serif" font-size="10.00" fill="#000000">iostream</text>
</g>
<!-- Node0&#45;&gt;Node1 -->
<g id="edge1" class="edge">
<title>Node0&#45;&gt;Node1</title>
<path fill="none" stroke="#191970" d="M111.233,-56.2455C95.2905,-47.4928 71.6741,-34.527 53.5011,-24.5496"/>
<polygon fill="#191970" stroke="#191970" points="55.0137,-21.3873 44.5634,-19.6427 51.6448,-27.5233 55.0137,-21.3873"/>
</g>
<!-- Node2 -->
<g id="node3" class="node">
<title>Node2</title>
<polygon fill="none" stroke="#bfbfbf" points="72,-.5 72,-19.5 122,-19.5 122,-.5 72,-.5"/>
<text text-anchor="middle" x="97" y="-7.5" font-family="Helvetica,sans-Serif" font-size="10.00" fill="#000000">iomanip</text>
</g>
<!-- Node0&#45;&gt;Node2 -->
<g id="edge2" class="edge">
<title>Node0&#45;&gt;Node2</title>
<path fill="none" stroke="#191970" d="M123.426,-56.2455C119.0669,-48.617 112.8789,-37.7881 107.5867,-28.5267"/>
<polygon fill="#191970" stroke="#191970" points="110.5104,-26.5886 102.5101,-19.6427 104.4327,-30.0616 110.5104,-26.5886"/>
</g>
<!-- Node3 -->
<g id="node4" class="node">
<title>Node3</title>
<polygon fill="none" stroke="#bfbfbf" points="140,-.5 140,-19.5 184,-19.5 184,-.5 140,-.5"/>
<text text-anchor="middle" x="162" y="-7.5" font-family="Helvetica,sans-Serif" font-size="10.00" fill="#000000">cmath</text>
</g>
<!-- Node0&#45;&gt;Node3 -->
<g id="edge3" class="edge">
<title>Node0&#45;&gt;Node3</title>
<path fill="none" stroke="#191970" d="M134.7482,-56.2455C139.2435,-48.617 145.6248,-37.7881 151.0825,-28.5267"/>
<polygon fill="#191970" stroke="#191970" points="154.2561,-30.035 156.3177,-19.6427 148.2253,-26.4811 154.2561,-30.035"/>
</g>
<!-- Node4 -->
<g id="node5" class="node">
<title>Node4</title>
<polygon fill="none" stroke="#bfbfbf" points="202,-.5 202,-19.5 246,-19.5 246,-.5 202,-.5"/>
<text text-anchor="middle" x="224" y="-7.5" font-family="Helvetica,sans-Serif" font-size="10.00" fill="#000000">vector</text>
</g>
<!-- Node0&#45;&gt;Node4 -->
<g id="edge4" class="edge">
<title>Node0&#45;&gt;Node4</title>
<path fill="none" stroke="#191970" d="M145.5477,-56.2455C160.2599,-47.5731 181.9888,-34.7645 198.8505,-24.825"/>
<polygon fill="#191970" stroke="#191970" points="200.8046,-27.736 207.6419,-19.6427 197.2498,-21.7057 200.8046,-27.736"/>
</g>
</g>
</svg>
