<?xml version="1.0" encoding="UTF-8" standalone="no"?>
<!DOCTYPE svg PUBLIC "-//W3C//DTD SVG 1.1//EN"
 "http://www.w3.org/Graphics/SVG/1.1/DTD/svg11.dtd">
<!-- Generated by graphviz version 2.40.1 (20161225.0304)
 -->
<!-- Title: include/solver.h Pages: 1 -->
<svg width="843pt" height="252pt"
 viewBox="0.00 0.00 843.00 252.00" xmlns="http://www.w3.org/2000/svg" xmlns:xlink="http://www.w3.org/1999/xlink">
<g id="graph0" class="graph" transform="scale(1 1) rotate(0) translate(4 248)">
<title>include/solver.h</title>
<!-- Node0 -->
<g id="node1" class="node">
<title>Node0</title>
<polygon fill="#bfbfbf" stroke="#000000" points="340,-224.5 340,-243.5 425,-243.5 425,-224.5 340,-224.5"/>
<text text-anchor="middle" x="382.5" y="-231.5" font-family="Helvetica,sans-Serif" font-size="10.00" fill="#000000">include/solver.h</text>
</g>
<!-- Node1 -->
<g id="node2" class="node">
<title>Node1</title>
<polygon fill="none" stroke="#bfbfbf" points="244.5,-56.5 244.5,-75.5 288.5,-75.5 288.5,-56.5 244.5,-56.5"/>
<text text-anchor="middle" x="266.5" y="-63.5" font-family="Helvetica,sans-Serif" font-size="10.00" fill="#000000">vector</text>
</g>
<!-- Node0&#45;&gt;Node1 -->
<g id="edge1" class="edge">
<title>Node0&#45;&gt;Node1</title>
<path fill="none" stroke="#191970" d="M367.9095,-224.2885C355.808,-215.735 338.6744,-202.4207 326.5,-188 299.8541,-156.4376 281.6001,-111.0163 272.7164,-85.4329"/>
<polygon fill="#191970" stroke="#191970" points="275.9789,-84.1532 269.4856,-75.7814 269.341,-86.3752 275.9789,-84.1532"/>
</g>
<!-- Node2 -->
<g id="node3" class="node">
<title>Node2</title>
<polygon fill="none" stroke="#bfbfbf" points="0,-112.5 0,-131.5 29,-131.5 29,-112.5 0,-112.5"/>
<text text-anchor="middle" x="14.5" y="-119.5" font-family="Helvetica,sans-Serif" font-size="10.00" fill="#000000">list</text>
</g>
<!-- Node0&#45;&gt;Node2 -->
<g id="edge2" class="edge">
<title>Node0&#45;&gt;Node2</title>
<path fill="none" stroke="#191970" d="M339.8357,-227.9359C294.7975,-220.8856 222.0782,-207.6463 161.5,-188 116.5103,-173.4093 66.8305,-149.3046 38.2777,-134.6161"/>
<polygon fill="#191970" stroke="#191970" points="39.5885,-131.3528 29.1016,-129.8442 36.3589,-137.5632 39.5885,-131.3528"/>
</g>
<!-- Node3 -->
<g id="node4" class="node">
<title>Node3</title>
<polygon fill="none" stroke="#bfbfbf" points="437,-168.5 437,-187.5 472,-187.5 472,-168.5 437,-168.5"/>
<text text-anchor="middle" x="454.5" y="-175.5" font-family="Helvetica,sans-Serif" font-size="10.00" fill="#000000">map</text>
</g>
<!-- Node0&#45;&gt;Node3 -->
<g id="edge3" class="edge">
<title>Node0&#45;&gt;Node3</title>
<path fill="none" stroke="#191970" d="M395.0414,-224.2455C405.7787,-215.8943 421.4473,-203.7076 434.0047,-193.9408"/>
<polygon fill="#191970" stroke="#191970" points="436.3575,-196.5449 442.1023,-187.6427 432.0599,-191.0194 436.3575,-196.5449"/>
</g>
<!-- Node4 -->
<g id="node5" class="node">
<title>Node4</title>
<polygon fill="none" stroke="#bfbfbf" points="304,-112.5 304,-131.5 345,-131.5 345,-112.5 304,-112.5"/>
<text text-anchor="middle" x="324.5" y="-119.5" font-family="Helvetica,sans-Serif" font-size="10.00" fill="#000000">string</text>
</g>
<!-- Node0&#45;&gt;Node4 -->
<g id="edge4" class="edge">
<title>Node0&#45;&gt;Node4</title>
<path fill="none" stroke="#191970" d="M369.7578,-224.4988C359.4126,-216.0737 345.3045,-202.8297 337.5,-188 329.9366,-173.6283 326.7542,-155.3951 325.425,-141.7364"/>
<polygon fill="#191970" stroke="#191970" points="328.8989,-141.2467 324.6889,-131.5243 321.917,-141.7501 328.8989,-141.2467"/>
</g>
<!-- Node5 -->
<g id="node6" class="node">
<title>Node5</title>
<g id="a_node6"><a xlink:href="environment__base_8h.html" target="_top" xlink:title="environment_base.h">
<polygon fill="none" stroke="#000000" points="490.5,-168.5 490.5,-187.5 594.5,-187.5 594.5,-168.5 490.5,-168.5"/>
<text text-anchor="middle" x="542.5" y="-175.5" font-family="Helvetica,sans-Serif" font-size="10.00" fill="#000000">environment_base.h</text>
</a>
</g>
</g>
<!-- Node0&#45;&gt;Node5 -->
<g id="edge5" class="edge">
<title>Node0&#45;&gt;Node5</title>
<path fill="none" stroke="#191970" d="M410.005,-224.3733C436.3802,-215.1419 476.3851,-201.1402 505.5358,-190.9375"/>
<polygon fill="#191970" stroke="#191970" points="507.0716,-194.1082 515.3539,-187.5011 504.7591,-187.5012 507.0716,-194.1082"/>
</g>
<!-- Node6 -->
<g id="node7" class="node">
<title>Node6</title>
<g id="a_node7"><a xlink:href="species_8h.html" target="_top" xlink:title="species.h">
<polygon fill="none" stroke="#000000" points="171,-168.5 171,-187.5 230,-187.5 230,-168.5 171,-168.5"/>
<text text-anchor="middle" x="200.5" y="-175.5" font-family="Helvetica,sans-Serif" font-size="10.00" fill="#000000">species.h</text>
</a>
</g>
</g>
<!-- Node0&#45;&gt;Node6 -->
<g id="edge6" class="edge">
<title>Node0&#45;&gt;Node6</title>
<path fill="none" stroke="#191970" d="M351.2131,-224.3733C320.4498,-214.9076 273.3858,-200.4264 240.0463,-190.1681"/>
<polygon fill="#191970" stroke="#191970" points="240.7606,-186.726 230.1735,-187.1303 238.7019,-193.4165 240.7606,-186.726"/>
</g>
<!-- Node13 -->
<g id="node14" class="node">
<title>Node13</title>
<g id="a_node14"><a xlink:href="ode__solver_8h.html" target="_top" xlink:title="ode_solver.h">
<polygon fill="none" stroke="#000000" points="346.5,-168.5 346.5,-187.5 418.5,-187.5 418.5,-168.5 346.5,-168.5"/>
<text text-anchor="middle" x="382.5" y="-175.5" font-family="Helvetica,sans-Serif" font-size="10.00" fill="#000000">ode_solver.h</text>
</a>
</g>
</g>
<!-- Node0&#45;&gt;Node13 -->
<g id="edge16" class="edge">
<title>Node0&#45;&gt;Node13</title>
<path fill="none" stroke="#191970" d="M382.5,-224.2455C382.5,-216.9382 382.5,-206.6944 382.5,-197.7046"/>
<polygon fill="#191970" stroke="#191970" points="386.0001,-197.6426 382.5,-187.6427 379.0001,-197.6427 386.0001,-197.6426"/>
</g>
<!-- Node21 -->
<g id="node22" class="node">
<title>Node21</title>
<g id="a_node22"><a xlink:href="solver_8tpp.html" target="_top" xlink:title="../src/solver.tpp">
<polygon fill="none" stroke="#000000" points="613,-168.5 613,-187.5 698,-187.5 698,-168.5 613,-168.5"/>
<text text-anchor="middle" x="655.5" y="-175.5" font-family="Helvetica,sans-Serif" font-size="10.00" fill="#000000">../src/solver.tpp</text>
</a>
</g>
</g>
<!-- Node0&#45;&gt;Node21 -->
<g id="edge30" class="edge">
<title>Node0&#45;&gt;Node21</title>
<path fill="none" stroke="#191970" d="M425.1563,-225.25C473.0977,-215.4159 550.9732,-199.4414 602.7112,-188.8285"/>
<polygon fill="#191970" stroke="#191970" points="603.601,-192.2189 612.6937,-186.7808 602.1943,-185.3617 603.601,-192.2189"/>
</g>
<!-- Node22 -->
<g id="node23" class="node">
<title>Node22</title>
<g id="a_node23"><a xlink:href="size__integrals_8tpp.html" target="_top" xlink:title="../src/size_integrals.tpp">
<polygon fill="none" stroke="#000000" points="716,-168.5 716,-187.5 835,-187.5 835,-168.5 716,-168.5"/>
<text text-anchor="middle" x="775.5" y="-175.5" font-family="Helvetica,sans-Serif" font-size="10.00" fill="#000000">../src/size_integrals.tpp</text>
</a>
</g>
</g>
<!-- Node0&#45;&gt;Node22 -->
<g id="edge31" class="edge">
<title>Node0&#45;&gt;Node22</title>
<path fill="none" stroke="#191970" d="M425.0987,-228.0455C485.3286,-219.61 599.1028,-203.6149 705.8258,-188.2365"/>
<polygon fill="#191970" stroke="#191970" points="706.4006,-191.6899 715.7986,-186.7983 705.4014,-184.7616 706.4006,-191.6899"/>
</g>
<!-- Node6&#45;&gt;Node1 -->
<g id="edge7" class="edge">
<title>Node6&#45;&gt;Node1</title>
<path fill="none" stroke="#191970" d="M206.1271,-168.4509C217.0864,-149.8533 241.4601,-108.4919 255.6593,-84.3964"/>
<polygon fill="#191970" stroke="#191970" points="258.8255,-85.9172 260.8871,-75.5249 252.7948,-82.3633 258.8255,-85.9172"/>
</g>
<!-- Node6&#45;&gt;Node2 -->
<g id="edge8" class="edge">
<title>Node6&#45;&gt;Node2</title>
<path fill="none" stroke="#191970" d="M170.9088,-170.7196C138.1796,-162.4085 84.0475,-147.8933 38.5,-132 38.4041,-131.9665 38.308,-131.9329 38.2118,-131.8991"/>
<polygon fill="#191970" stroke="#191970" points="39.7072,-128.724 29.1169,-128.4125 37.2014,-135.2602 39.7072,-128.724"/>
</g>
<!-- Node6&#45;&gt;Node4 -->
<g id="edge9" class="edge">
<title>Node6&#45;&gt;Node4</title>
<path fill="none" stroke="#191970" d="M221.8164,-168.3733C241.8422,-159.3293 272.0066,-145.7067 294.4667,-135.5634"/>
<polygon fill="#191970" stroke="#191970" points="296.2007,-138.6208 303.8738,-131.315 293.3195,-132.2412 296.2007,-138.6208"/>
</g>
<!-- Node7 -->
<g id="node8" class="node">
<title>Node7</title>
<g id="a_node8"><a xlink:href="cohort_8h.html" target="_top" xlink:title="cohort.h">
<polygon fill="none" stroke="#000000" points="157.5,-112.5 157.5,-131.5 209.5,-131.5 209.5,-112.5 157.5,-112.5"/>
<text text-anchor="middle" x="183.5" y="-119.5" font-family="Helvetica,sans-Serif" font-size="10.00" fill="#000000">cohort.h</text>
</a>
</g>
</g>
<!-- Node6&#45;&gt;Node7 -->
<g id="edge10" class="edge">
<title>Node6&#45;&gt;Node7</title>
<path fill="none" stroke="#191970" d="M197.5388,-168.2455C195.2962,-160.8579 192.1423,-150.4689 189.3919,-141.4087"/>
<polygon fill="#191970" stroke="#191970" points="192.6812,-140.1948 186.4272,-131.6427 185.983,-142.2282 192.6812,-140.1948"/>
</g>
<!-- Node9 -->
<g id="node10" class="node">
<title>Node9</title>
<g id="a_node10"><a xlink:href="species_8tpp.html" target="_top" xlink:title="../src/species.tpp">
<polygon fill="none" stroke="#000000" points="47.5,-112.5 47.5,-131.5 139.5,-131.5 139.5,-112.5 47.5,-112.5"/>
<text text-anchor="middle" x="93.5" y="-119.5" font-family="Helvetica,sans-Serif" font-size="10.00" fill="#000000">../src/species.tpp</text>
</a>
</g>
</g>
<!-- Node6&#45;&gt;Node9 -->
<g id="edge12" class="edge">
<title>Node6&#45;&gt;Node9</title>
<path fill="none" stroke="#191970" d="M181.862,-168.2455C165.0614,-159.4527 140.1366,-146.4079 121.0382,-136.4125"/>
<polygon fill="#191970" stroke="#191970" points="122.4073,-133.1787 111.9244,-131.6427 119.1614,-139.3807 122.4073,-133.1787"/>
</g>
<!-- Node8 -->
<g id="node9" class="node">
<title>Node8</title>
<polygon fill="none" stroke="#bfbfbf" points="320.5,-.5 320.5,-19.5 374.5,-19.5 374.5,-.5 320.5,-.5"/>
<text text-anchor="middle" x="347.5" y="-7.5" font-family="Helvetica,sans-Serif" font-size="10.00" fill="#000000">iostream</text>
</g>
<!-- Node7&#45;&gt;Node8 -->
<g id="edge11" class="edge">
<title>Node7&#45;&gt;Node8</title>
<path fill="none" stroke="#191970" d="M188.9867,-112.1858C197.3488,-98.0222 214.543,-71.8195 235.5,-56 257.8603,-39.1212 287.2949,-27.3493 310.3772,-19.9417"/>
<polygon fill="#191970" stroke="#191970" points="311.6312,-23.218 320.1637,-16.9374 309.5768,-16.5262 311.6312,-23.218"/>
</g>
<!-- Node10 -->
<g id="node11" class="node">
<title>Node10</title>
<polygon fill="none" stroke="#bfbfbf" points="163,-.5 163,-19.5 212,-19.5 212,-.5 163,-.5"/>
<text text-anchor="middle" x="187.5" y="-7.5" font-family="Helvetica,sans-Serif" font-size="10.00" fill="#000000">cassert</text>
</g>
<!-- Node9&#45;&gt;Node10 -->
<g id="edge13" class="edge">
<title>Node9&#45;&gt;Node10</title>
<path fill="none" stroke="#191970" d="M94.7019,-112.0752C96.8106,-98.2418 102.2844,-72.9576 115.5,-56 126.0464,-42.4674 141.7605,-31.773 155.8198,-24.1146"/>
<polygon fill="#191970" stroke="#191970" points="157.4576,-27.2081 164.7488,-19.5211 154.2553,-20.9835 157.4576,-27.2081"/>
</g>
<!-- Node11 -->
<g id="node12" class="node">
<title>Node11</title>
<polygon fill="none" stroke="#bfbfbf" points="124.5,-56.5 124.5,-75.5 180.5,-75.5 180.5,-56.5 124.5,-56.5"/>
<text text-anchor="middle" x="152.5" y="-63.5" font-family="Helvetica,sans-Serif" font-size="10.00" fill="#000000">algorithm</text>
</g>
<!-- Node9&#45;&gt;Node11 -->
<g id="edge14" class="edge">
<title>Node9&#45;&gt;Node11</title>
<path fill="none" stroke="#191970" d="M103.777,-112.2455C112.3218,-104.1352 124.6778,-92.4075 134.8085,-82.7919"/>
<polygon fill="#191970" stroke="#191970" points="137.4972,-85.0655 142.3408,-75.6427 132.6782,-79.9884 137.4972,-85.0655"/>
</g>
<!-- Node12 -->
<g id="node13" class="node">
<title>Node12</title>
<polygon fill="none" stroke="#bfbfbf" points="17,-56.5 17,-75.5 68,-75.5 68,-56.5 17,-56.5"/>
<text text-anchor="middle" x="42.5" y="-63.5" font-family="Helvetica,sans-Serif" font-size="10.00" fill="#000000">numeric</text>
</g>
<!-- Node9&#45;&gt;Node12 -->
<g id="edge15" class="edge">
<title>Node9&#45;&gt;Node12</title>
<path fill="none" stroke="#191970" d="M84.6165,-112.2455C77.3034,-104.2155 66.7609,-92.6394 58.0533,-83.0781"/>
<polygon fill="#191970" stroke="#191970" points="60.6028,-80.6795 51.2817,-75.6427 55.4273,-85.3928 60.6028,-80.6795"/>
</g>
<!-- Node13&#45;&gt;Node1 -->
<g id="edge27" class="edge">
<title>Node13&#45;&gt;Node1</title>
<path fill="none" stroke="#191970" d="M380.4066,-168.3646C376.9471,-154.4237 368.8431,-128.4957 353.5,-112 338.4087,-95.775 316.2796,-84.1835 298.1165,-76.6949"/>
<polygon fill="#191970" stroke="#191970" points="299.3601,-73.4232 288.7718,-73.0518 296.8175,-79.9451 299.3601,-73.4232"/>
</g>
<!-- Node13&#45;&gt;Node4 -->
<g id="edge26" class="edge">
<title>Node13&#45;&gt;Node4</title>
<path fill="none" stroke="#191970" d="M372.3972,-168.2455C363.9972,-160.1352 351.8506,-148.4075 341.8916,-138.7919"/>
<polygon fill="#191970" stroke="#191970" points="344.1122,-136.0707 334.4871,-131.6427 339.25,-141.1066 344.1122,-136.0707"/>
</g>
<!-- Node13&#45;&gt;Node8 -->
<g id="edge28" class="edge">
<title>Node13&#45;&gt;Node8</title>
<path fill="none" stroke="#191970" d="M418.8342,-169.8527C421.7644,-169.2179 424.6807,-168.5936 427.5,-168 509.9004,-150.6522 624.8044,-194.6131 608.5,-112 603.2903,-85.6028 606.3196,-73.0439 585.5,-56 555.3181,-31.2918 444.0567,-18.2472 384.9605,-12.9301"/>
<polygon fill="#191970" stroke="#191970" points="385.1748,-9.4356 374.9089,-12.055 384.5676,-16.4092 385.1748,-9.4356"/>
</g>
<!-- Node14 -->
<g id="node15" class="node">
<title>Node14</title>
<g id="a_node15"><a xlink:href="rkck45_8h.html" target="_top" xlink:title="rkck45.h">
<polygon fill="none" stroke="#000000" points="467.5,-112.5 467.5,-131.5 521.5,-131.5 521.5,-112.5 467.5,-112.5"/>
<text text-anchor="middle" x="494.5" y="-119.5" font-family="Helvetica,sans-Serif" font-size="10.00" fill="#000000">rkck45.h</text>
</a>
</g>
</g>
<!-- Node13&#45;&gt;Node14 -->
<g id="edge17" class="edge">
<title>Node13&#45;&gt;Node14</title>
<path fill="none" stroke="#191970" d="M401.7535,-168.3733C419.5712,-159.4644 446.2747,-146.1127 466.4594,-136.0203"/>
<polygon fill="#191970" stroke="#191970" points="468.1187,-139.1038 475.4978,-131.5011 464.9882,-132.8428 468.1187,-139.1038"/>
</g>
<!-- Node15 -->
<g id="node16" class="node">
<title>Node15</title>
<g id="a_node16"><a xlink:href="lsoda_8h.html" target="_top" xlink:title="lsoda.h">
<polygon fill="none" stroke="#000000" points="401.5,-112.5 401.5,-131.5 449.5,-131.5 449.5,-112.5 401.5,-112.5"/>
<text text-anchor="middle" x="425.5" y="-119.5" font-family="Helvetica,sans-Serif" font-size="10.00" fill="#000000">lsoda.h</text>
</a>
</g>
</g>
<!-- Node13&#45;&gt;Node15 -->
<g id="edge18" class="edge">
<title>Node13&#45;&gt;Node15</title>
<path fill="none" stroke="#191970" d="M389.99,-168.2455C396.0326,-160.3761 404.6903,-149.101 411.9441,-139.6542"/>
<polygon fill="#191970" stroke="#191970" points="414.7815,-141.7058 418.0958,-131.6427 409.2295,-137.4426 414.7815,-141.7058"/>
</g>
<!-- Node20 -->
<g id="node21" class="node">
<title>Node20</title>
<polygon fill="none" stroke="#bfbfbf" points="540,-112.5 540,-131.5 599,-131.5 599,-112.5 540,-112.5"/>
<text text-anchor="middle" x="569.5" y="-119.5" font-family="Helvetica,sans-Serif" font-size="10.00" fill="#000000">exception</text>
</g>
<!-- Node13&#45;&gt;Node20 -->
<g id="edge29" class="edge">
<title>Node13&#45;&gt;Node20</title>
<path fill="none" stroke="#191970" d="M414.6464,-168.3733C446.6762,-158.7814 495.9042,-144.0394 530.2296,-133.7601"/>
<polygon fill="#191970" stroke="#191970" points="531.3526,-137.0775 539.9282,-130.8557 529.3444,-130.3717 531.3526,-137.0775"/>
</g>
<!-- Node15&#45;&gt;Node1 -->
<g id="edge22" class="edge">
<title>Node15&#45;&gt;Node1</title>
<path fill="none" stroke="#191970" d="M401.3513,-113.4948C373.8773,-103.8184 328.8944,-87.9754 298.5142,-77.2755"/>
<polygon fill="#191970" stroke="#191970" points="299.4124,-73.8811 288.8176,-73.8603 297.087,-80.4836 299.4124,-73.8811"/>
</g>
<!-- Node16 -->
<g id="node17" class="node">
<title>Node16</title>
<polygon fill="none" stroke="#bfbfbf" points="406.5,-56.5 406.5,-75.5 444.5,-75.5 444.5,-56.5 406.5,-56.5"/>
<text text-anchor="middle" x="425.5" y="-63.5" font-family="Helvetica,sans-Serif" font-size="10.00" fill="#000000">array</text>
</g>
<!-- Node15&#45;&gt;Node16 -->
<g id="edge19" class="edge">
<title>Node15&#45;&gt;Node16</title>
<path fill="none" stroke="#191970" d="M425.5,-112.2455C425.5,-104.9382 425.5,-94.6944 425.5,-85.7046"/>
<polygon fill="#191970" stroke="#191970" points="429.0001,-85.6426 425.5,-75.6427 422.0001,-85.6427 429.0001,-85.6426"/>
</g>
<!-- Node17 -->
<g id="node18" class="node">
<title>Node17</title>
<polygon fill="none" stroke="#bfbfbf" points="462.5,-56.5 462.5,-75.5 506.5,-75.5 506.5,-56.5 462.5,-56.5"/>
<text text-anchor="middle" x="484.5" y="-63.5" font-family="Helvetica,sans-Serif" font-size="10.00" fill="#000000">cmath</text>
</g>
<!-- Node15&#45;&gt;Node17 -->
<g id="edge20" class="edge">
<title>Node15&#45;&gt;Node17</title>
<path fill="none" stroke="#191970" d="M435.777,-112.2455C444.3218,-104.1352 456.6778,-92.4075 466.8085,-82.7919"/>
<polygon fill="#191970" stroke="#191970" points="469.4972,-85.0655 474.3408,-75.6427 464.6782,-79.9884 469.4972,-85.0655"/>
</g>
<!-- Node18 -->
<g id="node19" class="node">
<title>Node18</title>
<polygon fill="none" stroke="#bfbfbf" points="524.5,-56.5 524.5,-75.5 576.5,-75.5 576.5,-56.5 524.5,-56.5"/>
<text text-anchor="middle" x="550.5" y="-63.5" font-family="Helvetica,sans-Serif" font-size="10.00" fill="#000000">memory</text>
</g>
<!-- Node15&#45;&gt;Node18 -->
<g id="edge21" class="edge">
<title>Node15&#45;&gt;Node18</title>
<path fill="none" stroke="#191970" d="M446.9883,-112.3733C467.144,-103.3435 497.488,-89.7494 520.118,-79.6111"/>
<polygon fill="#191970" stroke="#191970" points="521.5971,-82.7838 529.2921,-75.5011 518.7351,-76.3955 521.5971,-82.7838"/>
</g>
<!-- Node19 -->
<g id="node20" class="node">
<title>Node19</title>
<g id="a_node20"><a xlink:href="lsoda_8tpp.html" target="_top" xlink:title="../src/lsoda.tpp">
<polygon fill="none" stroke="#000000" points="306.5,-56.5 306.5,-75.5 388.5,-75.5 388.5,-56.5 306.5,-56.5"/>
<text text-anchor="middle" x="347.5" y="-63.5" font-family="Helvetica,sans-Serif" font-size="10.00" fill="#000000">../src/lsoda.tpp</text>
</a>
</g>
</g>
<!-- Node15&#45;&gt;Node19 -->
<g id="edge23" class="edge">
<title>Node15&#45;&gt;Node19</title>
<path fill="none" stroke="#191970" d="M411.9134,-112.2455C400.1695,-103.814 382.9801,-91.4729 369.3118,-81.6598"/>
<polygon fill="#191970" stroke="#191970" points="371.0954,-78.6316 360.9309,-75.6427 367.0129,-84.3179 371.0954,-78.6316"/>
</g>
<!-- Node19&#45;&gt;Node8 -->
<g id="edge24" class="edge">
<title>Node19&#45;&gt;Node8</title>
<path fill="none" stroke="#191970" d="M347.5,-56.2455C347.5,-48.9382 347.5,-38.6944 347.5,-29.7046"/>
<polygon fill="#191970" stroke="#191970" points="351.0001,-29.6426 347.5,-19.6427 344.0001,-29.6427 351.0001,-29.6426"/>
</g>
<!-- Node19&#45;&gt;Node10 -->
<g id="edge25" class="edge">
<title>Node19&#45;&gt;Node10</title>
<path fill="none" stroke="#191970" d="M319.995,-56.3733C292.8206,-46.8622 251.1778,-32.2872 221.8447,-22.0207"/>
<polygon fill="#191970" stroke="#191970" points="222.6214,-18.5843 212.0265,-18.5843 220.3089,-25.1914 222.6214,-18.5843"/>
</g>
</g>
</svg>
