<?xml version="1.0" encoding="UTF-8" standalone="no"?>
<!DOCTYPE svg PUBLIC "-//W3C//DTD SVG 1.1//EN"
 "http://www.w3.org/Graphics/SVG/1.1/DTD/svg11.dtd">
<!-- Generated by graphviz version 2.40.1 (20161225.0304)
 -->
<!-- Title: seq Pages: 1 -->
<svg width="234pt" height="66pt"
 viewBox="0.00 0.00 234.00 66.00" xmlns="http://www.w3.org/2000/svg" xmlns:xlink="http://www.w3.org/1999/xlink">
<g id="graph0" class="graph" transform="scale(1 1) rotate(0) translate(4 62)">
<title>seq</title>
<!-- Node6 -->
<g id="node1" class="node">
<title>Node6</title>
<polygon fill="#bfbfbf" stroke="#000000" points="0,-19.5 0,-38.5 32,-38.5 32,-19.5 0,-19.5"/>
<text text-anchor="middle" x="16" y="-26.5" font-family="Helvetica,sans-Serif" font-size="10.00" fill="#000000">seq</text>
</g>
<!-- Node7 -->
<g id="node2" class="node">
<title>Node7</title>
<g id="a_node2"><a xlink:href="classSolver.html#af84f4387e484f0cdb9b92fa6ff9ff858" target="_top" xlink:title="Solver::addSpecies">
<polygon fill="none" stroke="#000000" points="96.5,-38.5 96.5,-57.5 197.5,-57.5 197.5,-38.5 96.5,-38.5"/>
<text text-anchor="middle" x="147" y="-45.5" font-family="Helvetica,sans-Serif" font-size="10.00" fill="#000000">Solver::addSpecies</text>
</a>
</g>
</g>
<!-- Node6&#45;&gt;Node7 -->
<g id="edge1" class="edge">
<title>Node6&#45;&gt;Node7</title>
<path fill="none" stroke="#191970" d="M41.9682,-32.7664C57.4796,-35.0161 77.7164,-37.9512 96.2817,-40.6439"/>
<polygon fill="#191970" stroke="#191970" points="42.462,-29.3015 32.0632,-31.3298 41.4572,-36.229 42.462,-29.3015"/>
</g>
<!-- Node8 -->
<g id="node3" class="node">
<title>Node8</title>
<g id="a_node3"><a xlink:href="classSolver.html#adae147b4a43d3bd20e0333e2a5a2cc3a" target="_top" xlink:title="Solver::getDensitySpecies_EBT">
<polygon fill="none" stroke="#000000" points="68,-.5 68,-19.5 226,-19.5 226,-.5 68,-.5"/>
<text text-anchor="middle" x="147" y="-7.5" font-family="Helvetica,sans-Serif" font-size="10.00" fill="#000000">Solver::getDensitySpecies_EBT</text>
</a>
</g>
</g>
<!-- Node6&#45;&gt;Node8 -->
<g id="edge2" class="edge">
<title>Node6&#45;&gt;Node8</title>
<path fill="none" stroke="#191970" d="M42.1367,-25.2092C53.5377,-23.5556 67.468,-21.5352 81.4041,-19.5139"/>
<polygon fill="#191970" stroke="#191970" points="41.4572,-21.771 32.0632,-26.6702 42.462,-28.6985 41.4572,-21.771"/>
</g>
</g>
</svg>
