<?xml version="1.0" encoding="UTF-8" standalone="no"?>
<!DOCTYPE svg PUBLIC "-//W3C//DTD SVG 1.1//EN"
 "http://www.w3.org/Graphics/SVG/1.1/DTD/svg11.dtd">
<!-- Generated by graphviz version 2.40.1 (20161225.0304)
 -->
<!-- Title: src/solver.cpp Pages: 1 -->
<svg width="1048pt" height="308pt"
 viewBox="0.00 0.00 1047.50 308.00" xmlns="http://www.w3.org/2000/svg" xmlns:xlink="http://www.w3.org/1999/xlink">
<g id="graph0" class="graph" transform="scale(1 1) rotate(0) translate(4 304)">
<title>src/solver.cpp</title>
<!-- Node0 -->
<g id="node1" class="node">
<title>Node0</title>
<polygon fill="#bfbfbf" stroke="#000000" points="645,-280.5 645,-299.5 723,-299.5 723,-280.5 645,-280.5"/>
<text text-anchor="middle" x="684" y="-287.5" font-family="Helvetica,sans-Serif" font-size="10.00" fill="#000000">src/solver.cpp</text>
</g>
<!-- Node1 -->
<g id="node2" class="node">
<title>Node1</title>
<g id="a_node2"><a xlink:href="solver_8h.html" target="_top" xlink:title="solver.h">
<polygon fill="none" stroke="#000000" points="486.5,-224.5 486.5,-243.5 537.5,-243.5 537.5,-224.5 486.5,-224.5"/>
<text text-anchor="middle" x="512" y="-231.5" font-family="Helvetica,sans-Serif" font-size="10.00" fill="#000000">solver.h</text>
</a>
</g>
</g>
<!-- Node0&#45;&gt;Node1 -->
<g id="edge1" class="edge">
<title>Node0&#45;&gt;Node1</title>
<path fill="none" stroke="#191970" d="M654.4321,-280.3733C624.7045,-270.6945 578.87,-255.7716 547.2649,-245.4816"/>
<polygon fill="#191970" stroke="#191970" points="548.1343,-242.0839 537.542,-242.316 545.9671,-248.74 548.1343,-242.0839"/>
</g>
<!-- Node5 -->
<g id="node6" class="node">
<title>Node5</title>
<polygon fill="none" stroke="#bfbfbf" points="392.5,-112.5 392.5,-131.5 433.5,-131.5 433.5,-112.5 392.5,-112.5"/>
<text text-anchor="middle" x="413" y="-119.5" font-family="Helvetica,sans-Serif" font-size="10.00" fill="#000000">string</text>
</g>
<!-- Node0&#45;&gt;Node5 -->
<g id="edge40" class="edge">
<title>Node0&#45;&gt;Node5</title>
<path fill="none" stroke="#191970" d="M644.8574,-288.1438C537.635,-282.1603 243.2908,-259.4113 185,-188 179.3791,-181.1139 179.3703,-174.8789 185,-168 186.5714,-166.0798 320.2321,-139.9727 382.1483,-127.9658"/>
<polygon fill="#191970" stroke="#191970" points="382.9827,-131.3693 392.1343,-126.0309 381.6511,-124.4971 382.9827,-131.3693"/>
</g>
<!-- Node9 -->
<g id="node10" class="node">
<title>Node9</title>
<polygon fill="none" stroke="#bfbfbf" points="173,-.5 173,-19.5 227,-19.5 227,-.5 173,-.5"/>
<text text-anchor="middle" x="200" y="-7.5" font-family="Helvetica,sans-Serif" font-size="10.00" fill="#000000">iostream</text>
</g>
<!-- Node0&#45;&gt;Node9 -->
<g id="edge37" class="edge">
<title>Node0&#45;&gt;Node9</title>
<path fill="none" stroke="#191970" d="M644.6905,-289.6574C529.5838,-288.2289 194.9664,-280.9245 93,-244 45.3442,-226.7427 0,-228.6842 0,-178 0,-178 0,-178 0,-122 0,-48.3829 104.431,-22.6763 162.3687,-14.0792"/>
<polygon fill="#191970" stroke="#191970" points="163.1828,-17.5001 172.6102,-12.6654 162.2255,-10.5659 163.1828,-17.5001"/>
</g>
<!-- Node11 -->
<g id="node12" class="node">
<title>Node11</title>
<polygon fill="none" stroke="#bfbfbf" points="765.5,-.5 765.5,-19.5 814.5,-19.5 814.5,-.5 765.5,-.5"/>
<text text-anchor="middle" x="790" y="-7.5" font-family="Helvetica,sans-Serif" font-size="10.00" fill="#000000">cassert</text>
</g>
<!-- Node0&#45;&gt;Node11 -->
<g id="edge39" class="edge">
<title>Node0&#45;&gt;Node11</title>
<path fill="none" stroke="#191970" d="M723.2565,-282.1432C797.6961,-266.1131 952,-226.9776 952,-178 952,-178 952,-178 952,-122 952,-91.4754 954.2479,-77.9153 933,-56 917.9,-40.4256 862.0372,-25.6675 824.7669,-17.2417"/>
<polygon fill="#191970" stroke="#191970" points="825.317,-13.7789 814.7972,-15.0377 823.8059,-20.6138 825.317,-13.7789"/>
</g>
<!-- Node12 -->
<g id="node13" class="node">
<title>Node12</title>
<polygon fill="none" stroke="#bfbfbf" points="762,-56.5 762,-75.5 818,-75.5 818,-56.5 762,-56.5"/>
<text text-anchor="middle" x="790" y="-63.5" font-family="Helvetica,sans-Serif" font-size="10.00" fill="#000000">algorithm</text>
</g>
<!-- Node0&#45;&gt;Node12 -->
<g id="edge41" class="edge">
<title>Node0&#45;&gt;Node12</title>
<path fill="none" stroke="#191970" d="M694.7729,-280.3011C713.131,-263.2586 750.6551,-226.1164 773,-188 786.3658,-165.2003 788.4894,-158.0408 793,-132 794.5171,-123.2415 793.2894,-120.8842 793,-112 792.717,-103.3113 792.134,-93.714 791.5566,-85.5436"/>
<polygon fill="#191970" stroke="#191970" points="795.0418,-85.2151 790.8013,-75.5059 788.0616,-85.7404 795.0418,-85.2151"/>
</g>
<!-- Node18 -->
<g id="node19" class="node">
<title>Node18</title>
<polygon fill="none" stroke="#bfbfbf" points="116,-56.5 116,-75.5 160,-75.5 160,-56.5 116,-56.5"/>
<text text-anchor="middle" x="138" y="-63.5" font-family="Helvetica,sans-Serif" font-size="10.00" fill="#000000">cmath</text>
</g>
<!-- Node0&#45;&gt;Node18 -->
<g id="edge38" class="edge">
<title>Node0&#45;&gt;Node18</title>
<path fill="none" stroke="#191970" d="M644.8311,-288.5553C566.7238,-285.1059 386.3407,-274.2885 238,-244 155.4956,-227.1541 106.9748,-255.7738 57,-188 29.5756,-150.8081 81.9245,-104.9293 114.5943,-81.4469"/>
<polygon fill="#191970" stroke="#191970" points="116.6147,-84.3049 122.8101,-75.7103 112.6073,-78.5655 116.6147,-84.3049"/>
</g>
<!-- Node24 -->
<g id="node25" class="node">
<title>Node24</title>
<g id="a_node25"><a xlink:href="cubic__spline_8h.html" target="_top" xlink:title="cubic_spline.h">
<polygon fill="none" stroke="#000000" points="840.5,-112.5 840.5,-131.5 919.5,-131.5 919.5,-112.5 840.5,-112.5"/>
<text text-anchor="middle" x="880" y="-119.5" font-family="Helvetica,sans-Serif" font-size="10.00" fill="#000000">cubic_spline.h</text>
</a>
</g>
</g>
<!-- Node0&#45;&gt;Node24 -->
<g id="edge33" class="edge">
<title>Node0&#45;&gt;Node24</title>
<path fill="none" stroke="#191970" d="M723.2856,-286.059C754.5053,-281.0432 797.5149,-269.6814 826,-244 856.4066,-216.5862 870.5674,-168.8704 876.4209,-141.9548"/>
<polygon fill="#191970" stroke="#191970" points="879.9201,-142.3044 878.4441,-131.8129 873.0553,-140.9349 879.9201,-142.3044"/>
</g>
<!-- Node26 -->
<g id="node27" class="node">
<title>Node26</title>
<polygon fill="none" stroke="#bfbfbf" points="980.5,-224.5 980.5,-243.5 1039.5,-243.5 1039.5,-224.5 980.5,-224.5"/>
<text text-anchor="middle" x="1010" y="-231.5" font-family="Helvetica,sans-Serif" font-size="10.00" fill="#000000">functional</text>
</g>
<!-- Node0&#45;&gt;Node26 -->
<g id="edge42" class="edge">
<title>Node0&#45;&gt;Node26</title>
<path fill="none" stroke="#191970" d="M723.3698,-284.3629C778.0038,-276.3618 879.8217,-260.8051 966,-244 967.4417,-243.7189 968.9082,-243.4253 970.3882,-243.1226"/>
<polygon fill="#191970" stroke="#191970" points="971.1785,-246.5328 980.2307,-241.0275 969.7212,-239.6862 971.1785,-246.5328"/>
</g>
<!-- Node2 -->
<g id="node3" class="node">
<title>Node2</title>
<polygon fill="none" stroke="#bfbfbf" points="592,-56.5 592,-75.5 636,-75.5 636,-56.5 592,-56.5"/>
<text text-anchor="middle" x="614" y="-63.5" font-family="Helvetica,sans-Serif" font-size="10.00" fill="#000000">vector</text>
</g>
<!-- Node1&#45;&gt;Node2 -->
<g id="edge2" class="edge">
<title>Node1&#45;&gt;Node2</title>
<path fill="none" stroke="#191970" d="M537.8643,-233.106C594.7005,-230.5417 727.6078,-221.064 755,-188 790.4318,-145.2317 721.6598,-159.2169 683,-132 662.831,-117.8008 642.7972,-97.8105 629.5552,-83.5582"/>
<polygon fill="#191970" stroke="#191970" points="631.9157,-80.9521 622.5938,-75.9169 626.7411,-85.6663 631.9157,-80.9521"/>
</g>
<!-- Node3 -->
<g id="node4" class="node">
<title>Node3</title>
<polygon fill="none" stroke="#bfbfbf" points="460.5,-112.5 460.5,-131.5 489.5,-131.5 489.5,-112.5 460.5,-112.5"/>
<text text-anchor="middle" x="475" y="-119.5" font-family="Helvetica,sans-Serif" font-size="10.00" fill="#000000">list</text>
</g>
<!-- Node1&#45;&gt;Node3 -->
<g id="edge3" class="edge">
<title>Node1&#45;&gt;Node3</title>
<path fill="none" stroke="#191970" d="M506.0058,-224.4957C500.5492,-215.4397 492.6555,-201.2585 488,-188 482.68,-172.849 479.3245,-154.9333 477.358,-141.5938"/>
<polygon fill="#191970" stroke="#191970" points="480.8193,-141.0715 476.0201,-131.626 473.8815,-142.0027 480.8193,-141.0715"/>
</g>
<!-- Node4 -->
<g id="node5" class="node">
<title>Node4</title>
<polygon fill="none" stroke="#bfbfbf" points="633.5,-168.5 633.5,-187.5 668.5,-187.5 668.5,-168.5 633.5,-168.5"/>
<text text-anchor="middle" x="651" y="-175.5" font-family="Helvetica,sans-Serif" font-size="10.00" fill="#000000">map</text>
</g>
<!-- Node1&#45;&gt;Node4 -->
<g id="edge4" class="edge">
<title>Node1&#45;&gt;Node4</title>
<path fill="none" stroke="#191970" d="M535.895,-224.3733C560.2899,-214.5451 598.1063,-199.3097 623.6755,-189.0084"/>
<polygon fill="#191970" stroke="#191970" points="625.1828,-192.1746 633.1504,-185.1912 622.5669,-185.6817 625.1828,-192.1746"/>
</g>
<!-- Node1&#45;&gt;Node5 -->
<g id="edge5" class="edge">
<title>Node1&#45;&gt;Node5</title>
<path fill="none" stroke="#191970" d="M503.5593,-224.4509C486.8281,-205.5227 449.2535,-163.014 428.1398,-139.1279"/>
<polygon fill="#191970" stroke="#191970" points="430.6646,-136.6994 421.4193,-131.5249 425.4198,-141.3354 430.6646,-136.6994"/>
</g>
<!-- Node6 -->
<g id="node7" class="node">
<title>Node6</title>
<g id="a_node7"><a xlink:href="environment__base_8h.html" target="_top" xlink:title="environment_base.h">
<polygon fill="none" stroke="#000000" points="194,-168.5 194,-187.5 298,-187.5 298,-168.5 194,-168.5"/>
<text text-anchor="middle" x="246" y="-175.5" font-family="Helvetica,sans-Serif" font-size="10.00" fill="#000000">environment_base.h</text>
</a>
</g>
</g>
<!-- Node1&#45;&gt;Node6 -->
<g id="edge6" class="edge">
<title>Node1&#45;&gt;Node6</title>
<path fill="none" stroke="#191970" d="M486.4948,-228.6305C444.0512,-219.695 357.9836,-201.5755 301.1626,-189.6132"/>
<polygon fill="#191970" stroke="#191970" points="301.7664,-186.1636 291.2598,-187.5284 300.3242,-193.0135 301.7664,-186.1636"/>
</g>
<!-- Node7 -->
<g id="node8" class="node">
<title>Node7</title>
<g id="a_node8"><a xlink:href="species_8h.html" target="_top" xlink:title="species.h">
<polygon fill="none" stroke="#000000" points="686.5,-168.5 686.5,-187.5 745.5,-187.5 745.5,-168.5 686.5,-168.5"/>
<text text-anchor="middle" x="716" y="-175.5" font-family="Helvetica,sans-Serif" font-size="10.00" fill="#000000">species.h</text>
</a>
</g>
</g>
<!-- Node1&#45;&gt;Node7 -->
<g id="edge7" class="edge">
<title>Node1&#45;&gt;Node7</title>
<path fill="none" stroke="#191970" d="M537.8367,-226.9076C572.8253,-217.3028 635.5929,-200.0725 676.5126,-188.8397"/>
<polygon fill="#191970" stroke="#191970" points="677.6983,-192.1438 686.415,-186.1214 675.8452,-185.3935 677.6983,-192.1438"/>
</g>
<!-- Node14 -->
<g id="node15" class="node">
<title>Node14</title>
<g id="a_node15"><a xlink:href="ode__solver_8h.html" target="_top" xlink:title="ode_solver.h">
<polygon fill="none" stroke="#000000" points="66,-168.5 66,-187.5 138,-187.5 138,-168.5 66,-168.5"/>
<text text-anchor="middle" x="102" y="-175.5" font-family="Helvetica,sans-Serif" font-size="10.00" fill="#000000">ode_solver.h</text>
</a>
</g>
</g>
<!-- Node1&#45;&gt;Node14 -->
<g id="edge17" class="edge">
<title>Node1&#45;&gt;Node14</title>
<path fill="none" stroke="#191970" d="M486.3527,-230.4969C418.715,-221.2586 234.7652,-196.1338 148.2037,-184.3108"/>
<polygon fill="#191970" stroke="#191970" points="148.5263,-180.8224 138.1446,-182.9368 147.5789,-187.758 148.5263,-180.8224"/>
</g>
<!-- Node22 -->
<g id="node23" class="node">
<title>Node22</title>
<g id="a_node23"><a xlink:href="solver_8tpp.html" target="_top" xlink:title="../src/solver.tpp">
<polygon fill="none" stroke="#000000" points="316.5,-168.5 316.5,-187.5 401.5,-187.5 401.5,-168.5 316.5,-168.5"/>
<text text-anchor="middle" x="359" y="-175.5" font-family="Helvetica,sans-Serif" font-size="10.00" fill="#000000">../src/solver.tpp</text>
</a>
</g>
</g>
<!-- Node1&#45;&gt;Node22 -->
<g id="edge31" class="edge">
<title>Node1&#45;&gt;Node22</title>
<path fill="none" stroke="#191970" d="M486.3912,-224.6269C461.2793,-215.4355 422.7775,-201.3434 394.6733,-191.0569"/>
<polygon fill="#191970" stroke="#191970" points="395.7989,-187.7419 385.2052,-187.5914 393.3929,-194.3154 395.7989,-187.7419"/>
</g>
<!-- Node23 -->
<g id="node24" class="node">
<title>Node23</title>
<g id="a_node24"><a xlink:href="size__integrals_8tpp.html" target="_top" xlink:title="../src/size_integrals.tpp">
<polygon fill="none" stroke="#000000" points="496.5,-168.5 496.5,-187.5 615.5,-187.5 615.5,-168.5 496.5,-168.5"/>
<text text-anchor="middle" x="556" y="-175.5" font-family="Helvetica,sans-Serif" font-size="10.00" fill="#000000">../src/size_integrals.tpp</text>
</a>
</g>
</g>
<!-- Node1&#45;&gt;Node23 -->
<g id="edge32" class="edge">
<title>Node1&#45;&gt;Node23</title>
<path fill="none" stroke="#191970" d="M519.6642,-224.2455C525.8473,-216.3761 534.7063,-205.101 542.1289,-195.6542"/>
<polygon fill="#191970" stroke="#191970" points="544.9975,-197.6683 548.4236,-187.6427 539.4932,-193.3435 544.9975,-197.6683"/>
</g>
<!-- Node7&#45;&gt;Node2 -->
<g id="edge8" class="edge">
<title>Node7&#45;&gt;Node2</title>
<path fill="none" stroke="#191970" d="M697.7462,-168.3989C683.4307,-160.1873 663.7027,-147.2894 650,-132 637.6439,-118.2132 627.9282,-99.4422 621.7203,-85.4428"/>
<polygon fill="#191970" stroke="#191970" points="624.7784,-83.6865 617.6712,-75.8291 618.3272,-86.4036 624.7784,-83.6865"/>
</g>
<!-- Node7&#45;&gt;Node3 -->
<g id="edge9" class="edge">
<title>Node7&#45;&gt;Node3</title>
<path fill="none" stroke="#191970" d="M686.1645,-169.9984C683.4087,-169.3047 680.6554,-168.6285 678,-168 602.4222,-150.1117 582.1508,-151.6052 507,-132 504.4867,-131.3443 501.8773,-130.6134 499.2816,-129.8534"/>
<polygon fill="#191970" stroke="#191970" points="500.1581,-126.4613 489.5714,-126.8755 498.1057,-133.1537 500.1581,-126.4613"/>
</g>
<!-- Node7&#45;&gt;Node5 -->
<g id="edge10" class="edge">
<title>Node7&#45;&gt;Node5</title>
<path fill="none" stroke="#191970" d="M686.196,-169.8576C683.4336,-169.1934 680.6701,-168.5625 678,-168 578.474,-147.0318 551.5917,-152.6536 452,-132 449.1768,-131.4145 446.2507,-130.7581 443.3284,-130.0687"/>
<polygon fill="#191970" stroke="#191970" points="444.1093,-126.6565 433.5615,-127.6537 442.429,-133.4518 444.1093,-126.6565"/>
</g>
<!-- Node8 -->
<g id="node9" class="node">
<title>Node8</title>
<g id="a_node9"><a xlink:href="cohort_8h.html" target="_top" xlink:title="cohort.h">
<polygon fill="none" stroke="#000000" points="516,-112.5 516,-131.5 568,-131.5 568,-112.5 516,-112.5"/>
<text text-anchor="middle" x="542" y="-119.5" font-family="Helvetica,sans-Serif" font-size="10.00" fill="#000000">cohort.h</text>
</a>
</g>
</g>
<!-- Node7&#45;&gt;Node8 -->
<g id="edge11" class="edge">
<title>Node7&#45;&gt;Node8</title>
<path fill="none" stroke="#191970" d="M686.4833,-168.5004C656.5616,-158.8704 610.2201,-143.9559 578.1227,-133.6257"/>
<polygon fill="#191970" stroke="#191970" points="578.8323,-130.1773 568.2409,-130.4453 576.6878,-136.8408 578.8323,-130.1773"/>
</g>
<!-- Node10 -->
<g id="node11" class="node">
<title>Node10</title>
<g id="a_node11"><a xlink:href="species_8tpp.html" target="_top" xlink:title="../src/species.tpp">
<polygon fill="none" stroke="#000000" points="692,-112.5 692,-131.5 784,-131.5 784,-112.5 692,-112.5"/>
<text text-anchor="middle" x="738" y="-119.5" font-family="Helvetica,sans-Serif" font-size="10.00" fill="#000000">../src/species.tpp</text>
</a>
</g>
</g>
<!-- Node7&#45;&gt;Node10 -->
<g id="edge13" class="edge">
<title>Node7&#45;&gt;Node10</title>
<path fill="none" stroke="#191970" d="M719.8321,-168.2455C722.7659,-160.7776 726.9047,-150.2427 730.491,-141.1137"/>
<polygon fill="#191970" stroke="#191970" points="733.8129,-142.23 734.2118,-131.6427 727.2976,-139.6704 733.8129,-142.23"/>
</g>
<!-- Node8&#45;&gt;Node9 -->
<g id="edge12" class="edge">
<title>Node8&#45;&gt;Node9</title>
<path fill="none" stroke="#191970" d="M515.6213,-115.8642C510.1282,-114.5868 504.3752,-113.2492 499,-112 430.1134,-95.9902 410.2796,-100.6716 344,-76 326.1137,-69.3421 323.2104,-64.2491 306,-56 281.7937,-44.3977 253.9325,-32.3568 232.8504,-23.5056"/>
<polygon fill="#191970" stroke="#191970" points="233.9621,-20.177 223.3855,-19.5547 231.2655,-26.6368 233.9621,-20.177"/>
</g>
<!-- Node10&#45;&gt;Node11 -->
<g id="edge14" class="edge">
<title>Node10&#45;&gt;Node11</title>
<path fill="none" stroke="#191970" d="M738.8413,-112.1469C740.2829,-98.8317 743.9965,-74.6182 753,-56 758.0866,-45.4816 765.9802,-35.2092 773.172,-27.0495"/>
<polygon fill="#191970" stroke="#191970" points="775.782,-29.3822 780.0001,-19.6632 770.6418,-24.6305 775.782,-29.3822"/>
</g>
<!-- Node10&#45;&gt;Node12 -->
<g id="edge15" class="edge">
<title>Node10&#45;&gt;Node12</title>
<path fill="none" stroke="#191970" d="M747.0577,-112.2455C754.5142,-104.2155 765.2634,-92.6394 774.1417,-83.0781"/>
<polygon fill="#191970" stroke="#191970" points="776.8063,-85.3522 781.0461,-75.6427 771.6768,-80.589 776.8063,-85.3522"/>
</g>
<!-- Node13 -->
<g id="node14" class="node">
<title>Node13</title>
<polygon fill="none" stroke="#bfbfbf" points="654.5,-56.5 654.5,-75.5 705.5,-75.5 705.5,-56.5 654.5,-56.5"/>
<text text-anchor="middle" x="680" y="-63.5" font-family="Helvetica,sans-Serif" font-size="10.00" fill="#000000">numeric</text>
</g>
<!-- Node10&#45;&gt;Node13 -->
<g id="edge16" class="edge">
<title>Node10&#45;&gt;Node13</title>
<path fill="none" stroke="#191970" d="M727.8972,-112.2455C719.4972,-104.1352 707.3506,-92.4075 697.3916,-82.7919"/>
<polygon fill="#191970" stroke="#191970" points="699.6122,-80.0707 689.9871,-75.6427 694.75,-85.1066 699.6122,-80.0707"/>
</g>
<!-- Node14&#45;&gt;Node2 -->
<g id="edge28" class="edge">
<title>Node14&#45;&gt;Node2</title>
<path fill="none" stroke="#191970" d="M138.0017,-170.6561C179.7529,-162.0052 250.5822,-146.9151 311,-132 343.6596,-123.9375 351.2643,-119.7479 384,-112 454.0694,-95.416 537.0737,-79.7955 581.7145,-71.7196"/>
<polygon fill="#191970" stroke="#191970" points="582.4623,-75.1413 591.6847,-69.9261 581.223,-68.2519 582.4623,-75.1413"/>
</g>
<!-- Node14&#45;&gt;Node5 -->
<g id="edge27" class="edge">
<title>Node14&#45;&gt;Node5</title>
<path fill="none" stroke="#191970" d="M138.0284,-170.678C142.7249,-169.7577 147.4747,-168.844 152,-168 244.2285,-150.7989 267.6791,-148.6979 360,-132 367.2649,-130.686 375.082,-129.2329 382.4223,-127.8509"/>
<polygon fill="#191970" stroke="#191970" points="383.2,-131.2659 392.3743,-125.9666 381.8977,-124.3881 383.2,-131.2659"/>
</g>
<!-- Node14&#45;&gt;Node9 -->
<g id="edge29" class="edge">
<title>Node14&#45;&gt;Node9</title>
<path fill="none" stroke="#191970" d="M98.9698,-168.1824C92.674,-145.6585 80.833,-89.6271 107,-56 120.9111,-38.1229 143.5964,-26.7092 163.0789,-19.7228"/>
<polygon fill="#191970" stroke="#191970" points="164.236,-23.0266 172.6216,-16.551 162.028,-16.3839 164.236,-23.0266"/>
</g>
<!-- Node15 -->
<g id="node16" class="node">
<title>Node15</title>
<g id="a_node16"><a xlink:href="rkck45_8h.html" target="_top" xlink:title="rkck45.h">
<polygon fill="none" stroke="#000000" points="104,-112.5 104,-131.5 158,-131.5 158,-112.5 104,-112.5"/>
<text text-anchor="middle" x="131" y="-119.5" font-family="Helvetica,sans-Serif" font-size="10.00" fill="#000000">rkck45.h</text>
</a>
</g>
</g>
<!-- Node14&#45;&gt;Node15 -->
<g id="edge18" class="edge">
<title>Node14&#45;&gt;Node15</title>
<path fill="none" stroke="#191970" d="M107.0514,-168.2455C111.0019,-160.617 116.6097,-149.7881 121.4058,-140.5267"/>
<polygon fill="#191970" stroke="#191970" points="124.5159,-142.1321 126.0065,-131.6427 118.2999,-138.9131 124.5159,-142.1321"/>
</g>
<!-- Node16 -->
<g id="node17" class="node">
<title>Node16</title>
<g id="a_node17"><a xlink:href="lsoda_8h.html" target="_top" xlink:title="lsoda.h">
<polygon fill="none" stroke="#000000" points="254,-112.5 254,-131.5 302,-131.5 302,-112.5 254,-112.5"/>
<text text-anchor="middle" x="278" y="-119.5" font-family="Helvetica,sans-Serif" font-size="10.00" fill="#000000">lsoda.h</text>
</a>
</g>
</g>
<!-- Node14&#45;&gt;Node16 -->
<g id="edge19" class="edge">
<title>Node14&#45;&gt;Node16</title>
<path fill="none" stroke="#191970" d="M132.2555,-168.3733C163.2953,-158.4969 211.4961,-143.1603 243.8765,-132.8575"/>
<polygon fill="#191970" stroke="#191970" points="245.3239,-136.0699 253.792,-129.7026 243.2015,-129.3994 245.3239,-136.0699"/>
</g>
<!-- Node21 -->
<g id="node22" class="node">
<title>Node21</title>
<polygon fill="none" stroke="#bfbfbf" points="176.5,-112.5 176.5,-131.5 235.5,-131.5 235.5,-112.5 176.5,-112.5"/>
<text text-anchor="middle" x="206" y="-119.5" font-family="Helvetica,sans-Serif" font-size="10.00" fill="#000000">exception</text>
</g>
<!-- Node14&#45;&gt;Node21 -->
<g id="edge30" class="edge">
<title>Node14&#45;&gt;Node21</title>
<path fill="none" stroke="#191970" d="M120.1154,-168.2455C136.445,-159.4527 160.671,-146.4079 179.2339,-136.4125"/>
<polygon fill="#191970" stroke="#191970" points="180.9468,-139.4654 188.0922,-131.6427 177.6281,-133.3021 180.9468,-139.4654"/>
</g>
<!-- Node16&#45;&gt;Node2 -->
<g id="edge23" class="edge">
<title>Node16&#45;&gt;Node2</title>
<path fill="none" stroke="#191970" d="M302.1731,-117.4093C311.4875,-115.6704 322.2312,-113.7011 332,-112 422.2974,-96.2763 529.153,-79.287 581.6255,-71.05"/>
<polygon fill="#191970" stroke="#191970" points="582.3354,-74.4816 591.673,-69.4755 581.2516,-67.566 582.3354,-74.4816"/>
</g>
<!-- Node17 -->
<g id="node18" class="node">
<title>Node17</title>
<polygon fill="none" stroke="#bfbfbf" points="259,-56.5 259,-75.5 297,-75.5 297,-56.5 259,-56.5"/>
<text text-anchor="middle" x="278" y="-63.5" font-family="Helvetica,sans-Serif" font-size="10.00" fill="#000000">array</text>
</g>
<!-- Node16&#45;&gt;Node17 -->
<g id="edge20" class="edge">
<title>Node16&#45;&gt;Node17</title>
<path fill="none" stroke="#191970" d="M278,-112.2455C278,-104.9382 278,-94.6944 278,-85.7046"/>
<polygon fill="#191970" stroke="#191970" points="281.5001,-85.6426 278,-75.6427 274.5001,-85.6427 281.5001,-85.6426"/>
</g>
<!-- Node16&#45;&gt;Node18 -->
<g id="edge21" class="edge">
<title>Node16&#45;&gt;Node18</title>
<path fill="none" stroke="#191970" d="M253.9331,-112.3733C230.7431,-103.0972 195.5112,-89.0045 169.9737,-78.7895"/>
<polygon fill="#191970" stroke="#191970" points="170.952,-75.4112 160.3673,-74.9469 168.3522,-81.9106 170.952,-75.4112"/>
</g>
<!-- Node19 -->
<g id="node20" class="node">
<title>Node19</title>
<polygon fill="none" stroke="#bfbfbf" points="189,-56.5 189,-75.5 241,-75.5 241,-56.5 189,-56.5"/>
<text text-anchor="middle" x="215" y="-63.5" font-family="Helvetica,sans-Serif" font-size="10.00" fill="#000000">memory</text>
</g>
<!-- Node16&#45;&gt;Node19 -->
<g id="edge22" class="edge">
<title>Node16&#45;&gt;Node19</title>
<path fill="none" stroke="#191970" d="M267.0262,-112.2455C257.8118,-104.0549 244.4468,-92.1749 233.5703,-82.5069"/>
<polygon fill="#191970" stroke="#191970" points="235.6474,-79.6704 225.848,-75.6427 230.9968,-84.9023 235.6474,-79.6704"/>
</g>
<!-- Node20 -->
<g id="node21" class="node">
<title>Node20</title>
<g id="a_node21"><a xlink:href="lsoda_8tpp.html" target="_top" xlink:title="../src/lsoda.tpp">
<polygon fill="none" stroke="#000000" points="353,-56.5 353,-75.5 435,-75.5 435,-56.5 353,-56.5"/>
<text text-anchor="middle" x="394" y="-63.5" font-family="Helvetica,sans-Serif" font-size="10.00" fill="#000000">../src/lsoda.tpp</text>
</a>
</g>
</g>
<!-- Node16&#45;&gt;Node20 -->
<g id="edge24" class="edge">
<title>Node16&#45;&gt;Node20</title>
<path fill="none" stroke="#191970" d="M297.9411,-112.3733C316.4786,-103.4241 344.3028,-89.9917 365.2413,-79.8835"/>
<polygon fill="#191970" stroke="#191970" points="366.8352,-83.0006 374.3191,-75.5011 363.7919,-76.6967 366.8352,-83.0006"/>
</g>
<!-- Node20&#45;&gt;Node9 -->
<g id="edge25" class="edge">
<title>Node20&#45;&gt;Node9</title>
<path fill="none" stroke="#191970" d="M360.6502,-56.3733C326.3368,-46.4684 272.9978,-31.0715 237.3039,-20.7681"/>
<polygon fill="#191970" stroke="#191970" points="237.8631,-17.2867 227.2847,-17.876 235.9217,-24.0121 237.8631,-17.2867"/>
</g>
<!-- Node20&#45;&gt;Node11 -->
<g id="edge26" class="edge">
<title>Node20&#45;&gt;Node11</title>
<path fill="none" stroke="#191970" d="M435.2583,-60.1655C513.6148,-49.0848 682.6254,-25.1843 755.4539,-14.8853"/>
<polygon fill="#191970" stroke="#191970" points="756.0676,-18.3334 765.4789,-13.4676 755.0873,-11.4024 756.0676,-18.3334"/>
</g>
<!-- Node24&#45;&gt;Node2 -->
<g id="edge34" class="edge">
<title>Node24&#45;&gt;Node2</title>
<path fill="none" stroke="#191970" d="M840.3755,-115.5652C793.601,-107.6577 713.6204,-93.158 646,-76 645.9013,-75.9749 645.8024,-75.9498 645.7034,-75.9245"/>
<polygon fill="#191970" stroke="#191970" points="646.8634,-72.6144 636.2912,-73.3059 644.9872,-79.3582 646.8634,-72.6144"/>
</g>
<!-- Node24&#45;&gt;Node11 -->
<g id="edge35" class="edge">
<title>Node24&#45;&gt;Node11</title>
<path fill="none" stroke="#191970" d="M872.1006,-112.158C861.7465,-99.2587 843.0184,-75.9311 827,-56 819.3918,-46.5334 810.8992,-35.9745 803.9712,-27.3629"/>
<polygon fill="#191970" stroke="#191970" points="806.651,-25.1103 797.6554,-19.513 801.1971,-29.4983 806.651,-25.1103"/>
</g>
<!-- Node25 -->
<g id="node26" class="node">
<title>Node25</title>
<polygon fill="none" stroke="#bfbfbf" points="874,-56.5 874,-75.5 924,-75.5 924,-56.5 874,-56.5"/>
<text text-anchor="middle" x="899" y="-63.5" font-family="Helvetica,sans-Serif" font-size="10.00" fill="#000000">iomanip</text>
</g>
<!-- Node24&#45;&gt;Node25 -->
<g id="edge36" class="edge">
<title>Node24&#45;&gt;Node25</title>
<path fill="none" stroke="#191970" d="M883.3095,-112.2455C885.8433,-104.7776 889.4177,-94.2427 892.515,-85.1137"/>
<polygon fill="#191970" stroke="#191970" points="895.8298,-86.237 895.7284,-75.6427 889.2009,-83.9879 895.8298,-86.237"/>
</g>
</g>
</svg>
