<?xml version="1.0" encoding="UTF-8" standalone="no"?>
<!DOCTYPE svg PUBLIC "-//W3C//DTD SVG 1.1//EN"
 "http://www.w3.org/Graphics/SVG/1.1/DTD/svg11.dtd">
<!-- Generated by graphviz version 2.40.1 (20161225.0304)
 -->
<!-- Title: src/solver.cpp Pages: 1 -->
<svg width="1016pt" height="308pt"
 viewBox="0.00 0.00 1015.50 308.00" xmlns="http://www.w3.org/2000/svg" xmlns:xlink="http://www.w3.org/1999/xlink">
<g id="graph0" class="graph" transform="scale(1 1) rotate(0) translate(4 304)">
<title>src/solver.cpp</title>
<!-- Node0 -->
<g id="node1" class="node">
<title>Node0</title>
<polygon fill="#bfbfbf" stroke="#000000" points="805,-280.5 805,-299.5 883,-299.5 883,-280.5 805,-280.5"/>
<text text-anchor="middle" x="844" y="-287.5" font-family="Helvetica,sans-Serif" font-size="10.00" fill="#000000">src/solver.cpp</text>
</g>
<!-- Node1 -->
<g id="node2" class="node">
<title>Node1</title>
<g id="a_node2"><a xlink:href="solver_8h.html" target="_top" xlink:title="solver.h">
<polygon fill="none" stroke="#000000" points="451.5,-224.5 451.5,-243.5 502.5,-243.5 502.5,-224.5 451.5,-224.5"/>
<text text-anchor="middle" x="477" y="-231.5" font-family="Helvetica,sans-Serif" font-size="10.00" fill="#000000">solver.h</text>
</a>
</g>
</g>
<!-- Node0&#45;&gt;Node1 -->
<g id="edge1" class="edge">
<title>Node0&#45;&gt;Node1</title>
<path fill="none" stroke="#191970" d="M804.7246,-284.007C732.9635,-273.0571 581.7058,-249.9769 512.6903,-239.4459"/>
<polygon fill="#191970" stroke="#191970" points="513.1473,-235.9752 502.7337,-237.9267 512.0914,-242.8951 513.1473,-235.9752"/>
</g>
<!-- Node5 -->
<g id="node6" class="node">
<title>Node5</title>
<polygon fill="none" stroke="#bfbfbf" points="745.5,-112.5 745.5,-131.5 786.5,-131.5 786.5,-112.5 745.5,-112.5"/>
<text text-anchor="middle" x="766" y="-119.5" font-family="Helvetica,sans-Serif" font-size="10.00" fill="#000000">string</text>
</g>
<!-- Node0&#45;&gt;Node5 -->
<g id="edge35" class="edge">
<title>Node0&#45;&gt;Node5</title>
<path fill="none" stroke="#191970" d="M839.5829,-280.4862C827.1462,-253.6994 791.6548,-177.2565 774.9277,-141.2289"/>
<polygon fill="#191970" stroke="#191970" points="777.9486,-139.4241 770.5629,-131.8279 771.5996,-142.3719 777.9486,-139.4241"/>
</g>
<!-- Node9 -->
<g id="node10" class="node">
<title>Node9</title>
<polygon fill="none" stroke="#bfbfbf" points="230,-.5 230,-19.5 284,-19.5 284,-.5 230,-.5"/>
<text text-anchor="middle" x="257" y="-7.5" font-family="Helvetica,sans-Serif" font-size="10.00" fill="#000000">iostream</text>
</g>
<!-- Node0&#45;&gt;Node9 -->
<g id="edge32" class="edge">
<title>Node0&#45;&gt;Node9</title>
<path fill="none" stroke="#191970" d="M804.9848,-288.9884C638.9957,-284.1777 0,-260.313 0,-178 0,-178 0,-178 0,-122 0,-74.5668 148.984,-34.4364 220.0842,-17.9856"/>
<polygon fill="#191970" stroke="#191970" points="221.0087,-21.3647 229.9822,-15.7322 219.4548,-14.5394 221.0087,-21.3647"/>
</g>
<!-- Node11 -->
<g id="node12" class="node">
<title>Node11</title>
<polygon fill="none" stroke="#bfbfbf" points="602.5,-.5 602.5,-19.5 651.5,-19.5 651.5,-.5 602.5,-.5"/>
<text text-anchor="middle" x="627" y="-7.5" font-family="Helvetica,sans-Serif" font-size="10.00" fill="#000000">cassert</text>
</g>
<!-- Node0&#45;&gt;Node11 -->
<g id="edge34" class="edge">
<title>Node0&#45;&gt;Node11</title>
<path fill="none" stroke="#191970" d="M856.5499,-280.4082C878.136,-262.7155 920,-222.6472 920,-178 920,-178 920,-178 920,-122 920,-67.388 740.1526,-29.6018 662.2652,-15.7982"/>
<polygon fill="#191970" stroke="#191970" points="662.4327,-12.2749 651.981,-14.0104 661.2338,-19.1715 662.4327,-12.2749"/>
</g>
<!-- Node12 -->
<g id="node13" class="node">
<title>Node12</title>
<polygon fill="none" stroke="#bfbfbf" points="746,-56.5 746,-75.5 802,-75.5 802,-56.5 746,-56.5"/>
<text text-anchor="middle" x="774" y="-63.5" font-family="Helvetica,sans-Serif" font-size="10.00" fill="#000000">algorithm</text>
</g>
<!-- Node0&#45;&gt;Node12 -->
<g id="edge36" class="edge">
<title>Node0&#45;&gt;Node12</title>
<path fill="none" stroke="#191970" d="M848.4078,-280.2485C860.5042,-251.9048 891.1827,-168.0039 858,-112 847.9168,-94.9822 829.0642,-83.847 811.7705,-76.8022"/>
<polygon fill="#191970" stroke="#191970" points="812.9814,-73.5183 802.3889,-73.2978 810.5319,-80.0758 812.9814,-73.5183"/>
</g>
<!-- Node17 -->
<g id="node18" class="node">
<title>Node17</title>
<polygon fill="none" stroke="#bfbfbf" points="554,-56.5 554,-75.5 598,-75.5 598,-56.5 554,-56.5"/>
<text text-anchor="middle" x="576" y="-63.5" font-family="Helvetica,sans-Serif" font-size="10.00" fill="#000000">cmath</text>
</g>
<!-- Node0&#45;&gt;Node17 -->
<g id="edge33" class="edge">
<title>Node0&#45;&gt;Node17</title>
<path fill="none" stroke="#191970" d="M844.6124,-280.082C845.8927,-249.7773 845.2952,-157.6915 795,-112 767.9739,-87.4477 662.5669,-74.1507 608.4523,-68.8174"/>
<polygon fill="#191970" stroke="#191970" points="608.6384,-65.3194 598.3517,-67.8559 607.975,-72.2879 608.6384,-65.3194"/>
</g>
<!-- Node23 -->
<g id="node24" class="node">
<title>Node23</title>
<polygon fill="none" stroke="#bfbfbf" points="948.5,-224.5 948.5,-243.5 1007.5,-243.5 1007.5,-224.5 948.5,-224.5"/>
<text text-anchor="middle" x="978" y="-231.5" font-family="Helvetica,sans-Serif" font-size="10.00" fill="#000000">functional</text>
</g>
<!-- Node0&#45;&gt;Node23 -->
<g id="edge37" class="edge">
<title>Node0&#45;&gt;Node23</title>
<path fill="none" stroke="#191970" d="M867.0354,-280.3733C888.7388,-271.3032 921.4618,-257.6279 945.755,-247.4755"/>
<polygon fill="#191970" stroke="#191970" points="947.3881,-250.5865 955.2652,-243.5011 944.6889,-244.1278 947.3881,-250.5865"/>
</g>
<!-- Node2 -->
<g id="node3" class="node">
<title>Node2</title>
<polygon fill="none" stroke="#bfbfbf" points="413,-56.5 413,-75.5 457,-75.5 457,-56.5 413,-56.5"/>
<text text-anchor="middle" x="435" y="-63.5" font-family="Helvetica,sans-Serif" font-size="10.00" fill="#000000">vector</text>
</g>
<!-- Node1&#45;&gt;Node2 -->
<g id="edge2" class="edge">
<title>Node1&#45;&gt;Node2</title>
<path fill="none" stroke="#191970" d="M451.4612,-227.6505C431.659,-221.2372 405.5437,-209.1706 393,-188 372.7623,-153.8439 400.6776,-108.5061 419.7713,-83.8406"/>
<polygon fill="#191970" stroke="#191970" points="422.7456,-85.728 426.3011,-75.7476 417.2978,-81.3324 422.7456,-85.728"/>
</g>
<!-- Node3 -->
<g id="node4" class="node">
<title>Node3</title>
<polygon fill="none" stroke="#bfbfbf" points="693.5,-112.5 693.5,-131.5 722.5,-131.5 722.5,-112.5 693.5,-112.5"/>
<text text-anchor="middle" x="708" y="-119.5" font-family="Helvetica,sans-Serif" font-size="10.00" fill="#000000">list</text>
</g>
<!-- Node1&#45;&gt;Node3 -->
<g id="edge3" class="edge">
<title>Node1&#45;&gt;Node3</title>
<path fill="none" stroke="#191970" d="M502.6354,-232.888C557.6066,-229.9103 683.9507,-219.6949 710,-188 720.4405,-175.2968 718.5534,-156.1089 714.8755,-141.6911"/>
<polygon fill="#191970" stroke="#191970" points="718.1257,-140.3462 711.8883,-131.782 711.4236,-142.3666 718.1257,-140.3462"/>
</g>
<!-- Node4 -->
<g id="node5" class="node">
<title>Node4</title>
<polygon fill="none" stroke="#bfbfbf" points="98.5,-168.5 98.5,-187.5 133.5,-187.5 133.5,-168.5 98.5,-168.5"/>
<text text-anchor="middle" x="116" y="-175.5" font-family="Helvetica,sans-Serif" font-size="10.00" fill="#000000">map</text>
</g>
<!-- Node1&#45;&gt;Node4 -->
<g id="edge4" class="edge">
<title>Node1&#45;&gt;Node4</title>
<path fill="none" stroke="#191970" d="M451.0756,-232.3592C395.9854,-228.4658 263.223,-216.9257 143.6004,-187.6364"/>
<polygon fill="#191970" stroke="#191970" points="144.0951,-184.1525 133.5449,-185.1239 142.3982,-190.9437 144.0951,-184.1525"/>
</g>
<!-- Node1&#45;&gt;Node5 -->
<g id="edge5" class="edge">
<title>Node1&#45;&gt;Node5</title>
<path fill="none" stroke="#191970" d="M502.5824,-232.0279C558.9689,-227.2561 691.8107,-213.5541 728,-188 743.9714,-176.7222 754.1707,-156.4515 759.9372,-141.3402"/>
<polygon fill="#191970" stroke="#191970" points="763.2493,-142.4715 763.2376,-131.8767 756.6397,-140.1664 763.2493,-142.4715"/>
</g>
<!-- Node6 -->
<g id="node7" class="node">
<title>Node6</title>
<g id="a_node7"><a xlink:href="environment__base_8h.html" target="_top" xlink:title="environment_base.h">
<polygon fill="none" stroke="#000000" points="242,-168.5 242,-187.5 346,-187.5 346,-168.5 242,-168.5"/>
<text text-anchor="middle" x="294" y="-175.5" font-family="Helvetica,sans-Serif" font-size="10.00" fill="#000000">environment_base.h</text>
</a>
</g>
</g>
<!-- Node1&#45;&gt;Node6 -->
<g id="edge6" class="edge">
<title>Node1&#45;&gt;Node6</title>
<path fill="none" stroke="#191970" d="M451.1687,-226.0953C420.9097,-216.8357 370.3995,-201.3791 334.8216,-190.4918"/>
<polygon fill="#191970" stroke="#191970" points="335.7984,-187.1306 325.212,-187.5512 333.7501,-193.8242 335.7984,-187.1306"/>
</g>
<!-- Node7 -->
<g id="node8" class="node">
<title>Node7</title>
<g id="a_node8"><a xlink:href="species_8h.html" target="_top" xlink:title="species.h">
<polygon fill="none" stroke="#000000" points="402.5,-168.5 402.5,-187.5 461.5,-187.5 461.5,-168.5 402.5,-168.5"/>
<text text-anchor="middle" x="432" y="-175.5" font-family="Helvetica,sans-Serif" font-size="10.00" fill="#000000">species.h</text>
</a>
</g>
</g>
<!-- Node1&#45;&gt;Node7 -->
<g id="edge7" class="edge">
<title>Node1&#45;&gt;Node7</title>
<path fill="none" stroke="#191970" d="M469.1616,-224.2455C462.838,-216.3761 453.7776,-205.101 446.1864,-195.6542"/>
<polygon fill="#191970" stroke="#191970" points="448.7408,-193.2454 439.7486,-187.6427 443.2842,-197.6302 448.7408,-193.2454"/>
</g>
<!-- Node13 -->
<g id="node14" class="node">
<title>Node13</title>
<g id="a_node14"><a xlink:href="ode__solver_8h.html" target="_top" xlink:title="ode_solver.h">
<polygon fill="none" stroke="#000000" points="152,-168.5 152,-187.5 224,-187.5 224,-168.5 152,-168.5"/>
<text text-anchor="middle" x="188" y="-175.5" font-family="Helvetica,sans-Serif" font-size="10.00" fill="#000000">ode_solver.h</text>
</a>
</g>
</g>
<!-- Node1&#45;&gt;Node13 -->
<g id="edge16" class="edge">
<title>Node1&#45;&gt;Node13</title>
<path fill="none" stroke="#191970" d="M451.302,-229.4375C408.4173,-221.7629 319.3218,-205.5608 234.1543,-188.1915"/>
<polygon fill="#191970" stroke="#191970" points="234.8267,-184.7567 224.3277,-186.1785 233.4219,-191.6142 234.8267,-184.7567"/>
</g>
<!-- Node21 -->
<g id="node22" class="node">
<title>Node21</title>
<g id="a_node22"><a xlink:href="solver_8tpp.html" target="_top" xlink:title="../src/solver.tpp">
<polygon fill="none" stroke="#000000" points="479.5,-168.5 479.5,-187.5 564.5,-187.5 564.5,-168.5 479.5,-168.5"/>
<text text-anchor="middle" x="522" y="-175.5" font-family="Helvetica,sans-Serif" font-size="10.00" fill="#000000">../src/solver.tpp</text>
</a>
</g>
</g>
<!-- Node1&#45;&gt;Node21 -->
<g id="edge30" class="edge">
<title>Node1&#45;&gt;Node21</title>
<path fill="none" stroke="#191970" d="M484.8384,-224.2455C491.162,-216.3761 500.2224,-205.101 507.8136,-195.6542"/>
<polygon fill="#191970" stroke="#191970" points="510.7158,-197.6302 514.2514,-187.6427 505.2592,-193.2454 510.7158,-197.6302"/>
</g>
<!-- Node22 -->
<g id="node23" class="node">
<title>Node22</title>
<g id="a_node23"><a xlink:href="size__integrals_8tpp.html" target="_top" xlink:title="../src/size_integrals.tpp">
<polygon fill="none" stroke="#000000" points="582.5,-168.5 582.5,-187.5 701.5,-187.5 701.5,-168.5 582.5,-168.5"/>
<text text-anchor="middle" x="642" y="-175.5" font-family="Helvetica,sans-Serif" font-size="10.00" fill="#000000">../src/size_integrals.tpp</text>
</a>
</g>
</g>
<!-- Node1&#45;&gt;Node22 -->
<g id="edge31" class="edge">
<title>Node1&#45;&gt;Node22</title>
<path fill="none" stroke="#191970" d="M502.7813,-225.25C530.016,-216.0067 573.2341,-201.3387 604.2948,-190.7969"/>
<polygon fill="#191970" stroke="#191970" points="605.5719,-194.0596 613.9165,-187.5314 603.3222,-187.431 605.5719,-194.0596"/>
</g>
<!-- Node7&#45;&gt;Node2 -->
<g id="edge8" class="edge">
<title>Node7&#45;&gt;Node2</title>
<path fill="none" stroke="#191970" d="M432.2558,-168.4509C432.7451,-150.184 433.8226,-109.9553 434.4724,-85.6976"/>
<polygon fill="#191970" stroke="#191970" points="437.9758,-85.6151 434.7449,-75.5249 430.9783,-85.4276 437.9758,-85.6151"/>
</g>
<!-- Node7&#45;&gt;Node3 -->
<g id="edge9" class="edge">
<title>Node7&#45;&gt;Node3</title>
<path fill="none" stroke="#191970" d="M461.8103,-169.8868C464.5714,-169.2165 467.3328,-168.5762 470,-168 563.416,-147.8189 589.8328,-157.279 682,-132 682.583,-131.8401 683.1711,-131.672 683.7623,-131.4968"/>
<polygon fill="#191970" stroke="#191970" points="684.9905,-134.7759 693.321,-128.2296 682.7264,-128.1521 684.9905,-134.7759"/>
</g>
<!-- Node7&#45;&gt;Node5 -->
<g id="edge10" class="edge">
<title>Node7&#45;&gt;Node5</title>
<path fill="none" stroke="#191970" d="M461.7918,-169.7979C464.5568,-169.1463 467.3241,-168.5346 470,-168 584.8289,-145.0582 616.418,-156.1449 731,-132 732.4686,-131.6905 733.966,-131.3524 735.4742,-130.9936"/>
<polygon fill="#191970" stroke="#191970" points="736.5978,-134.3178 745.3929,-128.4105 734.8336,-127.5438 736.5978,-134.3178"/>
</g>
<!-- Node8 -->
<g id="node9" class="node">
<title>Node8</title>
<g id="a_node9"><a xlink:href="cohort_8h.html" target="_top" xlink:title="cohort.h">
<polygon fill="none" stroke="#000000" points="475,-56.5 475,-75.5 527,-75.5 527,-56.5 475,-56.5"/>
<text text-anchor="middle" x="501" y="-63.5" font-family="Helvetica,sans-Serif" font-size="10.00" fill="#000000">cohort.h</text>
</a>
</g>
</g>
<!-- Node7&#45;&gt;Node8 -->
<g id="edge11" class="edge">
<title>Node7&#45;&gt;Node8</title>
<path fill="none" stroke="#191970" d="M437.8829,-168.4509C449.3913,-149.7707 475.0488,-108.1238 489.8638,-84.0761"/>
<polygon fill="#191970" stroke="#191970" points="492.8666,-85.8747 495.132,-75.5249 486.9068,-82.203 492.8666,-85.8747"/>
</g>
<!-- Node10 -->
<g id="node11" class="node">
<title>Node10</title>
<g id="a_node11"><a xlink:href="species_8tpp.html" target="_top" xlink:title="../src/species.tpp">
<polygon fill="none" stroke="#000000" points="581,-112.5 581,-131.5 673,-131.5 673,-112.5 581,-112.5"/>
<text text-anchor="middle" x="627" y="-119.5" font-family="Helvetica,sans-Serif" font-size="10.00" fill="#000000">../src/species.tpp</text>
</a>
</g>
</g>
<!-- Node7&#45;&gt;Node10 -->
<g id="edge13" class="edge">
<title>Node7&#45;&gt;Node10</title>
<path fill="none" stroke="#191970" d="M461.6163,-169.4948C494.1439,-160.1535 546.6829,-145.0654 583.8031,-134.4053"/>
<polygon fill="#191970" stroke="#191970" points="585.1892,-137.6487 593.8346,-131.5244 583.257,-130.9207 585.1892,-137.6487"/>
</g>
<!-- Node8&#45;&gt;Node9 -->
<g id="edge12" class="edge">
<title>Node8&#45;&gt;Node9</title>
<path fill="none" stroke="#191970" d="M474.6737,-58.2901C471.754,-57.4911 468.8184,-56.7121 466,-56 406.2271,-40.8984 336.1307,-26.0472 294.2079,-17.4668"/>
<polygon fill="#191970" stroke="#191970" points="294.6774,-13.9906 284.18,-15.4241 293.2801,-20.8498 294.6774,-13.9906"/>
</g>
<!-- Node10&#45;&gt;Node11 -->
<g id="edge14" class="edge">
<title>Node10&#45;&gt;Node11</title>
<path fill="none" stroke="#191970" d="M627,-112.4509C627,-94.184 627,-53.9553 627,-29.6976"/>
<polygon fill="#191970" stroke="#191970" points="630.5001,-29.5249 627,-19.5249 623.5001,-29.5249 630.5001,-29.5249"/>
</g>
<!-- Node10&#45;&gt;Node12 -->
<g id="edge15" class="edge">
<title>Node10&#45;&gt;Node12</title>
<path fill="none" stroke="#191970" d="M652.2702,-112.3733C676.3966,-103.1822 712.9362,-89.2624 739.6877,-79.0713"/>
<polygon fill="#191970" stroke="#191970" points="740.9607,-82.3318 749.0596,-75.5011 738.4687,-75.7904 740.9607,-82.3318"/>
</g>
<!-- Node13&#45;&gt;Node2 -->
<g id="edge27" class="edge">
<title>Node13&#45;&gt;Node2</title>
<path fill="none" stroke="#191970" d="M216.7638,-168.444C241.9688,-159.7877 279.4075,-146.2412 311,-132 346.0914,-116.1816 385.0479,-94.7802 409.7642,-80.6932"/>
<polygon fill="#191970" stroke="#191970" points="411.5705,-83.6921 418.502,-75.6793 408.0865,-77.6206 411.5705,-83.6921"/>
</g>
<!-- Node13&#45;&gt;Node5 -->
<g id="edge26" class="edge">
<title>Node13&#45;&gt;Node5</title>
<path fill="none" stroke="#191970" d="M224.2647,-169.4626C227.2105,-168.9153 230.1493,-168.4175 233,-168 452.5688,-135.8441 512.4874,-170.6871 731,-132 732.4779,-131.7383 733.9828,-131.4392 735.497,-131.1117"/>
<polygon fill="#191970" stroke="#191970" points="736.5785,-134.4494 745.4369,-128.6374 734.8875,-127.6567 736.5785,-134.4494"/>
</g>
<!-- Node13&#45;&gt;Node9 -->
<g id="edge28" class="edge">
<title>Node13&#45;&gt;Node9</title>
<path fill="none" stroke="#191970" d="M183.7328,-168.3301C174.8357,-146.5839 156.8163,-92.848 178,-56 187.1708,-40.0479 204.238,-29.1099 220.1684,-21.9163"/>
<polygon fill="#191970" stroke="#191970" points="221.9555,-24.9649 229.8597,-17.9098 219.2811,-18.4959 221.9555,-24.9649"/>
</g>
<!-- Node14 -->
<g id="node15" class="node">
<title>Node14</title>
<g id="a_node15"><a xlink:href="rkck45_8h.html" target="_top" xlink:title="rkck45.h">
<polygon fill="none" stroke="#000000" points="28,-112.5 28,-131.5 82,-131.5 82,-112.5 28,-112.5"/>
<text text-anchor="middle" x="55" y="-119.5" font-family="Helvetica,sans-Serif" font-size="10.00" fill="#000000">rkck45.h</text>
</a>
</g>
</g>
<!-- Node13&#45;&gt;Node14 -->
<g id="edge17" class="edge">
<title>Node13&#45;&gt;Node14</title>
<path fill="none" stroke="#191970" d="M165.1365,-168.3733C143.595,-159.3032 111.1162,-145.6279 87.0044,-135.4755"/>
<polygon fill="#191970" stroke="#191970" points="88.1397,-132.156 77.5652,-131.5011 85.4233,-138.6075 88.1397,-132.156"/>
</g>
<!-- Node15 -->
<g id="node16" class="node">
<title>Node15</title>
<g id="a_node16"><a xlink:href="lsoda_8h.html" target="_top" xlink:title="lsoda.h">
<polygon fill="none" stroke="#000000" points="254,-112.5 254,-131.5 302,-131.5 302,-112.5 254,-112.5"/>
<text text-anchor="middle" x="278" y="-119.5" font-family="Helvetica,sans-Serif" font-size="10.00" fill="#000000">lsoda.h</text>
</a>
</g>
</g>
<!-- Node13&#45;&gt;Node15 -->
<g id="edge18" class="edge">
<title>Node13&#45;&gt;Node15</title>
<path fill="none" stroke="#191970" d="M203.6768,-168.2455C217.4856,-159.6534 237.8193,-147.0014 253.7292,-137.1018"/>
<polygon fill="#191970" stroke="#191970" points="255.8613,-139.8974 262.5028,-131.6427 252.1632,-133.954 255.8613,-139.8974"/>
</g>
<!-- Node20 -->
<g id="node21" class="node">
<title>Node20</title>
<polygon fill="none" stroke="#bfbfbf" points="100.5,-112.5 100.5,-131.5 159.5,-131.5 159.5,-112.5 100.5,-112.5"/>
<text text-anchor="middle" x="130" y="-119.5" font-family="Helvetica,sans-Serif" font-size="10.00" fill="#000000">exception</text>
</g>
<!-- Node13&#45;&gt;Node20 -->
<g id="edge29" class="edge">
<title>Node13&#45;&gt;Node20</title>
<path fill="none" stroke="#191970" d="M177.8972,-168.2455C169.4972,-160.1352 157.3506,-148.4075 147.3916,-138.7919"/>
<polygon fill="#191970" stroke="#191970" points="149.6122,-136.0707 139.9871,-131.6427 144.75,-141.1066 149.6122,-136.0707"/>
</g>
<!-- Node15&#45;&gt;Node2 -->
<g id="edge22" class="edge">
<title>Node15&#45;&gt;Node2</title>
<path fill="none" stroke="#191970" d="M302.1872,-113.3727C329.3122,-103.6976 373.4072,-87.9694 403.2777,-77.315"/>
<polygon fill="#191970" stroke="#191970" points="404.5744,-80.5685 412.8173,-73.9123 402.2227,-73.9753 404.5744,-80.5685"/>
</g>
<!-- Node16 -->
<g id="node17" class="node">
<title>Node16</title>
<polygon fill="none" stroke="#bfbfbf" points="187,-56.5 187,-75.5 225,-75.5 225,-56.5 187,-56.5"/>
<text text-anchor="middle" x="206" y="-63.5" font-family="Helvetica,sans-Serif" font-size="10.00" fill="#000000">array</text>
</g>
<!-- Node15&#45;&gt;Node16 -->
<g id="edge19" class="edge">
<title>Node15&#45;&gt;Node16</title>
<path fill="none" stroke="#191970" d="M265.4586,-112.2455C254.7213,-103.8943 239.0527,-91.7076 226.4953,-81.9408"/>
<polygon fill="#191970" stroke="#191970" points="228.4401,-79.0194 218.3977,-75.6427 224.1425,-84.5449 228.4401,-79.0194"/>
</g>
<!-- Node15&#45;&gt;Node17 -->
<g id="edge20" class="edge">
<title>Node15&#45;&gt;Node17</title>
<path fill="none" stroke="#191970" d="M302.2955,-118.2383C348.1629,-111.0104 450.5758,-94.2709 536,-76 538.5112,-75.4629 541.1041,-74.8799 543.7065,-74.2745"/>
<polygon fill="#191970" stroke="#191970" points="544.7381,-77.6261 553.6379,-71.8778 543.0959,-70.8215 544.7381,-77.6261"/>
</g>
<!-- Node18 -->
<g id="node19" class="node">
<title>Node18</title>
<polygon fill="none" stroke="#bfbfbf" points="243,-56.5 243,-75.5 295,-75.5 295,-56.5 243,-56.5"/>
<text text-anchor="middle" x="269" y="-63.5" font-family="Helvetica,sans-Serif" font-size="10.00" fill="#000000">memory</text>
</g>
<!-- Node15&#45;&gt;Node18 -->
<g id="edge21" class="edge">
<title>Node15&#45;&gt;Node18</title>
<path fill="none" stroke="#191970" d="M276.4323,-112.2455C275.2579,-104.9382 273.6116,-94.6944 272.1668,-85.7046"/>
<polygon fill="#191970" stroke="#191970" points="275.5922,-84.9606 270.5497,-75.6427 268.6809,-86.0714 275.5922,-84.9606"/>
</g>
<!-- Node19 -->
<g id="node20" class="node">
<title>Node19</title>
<g id="a_node20"><a xlink:href="lsoda_8tpp.html" target="_top" xlink:title="../src/lsoda.tpp">
<polygon fill="none" stroke="#000000" points="313,-56.5 313,-75.5 395,-75.5 395,-56.5 313,-56.5"/>
<text text-anchor="middle" x="354" y="-63.5" font-family="Helvetica,sans-Serif" font-size="10.00" fill="#000000">../src/lsoda.tpp</text>
</a>
</g>
</g>
<!-- Node15&#45;&gt;Node19 -->
<g id="edge23" class="edge">
<title>Node15&#45;&gt;Node19</title>
<path fill="none" stroke="#191970" d="M291.2382,-112.2455C302.681,-103.814 319.4296,-91.4729 332.7475,-81.6598"/>
<polygon fill="#191970" stroke="#191970" points="334.9391,-84.3924 340.9135,-75.6427 330.7867,-78.757 334.9391,-84.3924"/>
</g>
<!-- Node19&#45;&gt;Node9 -->
<g id="edge24" class="edge">
<title>Node19&#45;&gt;Node9</title>
<path fill="none" stroke="#191970" d="M337.1039,-56.2455C322.082,-47.5731 299.8957,-34.7645 282.679,-24.825"/>
<polygon fill="#191970" stroke="#191970" points="284.1128,-21.6114 273.7025,-19.6427 280.6129,-27.6737 284.1128,-21.6114"/>
</g>
<!-- Node19&#45;&gt;Node11 -->
<g id="edge25" class="edge">
<title>Node19&#45;&gt;Node11</title>
<path fill="none" stroke="#191970" d="M395.1664,-57.5556C448.845,-46.5446 541.81,-27.4749 592.1665,-17.1453"/>
<polygon fill="#191970" stroke="#191970" points="593.1431,-20.518 602.2358,-15.0798 591.7365,-13.6607 593.1431,-20.518"/>
</g>
</g>
</svg>
