<?xml version="1.0" encoding="UTF-8" standalone="no"?>
<!DOCTYPE svg PUBLIC "-//W3C//DTD SVG 1.1//EN"
 "http://www.w3.org/Graphics/SVG/1.1/DTD/svg11.dtd">
<!-- Generated by graphviz version 2.40.1 (20161225.0304)
 -->
<!-- Title: include/solver.h Pages: 1 -->
<svg width="752pt" height="252pt"
 viewBox="0.00 0.00 752.00 252.00" xmlns="http://www.w3.org/2000/svg" xmlns:xlink="http://www.w3.org/1999/xlink">
<g id="graph0" class="graph" transform="scale(1 1) rotate(0) translate(4 248)">
<title>include/solver.h</title>
<!-- Node0 -->
<g id="node1" class="node">
<title>Node0</title>
<polygon fill="#bfbfbf" stroke="#000000" points="281,-224.5 281,-243.5 366,-243.5 366,-224.5 281,-224.5"/>
<text text-anchor="middle" x="323.5" y="-231.5" font-family="Helvetica,sans-Serif" font-size="10.00" fill="#000000">include/solver.h</text>
</g>
<!-- Node1 -->
<g id="node2" class="node">
<title>Node1</title>
<polygon fill="none" stroke="#bfbfbf" points="285.5,-56.5 285.5,-75.5 329.5,-75.5 329.5,-56.5 285.5,-56.5"/>
<text text-anchor="middle" x="307.5" y="-63.5" font-family="Helvetica,sans-Serif" font-size="10.00" fill="#000000">vector</text>
</g>
<!-- Node0&#45;&gt;Node1 -->
<g id="edge1" class="edge">
<title>Node0&#45;&gt;Node1</title>
<path fill="none" stroke="#191970" d="M302.3784,-224.4622C288.2497,-216.8191 270.7828,-204.6199 262.5,-188 247.4337,-157.7685 249.7455,-143.2771 262.5,-112 267.2156,-100.4363 276.3927,-90.2008 285.2362,-82.3383"/>
<polygon fill="#191970" stroke="#191970" points="287.6496,-84.8842 293.1263,-75.8147 283.1891,-79.4894 287.6496,-84.8842"/>
</g>
<!-- Node2 -->
<g id="node3" class="node">
<title>Node2</title>
<polygon fill="none" stroke="#bfbfbf" points="0,-112.5 0,-131.5 29,-131.5 29,-112.5 0,-112.5"/>
<text text-anchor="middle" x="14.5" y="-119.5" font-family="Helvetica,sans-Serif" font-size="10.00" fill="#000000">list</text>
</g>
<!-- Node0&#45;&gt;Node2 -->
<g id="edge2" class="edge">
<title>Node0&#45;&gt;Node2</title>
<path fill="none" stroke="#191970" d="M280.8115,-231.7686C233.0743,-227.8735 154.4649,-217.2008 93.5,-188 68.5192,-176.0347 44.8306,-154.367 30.0255,-139.1301"/>
<polygon fill="#191970" stroke="#191970" points="32.5446,-136.7 23.1333,-131.8339 27.4559,-141.5069 32.5446,-136.7"/>
</g>
<!-- Node3 -->
<g id="node4" class="node">
<title>Node3</title>
<polygon fill="none" stroke="#bfbfbf" points="180,-168.5 180,-187.5 215,-187.5 215,-168.5 180,-168.5"/>
<text text-anchor="middle" x="197.5" y="-175.5" font-family="Helvetica,sans-Serif" font-size="10.00" fill="#000000">map</text>
</g>
<!-- Node0&#45;&gt;Node3 -->
<g id="edge3" class="edge">
<title>Node0&#45;&gt;Node3</title>
<path fill="none" stroke="#191970" d="M301.8398,-224.3733C280.4146,-214.851 247.5688,-200.2528 224.4646,-189.9843"/>
<polygon fill="#191970" stroke="#191970" points="225.7806,-186.7391 215.221,-185.876 222.9376,-193.1358 225.7806,-186.7391"/>
</g>
<!-- Node4 -->
<g id="node5" class="node">
<title>Node4</title>
<polygon fill="none" stroke="#bfbfbf" points="272,-112.5 272,-131.5 313,-131.5 313,-112.5 272,-112.5"/>
<text text-anchor="middle" x="292.5" y="-119.5" font-family="Helvetica,sans-Serif" font-size="10.00" fill="#000000">string</text>
</g>
<!-- Node0&#45;&gt;Node4 -->
<g id="edge4" class="edge">
<title>Node0&#45;&gt;Node4</title>
<path fill="none" stroke="#191970" d="M344.2482,-224.2984C366.9695,-212.2643 398.4449,-190.5633 384.5,-168 377.4038,-156.5181 346.6073,-142.5561 322.5757,-133.0469"/>
<polygon fill="#191970" stroke="#191970" points="323.697,-129.728 313.1076,-129.3882 321.1738,-136.2575 323.697,-129.728"/>
</g>
<!-- Node5 -->
<g id="node6" class="node">
<title>Node5</title>
<g id="a_node6"><a xlink:href="environment__base_8h.html" target="_top" xlink:title="environment_base.h">
<polygon fill="none" stroke="#000000" points="271.5,-168.5 271.5,-187.5 375.5,-187.5 375.5,-168.5 271.5,-168.5"/>
<text text-anchor="middle" x="323.5" y="-175.5" font-family="Helvetica,sans-Serif" font-size="10.00" fill="#000000">environment_base.h</text>
</a>
</g>
</g>
<!-- Node0&#45;&gt;Node5 -->
<g id="edge5" class="edge">
<title>Node0&#45;&gt;Node5</title>
<path fill="none" stroke="#191970" d="M323.5,-224.2455C323.5,-216.9382 323.5,-206.6944 323.5,-197.7046"/>
<polygon fill="#191970" stroke="#191970" points="327.0001,-197.6426 323.5,-187.6427 320.0001,-197.6427 327.0001,-197.6426"/>
</g>
<!-- Node6 -->
<g id="node7" class="node">
<title>Node6</title>
<g id="a_node7"><a xlink:href="species_8h.html" target="_top" xlink:title="species.h">
<polygon fill="none" stroke="#000000" points="103,-168.5 103,-187.5 162,-187.5 162,-168.5 103,-168.5"/>
<text text-anchor="middle" x="132.5" y="-175.5" font-family="Helvetica,sans-Serif" font-size="10.00" fill="#000000">species.h</text>
</a>
</g>
</g>
<!-- Node0&#45;&gt;Node6 -->
<g id="edge6" class="edge">
<title>Node0&#45;&gt;Node6</title>
<path fill="none" stroke="#191970" d="M290.6659,-224.3733C257.7569,-214.7245 207.0726,-199.8642 171.9878,-189.5776"/>
<polygon fill="#191970" stroke="#191970" points="172.6668,-186.1294 162.086,-186.6744 170.6973,-192.8466 172.6668,-186.1294"/>
</g>
<!-- Node12 -->
<g id="node13" class="node">
<title>Node12</title>
<g id="a_node13"><a xlink:href="ode__solver_8h.html" target="_top" xlink:title="ode_solver.h">
<polygon fill="none" stroke="#000000" points="431.5,-168.5 431.5,-187.5 503.5,-187.5 503.5,-168.5 431.5,-168.5"/>
<text text-anchor="middle" x="467.5" y="-175.5" font-family="Helvetica,sans-Serif" font-size="10.00" fill="#000000">ode_solver.h</text>
</a>
</g>
</g>
<!-- Node0&#45;&gt;Node12 -->
<g id="edge15" class="edge">
<title>Node0&#45;&gt;Node12</title>
<path fill="none" stroke="#191970" d="M348.2545,-224.3733C371.7849,-215.2226 407.3687,-201.3844 433.5426,-191.2057"/>
<polygon fill="#191970" stroke="#191970" points="435.0171,-194.3877 443.0685,-187.5011 432.4799,-187.8636 435.0171,-194.3877"/>
</g>
<!-- Node20 -->
<g id="node21" class="node">
<title>Node20</title>
<g id="a_node21"><a xlink:href="solver_8tpp.html" target="_top" xlink:title="../src/solver.tpp">
<polygon fill="none" stroke="#000000" points="522,-168.5 522,-187.5 607,-187.5 607,-168.5 522,-168.5"/>
<text text-anchor="middle" x="564.5" y="-175.5" font-family="Helvetica,sans-Serif" font-size="10.00" fill="#000000">../src/solver.tpp</text>
</a>
</g>
</g>
<!-- Node0&#45;&gt;Node20 -->
<g id="edge29" class="edge">
<title>Node0&#45;&gt;Node20</title>
<path fill="none" stroke="#191970" d="M364.6555,-224.4369C405.8142,-214.8731 469.205,-200.1432 513.5242,-189.845"/>
<polygon fill="#191970" stroke="#191970" points="514.5659,-193.1963 523.5142,-187.5237 512.9815,-186.3779 514.5659,-193.1963"/>
</g>
<!-- Node21 -->
<g id="node22" class="node">
<title>Node21</title>
<g id="a_node22"><a xlink:href="size__integrals_8tpp.html" target="_top" xlink:title="../src/size_integrals.tpp">
<polygon fill="none" stroke="#000000" points="625,-168.5 625,-187.5 744,-187.5 744,-168.5 625,-168.5"/>
<text text-anchor="middle" x="684.5" y="-175.5" font-family="Helvetica,sans-Serif" font-size="10.00" fill="#000000">../src/size_integrals.tpp</text>
</a>
</g>
</g>
<!-- Node0&#45;&gt;Node21 -->
<g id="edge30" class="edge">
<title>Node0&#45;&gt;Node21</title>
<path fill="none" stroke="#191970" d="M366.3291,-227.3562C427.6911,-217.8374 541.3152,-200.2115 614.8619,-188.8026"/>
<polygon fill="#191970" stroke="#191970" points="615.6188,-192.2271 624.9641,-187.2355 614.5457,-185.3099 615.6188,-192.2271"/>
</g>
<!-- Node6&#45;&gt;Node1 -->
<g id="edge7" class="edge">
<title>Node6&#45;&gt;Node1</title>
<path fill="none" stroke="#191970" d="M146.128,-168.317C164.7306,-155.1945 199.2252,-131.1988 229.5,-112 246.6518,-101.1232 266.3561,-89.5098 281.6689,-80.673"/>
<polygon fill="#191970" stroke="#191970" points="283.6437,-83.5752 290.5738,-75.5611 280.1586,-77.5044 283.6437,-83.5752"/>
</g>
<!-- Node6&#45;&gt;Node2 -->
<g id="edge8" class="edge">
<title>Node6&#45;&gt;Node2</title>
<path fill="none" stroke="#191970" d="M112.2151,-168.3733C91.7579,-158.6648 60.1829,-143.68 38.4941,-133.387"/>
<polygon fill="#191970" stroke="#191970" points="39.835,-130.1493 29.3001,-129.0238 36.8338,-136.4733 39.835,-130.1493"/>
</g>
<!-- Node6&#45;&gt;Node4 -->
<g id="edge9" class="edge">
<title>Node6&#45;&gt;Node4</title>
<path fill="none" stroke="#191970" d="M160.005,-168.3733C188.4582,-158.4146 232.7736,-142.9043 262.2118,-132.6009"/>
<polygon fill="#191970" stroke="#191970" points="263.6714,-135.7983 271.9537,-129.1912 261.3589,-129.1913 263.6714,-135.7983"/>
</g>
<!-- Node7 -->
<g id="node8" class="node">
<title>Node7</title>
<g id="a_node8"><a xlink:href="cohort_8h.html" target="_top" xlink:title="cohort.h">
<polygon fill="none" stroke="#000000" points="185.5,-56.5 185.5,-75.5 237.5,-75.5 237.5,-56.5 185.5,-56.5"/>
<text text-anchor="middle" x="211.5" y="-63.5" font-family="Helvetica,sans-Serif" font-size="10.00" fill="#000000">cohort.h</text>
</a>
</g>
</g>
<!-- Node6&#45;&gt;Node7 -->
<g id="edge10" class="edge">
<title>Node6&#45;&gt;Node7</title>
<path fill="none" stroke="#191970" d="M139.2355,-168.4509C152.4701,-149.688 182.048,-107.7548 198.9743,-83.758"/>
<polygon fill="#191970" stroke="#191970" points="201.8776,-85.714 204.7816,-75.5249 196.1574,-81.6792 201.8776,-85.714"/>
</g>
<!-- Node9 -->
<g id="node10" class="node">
<title>Node9</title>
<g id="a_node10"><a xlink:href="species_8tpp.html" target="_top" xlink:title="../src/species.tpp">
<polygon fill="none" stroke="#000000" points="47.5,-112.5 47.5,-131.5 139.5,-131.5 139.5,-112.5 47.5,-112.5"/>
<text text-anchor="middle" x="93.5" y="-119.5" font-family="Helvetica,sans-Serif" font-size="10.00" fill="#000000">../src/species.tpp</text>
</a>
</g>
</g>
<!-- Node6&#45;&gt;Node9 -->
<g id="edge12" class="edge">
<title>Node6&#45;&gt;Node9</title>
<path fill="none" stroke="#191970" d="M125.7067,-168.2455C120.2822,-160.4564 112.5339,-149.3308 105.9967,-139.9439"/>
<polygon fill="#191970" stroke="#191970" points="108.8025,-137.8485 100.2154,-131.6427 103.0583,-141.849 108.8025,-137.8485"/>
</g>
<!-- Node8 -->
<g id="node9" class="node">
<title>Node8</title>
<polygon fill="none" stroke="#bfbfbf" points="345.5,-.5 345.5,-19.5 399.5,-19.5 399.5,-.5 345.5,-.5"/>
<text text-anchor="middle" x="372.5" y="-7.5" font-family="Helvetica,sans-Serif" font-size="10.00" fill="#000000">iostream</text>
</g>
<!-- Node7&#45;&gt;Node8 -->
<g id="edge11" class="edge">
<title>Node7&#45;&gt;Node8</title>
<path fill="none" stroke="#191970" d="M237.7258,-56.878C264.3839,-47.6056 305.9058,-33.1632 335.8183,-22.7589"/>
<polygon fill="#191970" stroke="#191970" points="337.1841,-25.9896 345.4792,-19.3985 334.8844,-19.3781 337.1841,-25.9896"/>
</g>
<!-- Node10 -->
<g id="node11" class="node">
<title>Node10</title>
<polygon fill="none" stroke="#bfbfbf" points="206,-.5 206,-19.5 255,-19.5 255,-.5 206,-.5"/>
<text text-anchor="middle" x="230.5" y="-7.5" font-family="Helvetica,sans-Serif" font-size="10.00" fill="#000000">cassert</text>
</g>
<!-- Node9&#45;&gt;Node10 -->
<g id="edge13" class="edge">
<title>Node9&#45;&gt;Node10</title>
<path fill="none" stroke="#191970" d="M105.1805,-112.4509C128.7383,-93.1921 182.1563,-49.5218 211.0589,-25.8935"/>
<polygon fill="#191970" stroke="#191970" points="213.3222,-28.564 218.849,-19.5249 208.8916,-23.1445 213.3222,-28.564"/>
</g>
<!-- Node11 -->
<g id="node12" class="node">
<title>Node11</title>
<polygon fill="none" stroke="#bfbfbf" points="65.5,-56.5 65.5,-75.5 121.5,-75.5 121.5,-56.5 65.5,-56.5"/>
<text text-anchor="middle" x="93.5" y="-63.5" font-family="Helvetica,sans-Serif" font-size="10.00" fill="#000000">algorithm</text>
</g>
<!-- Node9&#45;&gt;Node11 -->
<g id="edge14" class="edge">
<title>Node9&#45;&gt;Node11</title>
<path fill="none" stroke="#191970" d="M93.5,-112.2455C93.5,-104.9382 93.5,-94.6944 93.5,-85.7046"/>
<polygon fill="#191970" stroke="#191970" points="97.0001,-85.6426 93.5,-75.6427 90.0001,-85.6427 97.0001,-85.6426"/>
</g>
<!-- Node12&#45;&gt;Node1 -->
<g id="edge26" class="edge">
<title>Node12&#45;&gt;Node1</title>
<path fill="none" stroke="#191970" d="M437.5753,-168.3512C416.2289,-160.5864 387.5228,-148.2859 365.5,-132 347.2178,-118.4803 330.5615,-98.328 319.8362,-83.8509"/>
<polygon fill="#191970" stroke="#191970" points="322.6418,-81.7574 313.9631,-75.6803 316.9579,-85.8431 322.6418,-81.7574"/>
</g>
<!-- Node12&#45;&gt;Node4 -->
<g id="edge25" class="edge">
<title>Node12&#45;&gt;Node4</title>
<path fill="none" stroke="#191970" d="M437.4164,-168.3733C405.4066,-158.1301 355.0422,-142.0135 322.9088,-131.7308"/>
<polygon fill="#191970" stroke="#191970" points="323.7538,-128.3264 313.1628,-128.6121 321.6203,-134.9934 323.7538,-128.3264"/>
</g>
<!-- Node12&#45;&gt;Node8 -->
<g id="edge27" class="edge">
<title>Node12&#45;&gt;Node8</title>
<path fill="none" stroke="#191970" d="M450.1267,-168.4787C436.914,-160.3965 419.2332,-147.6331 408.5,-132 386.7237,-100.2825 377.9138,-55.2324 374.5074,-29.6861"/>
<polygon fill="#191970" stroke="#191970" points="377.9803,-29.2502 373.3256,-19.7326 371.0291,-30.0755 377.9803,-29.2502"/>
</g>
<!-- Node13 -->
<g id="node14" class="node">
<title>Node13</title>
<g id="a_node14"><a xlink:href="rkck45_8h.html" target="_top" xlink:title="rkck45.h">
<polygon fill="none" stroke="#000000" points="417.5,-112.5 417.5,-131.5 471.5,-131.5 471.5,-112.5 417.5,-112.5"/>
<text text-anchor="middle" x="444.5" y="-119.5" font-family="Helvetica,sans-Serif" font-size="10.00" fill="#000000">rkck45.h</text>
</a>
</g>
</g>
<!-- Node12&#45;&gt;Node13 -->
<g id="edge16" class="edge">
<title>Node12&#45;&gt;Node13</title>
<path fill="none" stroke="#191970" d="M463.4937,-168.2455C460.4265,-160.7776 456.0997,-150.2427 452.3503,-141.1137"/>
<polygon fill="#191970" stroke="#191970" points="455.4972,-139.5631 448.4604,-131.6427 449.0221,-142.2226 455.4972,-139.5631"/>
</g>
<!-- Node14 -->
<g id="node15" class="node">
<title>Node14</title>
<g id="a_node15"><a xlink:href="lsoda_8h.html" target="_top" xlink:title="lsoda.h">
<polygon fill="none" stroke="#000000" points="489.5,-112.5 489.5,-131.5 537.5,-131.5 537.5,-112.5 489.5,-112.5"/>
<text text-anchor="middle" x="513.5" y="-119.5" font-family="Helvetica,sans-Serif" font-size="10.00" fill="#000000">lsoda.h</text>
</a>
</g>
</g>
<!-- Node12&#45;&gt;Node14 -->
<g id="edge17" class="edge">
<title>Node12&#45;&gt;Node14</title>
<path fill="none" stroke="#191970" d="M475.5126,-168.2455C481.9768,-160.3761 491.2385,-149.101 498.9983,-139.6542"/>
<polygon fill="#191970" stroke="#191970" points="501.9364,-141.5916 505.5792,-131.6427 496.5273,-137.1484 501.9364,-141.5916"/>
</g>
<!-- Node19 -->
<g id="node20" class="node">
<title>Node19</title>
<polygon fill="none" stroke="#bfbfbf" points="556,-112.5 556,-131.5 615,-131.5 615,-112.5 556,-112.5"/>
<text text-anchor="middle" x="585.5" y="-119.5" font-family="Helvetica,sans-Serif" font-size="10.00" fill="#000000">exception</text>
</g>
<!-- Node12&#45;&gt;Node19 -->
<g id="edge28" class="edge">
<title>Node12&#45;&gt;Node19</title>
<path fill="none" stroke="#191970" d="M487.7849,-168.3733C506.6421,-159.4241 534.946,-145.9917 556.2455,-135.8835"/>
<polygon fill="#191970" stroke="#191970" points="557.9461,-138.9506 565.4798,-131.5011 554.9449,-132.6266 557.9461,-138.9506"/>
</g>
<!-- Node14&#45;&gt;Node1 -->
<g id="edge21" class="edge">
<title>Node14&#45;&gt;Node1</title>
<path fill="none" stroke="#191970" d="M489.3776,-114.5858C486.3924,-113.6991 483.3791,-112.8187 480.5,-112 431.6014,-98.0946 374.5585,-83.1782 339.7442,-74.2203"/>
<polygon fill="#191970" stroke="#191970" points="340.2433,-70.7351 329.6871,-71.6393 338.5031,-77.5153 340.2433,-70.7351"/>
</g>
<!-- Node15 -->
<g id="node16" class="node">
<title>Node15</title>
<polygon fill="none" stroke="#bfbfbf" points="632.5,-56.5 632.5,-75.5 670.5,-75.5 670.5,-56.5 632.5,-56.5"/>
<text text-anchor="middle" x="651.5" y="-63.5" font-family="Helvetica,sans-Serif" font-size="10.00" fill="#000000">array</text>
</g>
<!-- Node14&#45;&gt;Node15 -->
<g id="edge18" class="edge">
<title>Node14&#45;&gt;Node15</title>
<path fill="none" stroke="#191970" d="M537.223,-112.3733C560.8982,-102.7659 597.3062,-87.9917 622.6425,-77.7103"/>
<polygon fill="#191970" stroke="#191970" points="624.1412,-80.8794 632.0913,-73.876 621.5091,-74.3931 624.1412,-80.8794"/>
</g>
<!-- Node16 -->
<g id="node17" class="node">
<title>Node16</title>
<polygon fill="none" stroke="#bfbfbf" points="500.5,-56.5 500.5,-75.5 544.5,-75.5 544.5,-56.5 500.5,-56.5"/>
<text text-anchor="middle" x="522.5" y="-63.5" font-family="Helvetica,sans-Serif" font-size="10.00" fill="#000000">cmath</text>
</g>
<!-- Node14&#45;&gt;Node16 -->
<g id="edge19" class="edge">
<title>Node14&#45;&gt;Node16</title>
<path fill="none" stroke="#191970" d="M515.0677,-112.2455C516.2421,-104.9382 517.8884,-94.6944 519.3332,-85.7046"/>
<polygon fill="#191970" stroke="#191970" points="522.8191,-86.0714 520.9503,-75.6427 515.9078,-84.9606 522.8191,-86.0714"/>
</g>
<!-- Node17 -->
<g id="node18" class="node">
<title>Node17</title>
<polygon fill="none" stroke="#bfbfbf" points="562.5,-56.5 562.5,-75.5 614.5,-75.5 614.5,-56.5 562.5,-56.5"/>
<text text-anchor="middle" x="588.5" y="-63.5" font-family="Helvetica,sans-Serif" font-size="10.00" fill="#000000">memory</text>
</g>
<!-- Node14&#45;&gt;Node17 -->
<g id="edge20" class="edge">
<title>Node14&#45;&gt;Node17</title>
<path fill="none" stroke="#191970" d="M526.564,-112.2455C537.8562,-103.814 554.3845,-91.4729 567.5271,-81.6598"/>
<polygon fill="#191970" stroke="#191970" points="569.6669,-84.4301 575.5857,-75.6427 565.4789,-78.8211 569.6669,-84.4301"/>
</g>
<!-- Node18 -->
<g id="node19" class="node">
<title>Node18</title>
<g id="a_node19"><a xlink:href="lsoda_8tpp.html" target="_top" xlink:title="../src/lsoda.tpp">
<polygon fill="none" stroke="#000000" points="400.5,-56.5 400.5,-75.5 482.5,-75.5 482.5,-56.5 400.5,-56.5"/>
<text text-anchor="middle" x="441.5" y="-63.5" font-family="Helvetica,sans-Serif" font-size="10.00" fill="#000000">../src/lsoda.tpp</text>
</a>
</g>
</g>
<!-- Node14&#45;&gt;Node18 -->
<g id="edge22" class="edge">
<title>Node14&#45;&gt;Node18</title>
<path fill="none" stroke="#191970" d="M500.9586,-112.2455C490.2213,-103.8943 474.5527,-91.7076 461.9953,-81.9408"/>
<polygon fill="#191970" stroke="#191970" points="463.9401,-79.0194 453.8977,-75.6427 459.6425,-84.5449 463.9401,-79.0194"/>
</g>
<!-- Node18&#45;&gt;Node8 -->
<g id="edge23" class="edge">
<title>Node18&#45;&gt;Node8</title>
<path fill="none" stroke="#191970" d="M429.4811,-56.2455C419.2902,-47.9746 404.4638,-35.9416 392.4893,-26.2232"/>
<polygon fill="#191970" stroke="#191970" points="394.3514,-23.2268 384.3812,-19.6427 389.9402,-28.662 394.3514,-23.2268"/>
</g>
<!-- Node18&#45;&gt;Node10 -->
<g id="edge24" class="edge">
<title>Node18&#45;&gt;Node10</title>
<path fill="none" stroke="#191970" d="M405.2278,-56.3733C365.8566,-45.924 303.4557,-29.3627 264.8529,-19.1174"/>
<polygon fill="#191970" stroke="#191970" points="265.6709,-15.7133 255.1076,-16.5309 263.8752,-22.4791 265.6709,-15.7133"/>
</g>
</g>
</svg>
