<?xml version="1.0" encoding="UTF-8" standalone="no"?>
<!DOCTYPE svg PUBLIC "-//W3C//DTD SVG 1.1//EN"
 "http://www.w3.org/Graphics/SVG/1.1/DTD/svg11.dtd">
<!-- Generated by graphviz version 2.40.1 (20161225.0304)
 -->
<!-- Title: include/solver.h Pages: 1 -->
<svg width="429pt" height="84pt"
 viewBox="0.00 0.00 428.50 84.00" xmlns="http://www.w3.org/2000/svg" xmlns:xlink="http://www.w3.org/1999/xlink">
<g id="graph0" class="graph" transform="scale(1 1) rotate(0) translate(4 80)">
<title>include/solver.h</title>
<!-- Node22 -->
<g id="node1" class="node">
<title>Node22</title>
<polygon fill="#bfbfbf" stroke="#000000" points="158,-56.5 158,-75.5 243,-75.5 243,-56.5 158,-56.5"/>
<text text-anchor="middle" x="200.5" y="-63.5" font-family="Helvetica,sans-Serif" font-size="10.00" fill="#000000">include/solver.h</text>
</g>
<!-- Node23 -->
<g id="node2" class="node">
<title>Node23</title>
<g id="a_node2"><a xlink:href="cm_8cpp.html" target="_top" xlink:title="src/cm.cpp">
<polygon fill="none" stroke="#000000" points="0,-.5 0,-19.5 65,-19.5 65,-.5 0,-.5"/>
<text text-anchor="middle" x="32.5" y="-7.5" font-family="Helvetica,sans-Serif" font-size="10.00" fill="#000000">src/cm.cpp</text>
</a>
</g>
</g>
<!-- Node22&#45;&gt;Node23 -->
<g id="edge1" class="edge">
<title>Node22&#45;&gt;Node23</title>
<path fill="none" stroke="#191970" d="M162.0714,-53.1905C131.2927,-42.9309 88.8074,-28.7691 61.0034,-19.5011"/>
<polygon fill="#191970" stroke="#191970" points="161.0261,-56.5313 171.6198,-56.3733 163.2398,-49.8905 161.0261,-56.5313"/>
</g>
<!-- Node24 -->
<g id="node3" class="node">
<title>Node24</title>
<g id="a_node3"><a xlink:href="ebt_8cpp.html" target="_top" xlink:title="src/ebt.cpp">
<polygon fill="none" stroke="#000000" points="83,-.5 83,-19.5 148,-19.5 148,-.5 83,-.5"/>
<text text-anchor="middle" x="115.5" y="-7.5" font-family="Helvetica,sans-Serif" font-size="10.00" fill="#000000">src/ebt.cpp</text>
</a>
</g>
</g>
<!-- Node22&#45;&gt;Node24 -->
<g id="edge2" class="edge">
<title>Node22&#45;&gt;Node24</title>
<path fill="none" stroke="#191970" d="M176.9581,-50.49C161.961,-40.6096 143.0027,-28.1194 130.1362,-19.6427"/>
<polygon fill="#191970" stroke="#191970" points="175.4179,-53.6666 185.6941,-56.2455 179.2691,-47.8212 175.4179,-53.6666"/>
</g>
<!-- Node25 -->
<g id="node4" class="node">
<title>Node25</title>
<g id="a_node4"><a xlink:href="fmu_8cpp.html" target="_top" xlink:title="src/fmu.cpp">
<polygon fill="none" stroke="#000000" points="166.5,-.5 166.5,-19.5 234.5,-19.5 234.5,-.5 166.5,-.5"/>
<text text-anchor="middle" x="200.5" y="-7.5" font-family="Helvetica,sans-Serif" font-size="10.00" fill="#000000">src/fmu.cpp</text>
</a>
</g>
</g>
<!-- Node22&#45;&gt;Node25 -->
<g id="edge3" class="edge">
<title>Node22&#45;&gt;Node25</title>
<path fill="none" stroke="#191970" d="M200.5,-46.1575C200.5,-37.155 200.5,-26.9199 200.5,-19.6427"/>
<polygon fill="#191970" stroke="#191970" points="197.0001,-46.2455 200.5,-56.2455 204.0001,-46.2456 197.0001,-46.2455"/>
</g>
<!-- Node26 -->
<g id="node5" class="node">
<title>Node26</title>
<g id="a_node5"><a xlink:href="ifmu_8cpp.html" target="_top" xlink:title="src/ifmu.cpp">
<polygon fill="none" stroke="#000000" points="253,-.5 253,-19.5 324,-19.5 324,-.5 253,-.5"/>
<text text-anchor="middle" x="288.5" y="-7.5" font-family="Helvetica,sans-Serif" font-size="10.00" fill="#000000">src/ifmu.cpp</text>
</a>
</g>
</g>
<!-- Node22&#45;&gt;Node26 -->
<g id="edge4" class="edge">
<title>Node22&#45;&gt;Node26</title>
<path fill="none" stroke="#191970" d="M224.4345,-50.769C240.0283,-40.8456 259.901,-28.1994 273.3472,-19.6427"/>
<polygon fill="#191970" stroke="#191970" points="222.386,-47.9239 215.8284,-56.2455 226.1441,-53.8296 222.386,-47.9239"/>
</g>
<!-- Node27 -->
<g id="node6" class="node">
<title>Node27</title>
<g id="a_node6"><a xlink:href="solver_8cpp.html" target="_top" xlink:title="src/solver.cpp">
<polygon fill="none" stroke="#000000" points="342.5,-.5 342.5,-19.5 420.5,-19.5 420.5,-.5 342.5,-.5"/>
<text text-anchor="middle" x="381.5" y="-7.5" font-family="Helvetica,sans-Serif" font-size="10.00" fill="#000000">src/solver.cpp</text>
</a>
</g>
</g>
<!-- Node22&#45;&gt;Node27 -->
<g id="edge5" class="edge">
<title>Node22&#45;&gt;Node27</title>
<path fill="none" stroke="#191970" d="M241.4722,-53.3235C274.6661,-43.0536 320.7058,-28.8093 350.791,-19.5011"/>
<polygon fill="#191970" stroke="#191970" points="240.1337,-50.0739 231.615,-56.3733 242.2027,-56.7611 240.1337,-50.0739"/>
</g>
</g>
</svg>
