<?xml version="1.0" encoding="UTF-8" standalone="no"?>
<!DOCTYPE svg PUBLIC "-//W3C//DTD SVG 1.1//EN"
 "http://www.w3.org/Graphics/SVG/1.1/DTD/svg11.dtd">
<!-- Generated by graphviz version 2.40.1 (20161225.0304)
 -->
<!-- Title: src/solver.cpp Pages: 1 -->
<svg width="1042pt" height="308pt"
 viewBox="0.00 0.00 1041.51 308.00" xmlns="http://www.w3.org/2000/svg" xmlns:xlink="http://www.w3.org/1999/xlink">
<g id="graph0" class="graph" transform="scale(1 1) rotate(0) translate(4 304)">
<title>src/solver.cpp</title>
<!-- Node0 -->
<g id="node1" class="node">
<title>Node0</title>
<polygon fill="#bfbfbf" stroke="#000000" points="801,-280.5 801,-299.5 879,-299.5 879,-280.5 801,-280.5"/>
<text text-anchor="middle" x="840" y="-287.5" font-family="Helvetica,sans-Serif" font-size="10.00" fill="#000000">src/solver.cpp</text>
</g>
<!-- Node1 -->
<g id="node2" class="node">
<title>Node1</title>
<g id="a_node2"><a xlink:href="solver_8h.html" target="_top" xlink:title="solver.h">
<polygon fill="none" stroke="#000000" points="421.5,-224.5 421.5,-243.5 472.5,-243.5 472.5,-224.5 421.5,-224.5"/>
<text text-anchor="middle" x="447" y="-231.5" font-family="Helvetica,sans-Serif" font-size="10.00" fill="#000000">solver.h</text>
</a>
</g>
</g>
<!-- Node0&#45;&gt;Node1 -->
<g id="edge1" class="edge">
<title>Node0&#45;&gt;Node1</title>
<path fill="none" stroke="#191970" d="M800.8809,-284.4258C724.4556,-273.5357 556.3678,-249.5842 482.7381,-239.0924"/>
<polygon fill="#191970" stroke="#191970" points="482.976,-235.5911 472.5822,-237.6453 481.9884,-242.5211 482.976,-235.5911"/>
</g>
<!-- Node5 -->
<g id="node6" class="node">
<title>Node5</title>
<polygon fill="none" stroke="#bfbfbf" points="631.5,-112.5 631.5,-131.5 672.5,-131.5 672.5,-112.5 631.5,-112.5"/>
<text text-anchor="middle" x="652" y="-119.5" font-family="Helvetica,sans-Serif" font-size="10.00" fill="#000000">string</text>
</g>
<!-- Node0&#45;&gt;Node5 -->
<g id="edge35" class="edge">
<title>Node0&#45;&gt;Node5</title>
<path fill="none" stroke="#191970" d="M829.3536,-280.4862C798.606,-253.0096 709.3921,-173.2866 670.4952,-138.5276"/>
<polygon fill="#191970" stroke="#191970" points="672.7866,-135.8814 662.9979,-131.8279 668.1223,-141.101 672.7866,-135.8814"/>
</g>
<!-- Node9 -->
<g id="node10" class="node">
<title>Node9</title>
<polygon fill="none" stroke="#bfbfbf" points="576,-.5 576,-19.5 630,-19.5 630,-.5 576,-.5"/>
<text text-anchor="middle" x="603" y="-7.5" font-family="Helvetica,sans-Serif" font-size="10.00" fill="#000000">iostream</text>
</g>
<!-- Node0&#45;&gt;Node9 -->
<g id="edge32" class="edge">
<title>Node0&#45;&gt;Node9</title>
<path fill="none" stroke="#191970" d="M879.0219,-284.1286C923.9467,-276.6178 994.0026,-262.3558 1013,-244 1035.0423,-222.7022 1033,-208.6506 1033,-178 1033,-178 1033,-178 1033,-122 1033,-87.2309 1020.4391,-74.4994 991,-56 961.6501,-37.5567 731.8026,-19.239 640.3495,-12.6047"/>
<polygon fill="#191970" stroke="#191970" points="640.3837,-9.0982 630.1585,-11.8723 639.8819,-16.0802 640.3837,-9.0982"/>
</g>
<!-- Node11 -->
<g id="node12" class="node">
<title>Node11</title>
<polygon fill="none" stroke="#bfbfbf" points="216.5,-.5 216.5,-19.5 265.5,-19.5 265.5,-.5 216.5,-.5"/>
<text text-anchor="middle" x="241" y="-7.5" font-family="Helvetica,sans-Serif" font-size="10.00" fill="#000000">cassert</text>
</g>
<!-- Node0&#45;&gt;Node11 -->
<g id="edge34" class="edge">
<title>Node0&#45;&gt;Node11</title>
<path fill="none" stroke="#191970" d="M800.8912,-288.9607C635.2537,-284.051 0,-259.8837 0,-178 0,-178 0,-178 0,-122 0,-80.8295 29.3605,-76.6116 65,-56 109.6647,-30.1688 169.0008,-18.5729 206.0919,-13.5634"/>
<polygon fill="#191970" stroke="#191970" points="206.9065,-16.9884 216.3902,-12.265 206.0309,-10.0434 206.9065,-16.9884"/>
</g>
<!-- Node12 -->
<g id="node13" class="node">
<title>Node12</title>
<polygon fill="none" stroke="#bfbfbf" points="926,-56.5 926,-75.5 982,-75.5 982,-56.5 926,-56.5"/>
<text text-anchor="middle" x="954" y="-63.5" font-family="Helvetica,sans-Serif" font-size="10.00" fill="#000000">algorithm</text>
</g>
<!-- Node0&#45;&gt;Node12 -->
<g id="edge36" class="edge">
<title>Node0&#45;&gt;Node12</title>
<path fill="none" stroke="#191970" d="M848.2129,-280.1978C855.5411,-271.1648 866.276,-257.1995 874,-244 906.2706,-188.8531 934.4107,-118.3574 946.9929,-85.0552"/>
<polygon fill="#191970" stroke="#191970" points="950.2981,-86.2089 950.5169,-75.6163 943.7403,-83.7605 950.2981,-86.2089"/>
</g>
<!-- Node17 -->
<g id="node18" class="node">
<title>Node17</title>
<polygon fill="none" stroke="#bfbfbf" points="498,-56.5 498,-75.5 542,-75.5 542,-56.5 498,-56.5"/>
<text text-anchor="middle" x="520" y="-63.5" font-family="Helvetica,sans-Serif" font-size="10.00" fill="#000000">cmath</text>
</g>
<!-- Node0&#45;&gt;Node17 -->
<g id="edge33" class="edge">
<title>Node0&#45;&gt;Node17</title>
<path fill="none" stroke="#191970" d="M843.9063,-280.3983C855.1614,-251.0044 884.1918,-161.2613 841,-112 800.6583,-65.9892 628.3278,-86.2472 568,-76 562.8861,-75.1314 557.487,-74.1096 552.2283,-73.0569"/>
<polygon fill="#191970" stroke="#191970" points="552.9019,-69.6222 542.4005,-71.0265 551.4855,-76.4775 552.9019,-69.6222"/>
</g>
<!-- Node23 -->
<g id="node24" class="node">
<title>Node23</title>
<polygon fill="none" stroke="#bfbfbf" points="945.5,-224.5 945.5,-243.5 1004.5,-243.5 1004.5,-224.5 945.5,-224.5"/>
<text text-anchor="middle" x="975" y="-231.5" font-family="Helvetica,sans-Serif" font-size="10.00" fill="#000000">functional</text>
</g>
<!-- Node0&#45;&gt;Node23 -->
<g id="edge37" class="edge">
<title>Node0&#45;&gt;Node23</title>
<path fill="none" stroke="#191970" d="M863.2073,-280.3733C885.1699,-271.2629 918.3332,-257.5062 942.8401,-247.3404"/>
<polygon fill="#191970" stroke="#191970" points="944.1997,-250.5657 952.0955,-243.5011 941.5176,-244.0999 944.1997,-250.5657"/>
</g>
<!-- Node24 -->
<g id="node25" class="node">
<title>Node24</title>
<g id="a_node25"><a xlink:href="iterator__set_8h.html" target="_top" xlink:title="iterator_set.h">
<polygon fill="none" stroke="#000000" points="758,-168.5 758,-187.5 832,-187.5 832,-168.5 758,-168.5"/>
<text text-anchor="middle" x="795" y="-175.5" font-family="Helvetica,sans-Serif" font-size="10.00" fill="#000000">iterator_set.h</text>
</a>
</g>
</g>
<!-- Node0&#45;&gt;Node24 -->
<g id="edge38" class="edge">
<title>Node0&#45;&gt;Node24</title>
<path fill="none" stroke="#191970" d="M836.1633,-280.4509C828.7575,-262.0186 812.3673,-221.2254 802.6512,-197.043"/>
<polygon fill="#191970" stroke="#191970" points="805.8029,-195.499 798.827,-187.5249 799.3075,-198.1088 805.8029,-195.499"/>
</g>
<!-- Node2 -->
<g id="node3" class="node">
<title>Node2</title>
<polygon fill="none" stroke="#bfbfbf" points="347,-56.5 347,-75.5 391,-75.5 391,-56.5 347,-56.5"/>
<text text-anchor="middle" x="369" y="-63.5" font-family="Helvetica,sans-Serif" font-size="10.00" fill="#000000">vector</text>
</g>
<!-- Node1&#45;&gt;Node2 -->
<g id="edge2" class="edge">
<title>Node1&#45;&gt;Node2</title>
<path fill="none" stroke="#191970" d="M440.2728,-224.3084C433.9931,-215.1199 424.4917,-200.8491 417,-188 402.8824,-163.7869 398.3719,-158.0385 388,-132 381.933,-116.7688 376.902,-98.8591 373.5444,-85.5423"/>
<polygon fill="#191970" stroke="#191970" points="376.8905,-84.4889 371.1316,-75.5959 370.0878,-86.1392 376.8905,-84.4889"/>
</g>
<!-- Node3 -->
<g id="node4" class="node">
<title>Node3</title>
<polygon fill="none" stroke="#bfbfbf" points="397.5,-112.5 397.5,-131.5 426.5,-131.5 426.5,-112.5 397.5,-112.5"/>
<text text-anchor="middle" x="412" y="-119.5" font-family="Helvetica,sans-Serif" font-size="10.00" fill="#000000">list</text>
</g>
<!-- Node1&#45;&gt;Node3 -->
<g id="edge3" class="edge">
<title>Node1&#45;&gt;Node3</title>
<path fill="none" stroke="#191970" d="M441.8543,-224.3801C437.15,-215.2423 430.2904,-201.0058 426,-188 420.9544,-172.705 417.2901,-154.8 414.9788,-141.5012"/>
<polygon fill="#191970" stroke="#191970" points="418.4231,-140.876 413.355,-131.572 411.5149,-142.0058 418.4231,-140.876"/>
</g>
<!-- Node4 -->
<g id="node5" class="node">
<title>Node4</title>
<polygon fill="none" stroke="#bfbfbf" points="690.5,-112.5 690.5,-131.5 725.5,-131.5 725.5,-112.5 690.5,-112.5"/>
<text text-anchor="middle" x="708" y="-119.5" font-family="Helvetica,sans-Serif" font-size="10.00" fill="#000000">map</text>
</g>
<!-- Node1&#45;&gt;Node4 -->
<g id="edge4" class="edge">
<title>Node1&#45;&gt;Node4</title>
<path fill="none" stroke="#191970" d="M472.7537,-232.8894C512.6304,-230.1567 590.5936,-220.7025 647,-188 667.3444,-176.205 684.8774,-155.4215 695.8575,-140.3218"/>
<polygon fill="#191970" stroke="#191970" points="698.9617,-141.9895 701.814,-131.7858 693.2211,-137.9837 698.9617,-141.9895"/>
</g>
<!-- Node1&#45;&gt;Node5 -->
<g id="edge5" class="edge">
<title>Node1&#45;&gt;Node5</title>
<path fill="none" stroke="#191970" d="M472.5261,-230.2729C516.0857,-223.4557 602.2777,-207.8362 625,-188 638.526,-176.192 645.392,-156.5802 648.803,-141.7965"/>
<polygon fill="#191970" stroke="#191970" points="652.3045,-142.1278 650.791,-131.6417 645.4349,-140.7829 652.3045,-142.1278"/>
</g>
<!-- Node6 -->
<g id="node7" class="node">
<title>Node6</title>
<g id="a_node7"><a xlink:href="environment__base_8h.html" target="_top" xlink:title="environment_base.h">
<polygon fill="none" stroke="#000000" points="435,-168.5 435,-187.5 539,-187.5 539,-168.5 435,-168.5"/>
<text text-anchor="middle" x="487" y="-175.5" font-family="Helvetica,sans-Serif" font-size="10.00" fill="#000000">environment_base.h</text>
</a>
</g>
</g>
<!-- Node1&#45;&gt;Node6 -->
<g id="edge6" class="edge">
<title>Node1&#45;&gt;Node6</title>
<path fill="none" stroke="#191970" d="M453.9675,-224.2455C459.5311,-216.4564 467.478,-205.3308 474.1829,-195.9439"/>
<polygon fill="#191970" stroke="#191970" points="477.148,-197.8144 480.1124,-187.6427 471.4519,-193.7457 477.148,-197.8144"/>
</g>
<!-- Node7 -->
<g id="node8" class="node">
<title>Node7</title>
<g id="a_node8"><a xlink:href="species_8h.html" target="_top" xlink:title="species.h">
<polygon fill="none" stroke="#000000" points="557.5,-168.5 557.5,-187.5 616.5,-187.5 616.5,-168.5 557.5,-168.5"/>
<text text-anchor="middle" x="587" y="-175.5" font-family="Helvetica,sans-Serif" font-size="10.00" fill="#000000">species.h</text>
</a>
</g>
</g>
<!-- Node1&#45;&gt;Node7 -->
<g id="edge7" class="edge">
<title>Node1&#45;&gt;Node7</title>
<path fill="none" stroke="#191970" d="M471.0669,-224.3733C493.8428,-215.2629 528.2344,-201.5062 553.649,-191.3404"/>
<polygon fill="#191970" stroke="#191970" points="555.2623,-194.4648 563.2472,-187.5011 552.6625,-187.9654 555.2623,-194.4648"/>
</g>
<!-- Node13 -->
<g id="node14" class="node">
<title>Node13</title>
<g id="a_node14"><a xlink:href="ode__solver_8h.html" target="_top" xlink:title="ode_solver.h">
<polygon fill="none" stroke="#000000" points="269,-168.5 269,-187.5 341,-187.5 341,-168.5 269,-168.5"/>
<text text-anchor="middle" x="305" y="-175.5" font-family="Helvetica,sans-Serif" font-size="10.00" fill="#000000">ode_solver.h</text>
</a>
</g>
</g>
<!-- Node1&#45;&gt;Node13 -->
<g id="edge16" class="edge">
<title>Node1&#45;&gt;Node13</title>
<path fill="none" stroke="#191970" d="M422.5893,-224.3733C399.3858,-215.2226 364.2962,-201.3844 338.4858,-191.2057"/>
<polygon fill="#191970" stroke="#191970" points="339.6789,-187.9139 329.0921,-187.5011 337.1108,-194.4258 339.6789,-187.9139"/>
</g>
<!-- Node21 -->
<g id="node22" class="node">
<title>Node21</title>
<g id="a_node22"><a xlink:href="solver_8tpp.html" target="_top" xlink:title="../src/solver.tpp">
<polygon fill="none" stroke="#000000" points="28.5,-168.5 28.5,-187.5 113.5,-187.5 113.5,-168.5 28.5,-168.5"/>
<text text-anchor="middle" x="71" y="-175.5" font-family="Helvetica,sans-Serif" font-size="10.00" fill="#000000">../src/solver.tpp</text>
</a>
</g>
</g>
<!-- Node1&#45;&gt;Node21 -->
<g id="edge30" class="edge">
<title>Node1&#45;&gt;Node21</title>
<path fill="none" stroke="#191970" d="M421.2283,-230.8243C367.7168,-224.1297 240.46,-207.6875 123.7241,-188.2265"/>
<polygon fill="#191970" stroke="#191970" points="123.9875,-184.7218 113.5459,-186.5174 122.8282,-191.6252 123.9875,-184.7218"/>
</g>
<!-- Node22 -->
<g id="node23" class="node">
<title>Node22</title>
<g id="a_node23"><a xlink:href="size__integrals_8tpp.html" target="_top" xlink:title="../src/size_integrals.tpp">
<polygon fill="none" stroke="#000000" points="131.5,-168.5 131.5,-187.5 250.5,-187.5 250.5,-168.5 131.5,-168.5"/>
<text text-anchor="middle" x="191" y="-175.5" font-family="Helvetica,sans-Serif" font-size="10.00" fill="#000000">../src/size_integrals.tpp</text>
</a>
</g>
</g>
<!-- Node1&#45;&gt;Node22 -->
<g id="edge31" class="edge">
<title>Node1&#45;&gt;Node22</title>
<path fill="none" stroke="#191970" d="M421.0445,-228.3222C379.8453,-219.3099 298.6217,-201.5423 244.5567,-189.7155"/>
<polygon fill="#191970" stroke="#191970" points="244.9767,-186.2247 234.4597,-187.5068 243.4808,-193.063 244.9767,-186.2247"/>
</g>
<!-- Node7&#45;&gt;Node2 -->
<g id="edge8" class="edge">
<title>Node7&#45;&gt;Node2</title>
<path fill="none" stroke="#191970" d="M559.9276,-168.4986C536.66,-159.977 502.4593,-146.5955 474,-132 444.1267,-116.6793 411.6908,-95.5369 390.8965,-81.3483"/>
<polygon fill="#191970" stroke="#191970" points="392.6965,-78.3382 382.4758,-75.5475 388.7254,-84.1028 392.6965,-78.3382"/>
</g>
<!-- Node7&#45;&gt;Node3 -->
<g id="edge9" class="edge">
<title>Node7&#45;&gt;Node3</title>
<path fill="none" stroke="#191970" d="M557.2846,-168.8936C527.7301,-159.7764 481.1281,-145.2375 441,-132 439.546,-131.5203 438.0527,-131.0223 436.5475,-130.516"/>
<polygon fill="#191970" stroke="#191970" points="437.3217,-127.0821 426.7272,-127.164 435.0604,-133.7068 437.3217,-127.0821"/>
</g>
<!-- Node7&#45;&gt;Node5 -->
<g id="edge10" class="edge">
<title>Node7&#45;&gt;Node5</title>
<path fill="none" stroke="#191970" d="M598.3221,-168.2455C607.9223,-159.9746 621.8892,-147.9416 633.1695,-138.2232"/>
<polygon fill="#191970" stroke="#191970" points="635.516,-140.8214 640.8076,-131.6427 630.947,-135.5182 635.516,-140.8214"/>
</g>
<!-- Node8 -->
<g id="node9" class="node">
<title>Node8</title>
<g id="a_node9"><a xlink:href="cohort_8h.html" target="_top" xlink:title="cohort.h">
<polygon fill="none" stroke="#000000" points="577,-56.5 577,-75.5 629,-75.5 629,-56.5 577,-56.5"/>
<text text-anchor="middle" x="603" y="-63.5" font-family="Helvetica,sans-Serif" font-size="10.00" fill="#000000">cohort.h</text>
</a>
</g>
</g>
<!-- Node7&#45;&gt;Node8 -->
<g id="edge11" class="edge">
<title>Node7&#45;&gt;Node8</title>
<path fill="none" stroke="#191970" d="M588.3642,-168.4509C590.9737,-150.184 596.7207,-109.9553 600.1861,-85.6976"/>
<polygon fill="#191970" stroke="#191970" points="603.6898,-85.9194 601.6393,-75.5249 596.7602,-84.9294 603.6898,-85.9194"/>
</g>
<!-- Node10 -->
<g id="node11" class="node">
<title>Node10</title>
<g id="a_node11"><a xlink:href="species_8tpp.html" target="_top" xlink:title="../src/species.tpp">
<polygon fill="none" stroke="#000000" points="483,-112.5 483,-131.5 575,-131.5 575,-112.5 483,-112.5"/>
<text text-anchor="middle" x="529" y="-119.5" font-family="Helvetica,sans-Serif" font-size="10.00" fill="#000000">../src/species.tpp</text>
</a>
</g>
</g>
<!-- Node7&#45;&gt;Node10 -->
<g id="edge13" class="edge">
<title>Node7&#45;&gt;Node10</title>
<path fill="none" stroke="#191970" d="M576.8972,-168.2455C568.4972,-160.1352 556.3506,-148.4075 546.3916,-138.7919"/>
<polygon fill="#191970" stroke="#191970" points="548.6122,-136.0707 538.9871,-131.6427 543.75,-141.1066 548.6122,-136.0707"/>
</g>
<!-- Node8&#45;&gt;Node9 -->
<g id="edge12" class="edge">
<title>Node8&#45;&gt;Node9</title>
<path fill="none" stroke="#191970" d="M603,-56.2455C603,-48.9382 603,-38.6944 603,-29.7046"/>
<polygon fill="#191970" stroke="#191970" points="606.5001,-29.6426 603,-19.6427 599.5001,-29.6427 606.5001,-29.6426"/>
</g>
<!-- Node10&#45;&gt;Node11 -->
<g id="edge14" class="edge">
<title>Node10&#45;&gt;Node11</title>
<path fill="none" stroke="#191970" d="M512.7733,-112.4136C488.7713,-98.5337 442.0979,-72.681 400,-56 358.2959,-39.4751 308.3304,-25.9989 275.6862,-17.9979"/>
<polygon fill="#191970" stroke="#191970" points="276.2705,-14.5385 265.7285,-15.5956 274.6288,-21.3433 276.2705,-14.5385"/>
</g>
<!-- Node10&#45;&gt;Node12 -->
<g id="edge15" class="edge">
<title>Node10&#45;&gt;Node12</title>
<path fill="none" stroke="#191970" d="M575.2915,-115.9004C659.7412,-104.7729 837.3008,-81.3768 915.5618,-71.0648"/>
<polygon fill="#191970" stroke="#191970" points="916.4687,-74.4756 925.9258,-69.6992 915.5542,-67.5356 916.4687,-74.4756"/>
</g>
<!-- Node13&#45;&gt;Node2 -->
<g id="edge27" class="edge">
<title>Node13&#45;&gt;Node2</title>
<path fill="none" stroke="#191970" d="M310.4566,-168.4509C321.0838,-149.8533 344.7189,-108.4919 358.4878,-84.3964"/>
<polygon fill="#191970" stroke="#191970" points="361.6346,-85.9438 363.5572,-75.5249 355.5569,-82.4708 361.6346,-85.9438"/>
</g>
<!-- Node13&#45;&gt;Node5 -->
<g id="edge26" class="edge">
<title>Node13&#45;&gt;Node5</title>
<path fill="none" stroke="#191970" d="M341.1531,-172.1655C409.7207,-161.0998 557.5096,-137.2492 621.4681,-126.9273"/>
<polygon fill="#191970" stroke="#191970" points="622.0277,-130.3824 631.3423,-125.3338 620.9124,-123.4718 622.0277,-130.3824"/>
</g>
<!-- Node13&#45;&gt;Node9 -->
<g id="edge28" class="edge">
<title>Node13&#45;&gt;Node9</title>
<path fill="none" stroke="#191970" d="M304.4252,-168.3365C303.6207,-145.1392 305.0848,-86.0092 338,-56 370.7684,-26.1246 500.7757,-15.2592 565.7022,-11.6406"/>
<polygon fill="#191970" stroke="#191970" points="566.1109,-15.124 575.9125,-11.1017 565.7418,-8.1338 566.1109,-15.124"/>
</g>
<!-- Node14 -->
<g id="node15" class="node">
<title>Node14</title>
<g id="a_node15"><a xlink:href="rkck45_8h.html" target="_top" xlink:title="rkck45.h">
<polygon fill="none" stroke="#000000" points="67,-112.5 67,-131.5 121,-131.5 121,-112.5 67,-112.5"/>
<text text-anchor="middle" x="94" y="-119.5" font-family="Helvetica,sans-Serif" font-size="10.00" fill="#000000">rkck45.h</text>
</a>
</g>
</g>
<!-- Node13&#45;&gt;Node14 -->
<g id="edge17" class="edge">
<title>Node13&#45;&gt;Node14</title>
<path fill="none" stroke="#191970" d="M268.7634,-168.6318C235.4209,-159.977 184.3417,-146.631 131.0821,-132.2684"/>
<polygon fill="#191970" stroke="#191970" points="131.6825,-128.8051 121.1157,-129.5756 129.8566,-135.5628 131.6825,-128.8051"/>
</g>
<!-- Node15 -->
<g id="node16" class="node">
<title>Node15</title>
<g id="a_node16"><a xlink:href="lsoda_8h.html" target="_top" xlink:title="lsoda.h">
<polygon fill="none" stroke="#000000" points="217,-112.5 217,-131.5 265,-131.5 265,-112.5 217,-112.5"/>
<text text-anchor="middle" x="241" y="-119.5" font-family="Helvetica,sans-Serif" font-size="10.00" fill="#000000">lsoda.h</text>
</a>
</g>
</g>
<!-- Node13&#45;&gt;Node15 -->
<g id="edge18" class="edge">
<title>Node13&#45;&gt;Node15</title>
<path fill="none" stroke="#191970" d="M293.8521,-168.2455C284.4913,-160.0549 270.9142,-148.1749 259.8651,-138.5069"/>
<polygon fill="#191970" stroke="#191970" points="261.8508,-135.5937 252.0202,-131.6427 257.2412,-140.8618 261.8508,-135.5937"/>
</g>
<!-- Node20 -->
<g id="node21" class="node">
<title>Node20</title>
<polygon fill="none" stroke="#bfbfbf" points="139.5,-112.5 139.5,-131.5 198.5,-131.5 198.5,-112.5 139.5,-112.5"/>
<text text-anchor="middle" x="169" y="-119.5" font-family="Helvetica,sans-Serif" font-size="10.00" fill="#000000">exception</text>
</g>
<!-- Node13&#45;&gt;Node20 -->
<g id="edge29" class="edge">
<title>Node13&#45;&gt;Node20</title>
<path fill="none" stroke="#191970" d="M281.6208,-168.3733C259.4955,-159.2629 226.0866,-145.5062 201.3981,-135.3404"/>
<polygon fill="#191970" stroke="#191970" points="202.6536,-132.0723 192.0742,-131.5011 199.9883,-138.5451 202.6536,-132.0723"/>
</g>
<!-- Node15&#45;&gt;Node2 -->
<g id="edge22" class="edge">
<title>Node15&#45;&gt;Node2</title>
<path fill="none" stroke="#191970" d="M263.004,-112.3733C283.6435,-103.3435 314.7158,-89.7494 337.8889,-79.6111"/>
<polygon fill="#191970" stroke="#191970" points="339.5245,-82.7159 347.2831,-75.5011 336.7187,-76.3028 339.5245,-82.7159"/>
</g>
<!-- Node16 -->
<g id="node17" class="node">
<title>Node16</title>
<polygon fill="none" stroke="#bfbfbf" points="144,-56.5 144,-75.5 182,-75.5 182,-56.5 144,-56.5"/>
<text text-anchor="middle" x="163" y="-63.5" font-family="Helvetica,sans-Serif" font-size="10.00" fill="#000000">array</text>
</g>
<!-- Node15&#45;&gt;Node16 -->
<g id="edge19" class="edge">
<title>Node15&#45;&gt;Node16</title>
<path fill="none" stroke="#191970" d="M227.4134,-112.2455C215.6695,-103.814 198.4801,-91.4729 184.8118,-81.6598"/>
<polygon fill="#191970" stroke="#191970" points="186.5954,-78.6316 176.4309,-75.6427 182.5129,-84.3179 186.5954,-78.6316"/>
</g>
<!-- Node15&#45;&gt;Node17 -->
<g id="edge20" class="edge">
<title>Node15&#45;&gt;Node17</title>
<path fill="none" stroke="#191970" d="M265.2714,-117.1283C315.5892,-107.0287 431.2822,-83.8072 487.7768,-72.4677"/>
<polygon fill="#191970" stroke="#191970" points="488.8132,-75.8296 497.9289,-70.43 487.4356,-68.9665 488.8132,-75.8296"/>
</g>
<!-- Node18 -->
<g id="node19" class="node">
<title>Node18</title>
<polygon fill="none" stroke="#bfbfbf" points="74,-56.5 74,-75.5 126,-75.5 126,-56.5 74,-56.5"/>
<text text-anchor="middle" x="100" y="-63.5" font-family="Helvetica,sans-Serif" font-size="10.00" fill="#000000">memory</text>
</g>
<!-- Node15&#45;&gt;Node18 -->
<g id="edge21" class="edge">
<title>Node15&#45;&gt;Node18</title>
<path fill="none" stroke="#191970" d="M216.7612,-112.3733C193.7211,-103.2226 158.8786,-89.3844 133.2499,-79.2057"/>
<polygon fill="#191970" stroke="#191970" points="134.5082,-75.9395 123.9225,-75.5011 131.9244,-82.4452 134.5082,-75.9395"/>
</g>
<!-- Node19 -->
<g id="node20" class="node">
<title>Node19</title>
<g id="a_node20"><a xlink:href="lsoda_8tpp.html" target="_top" xlink:title="../src/lsoda.tpp">
<polygon fill="none" stroke="#000000" points="200,-56.5 200,-75.5 282,-75.5 282,-56.5 200,-56.5"/>
<text text-anchor="middle" x="241" y="-63.5" font-family="Helvetica,sans-Serif" font-size="10.00" fill="#000000">../src/lsoda.tpp</text>
</a>
</g>
</g>
<!-- Node15&#45;&gt;Node19 -->
<g id="edge23" class="edge">
<title>Node15&#45;&gt;Node19</title>
<path fill="none" stroke="#191970" d="M241,-112.2455C241,-104.9382 241,-94.6944 241,-85.7046"/>
<polygon fill="#191970" stroke="#191970" points="244.5001,-85.6426 241,-75.6427 237.5001,-85.6427 244.5001,-85.6426"/>
</g>
<!-- Node19&#45;&gt;Node9 -->
<g id="edge24" class="edge">
<title>Node19&#45;&gt;Node9</title>
<path fill="none" stroke="#191970" d="M282.1211,-58.3792C286.7985,-57.5552 291.5,-56.746 296,-56 393.102,-39.9018 507.9056,-23.361 565.7335,-15.2023"/>
<polygon fill="#191970" stroke="#191970" points="566.4364,-18.638 575.8511,-13.7784 565.4609,-11.7063 566.4364,-18.638"/>
</g>
<!-- Node19&#45;&gt;Node11 -->
<g id="edge25" class="edge">
<title>Node19&#45;&gt;Node11</title>
<path fill="none" stroke="#191970" d="M241,-56.2455C241,-48.9382 241,-38.6944 241,-29.7046"/>
<polygon fill="#191970" stroke="#191970" points="244.5001,-29.6426 241,-19.6427 237.5001,-29.6427 244.5001,-29.6426"/>
</g>
<!-- Node24&#45;&gt;Node2 -->
<g id="edge39" class="edge">
<title>Node24&#45;&gt;Node2</title>
<path fill="none" stroke="#191970" d="M789.297,-168.3906C779.8734,-153.482 759.5301,-125.1313 734,-112 704.6856,-96.9223 485.2715,-76.2469 401.4336,-68.8082"/>
<polygon fill="#191970" stroke="#191970" points="401.4866,-65.2994 391.2179,-67.9079 400.872,-72.2724 401.4866,-65.2994"/>
</g>
<!-- Node24&#45;&gt;Node4 -->
<g id="edge41" class="edge">
<title>Node24&#45;&gt;Node4</title>
<path fill="none" stroke="#191970" d="M779.8458,-168.2455C766.4973,-159.6534 746.8414,-147.0014 731.4617,-137.1018"/>
<polygon fill="#191970" stroke="#191970" points="733.2836,-134.1121 722.9806,-131.6427 729.4949,-139.9982 733.2836,-134.1121"/>
</g>
<!-- Node24&#45;&gt;Node5 -->
<g id="edge40" class="edge">
<title>Node24&#45;&gt;Node5</title>
<path fill="none" stroke="#191970" d="M770.4174,-168.3733C745.9175,-158.7789 708.259,-144.0315 682.0092,-133.7519"/>
<polygon fill="#191970" stroke="#191970" points="683.1463,-130.4384 672.5586,-130.0509 680.5938,-136.9564 683.1463,-130.4384"/>
</g>
<!-- Node24&#45;&gt;Node9 -->
<g id="edge42" class="edge">
<title>Node24&#45;&gt;Node9</title>
<path fill="none" stroke="#191970" d="M809.9424,-168.4874C828.0187,-155.7544 854.455,-132.4051 841,-112 796.0141,-43.7771 694.9089,-21.0117 640.0679,-13.5459"/>
<polygon fill="#191970" stroke="#191970" points="640.4278,-10.0637 630.0685,-12.285 639.552,-17.0087 640.4278,-10.0637"/>
</g>
<!-- Node25 -->
<g id="node26" class="node">
<title>Node25</title>
<polygon fill="none" stroke="#bfbfbf" points="782,-112.5 782,-131.5 832,-131.5 832,-112.5 782,-112.5"/>
<text text-anchor="middle" x="807" y="-119.5" font-family="Helvetica,sans-Serif" font-size="10.00" fill="#000000">iomanip</text>
</g>
<!-- Node24&#45;&gt;Node25 -->
<g id="edge43" class="edge">
<title>Node24&#45;&gt;Node25</title>
<path fill="none" stroke="#191970" d="M797.0902,-168.2455C798.6561,-160.9382 800.8512,-150.6944 802.7776,-141.7046"/>
<polygon fill="#191970" stroke="#191970" points="806.2607,-142.1541 804.9337,-131.6427 799.416,-140.6873 806.2607,-142.1541"/>
</g>
</g>
</svg>
