<?xml version="1.0" encoding="UTF-8" standalone="no"?>
<!DOCTYPE svg PUBLIC "-//W3C//DTD SVG 1.1//EN"
 "http://www.w3.org/Graphics/SVG/1.1/DTD/svg11.dtd">
<!-- Generated by graphviz version 2.40.1 (20161225.0304)
 -->
<!-- Title: src/solver.cpp Pages: 1 -->
<svg width="984pt" height="308pt"
 viewBox="0.00 0.00 983.50 308.00" xmlns="http://www.w3.org/2000/svg" xmlns:xlink="http://www.w3.org/1999/xlink">
<g id="graph0" class="graph" transform="scale(1 1) rotate(0) translate(4 304)">
<title>src/solver.cpp</title>
<!-- Node0 -->
<g id="node1" class="node">
<title>Node0</title>
<polygon fill="#bfbfbf" stroke="#000000" points="624,-280.5 624,-299.5 702,-299.5 702,-280.5 624,-280.5"/>
<text text-anchor="middle" x="663" y="-287.5" font-family="Helvetica,sans-Serif" font-size="10.00" fill="#000000">src/solver.cpp</text>
</g>
<!-- Node1 -->
<g id="node2" class="node">
<title>Node1</title>
<g id="a_node2"><a xlink:href="solver_8h.html" target="_top" xlink:title="solver.h">
<polygon fill="none" stroke="#000000" points="442.5,-224.5 442.5,-243.5 493.5,-243.5 493.5,-224.5 442.5,-224.5"/>
<text text-anchor="middle" x="468" y="-231.5" font-family="Helvetica,sans-Serif" font-size="10.00" fill="#000000">solver.h</text>
</a>
</g>
</g>
<!-- Node0&#45;&gt;Node1 -->
<g id="edge1" class="edge">
<title>Node0&#45;&gt;Node1</title>
<path fill="none" stroke="#191970" d="M629.4783,-280.3733C594.3934,-270.2976 539.5196,-254.539 503.6564,-244.2398"/>
<polygon fill="#191970" stroke="#191970" points="504.2067,-240.7564 493.6291,-241.3601 502.2745,-247.4845 504.2067,-240.7564"/>
</g>
<!-- Node5 -->
<g id="node6" class="node">
<title>Node5</title>
<polygon fill="none" stroke="#bfbfbf" points="300.5,-112.5 300.5,-131.5 341.5,-131.5 341.5,-112.5 300.5,-112.5"/>
<text text-anchor="middle" x="321" y="-119.5" font-family="Helvetica,sans-Serif" font-size="10.00" fill="#000000">string</text>
</g>
<!-- Node0&#45;&gt;Node5 -->
<g id="edge39" class="edge">
<title>Node0&#45;&gt;Node5</title>
<path fill="none" stroke="#191970" d="M623.9001,-286.73C528.3038,-277.8265 287.1852,-249.5802 241,-188 223.2379,-164.3173 261.289,-143.8313 290.7885,-132.2044"/>
<polygon fill="#191970" stroke="#191970" points="292.2384,-135.3987 300.3719,-128.6092 289.7796,-128.8447 292.2384,-135.3987"/>
</g>
<!-- Node9 -->
<g id="node10" class="node">
<title>Node9</title>
<polygon fill="none" stroke="#bfbfbf" points="223,-.5 223,-19.5 277,-19.5 277,-.5 223,-.5"/>
<text text-anchor="middle" x="250" y="-7.5" font-family="Helvetica,sans-Serif" font-size="10.00" fill="#000000">iostream</text>
</g>
<!-- Node0&#45;&gt;Node9 -->
<g id="edge36" class="edge">
<title>Node0&#45;&gt;Node9</title>
<path fill="none" stroke="#191970" d="M623.9807,-288.0621C520.8801,-282.6886 243.0351,-266.4984 154,-244 81.804,-225.7567 0,-252.4653 0,-178 0,-178 0,-178 0,-122 0,-75.9713 142.9246,-35.5177 212.6411,-18.5229"/>
<polygon fill="#191970" stroke="#191970" points="213.8619,-21.8295 222.7697,-16.0935 212.2292,-15.0225 213.8619,-21.8295"/>
</g>
<!-- Node11 -->
<g id="node12" class="node">
<title>Node11</title>
<polygon fill="none" stroke="#bfbfbf" points="696.5,-.5 696.5,-19.5 745.5,-19.5 745.5,-.5 696.5,-.5"/>
<text text-anchor="middle" x="721" y="-7.5" font-family="Helvetica,sans-Serif" font-size="10.00" fill="#000000">cassert</text>
</g>
<!-- Node0&#45;&gt;Node11 -->
<g id="edge38" class="edge">
<title>Node0&#45;&gt;Node11</title>
<path fill="none" stroke="#191970" d="M702.2013,-284.3448C757.0357,-273.9692 850,-246.3063 850,-178 850,-178 850,-178 850,-122 850,-91.4754 851.2992,-78.7968 831,-56 811.4873,-34.0864 779.8578,-22.337 755.5125,-16.2144"/>
<polygon fill="#191970" stroke="#191970" points="756.1124,-12.7608 745.5813,-13.9216 754.5377,-19.5814 756.1124,-12.7608"/>
</g>
<!-- Node12 -->
<g id="node13" class="node">
<title>Node12</title>
<polygon fill="none" stroke="#bfbfbf" points="169,-56.5 169,-75.5 225,-75.5 225,-56.5 169,-56.5"/>
<text text-anchor="middle" x="197" y="-63.5" font-family="Helvetica,sans-Serif" font-size="10.00" fill="#000000">algorithm</text>
</g>
<!-- Node0&#45;&gt;Node12 -->
<g id="edge40" class="edge">
<title>Node0&#45;&gt;Node12</title>
<path fill="none" stroke="#191970" d="M623.702,-288.2967C506.4122,-282.4401 161.9193,-259.3893 80,-188 53.3944,-164.8143 36.3038,-140.5849 57,-112 63.1938,-103.4454 119.645,-86.7881 158.9423,-76.0401"/>
<polygon fill="#191970" stroke="#191970" points="160.0338,-79.3707 168.7702,-73.3769 158.2028,-72.6143 160.0338,-79.3707"/>
</g>
<!-- Node17 -->
<g id="node18" class="node">
<title>Node17</title>
<polygon fill="none" stroke="#bfbfbf" points="778,-56.5 778,-75.5 822,-75.5 822,-56.5 778,-56.5"/>
<text text-anchor="middle" x="800" y="-63.5" font-family="Helvetica,sans-Serif" font-size="10.00" fill="#000000">cmath</text>
</g>
<!-- Node0&#45;&gt;Node17 -->
<g id="edge37" class="edge">
<title>Node0&#45;&gt;Node17</title>
<path fill="none" stroke="#191970" d="M677.9846,-280.4047C701.8141,-264.32 748.0899,-229.5591 772,-188 790.7955,-155.3309 796.9753,-110.9306 799.0064,-85.6896"/>
<polygon fill="#191970" stroke="#191970" points="802.5092,-85.7611 799.6781,-75.5515 795.5245,-85.2982 802.5092,-85.7611"/>
</g>
<!-- Node23 -->
<g id="node24" class="node">
<title>Node23</title>
<g id="a_node24"><a xlink:href="cubic__spline_8h.html" target="_top" xlink:title="cubic_spline.h">
<polygon fill="none" stroke="#000000" points="878.5,-112.5 878.5,-131.5 957.5,-131.5 957.5,-112.5 878.5,-112.5"/>
<text text-anchor="middle" x="918" y="-119.5" font-family="Helvetica,sans-Serif" font-size="10.00" fill="#000000">cubic_spline.h</text>
</a>
</g>
</g>
<!-- Node0&#45;&gt;Node23 -->
<g id="edge32" class="edge">
<title>Node0&#45;&gt;Node23</title>
<path fill="none" stroke="#191970" d="M702.0615,-285.2614C753.3168,-278.3487 839.6257,-264.0981 864,-244 895.8849,-217.709 909.5553,-168.8054 914.9127,-141.5791"/>
<polygon fill="#191970" stroke="#191970" points="918.3687,-142.1352 916.6796,-131.6758 911.4775,-140.9056 918.3687,-142.1352"/>
</g>
<!-- Node25 -->
<g id="node26" class="node">
<title>Node25</title>
<polygon fill="none" stroke="#bfbfbf" points="916.5,-224.5 916.5,-243.5 975.5,-243.5 975.5,-224.5 916.5,-224.5"/>
<text text-anchor="middle" x="946" y="-231.5" font-family="Helvetica,sans-Serif" font-size="10.00" fill="#000000">functional</text>
</g>
<!-- Node0&#45;&gt;Node25 -->
<g id="edge41" class="edge">
<title>Node0&#45;&gt;Node25</title>
<path fill="none" stroke="#191970" d="M702.4118,-282.8308C749.8559,-274.1044 831.9046,-258.7067 902,-244 903.4375,-243.6984 904.9005,-243.3873 906.3775,-243.0698"/>
<polygon fill="#191970" stroke="#191970" points="907.1903,-246.4748 916.2074,-240.9123 905.6896,-239.6375 907.1903,-246.4748"/>
</g>
<!-- Node2 -->
<g id="node3" class="node">
<title>Node2</title>
<polygon fill="none" stroke="#bfbfbf" points="490,-56.5 490,-75.5 534,-75.5 534,-56.5 490,-56.5"/>
<text text-anchor="middle" x="512" y="-63.5" font-family="Helvetica,sans-Serif" font-size="10.00" fill="#000000">vector</text>
</g>
<!-- Node1&#45;&gt;Node2 -->
<g id="edge2" class="edge">
<title>Node1&#45;&gt;Node2</title>
<path fill="none" stroke="#191970" d="M493.6567,-231.7736C560.8671,-225.6836 738.0585,-207.8731 755,-188 760.7666,-181.2355 759.9209,-175.4025 755,-168 742.5877,-149.3285 606.7211,-99.4509 543.7296,-77.1012"/>
<polygon fill="#191970" stroke="#191970" points="544.8704,-73.7923 534.2756,-73.7596 542.5376,-80.3922 544.8704,-73.7923"/>
</g>
<!-- Node3 -->
<g id="node4" class="node">
<title>Node3</title>
<polygon fill="none" stroke="#bfbfbf" points="66.5,-112.5 66.5,-131.5 95.5,-131.5 95.5,-112.5 66.5,-112.5"/>
<text text-anchor="middle" x="81" y="-119.5" font-family="Helvetica,sans-Serif" font-size="10.00" fill="#000000">list</text>
</g>
<!-- Node1&#45;&gt;Node3 -->
<g id="edge3" class="edge">
<title>Node1&#45;&gt;Node3</title>
<path fill="none" stroke="#191970" d="M442.4137,-232.5472C362.3872,-227.7723 120.6351,-211.5126 95,-188 82.4806,-176.5172 79.6531,-156.8621 79.5541,-141.9798"/>
<polygon fill="#191970" stroke="#191970" points="83.0601,-141.8549 79.8949,-131.744 76.064,-141.6219 83.0601,-141.8549"/>
</g>
<!-- Node4 -->
<g id="node5" class="node">
<title>Node4</title>
<polygon fill="none" stroke="#bfbfbf" points="498.5,-168.5 498.5,-187.5 533.5,-187.5 533.5,-168.5 498.5,-168.5"/>
<text text-anchor="middle" x="516" y="-175.5" font-family="Helvetica,sans-Serif" font-size="10.00" fill="#000000">map</text>
</g>
<!-- Node1&#45;&gt;Node4 -->
<g id="edge4" class="edge">
<title>Node1&#45;&gt;Node4</title>
<path fill="none" stroke="#191970" d="M476.361,-224.2455C483.175,-216.2958 492.9681,-204.8706 501.1152,-195.3656"/>
<polygon fill="#191970" stroke="#191970" points="503.8843,-197.513 507.7349,-187.6427 498.5695,-192.9575 503.8843,-197.513"/>
</g>
<!-- Node1&#45;&gt;Node5 -->
<g id="edge5" class="edge">
<title>Node1&#45;&gt;Node5</title>
<path fill="none" stroke="#191970" d="M442.3079,-232.5306C389.8041,-228.935 273.1184,-217.7107 249,-188 231.9621,-167.0116 264.0668,-146.5686 290.7151,-134.1312"/>
<polygon fill="#191970" stroke="#191970" points="292.4667,-137.183 300.185,-129.925 289.6251,-130.7857 292.4667,-137.183"/>
</g>
<!-- Node6 -->
<g id="node7" class="node">
<title>Node6</title>
<g id="a_node7"><a xlink:href="environment__base_8h.html" target="_top" xlink:title="environment_base.h">
<polygon fill="none" stroke="#000000" points="642,-168.5 642,-187.5 746,-187.5 746,-168.5 642,-168.5"/>
<text text-anchor="middle" x="694" y="-175.5" font-family="Helvetica,sans-Serif" font-size="10.00" fill="#000000">environment_base.h</text>
</a>
</g>
</g>
<!-- Node1&#45;&gt;Node6 -->
<g id="edge6" class="edge">
<title>Node1&#45;&gt;Node6</title>
<path fill="none" stroke="#191970" d="M493.9251,-227.5761C530.867,-218.4223 599.3127,-201.4623 645.7458,-189.9568"/>
<polygon fill="#191970" stroke="#191970" points="646.7256,-193.3199 655.5902,-187.5175 645.0419,-186.5254 646.7256,-193.3199"/>
</g>
<!-- Node7 -->
<g id="node8" class="node">
<title>Node7</title>
<g id="a_node8"><a xlink:href="species_8h.html" target="_top" xlink:title="species.h">
<polygon fill="none" stroke="#000000" points="104.5,-168.5 104.5,-187.5 163.5,-187.5 163.5,-168.5 104.5,-168.5"/>
<text text-anchor="middle" x="134" y="-175.5" font-family="Helvetica,sans-Serif" font-size="10.00" fill="#000000">species.h</text>
</a>
</g>
</g>
<!-- Node1&#45;&gt;Node7 -->
<g id="edge7" class="edge">
<title>Node1&#45;&gt;Node7</title>
<path fill="none" stroke="#191970" d="M442.3462,-229.6988C384.3732,-219.9787 242.9255,-196.263 173.6065,-184.6406"/>
<polygon fill="#191970" stroke="#191970" points="173.9635,-181.1517 163.5223,-182.9499 172.8059,-188.0553 173.9635,-181.1517"/>
</g>
<!-- Node13 -->
<g id="node14" class="node">
<title>Node13</title>
<g id="a_node14"><a xlink:href="ode__solver_8h.html" target="_top" xlink:title="ode_solver.h">
<polygon fill="none" stroke="#000000" points="552,-168.5 552,-187.5 624,-187.5 624,-168.5 552,-168.5"/>
<text text-anchor="middle" x="588" y="-175.5" font-family="Helvetica,sans-Serif" font-size="10.00" fill="#000000">ode_solver.h</text>
</a>
</g>
</g>
<!-- Node1&#45;&gt;Node13 -->
<g id="edge16" class="edge">
<title>Node1&#45;&gt;Node13</title>
<path fill="none" stroke="#191970" d="M488.6287,-224.3733C507.8919,-215.3838 536.8486,-201.8706 558.5419,-191.7471"/>
<polygon fill="#191970" stroke="#191970" points="560.0587,-194.9017 567.6405,-187.5011 557.0985,-188.5584 560.0587,-194.9017"/>
</g>
<!-- Node21 -->
<g id="node22" class="node">
<title>Node21</title>
<g id="a_node22"><a xlink:href="solver_8tpp.html" target="_top" xlink:title="../src/solver.tpp">
<polygon fill="none" stroke="#000000" points="258.5,-168.5 258.5,-187.5 343.5,-187.5 343.5,-168.5 258.5,-168.5"/>
<text text-anchor="middle" x="301" y="-175.5" font-family="Helvetica,sans-Serif" font-size="10.00" fill="#000000">../src/solver.tpp</text>
</a>
</g>
</g>
<!-- Node1&#45;&gt;Node21 -->
<g id="edge30" class="edge">
<title>Node1&#45;&gt;Node21</title>
<path fill="none" stroke="#191970" d="M442.2722,-225.3727C414.7801,-216.1538 370.8995,-201.4393 339.3353,-190.8549"/>
<polygon fill="#191970" stroke="#191970" points="340.1503,-187.4367 329.5563,-187.5758 337.9247,-194.0735 340.1503,-187.4367"/>
</g>
<!-- Node22 -->
<g id="node23" class="node">
<title>Node22</title>
<g id="a_node23"><a xlink:href="size__integrals_8tpp.html" target="_top" xlink:title="../src/size_integrals.tpp">
<polygon fill="none" stroke="#000000" points="361.5,-168.5 361.5,-187.5 480.5,-187.5 480.5,-168.5 361.5,-168.5"/>
<text text-anchor="middle" x="421" y="-175.5" font-family="Helvetica,sans-Serif" font-size="10.00" fill="#000000">../src/size_integrals.tpp</text>
</a>
</g>
</g>
<!-- Node1&#45;&gt;Node22 -->
<g id="edge31" class="edge">
<title>Node1&#45;&gt;Node22</title>
<path fill="none" stroke="#191970" d="M459.8132,-224.2455C453.1411,-216.2958 443.5521,-204.8706 435.5747,-195.3656"/>
<polygon fill="#191970" stroke="#191970" points="438.2026,-193.0524 429.093,-187.6427 432.8408,-197.5525 438.2026,-193.0524"/>
</g>
<!-- Node7&#45;&gt;Node2 -->
<g id="edge8" class="edge">
<title>Node7&#45;&gt;Node2</title>
<path fill="none" stroke="#191970" d="M161.3077,-168.4635C185.6689,-159.7163 222.1494,-146.0246 253,-132 270.3742,-124.1017 273.0383,-118.4518 291,-112 355.9104,-88.6843 436.0187,-75.6862 479.7525,-69.8388"/>
<polygon fill="#191970" stroke="#191970" points="480.3325,-73.293 489.7996,-68.5365 479.4327,-66.3511 480.3325,-73.293"/>
</g>
<!-- Node7&#45;&gt;Node3 -->
<g id="edge9" class="edge">
<title>Node7&#45;&gt;Node3</title>
<path fill="none" stroke="#191970" d="M124.7681,-168.2455C117.1683,-160.2155 106.2123,-148.6394 97.1632,-139.0781"/>
<polygon fill="#191970" stroke="#191970" points="99.542,-136.4998 90.1261,-131.6427 94.4579,-141.3115 99.542,-136.4998"/>
</g>
<!-- Node7&#45;&gt;Node5 -->
<g id="edge10" class="edge">
<title>Node7&#45;&gt;Node5</title>
<path fill="none" stroke="#191970" d="M163.6307,-169.1266C198.4058,-158.7127 255.7599,-141.5371 290.7854,-131.0482"/>
<polygon fill="#191970" stroke="#191970" points="291.8863,-134.3722 300.4619,-128.1504 289.8781,-127.6664 291.8863,-134.3722"/>
</g>
<!-- Node8 -->
<g id="node9" class="node">
<title>Node8</title>
<g id="a_node9"><a xlink:href="cohort_8h.html" target="_top" xlink:title="cohort.h">
<polygon fill="none" stroke="#000000" points="98,-56.5 98,-75.5 150,-75.5 150,-56.5 98,-56.5"/>
<text text-anchor="middle" x="124" y="-63.5" font-family="Helvetica,sans-Serif" font-size="10.00" fill="#000000">cohort.h</text>
</a>
</g>
</g>
<!-- Node7&#45;&gt;Node8 -->
<g id="edge11" class="edge">
<title>Node7&#45;&gt;Node8</title>
<path fill="none" stroke="#191970" d="M133.1474,-168.4509C131.5164,-150.184 127.9246,-109.9553 125.7587,-85.6976"/>
<polygon fill="#191970" stroke="#191970" points="129.226,-85.174 124.8504,-75.5249 122.2537,-85.7966 129.226,-85.174"/>
</g>
<!-- Node10 -->
<g id="node11" class="node">
<title>Node10</title>
<g id="a_node11"><a xlink:href="species_8tpp.html" target="_top" xlink:title="../src/species.tpp">
<polygon fill="none" stroke="#000000" points="152,-112.5 152,-131.5 244,-131.5 244,-112.5 152,-112.5"/>
<text text-anchor="middle" x="198" y="-119.5" font-family="Helvetica,sans-Serif" font-size="10.00" fill="#000000">../src/species.tpp</text>
</a>
</g>
</g>
<!-- Node7&#45;&gt;Node10 -->
<g id="edge13" class="edge">
<title>Node7&#45;&gt;Node10</title>
<path fill="none" stroke="#191970" d="M145.1479,-168.2455C154.5087,-160.0549 168.0858,-148.1749 179.1349,-138.5069"/>
<polygon fill="#191970" stroke="#191970" points="181.7588,-140.8618 186.9798,-131.6427 177.1492,-135.5937 181.7588,-140.8618"/>
</g>
<!-- Node8&#45;&gt;Node9 -->
<g id="edge12" class="edge">
<title>Node8&#45;&gt;Node9</title>
<path fill="none" stroke="#191970" d="M145.6602,-56.3733C165.9772,-47.3435 196.564,-33.7494 219.375,-23.6111"/>
<polygon fill="#191970" stroke="#191970" points="220.9059,-26.7609 228.6225,-19.5011 218.0628,-20.3642 220.9059,-26.7609"/>
</g>
<!-- Node10&#45;&gt;Node11 -->
<g id="edge14" class="edge">
<title>Node10&#45;&gt;Node11</title>
<path fill="none" stroke="#191970" d="M236.8011,-112.4355C291.2274,-99.1372 393.4038,-74.6013 481,-56 553.9196,-40.5153 639.8046,-24.6163 686.5041,-16.1666"/>
<polygon fill="#191970" stroke="#191970" points="687.1849,-19.6003 696.4048,-14.3807 685.9423,-12.7115 687.1849,-19.6003"/>
</g>
<!-- Node10&#45;&gt;Node12 -->
<g id="edge15" class="edge">
<title>Node10&#45;&gt;Node12</title>
<path fill="none" stroke="#191970" d="M197.8258,-112.2455C197.6953,-104.9382 197.5124,-94.6944 197.3519,-85.7046"/>
<polygon fill="#191970" stroke="#191970" points="200.8503,-85.5786 197.1722,-75.6427 193.8514,-85.7036 200.8503,-85.5786"/>
</g>
<!-- Node13&#45;&gt;Node2 -->
<g id="edge27" class="edge">
<title>Node13&#45;&gt;Node2</title>
<path fill="none" stroke="#191970" d="M592.932,-168.2773C599.0698,-154.6841 607.5369,-129.6833 597,-112 590.8649,-101.7039 565.1069,-88.5741 543.5375,-78.9797"/>
<polygon fill="#191970" stroke="#191970" points="544.8808,-75.7472 534.3142,-74.9731 542.0918,-82.1676 544.8808,-75.7472"/>
</g>
<!-- Node13&#45;&gt;Node5 -->
<g id="edge26" class="edge">
<title>Node13&#45;&gt;Node5</title>
<path fill="none" stroke="#191970" d="M551.8472,-170.1091C548.5188,-169.3922 545.1975,-168.6803 542,-168 474.1517,-153.5644 394.4775,-137.1005 351.7647,-128.314"/>
<polygon fill="#191970" stroke="#191970" points="352.2316,-124.8368 341.7316,-126.2514 350.822,-131.6935 352.2316,-124.8368"/>
</g>
<!-- Node13&#45;&gt;Node9 -->
<g id="edge28" class="edge">
<title>Node13&#45;&gt;Node9</title>
<path fill="none" stroke="#191970" d="M551.7276,-168.6178C522.9278,-160.5716 481.9925,-147.7892 448,-132 380.1463,-100.4826 306.7857,-50.6738 271.4394,-25.5651"/>
<polygon fill="#191970" stroke="#191970" points="273.4677,-22.7128 263.2985,-19.7399 269.3942,-28.4055 273.4677,-22.7128"/>
</g>
<!-- Node14 -->
<g id="node15" class="node">
<title>Node14</title>
<g id="a_node15"><a xlink:href="rkck45_8h.html" target="_top" xlink:title="rkck45.h">
<polygon fill="none" stroke="#000000" points="457,-112.5 457,-131.5 511,-131.5 511,-112.5 457,-112.5"/>
<text text-anchor="middle" x="484" y="-119.5" font-family="Helvetica,sans-Serif" font-size="10.00" fill="#000000">rkck45.h</text>
</a>
</g>
</g>
<!-- Node13&#45;&gt;Node14 -->
<g id="edge17" class="edge">
<title>Node13&#45;&gt;Node14</title>
<path fill="none" stroke="#191970" d="M569.8846,-168.2455C553.555,-159.4527 529.329,-146.4079 510.7661,-136.4125"/>
<polygon fill="#191970" stroke="#191970" points="512.3719,-133.3021 501.9078,-131.6427 509.0532,-139.4654 512.3719,-133.3021"/>
</g>
<!-- Node15 -->
<g id="node16" class="node">
<title>Node15</title>
<g id="a_node16"><a xlink:href="lsoda_8h.html" target="_top" xlink:title="lsoda.h">
<polygon fill="none" stroke="#000000" points="717,-112.5 717,-131.5 765,-131.5 765,-112.5 717,-112.5"/>
<text text-anchor="middle" x="741" y="-119.5" font-family="Helvetica,sans-Serif" font-size="10.00" fill="#000000">lsoda.h</text>
</a>
</g>
</g>
<!-- Node13&#45;&gt;Node15 -->
<g id="edge18" class="edge">
<title>Node13&#45;&gt;Node15</title>
<path fill="none" stroke="#191970" d="M614.3016,-168.3733C639.9815,-158.9741 679.1731,-144.6295 707.163,-134.3848"/>
<polygon fill="#191970" stroke="#191970" points="708.368,-137.6709 716.5557,-130.9469 705.962,-131.0974 708.368,-137.6709"/>
</g>
<!-- Node20 -->
<g id="node21" class="node">
<title>Node20</title>
<polygon fill="none" stroke="#bfbfbf" points="529.5,-112.5 529.5,-131.5 588.5,-131.5 588.5,-112.5 529.5,-112.5"/>
<text text-anchor="middle" x="559" y="-119.5" font-family="Helvetica,sans-Serif" font-size="10.00" fill="#000000">exception</text>
</g>
<!-- Node13&#45;&gt;Node20 -->
<g id="edge29" class="edge">
<title>Node13&#45;&gt;Node20</title>
<path fill="none" stroke="#191970" d="M582.9486,-168.2455C578.9981,-160.617 573.3903,-149.7881 568.5942,-140.5267"/>
<polygon fill="#191970" stroke="#191970" points="571.7001,-138.9131 563.9935,-131.6427 565.4841,-142.1321 571.7001,-138.9131"/>
</g>
<!-- Node15&#45;&gt;Node2 -->
<g id="edge22" class="edge">
<title>Node15&#45;&gt;Node2</title>
<path fill="none" stroke="#191970" d="M716.9105,-115.5209C712.3003,-114.3206 707.5066,-113.0996 703,-112 635.2312,-95.4647 615.0304,-95.1993 544.1422,-76.1379"/>
<polygon fill="#191970" stroke="#191970" points="544.8467,-72.7024 534.2785,-73.4535 543.0085,-79.4567 544.8467,-72.7024"/>
</g>
<!-- Node16 -->
<g id="node17" class="node">
<title>Node16</title>
<polygon fill="none" stroke="#bfbfbf" points="722,-56.5 722,-75.5 760,-75.5 760,-56.5 722,-56.5"/>
<text text-anchor="middle" x="741" y="-63.5" font-family="Helvetica,sans-Serif" font-size="10.00" fill="#000000">array</text>
</g>
<!-- Node15&#45;&gt;Node16 -->
<g id="edge19" class="edge">
<title>Node15&#45;&gt;Node16</title>
<path fill="none" stroke="#191970" d="M741,-112.2455C741,-104.9382 741,-94.6944 741,-85.7046"/>
<polygon fill="#191970" stroke="#191970" points="744.5001,-85.6426 741,-75.6427 737.5001,-85.6427 744.5001,-85.6426"/>
</g>
<!-- Node15&#45;&gt;Node17 -->
<g id="edge20" class="edge">
<title>Node15&#45;&gt;Node17</title>
<path fill="none" stroke="#191970" d="M751.277,-112.2455C759.8218,-104.1352 772.1778,-92.4075 782.3085,-82.7919"/>
<polygon fill="#191970" stroke="#191970" points="784.9972,-85.0655 789.8408,-75.6427 780.1782,-79.9884 784.9972,-85.0655"/>
</g>
<!-- Node18 -->
<g id="node19" class="node">
<title>Node18</title>
<polygon fill="none" stroke="#bfbfbf" points="652,-56.5 652,-75.5 704,-75.5 704,-56.5 652,-56.5"/>
<text text-anchor="middle" x="678" y="-63.5" font-family="Helvetica,sans-Serif" font-size="10.00" fill="#000000">memory</text>
</g>
<!-- Node15&#45;&gt;Node18 -->
<g id="edge21" class="edge">
<title>Node15&#45;&gt;Node18</title>
<path fill="none" stroke="#191970" d="M730.0262,-112.2455C720.8118,-104.0549 707.4468,-92.1749 696.5703,-82.5069"/>
<polygon fill="#191970" stroke="#191970" points="698.6474,-79.6704 688.848,-75.6427 693.9968,-84.9023 698.6474,-79.6704"/>
</g>
<!-- Node19 -->
<g id="node20" class="node">
<title>Node19</title>
<g id="a_node20"><a xlink:href="lsoda_8tpp.html" target="_top" xlink:title="../src/lsoda.tpp">
<polygon fill="none" stroke="#000000" points="552,-56.5 552,-75.5 634,-75.5 634,-56.5 552,-56.5"/>
<text text-anchor="middle" x="593" y="-63.5" font-family="Helvetica,sans-Serif" font-size="10.00" fill="#000000">../src/lsoda.tpp</text>
</a>
</g>
</g>
<!-- Node15&#45;&gt;Node19 -->
<g id="edge23" class="edge">
<title>Node15&#45;&gt;Node19</title>
<path fill="none" stroke="#191970" d="M716.8919,-112.878C692.7453,-103.7414 655.3324,-89.5852 627.9351,-79.2187"/>
<polygon fill="#191970" stroke="#191970" points="628.9291,-75.8527 618.3376,-75.5872 626.4518,-82.3997 628.9291,-75.8527"/>
</g>
<!-- Node19&#45;&gt;Node9 -->
<g id="edge24" class="edge">
<title>Node19&#45;&gt;Node9</title>
<path fill="none" stroke="#191970" d="M551.8251,-57.6237C548.8412,-57.0601 545.8759,-56.5131 543,-56 451.3287,-39.6442 342.9576,-23.441 287.2283,-15.337"/>
<polygon fill="#191970" stroke="#191970" points="287.5264,-11.8437 277.1277,-13.8731 286.5223,-18.7713 287.5264,-11.8437"/>
</g>
<!-- Node19&#45;&gt;Node11 -->
<g id="edge25" class="edge">
<title>Node19&#45;&gt;Node11</title>
<path fill="none" stroke="#191970" d="M615.004,-56.3733C635.6435,-47.3435 666.7158,-33.7494 689.8889,-23.6111"/>
<polygon fill="#191970" stroke="#191970" points="691.5245,-26.7159 699.2831,-19.5011 688.7187,-20.3028 691.5245,-26.7159"/>
</g>
<!-- Node23&#45;&gt;Node2 -->
<g id="edge33" class="edge">
<title>Node23&#45;&gt;Node2</title>
<path fill="none" stroke="#191970" d="M878.444,-119.6271C811.3489,-115.0673 670.9455,-103.2133 544.0968,-75.8905"/>
<polygon fill="#191970" stroke="#191970" points="544.7295,-72.4462 534.2119,-73.7234 543.2304,-79.2838 544.7295,-72.4462"/>
</g>
<!-- Node23&#45;&gt;Node11 -->
<g id="edge34" class="edge">
<title>Node23&#45;&gt;Node11</title>
<path fill="none" stroke="#191970" d="M912.6539,-112.4473C904.1663,-98.1304 886.2667,-71.1729 864,-56 831.0339,-33.5363 786.4084,-21.4943 755.8268,-15.4398"/>
<polygon fill="#191970" stroke="#191970" points="756.1096,-11.9323 745.6375,-13.5407 754.8269,-18.8138 756.1096,-11.9323"/>
</g>
<!-- Node24 -->
<g id="node25" class="node">
<title>Node24</title>
<polygon fill="none" stroke="#bfbfbf" points="916,-56.5 916,-75.5 966,-75.5 966,-56.5 916,-56.5"/>
<text text-anchor="middle" x="941" y="-63.5" font-family="Helvetica,sans-Serif" font-size="10.00" fill="#000000">iomanip</text>
</g>
<!-- Node23&#45;&gt;Node24 -->
<g id="edge35" class="edge">
<title>Node23&#45;&gt;Node24</title>
<path fill="none" stroke="#191970" d="M922.0063,-112.2455C925.0735,-104.7776 929.4003,-94.2427 933.1497,-85.1137"/>
<polygon fill="#191970" stroke="#191970" points="936.4779,-86.2226 937.0396,-75.6427 930.0028,-83.5631 936.4779,-86.2226"/>
</g>
</g>
</svg>
