<?xml version="1.0" encoding="UTF-8" standalone="no"?>
<!DOCTYPE svg PUBLIC "-//W3C//DTD SVG 1.1//EN"
 "http://www.w3.org/Graphics/SVG/1.1/DTD/svg11.dtd">
<!-- Generated by graphviz version 2.40.1 (20161225.0304)
 -->
<!-- Title: include/species.h Pages: 1 -->
<svg width="429pt" height="140pt"
 viewBox="0.00 0.00 428.50 140.00" xmlns="http://www.w3.org/2000/svg" xmlns:xlink="http://www.w3.org/1999/xlink">
<g id="graph0" class="graph" transform="scale(1 1) rotate(0) translate(4 136)">
<title>include/species.h</title>
<!-- Node0 -->
<g id="node1" class="node">
<title>Node0</title>
<polygon fill="#bfbfbf" stroke="#000000" points="84,-112.5 84,-131.5 176,-131.5 176,-112.5 84,-112.5"/>
<text text-anchor="middle" x="130" y="-119.5" font-family="Helvetica,sans-Serif" font-size="10.00" fill="#000000">include/species.h</text>
</g>
<!-- Node1 -->
<g id="node2" class="node">
<title>Node1</title>
<polygon fill="none" stroke="#bfbfbf" points="0,-56.5 0,-75.5 44,-75.5 44,-56.5 0,-56.5"/>
<text text-anchor="middle" x="22" y="-63.5" font-family="Helvetica,sans-Serif" font-size="10.00" fill="#000000">vector</text>
</g>
<!-- Node0&#45;&gt;Node1 -->
<g id="edge1" class="edge">
<title>Node0&#45;&gt;Node1</title>
<path fill="none" stroke="#191970" d="M111.1878,-112.2455C94.1527,-103.4125 68.8425,-90.2887 49.5319,-80.2758"/>
<polygon fill="#191970" stroke="#191970" points="51.0853,-77.1388 40.5966,-75.6427 47.863,-83.353 51.0853,-77.1388"/>
</g>
<!-- Node2 -->
<g id="node3" class="node">
<title>Node2</title>
<polygon fill="none" stroke="#bfbfbf" points="62.5,-56.5 62.5,-75.5 91.5,-75.5 91.5,-56.5 62.5,-56.5"/>
<text text-anchor="middle" x="77" y="-63.5" font-family="Helvetica,sans-Serif" font-size="10.00" fill="#000000">list</text>
</g>
<!-- Node0&#45;&gt;Node2 -->
<g id="edge2" class="edge">
<title>Node0&#45;&gt;Node2</title>
<path fill="none" stroke="#191970" d="M120.7681,-112.2455C113.1683,-104.2155 102.2123,-92.6394 93.1632,-83.0781"/>
<polygon fill="#191970" stroke="#191970" points="95.542,-80.4998 86.1261,-75.6427 90.4579,-85.3115 95.542,-80.4998"/>
</g>
<!-- Node3 -->
<g id="node4" class="node">
<title>Node3</title>
<polygon fill="none" stroke="#bfbfbf" points="109.5,-56.5 109.5,-75.5 150.5,-75.5 150.5,-56.5 109.5,-56.5"/>
<text text-anchor="middle" x="130" y="-63.5" font-family="Helvetica,sans-Serif" font-size="10.00" fill="#000000">string</text>
</g>
<!-- Node0&#45;&gt;Node3 -->
<g id="edge3" class="edge">
<title>Node0&#45;&gt;Node3</title>
<path fill="none" stroke="#191970" d="M130,-112.2455C130,-104.9382 130,-94.6944 130,-85.7046"/>
<polygon fill="#191970" stroke="#191970" points="133.5001,-85.6426 130,-75.6427 126.5001,-85.6427 133.5001,-85.6426"/>
</g>
<!-- Node4 -->
<g id="node5" class="node">
<title>Node4</title>
<g id="a_node5"><a xlink:href="cohort_8h.html" target="_top" xlink:title="cohort.h">
<polygon fill="none" stroke="#000000" points="169,-56.5 169,-75.5 221,-75.5 221,-56.5 169,-56.5"/>
<text text-anchor="middle" x="195" y="-63.5" font-family="Helvetica,sans-Serif" font-size="10.00" fill="#000000">cohort.h</text>
</a>
</g>
</g>
<!-- Node0&#45;&gt;Node4 -->
<g id="edge4" class="edge">
<title>Node0&#45;&gt;Node4</title>
<path fill="none" stroke="#191970" d="M141.3221,-112.2455C150.9223,-103.9746 164.8892,-91.9416 176.1695,-82.2232"/>
<polygon fill="#191970" stroke="#191970" points="178.516,-84.8214 183.8076,-75.6427 173.947,-79.5182 178.516,-84.8214"/>
</g>
<!-- Node6 -->
<g id="node7" class="node">
<title>Node6</title>
<g id="a_node7"><a xlink:href="species_8tpp.html" target="_top" xlink:title="../src/species.tpp">
<polygon fill="none" stroke="#000000" points="264,-56.5 264,-75.5 356,-75.5 356,-56.5 264,-56.5"/>
<text text-anchor="middle" x="310" y="-63.5" font-family="Helvetica,sans-Serif" font-size="10.00" fill="#000000">../src/species.tpp</text>
</a>
</g>
</g>
<!-- Node0&#45;&gt;Node6 -->
<g id="edge6" class="edge">
<title>Node0&#45;&gt;Node6</title>
<path fill="none" stroke="#191970" d="M160.9431,-112.3733C191.0039,-103.021 236.8026,-88.7725 269.6978,-78.5385"/>
<polygon fill="#191970" stroke="#191970" points="270.9519,-81.8139 279.4607,-75.5011 268.8723,-75.1299 270.9519,-81.8139"/>
</g>
<!-- Node5 -->
<g id="node6" class="node">
<title>Node5</title>
<polygon fill="none" stroke="#bfbfbf" points="155,-.5 155,-19.5 209,-19.5 209,-.5 155,-.5"/>
<text text-anchor="middle" x="182" y="-7.5" font-family="Helvetica,sans-Serif" font-size="10.00" fill="#000000">iostream</text>
</g>
<!-- Node4&#45;&gt;Node5 -->
<g id="edge5" class="edge">
<title>Node4&#45;&gt;Node5</title>
<path fill="none" stroke="#191970" d="M192.7356,-56.2455C191.0206,-48.8579 188.6088,-38.4689 186.5056,-29.4087"/>
<polygon fill="#191970" stroke="#191970" points="189.9092,-28.5922 184.2385,-19.6427 183.0905,-30.1751 189.9092,-28.5922"/>
</g>
<!-- Node7 -->
<g id="node8" class="node">
<title>Node7</title>
<polygon fill="none" stroke="#bfbfbf" points="227.5,-.5 227.5,-19.5 276.5,-19.5 276.5,-.5 227.5,-.5"/>
<text text-anchor="middle" x="252" y="-7.5" font-family="Helvetica,sans-Serif" font-size="10.00" fill="#000000">cassert</text>
</g>
<!-- Node6&#45;&gt;Node7 -->
<g id="edge7" class="edge">
<title>Node6&#45;&gt;Node7</title>
<path fill="none" stroke="#191970" d="M299.8972,-56.2455C291.4972,-48.1352 279.3506,-36.4075 269.3916,-26.7919"/>
<polygon fill="#191970" stroke="#191970" points="271.6122,-24.0707 261.9871,-19.6427 266.75,-29.1066 271.6122,-24.0707"/>
</g>
<!-- Node8 -->
<g id="node9" class="node">
<title>Node8</title>
<polygon fill="none" stroke="#bfbfbf" points="295,-.5 295,-19.5 351,-19.5 351,-.5 295,-.5"/>
<text text-anchor="middle" x="323" y="-7.5" font-family="Helvetica,sans-Serif" font-size="10.00" fill="#000000">algorithm</text>
</g>
<!-- Node6&#45;&gt;Node8 -->
<g id="edge8" class="edge">
<title>Node6&#45;&gt;Node8</title>
<path fill="none" stroke="#191970" d="M312.2644,-56.2455C313.9794,-48.8579 316.3912,-38.4689 318.4944,-29.4087"/>
<polygon fill="#191970" stroke="#191970" points="321.9095,-30.1751 320.7615,-19.6427 315.0908,-28.5922 321.9095,-30.1751"/>
</g>
<!-- Node9 -->
<g id="node10" class="node">
<title>Node9</title>
<polygon fill="none" stroke="#bfbfbf" points="369.5,-.5 369.5,-19.5 420.5,-19.5 420.5,-.5 369.5,-.5"/>
<text text-anchor="middle" x="395" y="-7.5" font-family="Helvetica,sans-Serif" font-size="10.00" fill="#000000">numeric</text>
</g>
<!-- Node6&#45;&gt;Node9 -->
<g id="edge9" class="edge">
<title>Node6&#45;&gt;Node9</title>
<path fill="none" stroke="#191970" d="M324.8059,-56.2455C337.7256,-47.7337 356.6931,-35.2375 371.6552,-25.3801"/>
<polygon fill="#191970" stroke="#191970" points="373.9387,-28.067 380.3638,-19.6427 370.0876,-22.2216 373.9387,-28.067"/>
</g>
</g>
</svg>
