<?xml version="1.0" encoding="UTF-8" standalone="no"?>
<!DOCTYPE svg PUBLIC "-//W3C//DTD SVG 1.1//EN"
 "http://www.w3.org/Graphics/SVG/1.1/DTD/svg11.dtd">
<!-- Generated by graphviz version 2.40.1 (20161225.0304)
 -->
<!-- Title: include/species.h Pages: 1 -->
<svg width="429pt" height="140pt"
 viewBox="0.00 0.00 428.50 140.00" xmlns="http://www.w3.org/2000/svg" xmlns:xlink="http://www.w3.org/1999/xlink">
<g id="graph0" class="graph" transform="scale(1 1) rotate(0) translate(4 136)">
<title>include/species.h</title>
<!-- Node9 -->
<g id="node1" class="node">
<title>Node9</title>
<polygon fill="#bfbfbf" stroke="#000000" points="102.5,-112.5 102.5,-131.5 194.5,-131.5 194.5,-112.5 102.5,-112.5"/>
<text text-anchor="middle" x="148.5" y="-119.5" font-family="Helvetica,sans-Serif" font-size="10.00" fill="#000000">include/species.h</text>
</g>
<!-- Node10 -->
<g id="node2" class="node">
<title>Node10</title>
<g id="a_node2"><a xlink:href="species_8cpp.html" target="_top" xlink:title="src/species.cpp">
<polygon fill="none" stroke="#000000" points="53.5,-56.5 53.5,-75.5 139.5,-75.5 139.5,-56.5 53.5,-56.5"/>
<text text-anchor="middle" x="96.5" y="-63.5" font-family="Helvetica,sans-Serif" font-size="10.00" fill="#000000">src/species.cpp</text>
</a>
</g>
</g>
<!-- Node9&#45;&gt;Node10 -->
<g id="edge1" class="edge">
<title>Node9&#45;&gt;Node10</title>
<path fill="none" stroke="#191970" d="M132.5178,-104.7884C123.6222,-95.2085 112.8796,-83.6396 105.4539,-75.6427"/>
<polygon fill="#191970" stroke="#191970" points="130.073,-107.2992 139.4423,-112.2455 135.2025,-102.536 130.073,-107.2992"/>
</g>
<!-- Node11 -->
<g id="node3" class="node">
<title>Node11</title>
<g id="a_node3"><a xlink:href="solver_8h.html" target="_top" xlink:title="include/solver.h">
<polygon fill="none" stroke="#000000" points="158,-56.5 158,-75.5 243,-75.5 243,-56.5 158,-56.5"/>
<text text-anchor="middle" x="200.5" y="-63.5" font-family="Helvetica,sans-Serif" font-size="10.00" fill="#000000">include/solver.h</text>
</a>
</g>
</g>
<!-- Node9&#45;&gt;Node11 -->
<g id="edge2" class="edge">
<title>Node9&#45;&gt;Node11</title>
<path fill="none" stroke="#191970" d="M164.4822,-104.7884C173.3778,-95.2085 184.1204,-83.6396 191.5461,-75.6427"/>
<polygon fill="#191970" stroke="#191970" points="161.7975,-102.536 157.5577,-112.2455 166.927,-107.2992 161.7975,-102.536"/>
</g>
<!-- Node12 -->
<g id="node4" class="node">
<title>Node12</title>
<g id="a_node4"><a xlink:href="cm_8cpp.html" target="_top" xlink:title="src/cm.cpp">
<polygon fill="none" stroke="#000000" points="0,-.5 0,-19.5 65,-19.5 65,-.5 0,-.5"/>
<text text-anchor="middle" x="32.5" y="-7.5" font-family="Helvetica,sans-Serif" font-size="10.00" fill="#000000">src/cm.cpp</text>
</a>
</g>
</g>
<!-- Node11&#45;&gt;Node12 -->
<g id="edge3" class="edge">
<title>Node11&#45;&gt;Node12</title>
<path fill="none" stroke="#191970" d="M162.0714,-53.1905C131.2927,-42.9309 88.8074,-28.7691 61.0034,-19.5011"/>
<polygon fill="#191970" stroke="#191970" points="161.0261,-56.5313 171.6198,-56.3733 163.2398,-49.8905 161.0261,-56.5313"/>
</g>
<!-- Node13 -->
<g id="node5" class="node">
<title>Node13</title>
<g id="a_node5"><a xlink:href="ebt_8cpp.html" target="_top" xlink:title="src/ebt.cpp">
<polygon fill="none" stroke="#000000" points="83,-.5 83,-19.5 148,-19.5 148,-.5 83,-.5"/>
<text text-anchor="middle" x="115.5" y="-7.5" font-family="Helvetica,sans-Serif" font-size="10.00" fill="#000000">src/ebt.cpp</text>
</a>
</g>
</g>
<!-- Node11&#45;&gt;Node13 -->
<g id="edge4" class="edge">
<title>Node11&#45;&gt;Node13</title>
<path fill="none" stroke="#191970" d="M176.9581,-50.49C161.961,-40.6096 143.0027,-28.1194 130.1362,-19.6427"/>
<polygon fill="#191970" stroke="#191970" points="175.4179,-53.6666 185.6941,-56.2455 179.2691,-47.8212 175.4179,-53.6666"/>
</g>
<!-- Node14 -->
<g id="node6" class="node">
<title>Node14</title>
<g id="a_node6"><a xlink:href="fmu_8cpp.html" target="_top" xlink:title="src/fmu.cpp">
<polygon fill="none" stroke="#000000" points="166.5,-.5 166.5,-19.5 234.5,-19.5 234.5,-.5 166.5,-.5"/>
<text text-anchor="middle" x="200.5" y="-7.5" font-family="Helvetica,sans-Serif" font-size="10.00" fill="#000000">src/fmu.cpp</text>
</a>
</g>
</g>
<!-- Node11&#45;&gt;Node14 -->
<g id="edge5" class="edge">
<title>Node11&#45;&gt;Node14</title>
<path fill="none" stroke="#191970" d="M200.5,-46.1575C200.5,-37.155 200.5,-26.9199 200.5,-19.6427"/>
<polygon fill="#191970" stroke="#191970" points="197.0001,-46.2455 200.5,-56.2455 204.0001,-46.2456 197.0001,-46.2455"/>
</g>
<!-- Node15 -->
<g id="node7" class="node">
<title>Node15</title>
<g id="a_node7"><a xlink:href="ifmu_8cpp.html" target="_top" xlink:title="src/ifmu.cpp">
<polygon fill="none" stroke="#000000" points="253,-.5 253,-19.5 324,-19.5 324,-.5 253,-.5"/>
<text text-anchor="middle" x="288.5" y="-7.5" font-family="Helvetica,sans-Serif" font-size="10.00" fill="#000000">src/ifmu.cpp</text>
</a>
</g>
</g>
<!-- Node11&#45;&gt;Node15 -->
<g id="edge6" class="edge">
<title>Node11&#45;&gt;Node15</title>
<path fill="none" stroke="#191970" d="M224.4345,-50.769C240.0283,-40.8456 259.901,-28.1994 273.3472,-19.6427"/>
<polygon fill="#191970" stroke="#191970" points="222.386,-47.9239 215.8284,-56.2455 226.1441,-53.8296 222.386,-47.9239"/>
</g>
<!-- Node16 -->
<g id="node8" class="node">
<title>Node16</title>
<g id="a_node8"><a xlink:href="solver_8cpp.html" target="_top" xlink:title="src/solver.cpp">
<polygon fill="none" stroke="#000000" points="342.5,-.5 342.5,-19.5 420.5,-19.5 420.5,-.5 342.5,-.5"/>
<text text-anchor="middle" x="381.5" y="-7.5" font-family="Helvetica,sans-Serif" font-size="10.00" fill="#000000">src/solver.cpp</text>
</a>
</g>
</g>
<!-- Node11&#45;&gt;Node16 -->
<g id="edge7" class="edge">
<title>Node11&#45;&gt;Node16</title>
<path fill="none" stroke="#191970" d="M241.4722,-53.3235C274.6661,-43.0536 320.7058,-28.8093 350.791,-19.5011"/>
<polygon fill="#191970" stroke="#191970" points="240.1337,-50.0739 231.615,-56.3733 242.2027,-56.7611 240.1337,-50.0739"/>
</g>
</g>
</svg>
