<?xml version="1.0" encoding="UTF-8" standalone="no"?>
<!DOCTYPE svg PUBLIC "-//W3C//DTD SVG 1.1//EN"
 "http://www.w3.org/Graphics/SVG/1.1/DTD/svg11.dtd">
<!-- Generated by graphviz version 2.40.1 (20161225.0304)
 -->
<!-- Title: src/species.cpp Pages: 1 -->
<svg width="382pt" height="196pt"
 viewBox="0.00 0.00 382.00 196.00" xmlns="http://www.w3.org/2000/svg" xmlns:xlink="http://www.w3.org/1999/xlink">
<g id="graph0" class="graph" transform="scale(1 1) rotate(0) translate(4 192)">
<title>src/species.cpp</title>
<!-- Node0 -->
<g id="node1" class="node">
<title>Node0</title>
<polygon fill="#bfbfbf" stroke="#000000" points="87,-168.5 87,-187.5 173,-187.5 173,-168.5 87,-168.5"/>
<text text-anchor="middle" x="130" y="-175.5" font-family="Helvetica,sans-Serif" font-size="10.00" fill="#000000">src/species.cpp</text>
</g>
<!-- Node1 -->
<g id="node2" class="node">
<title>Node1</title>
<g id="a_node2"><a xlink:href="species_8h.html" target="_top" xlink:title="species.h">
<polygon fill="none" stroke="#000000" points="100.5,-112.5 100.5,-131.5 159.5,-131.5 159.5,-112.5 100.5,-112.5"/>
<text text-anchor="middle" x="130" y="-119.5" font-family="Helvetica,sans-Serif" font-size="10.00" fill="#000000">species.h</text>
</a>
</g>
</g>
<!-- Node0&#45;&gt;Node1 -->
<g id="edge1" class="edge">
<title>Node0&#45;&gt;Node1</title>
<path fill="none" stroke="#191970" d="M130,-168.2455C130,-160.9382 130,-150.6944 130,-141.7046"/>
<polygon fill="#191970" stroke="#191970" points="133.5001,-141.6426 130,-131.6427 126.5001,-141.6427 133.5001,-141.6426"/>
</g>
<!-- Node2 -->
<g id="node3" class="node">
<title>Node2</title>
<polygon fill="none" stroke="#bfbfbf" points="0,-56.5 0,-75.5 44,-75.5 44,-56.5 0,-56.5"/>
<text text-anchor="middle" x="22" y="-63.5" font-family="Helvetica,sans-Serif" font-size="10.00" fill="#000000">vector</text>
</g>
<!-- Node1&#45;&gt;Node2 -->
<g id="edge2" class="edge">
<title>Node1&#45;&gt;Node2</title>
<path fill="none" stroke="#191970" d="M111.1878,-112.2455C94.1527,-103.4125 68.8425,-90.2887 49.5319,-80.2758"/>
<polygon fill="#191970" stroke="#191970" points="51.0853,-77.1388 40.5966,-75.6427 47.863,-83.353 51.0853,-77.1388"/>
</g>
<!-- Node3 -->
<g id="node4" class="node">
<title>Node3</title>
<polygon fill="none" stroke="#bfbfbf" points="62.5,-56.5 62.5,-75.5 91.5,-75.5 91.5,-56.5 62.5,-56.5"/>
<text text-anchor="middle" x="77" y="-63.5" font-family="Helvetica,sans-Serif" font-size="10.00" fill="#000000">list</text>
</g>
<!-- Node1&#45;&gt;Node3 -->
<g id="edge3" class="edge">
<title>Node1&#45;&gt;Node3</title>
<path fill="none" stroke="#191970" d="M120.7681,-112.2455C113.1683,-104.2155 102.2123,-92.6394 93.1632,-83.0781"/>
<polygon fill="#191970" stroke="#191970" points="95.542,-80.4998 86.1261,-75.6427 90.4579,-85.3115 95.542,-80.4998"/>
</g>
<!-- Node4 -->
<g id="node5" class="node">
<title>Node4</title>
<polygon fill="none" stroke="#bfbfbf" points="109.5,-56.5 109.5,-75.5 150.5,-75.5 150.5,-56.5 109.5,-56.5"/>
<text text-anchor="middle" x="130" y="-63.5" font-family="Helvetica,sans-Serif" font-size="10.00" fill="#000000">string</text>
</g>
<!-- Node1&#45;&gt;Node4 -->
<g id="edge4" class="edge">
<title>Node1&#45;&gt;Node4</title>
<path fill="none" stroke="#191970" d="M130,-112.2455C130,-104.9382 130,-94.6944 130,-85.7046"/>
<polygon fill="#191970" stroke="#191970" points="133.5001,-85.6426 130,-75.6427 126.5001,-85.6427 133.5001,-85.6426"/>
</g>
<!-- Node5 -->
<g id="node6" class="node">
<title>Node5</title>
<g id="a_node6"><a xlink:href="cohort_8h.html" target="_top" xlink:title="cohort.h">
<polygon fill="none" stroke="#000000" points="169,-56.5 169,-75.5 221,-75.5 221,-56.5 169,-56.5"/>
<text text-anchor="middle" x="195" y="-63.5" font-family="Helvetica,sans-Serif" font-size="10.00" fill="#000000">cohort.h</text>
</a>
</g>
</g>
<!-- Node1&#45;&gt;Node5 -->
<g id="edge5" class="edge">
<title>Node1&#45;&gt;Node5</title>
<path fill="none" stroke="#191970" d="M141.3221,-112.2455C150.9223,-103.9746 164.8892,-91.9416 176.1695,-82.2232"/>
<polygon fill="#191970" stroke="#191970" points="178.516,-84.8214 183.8076,-75.6427 173.947,-79.5182 178.516,-84.8214"/>
</g>
<!-- Node7 -->
<g id="node8" class="node">
<title>Node7</title>
<g id="a_node8"><a xlink:href="species_8tpp.html" target="_top" xlink:title="../src/species.tpp">
<polygon fill="none" stroke="#000000" points="239,-56.5 239,-75.5 331,-75.5 331,-56.5 239,-56.5"/>
<text text-anchor="middle" x="285" y="-63.5" font-family="Helvetica,sans-Serif" font-size="10.00" fill="#000000">../src/species.tpp</text>
</a>
</g>
</g>
<!-- Node1&#45;&gt;Node7 -->
<g id="edge7" class="edge">
<title>Node1&#45;&gt;Node7</title>
<path fill="none" stroke="#191970" d="M156.6454,-112.3733C182.1964,-103.1419 220.9512,-89.1402 249.1909,-78.9375"/>
<polygon fill="#191970" stroke="#191970" points="250.4865,-82.1909 258.7022,-75.5011 248.1079,-75.6074 250.4865,-82.1909"/>
</g>
<!-- Node6 -->
<g id="node7" class="node">
<title>Node6</title>
<polygon fill="none" stroke="#bfbfbf" points="168,-.5 168,-19.5 222,-19.5 222,-.5 168,-.5"/>
<text text-anchor="middle" x="195" y="-7.5" font-family="Helvetica,sans-Serif" font-size="10.00" fill="#000000">iostream</text>
</g>
<!-- Node5&#45;&gt;Node6 -->
<g id="edge6" class="edge">
<title>Node5&#45;&gt;Node6</title>
<path fill="none" stroke="#191970" d="M195,-56.2455C195,-48.9382 195,-38.6944 195,-29.7046"/>
<polygon fill="#191970" stroke="#191970" points="198.5001,-29.6426 195,-19.6427 191.5001,-29.6427 198.5001,-29.6426"/>
</g>
<!-- Node8 -->
<g id="node9" class="node">
<title>Node8</title>
<polygon fill="none" stroke="#bfbfbf" points="250.5,-.5 250.5,-19.5 299.5,-19.5 299.5,-.5 250.5,-.5"/>
<text text-anchor="middle" x="275" y="-7.5" font-family="Helvetica,sans-Serif" font-size="10.00" fill="#000000">cassert</text>
</g>
<!-- Node7&#45;&gt;Node8 -->
<g id="edge8" class="edge">
<title>Node7&#45;&gt;Node8</title>
<path fill="none" stroke="#191970" d="M283.2581,-56.2455C281.9533,-48.9382 280.124,-38.6944 278.5187,-29.7046"/>
<polygon fill="#191970" stroke="#191970" points="281.9254,-28.8717 276.7219,-19.6427 275.0344,-30.1022 281.9254,-28.8717"/>
</g>
<!-- Node9 -->
<g id="node10" class="node">
<title>Node9</title>
<polygon fill="none" stroke="#bfbfbf" points="318,-.5 318,-19.5 374,-19.5 374,-.5 318,-.5"/>
<text text-anchor="middle" x="346" y="-7.5" font-family="Helvetica,sans-Serif" font-size="10.00" fill="#000000">algorithm</text>
</g>
<!-- Node7&#45;&gt;Node9 -->
<g id="edge9" class="edge">
<title>Node7&#45;&gt;Node9</title>
<path fill="none" stroke="#191970" d="M295.6254,-56.2455C304.5473,-48.0549 317.488,-36.1749 328.0192,-26.5069"/>
<polygon fill="#191970" stroke="#191970" points="330.4968,-28.9837 335.4964,-19.6427 325.7629,-23.8271 330.4968,-28.9837"/>
</g>
</g>
</svg>
